<?xml version="1.0" encoding="UTF-8" standalone="no"?>
<svg viewBox="0 0 241.3 53.975" height="204" width="912" xmlns:xlink="http://www.w3.org/1999/xlink" xmlns="http://www.w3.org/2000/svg"><defs><symbol overflow="visible" id="a"><path d="M2.64-3.719h1.126c-.329 1.469-.422 1.906-.422 2.578 0 .141 0 .407.078.75.11.438.219.5.36.5.202 0 .421-.171.421-.375 0-.062 0-.078-.062-.218-.297-.72-.297-1.375-.297-1.657 0-.515.078-1.062.187-1.578h1.125c.14 0 .5 0 .5-.344 0-.234-.218-.234-.406-.234H1.906c-.218 0-.593 0-1.031.469-.344.39-.61.844-.61.89 0 .016 0 .11.126.11.078 0 .093-.047.156-.125.484-.766 1.062-.766 1.265-.766h.563c-.313 1.203-.844 2.406-1.266 3.313-.078.156-.078.172-.078.25 0 .187.157.265.282.265.296 0 .375-.28.5-.64.14-.469.14-.485.265-.985zm0 0"/></symbol><symbol overflow="visible" id="p"><path d="M2.86-6.813s0-.109-.126-.109c-.234 0-.953.078-1.218.11-.079 0-.188.015-.188.187 0 .125.094.125.234.125.485 0 .5.063.5.172l-.03.203L.593-.391C.547-.25.547-.234.547-.17c0 .234.203.28.297.28a.418.418 0 00.328-.203c.047-.093.5-1.937.562-2.187.344.031 1.157.187 1.157.844 0 .078 0 .109-.032.218-.015.11-.03.235-.03.344 0 .578.39.984.905.984.297 0 .579-.156.797-.53.25-.438.36-.985.36-1 0-.11-.094-.11-.125-.11-.094 0-.11.047-.141.187-.203.719-.422 1.235-.86 1.235-.203 0-.328-.11-.328-.47 0-.171.047-.405.079-.562.046-.171.046-.203.046-.312 0-.64-.624-.922-1.484-1.047.313-.172.64-.484.86-.734.484-.532.937-.954 1.421-.954.063 0 .079 0 .094.016.125.016.125.016.219.078.016 0 .016.016.031.032a.569.569 0 00-.562.546c0 .157.109.344.375.344.265 0 .546-.219.546-.61 0-.296-.234-.624-.671-.624-.282 0-.735.078-1.454.875-.343.375-.734.781-1.109.922zm0 0"/></symbol><symbol overflow="visible" id="b"><path d="M3.516-1.266H3.28c-.015.157-.094.563-.187.625-.047.047-.578.047-.688.047H1.125c.734-.64.984-.844 1.39-1.172.516-.406 1-.843 1-1.5 0-.843-.734-1.359-1.624-1.359-.86 0-1.454.61-1.454 1.25 0 .344.297.39.376.39.156 0 .359-.124.359-.374 0-.125-.047-.375-.406-.375.218-.485.687-.641 1.015-.641.703 0 1.063.547 1.063 1.11 0 .609-.438 1.078-.656 1.328L.516-.266C.437-.203.437-.187.437 0h2.876zm0 0"/></symbol><symbol overflow="visible" id="m"><path d="M5.36-2.344c.093 0 .25 0 .25-.172 0-.171-.157-.171-.25-.171H.75c-.094 0-.266 0-.266.171 0 .172.157.172.266.172zm0 1.531c.093 0 .25 0 .25-.156 0-.187-.157-.187-.25-.187H.75c-.11 0-.266 0-.266.187 0 .156.172.156.266.156zm0 0"/></symbol><symbol overflow="visible" id="n"><path d="M2.328-4.438c0-.187 0-.187-.203-.187-.453.438-1.078.438-1.36.438v.25c.157 0 .626 0 1-.188v3.547c0 .234 0 .328-.687.328H.812V0c.125 0 .985-.031 1.235-.031.219 0 1.094.031 1.25.031v-.25H3.03c-.703 0-.703-.094-.703-.328zm0 0"/></symbol><symbol overflow="visible" id="c"><path d="M1.313-3.266v-.25c0-2.515 1.234-2.875 1.75-2.875.234 0 .656.063.874.407-.156 0-.546 0-.546.437 0 .313.234.469.453.469.156 0 .469-.094.469-.484 0-.594-.438-1.079-1.266-1.079C1.766-6.64.422-5.359.422-3.156.422-.484 1.578.219 2.5.219c1.11 0 2.063-.938 2.063-2.25 0-1.266-.891-2.219-2-2.219-.672 0-1.047.5-1.25.984zM2.5-.062c-.625 0-.922-.594-.984-.75-.188-.47-.188-1.266-.188-1.438 0-.781.328-1.781 1.219-1.781.172 0 .625 0 .937.625.172.36.172.875.172 1.36 0 .483 0 .983-.172 1.343-.296.594-.75.64-.984.64zm0 0"/></symbol><symbol overflow="visible" id="d"><path d="M6.844-3.266c.156 0 .343 0 .343-.187 0-.203-.187-.203-.328-.203H.891c-.141 0-.329 0-.329.203 0 .187.188.187.329.187zm.015 1.938c.141 0 .329 0 .329-.203 0-.188-.188-.188-.344-.188H.89c-.141 0-.329 0-.329.188 0 .203.188.203.329.203zm0 0"/></symbol><symbol overflow="visible" id="e"><path d="M1.766-6.922l-1.438.11v.312c.703 0 .781.063.781.563V-.75c0 .438-.109.438-.78.438V0c.327-.016.859-.031 1.109-.031s.734.015 1.109.031v-.313c-.672 0-.781 0-.781-.437zm0 0"/></symbol><symbol overflow="visible" id="f"><path d="M1.766-4.406l-1.391.11v.312c.64 0 .734.062.734.546V-.75c0 .438-.109.438-.78.438V0c.312-.016.859-.031 1.093-.031.36 0 .703.015 1.047.031v-.313c-.672 0-.703-.046-.703-.437zm.03-1.735a.514.514 0 00-.515-.53.537.537 0 00-.531.53c0 .266.219.532.531.532a.514.514 0 00.516-.532zm0 0"/></symbol><symbol overflow="visible" id="g"><path d="M1.094-3.422V-.75c0 .438-.11.438-.782.438V0c.36-.016.86-.031 1.141-.031.25 0 .766.015 1.11.031v-.313c-.672 0-.782 0-.782-.437v-1.844c0-1.031.719-1.594 1.344-1.594.64 0 .75.532.75 1.11V-.75c0 .438-.11.438-.781.438V0c.344-.016.86-.031 1.125-.031.25 0 .781.015 1.11.031v-.313c-.657 0-.766 0-.766-.437v-1.844c0-1.031.703-1.594 1.343-1.594.625 0 .735.532.735 1.11V-.75c0 .438-.11.438-.782.438V0c.344-.016.86-.031 1.125-.031.266 0 .782.015 1.125.031v-.313c-.515 0-.765 0-.78-.296v-1.907c0-.859 0-1.156-.313-1.515-.141-.172-.47-.375-1.047-.375-.828 0-1.282.593-1.438.984-.14-.875-.875-.984-1.328-.984-.734 0-1.203.422-1.484 1.047v-1.047l-1.407.11v.312c.704 0 .782.062.782.562zm0 0"/></symbol><symbol overflow="visible" id="o"><path d="M2.938-6.375c0-.25 0-.266-.235-.266C2.078-6 1.203-6 .891-6v.313c.203 0 .78 0 1.296-.266v5.172c0 .36-.03.469-.921.469H.953V0c.344-.031 1.203-.031 1.61-.031.39 0 1.265 0 1.609.031v-.313h-.313c-.906 0-.921-.109-.921-.468zm0 0"/></symbol><symbol overflow="visible" id="h"><path d="M.844-.438C.828-.344.78-.171.78-.156c0 .156.125.218.235.218a.377.377 0 00.28-.14c.032-.063.079-.297.126-.438.031-.125.11-.453.14-.625.047-.156.094-.312.125-.468.079-.282.094-.344.297-.625.188-.282.516-.641 1.047-.641.39 0 .406.36.406.484 0 .422-.296 1.188-.406 1.485-.078.203-.11.265-.11.375 0 .375.298.594.657.594.703 0 1-.954 1-1.063 0-.094-.078-.094-.11-.094-.093 0-.093.047-.124.125-.157.563-.469.844-.735.844-.156 0-.187-.094-.187-.25s.047-.25.172-.563c.078-.218.36-.953.36-1.343 0-.672-.532-.797-.907-.797-.578 0-.969.36-1.172.64-.047-.484-.453-.64-.75-.64s-.453.219-.547.375c-.156.265-.25.656-.25.703 0 .078.094.078.125.078.094 0 .094-.016.14-.203.11-.406.25-.75.516-.75.188 0 .235.156.235.344 0 .125-.063.39-.125.578-.047.187-.11.469-.14.625zm0 0"/></symbol><symbol overflow="visible" id="l"><path d="M2.188-4.625c0-.016.015-.11.015-.11 0-.046-.015-.109-.11-.109-.14 0-.718.063-.89.078-.047 0-.156.016-.156.157 0 .093.11.093.187.093.329 0 .329.063.329.11s-.016.093-.016.156L.563-.312c-.047.124-.047.14-.047.156 0 .11.093.218.25.218.187 0 .265-.124.312-.28.016-.032.313-1.266.344-1.36.5.047.89.219.89.578 0 .031 0 .063-.015.14-.031.094-.031.141-.031.22 0 .484.406.703.75.703.671 0 .875-1.047.875-1.063 0-.094-.079-.094-.11-.094-.094 0-.11.047-.14.172-.079.297-.266.797-.61.797-.187 0-.25-.172-.25-.36 0-.124 0-.14.047-.312a.724.724 0 00.031-.219c0-.625-.828-.718-1.125-.734.204-.125.454-.36.579-.469.359-.328.703-.656 1.093-.656.078 0 .172.016.235.094a.396.396 0 00-.36.39c0 .141.11.25.266.25.203 0 .406-.156.406-.437a.5.5 0 00-.531-.5c-.406 0-.766.297-1.125.625-.297.265-.516.484-.813.61zm0 0"/></symbol><symbol overflow="visible" id="i"><path d="M6.406-1.578c-.875.64-.984 1.562-.984 1.562 0 .11.062.11.156.11.125 0 .156 0 .188-.125.046-.172.156-.61.515-1 .407-.422.75-.532 1.047-.625.031-.016.063-.047.063-.078 0-.079-.032-.094-.125-.125-1-.313-1.36-1.032-1.516-1.641-.016-.078-.078-.078-.172-.078-.094 0-.156 0-.156.094 0 .015.062.484.406.968.156.235.36.438.578.594H.813c-.11 0-.282 0-.282.172s.172.172.281.172zm0 0"/></symbol><symbol overflow="visible" id="j"><path d="M4.031-1.906c-.375-.438-.484-.547-.75-.735a2.13 2.13 0 00-1.25-.437c-.875 0-1.5.75-1.5 1.578C.531-.687 1.141.063 2 .063c.969 0 1.656-.782 1.906-1.157.36.438.485.547.735.735.437.312.875.421 1.265.421.86 0 1.485-.734 1.485-1.562 0-.828-.594-1.578-1.47-1.578-.968 0-1.64.797-1.89 1.172zm.219.25c.281-.453.89-1.157 1.734-1.157.72 0 1.22.641 1.22 1.313 0 .656-.548 1.188-1.188 1.188-.657 0-1.094-.532-1.766-1.344zm-.578.297c-.266.453-.875 1.171-1.735 1.171C1.22-.188.734-.828.734-1.5s.547-1.188 1.188-1.188c.64 0 1.094.532 1.75 1.329zm0 0"/></symbol><symbol overflow="visible" id="k"><path d="M12.625 13.953l1.203-3.187h-.25c-.39 1.03-1.453 1.718-2.594 2.015-.203.047-1.187.313-3.093.313H1.875L6.953 7.14c.063-.079.078-.11.078-.157 0-.03 0-.062-.062-.156L2.329.484H7.78c1.344 0 2.25.141 2.344.157.531.078 1.406.25 2.188.75.25.156.921.609 1.265 1.406h.25L12.625 0H.844C.609 0 .594.016.563.063v.343L5.827 7.61.672 13.672c-.11.11-.11.172-.11.172 0 .11.094.11.282.11zm0 0"/></symbol></defs><path fill="#5d5b5b" stroke="#000" stroke-width=".192" paint-order="stroke fill markers" d="M.096.096h241.108v53.783H.096z"/><g onclick="alert(&quot;hi&quot;)"><use xlink:href="#a" x="93.121" y="81.713" width="100%" height="100%" transform="translate(-11.147 -59.712)"/><use xlink:href="#b" x="99.157" y="78.097" width="100%" height="100%" transform="translate(-11.147 -59.712)"/><path d="M81.974 26.249h10.508" fill="none" stroke="#000" stroke-width=".398" stroke-miterlimit="10"/><use xlink:href="#c" x="95.883" y="95.286" width="100%" height="100%" transform="translate(-11.147 -59.712)"/><use xlink:href="#d" x="107.589" y="88.452" width="100%" height="100%" transform="translate(-11.147 -59.712)"/><g transform="translate(-11.147 -59.712)"><use xlink:href="#e" x="121.594" y="88.452" width="100%" height="100%"/><use xlink:href="#f" x="124.362" y="88.452" width="100%" height="100%"/><use xlink:href="#g" x="127.13" y="88.452" width="100%" height="100%"/></g><use xlink:href="#h" x="118.105" y="94.43" width="100%" height="100%" transform="translate(-11.147 -59.712)"/><g transform="translate(-11.147 -59.712)"><use xlink:href="#i" x="123.03" y="94.43" width="100%" height="100%"/><use xlink:href="#j" x="130.972" y="94.43" width="100%" height="100%"/></g><use xlink:href="#h" x="145.359" y="75.999" width="100%" height="100%" transform="translate(-11.147 -59.712)"/><use xlink:href="#k" x="140.626" y="78.988" width="100%" height="100%" transform="translate(-11.147 -59.712)"/><use xlink:href="#l" x="140.576" y="100.435" width="100%" height="100%" transform="translate(-11.147 -59.712)"/><g transform="translate(-11.147 -59.712)"><use xlink:href="#m" x="144.979" y="100.435" width="100%" height="100%"/><use xlink:href="#n" x="151.095" y="100.435" width="100%" height="100%"/></g><use xlink:href="#o" x="160.417" y="81.713" width="100%" height="100%" transform="translate(-11.147 -59.712)"/><path d="M146.775 26.249h9.969" fill="none" stroke="#000" stroke-width=".398" stroke-miterlimit="10"/><use xlink:href="#p" x="157.922" y="95.286" width="100%" height="100%" transform="translate(-11.147 -59.712)"/><use xlink:href="#b" x="163.423" y="92.408" width="100%" height="100%" transform="translate(-11.147 -59.712)"/></g></svg>