<?xml version="1.0" encoding="UTF-8" standalone="no"?>
<svg
   sodipodi:docname="miktex_as_inkscape_extensions.svg"
   id="svg8"
   version="1.1"
   viewBox="0 0 241.3 53.98"
   height="2.13in"
   width="9.5in"
   inkscape:version="1.3 (0e150ed6c4, 2023-07-21)"
   xmlns:inkscape="http://www.inkscape.org/namespaces/inkscape"
   xmlns:sodipodi="http://sodipodi.sourceforge.net/DTD/sodipodi-0.dtd"
   xmlns:xlink="http://www.w3.org/1999/xlink"
   xmlns="http://www.w3.org/2000/svg"
   xmlns:svg="http://www.w3.org/2000/svg"
   xmlns:rdf="http://www.w3.org/1999/02/22-rdf-syntax-ns#"
   xmlns:cc="http://creativecommons.org/ns#"
   xmlns:dc="http://purl.org/dc/elements/1.1/">
  <defs
     id="defs2">
    <g
       id="g1389">
      <symbol
         overflow="visible"
         id="symbol2881">
        <path
           style="stroke:none"
           d=""
           id="path6379" />
      </symbol>
      <symbol
         overflow="visible"
         id="symbol5209">
        <path
           style="stroke:none"
           d="m 2.65,-3.72 h 1.13 C 3.44,-2.26 3.35,-1.82 3.35,-1.15 c 0,0.15 0,0.41 0.08,0.76 0.11,0.44 0.22,0.5 0.36,0.5 0.21,0 0.43,-0.18 0.43,-0.38 0,-0.07 0,-0.08 -0.07,-0.22 -0.30,-0.72 -0.30,-1.38 -0.30,-1.66 0,-0.52 0.08,-1.07 0.19,-1.58 h 1.13 c 0.15,0 0.5,0 0.5,-0.35 0,-0.24 -0.22,-0.24 -0.41,-0.24 H 1.91 c -0.22,0 -0.60,0 -1.04,0.47 -0.35,0.40 -0.61,0.85 -0.61,0.90 0,0.02 0,0.11 0.13,0.11 0.08,0 0.10,-0.05 0.16,-0.13 C 1.04,-3.72 1.61,-3.72 1.82,-3.72 H 2.38 C 2.07,-2.52 1.54,-1.32 1.11,-0.41 1.04,-0.26 1.04,-0.24 1.04,-0.16 c 0,0.19 0.16,0.27 0.29,0.27 0.30,0 0.38,-0.29 0.5,-0.65 C 1.96,-1 1.96,-1.02 2.08,-1.52 Z m 0,0"
           id="path2022" />
      </symbol>
      <symbol
         overflow="visible"
         id="symbol4795">
        <path
           style="stroke:none"
           d="m 2.86,-6.82 c 0,0 0,-0.11 -0.13,-0.11 -0.24,0 -0.96,0.08 -1.22,0.11 -0.08,0 -0.19,0.02 -0.19,0.19 0,0.13 0.10,0.13 0.24,0.13 0.49,0 0.5,0.07 0.5,0.18 L 2.04,-6.13 0.60,-0.40 c -0.05,0.15 -0.05,0.16 -0.05,0.22 0,0.24 0.21,0.29 0.30,0.29 0.13,0 0.27,-0.10 0.33,-0.21 0.05,-0.10 0.5,-1.94 0.57,-2.19 0.35,0.04 1.16,0.19 1.16,0.85 0,0.08 0,0.11 -0.04,0.22 -0.02,0.11 -0.04,0.24 -0.04,0.35 0,0.58 0.40,0.99 0.91,0.99 0.30,0 0.58,-0.16 0.80,-0.54 0.26,-0.44 0.36,-0.99 0.36,-1 0,-0.11 -0.10,-0.11 -0.13,-0.11 -0.10,0 -0.11,0.05 -0.15,0.19 -0.21,0.72 -0.43,1.24 -0.86,1.24 -0.21,0 -0.33,-0.11 -0.33,-0.47 0,-0.18 0.05,-0.41 0.08,-0.57 C 3.57,-1.32 3.57,-1.35 3.57,-1.46 3.57,-2.10 2.94,-2.38 2.08,-2.5 2.40,-2.68 2.72,-2.99 2.94,-3.24 3.43,-3.77 3.88,-4.19 4.36,-4.19 c 0.07,0 0.08,0 0.10,0.02 0.13,0.02 0.13,0.02 0.22,0.08 0.02,0 0.02,0.02 0.04,0.04 -0.47,0.04 -0.57,0.43 -0.57,0.55 0,0.16 0.11,0.35 0.38,0.35 0.27,0 0.55,-0.22 0.55,-0.61 0,-0.30 -0.24,-0.63 -0.68,-0.63 -0.29,0 -0.74,0.08 -1.46,0.88 -0.35,0.38 -0.74,0.79 -1.11,0.93 z m 0,0"
           id="path4064" />
      </symbol>
      <symbol
         overflow="visible"
         id="symbol8134">
        <path
           style="stroke:none"
           d=""
           id="path265" />
      </symbol>
      <symbol
         overflow="visible"
         id="symbol7816">
        <path
           style="stroke:none"
           d="M 3.52,-1.27 H 3.29 c -0.02,0.16 -0.10,0.57 -0.19,0.63 C 3.05,-0.60 2.52,-0.60 2.41,-0.60 H 1.13 c 0.74,-0.65 0.99,-0.85 1.40,-1.18 0.52,-0.41 1,-0.85 1,-1.5 0,-0.85 -0.74,-1.36 -1.63,-1.36 -0.86,0 -1.46,0.61 -1.46,1.26 0,0.35 0.30,0.40 0.38,0.40 0.16,0 0.36,-0.13 0.36,-0.38 0,-0.13 -0.05,-0.38 -0.41,-0.38 C 0.99,-4.22 1.46,-4.38 1.79,-4.38 c 0.71,0 1.07,0.55 1.07,1.11 0,0.61 -0.44,1.08 -0.66,1.33 L 0.52,-0.27 C 0.44,-0.21 0.44,-0.19 0.44,0 h 2.88 z m 0,0"
           id="path9329" />
      </symbol>
      <symbol
         overflow="visible"
         id="symbol8682">
        <path
           style="stroke:none"
           d="m 5.36,-2.35 c 0.10,0 0.26,0 0.26,-0.18 0,-0.18 -0.16,-0.18 -0.26,-0.18 H 0.76 c -0.10,0 -0.27,0 -0.27,0.18 0,0.18 0.16,0.18 0.27,0.18 z m 0,1.54 c 0.10,0 0.26,0 0.26,-0.16 0,-0.19 -0.16,-0.19 -0.26,-0.19 H 0.76 c -0.11,0 -0.27,0 -0.27,0.19 0,0.16 0.18,0.16 0.27,0.16 z m 0,0"
           id="path6258" />
      </symbol>
      <symbol
         overflow="visible"
         id="symbol6727">
        <path
           style="stroke:none"
           d="m 2.33,-4.44 c 0,-0.19 0,-0.19 -0.21,-0.19 -0.46,0.44 -1.08,0.44 -1.36,0.44 v 0.26 c 0.16,0 0.63,0 1,-0.19 v 3.55 c 0,0.24 0,0.33 -0.69,0.33 H 0.82 V 0 c 0.13,0 0.99,-0.04 1.24,-0.04 0.22,0 1.10,0.04 1.26,0.04 V -0.26 H 3.04 c -0.71,0 -0.71,-0.10 -0.71,-0.33 z m 0,0"
           id="path8155" />
      </symbol>
      <symbol
         overflow="visible"
         id="symbol870">
        <path
           style="stroke:none"
           d=""
           id="path1279" />
      </symbol>
      <symbol
         overflow="visible"
         id="symbol9979">
        <path
           style="stroke:none"
           d="m 1.32,-3.27 v -0.26 c 0,-2.52 1.24,-2.88 1.76,-2.88 0.24,0 0.66,0.07 0.88,0.41 -0.16,0 -0.55,0 -0.55,0.44 0,0.32 0.24,0.47 0.46,0.47 0.16,0 0.47,-0.10 0.47,-0.49 0,-0.60 -0.44,-1.08 -1.27,-1.08 -1.29,0 -2.63,1.29 -2.63,3.49 0,2.68 1.16,3.38 2.08,3.38 1.11,0 2.07,-0.94 2.07,-2.26 0,-1.27 -0.90,-2.22 -2,-2.22 -0.68,0 -1.05,0.5 -1.26,0.99 z M 2.5,-0.07 c -0.63,0 -0.93,-0.60 -0.99,-0.76 -0.19,-0.47 -0.19,-1.27 -0.19,-1.44 0,-0.79 0.33,-1.79 1.22,-1.79 0.18,0 0.63,0 0.94,0.63 0.18,0.36 0.18,0.88 0.18,1.36 0,0.49 0,0.99 -0.18,1.35 C 3.19,-0.11 2.74,-0.07 2.5,-0.07 Z m 0,0"
           id="path7563" />
      </symbol>
      <symbol
         overflow="visible"
         id="symbol2872">
        <path
           style="stroke:none"
           d="m 6.85,-3.27 c 0.16,0 0.35,0 0.35,-0.19 C 7.19,-3.66 7,-3.66 6.86,-3.66 h -5.97 c -0.15,0 -0.33,0 -0.33,0.21 0,0.19 0.19,0.19 0.33,0.19 z m 0.02,1.94 c 0.15,0 0.33,0 0.33,-0.21 0,-0.19 -0.19,-0.19 -0.35,-0.19 H 0.90 c -0.15,0 -0.33,0 -0.33,0.19 0,0.21 0.19,0.21 0.33,0.21 z m 0,0"
           id="path3695" />
      </symbol>
      <symbol
         overflow="visible"
         id="symbol3351">
        <path
           style="stroke:none"
           d="M 1.77,-6.93 0.33,-6.82 V -6.5 c 0.71,0 0.79,0.07 0.79,0.57 V -0.76 c 0,0.44 -0.11,0.44 -0.79,0.44 V 0 C 0.66,-0.02 1.19,-0.04 1.44,-0.04 c 0.26,0 0.74,0.02 1.11,0.04 v -0.32 c -0.68,0 -0.79,0 -0.79,-0.44 z m 0,0"
           id="path2958" />
      </symbol>
      <symbol
         overflow="visible"
         id="symbol9744">
        <path
           style="stroke:none"
           d="M 1.77,-4.41 0.38,-4.30 v 0.32 c 0.65,0 0.74,0.07 0.74,0.55 V -0.76 c 0,0.44 -0.11,0.44 -0.79,0.44 V 0 C 0.65,-0.02 1.19,-0.04 1.43,-0.04 1.79,-0.04 2.13,-0.02 2.47,0 v -0.32 c -0.68,0 -0.71,-0.05 -0.71,-0.44 z m 0.04,-1.74 c 0,-0.32 -0.24,-0.54 -0.52,-0.54 -0.32,0 -0.54,0.27 -0.54,0.54 0,0.27 0.22,0.54 0.54,0.54 0.29,0 0.52,-0.22 0.52,-0.54 z m 0,0"
           id="path1961" />
      </symbol>
      <symbol
         overflow="visible"
         id="symbol1752">
        <path
           style="stroke:none"
           d="M 1.10,-3.43 V -0.76 c 0,0.44 -0.11,0.44 -0.79,0.44 V 0 c 0.36,-0.02 0.86,-0.04 1.15,-0.04 0.26,0 0.77,0.02 1.11,0.04 v -0.32 c -0.68,0 -0.79,0 -0.79,-0.44 V -2.60 C 1.79,-3.63 2.5,-4.19 3.13,-4.19 c 0.65,0 0.76,0.54 0.76,1.11 V -0.76 c 0,0.44 -0.11,0.44 -0.79,0.44 V 0 c 0.35,-0.02 0.86,-0.04 1.13,-0.04 0.26,0 0.79,0.02 1.11,0.04 v -0.32 c -0.66,0 -0.77,0 -0.77,-0.44 v -1.85 c 0,-1.04 0.71,-1.60 1.35,-1.60 0.63,0 0.74,0.54 0.74,1.11 V -0.76 c 0,0.44 -0.11,0.44 -0.79,0.44 V 0 c 0.35,-0.02 0.86,-0.04 1.13,-0.04 0.27,0 0.79,0.02 1.13,0.04 v -0.32 c -0.52,0 -0.77,0 -0.79,-0.30 v -1.91 c 0,-0.86 0,-1.16 -0.32,-1.52 -0.15,-0.18 -0.47,-0.38 -1.05,-0.38 -0.83,0 -1.29,0.60 -1.44,0.99 C 4.40,-4.30 3.66,-4.41 3.21,-4.41 2.47,-4.41 2,-3.99 1.72,-3.36 V -4.41 L 0.32,-4.30 v 0.32 c 0.71,0 0.79,0.07 0.79,0.57 z m 0,0"
           id="path1093" />
      </symbol>
      <symbol
         overflow="visible"
         id="symbol4683">
        <path
           style="stroke:none"
           d="m 2.94,-6.38 c 0,-0.26 0,-0.27 -0.24,-0.27 C 2.08,-6 1.21,-6 0.90,-6 v 0.32 c 0.21,0 0.79,0 1.30,-0.27 v 5.18 c 0,0.36 -0.04,0.47 -0.93,0.47 h -0.32 V 0 c 0.35,-0.04 1.21,-0.04 1.61,-0.04 0.40,0 1.27,0 1.61,0.04 v -0.32 h -0.32 c -0.91,0 -0.93,-0.11 -0.93,-0.47 z m 0,0"
           id="path6933" />
      </symbol>
      <symbol
         overflow="visible"
         id="symbol766">
        <path
           style="stroke:none"
           d=""
           id="path6662" />
      </symbol>
      <symbol
         overflow="visible"
         id="symbol2960">
        <path
           style="stroke:none"
           d="m 0.85,-0.44 c -0.02,0.10 -0.07,0.27 -0.07,0.29 0,0.16 0.13,0.22 0.24,0.22 0.13,0 0.24,-0.08 0.29,-0.15 0.04,-0.07 0.08,-0.30 0.13,-0.44 0.04,-0.13 0.11,-0.46 0.15,-0.63 0.05,-0.16 0.10,-0.32 0.13,-0.47 0.08,-0.29 0.10,-0.35 0.30,-0.63 C 2.18,-2.52 2.5,-2.88 3.04,-2.88 c 0.40,0 0.41,0.36 0.41,0.49 0,0.43 -0.30,1.19 -0.41,1.49 -0.08,0.21 -0.11,0.27 -0.11,0.38 0,0.38 0.30,0.60 0.66,0.60 0.71,0 1,-0.96 1,-1.07 0,-0.10 -0.08,-0.10 -0.11,-0.10 -0.10,0 -0.10,0.05 -0.13,0.13 C 4.19,-0.41 3.88,-0.13 3.61,-0.13 c -0.16,0 -0.19,-0.10 -0.19,-0.26 0,-0.16 0.05,-0.26 0.18,-0.57 0.08,-0.22 0.36,-0.96 0.36,-1.35 0,-0.68 -0.54,-0.80 -0.91,-0.80 -0.58,0 -0.97,0.36 -1.18,0.65 -0.05,-0.49 -0.46,-0.65 -0.76,-0.65 -0.30,0 -0.46,0.22 -0.55,0.38 -0.16,0.27 -0.26,0.66 -0.26,0.71 0,0.08 0.10,0.08 0.13,0.08 0.10,0 0.10,-0.02 0.15,-0.21 0.11,-0.41 0.26,-0.76 0.52,-0.76 0.19,0 0.24,0.16 0.24,0.35 0,0.13 -0.07,0.40 -0.13,0.58 -0.05,0.19 -0.11,0.47 -0.15,0.63 z m 0,0"
           id="path9070" />
      </symbol>
      <symbol
         overflow="visible"
         id="symbol2556">
        <path
           style="stroke:none"
           d="m 2.19,-4.63 c 0,-0.02 0.02,-0.11 0.02,-0.11 0,-0.05 -0.02,-0.11 -0.11,-0.11 -0.15,0 -0.72,0.07 -0.90,0.08 -0.05,0 -0.16,0.02 -0.16,0.16 0,0.10 0.11,0.10 0.19,0.10 0.33,0 0.33,0.07 0.33,0.11 0,0.05 -0.02,0.10 -0.02,0.16 L 0.57,-0.32 c -0.05,0.13 -0.05,0.15 -0.05,0.16 0,0.11 0.10,0.22 0.26,0.22 0.19,0 0.27,-0.13 0.32,-0.29 0.02,-0.04 0.32,-1.27 0.35,-1.36 0.5,0.05 0.90,0.22 0.90,0.58 0,0.04 0,0.07 -0.02,0.15 -0.04,0.10 -0.04,0.15 -0.04,0.22 0,0.49 0.41,0.71 0.76,0.71 0.68,0 0.88,-1.05 0.88,-1.07 0,-0.10 -0.08,-0.10 -0.11,-0.10 -0.10,0 -0.11,0.05 -0.15,0.18 C 3.57,-0.63 3.38,-0.13 3.04,-0.13 c -0.19,0 -0.26,-0.18 -0.26,-0.36 0,-0.13 0,-0.15 0.05,-0.32 0.02,-0.04 0.04,-0.15 0.04,-0.22 0,-0.63 -0.83,-0.72 -1.13,-0.74 C 1.94,-1.88 2.19,-2.11 2.32,-2.22 2.68,-2.55 3.02,-2.88 3.41,-2.88 c 0.08,0 0.18,0.02 0.24,0.10 C 3.35,-2.74 3.29,-2.5 3.29,-2.40 c 0,0.15 0.11,0.26 0.27,0.26 0.21,0 0.41,-0.16 0.41,-0.44 0,-0.24 -0.18,-0.5 -0.54,-0.5 -0.41,0 -0.77,0.30 -1.13,0.63 C 2,-2.19 1.79,-1.97 1.49,-1.85 Z m 0,0"
           id="path5943" />
      </symbol>
      <symbol
         overflow="visible"
         id="symbol3245">
        <path
           style="stroke:none"
           d=""
           id="path9022" />
      </symbol>
      <symbol
         overflow="visible"
         id="symbol1655">
        <path
           style="stroke:none"
           d="m 6.41,-1.58 c -0.88,0.65 -0.99,1.57 -0.99,1.57 0,0.11 0.07,0.11 0.16,0.11 0.13,0 0.16,0 0.19,-0.13 0.05,-0.18 0.16,-0.61 0.52,-1 0.41,-0.43 0.76,-0.54 1.05,-0.63 0.04,-0.02 0.07,-0.05 0.07,-0.08 0,-0.08 -0.04,-0.10 -0.13,-0.13 C 6.27,-2.18 5.91,-2.90 5.76,-3.5 5.74,-3.58 5.68,-3.58 5.58,-3.58 c -0.10,0 -0.16,0 -0.16,0.10 0,0.02 0.07,0.49 0.41,0.97 0.16,0.24 0.36,0.44 0.58,0.60 H 0.82 c -0.11,0 -0.29,0 -0.29,0.18 0,0.18 0.18,0.18 0.29,0.18 z m 0,0"
           id="path1598" />
      </symbol>
      <symbol
         overflow="visible"
         id="symbol8812">
        <path
           style="stroke:none"
           d="m 4.04,-1.91 c -0.38,-0.44 -0.49,-0.55 -0.76,-0.74 -0.43,-0.32 -0.88,-0.44 -1.26,-0.44 -0.88,0 -1.5,0.76 -1.5,1.58 0,0.82 0.61,1.57 1.47,1.57 0.97,0 1.66,-0.79 1.91,-1.16 0.36,0.44 0.49,0.55 0.74,0.74 0.44,0.32 0.88,0.43 1.27,0.43 0.86,0 1.49,-0.74 1.49,-1.57 0,-0.83 -0.60,-1.58 -1.47,-1.58 -0.97,0 -1.65,0.80 -1.90,1.18 z m 0.22,0.26 c 0.29,-0.46 0.90,-1.16 1.74,-1.16 0.72,0 1.22,0.65 1.22,1.32 0,0.66 -0.55,1.19 -1.19,1.19 -0.66,0 -1.10,-0.54 -1.77,-1.35 z M 3.68,-1.36 C 3.41,-0.91 2.80,-0.19 1.94,-0.19 c -0.72,0 -1.21,-0.65 -1.21,-1.32 0,-0.68 0.55,-1.19 1.19,-1.19 0.65,0 1.10,0.54 1.76,1.33 z m 0,0"
           id="path1653" />
      </symbol>
      <symbol
         overflow="visible"
         id="symbol3347">
        <path
           style="stroke:none"
           d=""
           id="path3826" />
      </symbol>
      <symbol
         overflow="visible"
         id="symbol1102">
        <path
           style="stroke:none"
           d="m 12.63,13.96 1.21,-3.19 h -0.26 c -0.40,1.04 -1.46,1.72 -2.60,2.02 -0.21,0.05 -1.19,0.32 -3.10,0.32 H 1.88 L 6.96,7.15 C 7.02,7.07 7.04,7.04 7.04,6.99 c 0,-0.04 0,-0.07 -0.07,-0.16 L 2.33,0.49 H 7.79 c 1.35,0 2.26,0.15 2.35,0.16 0.54,0.08 1.41,0.26 2.19,0.76 0.26,0.16 0.93,0.61 1.27,1.41 h 0.26 L 12.63,0 H 0.85 c -0.24,0 -0.26,0.02 -0.29,0.07 0,0.04 0,0.24 0,0.35 l 5.27,7.21 -5.16,6.07 C 0.57,13.79 0.57,13.85 0.57,13.85 c 0,0.11 0.10,0.11 0.29,0.11 z m 0,0"
           id="path1103" />
      </symbol>
    </g>
    <g
       id="g1615">
      <symbol
         overflow="visible"
         id="symbol7511">
        <path
           style="stroke:none"
           d=""
           id="path9643" />
      </symbol>
      <symbol
         overflow="visible"
         id="symbol3270">
        <path
           style="stroke:none"
           d="m 2.65,-3.72 h 1.13 C 3.44,-2.26 3.35,-1.82 3.35,-1.15 c 0,0.15 0,0.41 0.08,0.76 0.11,0.44 0.22,0.5 0.36,0.5 0.21,0 0.43,-0.18 0.43,-0.38 0,-0.07 0,-0.08 -0.07,-0.22 -0.30,-0.72 -0.30,-1.38 -0.30,-1.66 0,-0.52 0.08,-1.07 0.19,-1.58 h 1.13 c 0.15,0 0.5,0 0.5,-0.35 0,-0.24 -0.22,-0.24 -0.41,-0.24 H 1.91 c -0.22,0 -0.60,0 -1.04,0.47 -0.35,0.40 -0.61,0.85 -0.61,0.90 0,0.02 0,0.11 0.13,0.11 0.08,0 0.10,-0.05 0.16,-0.13 C 1.04,-3.72 1.61,-3.72 1.82,-3.72 H 2.38 C 2.07,-2.52 1.54,-1.32 1.11,-0.41 1.04,-0.26 1.04,-0.24 1.04,-0.16 c 0,0.19 0.16,0.27 0.29,0.27 0.30,0 0.38,-0.29 0.5,-0.65 C 1.96,-1 1.96,-1.02 2.08,-1.52 Z m 0,0"
           id="path1921" />
      </symbol>
      <symbol
         overflow="visible"
         id="symbol8350">
        <path
           style="stroke:none"
           d="m 2.86,-6.82 c 0,0 0,-0.11 -0.13,-0.11 -0.24,0 -0.96,0.08 -1.22,0.11 -0.08,0 -0.19,0.02 -0.19,0.19 0,0.13 0.10,0.13 0.24,0.13 0.49,0 0.5,0.07 0.5,0.18 L 2.04,-6.13 0.60,-0.40 c -0.05,0.15 -0.05,0.16 -0.05,0.22 0,0.24 0.21,0.29 0.30,0.29 0.13,0 0.27,-0.10 0.33,-0.21 0.05,-0.10 0.5,-1.94 0.57,-2.19 0.35,0.04 1.16,0.19 1.16,0.85 0,0.08 0,0.11 -0.04,0.22 -0.02,0.11 -0.04,0.24 -0.04,0.35 0,0.58 0.40,0.99 0.91,0.99 0.30,0 0.58,-0.16 0.80,-0.54 0.26,-0.44 0.36,-0.99 0.36,-1 0,-0.11 -0.10,-0.11 -0.13,-0.11 -0.10,0 -0.11,0.05 -0.15,0.19 -0.21,0.72 -0.43,1.24 -0.86,1.24 -0.21,0 -0.33,-0.11 -0.33,-0.47 0,-0.18 0.05,-0.41 0.08,-0.57 C 3.57,-1.32 3.57,-1.35 3.57,-1.46 3.57,-2.10 2.94,-2.38 2.08,-2.5 2.40,-2.68 2.72,-2.99 2.94,-3.24 3.43,-3.77 3.88,-4.19 4.36,-4.19 c 0.07,0 0.08,0 0.10,0.02 0.13,0.02 0.13,0.02 0.22,0.08 0.02,0 0.02,0.02 0.04,0.04 -0.47,0.04 -0.57,0.43 -0.57,0.55 0,0.16 0.11,0.35 0.38,0.35 0.27,0 0.55,-0.22 0.55,-0.61 0,-0.30 -0.24,-0.63 -0.68,-0.63 -0.29,0 -0.74,0.08 -1.46,0.88 -0.35,0.38 -0.74,0.79 -1.11,0.93 z m 0,0"
           id="path7467" />
      </symbol>
      <symbol
         overflow="visible"
         id="symbol2025">
        <path
           style="stroke:none"
           d=""
           id="path1543" />
      </symbol>
      <symbol
         overflow="visible"
         id="symbol8286">
        <path
           style="stroke:none"
           d="M 3.52,-1.27 H 3.29 c -0.02,0.16 -0.10,0.57 -0.19,0.63 C 3.05,-0.60 2.52,-0.60 2.41,-0.60 H 1.13 c 0.74,-0.65 0.99,-0.85 1.40,-1.18 0.52,-0.41 1,-0.85 1,-1.5 0,-0.85 -0.74,-1.36 -1.63,-1.36 -0.86,0 -1.46,0.61 -1.46,1.26 0,0.35 0.30,0.40 0.38,0.40 0.16,0 0.36,-0.13 0.36,-0.38 0,-0.13 -0.05,-0.38 -0.41,-0.38 C 0.99,-4.22 1.46,-4.38 1.79,-4.38 c 0.71,0 1.07,0.55 1.07,1.11 0,0.61 -0.44,1.08 -0.66,1.33 L 0.52,-0.27 C 0.44,-0.21 0.44,-0.19 0.44,0 h 2.88 z m 0,0"
           id="path9718" />
      </symbol>
      <symbol
         overflow="visible"
         id="symbol1708">
        <path
           style="stroke:none"
           d="m 5.36,-2.35 c 0.10,0 0.26,0 0.26,-0.18 0,-0.18 -0.16,-0.18 -0.26,-0.18 H 0.76 c -0.10,0 -0.27,0 -0.27,0.18 0,0.18 0.16,0.18 0.27,0.18 z m 0,1.54 c 0.10,0 0.26,0 0.26,-0.16 0,-0.19 -0.16,-0.19 -0.26,-0.19 H 0.76 c -0.11,0 -0.27,0 -0.27,0.19 0,0.16 0.18,0.16 0.27,0.16 z m 0,0"
           id="path8277" />
      </symbol>
      <symbol
         overflow="visible"
         id="symbol6423">
        <path
           style="stroke:none"
           d="m 2.33,-4.44 c 0,-0.19 0,-0.19 -0.21,-0.19 -0.46,0.44 -1.08,0.44 -1.36,0.44 v 0.26 c 0.16,0 0.63,0 1,-0.19 v 3.55 c 0,0.24 0,0.33 -0.69,0.33 H 0.82 V 0 c 0.13,0 0.99,-0.04 1.24,-0.04 0.22,0 1.10,0.04 1.26,0.04 V -0.26 H 3.04 c -0.71,0 -0.71,-0.10 -0.71,-0.33 z m 0,0"
           id="path6731" />
      </symbol>
      <symbol
         overflow="visible"
         id="symbol7682">
        <path
           style="stroke:none"
           d=""
           id="path2471" />
      </symbol>
      <symbol
         overflow="visible"
         id="symbol5995">
        <path
           style="stroke:none"
           d="m 1.32,-3.27 v -0.26 c 0,-2.52 1.24,-2.88 1.76,-2.88 0.24,0 0.66,0.07 0.88,0.41 -0.16,0 -0.55,0 -0.55,0.44 0,0.32 0.24,0.47 0.46,0.47 0.16,0 0.47,-0.10 0.47,-0.49 0,-0.60 -0.44,-1.08 -1.27,-1.08 -1.29,0 -2.63,1.29 -2.63,3.49 0,2.68 1.16,3.38 2.08,3.38 1.11,0 2.07,-0.94 2.07,-2.26 0,-1.27 -0.90,-2.22 -2,-2.22 -0.68,0 -1.05,0.5 -1.26,0.99 z M 2.5,-0.07 c -0.63,0 -0.93,-0.60 -0.99,-0.76 -0.19,-0.47 -0.19,-1.27 -0.19,-1.44 0,-0.79 0.33,-1.79 1.22,-1.79 0.18,0 0.63,0 0.94,0.63 0.18,0.36 0.18,0.88 0.18,1.36 0,0.49 0,0.99 -0.18,1.35 C 3.19,-0.11 2.74,-0.07 2.5,-0.07 Z m 0,0"
           id="path498" />
      </symbol>
      <symbol
         overflow="visible"
         id="symbol1765">
        <path
           style="stroke:none"
           d="m 6.85,-3.27 c 0.16,0 0.35,0 0.35,-0.19 C 7.19,-3.66 7,-3.66 6.86,-3.66 h -5.97 c -0.15,0 -0.33,0 -0.33,0.21 0,0.19 0.19,0.19 0.33,0.19 z m 0.02,1.94 c 0.15,0 0.33,0 0.33,-0.21 0,-0.19 -0.19,-0.19 -0.35,-0.19 H 0.90 c -0.15,0 -0.33,0 -0.33,0.19 0,0.21 0.19,0.21 0.33,0.21 z m 0,0"
           id="path4456" />
      </symbol>
      <symbol
         overflow="visible"
         id="symbol6491">
        <path
           style="stroke:none"
           d="M 1.77,-6.93 0.33,-6.82 V -6.5 c 0.71,0 0.79,0.07 0.79,0.57 V -0.76 c 0,0.44 -0.11,0.44 -0.79,0.44 V 0 C 0.66,-0.02 1.19,-0.04 1.44,-0.04 c 0.26,0 0.74,0.02 1.11,0.04 v -0.32 c -0.68,0 -0.79,0 -0.79,-0.44 z m 0,0"
           id="path2122" />
      </symbol>
      <symbol
         overflow="visible"
         id="symbol6369">
        <path
           style="stroke:none"
           d="M 1.77,-4.41 0.38,-4.30 v 0.32 c 0.65,0 0.74,0.07 0.74,0.55 V -0.76 c 0,0.44 -0.11,0.44 -0.79,0.44 V 0 C 0.65,-0.02 1.19,-0.04 1.43,-0.04 1.79,-0.04 2.13,-0.02 2.47,0 v -0.32 c -0.68,0 -0.71,-0.05 -0.71,-0.44 z m 0.04,-1.74 c 0,-0.32 -0.24,-0.54 -0.52,-0.54 -0.32,0 -0.54,0.27 -0.54,0.54 0,0.27 0.22,0.54 0.54,0.54 0.29,0 0.52,-0.22 0.52,-0.54 z m 0,0"
           id="path9336" />
      </symbol>
      <symbol
         overflow="visible"
         id="symbol9565">
        <path
           style="stroke:none"
           d="M 1.10,-3.43 V -0.76 c 0,0.44 -0.11,0.44 -0.79,0.44 V 0 c 0.36,-0.02 0.86,-0.04 1.15,-0.04 0.26,0 0.77,0.02 1.11,0.04 v -0.32 c -0.68,0 -0.79,0 -0.79,-0.44 V -2.60 C 1.79,-3.63 2.5,-4.19 3.13,-4.19 c 0.65,0 0.76,0.54 0.76,1.11 V -0.76 c 0,0.44 -0.11,0.44 -0.79,0.44 V 0 c 0.35,-0.02 0.86,-0.04 1.13,-0.04 0.26,0 0.79,0.02 1.11,0.04 v -0.32 c -0.66,0 -0.77,0 -0.77,-0.44 v -1.85 c 0,-1.04 0.71,-1.60 1.35,-1.60 0.63,0 0.74,0.54 0.74,1.11 V -0.76 c 0,0.44 -0.11,0.44 -0.79,0.44 V 0 c 0.35,-0.02 0.86,-0.04 1.13,-0.04 0.27,0 0.79,0.02 1.13,0.04 v -0.32 c -0.52,0 -0.77,0 -0.79,-0.30 v -1.91 c 0,-0.86 0,-1.16 -0.32,-1.52 -0.15,-0.18 -0.47,-0.38 -1.05,-0.38 -0.83,0 -1.29,0.60 -1.44,0.99 C 4.40,-4.30 3.66,-4.41 3.21,-4.41 2.47,-4.41 2,-3.99 1.72,-3.36 V -4.41 L 0.32,-4.30 v 0.32 c 0.71,0 0.79,0.07 0.79,0.57 z m 0,0"
           id="path9147" />
      </symbol>
      <symbol
         overflow="visible"
         id="symbol2446">
        <path
           style="stroke:none"
           d="m 2.94,-6.38 c 0,-0.26 0,-0.27 -0.24,-0.27 C 2.08,-6 1.21,-6 0.90,-6 v 0.32 c 0.21,0 0.79,0 1.30,-0.27 v 5.18 c 0,0.36 -0.04,0.47 -0.93,0.47 h -0.32 V 0 c 0.35,-0.04 1.21,-0.04 1.61,-0.04 0.40,0 1.27,0 1.61,0.04 v -0.32 h -0.32 c -0.91,0 -0.93,-0.11 -0.93,-0.47 z m 0,0"
           id="path7723" />
      </symbol>
      <symbol
         overflow="visible"
         id="symbol4615">
        <path
           style="stroke:none"
           d=""
           id="path1081" />
      </symbol>
      <symbol
         overflow="visible"
         id="symbol5180">
        <path
           style="stroke:none"
           d="m 0.85,-0.44 c -0.02,0.10 -0.07,0.27 -0.07,0.29 0,0.16 0.13,0.22 0.24,0.22 0.13,0 0.24,-0.08 0.29,-0.15 0.04,-0.07 0.08,-0.30 0.13,-0.44 0.04,-0.13 0.11,-0.46 0.15,-0.63 0.05,-0.16 0.10,-0.32 0.13,-0.47 0.08,-0.29 0.10,-0.35 0.30,-0.63 C 2.18,-2.52 2.5,-2.88 3.04,-2.88 c 0.40,0 0.41,0.36 0.41,0.49 0,0.43 -0.30,1.19 -0.41,1.49 -0.08,0.21 -0.11,0.27 -0.11,0.38 0,0.38 0.30,0.60 0.66,0.60 0.71,0 1,-0.96 1,-1.07 0,-0.10 -0.08,-0.10 -0.11,-0.10 -0.10,0 -0.10,0.05 -0.13,0.13 C 4.19,-0.41 3.88,-0.13 3.61,-0.13 c -0.16,0 -0.19,-0.10 -0.19,-0.26 0,-0.16 0.05,-0.26 0.18,-0.57 0.08,-0.22 0.36,-0.96 0.36,-1.35 0,-0.68 -0.54,-0.80 -0.91,-0.80 -0.58,0 -0.97,0.36 -1.18,0.65 -0.05,-0.49 -0.46,-0.65 -0.76,-0.65 -0.30,0 -0.46,0.22 -0.55,0.38 -0.16,0.27 -0.26,0.66 -0.26,0.71 0,0.08 0.10,0.08 0.13,0.08 0.10,0 0.10,-0.02 0.15,-0.21 0.11,-0.41 0.26,-0.76 0.52,-0.76 0.19,0 0.24,0.16 0.24,0.35 0,0.13 -0.07,0.40 -0.13,0.58 -0.05,0.19 -0.11,0.47 -0.15,0.63 z m 0,0"
           id="path7608" />
      </symbol>
      <symbol
         overflow="visible"
         id="symbol6326">
        <path
           style="stroke:none"
           d="m 2.19,-4.63 c 0,-0.02 0.02,-0.11 0.02,-0.11 0,-0.05 -0.02,-0.11 -0.11,-0.11 -0.15,0 -0.72,0.07 -0.90,0.08 -0.05,0 -0.16,0.02 -0.16,0.16 0,0.10 0.11,0.10 0.19,0.10 0.33,0 0.33,0.07 0.33,0.11 0,0.05 -0.02,0.10 -0.02,0.16 L 0.57,-0.32 c -0.05,0.13 -0.05,0.15 -0.05,0.16 0,0.11 0.10,0.22 0.26,0.22 0.19,0 0.27,-0.13 0.32,-0.29 0.02,-0.04 0.32,-1.27 0.35,-1.36 0.5,0.05 0.90,0.22 0.90,0.58 0,0.04 0,0.07 -0.02,0.15 -0.04,0.10 -0.04,0.15 -0.04,0.22 0,0.49 0.41,0.71 0.76,0.71 0.68,0 0.88,-1.05 0.88,-1.07 0,-0.10 -0.08,-0.10 -0.11,-0.10 -0.10,0 -0.11,0.05 -0.15,0.18 C 3.57,-0.63 3.38,-0.13 3.04,-0.13 c -0.19,0 -0.26,-0.18 -0.26,-0.36 0,-0.13 0,-0.15 0.05,-0.32 0.02,-0.04 0.04,-0.15 0.04,-0.22 0,-0.63 -0.83,-0.72 -1.13,-0.74 C 1.94,-1.88 2.19,-2.11 2.32,-2.22 2.68,-2.55 3.02,-2.88 3.41,-2.88 c 0.08,0 0.18,0.02 0.24,0.10 C 3.35,-2.74 3.29,-2.5 3.29,-2.40 c 0,0.15 0.11,0.26 0.27,0.26 0.21,0 0.41,-0.16 0.41,-0.44 0,-0.24 -0.18,-0.5 -0.54,-0.5 -0.41,0 -0.77,0.30 -1.13,0.63 C 2,-2.19 1.79,-1.97 1.49,-1.85 Z m 0,0"
           id="path1956" />
      </symbol>
      <symbol
         overflow="visible"
         id="symbol9502">
        <path
           style="stroke:none"
           d=""
           id="path7773" />
      </symbol>
      <symbol
         overflow="visible"
         id="symbol3283">
        <path
           style="stroke:none"
           d="m 6.41,-1.58 c -0.88,0.65 -0.99,1.57 -0.99,1.57 0,0.11 0.07,0.11 0.16,0.11 0.13,0 0.16,0 0.19,-0.13 0.05,-0.18 0.16,-0.61 0.52,-1 0.41,-0.43 0.76,-0.54 1.05,-0.63 0.04,-0.02 0.07,-0.05 0.07,-0.08 0,-0.08 -0.04,-0.10 -0.13,-0.13 C 6.27,-2.18 5.91,-2.90 5.76,-3.5 5.74,-3.58 5.68,-3.58 5.58,-3.58 c -0.10,0 -0.16,0 -0.16,0.10 0,0.02 0.07,0.49 0.41,0.97 0.16,0.24 0.36,0.44 0.58,0.60 H 0.82 c -0.11,0 -0.29,0 -0.29,0.18 0,0.18 0.18,0.18 0.29,0.18 z m 0,0"
           id="path8229" />
      </symbol>
      <symbol
         overflow="visible"
         id="symbol4969">
        <path
           style="stroke:none"
           d="m 4.04,-1.91 c -0.38,-0.44 -0.49,-0.55 -0.76,-0.74 -0.43,-0.32 -0.88,-0.44 -1.26,-0.44 -0.88,0 -1.5,0.76 -1.5,1.58 0,0.82 0.61,1.57 1.47,1.57 0.97,0 1.66,-0.79 1.91,-1.16 0.36,0.44 0.49,0.55 0.74,0.74 0.44,0.32 0.88,0.43 1.27,0.43 0.86,0 1.49,-0.74 1.49,-1.57 0,-0.83 -0.60,-1.58 -1.47,-1.58 -0.97,0 -1.65,0.80 -1.90,1.18 z m 0.22,0.26 c 0.29,-0.46 0.90,-1.16 1.74,-1.16 0.72,0 1.22,0.65 1.22,1.32 0,0.66 -0.55,1.19 -1.19,1.19 -0.66,0 -1.10,-0.54 -1.77,-1.35 z M 3.68,-1.36 C 3.41,-0.91 2.80,-0.19 1.94,-0.19 c -0.72,0 -1.21,-0.65 -1.21,-1.32 0,-0.68 0.55,-1.19 1.19,-1.19 0.65,0 1.10,0.54 1.76,1.33 z m 0,0"
           id="path2170" />
      </symbol>
      <symbol
         overflow="visible"
         id="symbol4411">
        <path
           style="stroke:none"
           d=""
           id="path4984" />
      </symbol>
      <symbol
         overflow="visible"
         id="symbol6687">
        <path
           style="stroke:none"
           d="m 12.63,13.96 1.21,-3.19 h -0.26 c -0.40,1.04 -1.46,1.72 -2.60,2.02 -0.21,0.05 -1.19,0.32 -3.10,0.32 H 1.88 L 6.96,7.15 C 7.02,7.07 7.04,7.04 7.04,6.99 c 0,-0.04 0,-0.07 -0.07,-0.16 L 2.33,0.49 H 7.79 c 1.35,0 2.26,0.15 2.35,0.16 0.54,0.08 1.41,0.26 2.19,0.76 0.26,0.16 0.93,0.61 1.27,1.41 h 0.26 L 12.63,0 H 0.85 c -0.24,0 -0.26,0.02 -0.29,0.07 0,0.04 0,0.24 0,0.35 l 5.27,7.21 -5.16,6.07 C 0.57,13.79 0.57,13.85 0.57,13.85 c 0,0.11 0.10,0.11 0.29,0.11 z m 0,0"
           id="path9525" />
      </symbol>
    </g>
  </defs>
  <sodipodi:namedview
     id="base"
     pagecolor="#ffffff"
     bordercolor="#666666"
     borderopacity="1.0"
     inkscape:pageopacity="0.0"
     inkscape:pageshadow="2"
     inkscape:zoom="0.50"
     inkscape:cx="734.39"
     inkscape:cy="111.12"
     inkscape:document-units="mm"
     inkscape:current-layer="layer1"
     inkscape:document-rotation="0"
     showgrid="false"
     inkscape:window-width="1500"
     inkscape:window-height="978"
     inkscape:window-x="-6"
     inkscape:window-y="-6"
     inkscape:window-maximized="1"
     inkscape:showpageshadow="0"
     inkscape:pagecheckerboard="1"
     inkscape:deskcolor="#505050" />
  <metadata
     id="metadata5">
    <rdf:RDF>
      <cc:Work
         rdf:about="">
        <dc:format>image/svg+xml</dc:format>
        <dc:type
           rdf:resource="http://purl.org/dc/dcmitype/StillImage" />
      </cc:Work>
    </rdf:RDF>
  </metadata>
  <g
     inkscape:label="Layer 1"
     inkscape:groupmode="layer"
     id="layer1">
    <rect
       style="fill:#5d5b5b;stroke:#000000;stroke-width:0.20;paint-order:stroke fill markers;fill-opacity:1"
       id="rect1"
       width="241.11"
       height="53.79"
       x="0.10"
       y="0.10" />
    <g
       inkscape:label=""
       transform="translate(-11.15,-59.72)"
       id="g1165"
       onclick="alert(&quot;hi&quot;)">
      <g
         id="g6970">
        <g
           style="fill:#000000;fill-opacity:1"
           id="g1660">
          <use
             xlink:href="#symbol3270"
             x="93.13"
             y="81.72"
             id="use5527"
             width="100%"
             height="100%" />
        </g>
        <g
           style="fill:#000000;fill-opacity:1"
           id="g4006">
          <use
             xlink:href="#symbol8286"
             x="99.16"
             y="78.10"
             id="use4785"
             width="100%"
             height="100%" />
        </g>
        <path
           style="fill:none;stroke:#000000;stroke-width:0.40;stroke-linecap:butt;stroke-linejoin:miter;stroke-miterlimit:10;stroke-opacity:1"
           d="M 9.38e-5,0.01 H 10.51"
           transform="matrix(1,0,0,-1,93.13,85.97)"
           id="path3752" />
        <g
           style="fill:#000000;fill-opacity:1"
           id="g3986">
          <use
             xlink:href="#symbol5995"
             x="95.89"
             y="95.29"
             id="use9862"
             width="100%"
             height="100%" />
        </g>
        <g
           style="fill:#000000;fill-opacity:1"
           id="g1403">
          <use
             xlink:href="#symbol1765"
             x="107.59"
             y="88.46"
             id="use7004"
             width="100%"
             height="100%" />
        </g>
        <g
           style="fill:#000000;fill-opacity:1"
           id="g9071">
          <use
             xlink:href="#symbol6491"
             x="121.60"
             y="88.46"
             id="use3574"
             width="100%"
             height="100%" />
          <use
             xlink:href="#symbol6369"
             x="124.37"
             y="88.46"
             id="use1066"
             width="100%"
             height="100%" />
          <use
             xlink:href="#symbol9565"
             x="127.13"
             y="88.46"
             id="use3299"
             width="100%"
             height="100%" />
        </g>
        <g
           style="fill:#000000;fill-opacity:1"
           id="g5512">
          <use
             xlink:href="#symbol5180"
             x="118.11"
             y="94.44"
             id="use5153"
             width="100%"
             height="100%" />
        </g>
        <g
           style="fill:#000000;fill-opacity:1"
           id="g9013">
          <use
             xlink:href="#symbol3283"
             x="123.04"
             y="94.44"
             id="use57"
             width="100%"
             height="100%" />
          <use
             xlink:href="#symbol4969"
             x="130.98"
             y="94.44"
             id="use2165"
             width="100%"
             height="100%" />
        </g>
        <g
           style="fill:#000000;fill-opacity:1"
           id="g8835">
          <use
             xlink:href="#symbol5180"
             x="145.36"
             y="76.00"
             id="use2477"
             width="100%"
             height="100%" />
        </g>
        <g
           style="fill:#000000;fill-opacity:1"
           id="g4716">
          <use
             xlink:href="#symbol6687"
             x="140.63"
             y="78.99"
             id="use758"
             width="100%"
             height="100%" />
        </g>
        <g
           style="fill:#000000;fill-opacity:1"
           id="g3827">
          <use
             xlink:href="#symbol6326"
             x="140.58"
             y="100.44"
             id="use6543"
             width="100%"
             height="100%" />
        </g>
        <g
           style="fill:#000000;fill-opacity:1"
           id="g9255">
          <use
             xlink:href="#symbol1708"
             x="144.98"
             y="100.44"
             id="use5208"
             width="100%"
             height="100%" />
          <use
             xlink:href="#symbol6423"
             x="151.10"
             y="100.44"
             id="use9623"
             width="100%"
             height="100%" />
        </g>
        <g
           style="fill:#000000;fill-opacity:1"
           id="g5947">
          <use
             xlink:href="#symbol2446"
             x="160.42"
             y="81.72"
             id="use572"
             width="100%"
             height="100%" />
        </g>
        <path
           style="fill:none;stroke:#000000;stroke-width:0.40;stroke-linecap:butt;stroke-linejoin:miter;stroke-miterlimit:10;stroke-opacity:1"
           d="m -1.26e-4,0.01 h 9.97"
           transform="matrix(1,0,0,-1,157.93,85.97)"
           id="path5229" />
        <g
           style="fill:#000000;fill-opacity:1"
           id="g4948">
          <use
             xlink:href="#symbol8350"
             x="157.93"
             y="95.29"
             id="use367"
             width="100%"
             height="100%" />
        </g>
        <g
           style="fill:#000000;fill-opacity:1"
           id="g1332">
          <use
             xlink:href="#symbol8286"
             x="163.43"
             y="92.41"
             id="use6410"
             width="100%"
             height="100%" />
        </g>
      </g>
    </g>
  </g>
</svg>
