<?xml version="1.0" encoding="UTF-8" standalone="no"?><svg xmlns="http://www.w3.org/2000/svg" xmlns:xlink="http://www.w3.org/1999/xlink" contentScriptType="application/ecmascript" contentStyleType="text/css" height="273px" preserveAspectRatio="none" style="width:529px;height:273px;" version="1.1" viewBox="0 0 529 273" width="529px" zoomAndPan="magnify"><defs><filter height="300%" id="f1b9r8z55jntlw" width="300%" x="-1" y="-1"><feGaussianBlur result="blurOut" stdDeviation="2.0"/><feColorMatrix in="blurOut" result="blurOut2" type="matrix" values="0 0 0 0 0 0 0 0 0 0 0 0 0 0 0 0 0 0 .4 0"/><feOffset dx="4.0" dy="4.0" in="blurOut2" result="blurOut3"/><feBlend in="SourceGraphic" in2="blurOut3" mode="normal"/></filter></defs><g><!--MD5=[1d11bff648c05e5c086236afcf5827b8]
class Alice--><rect fill="#FEFECE" filter="url(#f1b9r8z55jntlw)" height="48" id="Alice" style="stroke: #A80036; stroke-width: 1.5;" width="58" x="7" y="22.03"/><ellipse cx="22" cy="38.03" fill="#ADD1B2" rx="11" ry="11" style="stroke: #A80036; stroke-width: 1.0;"/><path d="M21.3438,43.8894 Q19.3594,43.8894 18.1875,42.4206 Q17.0313,40.9362 17.0313,37.8581 Q17.0313,35.2487 18.25,33.4987 Q19.4844,31.7487 21.6094,31.7487 Q22.1094,31.7487 22.6406,31.8894 Q23.0781,32.0769 23.3438,32.0769 Q23.5625,32.0769 23.6563,32.03 Q23.7656,31.9831 24.2188,31.3894 L24.9844,35.1237 L24.0938,35.3894 Q23.6406,33.9362 23.0313,33.3425 Q22.4375,32.7331 21.4844,32.7331 Q20.2656,32.7331 19.5469,34.1706 Q18.8281,35.5925 18.8281,37.78 Q18.8281,40.1862 19.4375,41.4831 Q20.0625,42.7644 21.4219,42.7644 Q22.375,42.7644 23.0625,42.0769 Q23.75,41.3737 24.0781,39.8737 L24.9844,40.28 Q24.5781,41.9831 23.6094,42.9362 Q22.6563,43.8894 21.3438,43.8894 Z "/><text fill="#000000" font-family="sans-serif" font-size="12" lengthAdjust="spacingAndGlyphs" textLength="26" x="36" y="43.5876">Alice</text><line style="stroke: #A80036; stroke-width: 1.5;" x1="8" x2="64" y1="54.03" y2="54.03"/><line style="stroke: #A80036; stroke-width: 1.5;" x1="8" x2="64" y1="62.03" y2="62.03"/><!--MD5=[9f57ac87861df6213de8b6562fe37a6e]
class Bob--><rect fill="#FEFECE" filter="url(#f1b9r8z55jntlw)" height="48" id="Bob" style="stroke: #A80036; stroke-width: 1.5;" width="54" x="131" y="22.03"/><ellipse cx="146" cy="38.03" fill="#ADD1B2" rx="11" ry="11" style="stroke: #A80036; stroke-width: 1.0;"/><path d="M145.3438,43.8894 Q143.3594,43.8894 142.1875,42.4206 Q141.0313,40.9362 141.0313,37.8581 Q141.0313,35.2487 142.25,33.4987 Q143.4844,31.7487 145.6094,31.7487 Q146.1094,31.7487 146.6406,31.8894 Q147.0781,32.0769 147.3438,32.0769 Q147.5625,32.0769 147.6563,32.03 Q147.7656,31.9831 148.2188,31.3894 L148.9844,35.1237 L148.0938,35.3894 Q147.6406,33.9362 147.0313,33.3425 Q146.4375,32.7331 145.4844,32.7331 Q144.2656,32.7331 143.5469,34.1706 Q142.8281,35.5925 142.8281,37.78 Q142.8281,40.1862 143.4375,41.4831 Q144.0625,42.7644 145.4219,42.7644 Q146.375,42.7644 147.0625,42.0769 Q147.75,41.3737 148.0781,39.8737 L148.9844,40.28 Q148.5781,41.9831 147.6094,42.9362 Q146.6563,43.8894 145.3438,43.8894 Z "/><text fill="#000000" font-family="sans-serif" font-size="12" lengthAdjust="spacingAndGlyphs" textLength="22" x="160" y="43.5876">Bob</text><line style="stroke: #A80036; stroke-width: 1.5;" x1="132" x2="184" y1="54.03" y2="54.03"/><line style="stroke: #A80036; stroke-width: 1.5;" x1="132" x2="184" y1="62.03" y2="62.03"/><!--MD5=[d51cbf2191e499e1913df3b3149063e9]
class ICheckUserAccount--><rect fill="#FEFECE" filter="url(#f1b9r8z55jntlw)" height="78.0459" id="ICheckUserAccount" style="stroke: #A80036; stroke-width: 1.5;" width="290" x="220" y="7"/><ellipse cx="305.75" cy="23" fill="#B4A7E5" rx="11" ry="11" style="stroke: #A80036; stroke-width: 1.0;"/><path d="M302.3438,17.7813 L302.3438,16.8438 L308.1875,16.8438 L308.1875,17.7813 L306.3906,17.7813 Q306.2188,17.7813 306.1406,17.8438 Q306.0625,17.9063 306.0625,18.0469 L306.0625,27.5313 Q306.0625,27.6719 306.1406,27.7344 Q306.2188,27.7969 306.3906,27.7969 L308.1875,27.7969 L308.1875,28.7344 L302.3438,28.7344 L302.3438,27.7969 L304.1406,27.7969 Q304.3594,27.7969 304.4063,27.75 Q304.4688,27.6875 304.4688,27.5313 L304.4688,18.0469 Q304.4688,17.8906 304.4063,17.8438 Q304.3594,17.7813 304.1406,17.7813 L302.3438,17.7813 Z "/><text fill="#000000" font-family="sans-serif" font-size="12" font-style="italic" lengthAdjust="spacingAndGlyphs" textLength="110" x="326.25" y="28.5576">ICheckUserAccount</text><line style="stroke: #A80036; stroke-width: 1.5;" x1="221" x2="509" y1="39" y2="39"/><line style="stroke: #A80036; stroke-width: 1.5;" x1="221" x2="509" y1="47" y2="47"/><text fill="#000000" font-family="sans-serif" font-size="11" lengthAdjust="spacingAndGlyphs" textLength="221" x="226" y="63.606">boolean check_account(String user_accpout)</text><text fill="#000000" font-family="sans-serif" font-size="11" lengthAdjust="spacingAndGlyphs" textLength="278" x="226" y="78.6289">String md5_password(String user_password, String solt)</text><!--MD5=[4cd44673075186e13a3a3a908b64c23f]
class CheckUserAccount--><rect fill="#FEFECE" filter="url(#f1b9r8z55jntlw)" height="108.0918" id="CheckUserAccount" style="stroke: #A80036; stroke-width: 1.5;" width="137" x="296.5" y="146.05"/><ellipse cx="311.5" cy="162.05" fill="#ADD1B2" rx="11" ry="11" style="stroke: #A80036; stroke-width: 1.0;"/><path d="M310.8438,167.9094 Q308.8594,167.9094 307.6875,166.4406 Q306.5313,164.9562 306.5313,161.8781 Q306.5313,159.2687 307.75,157.5187 Q308.9844,155.7687 311.1094,155.7687 Q311.6094,155.7687 312.1406,155.9094 Q312.5781,156.0969 312.8438,156.0969 Q313.0625,156.0969 313.1563,156.05 Q313.2656,156.0031 313.7188,155.4094 L314.4844,159.1437 L313.5938,159.4094 Q313.1406,157.9562 312.5313,157.3625 Q311.9375,156.7531 310.9844,156.7531 Q309.7656,156.7531 309.0469,158.1906 Q308.3281,159.6125 308.3281,161.8 Q308.3281,164.2062 308.9375,165.5031 Q309.5625,166.7844 310.9219,166.7844 Q311.875,166.7844 312.5625,166.0969 Q313.25,165.3937 313.5781,163.8937 L314.4844,164.3 Q314.0781,166.0031 313.1094,166.9562 Q312.1563,167.9094 310.8438,167.9094 Z "/><text fill="#000000" font-family="sans-serif" font-size="12" lengthAdjust="spacingAndGlyphs" textLength="105" x="325.5" y="167.6076">CheckUserAccount</text><line style="stroke: #A80036; stroke-width: 1.5;" x1="297.5" x2="432.5" y1="178.05" y2="178.05"/><ellipse cx="307.5" cy="189.05" fill="none" rx="3" ry="3" style="stroke: #038048; stroke-width: 1.0;"/><text fill="#000000" font-family="sans-serif" font-size="11" lengthAdjust="spacingAndGlyphs" textLength="98" x="316.5" y="194.656">String user_account</text><rect fill="none" height="6" style="stroke: #C82930; stroke-width: 1.0;" width="6" x="304.5" y="201.0729"/><text fill="#000000" font-family="sans-serif" font-size="11" lengthAdjust="spacingAndGlyphs" textLength="48" x="316.5" y="209.6789">String solt</text><rect fill="none" height="6" style="stroke: #C82930; stroke-width: 1.0;" width="6" x="304.5" y="216.0959"/><text fill="#000000" font-family="sans-serif" font-size="11" lengthAdjust="spacingAndGlyphs" textLength="65" x="316.5" y="224.7019">Int pass_type</text><line style="stroke: #A80036; stroke-width: 1.5;" x1="297.5" x2="432.5" y1="231.1188" y2="231.1188"/><ellipse cx="307.5" cy="242.1188" fill="#84BE84" rx="3" ry="3" style="stroke: #038048; stroke-width: 1.0;"/><text fill="#000000" font-family="sans-serif" font-size="11" lengthAdjust="spacingAndGlyphs" textLength="94" x="316.5" y="247.7248">void Check_result()</text><!--MD5=[4f71f409538e0adb0acbb0c2b0e67ce9]
link Alice to Bob--><path d="M65.22,46.03 C83.08,46.03 105.98,46.03 124.57,46.03 " fill="none" id="Alice-&gt;Bob" style="stroke: #A80036; stroke-width: 1.0;"/><polygon fill="#A80036" points="129.17,46.03,120.17,42.03,124.17,46.03,120.17,50.03,129.17,46.03" style="stroke: #A80036; stroke-width: 1.0;"/><text fill="#000000" font-family="sans-serif" font-size="13" lengthAdjust="spacingAndGlyphs" textLength="29" x="83.5" y="39.9279">Hello</text><!--MD5=[73cfb88f729adb8979e31f7131a55e00]
reverse link Alice to Bob--><path d="M71.51,64.46 C82.6,68.22 94.95,70.39 106.5,68.03 C114.6,66.37 122.99,63.39 130.6,60.14 " fill="none" id="Alice&lt;-Bob" style="stroke: #A80036; stroke-width: 1.0;"/><polygon fill="#A80036" points="66.92,62.75,73.9794,69.6177,71.611,64.4805,76.7482,62.1121,66.92,62.75" style="stroke: #A80036; stroke-width: 1.0;"/><text fill="#000000" font-family="sans-serif" font-size="13" lengthAdjust="spacingAndGlyphs" textLength="15" x="90.5" y="64.9279">Hi!</text><!--MD5=[7494c0b3dc4205a40dc7c47f73e9d9c1]
reverse link ICheckUserAccount to CheckUserAccount--><path d="M365,106.83 C365,119.69 365,133.2 365,145.8 " fill="none" id="ICheckUserAccount&lt;-CheckUserAccount" style="stroke: #A80036; stroke-width: 1.0; stroke-dasharray: 7.0,7.0;"/><polygon fill="none" points="358,106.91,365,86.91,372,106.91,358,106.91" style="stroke: #A80036; stroke-width: 1.0;"/><!--MD5=[42ed3ab4e906049b5bb595cb0e6049e2]
@startuml
    Alice -> Bob: Hello
    Alice <- Bob: Hi!
    interface ICheckUserAccount{
        boolean check_account(String user_accpout)
        String md5_password(String user_password, String solt)
    }
            
    class CheckUserAccount implements ICheckUserAccount{
        + String user_account
        - String solt
        - Int pass_type
        
        + void Check_result()
    }
@enduml

PlantUML version 1.2020.15(Sun Jun 28 19:39:45 CST 2020)
(GPL source distribution)
Java Runtime: Java(TM) SE Runtime Environment
JVM: Java HotSpot(TM) 64-Bit Server VM
Default Encoding: GBK
Language: zh
Country: SG
--></g></svg>