<?xml version="1.0" encoding="UTF-8" standalone="no"?>
<!-- Created with Inkscape (http://www.inkscape.org/) -->

<svg
   version="1.1"
   id="svg1"
   width="377.95334"
   height="75.590668"
   viewBox="0 0 377.95334 75.590668"
   sodipodi:docname="SVG-viewer-CTM.pdf"
   xmlns:inkscape="http://www.inkscape.org/namespaces/inkscape"
   xmlns:sodipodi="http://sodipodi.sourceforge.net/DTD/sodipodi-0.dtd"
   xmlns="http://www.w3.org/2000/svg"
   xmlns:svg="http://www.w3.org/2000/svg">
  <defs
     id="defs1" />
  <sodipodi:namedview
     id="namedview1"
     pagecolor="#505050"
     bordercolor="#ffffff"
     borderopacity="1"
     inkscape:showpageshadow="0"
     inkscape:pageopacity="0"
     inkscape:pagecheckerboard="1"
     inkscape:deskcolor="#505050">
    <inkscape:page
       x="0"
       y="0"
       inkscape:label="1"
       id="page1"
       width="377.95334"
       height="75.590668"
       margin="0"
       bleed="0" />
  </sodipodi:namedview>
  <g
     id="g1"
     inkscape:groupmode="layer"
     inkscape:label="1">
    <g
       id="g2"
       aria-label="π&#10;2"
       transform="matrix(1.3333333,0,0,1.3333333,72.833333,22.054667)">
      <path
         id="path2"
         d="m 2.8935547,-4.0663906 h 1.2304687 c -0.3632812,1.6171875 -0.4570312,2.0859375 -0.4570312,2.8125 0,0.1640625 0,0.45703123 0.082031,0.83203123 0.1171875,0.48046875 0.234375,0.5390625 0.3984375,0.5390625 0.2109375,0 0.4453125,-0.19921875 0.4453125,-0.41015625 0,-0.0703125 0,-0.09375 -0.070312,-0.24609375 C 4.2060547,-1.3242031 4.2060547,-2.0273281 4.2060547,-2.3320156 c 0,-0.5859375 0.082031,-1.171875 0.1992187,-1.734375 h 1.2421875 c 0.140625,0 0.5390625,0 0.5390625,-0.375 0,-0.2578125 -0.234375,-0.2578125 -0.4335937,-0.2578125 h -3.65625 c -0.2460938,0 -0.65625,0 -1.13671876,0.5039062 -0.38671875,0.4335938 -0.66796875,0.9375 -0.66796875,0.984375 0,0.011719 0,0.1171875 0.12890625,0.1171875 0.09375,0 0.1171875,-0.046875 0.17578125,-0.140625 C 1.1357422,-4.0663906 1.7685547,-4.0663906 1.9794922,-4.0663906 h 0.6328125 c -0.3515625,1.3125 -0.9492188,2.6367187 -1.40625,3.63281248 -0.082031,0.1640625 -0.082031,0.1875 -0.082031,0.2578125 0,0.2109375 0.1757813,0.29296875 0.3164063,0.29296875 0.328125,0 0.4101562,-0.3046875 0.5390625,-0.703125 C 2.1318359,-1.0898281 2.1318359,-1.1132656 2.2841797,-1.6640469 Z m 0,0"
         style="fill:#000000;fill-opacity:1;fill-rule:nonzero;stroke:none" />
      <path
         id="path3"
         d="m 8.8613281,-5.5868984 c 0.1289063,-0.1171875 0.4570313,-0.375 0.5859375,-0.4921875 0.4921875,-0.4570313 0.9609374,-0.890625 0.9609374,-1.6171875 0,-0.9492188 -0.7968749,-1.5585938 -1.7929686,-1.5585938 -0.9492188,0 -1.5820313,0.7265625 -1.5820313,1.4296875 0,0.3984375 0.3164063,0.4453125 0.421875,0.4453125 0.1640625,0 0.4101563,-0.1171875 0.4101563,-0.421875 0,-0.4101562 -0.3984375,-0.4101562 -0.4921875,-0.4101562 0.234375,-0.5859375 0.7734375,-0.7851563 1.1601562,-0.7851563 0.7382813,0 1.125,0.6328125 1.125,1.3007813 0,0.8320312 -0.5859375,1.4296875 -1.5234375,2.4023437 l -1.0078125,1.03125 c -0.09375,0.09375 -0.09375,0.1054688 -0.09375,0.3046875 h 3.1523439 l 0.222656,-1.4296875 h -0.246094 c -0.02344,0.1640625 -0.08203,0.5625 -0.1757809,0.7148438 -0.046875,0.058594 -0.65625,0.058594 -0.7851562,0.058594 H 7.7832031 Z m 0,0"
         style="fill:#000000;fill-opacity:1;fill-rule:nonzero;stroke:none" />
    </g>
    <path
       id="path4"
       d="M 0,0 H 11.342"
       style="fill:none;stroke:#000000;stroke-width:0.398;stroke-linecap:butt;stroke-linejoin:miter;stroke-miterlimit:10;stroke-dasharray:none;stroke-opacity:1"
       transform="matrix(1.3333333,0,0,-1.3333333,72.833333,28.258667)" />
    <g
       id="g4"
       aria-label="6&#10;=lim&#10;n→∞&#10;n&#10;X&#10;k=1&#10;1"
       transform="matrix(1.3333333,0,0,1.3333333,76.758667,41.872)">
      <path
         id="path5"
         d="m 1.4407656,-3.5748984 v -0.2695313 c 0,-2.7539062 1.3476563,-3.1523437 1.9101563,-3.1523437 0.2578125,0 0.7148437,0.070312 0.9609375,0.4335937 -0.1640625,0 -0.5976563,0 -0.5976563,0.4921875 0,0.3398438 0.2578125,0.5039063 0.4921875,0.5039063 0.1757813,0 0.5039063,-0.09375 0.5039063,-0.515625 0,-0.65625 -0.4804688,-1.1835938 -1.3828125,-1.1835938 -1.3945313,0 -2.87109378,1.40625 -2.87109378,3.8203125 0,2.90625001 1.26562498,3.67968751 2.28515628,3.67968751 1.2070312,0 2.2382812,-1.01953125 2.2382812,-2.46093751 0,-1.3828125 -0.9609375,-2.4375 -2.1796875,-2.4375 -0.7382812,0 -1.1367187,0.5625 -1.359375,1.0898438 z m 1.3007813,3.50390621 c -0.6914063,0 -1.0195313,-0.64453125 -1.078125,-0.80859375 C 1.4642031,-1.3952109 1.4642031,-2.2741172 1.4642031,-2.4616172 c 0,-0.8554687 0.3515625,-1.9453125 1.3242188,-1.9453125 0.1757812,0 0.6796875,0 1.0195312,0.6796875 0.1992188,0.3984375 0.1992188,0.9609375 0.1992188,1.4882813 0,0.5273437 0,1.0664062 -0.1875,1.46484371 -0.328125,0.65625 -0.8320313,0.703125 -1.078125,0.703125 z M 20.123383,-11.045602 c 0.164062,0 0.363281,0 0.363281,-0.222656 0,-0.222656 -0.199219,-0.222656 -0.351562,-0.222656 h -6.539063 c -0.152344,0 -0.363281,0 -0.363281,0.222656 0,0.222656 0.210937,0.222656 0.375,0.222656 z m 0.01172,2.1093754 c 0.152343,0 0.351562,0 0.351562,-0.2109375 0,-0.2226562 -0.199219,-0.2226562 -0.363281,-0.2226562 h -6.515625 c -0.164063,0 -0.375,0 -0.375,0.2226562 0,0.2109375 0.210937,0.2109375 0.363281,0.2109375 z m 9.398437,-6.1171874 -1.570312,0.117187 v 0.339844 c 0.761718,0 0.84375,0.08203 0.84375,0.609375 v 5.6718752 c 0,0.4921875 -0.117188,0.4921875 -0.84375,0.4921875 v 0.3398437 c 0.351562,-0.011719 0.9375,-0.035156 1.207031,-0.035156 0.269531,0 0.808594,0.023437 1.207031,0.035156 v -0.3398437 c -0.726562,0 -0.84375,0 -0.84375,-0.4921875 z m 3.029297,2.742187 -1.535156,0.128907 v 0.339843 c 0.714843,0 0.808593,0.05859 0.808593,0.597657 v 2.9296872 c 0,0.4921875 -0.117187,0.4921875 -0.84375,0.4921875 v 0.3398437 c 0.351563,-0.011719 0.9375,-0.035156 1.195313,-0.035156 0.386719,0 0.761719,0.023437 1.136719,0.035156 v -0.3398437 c -0.714844,0 -0.761719,-0.058594 -0.761719,-0.4804688 z m 0.04687,-1.886718 c 0,-0.351563 -0.28125,-0.585938 -0.585938,-0.585938 -0.339843,0 -0.574218,0.292969 -0.574218,0.585938 0,0.292968 0.234375,0.574218 0.574218,0.574218 0.304688,0 0.585938,-0.234375 0.585938,-0.574218 z m 2.24707,2.964843 v 2.9179692 c 0,0.4921875 -0.117187,0.4921875 -0.84375,0.4921875 v 0.3398437 c 0.375,-0.011719 0.9375,-0.035156 1.230469,-0.035156 0.28125,0 0.855469,0.023437 1.21875,0.035156 v -0.3398437 c -0.726563,0 -0.84375,0 -0.84375,-0.4921875 v -2.0039062 c 0,-1.136719 0.773437,-1.746094 1.464844,-1.746094 0.691406,0 0.808593,0.585938 0.808593,1.207031 v 2.5429692 c 0,0.4921875 -0.117187,0.4921875 -0.84375,0.4921875 v 0.3398437 c 0.375,-0.011719 0.9375,-0.035156 1.230469,-0.035156 0.28125,0 0.84375,0.023437 1.21875,0.035156 v -0.3398437 c -0.726562,0 -0.855469,0 -0.855469,-0.4921875 v -2.0039062 c 0,-1.136719 0.785157,-1.746094 1.476563,-1.746094 0.691406,0 0.808594,0.585938 0.808594,1.207031 v 2.5429692 c 0,0.4921875 -0.117188,0.4921875 -0.855469,0.4921875 v 0.3398437 c 0.386719,-0.011719 0.9375,-0.035156 1.242187,-0.035156 0.28125,0 0.84375,0.023437 1.21875,0.035156 v -0.3398437 c -0.574218,0 -0.84375,0 -0.855468,-0.328125 v -2.0859377 c 0,-0.9375 0,-1.277344 -0.339844,-1.664062 -0.152344,-0.1875 -0.503906,-0.410157 -1.136719,-0.410157 -0.925781,0 -1.394531,0.65625 -1.582031,1.078125 -0.152344,-0.949218 -0.960938,-1.078125 -1.453125,-1.078125 -0.796875,0 -1.3125,0.480469 -1.617188,1.148438 v -1.148438 l -1.535156,0.128907 v 0.339843 c 0.761719,0 0.84375,0.07031 0.84375,0.609375 z m 0,0"
         style="fill:#000000;fill-opacity:1;fill-rule:nonzero;stroke:none" />
      <path
         id="path6"
         d="m 25.733734,-2.8161094 c 0.02344,-0.1171875 0.105469,-0.421875 0.128907,-0.5390625 0.105468,-0.421875 0.105468,-0.4335937 0.292968,-0.703125 0.257813,-0.3867187 0.632813,-0.7382812 1.171875,-0.7382812 0.28125,0 0.457032,0.1640625 0.457032,0.5390625 0,0.4453125 -0.339844,1.3476562 -0.492188,1.7460937 -0.105469,0.2578125 -0.105469,0.3046875 -0.105469,0.4101563 0,0.4570312 0.375,0.6796875 0.726563,0.6796875 0.773437,0 1.101562,-1.1132813 1.101562,-1.21875 0,-0.082031 -0.05859,-0.1054688 -0.117187,-0.1054688 -0.09375,0 -0.117188,0.058594 -0.140625,0.1289063 -0.1875,0.65625 -0.515625,0.9726562 -0.820313,0.9726562 -0.128906,0 -0.199218,-0.082031 -0.199218,-0.2695312 0,-0.1757813 0.07031,-0.3515625 0.152343,-0.5507813 0.117188,-0.3046875 0.46875,-1.21875 0.46875,-1.6640625 0,-0.5976562 -0.421875,-0.890625 -0.996093,-0.890625 -0.644532,0 -1.054688,0.3867188 -1.289063,0.6914063 -0.05859,-0.4335938 -0.398437,-0.6914063 -0.808594,-0.6914063 -0.292968,0 -0.492187,0.1875 -0.609375,0.4335938 -0.199218,0.375 -0.28125,0.7734375 -0.28125,0.7851562 0,0.070312 0.05859,0.1054688 0.128907,0.1054688 0.09375,0 0.105468,-0.035156 0.164062,-0.234375 0.09375,-0.3984375 0.234375,-0.8671875 0.574219,-0.8671875 0.210937,0 0.257812,0.1992187 0.257812,0.375 0,0.140625 -0.04687,0.2929687 -0.105468,0.5625 -0.02344,0.058594 -0.140625,0.5273437 -0.175782,0.6445312 l -0.292968,1.1953125 c -0.02344,0.1171875 -0.07031,0.3164063 -0.07031,0.3515625 0,0.1757813 0.140625,0.2460938 0.246094,0.2460938 0.152344,0 0.269531,-0.09375 0.316406,-0.1992188 0.03516,-0.046875 0.09375,-0.3164062 0.128906,-0.4804687 z m 0,0"
         style="fill:#000000;fill-opacity:1;fill-rule:nonzero;stroke:none" />
      <path
         id="path7"
         d="m 36.236664,-3.3082969 c -0.269531,0.1992188 -0.527344,0.4453125 -0.714844,0.7382813 -0.339843,0.515625 -0.433593,1.03125 -0.433593,1.0546875 0,0.1289062 0.117187,0.1289062 0.1875,0.1289062 0.09375,0 0.164062,0 0.1875,-0.1054687 0.199218,-0.890625 0.714843,-1.5585938 1.675781,-1.8867188 0.07031,-0.011719 0.128906,-0.035156 0.128906,-0.1171875 0,-0.082031 -0.07031,-0.1054687 -0.105469,-0.1171875 -1.054687,-0.3515625 -1.523437,-1.1015625 -1.6875,-1.8046875 -0.03516,-0.1523437 -0.03516,-0.1875 -0.199218,-0.1875 -0.07031,0 -0.1875,0 -0.1875,0.1289063 0,0.011719 0.08203,0.5390625 0.433593,1.0664062 0.234375,0.328125 0.515625,0.5742188 0.714844,0.7265625 h -6.1875 c -0.128906,0 -0.304687,0 -0.304687,0.1875 0,0.1875 0.175781,0.1875 0.304687,0.1875 z m 5.80957,-0.375 c -0.46875,-0.5742187 -0.527343,-0.6328125 -0.808593,-0.84375 -0.363282,-0.28125 -0.855469,-0.4921875 -1.382813,-0.4921875 -0.972656,0 -1.640625,0.8554688 -1.640625,1.8046875 0,0.9257813 0.667969,1.7929688 1.605469,1.7929688 0.65625,0 1.429687,-0.3398438 2.085937,-1.3359375 0.46875,0.5742187 0.539063,0.6328125 0.808594,0.84375 0.375,0.2695312 0.855469,0.4921875 1.382813,0.4921875 0.972656,0 1.640625,-0.8554688 1.640625,-1.8046875 0,-0.9257813 -0.65625,-1.7929688 -1.605469,-1.7929688 -0.65625,0 -1.417969,0.3398438 -2.085938,1.3359375 z m 0.246094,0.2929688 c 0.292969,-0.5039063 0.949219,-1.3242188 1.886719,-1.3242188 0.855469,0 1.335937,0.7734375 1.335937,1.4882813 0,0.7734375 -0.585937,1.3710937 -1.289062,1.3710937 -0.703125,0 -1.171875,-0.5859375 -1.933594,-1.5351562 z m -0.621094,0.3398437 c -0.304687,0.5039063 -0.960937,1.3242188 -1.898437,1.3242188 -0.855469,0 -1.335938,-0.7734375 -1.335938,-1.4882813 0,-0.7734375 0.585938,-1.3710937 1.289063,-1.3710937 0.703125,0 1.171875,0.5742187 1.945312,1.5351562 z m 0,0"
         style="fill:#000000;fill-opacity:1;fill-rule:nonzero;stroke:none" />
      <path
         id="path8"
         d="m 54.778656,-21.484078 c 0.02344,-0.117188 0.105469,-0.421875 0.128906,-0.539063 0.105469,-0.421875 0.105469,-0.433593 0.292969,-0.703125 0.257813,-0.386718 0.632813,-0.738281 1.171875,-0.738281 0.28125,0 0.457031,0.164063 0.457031,0.539063 0,0.445312 -0.339843,1.347656 -0.492187,1.746093 -0.105469,0.257813 -0.105469,0.304688 -0.105469,0.410157 0,0.457031 0.375,0.679687 0.726563,0.679687 0.773437,0 1.101562,-1.113281 1.101562,-1.21875 0,-0.08203 -0.05859,-0.105469 -0.117187,-0.105469 -0.09375,0 -0.117188,0.05859 -0.140625,0.128907 -0.1875,0.65625 -0.515625,0.972656 -0.820313,0.972656 -0.128906,0 -0.199219,-0.08203 -0.199219,-0.269531 0,-0.175782 0.07031,-0.351563 0.152344,-0.550782 0.117188,-0.304687 0.46875,-1.21875 0.46875,-1.664062 0,-0.597656 -0.421875,-0.890625 -0.996094,-0.890625 -0.644531,0 -1.054687,0.386719 -1.289062,0.691406 -0.05859,-0.433594 -0.398438,-0.691406 -0.808594,-0.691406 -0.292969,0 -0.492187,0.1875 -0.609375,0.433594 -0.199219,0.375 -0.28125,0.773437 -0.28125,0.785156 0,0.07031 0.05859,0.105469 0.128906,0.105469 0.09375,0 0.105469,-0.03516 0.164063,-0.234375 0.09375,-0.398438 0.234375,-0.867188 0.574219,-0.867188 0.210937,0 0.257812,0.199219 0.257812,0.375 0,0.140625 -0.04687,0.292969 -0.105469,0.5625 -0.02344,0.05859 -0.140625,0.527344 -0.175781,0.644531 l -0.292969,1.195313 c -0.02344,0.117187 -0.07031,0.316406 -0.07031,0.351562 0,0.175782 0.140625,0.246094 0.246094,0.246094 0.152343,0 0.269531,-0.09375 0.316406,-0.199219 0.03516,-0.04687 0.09375,-0.316406 0.128906,-0.480468 z m 0,0"
         style="fill:#000000;fill-opacity:1;fill-rule:nonzero;stroke:none" />
      <path
         id="path9"
         d="m 61.168305,-3.2379844 1.207031,-3.1875 h -0.246094 c -0.386719,1.03125 -1.453125,1.7109375 -2.589844,2.015625 -0.210937,0.046875 -1.183593,0.3046875 -3.105468,0.3046875 h -6 l 5.0625,-5.9414061 c 0.07031,-0.08203 0.09375,-0.117188 0.09375,-0.164063 0,-0.02344 0,-0.04687 -0.07031,-0.152343 l -4.640625,-6.339844 h 5.460938 c 1.335937,0 2.238281,0.140625 2.332031,0.152344 0.539062,0.08203 1.40625,0.257812 2.191406,0.75 0.246094,0.164062 0.925781,0.609375 1.265625,1.417968 h 0.246094 l -1.207031,-2.800781 H 49.390961 c -0.222656,0 -0.234375,0.01172 -0.269531,0.07031 0,0.03516 0,0.222656 0,0.328125 l 5.261718,7.2070309 -5.15625,6.046875 c -0.105468,0.1289062 -0.105468,0.1757812 -0.105468,0.1875 0,0.1054687 0.09375,0.1054687 0.269531,0.1054687 z m 0,0"
         style="fill:#000000;fill-opacity:1;fill-rule:nonzero;stroke:none" />
      <path
         id="path10"
         d="m 50.363617,-0.34052344 c 0,-0.0117188 0.02344,-0.1171875 0.02344,-0.1171875 0,-0.046875 -0.02344,-0.1171875 -0.128907,-0.1171875 -0.02344,0 -0.269531,0.0234375 -0.457031,0.0351563 l -0.445312,0.0351563 c -0.175782,0.0234375 -0.257813,0.0234375 -0.257813,0.1640625 0,0.1171875 0.117188,0.1171875 0.210938,0.1171875 0.375,0 0.375,0.046875 0.375,0.1171875 0,0.0234375 0,0.046875 -0.03516,0.1875 L 48.512055,4.6165078 c -0.02344,0.1171875 -0.02344,0.1640625 -0.02344,0.1757813 0,0.1289062 0.105469,0.2460937 0.257813,0.2460937 0.269531,0 0.339843,-0.2578125 0.363281,-0.3632812 0.08203,-0.3398438 0.292969,-1.1835938 0.375,-1.5234375 0.445312,0.046875 0.972656,0.1992187 0.972656,0.65625 0,0.035156 0,0.082031 -0.01172,0.1640625 -0.02344,0.1054687 -0.03516,0.2109375 -0.03516,0.2460937 0,0.4804688 0.351563,0.8203125 0.808594,0.8203125 0.339844,0 0.539062,-0.2460937 0.644531,-0.3984375 0.1875,-0.2929687 0.316406,-0.7734375 0.316406,-0.8203125 0,-0.082031 -0.05859,-0.1054687 -0.117187,-0.1054687 -0.09375,0 -0.105469,0.046875 -0.140625,0.1875 -0.105469,0.375 -0.316406,0.9140625 -0.691406,0.9140625 -0.199219,0 -0.246094,-0.1757813 -0.246094,-0.3984375 0,-0.09375 0,-0.1992188 0.04687,-0.375 0,-0.035156 0.03516,-0.1640625 0.03516,-0.2460938 0,-0.65625 -0.820312,-0.796875 -1.230469,-0.8554687 0.304688,-0.1757813 0.574219,-0.4453125 0.667969,-0.5507813 0.433594,-0.4335937 0.796875,-0.7265625 1.171875,-0.7265625 0.105469,0 0.199219,0.023437 0.269531,0.1054688 -0.433593,0.058594 -0.433593,0.4335937 -0.433593,0.4335937 0,0.1757813 0.140625,0.3046875 0.316406,0.3046875 0.210937,0 0.445312,-0.1757812 0.445312,-0.5039062 0,-0.2695313 -0.1875,-0.5625 -0.585937,-0.5625 -0.457031,0 -0.878906,0.3515625 -1.324219,0.8085937 -0.46875,0.4570313 -0.667969,0.5390625 -0.796875,0.5976563 z m 0,0"
         style="fill:#000000;fill-opacity:1;fill-rule:nonzero;stroke:none" />
      <path
         id="path11"
         d="m 58.478852,2.3079141 c 0.117187,0 0.28125,0 0.28125,-0.1875 0,-0.1875 -0.1875,-0.1875 -0.316407,-0.1875 h -5.003906 c -0.128906,0 -0.316406,0 -0.316406,0.1875 0,0.1875 0.164062,0.1875 0.28125,0.1875 z m -0.03516,1.6875 c 0.128907,0 0.316407,0 0.316407,-0.1875 0,-0.1875 -0.164063,-0.1875 -0.28125,-0.1875 H 53.40463 c -0.117188,0 -0.28125,0 -0.28125,0.1875 0,0.1875 0.1875,0.1875 0.316406,0.1875 z m 3.304688,-4.11328129 c 0,-0.22265625 -0.02344,-0.22265625 -0.234375,-0.22265625 -0.328125,0.31640625 -0.75,0.50390625 -1.511719,0.50390625 v 0.26953125 c 0.222656,0 0.644531,0 1.113281,-0.22265625 V 4.3001016 c 0,0.2929687 -0.02344,0.3984375 -0.785156,0.3984375 h -0.28125 v 0.2578125 c 0.328125,-0.023437 1.019531,-0.023437 1.371094,-0.023437 0.363281,0 1.054687,0 1.382812,0.023437 V 4.6985391 h -0.28125 c -0.75,0 -0.773437,-0.1054688 -0.773437,-0.3984375 z m 0,0"
         style="fill:#000000;fill-opacity:1;fill-rule:nonzero;stroke:none" />
      <path
         id="path12"
         d="m 72.347992,-21.847359 c 0,-0.257813 0,-0.28125 -0.257812,-0.28125 -0.667969,0.703125 -1.628907,0.703125 -1.980469,0.703125 v 0.328125 c 0.210937,0 0.855469,0 1.429687,-0.28125 v 5.648437 c 0,0.398438 -0.03516,0.527344 -1.019531,0.527344 h -0.351562 v 0.339844 c 0.386718,-0.03516 1.335937,-0.03516 1.769531,-0.03516 0.445312,0 1.394531,0 1.769531,0.03516 v -0.339844 h -0.351562 c -0.972657,0 -1.007813,-0.117188 -1.007813,-0.527344 z m 0,0"
         style="fill:#000000;fill-opacity:1;fill-rule:nonzero;stroke:none" />
    </g>
    <path
       id="path13"
       d="M 0,0 H 10.755"
       style="fill:none;stroke:#000000;stroke-width:0.398;stroke-linecap:butt;stroke-linejoin:miter;stroke-miterlimit:10;stroke-dasharray:none;stroke-opacity:1"
       transform="matrix(1.3333333,0,0,-1.3333333,165.40933,28.258667)" />
    <g
       id="g13"
       aria-label="k&#10;2"
       transform="matrix(1.3333333,0,0,1.3333333,165.40933,41.872)">
      <path
         id="path14"
         d="m 3.1295234,-7.4538047 c 0,-0.011719 0,-0.1171875 -0.140625,-0.1171875 -0.2460937,0 -1.0429687,0.082031 -1.3242187,0.1054688 -0.09375,0.011719 -0.2109375,0.023437 -0.2109375,0.2226562 0,0.1289063 0.09375,0.1289063 0.2578125,0.1289063 0.5273437,0 0.5507812,0.082031 0.5507812,0.1875 l -0.035156,0.2109375 -1.58203126,6.29296871 c -0.046875,0.15234375 -0.046875,0.17578125 -0.046875,0.234375 0,0.2578125 0.22265625,0.3046875 0.31640625,0.3046875 0.14062501,0 0.30468751,-0.09375 0.37500001,-0.22265625 0.058594,-0.10546875 0.5390625,-2.12109376 0.609375,-2.39062496 0.375,0.035156 1.265625,0.1992187 1.265625,0.9257812 0,0.070312 0,0.1171875 -0.035156,0.2226563 -0.023437,0.140625 -0.046875,0.2695312 -0.046875,0.38671871 0,0.64453125 0.4453125,1.078125 1.0078125,1.078125 0.328125,0 0.6210938,-0.17578125 0.8671875,-0.57421875 0.2695313,-0.48046875 0.3867188,-1.07812496 0.3867188,-1.10156246 0,-0.1054688 -0.09375,-0.1054688 -0.1289063,-0.1054688 -0.1054687,0 -0.1171875,0.035156 -0.1523437,0.1875 -0.2226563,0.79687501 -0.46875,1.35937501 -0.9492188,1.35937501 -0.2109375,0 -0.3515625,-0.1171875 -0.3515625,-0.515625 0,-0.1875 0.046875,-0.43359371 0.09375,-0.60937501 0.035156,-0.1875 0.035156,-0.234375 0.035156,-0.3398437 0,-0.7148438 -0.6796875,-1.03125 -1.6054688,-1.1484375 0.328125,-0.1992188 0.6796875,-0.5390625 0.9375,-0.8085938 0.515625,-0.5742187 1.0195313,-1.0429687 1.5585938,-1.0429687 0.058594,0 0.070312,0 0.09375,0.011719 0.1289062,0.023437 0.140625,0.023437 0.234375,0.082031 0.023437,0.011719 0.023437,0.023437 0.035156,0.046875 -0.515625,0.035156 -0.6210937,0.4570312 -0.6210937,0.5859375 0,0.1757812 0.1289062,0.3867187 0.421875,0.3867187 0.28125,0 0.5976562,-0.2460937 0.5976562,-0.6679687 0,-0.328125 -0.2460937,-0.6914063 -0.7382812,-0.6914063 -0.3046875,0 -0.8085938,0.09375 -1.59375,0.9609375 -0.375,0.421875 -0.796875,0.8554688 -1.21875,1.0195313 z m 0,0"
         style="fill:#000000;fill-opacity:1;fill-rule:nonzero;stroke:none" />
      <path
         id="path15"
         d="m 8.2740547,-4.779 c 0.1289062,-0.1171875 0.4570312,-0.375 0.5859375,-0.4921875 0.4921875,-0.4570312 0.9609375,-0.890625 0.9609375,-1.6171875 0,-0.9492187 -0.796875,-1.5585938 -1.7929688,-1.5585938 -0.9492187,0 -1.5820312,0.7265626 -1.5820312,1.4296876 0,0.3984375 0.3164062,0.4453125 0.421875,0.4453125 0.1640625,0 0.4101562,-0.1171875 0.4101562,-0.421875 C 7.2779609,-7.404 6.8795234,-7.404 6.7857734,-7.404 c 0.234375,-0.5859375 0.7734375,-0.7851563 1.1601563,-0.7851563 0.7382812,0 1.125,0.6328126 1.125,1.3007813 0,0.8320313 -0.5859375,1.4296875 -1.5234375,2.4023438 l -1.0078125,1.0312499 c -0.09375,0.09375 -0.09375,0.1054688 -0.09375,0.3046875 H 9.5982734 L 9.8209297,-4.5797812 H 9.5748359 c -0.023437,0.1640625 -0.082031,0.5625 -0.1757812,0.7148437 -0.046875,0.058594 -0.65625,0.058594 -0.7851563,0.058594 H 7.1959297 Z m 0,0"
         style="fill:#000000;fill-opacity:1;fill-rule:nonzero;stroke:none" />
    </g>
  </g>
</svg>
