<?xml version="1.0" encoding="UTF-8" standalone="no"?>
<!DOCTYPE svg PUBLIC "-//W3C//DTD SVG 1.1//EN"
 "http://www.w3.org/Graphics/SVG/1.1/DTD/svg11.dtd">
<!-- Generated by graphviz version 9.0.0 (20230911.1827)
 -->
<!-- Pages: 1 -->
<svg width="774pt" height="249pt"
 viewBox="0.00 0.00 773.60 248.85" xmlns="http://www.w3.org/2000/svg" xmlns:xlink="http://www.w3.org/1999/xlink">
<g id="graph0" class="graph" transform="scale(1 1) rotate(0) translate(4 244.85)">
<polygon fill="white" stroke="none" points="-4,4 -4,-244.85 769.6,-244.85 769.6,4 -4,4"/>
<text text-anchor="middle" x="382.8" y="-7.95" font-family="Times,serif" font-size="14.00">(La)TeX distribution tools</text>
<!-- dottex -->
<g id="node1" class="node">
<title>dottex</title>
<defs>
<linearGradient id="node1_l_0" gradientUnits="userSpaceOnUse" x1="30.2" y1="-222.85" x2="145.4" y2="-222.85" >
<stop offset="0" style="stop-color:greenyellow;stop-opacity:1.;"/>
<stop offset="1" style="stop-color:lime;stop-opacity:1.;"/>
</linearGradient>
</defs>
<path fill="url(#node1_l_0)" stroke="seashell" d="M133.4,-240.85C133.4,-240.85 42.2,-240.85 42.2,-240.85 36.2,-240.85 30.2,-234.85 30.2,-228.85 30.2,-228.85 30.2,-216.85 30.2,-216.85 30.2,-210.85 36.2,-204.85 42.2,-204.85 42.2,-204.85 133.4,-204.85 133.4,-204.85 139.4,-204.85 145.4,-210.85 145.4,-216.85 145.4,-216.85 145.4,-228.85 145.4,-228.85 145.4,-234.85 139.4,-240.85 133.4,-240.85"/>
<text text-anchor="middle" x="87.8" y="-218.58" font-family="Times,serif" font-size="12.00">TeX source (.tex)</text>
</g>
<!-- tex -->
<g id="node6" class="node">
<title>tex</title>
<ellipse fill="gold" stroke="seashell" cx="46.8" cy="-72.05" rx="46.8" ry="46.8"/>
<text text-anchor="middle" x="46.8" y="-67.78" font-family="Times,serif" font-size="12.00">tex</text>
</g>
<!-- dottex&#45;&gt;tex -->
<g id="edge1" class="edge">
<title>dottex&#45;&gt;tex</title>
<path fill="none" stroke="purple" d="M83.02,-204.49C77.89,-185.89 69.49,-155.41 62.07,-128.48"/>
<polygon fill="purple" stroke="purple" points="65.51,-127.77 59.48,-119.06 58.76,-129.63 65.51,-127.77"/>
</g>
<!-- pdftex -->
<g id="node7" class="node">
<title>pdftex</title>
<ellipse fill="gold" stroke="seashell" cx="158.8" cy="-72.05" rx="46.8" ry="46.8"/>
<text text-anchor="middle" x="158.8" y="-67.78" font-family="Times,serif" font-size="12.00">pdftex</text>
</g>
<!-- dottex&#45;&gt;pdftex -->
<g id="edge2" class="edge">
<title>dottex&#45;&gt;pdftex</title>
<path fill="none" stroke="purple" d="M96.08,-204.49C105.33,-185.12 120.73,-152.84 133.95,-125.13"/>
<polygon fill="purple" stroke="purple" points="137.1,-126.66 138.24,-116.13 130.78,-123.65 137.1,-126.66"/>
</g>
<!-- dotlex -->
<g id="node2" class="node">
<title>dotlex</title>
<defs>
<linearGradient id="node2_l_1" gradientUnits="userSpaceOnUse" x1="203.2" y1="-222.85" x2="318.4" y2="-222.85" >
<stop offset="0" style="stop-color:greenyellow;stop-opacity:1.;"/>
<stop offset="1" style="stop-color:lime;stop-opacity:1.;"/>
</linearGradient>
</defs>
<path fill="url(#node2_l_1)" stroke="seashell" d="M306.4,-240.85C306.4,-240.85 215.2,-240.85 215.2,-240.85 209.2,-240.85 203.2,-234.85 203.2,-228.85 203.2,-228.85 203.2,-216.85 203.2,-216.85 203.2,-210.85 209.2,-204.85 215.2,-204.85 215.2,-204.85 306.4,-204.85 306.4,-204.85 312.4,-204.85 318.4,-210.85 318.4,-216.85 318.4,-216.85 318.4,-228.85 318.4,-228.85 318.4,-234.85 312.4,-240.85 306.4,-240.85"/>
<text text-anchor="middle" x="260.8" y="-218.58" font-family="Times,serif" font-size="12.00">LaTeX source (.tex)</text>
</g>
<!-- latex -->
<g id="node8" class="node">
<title>latex</title>
<ellipse fill="gold" stroke="seashell" cx="270.8" cy="-72.05" rx="46.8" ry="46.8"/>
<text text-anchor="middle" x="270.8" y="-67.78" font-family="Times,serif" font-size="12.00">latex</text>
</g>
<!-- dotlex&#45;&gt;latex -->
<g id="edge3" class="edge">
<title>dotlex&#45;&gt;latex</title>
<path fill="none" stroke="purple" d="M261.97,-204.49C263.18,-186.39 265.16,-157.04 266.93,-130.66"/>
<polygon fill="purple" stroke="purple" points="270.42,-130.91 267.6,-120.7 263.43,-130.44 270.42,-130.91"/>
</g>
<!-- pdflatex -->
<g id="node9" class="node">
<title>pdflatex</title>
<ellipse fill="gold" stroke="seashell" cx="382.8" cy="-72.05" rx="46.8" ry="46.8"/>
<text text-anchor="middle" x="382.8" y="-67.78" font-family="Times,serif" font-size="12.00">pdflatex</text>
</g>
<!-- dotlex&#45;&gt;pdflatex -->
<g id="edge4" class="edge">
<title>dotlex&#45;&gt;pdflatex</title>
<path fill="none" stroke="purple" d="M275.03,-204.49C292.35,-183.37 322.23,-146.92 346.15,-117.76"/>
<polygon fill="purple" stroke="purple" points="348.76,-120.09 352.4,-110.13 343.35,-115.65 348.76,-120.09"/>
</g>
<!-- DVI -->
<g id="node3" class="node">
<title>DVI</title>
<defs>
<linearGradient id="node3_l_2" gradientUnits="userSpaceOnUse" x1="336" y1="-222.85" x2="429.6" y2="-222.85" >
<stop offset="0" style="stop-color:greenyellow;stop-opacity:1.;"/>
<stop offset="1" style="stop-color:lime;stop-opacity:1.;"/>
</linearGradient>
</defs>
<path fill="url(#node3_l_2)" stroke="seashell" d="M417.6,-240.85C417.6,-240.85 348,-240.85 348,-240.85 342,-240.85 336,-234.85 336,-228.85 336,-228.85 336,-216.85 336,-216.85 336,-210.85 342,-204.85 348,-204.85 348,-204.85 417.6,-204.85 417.6,-204.85 423.6,-204.85 429.6,-210.85 429.6,-216.85 429.6,-216.85 429.6,-228.85 429.6,-228.85 429.6,-234.85 423.6,-240.85 417.6,-240.85"/>
<text text-anchor="middle" x="382.8" y="-218.58" font-family="Times,serif" font-size="12.00">DVI</text>
</g>
<!-- DVI&#45;&gt;tex -->
<g id="edge8" class="edge">
<title>DVI&#45;&gt;tex</title>
<path fill="none" stroke="purple" d="M324.69,-203.01C254.64,-179.87 141.49,-140.95 102.8,-118.85 95.49,-114.68 88.18,-109.55 81.35,-104.26"/>
<polygon fill="purple" stroke="purple" points="323.52,-206.31 334.11,-206.12 325.71,-199.66 323.52,-206.31"/>
</g>
<!-- DVI&#45;&gt;latex -->
<g id="edge9" class="edge">
<title>DVI&#45;&gt;latex</title>
<path fill="none" stroke="purple" d="M362.88,-195.39C345.04,-171.68 318.68,-136.67 298.74,-110.16"/>
<polygon fill="purple" stroke="purple" points="360.01,-197.4 368.82,-203.28 365.61,-193.19 360.01,-197.4"/>
</g>
<!-- dvi2ps -->
<g id="node10" class="node">
<title>dvi2ps</title>
<ellipse fill="gold" stroke="seashell" cx="606.8" cy="-72.05" rx="46.8" ry="46.8"/>
<text text-anchor="middle" x="606.8" y="-67.78" font-family="Times,serif" font-size="12.00">dvi2ps</text>
</g>
<!-- DVI&#45;&gt;dvi2ps -->
<g id="edge5" class="edge">
<title>DVI&#45;&gt;dvi2ps</title>
<path fill="none" stroke="purple" d="M413.95,-204.45C448.29,-184.88 504.78,-151.55 550.8,-118.85 554.66,-116.11 558.59,-113.18 562.5,-110.18"/>
<polygon fill="purple" stroke="purple" points="564.62,-112.97 570.33,-104.04 560.3,-107.46 564.62,-112.97"/>
</g>
<!-- dvipdf -->
<g id="node12" class="node">
<title>dvipdf</title>
<ellipse fill="gold" stroke="seashell" cx="494.8" cy="-72.05" rx="46.8" ry="46.8"/>
<text text-anchor="middle" x="494.8" y="-74.9" font-family="Times,serif" font-size="12.00">dvipdf </text>
<text text-anchor="middle" x="494.8" y="-60.65" font-family="Times,serif" font-size="12.00"> (dvipdfm)</text>
</g>
<!-- DVI&#45;&gt;dvipdf -->
<g id="edge6" class="edge">
<title>DVI&#45;&gt;dvipdf</title>
<path fill="none" stroke="purple" d="M395.87,-204.49C411.49,-183.74 438.25,-148.19 460,-119.29"/>
<polygon fill="purple" stroke="purple" points="462.74,-121.47 465.95,-111.37 457.14,-117.26 462.74,-121.47"/>
</g>
<!-- PDF -->
<g id="node4" class="node">
<title>PDF</title>
<defs>
<linearGradient id="node4_l_3" gradientUnits="userSpaceOnUse" x1="448" y1="-222.85" x2="541.6" y2="-222.85" >
<stop offset="0" style="stop-color:greenyellow;stop-opacity:1.;"/>
<stop offset="1" style="stop-color:lime;stop-opacity:1.;"/>
</linearGradient>
</defs>
<path fill="url(#node4_l_3)" stroke="seashell" d="M529.6,-240.85C529.6,-240.85 460,-240.85 460,-240.85 454,-240.85 448,-234.85 448,-228.85 448,-228.85 448,-216.85 448,-216.85 448,-210.85 454,-204.85 460,-204.85 460,-204.85 529.6,-204.85 529.6,-204.85 535.6,-204.85 541.6,-210.85 541.6,-216.85 541.6,-216.85 541.6,-228.85 541.6,-228.85 541.6,-234.85 535.6,-240.85 529.6,-240.85"/>
<text text-anchor="middle" x="494.8" y="-218.58" font-family="Times,serif" font-size="12.00">PDF</text>
</g>
<!-- PDF&#45;&gt;pdftex -->
<g id="edge10" class="edge">
<title>PDF&#45;&gt;pdftex</title>
<path fill="none" stroke="purple" d="M436.69,-203.01C366.64,-179.87 253.49,-140.95 214.8,-118.85 207.49,-114.68 200.18,-109.55 193.35,-104.26"/>
<polygon fill="purple" stroke="purple" points="435.52,-206.31 446.11,-206.12 437.71,-199.66 435.52,-206.31"/>
</g>
<!-- PDF&#45;&gt;pdflatex -->
<g id="edge11" class="edge">
<title>PDF&#45;&gt;pdflatex</title>
<path fill="none" stroke="purple" d="M474.88,-195.39C457.04,-171.68 430.68,-136.67 410.74,-110.16"/>
<polygon fill="purple" stroke="purple" points="472.01,-197.4 480.82,-203.28 477.61,-193.19 472.01,-197.4"/>
</g>
<!-- pdf2ps -->
<g id="node11" class="node">
<title>pdf2ps</title>
<ellipse fill="gold" stroke="seashell" cx="718.8" cy="-72.05" rx="46.8" ry="46.8"/>
<text text-anchor="middle" x="718.8" y="-67.78" font-family="Times,serif" font-size="12.00">pdf2ps</text>
</g>
<!-- PDF&#45;&gt;pdf2ps -->
<g id="edge7" class="edge">
<title>PDF&#45;&gt;pdf2ps</title>
<path fill="none" stroke="purple" d="M525.95,-204.45C560.29,-184.88 616.78,-151.55 662.8,-118.85 666.66,-116.11 670.59,-113.18 674.5,-110.18"/>
<polygon fill="purple" stroke="purple" points="676.62,-112.97 682.33,-104.04 672.3,-107.46 676.62,-112.97"/>
</g>
<!-- PDF&#45;&gt;dvipdf -->
<g id="edge12" class="edge">
<title>PDF&#45;&gt;dvipdf</title>
<path fill="none" stroke="purple" d="M494.8,-193.16C494.8,-172.21 494.8,-143.36 494.8,-119.19"/>
<polygon fill="purple" stroke="purple" points="491.3,-192.98 494.8,-202.98 498.3,-192.98 491.3,-192.98"/>
</g>
<!-- PostScript -->
<g id="node5" class="node">
<title>PostScript</title>
<defs>
<linearGradient id="node5_l_4" gradientUnits="userSpaceOnUse" x1="616" y1="-222.85" x2="709.6" y2="-222.85" >
<stop offset="0" style="stop-color:greenyellow;stop-opacity:1.;"/>
<stop offset="1" style="stop-color:lime;stop-opacity:1.;"/>
</linearGradient>
</defs>
<path fill="url(#node5_l_4)" stroke="seashell" d="M697.6,-240.85C697.6,-240.85 628,-240.85 628,-240.85 622,-240.85 616,-234.85 616,-228.85 616,-228.85 616,-216.85 616,-216.85 616,-210.85 622,-204.85 628,-204.85 628,-204.85 697.6,-204.85 697.6,-204.85 703.6,-204.85 709.6,-210.85 709.6,-216.85 709.6,-216.85 709.6,-228.85 709.6,-228.85 709.6,-234.85 703.6,-240.85 697.6,-240.85"/>
<text text-anchor="middle" x="662.8" y="-218.58" font-family="Times,serif" font-size="12.00">PostScript</text>
</g>
<!-- PostScript&#45;&gt;dvi2ps -->
<g id="edge13" class="edge">
<title>PostScript&#45;&gt;dvi2ps</title>
<path fill="none" stroke="purple" d="M652.3,-193.96C644.09,-172.13 632.51,-141.36 623.09,-116.33"/>
<polygon fill="purple" stroke="purple" points="648.94,-194.95 655.73,-203.07 655.49,-192.48 648.94,-194.95"/>
</g>
<!-- PostScript&#45;&gt;pdf2ps -->
<g id="edge14" class="edge">
<title>PostScript&#45;&gt;pdf2ps</title>
<path fill="none" stroke="purple" d="M673.3,-193.96C681.51,-172.13 693.09,-141.36 702.51,-116.33"/>
<polygon fill="purple" stroke="purple" points="670.11,-192.48 669.87,-203.07 676.66,-194.95 670.11,-192.48"/>
</g>
</g>
</svg>
