<svg xmlns="http://www.w3.org/2000/svg" xmlns:xlink="http://www.w3.org/1999/xlink" version="1.1" width="532.80007" height="664.92" viewBox="0 0 532.80007 664.92">
<defs>
<clipPath id="clip_3266">
<path transform="matrix(1,0,0,-1,-35.28,726.12)" d="M35.28 61.2H568.08V726.12H35.28Z" fill-rule="evenodd"/>
</clipPath>
</defs>
<g clip-path="url(#clip_3266)">
<text xml:space="preserve" transform="matrix(1 0 -0 1 -35.28 726.12)" font-size="9.4645" font-family="StoneSans" font-weight="bold"><tspan y="-681.875" x="87.1139 92.546527 97.97915">426</tspan></text>
<text xml:space="preserve" transform="matrix(1 0 -0 1 -35.28 726.12)" font-size="8.4682" font-family="StoneSans"><tspan y="-681.875" x="116.115 121.90725 126.861148 131.09525 136.15076 139.07228 143.36566 148.74297 162.07192 166.61934 169.56627 174.41855 178.49176 182.78514 186.07927 189.3734 194.22568 199.60298 204.78553 207.58003 211.65325 216.60715 218.62258 221.5441 225.83748 229.91069 232.83222 237.66756 240.61449">Chapter4ProcessorArchitecture</tspan></text>
<path transform="matrix(1,0,0,-1,-35.28,726.12)" d="M326.728 424.822H253.305V475.024H326.728ZM253.305 424.822" fill="#231f20"/>
<path transform="matrix(1,0,0,-1,-35.28,726.12)" d="M325.201 426.352H251.77698V476.554H325.201ZM251.777 426.352" fill="#d4effc"/>
<path transform="matrix(1,0,0,-1,-35.28,726.12)" stroke-width=".49" stroke-linecap="butt" stroke-miterlimit="4" stroke-linejoin="miter" fill="none" stroke="#00adef" d="M325.201 426.352H251.77698V476.554H325.201Z"/>
<path transform="matrix(1,0,0,-1,-35.28,726.12)" d="M326.728 424.822H253.305V475.024H326.728ZM253.305 424.822" fill="#231f20"/>
<path transform="matrix(1,0,0,-1,-35.28,726.12)" d="M325.201 426.352H251.77698V476.554H325.201ZM251.777 426.352" fill="#d4effc"/>
<path transform="matrix(1,0,0,-1,-35.28,726.12)" stroke-width=".49" stroke-linecap="butt" stroke-miterlimit="4" stroke-linejoin="miter" fill="none" stroke="#00adef" d="M325.201 426.352H251.77698V476.554H325.201Z"/>
<path transform="matrix(1,0,0,-1,-35.28,726.12)" d="M171.088 593.571H150.048V607.927H171.088ZM150.048 593.571" fill="#ffffff"/>
<path transform="matrix(1,0,0,-1,-35.28,726.12)" stroke-width=".98" stroke-linecap="butt" stroke-miterlimit="4" stroke-linejoin="miter" fill="none" stroke="#231f20" d="M171.089 593.571H150.04901V607.927H171.089Z"/>
<path transform="matrix(1,0,0,-1,-35.28,726.12)" d="M108.522 593.571H87.604007V607.927H108.522ZM87.604 593.571" fill="#8ed8f8"/>
<path transform="matrix(1,0,0,-1,-35.28,726.12)" stroke-width=".98" stroke-linecap="butt" stroke-miterlimit="4" stroke-linejoin="miter" fill="none" stroke="#231f20" d="M108.522 593.571H87.604007V607.927H108.522Z"/>
<path transform="matrix(1,0,0,-1,-35.28,726.12)" d="M150.049 593.571H129.009V607.927H150.049ZM129.009 593.571" fill="#ffffff"/>
<path transform="matrix(1,0,0,-1,-35.28,726.12)" stroke-width=".98" stroke-linecap="butt" stroke-miterlimit="4" stroke-linejoin="miter" fill="none" stroke="#231f20" d="M150.049 593.571H129.009V607.927H150.049Z"/>
<path transform="matrix(1,0,0,-1,-35.28,726.12)" d="M129.469 593.571H108.88899V607.927H129.469ZM108.889 593.571" fill="#ffffff"/>
<path transform="matrix(1,0,0,-1,-35.28,726.12)" stroke-width=".98" stroke-linecap="butt" stroke-miterlimit="4" stroke-linejoin="miter" fill="none" stroke="#231f20" d="M129.469 593.571H108.88899V607.927H129.469Z"/>
<path transform="matrix(1,0,0,-1,-35.28,726.12)" d="M129.184 336.036H108.604007V350.392H129.184ZM108.604 336.036" fill="#ffffff"/>
<path transform="matrix(1,0,0,-1,-35.28,726.12)" stroke-width=".98" stroke-linecap="butt" stroke-miterlimit="4" stroke-linejoin="miter" fill="none" stroke="#231f20" d="M129.184 336.036H108.604007V350.392H129.184Z"/>
<path transform="matrix(1,0,0,-1,-35.28,726.12)" d="M192.115 593.571H171.074V607.927H192.115ZM171.074 593.571" fill="#8ed8f8"/>
<path transform="matrix(1,0,0,-1,-35.28,726.12)" stroke-width=".98" stroke-linecap="butt" stroke-miterlimit="4" stroke-linejoin="miter" fill="none" stroke="#231f20" d="M192.115 593.571H171.074V607.927H192.115Z"/>
<path transform="matrix(1,0,0,-1,-35.28,726.12)" d="M286.372 593.571H275.907V607.927H286.372ZM275.907 593.571" fill="#8ed8f8"/>
<path transform="matrix(1,0,0,-1,-35.28,726.12)" stroke-width=".98" stroke-linecap="butt" stroke-miterlimit="4" stroke-linejoin="miter" fill="none" stroke="#231f20" d="M286.372 593.571H275.907V607.927H286.372Z"/>
<path transform="matrix(1,0,0,-1,-35.28,726.12)" d="M423.082 593.571H412.617V607.927H423.082ZM412.617 593.571" fill="#8ed8f8"/>
<path transform="matrix(1,0,0,-1,-35.28,726.12)" stroke-width=".98" stroke-linecap="butt" stroke-miterlimit="4" stroke-linejoin="miter" fill="none" stroke="#231f20" d="M423.082 593.571H412.617V607.927H423.082Z"/>
<path transform="matrix(1,0,0,-1,-35.28,726.12)" d="M349.46 593.571H328.418V607.927H349.46ZM328.418 593.571" fill="#ffffff"/>
<path transform="matrix(1,0,0,-1,-35.28,726.12)" stroke-width=".98" stroke-linecap="butt" stroke-miterlimit="4" stroke-linejoin="miter" fill="none" stroke="#231f20" d="M349.46 593.571H328.418V607.927H349.46Z"/>
<path transform="matrix(1,0,0,-1,-35.28,726.12)" d="M370.371 593.571H349.329V607.927H370.371ZM349.329 593.571" fill="#ffffff"/>
<path transform="matrix(1,0,0,-1,-35.28,726.12)" stroke-width=".98" stroke-linecap="butt" stroke-miterlimit="4" stroke-linejoin="miter" fill="none" stroke="#231f20" d="M370.37 593.571H349.328V607.927H370.37Z"/>
<path transform="matrix(1,0,0,-1,-35.28,726.12)" d="M391.441 593.571H370.39903V607.927H391.441ZM370.399 593.571" fill="#ffffff"/>
<path transform="matrix(1,0,0,-1,-35.28,726.12)" stroke-width=".98" stroke-linecap="butt" stroke-miterlimit="4" stroke-linejoin="miter" fill="none" stroke="#231f20" d="M391.44 593.571H370.398V607.927H391.44Z"/>
<path transform="matrix(1,0,0,-1,-35.28,726.12)" d="M412.511 593.571H391.469V607.927H412.511ZM391.469 593.571" fill="#ffffff"/>
<path transform="matrix(1,0,0,-1,-35.28,726.12)" stroke-width=".98" stroke-linecap="butt" stroke-miterlimit="4" stroke-linejoin="miter" fill="none" stroke="#231f20" d="M412.51 593.571H391.46803V607.927H412.51Z"/>
<path transform="matrix(1,0,0,-1,-35.28,726.12)" d="M213.19 593.571H192.149V607.926H213.19 213.06 234.1V593.571H213.06 213.19" fill="#ffffff"/>
<path transform="matrix(1,0,0,-1,-35.28,726.12)" stroke-width=".98" stroke-linecap="butt" stroke-miterlimit="4" stroke-linejoin="miter" fill="none" stroke="#231f20" d="M213.19 593.571H192.149V607.926H213.19 213.06 234.1V593.571H213.06 213.19Z"/>
<path transform="matrix(1,0,0,-1,-35.28,726.12)" d="M254.962 593.571H233.921V607.926H254.962 254.832 275.872V593.571H254.832 254.962" fill="#ffffff"/>
<path transform="matrix(1,0,0,-1,-35.28,726.12)" stroke-width=".98" stroke-linecap="butt" stroke-miterlimit="4" stroke-linejoin="miter" fill="none" stroke="#231f20" d="M254.962 593.571H233.921V607.926H254.962 254.832 275.872V593.571H254.832 254.962Z"/>
<path transform="matrix(1,0,0,-1,-35.28,726.12)" d="M307.392 593.571H286.351V607.926H307.392 307.262 328.302V593.571H307.262 307.392" fill="#ffffff"/>
<path transform="matrix(1,0,0,-1,-35.28,726.12)" stroke-width=".98" stroke-linecap="butt" stroke-miterlimit="4" stroke-linejoin="miter" fill="none" stroke="#231f20" d="M307.392 593.571H286.351V607.926H307.392 307.262 328.302V593.571H307.262 307.392Z"/>
<path transform="matrix(1,0,0,-1,-35.28,726.12)" d="M108.697 336.036H87.779V350.392H108.697ZM87.779 336.036" fill="#8ed8f8"/>
<path transform="matrix(1,0,0,-1,-35.28,726.12)" stroke-width=".98" stroke-linecap="butt" stroke-miterlimit="4" stroke-linejoin="miter" fill="none" stroke="#231f20" d="M108.697 336.036H87.779V350.392H108.697Z"/>
<path transform="matrix(1,0,0,-1,-35.28,726.12)" d="M150.224 336.036H129.18399V350.392H150.224ZM129.184 336.036" fill="#ffffff"/>
<path transform="matrix(1,0,0,-1,-35.28,726.12)" stroke-width=".98" stroke-linecap="butt" stroke-miterlimit="4" stroke-linejoin="miter" fill="none" stroke="#231f20" d="M150.224 336.036H129.18399V350.392H150.224Z"/>
<path transform="matrix(1,0,0,-1,-35.28,726.12)" d="M171.134 336.036H150.094V350.392H171.134ZM150.094 336.036" fill="#ffffff"/>
<path transform="matrix(1,0,0,-1,-35.28,726.12)" stroke-width=".98" stroke-linecap="butt" stroke-miterlimit="4" stroke-linejoin="miter" fill="none" stroke="#231f20" d="M171.135 336.036H150.095V350.392H171.135Z"/>
<path transform="matrix(1,0,0,-1,-35.28,726.12)" d="M192.044 336.036H171.004V350.392H192.044ZM171.004 336.036" fill="#ffffff"/>
<path transform="matrix(1,0,0,-1,-35.28,726.12)" stroke-width=".98" stroke-linecap="butt" stroke-miterlimit="4" stroke-linejoin="miter" fill="none" stroke="#231f20" d="M192.044 336.036H171.004V350.392H192.044Z"/>
<path transform="matrix(1,0,0,-1,-35.28,726.12)" d="M423.158 336.036H296.53599V350.392H423.158ZM296.536 336.036" fill="#8ed8f8"/>
<path transform="matrix(1,0,0,-1,-35.28,726.12)" stroke-width=".98" stroke-linecap="butt" stroke-miterlimit="4" stroke-linejoin="miter" fill="none" stroke="#231f20" d="M423.158 336.036H296.53599V350.392H423.158Z"/>
<path transform="matrix(1,0,0,-1,-35.28,726.12)" d="M212.82 336.036H191.901V350.392H212.82ZM191.901 336.036" fill="#ffffff"/>
<path transform="matrix(1,0,0,-1,-35.28,726.12)" stroke-width=".98" stroke-linecap="butt" stroke-miterlimit="4" stroke-linejoin="miter" fill="none" stroke="#231f20" d="M212.821 336.036H191.902V350.392H212.821Z"/>
<path transform="matrix(1,0,0,-1,-35.28,726.12)" d="M233.736 336.036H212.695V350.391H233.736 233.606 254.646V336.036H233.606 233.736" fill="#ffffff"/>
<path transform="matrix(1,0,0,-1,-35.28,726.12)" stroke-width=".98" stroke-linecap="butt" stroke-miterlimit="4" stroke-linejoin="miter" fill="none" stroke="#231f20" d="M233.736 336.036H212.695V350.391H233.736 233.606 254.646V336.036H233.606 233.736Z"/>
<path transform="matrix(1,0,0,-1,-35.28,726.12)" d="M275.72 336.036H254.679V350.391H275.72 275.59 296.63V336.036H275.59 275.72" fill="#ffffff"/>
<path transform="matrix(1,0,0,-1,-35.28,726.12)" stroke-width=".98" stroke-linecap="butt" stroke-miterlimit="4" stroke-linejoin="miter" fill="none" stroke="#231f20" d="M275.72 336.036H254.679V350.391H275.72 275.59 296.63V336.036H275.59 275.72Z"/>
<text fill="#ffffff" xml:space="preserve" transform="matrix(1 0 -0 1 -35.28 726.12)" font-size="7.84" font-family="Helvetica"><tspan y="-340.138" x="91.9223">D</tspan></text>
<text fill="#231f20" xml:space="preserve" transform="matrix(.9746794 0 -0 1.0259783 -35.28 726.12)" font-size="7.641487" font-family="Helvetica"><tspan y="-331.52555" x="134.02458 135.721 139.54175 143.7904 148.03907">icode</tspan></text>
<text fill="#231f20" xml:space="preserve" transform="matrix(1 0 -0 1 -35.28 726.12)" font-size="7.84" font-family="Helvetica"><tspan y="-340.138" x="155.151 156.89148 159.071 163.43004 226.4848 230.4048 234.76384 236.50432 268.75495 272.67497 277.034 278.77449 198.45917 201.06989 178.44992 181.06064">ifunvalCvalPrBrA</tspan></text>
<path transform="matrix(1,0,0,-1,-35.28,726.12)" d="M280.349 563.817C280.349 562.518 279.296 561.465 277.997 561.465H233.572C232.274 561.465 231.221 562.518 231.221 563.817V582.055C231.221 583.354 232.274 584.407 233.572 584.407H277.997C279.296 584.407 280.349 583.354 280.349 582.055V563.817" fill="#b1b4b6"/>
<path transform="matrix(1,0,0,-1,-35.28,726.12)" d="M278.586 564.914C278.586 563.615 277.531 562.563 276.234 562.563H231.809C230.509 562.563 229.457 563.615 229.457 564.914V583.153C229.457 584.453 230.509 585.505 231.809 585.505H276.234C277.531 585.505 278.586 584.453 278.586 583.153V564.914" fill="#c6c8ca"/>
<path transform="matrix(1,0,0,-1,-35.28,726.12)" stroke-width=".735" stroke-linecap="butt" stroke-miterlimit="4" stroke-linejoin="miter" fill="none" stroke="#231f20" d="M278.586 564.914C278.586 563.615 277.531 562.563 276.234 562.563H231.809C230.509 562.563 229.457 563.615 229.457 564.914V583.153C229.457 584.453 230.509 585.505 231.809 585.505H276.234C277.531 585.505 278.586 584.453 278.586 583.153V564.914Z"/>
<path transform="matrix(1,0,0,-1,-35.28,726.12)" d="M350.687 380.495C350.687 379.324 349.74 378.377 348.57 378.377H331.331C330.162 378.377 329.215 379.324 329.215 380.495V387.733C329.215 388.902 330.162 389.849 331.331 389.849H348.57C349.74 389.849 350.687 388.902 350.687 387.733V380.495" fill="#b1b4b6"/>
<path transform="matrix(1,0,0,-1,-35.28,726.12)" d="M349.1 381.479C349.1 380.311 348.153 379.364 346.983 379.364H329.744C328.576 379.364 327.628 380.311 327.628 381.479V388.718C327.628 389.888 328.576 390.835 329.744 390.835H346.983C348.153 390.835 349.1 389.888 349.1 388.718V381.479" fill="#c6c8ca"/>
<path transform="matrix(1,0,0,-1,-35.28,726.12)" stroke-width=".735" stroke-linecap="butt" stroke-miterlimit="4" stroke-linejoin="miter" fill="none" stroke="#231f20" d="M349.1 381.479C349.1 380.311 348.153 379.364 346.983 379.364H329.744C328.576 379.364 327.628 380.311 327.628 381.479V388.718C327.628 389.888 328.576 390.835 329.744 390.835H346.983C348.153 390.835 349.1 389.888 349.1 388.718V381.479Z"/>
<path transform="matrix(1,0,0,-1,-35.28,726.12)" d="M372.494 380.495C372.494 379.324 371.547 378.377 370.377 378.377H352.802C351.633 378.377 350.686 379.324 350.686 380.495V387.733C350.686 388.902 351.633 389.849 352.802 389.849H370.377C371.547 389.849 372.494 388.902 372.494 387.733V380.495" fill="#b1b4b6"/>
<path transform="matrix(1,0,0,-1,-35.28,726.12)" d="M370.906 381.479C370.906 380.311 369.96 379.364 368.79 379.364H351.215C350.047 379.364 349.1 380.311 349.1 381.479V388.718C349.1 389.888 350.047 390.835 351.215 390.835H368.79C369.96 390.835 370.906 389.888 370.906 388.718V381.479" fill="#c6c8ca"/>
<path transform="matrix(1,0,0,-1,-35.28,726.12)" stroke-width=".735" stroke-linecap="butt" stroke-miterlimit="4" stroke-linejoin="miter" fill="none" stroke="#231f20" d="M370.906 381.479C370.906 380.311 369.96 379.364 368.79 379.364H351.215C350.047 379.364 349.1 380.311 349.1 381.479V388.718C349.1 389.888 350.047 390.835 351.215 390.835H368.79C369.96 390.835 370.906 389.888 370.906 388.718V381.479Z"/>
<path transform="matrix(1,0,0,-1,-35.28,726.12)" d="M394.301 380.495C394.301 379.324 393.354 378.377 392.184 378.377H374.609C373.44 378.377 372.493 379.324 372.493 380.495V387.733C372.493 388.902 373.44 389.849 374.609 389.849H392.184C393.354 389.849 394.301 388.902 394.301 387.733V380.495" fill="#b1b4b6"/>
<path transform="matrix(1,0,0,-1,-35.28,726.12)" d="M392.713 381.479C392.713 380.311 391.767 379.364 390.597 379.364H373.022C371.854 379.364 370.906 380.311 370.906 381.479V388.718C370.906 389.888 371.854 390.835 373.022 390.835H390.597C391.767 390.835 392.713 389.888 392.713 388.718V381.479" fill="#c6c8ca"/>
<path transform="matrix(1,0,0,-1,-35.28,726.12)" stroke-width=".735" stroke-linecap="butt" stroke-miterlimit="4" stroke-linejoin="miter" fill="none" stroke="#231f20" d="M392.713 381.479C392.713 380.311 391.767 379.364 390.597 379.364H373.022C371.854 379.364 370.906 380.311 370.906 381.479V388.718C370.906 389.888 371.854 390.835 373.022 390.835H390.597C391.767 390.835 392.713 389.888 392.713 388.718V381.479Z"/>
<path transform="matrix(1,0,0,-1,-35.28,726.12)" d="M416.108 380.495C416.108 379.324 415.161 378.377 413.991 378.377H396.416C395.247 378.377 394.3 379.324 394.3 380.495V387.733C394.3 388.902 395.247 389.849 396.416 389.849H413.991C415.161 389.849 416.108 388.902 416.108 387.733V380.495" fill="#b1b4b6"/>
<path transform="matrix(1,0,0,-1,-35.28,726.12)" d="M414.52 381.479C414.52 380.311 413.574 379.364 412.404 379.364H394.829C393.661 379.364 392.713 380.311 392.713 381.479V388.718C392.713 389.888 393.661 390.835 394.829 390.835H412.404C413.574 390.835 414.52 389.888 414.52 388.718V381.479" fill="#c6c8ca"/>
<path transform="matrix(1,0,0,-1,-35.28,726.12)" stroke-width=".735" stroke-linecap="butt" stroke-miterlimit="4" stroke-linejoin="miter" fill="none" stroke="#231f20" d="M414.52 381.479C414.52 380.311 413.574 379.364 412.404 379.364H394.829C393.661 379.364 392.713 380.311 392.713 381.479V388.718C392.713 389.888 393.661 390.835 394.829 390.835H412.404C413.574 390.835 414.52 389.888 414.52 388.718V381.479Z"/>
<path transform="matrix(1,0,0,-1,-35.28,726.12)" stroke-width=".49" stroke-linecap="butt" stroke-miterlimit="4" stroke-linejoin="miter" fill="none" stroke="#231f20" d="M139.573 350.343V590.263"/>
<path transform="matrix(1,0,0,-1,-35.28,726.12)" d="M139.573 593.031 141.166 589.131 139.573 590.057 137.98 589.131 139.573 593.031" fill="#231f20"/>
<path transform="matrix(1,0,0,-1,-35.28,726.12)" stroke-width=".49" stroke-linecap="butt" stroke-miterlimit="4" stroke-linejoin="miter" fill="none" stroke="#231f20" d="M118.993 350.343V590.263"/>
<path transform="matrix(1,0,0,-1,-35.28,726.12)" d="M118.993 593.031 120.586 589.131 118.993 590.057 117.4 589.131 118.993 593.031" fill="#231f20"/>
<path transform="matrix(1,0,0,-1,-35.28,726.12)" stroke-width=".49" stroke-linecap="butt" stroke-miterlimit="4" stroke-linejoin="miter" fill="none" stroke="#231f20" d="M139.573 574.186H226.21"/>
<path transform="matrix(1,0,0,-1,-35.28,726.12)" d="M228.978 574.186 225.079 572.593 226.004 574.186 225.079 575.779 228.978 574.186" fill="#231f20"/>
<path transform="matrix(1,0,0,-1,-35.28,726.12)" stroke-width=".49" stroke-linecap="butt" stroke-miterlimit="4" stroke-linejoin="miter" fill="none" stroke="#231f20" d="M273.833 421.703V398.276H381.143"/>
<path transform="matrix(1,0,0,-1,-35.28,726.12)" d="M273.833 424.471 275.427 420.571 273.833 421.497 272.24 420.571 273.833 424.471" fill="#231f20"/>
<path transform="matrix(1,0,0,-1,-35.28,726.12)" stroke-width=".49" stroke-linecap="butt" stroke-miterlimit="4" stroke-linejoin="miter" fill="none" stroke="#231f20" d="M332.633 376.52V369.531"/>
<path transform="matrix(1,0,0,-1,-35.28,726.12)" d="M332.633 379.287 334.227 375.388 332.633 376.313 331.04 375.388 332.633 379.287" fill="#231f20"/>
<path transform="matrix(1,0,0,-1,-35.28,726.12)" stroke-width=".49" stroke-linecap="butt" stroke-miterlimit="4" stroke-linejoin="miter" fill="none" stroke="#231f20" d="M301.763 421.703V409.056H402.213"/>
<path transform="matrix(1,0,0,-1,-35.28,726.12)" d="M301.763 424.471 303.356 420.571 301.763 421.497 300.17 420.571 301.763 424.471" fill="#231f20"/>
<path transform="matrix(1,0,0,-1,-35.28,726.12)" stroke-width=".49" stroke-linecap="butt" stroke-miterlimit="4" stroke-linejoin="miter" fill="none" stroke="#231f20" d="M160.619 351.236V590.263"/>
<path transform="matrix(1,0,0,-1,-35.28,726.12)" d="M160.619 593.031 162.212 589.131 160.619 590.057 159.026 589.131 160.619 593.031" fill="#231f20"/>
<path transform="matrix(1,0,0,-1,-35.28,726.12)" stroke-width=".49" stroke-linecap="butt" stroke-miterlimit="4" stroke-linejoin="miter" fill="none" stroke="#231f20" d="M339.052 391.118V590.263"/>
<path transform="matrix(1,0,0,-1,-35.28,726.12)" d="M339.052 593.031 340.645 589.131 339.052 590.057 337.459 589.131 339.052 593.031" fill="#231f20"/>
<path transform="matrix(1,0,0,-1,-35.28,726.12)" stroke-width=".49" stroke-linecap="butt" stroke-miterlimit="4" stroke-linejoin="miter" fill="none" stroke="#231f20" d="M359.879 391.118V590.263"/>
<path transform="matrix(1,0,0,-1,-35.28,726.12)" d="M359.879 593.031 361.473 589.131 359.879 590.057 358.286 589.131 359.879 593.031" fill="#231f20"/>
<path transform="matrix(1,0,0,-1,-35.28,726.12)" stroke-width=".49" stroke-linecap="butt" stroke-miterlimit="4" stroke-linejoin="miter" fill="none" stroke="#231f20" d="M381.549 391.118V590.263"/>
<path transform="matrix(1,0,0,-1,-35.28,726.12)" d="M381.549 593.031 383.143 589.131 381.549 590.057 379.955 589.131 381.549 593.031" fill="#231f20"/>
<path transform="matrix(1,0,0,-1,-35.28,726.12)" stroke-width=".49" stroke-linecap="butt" stroke-miterlimit="4" stroke-linejoin="miter" fill="none" stroke="#231f20" d="M402.376 391.118V590.367"/>
<path transform="matrix(1,0,0,-1,-35.28,726.12)" d="M402.376 593.134 403.969 589.234 402.376 590.16 400.783 589.234 402.376 593.134" fill="#231f20"/>
<path transform="matrix(1,0,0,-1,-35.28,726.12)" stroke-width="1.47" stroke-linecap="butt" stroke-miterlimit="4" stroke-linejoin="miter" fill="none" stroke="#231f20" d="M232.088 559.589V386.506H275.458V350.64"/>
<path transform="matrix(1,0,0,-1,-35.28,726.12)" d="M232.088 562.356 234.478 556.505 232.088 557.894 229.698 556.505 232.088 562.356" fill="#231f20"/>
<path transform="matrix(1,0,0,-1,-35.28,726.12)" stroke-width="1.47" stroke-linecap="butt" stroke-miterlimit="4" stroke-linejoin="miter" fill="none" stroke="#231f20" d="M237.401 559.589V481.689H263.665V476.535"/>
<path transform="matrix(1,0,0,-1,-35.28,726.12)" d="M237.401 562.356 239.791 556.505 237.401 557.894 235.012 556.505 237.401 562.356" fill="#231f20"/>
<path transform="matrix(1,0,0,-1,-35.28,726.12)" stroke-width=".49" stroke-linecap="butt" stroke-miterlimit="4" stroke-linejoin="miter" fill="none" stroke="#231f20" d="M240.999 559.589V490.53H381.633"/>
<path transform="matrix(1,0,0,-1,-35.28,726.12)" d="M240.999 562.356 242.592 558.456 240.999 559.382 239.406 558.456 240.999 562.356" fill="#231f20"/>
<path transform="matrix(1,0,0,-1,-35.28,726.12)" stroke-width="1.47" stroke-linecap="butt" stroke-miterlimit="4" stroke-linejoin="miter" fill="none" stroke="#231f20" d="M244.597 559.589V502.238H484.533"/>
<path transform="matrix(1,0,0,-1,-35.28,726.12)" d="M244.597 562.356 246.987 556.505 244.597 557.894 242.207 556.505 244.597 562.356" fill="#231f20"/>
<path transform="matrix(1,0,0,-1,-35.28,726.12)" stroke-width=".49" stroke-linecap="butt" stroke-miterlimit="4" stroke-linejoin="miter" fill="none" stroke="#231f20" d="M248.196 559.589V507.912H478.327"/>
<path transform="matrix(1,0,0,-1,-35.28,726.12)" d="M248.196 562.356 249.789 558.456 248.196 559.382 246.603 558.456 248.196 562.356" fill="#231f20"/>
<path transform="matrix(1,0,0,-1,-35.28,726.12)" stroke-width="1.47" stroke-linecap="butt" stroke-miterlimit="4" stroke-linejoin="miter" fill="none" stroke="#231f20" d="M251.793 559.589V513.758H472.773"/>
<path transform="matrix(1,0,0,-1,-35.28,726.12)" d="M251.793 562.356 254.183 556.505 251.793 557.894 249.403 556.505 251.793 562.356" fill="#231f20"/>
<path transform="matrix(1,0,0,-1,-35.28,726.12)" stroke-width=".49" stroke-linecap="butt" stroke-miterlimit="4" stroke-linejoin="miter" fill="none" stroke="#231f20" d="M255.391 559.589V519.605H466.894"/>
<path transform="matrix(1,0,0,-1,-35.28,726.12)" d="M255.391 562.356 256.985 558.456 255.391 559.382 253.798 558.456 255.391 562.356" fill="#231f20"/>
<path transform="matrix(1,0,0,-1,-35.28,726.12)" stroke-width="1.47" stroke-linecap="butt" stroke-miterlimit="4" stroke-linejoin="miter" fill="none" stroke="#231f20" d="M258.989 559.589V525.452H461.512V606.853"/>
<path transform="matrix(1,0,0,-1,-35.28,726.12)" d="M258.989 562.356 261.381 556.505 258.989 557.894 256.598 556.505 258.989 562.356" fill="#231f20"/>
<path transform="matrix(1,0,0,-1,-35.28,726.12)" stroke-width=".49" stroke-linecap="butt" stroke-miterlimit="4" stroke-linejoin="miter" fill="none" stroke="#231f20" d="M262.588 559.589V531.226H455.543V614.611"/>
<path transform="matrix(1,0,0,-1,-35.28,726.12)" d="M262.588 562.356 264.182 558.456 262.588 559.382 260.994 558.456 262.588 562.356" fill="#231f20"/>
<path transform="matrix(1,0,0,-1,-35.28,726.12)" stroke-width="1.47" stroke-linecap="butt" stroke-miterlimit="4" stroke-linejoin="miter" fill="none" stroke="#231f20" d="M266.186 559.589V537.183H449.666V625.146"/>
<path transform="matrix(1,0,0,-1,-35.28,726.12)" d="M266.186 562.356 268.577 556.505 266.186 557.894 263.795 556.505 266.186 562.356" fill="#231f20"/>
<path transform="matrix(1,0,0,-1,-35.28,726.12)" stroke-width=".49" stroke-linecap="butt" stroke-miterlimit="4" stroke-linejoin="miter" fill="none" stroke="#231f20" d="M269.785 559.589V542.897H444.024V633.966"/>
<path transform="matrix(1,0,0,-1,-35.28,726.12)" d="M269.785 562.356 271.379 558.456 269.785 559.382 268.191 558.456 269.785 562.356" fill="#231f20"/>
<path transform="matrix(1,0,0,-1,-35.28,726.12)" stroke-width="1.47" stroke-linecap="butt" stroke-miterlimit="4" stroke-linejoin="miter" fill="none" stroke="#231f20" d="M273.384 559.589V548.783H438.147V643.6"/>
<path transform="matrix(1,0,0,-1,-35.28,726.12)" d="M273.384 562.356 275.775 556.505 273.384 557.894 270.992 556.505 273.384 562.356" fill="#231f20"/>
<path transform="matrix(1,0,0,-1,-35.28,726.12)" stroke-width=".49" stroke-linecap="butt" stroke-miterlimit="4" stroke-linejoin="miter" fill="none" stroke="#231f20" d="M276.982 559.589V554.762H432.593V654.22"/>
<path transform="matrix(1,0,0,-1,-35.28,726.12)" d="M276.982 562.356 278.576 558.456 276.982 559.382 275.388 558.456 276.982 562.356" fill="#231f20"/>
<path transform="matrix(1,0,0,-1,-35.28,726.12)" d="M331.636 563.817C331.636 562.518 330.583 561.465 329.284 561.465H287.799C286.501 561.465 285.448 562.518 285.448 563.817V582.055C285.448 583.354 286.501 584.407 287.799 584.407H329.284C330.583 584.407 331.636 583.354 331.636 582.055V563.817" fill="#b1b4b6"/>
<path transform="matrix(1,0,0,-1,-35.28,726.12)" d="M329.873 564.914C329.873 563.615 328.819 562.563 327.521 562.563H286.036C284.736 562.563 283.684 563.615 283.684 564.914V583.153C283.684 584.453 284.736 585.505 286.036 585.505H327.521C328.819 585.505 329.873 584.453 329.873 583.153V564.914" fill="#c6c8ca"/>
<path transform="matrix(1,0,0,-1,-35.28,726.12)" stroke-width=".735" stroke-linecap="butt" stroke-miterlimit="4" stroke-linejoin="miter" fill="none" stroke="#231f20" d="M329.873 564.914C329.873 563.615 328.819 562.563 327.521 562.563H286.036C284.736 562.563 283.684 563.615 283.684 564.914V583.153C283.684 584.453 284.736 585.505 286.036 585.505H327.521C328.819 585.505 329.873 584.453 329.873 583.153V564.914Z"/>
<path transform="matrix(1,0,0,-1,-35.28,726.12)" stroke-width="1.47" stroke-linecap="butt" stroke-miterlimit="4" stroke-linejoin="miter" fill="none" stroke="#231f20" d="M287.05 559.589V481.412H302.907V476.84"/>
<path transform="matrix(1,0,0,-1,-35.28,726.12)" d="M287.05 562.356 289.441 556.505 287.05 557.894 284.66 556.505 287.05 562.356" fill="#231f20"/>
<path transform="matrix(1,0,0,-1,-35.28,726.12)" stroke-width=".49" stroke-linecap="butt" stroke-miterlimit="4" stroke-linejoin="miter" fill="none" stroke="#231f20" d="M290.648 559.589V496.461H404.074"/>
<path transform="matrix(1,0,0,-1,-35.28,726.12)" d="M290.648 562.356 292.241 558.456 290.648 559.382 289.054 558.456 290.648 562.356" fill="#231f20"/>
<path transform="matrix(1,0,0,-1,-35.28,726.12)" stroke-width="1.47" stroke-linecap="butt" stroke-miterlimit="4" stroke-linejoin="miter" fill="none" stroke="#231f20" d="M294.246 502.378V559.588"/>
<path transform="matrix(1,0,0,-1,-35.28,726.12)" d="M294.246 562.356 296.635 556.505 294.246 557.894 291.856 556.505 294.246 562.356" fill="#231f20"/>
<path transform="matrix(1,0,0,-1,-35.28,726.12)" stroke-width=".49" stroke-linecap="butt" stroke-miterlimit="4" stroke-linejoin="miter" fill="none" stroke="#231f20" d="M297.843 508.25V559.588"/>
<path transform="matrix(1,0,0,-1,-35.28,726.12)" d="M297.843 562.356 299.437 558.456 297.843 559.382 296.251 558.456 297.843 562.356" fill="#231f20"/>
<path transform="matrix(1,0,0,-1,-35.28,726.12)" stroke-width="1.47" stroke-linecap="butt" stroke-miterlimit="4" stroke-linejoin="miter" fill="none" stroke="#231f20" d="M301.442 514.121V559.588"/>
<path transform="matrix(1,0,0,-1,-35.28,726.12)" d="M301.442 562.356 303.832 556.505 301.442 557.894 299.051 556.505 301.442 562.356" fill="#231f20"/>
<path transform="matrix(1,0,0,-1,-35.28,726.12)" stroke-width=".49" stroke-linecap="butt" stroke-miterlimit="4" stroke-linejoin="miter" fill="none" stroke="#231f20" d="M305.04 519.727V559.589"/>
<path transform="matrix(1,0,0,-1,-35.28,726.12)" d="M305.04 562.356 306.633 558.456 305.04 559.382 303.446 558.456 305.04 562.356" fill="#231f20"/>
<path transform="matrix(1,0,0,-1,-35.28,726.12)" stroke-width="1.47" stroke-linecap="butt" stroke-miterlimit="4" stroke-linejoin="miter" fill="none" stroke="#231f20" d="M308.637 525.333V559.589"/>
<path transform="matrix(1,0,0,-1,-35.28,726.12)" d="M308.637 562.356 311.029 556.505 308.637 557.894 306.247 556.505 308.637 562.356" fill="#231f20"/>
<path transform="matrix(1,0,0,-1,-35.28,726.12)" stroke-width=".49" stroke-linecap="butt" stroke-miterlimit="4" stroke-linejoin="miter" fill="none" stroke="#231f20" d="M312.236 531.204V559.589"/>
<path transform="matrix(1,0,0,-1,-35.28,726.12)" d="M312.236 562.356 313.83 558.456 312.236 559.382 310.642 558.456 312.236 562.356" fill="#231f20"/>
<path transform="matrix(1,0,0,-1,-35.28,726.12)" stroke-width="1.47" stroke-linecap="butt" stroke-miterlimit="4" stroke-linejoin="miter" fill="none" stroke="#231f20" d="M315.834 537.076V559.589"/>
<path transform="matrix(1,0,0,-1,-35.28,726.12)" d="M315.834 562.356 318.226 556.505 315.834 557.894 313.443 556.505 315.834 562.356" fill="#231f20"/>
<path transform="matrix(1,0,0,-1,-35.28,726.12)" stroke-width=".49" stroke-linecap="butt" stroke-miterlimit="4" stroke-linejoin="miter" fill="none" stroke="#231f20" d="M319.433 542.947V559.588"/>
<path transform="matrix(1,0,0,-1,-35.28,726.12)" d="M319.433 562.356 321.027 558.456 319.433 559.382 317.839 558.456 319.433 562.356" fill="#231f20"/>
<path transform="matrix(1,0,0,-1,-35.28,726.12)" stroke-width="1.47" stroke-linecap="butt" stroke-miterlimit="4" stroke-linejoin="miter" fill="none" stroke="#231f20" d="M323.031 549.087V559.589"/>
<path transform="matrix(1,0,0,-1,-35.28,726.12)" d="M323.031 562.356 325.422 556.505 323.031 557.894 320.64 556.505 323.031 562.356" fill="#231f20"/>
<path transform="matrix(1,0,0,-1,-35.28,726.12)" stroke-width=".49" stroke-linecap="butt" stroke-miterlimit="4" stroke-linejoin="miter" fill="none" stroke="#231f20" d="M326.63 554.692V559.589"/>
<path transform="matrix(1,0,0,-1,-35.28,726.12)" d="M326.63 562.356 328.224 558.456 326.63 559.382 325.036 558.456 326.63 562.356" fill="#231f20"/>
<path transform="matrix(1,0,0,-1,-35.28,726.12)" stroke-width=".49" stroke-linecap="butt" stroke-miterlimit="4" stroke-linejoin="miter" fill="none" stroke="#231f20" d="M329.786 463.6H467.122V596.858"/>
<path transform="matrix(1,0,0,-1,-35.28,726.12)" d="M327.019 463.6 330.919 465.194 329.993 463.6 330.919 462.006 327.019 463.6" fill="#231f20"/>
<path transform="matrix(1,0,0,-1,-35.28,726.12)" stroke-width="1.47" stroke-linecap="butt" stroke-miterlimit="4" stroke-linejoin="miter" fill="none" stroke="#231f20" d="M329.786 453.161H472.877V585.946"/>
<path transform="matrix(1,0,0,-1,-35.28,726.12)" d="M327.019 453.161 332.869 455.553 331.481 453.161 332.869 450.77 327.019 453.161" fill="#231f20"/>
<path transform="matrix(1,0,0,-1,-35.28,726.12)" stroke-width=".49" stroke-linecap="butt" stroke-miterlimit="4" stroke-linejoin="miter" fill="none" stroke="#231f20" d="M329.786 442.721H478.536V576.146"/>
<path transform="matrix(1,0,0,-1,-35.28,726.12)" d="M327.019 442.721 330.919 444.315 329.993 442.721 330.919 441.127 327.019 442.721" fill="#231f20"/>
<path transform="matrix(1,0,0,-1,-35.28,726.12)" stroke-width="1.47" stroke-linecap="butt" stroke-miterlimit="4" stroke-linejoin="miter" fill="none" stroke="#231f20" d="M329.786 432.28H484.207V565.693"/>
<path transform="matrix(1,0,0,-1,-35.28,726.12)" d="M327.019 432.28 332.869 434.672 331.481 432.28 332.869 429.889 327.019 432.28" fill="#231f20"/>
<path transform="matrix(1,0,0,-1,-35.28,726.12)" stroke-width="1.47" stroke-linecap="butt" stroke-miterlimit="4" stroke-linejoin="miter" fill="none" stroke="#231f20" d="M221.869 350.343V590.263"/>
<path transform="matrix(1,0,0,-1,-35.28,726.12)" d="M221.869 593.031 224.259 587.181 221.869 588.569 219.479 587.181 221.869 593.031" fill="#231f20"/>
<path transform="matrix(1,0,0,-1,-35.28,726.12)" stroke-width="1.47" stroke-linecap="butt" stroke-miterlimit="4" stroke-linejoin="miter" fill="none" stroke="#231f20" d="M256.658 585.456V590.263"/>
<path transform="matrix(1,0,0,-1,-35.28,726.12)" d="M256.658 593.031 259.05 587.181 256.658 588.569 254.269 587.181 256.658 593.031" fill="#231f20"/>
<path transform="matrix(1,0,0,-1,-35.28,726.12)" stroke-width="1.47" stroke-linecap="butt" stroke-miterlimit="4" stroke-linejoin="miter" fill="none" stroke="#231f20" d="M306.638 585.456V590.263"/>
<path transform="matrix(1,0,0,-1,-35.28,726.12)" d="M306.638 593.031 309.029 587.181 306.638 588.569 304.25 587.181 306.638 593.031" fill="#231f20"/>
<text fill="#231f20" xml:space="preserve" transform="matrix(1 0 -0 1 -35.28 726.12)" font-size="5.88" font-family="Helvetica"><tspan y="-469.126" x="262.332 300.52674">AB</tspan><tspan y="-428.9462" x="269.68318 272.62318 274.5812 277.5212 296.6077 299.5477 301.50575 304.44575">srcAsrcB</tspan><tspan y="-460.75407" x="310.15815 313.42744 316.36744 318.00209">dstM</tspan><tspan y="-450.46406" x="318.00209">M</tspan><tspan y="-440.17405" x="311.13426 314.40354 317.34355 318.97819">dstE</tspan><tspan y="-429.88404" x="318.97819">E</tspan></text>
<text fill="#231f20" xml:space="preserve" transform="matrix(1 0 -0 1 -35.28 726.12)" font-size="9.408" font-family="Helvetica"><tspan y="-453.007" x="271.135 277.92759 283.15843 288.38926 290.4778 295.18183 297.79725 303.02809">Register</tspan><tspan y="-442.42298" x="282.63725 285.25267 287.34123 289.42979">file</tspan></text>
<path transform="matrix(1,0,0,-1,-35.28,726.12)" d="M381.617 492.222C382.565 492.222 383.332 491.453 383.332 490.507 383.332 489.56 382.565 488.792 381.617 488.792 380.671 488.792 379.902 489.56 379.902 490.507 379.902 491.453 380.671 492.222 381.617 492.222" fill="#231f20"/>
<path transform="matrix(1,0,0,-1,-35.28,726.12)" d="M381.617 399.612C382.565 399.612 383.332 398.843 383.332 397.897 383.332 396.95 382.565 396.182 381.617 396.182 380.671 396.182 379.902 396.95 379.902 397.897 379.902 398.843 380.671 399.612 381.617 399.612" fill="#231f20"/>
<path transform="matrix(1,0,0,-1,-35.28,726.12)" d="M402.459 498.211C403.407 498.211 404.174 497.442 404.174 496.496 404.174 495.548 403.407 494.781 402.459 494.781 401.513 494.781 400.744 495.548 400.744 496.496 400.744 497.442 401.513 498.211 402.459 498.211" fill="#231f20"/>
<path transform="matrix(1,0,0,-1,-35.28,726.12)" d="M402.459 410.501C403.407 410.501 404.174 409.732 404.174 408.786 404.174 407.838 403.407 407.071 402.459 407.071 401.513 407.071 400.744 407.838 400.744 408.786 400.744 409.732 401.513 410.501 402.459 410.501" fill="#231f20"/>
<path transform="matrix(1,0,0,-1,-35.28,726.12)" d="M332.544 371.353C333.492 371.353 334.259 370.583 334.259 369.638 334.259 368.69 333.492 367.923 332.544 367.923 331.598 367.923 330.829 368.69 330.829 369.638 330.829 370.583 331.598 371.353 332.544 371.353" fill="#231f20"/>
<path transform="matrix(1,0,0,-1,-35.28,726.12)" d="M139.616 371.353C140.563 371.353 141.331 370.583 141.331 369.638 141.331 368.69 140.563 367.923 139.616 367.923 138.67 367.923 137.901 368.69 137.901 369.638 137.901 370.583 138.67 371.353 139.616 371.353" fill="#231f20"/>
<path transform="matrix(1,0,0,-1,-35.28,726.12)" d="M139.501 575.715C140.448 575.715 141.216 574.946 141.216 574 141.216 573.053 140.448 572.285 139.501 572.285 138.555 572.285 137.786 573.053 137.786 574 137.786 574.946 138.555 575.715 139.501 575.715" fill="#231f20"/>
<path transform="matrix(1,0,0,-1,-35.28,726.12)" stroke-width=".49" stroke-linecap="butt" stroke-miterlimit="4" stroke-linejoin="miter" fill="none" stroke="#231f20" d="M338.77 376.52V355.6"/>
<path transform="matrix(1,0,0,-1,-35.28,726.12)" d="M338.77 379.287 340.362 375.388 338.77 376.313 337.177 375.388 338.77 379.287" fill="#231f20"/>
<path transform="matrix(1,0,0,-1,-35.28,726.12)" d="M338.681 357.288C339.628 357.288 340.396 356.519 340.396 355.573 340.396 354.625 339.628 353.858 338.681 353.858 337.735 353.858 336.966 354.625 336.966 355.573 336.966 356.519 337.735 357.288 338.681 357.288" fill="#231f20"/>
<path transform="matrix(1,0,0,-1,-35.28,726.12)" stroke-width=".49" stroke-linecap="butt" stroke-miterlimit="4" stroke-linejoin="miter" fill="none" stroke="#231f20" d="M354.112 376.52V369.665"/>
<path transform="matrix(1,0,0,-1,-35.28,726.12)" d="M354.112 379.287 355.705 375.388 354.112 376.313 352.519 375.388 354.112 379.287" fill="#231f20"/>
<path transform="matrix(1,0,0,-1,-35.28,726.12)" d="M354.023 371.486C354.971 371.486 355.738 370.717 355.738 369.771 355.738 368.823 354.971 368.056 354.023 368.056 353.077 368.056 352.308 368.823 352.308 369.771 352.308 370.717 353.077 371.486 354.023 371.486" fill="#231f20"/>
<path transform="matrix(1,0,0,-1,-35.28,726.12)" stroke-width=".49" stroke-linecap="butt" stroke-miterlimit="4" stroke-linejoin="miter" fill="none" stroke="#231f20" d="M360.248 376.52V363.383"/>
<path transform="matrix(1,0,0,-1,-35.28,726.12)" d="M360.248 379.287 361.842 375.388 360.248 376.313 358.656 375.388 360.248 379.287" fill="#231f20"/>
<path transform="matrix(1,0,0,-1,-35.28,726.12)" d="M360.16 365.024C361.107 365.024 361.875 364.254 361.875 363.309 361.875 362.361 361.107 361.594 360.16 361.594 359.214 361.594 358.445 362.361 358.445 363.309 358.445 364.254 359.214 365.024 360.16 365.024" fill="#231f20"/>
<path transform="matrix(1,0,0,-1,-35.28,726.12)" stroke-width=".49" stroke-linecap="butt" stroke-miterlimit="4" stroke-linejoin="miter" fill="none" stroke="#231f20" d="M375.591 376.52V369.397"/>
<path transform="matrix(1,0,0,-1,-35.28,726.12)" d="M375.591 379.287 377.184 375.388 375.591 376.313 373.998 375.388 375.591 379.287" fill="#231f20"/>
<path transform="matrix(1,0,0,-1,-35.28,726.12)" d="M375.502 371.354C376.45 371.354 377.217 370.584 377.217 369.639 377.217 368.691 376.45 367.924 375.502 367.924 374.556 367.924 373.787 368.691 373.787 369.639 373.787 370.584 374.556 371.354 375.502 371.354" fill="#231f20"/>
<path transform="matrix(1,0,0,-1,-35.28,726.12)" stroke-width=".49" stroke-linecap="butt" stroke-miterlimit="4" stroke-linejoin="miter" fill="none" stroke="#231f20" d="M381.726 376.52V363.383H181.713V350.256"/>
<path transform="matrix(1,0,0,-1,-35.28,726.12)" d="M381.726 379.287 383.319 375.388 381.726 376.313 380.134 375.388 381.726 379.287" fill="#231f20"/>
<path transform="matrix(1,0,0,-1,-35.28,726.12)" stroke-width=".49" stroke-linecap="butt" stroke-miterlimit="4" stroke-linejoin="miter" fill="none" stroke="#231f20" d="M396.63 376.52V369.677H140.063"/>
<path transform="matrix(1,0,0,-1,-35.28,726.12)" d="M396.63 379.287 398.224 375.388 396.63 376.313 395.038 375.388 396.63 379.287" fill="#231f20"/>
<path transform="matrix(1,0,0,-1,-35.28,726.12)" stroke-width=".49" stroke-linecap="butt" stroke-miterlimit="4" stroke-linejoin="miter" fill="none" stroke="#231f20" d="M402.767 376.52V355.646H200.823V350.256"/>
<path transform="matrix(1,0,0,-1,-35.28,726.12)" d="M402.767 379.287 404.361 375.388 402.767 376.313 401.174 375.388 402.767 379.287" fill="#231f20"/>
<path transform="matrix(1,0,0,-1,-35.28,726.12)" d="M484.225 503.951C485.173 503.951 485.94 503.182 485.94 502.236 485.94 501.288 485.173 500.521 484.225 500.521 483.279 500.521 482.51 501.288 482.51 502.236 482.51 503.182 483.279 503.951 484.225 503.951" fill="#231f20"/>
<path transform="matrix(1,0,0,-1,-35.28,726.12)" d="M294.189 503.951C295.137 503.951 295.904 503.182 295.904 502.236 295.904 501.288 295.137 500.521 294.189 500.521 293.243 500.521 292.474 501.288 292.474 502.236 292.474 503.182 293.243 503.951 294.189 503.951" fill="#231f20"/>
<path transform="matrix(1,0,0,-1,-35.28,726.12)" d="M478.447 509.71C479.395 509.71 480.162 508.941 480.162 507.995 480.162 507.047 479.395 506.28 478.447 506.28 477.501 506.28 476.732 507.047 476.732 507.995 476.732 508.941 477.501 509.71 478.447 509.71" fill="#231f20"/>
<path transform="matrix(1,0,0,-1,-35.28,726.12)" d="M297.842 509.531C298.79 509.531 299.557 508.761 299.557 507.816 299.557 506.868 298.79 506.101 297.842 506.101 296.896 506.101 296.127 506.868 296.127 507.816 296.127 508.761 296.896 509.531 297.842 509.531" fill="#231f20"/>
<path transform="matrix(1,0,0,-1,-35.28,726.12)" d="M473.003 515.407C473.951 515.407 474.718 514.638 474.718 513.692 474.718 512.744 473.951 511.977 473.003 511.977 472.057 511.977 471.288 512.744 471.288 513.692 471.288 514.638 472.057 515.407 473.003 515.407" fill="#231f20"/>
<path transform="matrix(1,0,0,-1,-35.28,726.12)" d="M301.383 515.407C302.331 515.407 303.098 514.638 303.098 513.692 303.098 512.744 302.331 511.977 301.383 511.977 300.437 511.977 299.668 512.744 299.668 513.692 299.668 514.638 300.437 515.407 301.383 515.407" fill="#231f20"/>
<path transform="matrix(1,0,0,-1,-35.28,726.12)" d="M467.056 521.309C468.004 521.309 468.771 520.54 468.771 519.594 468.771 518.646 468.004 517.879 467.056 517.879 466.11 517.879 465.341 518.646 465.341 519.594 465.341 520.54 466.11 521.309 467.056 521.309" fill="#231f20"/>
<path transform="matrix(1,0,0,-1,-35.28,726.12)" d="M305.044 521.309C305.992 521.309 306.759 520.54 306.759 519.594 306.759 518.646 305.992 517.879 305.044 517.879 304.099 517.879 303.329 518.646 303.329 519.594 303.329 520.54 304.099 521.309 305.044 521.309" fill="#231f20"/>
<path transform="matrix(1,0,0,-1,-35.28,726.12)" d="M308.601 527.092C309.549 527.092 310.316 526.322 310.316 525.377 310.316 524.429 309.549 523.662 308.601 523.662 307.655 523.662 306.886 524.429 306.886 525.377 306.886 526.322 307.655 527.092 308.601 527.092" fill="#231f20"/>
<path transform="matrix(1,0,0,-1,-35.28,726.12)" d="M312.25 533.054C313.198 533.054 313.965 532.284 313.965 531.339 313.965 530.391 313.198 529.624 312.25 529.624 311.304 529.624 310.535 530.391 310.535 531.339 310.535 532.284 311.304 533.054 312.25 533.054" fill="#231f20"/>
<path transform="matrix(1,0,0,-1,-35.28,726.12)" d="M315.81 539.015C316.758 539.015 317.525 538.245 317.525 537.3 317.525 536.352 316.758 535.585 315.81 535.585 314.864 535.585 314.095 536.352 314.095 537.3 314.095 538.245 314.864 539.015 315.81 539.015" fill="#231f20"/>
<path transform="matrix(1,0,0,-1,-35.28,726.12)" d="M319.456 544.797C320.404 544.797 321.171 544.028 321.171 543.082 321.171 542.134 320.404 541.367 319.456 541.367 318.511 541.367 317.741 542.134 317.741 543.082 317.741 544.028 318.511 544.797 319.456 544.797" fill="#231f20"/>
<path transform="matrix(1,0,0,-1,-35.28,726.12)" d="M323.058 550.534C324.006 550.534 324.773 549.765 324.773 548.819 324.773 547.872 324.006 547.104 323.058 547.104 322.112 547.104 321.343 547.872 321.343 548.819 321.343 549.765 322.112 550.534 323.058 550.534" fill="#231f20"/>
<path transform="matrix(1,0,0,-1,-35.28,726.12)" d="M326.663 556.275C327.611 556.275 328.378 555.506 328.378 554.56 328.378 553.612 327.611 552.845 326.663 552.845 325.717 552.845 324.948 553.612 324.948 554.56 324.948 555.506 325.717 556.275 326.663 556.275" fill="#231f20"/>
<text fill="#231f20" xml:space="preserve" transform="matrix(1 0 -0 1 -35.28 726.12)" font-size="5.88" font-family="Helvetica"><tspan y="-657.159" x="433.895 437.16429 440.43357 443.70286 446.64286 448.2775">e_dstE</tspan><tspan y="-646.7061" x="438.6331 441.90238 445.17167 448.11167 451.38096 452.6863">e_valE</tspan><tspan y="-484.15528" x="254.05989 257.32917 260.59846 262.5565 265.4965 268.76579 270.07115 292.30168 295.57096 298.84025 300.79829 303.73829 307.00758 308.31294">d_rvalAd_rvalB</tspan></text>
<text fill="#ffffff" xml:space="preserve" transform="matrix(1 0 -0 1 -35.28 726.12)" font-size="7.84" font-family="Helvetica"><tspan y="-597.673" x="91.9627">E</tspan></text>
<text fill="#231f20" xml:space="preserve" transform="matrix(.9746794 0 -0 1.0259783 -35.28 726.12)" font-size="7.641487" font-family="Helvetica"><tspan y="-582.5396" x="134.24724 135.94365 139.76439 144.01305 148.26172">icode</tspan></text>
<text fill="#231f20" xml:space="preserve" transform="matrix(1 0 -0 1 -35.28 726.12)" font-size="7.84" font-family="Helvetica"><tspan y="-597.673" x="112.457 116.377 118.55652 122.91556">stat</tspan><tspan y="-340.13838" x="112.17084 116.090839 118.270359 122.629398">stat</tspan><tspan y="-597.673" x="154.67853 156.419 158.59853 162.95757 205.80866 209.72866 214.08769 215.82817 248.14151 252.06151 256.42057 258.16105 300.35673 304.27674 308.63578 310.37626">ifunvalCvalAvalB</tspan><tspan y="-575.2968" x="237.98873 243.218 247.57704 249.31752 253.89609 258.68635 264.34684">Sel+Fwd</tspan><tspan y="-566.4768" x="250.94667">A</tspan><tspan y="-575.2968" x="298.45393 303.24418 308.90467">Fwd</tspan><tspan y="-566.4768" x="303.24418">B</tspan><tspan y="-597.673" x="330.5509 334.90995 338.82997 341.0095 351.1529 355.51194 359.43196 361.61149 373.09318 377.01319 379.6239 383.5439 393.9476 397.8676 400.47834 404.39836">dstEdstMsrcAsrcB</tspan><tspan y="-382.99418" x="330.6285 334.98756 338.90757 341.0871">dstE</tspan><tspan y="-382.78877" x="351.08073 355.43977 359.35978 361.5393">dstM</tspan><tspan y="-382.99418" x="374.41258 378.33259 380.9433 384.8633 396.17094 400.09095 402.70167 406.62168">srcAsrcB</tspan></text>
<text fill="#231f20" xml:space="preserve" transform="matrix(1 0 -0 1 -35.28 726.12)" font-size="5.88" font-family="Helvetica"><tspan y="-635.926" x="443.207 448.10505 451.37434 454.64363 457.58363 459.21827">M_dstE</tspan><tspan y="-627.3512" x="449.98606 454.8841 458.15339 461.09339 464.36268 465.66804">M_valE</tspan><tspan y="-617.551" x="455.7032 460.60124 463.8705 467.1398 470.0798 471.71446">M_dstM</tspan><tspan y="-608.48587" x="461.5032 466.40126 469.67054 472.61054 475.87983 477.18519">m_valM</tspan><tspan y="-598.93087" x="466.69114 472.24186 475.51115 478.78044 481.72044 483.35508">W_dstM</tspan><tspan y="-588.15109" x="472.4459 477.9966 481.2659 484.2059 487.4752 488.78056">W_valM</tspan><tspan y="-578.0239" x="477.99604 483.54676 486.81605 490.08534 493.02534 494.65998">W_dstE</tspan><tspan y="-568.55007" x="484.367 489.91773 493.187 496.127 499.3963 500.70167">W_valE</tspan><tspan y="-401.28816" x="382.57008 385.83937 389.10865 392.04866 394.00669 396.9467">d_srcA</tspan><tspan y="-411.76219" x="403.74809 407.01737 410.28666 413.22666 415.1847 418.1247">d_srcB</tspan></text>
<text fill="#00adef" xml:space="preserve" transform="matrix(1 0 -0 1 -35.28 726.12)" font-size="8.9664" font-family="StoneSans"><tspan y="-319.606" x="87.1139 91.426738 93.56074 98.895748 104.01556 107.135868 114.2776 119.42432 121.99767 127.14439">Figure4.56</tspan></text>
<text fill="#231f20" xml:space="preserve" transform="matrix(1 0 -0 1 -35.28 726.12)" font-size="8.9664" font-family="StoneSans" font-weight="bold"><tspan y="-319.606" x="140.25955 145.57663 148.32932 153.6464 161.10196 166.69699 171.60161 175.88755 181.31221 186.90724 194.40764 199.23157 204.7728 212.96361 220.28916 223.88468 226.29663 229.78456 234.68918 237.67499 243.26107 248.08499 252.37093 259.5575 263.37718 266.86509 271.689 277.28404 284.78443 287.19639 292.62107 298.2161 300.62806 304.914">PIPEdecodeandwrite-backstagelogic.</tspan></text>
<text fill="#231f20" xml:space="preserve" transform="matrix(1 0 -0 1 -35.28 726.12)" font-size="8.9664" font-family="StoneSans"><tspan y="-319.606" x="310.08137 317.0841 324.81764 326.95164 332.19697 335.68489 338.7783 341.8986 347.0184 351.33125 354.42466 356.55867 361.6964 369.5375 372.6578 377.20378 382.5567 387.6765 389.81053 392.93083 397.47679 403.56047 408.89549 414.03324 417.12666 424.96775 429.36128 433.84449 435.9785 443.38923 447.87245 453.11778 461.04856 464.14198 469.3873 476.52903 480.92256 485.40577 487.53977 492.65959 499.8013 502.9216 507.46757 511.95075">NoinstructionrequiresbothvalPandthevalueread</tspan><tspan y="-308.64726" x="87.11299 89.767047 92.88735 98.0251 108.10871 111.22902 115.77499 121.10999 123.243999 126.731929 129.82534 134.37129 139.55925 144.91219 150.04993 153.17023 158.3313 163.81874 168.56108 173.04428 178.28963 185.69229 189.18022 196.38562 199.47904 204.72438 209.27034 212.75827 219.37189 222.4653 229.45014 236.65554 240.96837 245.45157 252.76457 258.09959 264.7132 272.72917 277.27513 280.39543 285.73045 290.2764 297.67909 300.7725 307.9779 310.63197 315.7697 318.89 328.97364 332.06706 337.31239 343.926 347.4139 349.5479 354.88294 360.12828 364.61146 368.8131 373.20664 377.68983 379.82383 387.3789 390.03297 395.17073 400.35868 402.49269 406.9759 410.0693 414.61528 419.80323 423.29115 426.38456 430.86775 436.20277 440.74873 444.23664 448.87767 453.86299 459.1083 465.72193 471.05696 473.19096 478.3287 482.64155 488.98619 491.12019 495.6034 500.93843 505.48439 507.61839 512.16439">fromregisterportA,andsothesetwocanbemergedtoformthesignalvalAforlaterstages.Theblocklabeled</tspan><tspan y="-297.6885" x="87.11299 91.59619 96.25872 100.80469 102.93869 108.0854 112.39824 119.383068 127.29412 132.2884 139.34766 144.70059 149.24655 152.47444 155.1285 160.26624 163.38654 171.4025 177.46648 180.55989 185.80524 187.93924 194.00322 197.09664 201.57984 205.06777 211.92079 216.40399 221.64934 229.5604 234.0436 236.1776 239.66553 247.37932 249.51332 257.5293 262.88224 265.01625 269.5622 277.57817 282.1241 287.36946 290.46287 296.52684 299.62025 304.86558 311.98759 314.64164 319.7794 323.0073 329.99214 334.47535 337.59565 342.93067 345.06468 350.31 358.22108 360.35508 365.49284 370.82786 372.96186 379.85075 382.5048 387.64256 393.3389 396.8268 401.96458 407.08439 410.04328 414.3561 421.47813 426.61589 431.9688 436.51478 439.63508 444.1183 449.36363 457.2747 461.6682 466.15144 468.28544 473.77287 478.92228 483.9076 489.15293 496.27494 501.60997 503.74397 508.8817 513.1946">&#x201c;Sel+FwdA&#x201d;performsthistaskandalsoimplementstheforwardinglogicforsourceoperandvalA.Theblock</tspan><tspan y="-286.72978" x="87.11299 89.246997 93.730197 99.0652 103.61117 105.74517 110.29114 118.63527 123.11847 127.431308 134.41614 142.76027 147.90699 155.3993 157.53331 165.54927 170.9022 173.03621 177.58217 185.59813 190.14409 195.38944 198.48285 204.9799 208.07332 213.31867 220.87375 223.5278 228.66555 231.89344 238.87827 243.36147 246.48177 251.81678 253.95078 259.1961 267.54026 269.67427 274.812 280.14704 282.28105 289.603 292.25706 297.3948 303.52424 307.01216 312.1499 317.2697 320.2286 324.54145 332.09654 337.23429 342.58723 347.13319 350.25349 354.7367 359.98204 368.32618 372.7197 377.20289 379.33689 384.4836 390.0661 395.05143 400.29676 407.85185 410.97215 415.5181 420.85313 422.98713 426.47505 429.56846 434.1144 440.24385 447.22868 450.34898 452.48298 455.5764 463.13148 465.26548 470.40324 474.71607 479.19929 482.2927 484.4267 489.56446 494.80979 501.30683 505.79005 508.91035">labeled&#x201c;FwdB&#x201d;implementstheforwardinglogicforsourceoperandvalB.Theregisterwritelocationsare</tspan><tspan y="-275.77195" x="87.11299 90.60092 95.953868 100.49983 104.81267 106.94667 111.75266 116.29863 124.34149 129.6765 136.82273 139.91614 145.16149 152.4153 157.7503 161.23824 164.33165 171.4958 175.979 181.22435 189.26721 194.60222 198.09015 201.18357 212.21224 215.70017 217.83417 223.16918 228.41452 232.89772 235.03173 241.22751 243.88156 247.00186 252.1396 262.86344 265.95686 271.20219 278.456 285.44084 288.56114 290.69514 293.78855 298.3345 301.3203 306.65534 311.13856 315.4514 322.43623 325.92414 329.01756 333.50074 338.83576 346.08958 349.20988 353.69306 356.78648 362.0318 366.57777 372.4059 375.49934 380.74467 385.22785 393.18104 395.83509 398.95539 404.09315 414.81697 417.91038 423.1557 430.40953 435.74455 440.2905 444.60334 449.7411 455.0761 462.32994 465.81785 468.91127 473.39448 478.7295 483.27546 488.58985 492.07777 494.21177 499.4571 503.76994 511.02375 513.1578">speci&#xfb01;edbythedstEanddstMsignalsfromthewrite-backstageratherthanfromthedecodestage,sinceit</tspan><tspan y="-264.8132" x="87.11299 89.246997 95.30828 102.293109 105.413417 107.54742 110.64082 112.774829 118.02017 125.928539 129.02194 134.26729 141.38661 144.50691 149.05287 152.5408 157.66062 159.79462 162.88803 168.94933 174.08707 179.31449 182.4079 187.65325 194.77257 196.90657 202.15192 205.63985 208.73326 211.85356 216.97338 221.28621 224.37963 226.51363 231.65137 239.47008 243.78292 248.90273 252.02303 255.14333 259.6893 264.93464 268.02806 270.16206 277.17378 279.30778 287.12648 290.21989 295.4652 302.58454 309.56938 312.68968 314.82368 317.91709 322.46305 325.44886 330.78388 335.2671 339.57994 346.43028 349.91819 353.0116 357.4948 362.82984 367.3758">iswritingtheresultsoftheinstructioncurrentlyinthewrite-backstage.</tspan></text>
<text fill="#00adef" xml:space="preserve" transform="matrix(1 0 -0 1 -35.28 726.12)" font-size="10.9589" font-family="StoneSans"><tspan y="-237.912" x="170.8 178.86576 184.42192 189.69315 195.9726 202.49314 211.1945 216.67395 223.0849 232.75064 242.58078 246.39447 249.00269 252.78351 258.33967 261.98899 268.2794 273.75886 279.0301 287.40269 293.10133 296.88215 302.3616 308.88215 314.4383">DecodeandWrite-BackStages</tspan></text>
<text fill="#231f20" xml:space="preserve" transform="matrix(1 0 -0 1 -35.28 726.12)" font-size="9.9626" font-family="TimesTen"><tspan y="-219.979" x="170.8 176.51853 179.28813 184.26943 189.80863 193.68408 200.7097 205.691 208.18164 213.16294 220.18756 225.16886 227.93846 232.91976 237.90105 243.82083 250.84645 256.38566 261.36695 264.68449 269.66578 272.43537 275.20497 280.18626 287.76979 292.75108 295.52067 300.50196 309.73927 315.27848 320.63935 323.95689 329.4961 336.5217 342.0609 347.0422 351.4656 357.00483 362.54405 369.56965 374.55094 380.09016 387.67369 394.86668 398.74214 401.51173 404.82926 409.81056 413.12809 418.6673 423.6486 428.072 435.65553 438.4251 443.96434 448.94563 451.7152 458.18293 461.50047 467.03968 472.95945 479.0466 482.92207 489.00923 496.2022 500.73719 506.98374 512.52297">Figure4.56givesadetailedviewofthedecodeandwrite-backlogicforPIPE.The</tspan><tspan y="-208.02388" x="170.8 176.3392 179.10881 184.64801 189.07141 194.61061 201.1401 203.90972 208.891 214.4302 219.4115 222.1811 227.1624 235.35564">blockslabeled&#x201c;</tspan></text>
<text fill="#231f20" xml:space="preserve" transform="matrix(1 0 -0 1 -35.28 726.12)" font-size="9.9626" font-family="StoneSans"><tspan y="-208.02388" x="240.33795 246.2657 250.14116 253.57826">dstE</tspan></text>
<text fill="#231f20" xml:space="preserve" transform="matrix(1 0 -0 1 -35.28 726.12)" font-size="9.9626" font-family="TimesTen"><tspan y="-208.02388" x="258.52967 263.51097 268.6965">&#x201d;,&#x201c;</tspan></text>
<text fill="#231f20" xml:space="preserve" transform="matrix(1 0 -0 1 -35.28 726.12)" font-size="9.9626" font-family="StoneSans"><tspan y="-208.02388" x="273.6778 279.60554 283.481 286.9181">dstM</tspan></text>
<text fill="#231f20" xml:space="preserve" transform="matrix(1 0 -0 1 -35.28 726.12)" font-size="9.9626" font-family="TimesTen"><tspan y="-208.02388" x="296.16239 301.14369 306.32923">&#x201d;,&#x201c;</tspan></text>
<text fill="#231f20" xml:space="preserve" transform="matrix(1 0 -0 1 -35.28 726.12)" font-size="9.9626" font-family="StoneSans"><tspan y="-208.02388" x="311.31153 315.18699 318.47465 323.26667">srcA</tspan></text>
<text fill="#231f20" xml:space="preserve" transform="matrix(1 0 -0 1 -35.28 726.12)" font-size="9.9626" font-family="TimesTen"><tspan y="-208.02388" x="329.36378 334.34507 339.5306 344.5119 350.05113 358.24436">&#x201d;,and&#x201c;</tspan></text>
<text fill="#231f20" xml:space="preserve" transform="matrix(1 0 -0 1 -35.28 726.12)" font-size="9.9626" font-family="StoneSans"><tspan y="-208.02388" x="363.22566 367.1011 370.38877 375.1808">srcB</tspan></text>
<text fill="#231f20" xml:space="preserve" transform="matrix(1 0 -0 1 -35.28 726.12)" font-size="9.9626" font-family="TimesTen"><tspan y="-208.02388" x="380.89833 388.53364 393.51493 397.39039 405.0257 410.007 414.98829 418.86375 426.49906 430.3745 433.1441 441.44297 444.21257 446.98216 451.96345 458.49293 461.81047 470.0037 473.32124 478.86045 483.84175 486.61134 493.1408 497.5642 503.10343 508.64265 514.1818">&#x201d;areverysimilartotheircoun-</tspan><tspan y="-196.06876" x="170.79805 174.1156 179.0969 182.97235 188.51155 193.49285 197.3683 200.68585 207.92369 210.6933 219.59488 222.91243 228.45163 236.7953 239.56491 247.86376 253.40296 256.17256 261.15385 269.4527 274.434 279.9732 283.29075 288.27204 291.58958 294.35917 299.89839 308.79997 314.33918 321.01908 326.5583 333.75129 342.05015 347.90318 356.20204 361.74125 365.6167 370.598 374.47346 379.45475 387.7984 391.11595 396.65516 401.63645 408.31636 411.63389 417.1731 425.51676 429.3922 434.3735 439.3548 442.1244 445.99986 449.31739 454.29869 461.5365 465.41197 473.71083 480.94865 484.8241 490.3633 495.90254 501.44175 504.21134 506.98094 511.96223">terpartsintheimplementationofSEQ.ObservethattheregisterIDssupplied</tspan><tspan y="-184.11363" x="170.79805 174.1156 182.09864 185.41619 190.95539 198.38051 205.5735 209.44896 212.21857 215.53612 222.96125 228.50045 234.03964 237.9151 241.23265 247.55194 251.97534 257.51457 265.81343 273.23854 276.55607 280.43153 285.97074 296.7134 300.03096 305.57017 312.99528 320.18827 324.06373 326.8333 330.15086 335.13215 338.44969 343.9889 348.97019 353.3936 361.37663 365.25209 368.5696 373.5509 378.5322 385.9573 389.83277 393.70823 396.4778 401.4591 406.99833 411.9796 414.7492">tothewriteportscomefromthewrite-backstage(signals</tspan></text>
<text fill="#231f20" xml:space="preserve" transform="matrix(1 0 -0 1 -35.28 726.12)" font-size="9.9626" font-family="StoneSans"><tspan y="-184.11363" x="421.07649 430.3118 435.2931 441.22084 445.09629 448.5334">W_dstE</tspan></text>
<text fill="#231f20" xml:space="preserve" transform="matrix(1 0 -0 1 -35.28 726.12)" font-size="9.9626" font-family="TimesTen"><tspan y="-184.11363" x="455.92964 460.91093 466.45014">and</tspan></text>
<text fill="#231f20" xml:space="preserve" transform="matrix(1 0 -0 1 -35.28 726.12)" font-size="9.9626" font-family="StoneSans"><tspan y="-184.11363" x="474.43318 483.6685 488.64979 494.5775 498.45298 501.89009">W_dstM</tspan></text>
<text fill="#231f20" xml:space="preserve" transform="matrix(1 0 -0 1 -35.28 726.12)" font-size="9.9626" font-family="TimesTen"><tspan y="-184.11363" x="511.13539 515.0108">),</tspan><tspan y="-172.15851" x="170.79901 174.67447 179.65576 182.97332 188.51251 193.4938 199.8131 203.13065 208.66985 213.65114 221.63417 224.95172 228.82718 234.36638 245.10906 248.4266 253.9658 261.39094 266.93016 271.91145 276.33485 281.87406 287.41328 294.83839 298.71385 302.03138 307.01268 311.99397 316.60664 321.5411 327.78767 333.32688 336.09648 342.41575 345.18534 351.5046 357.04383 362.02513 366.44853 371.4298 376.96903 380.84449 388.2696 395.4626 402.8877 410.0807 415.06199 420.6012 426.36256 429.68009 435.2193 442.6444 449.8374 453.71287 456.48246 459.8 464.78129 471.10057 474.4181 482.40113 487.94035 492.36375 496.78715 502.32637 508.64564 511.96318">ratherthanfromthedecodestage.Thisisbecausewewantthewritestooccurto</tspan><tspan y="-160.20339" x="170.79901 174.11656 179.65576 187.1277 192.6669 197.6482 201.52365 204.8412 207.61081 213.15001 218.1313 221.44886 224.21846 229.75766 237.7875 241.66297 246.64426 251.62555 254.39516 258.2706 261.58815 266.56944 270.4449 276.811 280.68647 286.22569 291.20698 295.63038 298.39997 303.93919 308.92048 316.95036 322.48957 329.96153 333.27906 338.81828 346.29023 349.0598 354.59904 358.4745 361.79203 365.66749 371.2067 375.6301 378.94764 381.71723 387.25645 395.28633 398.0559 406.0858 409.40333 414.94255 422.4145 429.60749 433.48295 436.25254 439.57008 444.55137 447.8689 453.4081 458.3894 462.8128 470.84269 474.71815 478.03569 483.01698 487.99827 492.61094">thedestinationregistersspeci&#xfb01;edbytheinstructioninthewrite-backstage.</tspan></text>
<path transform="matrix(1,0,0,-1,-35.28,726.12)" stroke-width="12.951" stroke-linecap="butt" stroke-miterlimit="10" stroke-linejoin="miter" fill="none" stroke="#c7eafb" d="M168.808 137.068H517.5"/>
<text fill="#231f20" xml:space="preserve" transform="matrix(1 0 -0 1 -35.28 726.12)" font-size="11.208" font-family="StoneSans" font-weight="bold"><tspan y="-132.585" x="170.8 177.44635 181.94077 187.97068 193.3281 197.688 200.70296 206.06038 215.40785 222.0542 226.54862 233.32946 240.31204 243.327 249.45778 262.9298 269.3632 272.5799 279.01329">PracticeProblem4.29</tspan></text>
<text fill="#231f20" xml:space="preserve" transform="matrix(1 0 -0 1 -35.28 726.12)" font-size="9.9626" font-family="TimesTen"><tspan y="-117.641" x="170.8 177.04656 182.58576 190.09854 195.63774 198.40735 203.94655 208.36995 216.44065 219.21025 224.19155 229.73075 234.71204 237.48165 242.46294 250.53363 255.51493 261.05415 264.9296 268.24714 275.44013 282.9529 285.7225 293.7932 297.11076 302.64997 310.16276 315.70198 320.68327 325.10667 330.64588 336.1851 343.69789 347.57334 350.89088 355.87217 360.85346 368.36625 373.34754 378.32884 383.86805 388.84934 392.7248 397.7061 401.02363 406.0049 412.41188 415.7294 421.26863 428.7814 432.65687 437.63816 442.61946 445.38905 449.2645 452.58204 457.56333 463.97029 467.84574 478.6761 481.99363 487.53285 493.9398 497.25733 502.79655 510.30934">Theblocklabeled&#x201c;dstE&#x201d;inthedecodestagegeneratestheregisterIDfortheE</tspan><tspan y="-105.68588" x="170.8 176.3392 181.8784 185.75386 192.31026 197.84946 204.40586 207.7234 213.2626 221.48274 225.3582 230.3395 235.32079 238.0904 241.96585 245.2834 250.2647 257.379 262.9182 265.6878 270.30049 276.2173 281.7565 286.7378 290.61326 295.59455 304.3726 309.9118 318.68986 324.22908 329.21037 331.97996 337.51918 344.63346 347.951 351.82646 357.36567 368.90336 372.2209 377.7601 385.98023 389.29777 394.27906 397.5966 402.02 407.5592 412.5405 421.31855 424.08815 429.62736 433.5028 436.82035 440.6958 446.23503 450.65843 453.97596 456.74555 462.28477 471.0628 473.8324 482.61045 488.14967 490.91926 496.45848 501.43977 504.20936 506.97895 512.5181">portoftheregister&#xfb01;le,basedon&#xfb01;eldsfromthefetchedinstructioninpipeline</tspan></text>
</g>
</svg>
