<svg xmlns="http://www.w3.org/2000/svg" xmlns:xlink="http://www.w3.org/1999/xlink" version="1.1" width="532.7996" height="664.92" viewBox="0 0 532.7996 664.92">
<defs>
<clipPath id="clip_3335">
<path transform="matrix(1,0,0,-1,-42.7104,726.12)" d="M42.7104 61.2H575.51V726.12H42.7104Z" fill-rule="evenodd"/>
</clipPath>
</defs>
<g clip-path="url(#clip_3335)">
<text xml:space="preserve" transform="matrix(1 0 -0 1 -42.7104 726.12)" font-size="8.4682" font-family="StoneSans"><tspan y="-681.875" x="417.783 423.7446 428.59687 436.16743 440.4608 447.05754 451.9098 454.85673 461.32643 465.87385 468.82078 473.67304 478.7116 480.72706 485.02043 492.59098">HomeworkProblems</tspan></text>
<text xml:space="preserve" transform="matrix(1 0 -0 1 -42.7104 726.12)" font-size="9.4645" font-family="StoneSans" font-weight="bold"><tspan y="-681.875" x="508.588 514.0206 519.45327">455</tspan></text>
<text xml:space="preserve" transform="matrix(1 0 -0 1 -42.7104 726.12)" font-size="9.9626" font-family="TimesTen"><tspan y="-655.623" x="112.433 117.972209 123.51141 129.65335 134.07675 139.05805 142.9335 147.9148 154.05675 161.24974 166.78894 171.77024 175.64569 182.89348 186.21103 191.75023 198.99802 202.87348 207.85477 212.27817 217.81737 223.35657 231.16226 233.93187 239.47107 243.34653 246.66408 250.53954 256.07875 260.50215 263.81968 266.58927 272.12849 279.93418 283.80964 287.12718 292.66639 296.54185 301.52314 307.66508 310.9826 316.52183 323.7696 327.64506 333.18428 338.72349 342.59895 347.02235 354.2701 359.80934 365.34855 370.32984 374.2053 379.18659 384.7258 392.5315 395.84904 403.65473 411.95359 416.93489 425.23374 430.77296 434.6484 438.71315">Forcaseswherethesecondinstructionstoresthesourceoperandtomemory,</tspan><tspan y="-643.66787" x="94.50032 98.37577 103.91498 108.33837 115.65391 120.63521 126.28699 133.47998 136.24959 139.56714 146.88268 151.86397">suchaswithan</tspan></text>
<text xml:space="preserve" transform="matrix(1 0 -0 1 -42.7104 726.12)" font-size="9.9626" font-family="ZztexMono"><tspan y="-643.66787" x="159.1795 164.40987 169.64023 174.87059 180.10095 185.33132">rmmovl</tspan></text>
<text xml:space="preserve" transform="matrix(1 0 -0 1 -42.7104 726.12)" font-size="9.9626" font-family="TimesTen"><tspan y="-643.66787" x="192.33803 197.87723">or</tspan></text>
<text xml:space="preserve" transform="matrix(1 0 -0 1 -42.7104 726.12)" font-size="9.9626" font-family="ZztexMono"><tspan y="-643.66787" x="203.52902 208.75939 213.98975 219.22011 224.45047">pushl</tspan></text>
<text xml:space="preserve" transform="matrix(1 0 -0 1 -42.7104 726.12)" font-size="9.9626" font-family="TimesTen"><tspan y="-643.66787" x="231.45719 234.22679 239.76599 243.64145 246.959 250.83446 256.37367 260.79707 264.1146 266.8842 272.4234 277.96263 282.37208 285.6896 291.22883 293.9984 299.6502 303.52568 306.8432 311.8245 314.5941 317.36369 320.13328 325.6725 332.4301 335.1997 340.8515 346.39073 351.92994 357.0238 362.56303 367.5443 371.9677 376.949 380.82447 384.69993 389.6812 393.55668 397.6214 401.8884 409.0814 414.6206 420.15983 424.03529 426.80488 432.3441 437.32539">instruction,thisstallingisnotnecessary.Consider</tspan><tspan y="-631.7127" x="94.49933 97.81687 103.35608 110.828029 114.14557 119.68478 122.45438 125.223979 130.76319 137.95618 140.72579 146.26499 153.73693 158.16033 163.69953 169.23873 176.71067 181.69196 186.67325 191.65454 199.95339 205.49259 208.26219 213.24349 217.11894">thefollowingcodeexamples:</tspan></text>
<text fill="#00adef" xml:space="preserve" transform="matrix(1 0 -0 1 -42.7104 726.12)" font-size="6.9738" font-family="StoneSans"><tspan y="-612.883" x="98.4671">1</tspan></text>
<text xml:space="preserve" transform="matrix(1 0 -0 1 -42.7104 726.12)" font-size="9.4645" font-family="ZztexMono"><tspan y="-612.883" x="138.286 143.25485 148.22371 153.19257 158.16143 163.13028 173.068 178.03685 183.0057 187.97457 192.94342 197.91228 202.88114 207.84999 212.81885 217.7877 222.75656 227.72542 247.60086 257.53858 262.50746 267.47633 272.4452 287.35179">mrmovl0(%ecx),%edx#Load1</tspan></text>
<text fill="#00adef" xml:space="preserve" transform="matrix(1 0 -0 1 -42.7104 726.12)" font-size="6.9738" font-family="StoneSans"><tspan y="-600.928" x="98.4671">2</tspan></text>
<text xml:space="preserve" transform="matrix(1 0 -0 1 -42.7104 726.12)" font-size="9.4645" font-family="ZztexMono"><tspan y="-600.928" x="138.286 143.25485 148.22371 153.19257 158.16143 173.06801 178.03687 183.00572 187.97458 247.60092 257.53865 262.5075 267.47639 272.44526 277.41413 287.35188">pushl%edx#Store1</tspan></text>
<text fill="#00adef" xml:space="preserve" transform="matrix(1 0 -0 1 -42.7104 726.12)" font-size="6.9738" font-family="StoneSans"><tspan y="-588.973" x="98.4671">3</tspan></text>
<text xml:space="preserve" transform="matrix(1 0 -0 1 -42.7104 726.12)" font-size="9.4645" font-family="ZztexMono"><tspan y="-588.973" x="138.286 143.25485 148.22371">nop</tspan></text>
<text fill="#00adef" xml:space="preserve" transform="matrix(1 0 -0 1 -42.7104 726.12)" font-size="6.9738" font-family="StoneSans"><tspan y="-577.0181" x="98.4671">4</tspan></text>
<text xml:space="preserve" transform="matrix(1 0 -0 1 -42.7104 726.12)" font-size="9.4645" font-family="ZztexMono"><tspan y="-577.0181" x="138.286 143.25485 148.22371 153.19257 163.13028 168.09914 173.068 178.03685 247.60092 257.53865 262.5075 267.47639 272.44526 287.35185">popl%edx#Load2</tspan></text>
<text fill="#00adef" xml:space="preserve" transform="matrix(1 0 -0 1 -42.7104 726.12)" font-size="6.9738" font-family="StoneSans"><tspan y="-565.063" x="98.4671">5</tspan></text>
<text xml:space="preserve" transform="matrix(1 0 -0 1 -42.7104 726.12)" font-size="9.4645" font-family="ZztexMono"><tspan y="-565.063" x="138.286 143.25485 148.22371 153.19257 158.16143 163.13028 173.068 178.03685 183.0057 187.97457 192.94342 197.91228 202.88114 207.84999 212.81885 217.7877 222.75656 227.72542 247.60086 257.53858 262.50746 267.47633 272.4452 277.41407 287.3518">rmmovl%eax,0(%edx)#Store2</tspan></text>
<text xml:space="preserve" transform="matrix(1 0 -0 1 -42.7104 726.12)" font-size="9.9626" font-family="TimesTen"><tspan y="-546.234" x="112.433 116.30845 125.93431 128.70392 131.47353 137.01273 141.99402 149.95613 159.02408 164.00537 169.54457 179.17043 184.15172 191.12754 194.44509 199.98429">Inlines1and2,the</tspan></text>
<text xml:space="preserve" transform="matrix(1 0 -0 1 -42.7104 726.12)" font-size="9.9626" font-family="ZztexMono"><tspan y="-546.234" x="209.05129 214.28165 219.51201 224.74237 229.97274 235.2031">mrmovl</tspan></text>
<text xml:space="preserve" transform="matrix(1 0 -0 1 -42.7104 726.12)" font-size="9.9626" font-family="TimesTen"><tspan y="-546.234" x="244.52014 247.28975 252.82895 256.7044 260.02195 263.8974 269.4366 273.86003 277.17756 279.94715 285.48637 295.11225 298.9877 303.969 308.9503 314.4895 322.45164 331.5196 336.5009 341.48219 344.25178 349.791 358.85896 362.17649 366.05195 371.59117 383.97669 392.27555 397.25685 405.5557 411.0949 414.97038 424.03834 426.80793 432.34715 435.66468">instructionreadsavaluefrommemoryinto</tspan></text>
<text xml:space="preserve" transform="matrix(1 0 -0 1 -42.7104 726.12)" font-size="9.9626" font-family="ZztexMono"><tspan y="-534.2779" x="94.50133 99.73169 104.96205 110.19241">%edx</tspan></text>
<text xml:space="preserve" transform="matrix(1 0 -0 1 -42.7104 726.12)" font-size="9.9626" font-family="TimesTen"><tspan y="-534.2779" x="115.42279 120.22077 125.20207 130.74127 138.54198 141.85953 147.39873">,andthe</tspan></text>
<text xml:space="preserve" transform="matrix(1 0 -0 1 -42.7104 726.12)" font-size="9.9626" font-family="ZztexMono"><tspan y="-534.2779" x="154.64257 159.87293 165.10329 170.33365 175.56401">pushl</tspan></text>
<text xml:space="preserve" transform="matrix(1 0 -0 1 -42.7104 726.12)" font-size="9.9626" font-family="TimesTen"><tspan y="-534.2779" x="183.05789 185.8275 191.3667 195.24216 198.55971 202.43517 207.97437 212.39777 215.71532 218.48493 224.02413 231.82483 235.14238 240.68158 245.66287 253.46358 259.00279 264.542 268.41746 273.95668 278.93797 285.07493 288.39247 293.93168 296.70127 302.83824 307.81953 312.8008 315.5704 321.10963 328.35243 333.89164 339.43086 342.74839 350.5491 353.86665 359.40586 366.64866 370.5241 373.84165 378.82295 383.24635 388.78556 393.53773 401.83659 407.3758 413.51277 419.05198 424.03327 427.90873 430.6783 435.6596">instructionthenpushesthisvalueontothestack.Ourdesign</tspan><tspan y="-522.32278" x="94.50234 97.819889 103.35909 110.21834 116.30549 120.18094 126.26809 136.44489 143.63788 149.17708 154.71628 157.48589 166.00888 169.88434 173.20189 178.18318 180.95279 186.70619 190.02375 195.56295">forPIPEwouldstallthe</tspan></text>
<text xml:space="preserve" transform="matrix(1 0 -0 1 -42.7104 726.12)" font-size="9.9626" font-family="ZztexMono"><tspan y="-522.32278" x="203.52906 208.75942 213.98978 219.22014 224.4505">pushl</tspan></text>
<text xml:space="preserve" transform="matrix(1 0 -0 1 -42.7104 726.12)" font-size="9.9626" font-family="TimesTen"><tspan y="-522.32278" x="232.66368 235.43329 240.97249 244.84795 248.1655 252.04096 257.58018 262.00358 265.3211 268.0907 273.6299 282.15293 285.47047 293.99348 298.97477 303.95606 309.49528 312.26487 320.78788 328.75297 331.52256 337.06178 342.04307 347.58229 350.35188 355.89109 359.76655 367.73164 373.27085 378.25215 382.67555 387.65684 391.5323 397.0715 402.54597 410.84483 416.38404 420.2595 425.24079 429.11625 434.09754 438.7102">instructiontoavoidaload/usehazard.Observe,</tspan><tspan y="-510.36766" x="94.50035 100.03956 105.578769 112.77177 117.75307 122.73437 127.71567 131.4118 137.02672 140.34427 145.88347 150.86476 157.18006 160.4976 166.0368 174.01584 178.99713 183.97843 186.74803 192.28723 200.26627 205.80547">however,thatthevalueof</tspan></text>
<text xml:space="preserve" transform="matrix(1 0 -0 1 -42.7104 726.12)" font-size="9.9626" font-family="ZztexMono"><tspan y="-510.36766" x="212.1218 217.35216 222.58252 227.81288">%edx</tspan></text>
<text xml:space="preserve" transform="matrix(1 0 -0 1 -42.7104 726.12)" font-size="9.9626" font-family="TimesTen"><tspan y="-510.36766" x="236.04199 238.8116 245.6848 251.224 256.7632 263.0785 266.95396 271.93525 277.47447 283.01368 285.78327 289.65873 294.64 303.17698 308.7162 316.69523 320.01277 325.55198">isnotrequiredbythe</tspan></text>
<text xml:space="preserve" transform="matrix(1 0 -0 1 -42.7104 726.12)" font-size="9.9626" font-family="ZztexMono"><tspan y="-510.36766" x="333.531 338.76139 343.99177 349.22215 354.4525">pushl</tspan></text>
<text xml:space="preserve" transform="matrix(1 0 -0 1 -42.7104 726.12)" font-size="9.9626" font-family="TimesTen"><tspan y="-510.36766" x="362.67958 365.44917 370.98838 374.86384 378.18138 382.05683 387.59605 392.01945 395.33699 398.10658 403.64579 412.18275 417.72196 423.26118 426.5787 429.3483 435.11564 437.88523">instructionuntilit</tspan><tspan y="-498.41255" x="94.500339 98.375789 103.357089 108.33839 112.76178 118.30099 123.28229 129.3804 132.69795 138.23715 145.4411 153.73995 158.72124 167.02008 172.55928 176.43474 183.63869 187.51415 190.8317 195.81299 200.79428 205.40695 210.12026 219.34563 226.54958 230.97298 235.95427 243.71613 248.69742 254.23662 261.99848 266.97978 274.74165 279.72294 285.26216 290.80137 293.57096 296.8885 299.65809 305.1973 310.7365 315.7178 320.71006 326.24928 331.23057 336.76979 341.75108 345.62654 351.72465 357.26387 362.24516 365.56269 371.1019 375.86903 380.8503 386.94844 392.48765 395.25724 400.23854 405.21983 409.09529 414.07658 422.37544 430.6743 435.65559">reachesthememorystage.Wecanaddanadditionalbypasspath,asdiagrammed</tspan><tspan y="-486.45744" x="94.500339 97.269939 105.945369 111.6639 114.4335 119.4148 124.95401 128.82947 136.94699 141.92829 144.41893 149.40023 154.38152 160.1688 163.48635 172.16178 175.47933 181.01853 184.89398 192.08698 197.06827 200.94373 209.61916 212.9367 218.4759 226.59343 234.89228 239.87357 248.17241 253.71161 257.58708 265.7046 271.2438 276.78303 280.10057 285.63978 291.179 297.63276 301.5082 305.38368 308.15327 313.13456 318.67378 323.65507">inFigure4.69,toforwardthememoryoutput(signal</tspan></text>
<text xml:space="preserve" transform="matrix(1 0 -0 1 -42.7104 726.12)" font-size="9.9626" font-family="StoneSans"><tspan y="-486.45744" x="329.5609 338.46748 343.44877 348.33045 353.31175 355.68284">m_valM</tspan></text>
<text xml:space="preserve" transform="matrix(1 0 -0 1 -42.7104 726.12)" font-size="9.9626" font-family="TimesTen"><tspan y="-486.45744" x="364.92814 371.93983 375.25736 383.9328 387.25035 392.78956">)tothe</tspan></text>
<text xml:space="preserve" transform="matrix(1 0 -0 1 -42.7104 726.12)" font-size="9.9626" font-family="StoneSans"><tspan y="-486.45744" x="400.90608 405.78776 410.76905 413.14015">valA</tspan></text>
<text xml:space="preserve" transform="matrix(1 0 -0 1 -42.7104 726.12)" font-size="9.9626" font-family="TimesTen"><tspan y="-486.45744" x="422.37348 427.9127 432.89399 435.66358">&#xfb01;eld</tspan></text>
<path transform="matrix(1,0,0,-1,-42.7104,726.12)" d="M139.676 426.607C139.676 425.283 138.602 424.208 137.276 424.208H119.944C118.619 424.208 117.544 425.283 117.544 426.607V437.218C117.544 438.544 118.619 439.619 119.944 439.619H137.276C138.602 439.619 139.676 438.544 139.676 437.218V426.607" fill="#b1b4b6"/>
<path transform="matrix(1,0,0,-1,-42.7104,726.12)" stroke-width=".5" stroke-linecap="butt" stroke-miterlimit="4" stroke-linejoin="miter" fill="none" stroke="#231f20" d="M239.754 261.289H206.824"/>
<path transform="matrix(1,0,0,-1,-42.7104,726.12)" d="M204.479 261.289 207.514 262.529 206.794 261.289 207.514 260.049 204.479 261.289" fill="#231f20"/>
<path transform="matrix(1,0,0,-1,-42.7104,726.12)" stroke-width=".5" stroke-linecap="butt" stroke-miterlimit="4" stroke-linejoin="miter" fill="none" stroke="#231f20" d="M299.754 261.289H266.824"/>
<path transform="matrix(1,0,0,-1,-42.7104,726.12)" d="M264.479 261.289 267.514 262.529 266.794 261.289 267.514 260.049 264.479 261.289" fill="#231f20"/>
<path transform="matrix(1,0,0,-1,-42.7104,726.12)" d="M225.471 448.65H160.275V463.298H225.471ZM160.275 448.65" fill="#8ed8f8"/>
<path transform="matrix(1,0,0,-1,-42.7104,726.12)" stroke-width="1" stroke-linecap="butt" stroke-miterlimit="4" stroke-linejoin="miter" fill="none" stroke="#231f20" d="M225.471 448.65H160.275V463.298H225.471Z"/>
<path transform="matrix(1,0,0,-1,-42.7104,726.12)" d="M116.931 448.65H95.586V463.298H116.931ZM95.586 448.65" fill="#8ed8f8"/>
<path transform="matrix(1,0,0,-1,-42.7104,726.12)" stroke-width="1" stroke-linecap="butt" stroke-miterlimit="4" stroke-linejoin="miter" fill="none" stroke="#231f20" d="M116.931 448.65H95.586V463.298H116.931Z"/>
<path transform="matrix(1,0,0,-1,-42.7104,726.12)" d="M160.306 448.65H137.836V463.298H160.306ZM137.836 448.65" fill="#ffffff"/>
<path transform="matrix(1,0,0,-1,-42.7104,726.12)" stroke-width="1" stroke-linecap="butt" stroke-miterlimit="4" stroke-linejoin="miter" fill="none" stroke="#231f20" d="M160.306 448.65H137.836V463.298H160.306Z"/>
<path transform="matrix(1,0,0,-1,-42.7104,726.12)" d="M137.836 448.65H116.836V463.298H137.836ZM116.836 448.65" fill="#ffffff"/>
<path transform="matrix(1,0,0,-1,-42.7104,726.12)" stroke-width="1" stroke-linecap="butt" stroke-miterlimit="4" stroke-linejoin="miter" fill="none" stroke="#231f20" d="M137.836 448.65H116.836V463.298H137.836Z"/>
<path transform="matrix(1,0,0,-1,-42.7104,726.12)" d="M137.836 337.904H116.836V352.55299H137.836ZM116.836 337.904" fill="#ffffff"/>
<path transform="matrix(1,0,0,-1,-42.7104,726.12)" stroke-width="1" stroke-linecap="butt" stroke-miterlimit="4" stroke-linejoin="miter" fill="none" stroke="#231f20" d="M137.836 337.904H116.836V352.55299H137.836Z"/>
<path transform="matrix(1,0,0,-1,-42.7104,726.12)" d="M137.836 165.822H116.836V180.47101H137.836ZM116.836 165.822" fill="#ffffff"/>
<path transform="matrix(1,0,0,-1,-42.7104,726.12)" stroke-width="1" stroke-linecap="butt" stroke-miterlimit="4" stroke-linejoin="miter" fill="none" stroke="#231f20" d="M137.836 165.822H116.836V180.47101H137.836Z"/>
<path transform="matrix(1,0,0,-1,-42.7104,726.12)" d="M331.311 448.65H309.965V463.298H331.311ZM309.965 448.65" fill="#8ed8f8"/>
<path transform="matrix(1,0,0,-1,-42.7104,726.12)" stroke-width="1" stroke-linecap="butt" stroke-miterlimit="4" stroke-linejoin="miter" fill="none" stroke="#231f20" d="M331.311 448.65H309.965V463.298H331.311Z"/>
<path transform="matrix(1,0,0,-1,-42.7104,726.12)" d="M352.686 448.65H331.215V463.298H352.686ZM331.215 448.65" fill="#ffffff"/>
<path transform="matrix(1,0,0,-1,-42.7104,726.12)" stroke-width="1" stroke-linecap="butt" stroke-miterlimit="4" stroke-linejoin="miter" fill="none" stroke="#231f20" d="M352.686 448.65H331.215V463.298H352.686Z"/>
<path transform="matrix(1,0,0,-1,-42.7104,726.12)" d="M374.022 448.65H352.552V463.298H374.022ZM352.552 448.65" fill="#ffffff"/>
<path transform="matrix(1,0,0,-1,-42.7104,726.12)" stroke-width="1" stroke-linecap="butt" stroke-miterlimit="4" stroke-linejoin="miter" fill="none" stroke="#231f20" d="M374.022 448.65H352.552V463.298H374.022Z"/>
<path transform="matrix(1,0,0,-1,-42.7104,726.12)" d="M395.358 448.65H373.888V463.298H395.358 395.225 416.695V448.65H395.225 395.358" fill="#8ed8f8"/>
<path transform="matrix(1,0,0,-1,-42.7104,726.12)" stroke-width="1" stroke-linecap="butt" stroke-miterlimit="4" stroke-linejoin="miter" fill="none" stroke="#231f20" d="M395.358 448.65H373.888V463.298H395.358 395.225 416.695V448.65H395.225 395.358Z"/>
<path transform="matrix(1,0,0,-1,-42.7104,726.12)" d="M246.003 448.65H224.533V463.298H246.003 245.87 267.34V448.65H245.87 246.003" fill="#ffffff"/>
<path transform="matrix(1,0,0,-1,-42.7104,726.12)" stroke-width="1" stroke-linecap="butt" stroke-miterlimit="4" stroke-linejoin="miter" fill="none" stroke="#231f20" d="M246.003 448.65H224.533V463.298H246.003 245.87 267.34V448.65H245.87 246.003Z"/>
<path transform="matrix(1,0,0,-1,-42.7104,726.12)" d="M288.676 448.65H267.206V463.298H288.676 288.543 310.013V448.65H288.543 288.676" fill="#ffffff"/>
<path transform="matrix(1,0,0,-1,-42.7104,726.12)" stroke-width="1" stroke-linecap="butt" stroke-miterlimit="4" stroke-linejoin="miter" fill="none" stroke="#231f20" d="M288.676 448.65H267.206V463.298H288.676 288.543 310.013V448.65H288.543 288.676Z"/>
<path transform="matrix(1,0,0,-1,-42.7104,726.12)" d="M116.931 337.904H95.586V352.55299H116.931ZM95.586 337.904" fill="#8ed8f8"/>
<path transform="matrix(1,0,0,-1,-42.7104,726.12)" stroke-width="1" stroke-linecap="butt" stroke-miterlimit="4" stroke-linejoin="miter" fill="none" stroke="#231f20" d="M116.931 337.904H95.586V352.55299H116.931Z"/>
<path transform="matrix(1,0,0,-1,-42.7104,726.12)" d="M160.306 337.904H137.836V352.55299H160.306ZM137.836 337.904" fill="#ffffff"/>
<path transform="matrix(1,0,0,-1,-42.7104,726.12)" stroke-width="1" stroke-linecap="butt" stroke-miterlimit="4" stroke-linejoin="miter" fill="none" stroke="#231f20" d="M160.306 337.904H137.836V352.55299H160.306Z"/>
<path transform="matrix(1,0,0,-1,-42.7104,726.12)" d="M181.643 337.904H160.173V352.55299H181.643ZM160.173 337.904" fill="#8ed8f8"/>
<path transform="matrix(1,0,0,-1,-42.7104,726.12)" stroke-width="1" stroke-linecap="butt" stroke-miterlimit="4" stroke-linejoin="miter" fill="none" stroke="#231f20" d="M181.643 337.904H160.173V352.55299H181.643Z"/>
<path transform="matrix(1,0,0,-1,-42.7104,726.12)" d="M202.98 337.904H181.51V352.55299H202.98ZM181.51 337.904" fill="#ffffff"/>
<path transform="matrix(1,0,0,-1,-42.7104,726.12)" stroke-width="1" stroke-linecap="butt" stroke-miterlimit="4" stroke-linejoin="miter" fill="none" stroke="#231f20" d="M202.98 337.904H181.51V352.55299H202.98Z"/>
<path transform="matrix(1,0,0,-1,-42.7104,726.12)" d="M224.317 337.904H202.847V352.55299H224.317ZM202.847 337.904" fill="#8ed8f8"/>
<path transform="matrix(1,0,0,-1,-42.7104,726.12)" stroke-width="1" stroke-linecap="butt" stroke-miterlimit="4" stroke-linejoin="miter" fill="none" stroke="#231f20" d="M224.317 337.904H202.847V352.55299H224.317Z"/>
<path transform="matrix(1,0,0,-1,-42.7104,726.12)" d="M330.911 337.904H309.565V352.55299H330.911ZM309.565 337.904" fill="#8ed8f8"/>
<path transform="matrix(1,0,0,-1,-42.7104,726.12)" stroke-width="1" stroke-linecap="butt" stroke-miterlimit="4" stroke-linejoin="miter" fill="none" stroke="#231f20" d="M330.911 337.904H309.565V352.55299H330.911Z"/>
<path transform="matrix(1,0,0,-1,-42.7104,726.12)" d="M352.286 337.904H330.815V352.55299H352.286ZM330.815 337.904" fill="#ffffff"/>
<path transform="matrix(1,0,0,-1,-42.7104,726.12)" stroke-width="1" stroke-linecap="butt" stroke-miterlimit="4" stroke-linejoin="miter" fill="none" stroke="#231f20" d="M352.286 337.904H330.815V352.55299H352.286Z"/>
<path transform="matrix(1,0,0,-1,-42.7104,726.12)" d="M373.623 337.904H352.15199V352.55299H373.623ZM352.152 337.904" fill="#ffffff"/>
<path transform="matrix(1,0,0,-1,-42.7104,726.12)" stroke-width="1" stroke-linecap="butt" stroke-miterlimit="4" stroke-linejoin="miter" fill="none" stroke="#231f20" d="M373.623 337.904H352.15199V352.55299H373.623Z"/>
<path transform="matrix(1,0,0,-1,-42.7104,726.12)" d="M394.959 337.904H373.488V352.553H394.959 394.825 416.296V337.904H394.825 394.959" fill="#8ed8f8"/>
<path transform="matrix(1,0,0,-1,-42.7104,726.12)" stroke-width="1" stroke-linecap="butt" stroke-miterlimit="4" stroke-linejoin="miter" fill="none" stroke="#231f20" d="M394.959 337.904H373.488V352.553H394.959 394.825 416.296V337.904H394.825 394.959Z"/>
<path transform="matrix(1,0,0,-1,-42.7104,726.12)" d="M245.604 337.904H224.134V352.552H245.604 245.47 266.94V337.904H245.47 245.604" fill="#ffffff"/>
<path transform="matrix(1,0,0,-1,-42.7104,726.12)" stroke-width="1" stroke-linecap="butt" stroke-miterlimit="4" stroke-linejoin="miter" fill="none" stroke="#231f20" d="M245.604 337.904H224.134V352.552H245.604 245.47 266.94V337.904H245.47 245.604Z"/>
<path transform="matrix(1,0,0,-1,-42.7104,726.12)" d="M288.276 337.904H266.807V352.552H288.276 288.144 309.613V337.904H288.144 288.276" fill="#ffffff"/>
<path transform="matrix(1,0,0,-1,-42.7104,726.12)" stroke-width="1" stroke-linecap="butt" stroke-miterlimit="4" stroke-linejoin="miter" fill="none" stroke="#231f20" d="M288.276 337.904H266.807V352.552H288.276 288.144 309.613V337.904H288.144 288.276Z"/>
<path transform="matrix(1,0,0,-1,-42.7104,726.12)" d="M116.931 165.822H95.586V180.47101H116.931ZM95.586 165.822" fill="#8ed8f8"/>
<path transform="matrix(1,0,0,-1,-42.7104,726.12)" stroke-width="1" stroke-linecap="butt" stroke-miterlimit="4" stroke-linejoin="miter" fill="none" stroke="#231f20" d="M116.931 165.822H95.586V180.47101H116.931Z"/>
<path transform="matrix(1,0,0,-1,-42.7104,726.12)" d="M160.306 165.822H137.836V180.47101H160.306ZM137.836 165.822" fill="#ffffff"/>
<path transform="matrix(1,0,0,-1,-42.7104,726.12)" stroke-width="1" stroke-linecap="butt" stroke-miterlimit="4" stroke-linejoin="miter" fill="none" stroke="#231f20" d="M160.306 165.822H137.836V180.47101H160.306Z"/>
<path transform="matrix(1,0,0,-1,-42.7104,726.12)" d="M181.643 165.822H160.173V180.47101H181.643ZM160.173 165.822" fill="#ffffff"/>
<path transform="matrix(1,0,0,-1,-42.7104,726.12)" stroke-width="1" stroke-linecap="butt" stroke-miterlimit="4" stroke-linejoin="miter" fill="none" stroke="#231f20" d="M181.643 165.822H160.173V180.47101H181.643Z"/>
<path transform="matrix(1,0,0,-1,-42.7104,726.12)" d="M192.48 165.822H181.51V180.47101H192.48ZM181.51 165.822" fill="#8ed8f8"/>
<path transform="matrix(1,0,0,-1,-42.7104,726.12)" stroke-width="1" stroke-linecap="butt" stroke-miterlimit="4" stroke-linejoin="miter" fill="none" stroke="#231f20" d="M192.48 165.822H181.51V180.47101H192.48Z"/>
<path transform="matrix(1,0,0,-1,-42.7104,726.12)" d="M331.269 165.822H320.299V180.47101H331.269ZM320.299 165.822" fill="#8ed8f8"/>
<path transform="matrix(1,0,0,-1,-42.7104,726.12)" stroke-width="1" stroke-linecap="butt" stroke-miterlimit="4" stroke-linejoin="miter" fill="none" stroke="#231f20" d="M331.269 165.822H320.299V180.47101H331.269Z"/>
<path transform="matrix(1,0,0,-1,-42.7104,726.12)" d="M373.574 165.822H352.104V180.47101H373.574ZM352.104 165.822" fill="#ffffff"/>
<path transform="matrix(1,0,0,-1,-42.7104,726.12)" stroke-width="1" stroke-linecap="butt" stroke-miterlimit="4" stroke-linejoin="miter" fill="none" stroke="#231f20" d="M373.574 165.822H352.104V180.47101H373.574Z"/>
<path transform="matrix(1,0,0,-1,-42.7104,726.12)" d="M394.911 165.822H373.44V180.47101H394.911ZM373.44 165.822" fill="#ffffff"/>
<path transform="matrix(1,0,0,-1,-42.7104,726.12)" stroke-width="1" stroke-linecap="butt" stroke-miterlimit="4" stroke-linejoin="miter" fill="none" stroke="#231f20" d="M394.911 165.822H373.44V180.47101H394.911Z"/>
<path transform="matrix(1,0,0,-1,-42.7104,726.12)" d="M416.248 165.822H394.77699V180.47101H416.248ZM394.777 165.822" fill="#ffffff"/>
<path transform="matrix(1,0,0,-1,-42.7104,726.12)" stroke-width="1" stroke-linecap="butt" stroke-miterlimit="4" stroke-linejoin="miter" fill="none" stroke="#231f20" d="M416.248 165.822H394.77699V180.47101H416.248Z"/>
<path transform="matrix(1,0,0,-1,-42.7104,726.12)" d="M213.767 165.822H192.297V180.471H213.767 213.633 235.104V165.822H213.633 213.767" fill="#ffffff"/>
<path transform="matrix(1,0,0,-1,-42.7104,726.12)" stroke-width="1" stroke-linecap="butt" stroke-miterlimit="4" stroke-linejoin="miter" fill="none" stroke="#231f20" d="M213.767 165.822H192.297V180.471H213.767 213.633 235.104V165.822H213.633 213.767Z"/>
<path transform="matrix(1,0,0,-1,-42.7104,726.12)" d="M256.439 165.822H234.97V180.471H256.439 256.307 277.776V165.822H256.307 256.439" fill="#ffffff"/>
<path transform="matrix(1,0,0,-1,-42.7104,726.12)" stroke-width="1" stroke-linecap="butt" stroke-miterlimit="4" stroke-linejoin="miter" fill="none" stroke="#231f20" d="M256.439 165.822H234.97V180.471H256.439 256.307 277.776V165.822H256.307 256.439Z"/>
<path transform="matrix(1,0,0,-1,-42.7104,726.12)" d="M299.112 165.822H277.643V180.471H299.112 298.979 320.449V165.822H298.979 299.112" fill="#ffffff"/>
<path transform="matrix(1,0,0,-1,-42.7104,726.12)" stroke-width="1" stroke-linecap="butt" stroke-miterlimit="4" stroke-linejoin="miter" fill="none" stroke="#231f20" d="M299.112 165.822H277.643V180.471H299.112 298.979 320.449V165.822H298.979 299.112Z"/>
<path transform="matrix(1,0,0,-1,-42.7104,726.12)" d="M324.976 251.444C324.976 250.117 323.901 249.043 322.575 249.043H299.243C297.919 249.043 296.845 250.117 296.845 251.444V266.054C296.845 267.379 297.919 268.453 299.243 268.453H322.575C323.901 268.453 324.976 267.379 324.976 266.054V251.444" fill="#b1b4b6"/>
<path transform="matrix(1,0,0,-1,-42.7104,726.12)" d="M323.177 252.563C323.177 251.237 322.101 250.163 320.776 250.163H297.444C296.118 250.163 295.044 251.237 295.044 252.563V267.174C295.044 268.5 296.118 269.574 297.444 269.574H320.776C322.101 269.574 323.177 268.5 323.177 267.174V252.563" fill="#c6c8ca"/>
<path transform="matrix(1,0,0,-1,-42.7104,726.12)" stroke-width=".75" stroke-linecap="butt" stroke-miterlimit="4" stroke-linejoin="miter" fill="none" stroke="#231f20" d="M323.177 252.563C323.177 251.237 322.101 250.163 320.776 250.163H297.444C296.118 250.163 295.044 251.237 295.044 252.563V267.174C295.044 268.5 296.118 269.574 297.444 269.574H320.776C322.101 269.574 323.177 268.5 323.177 267.174V252.563Z"/>
<path transform="matrix(1,0,0,-1,-42.7104,726.12)" d="M278.091 218.52C278.091 217.194 277.017 216.119 275.69 216.119H253.359C252.035 216.119 250.959 217.194 250.959 218.52V233.131C250.959 234.456 252.035 235.53 253.359 235.53H275.69C277.017 235.53 278.091 234.456 278.091 233.131V218.52" fill="#b1b4b6"/>
<path transform="matrix(1,0,0,-1,-42.7104,726.12)" d="M276.292 219.64C276.292 218.315 275.216 217.24 273.892 217.24H251.56C250.234 217.24 249.16 218.315 249.16 219.64V234.251C249.16 235.576 250.234 236.651 251.56 236.651H273.892C275.216 236.651 276.292 235.576 276.292 234.251V219.64" fill="#c6c8ca"/>
<path transform="matrix(1,0,0,-1,-42.7104,726.12)" stroke-width=".75" stroke-linecap="butt" stroke-miterlimit="4" stroke-linejoin="miter" fill="none" stroke="#231f20" d="M276.292 219.64C276.292 218.315 275.216 217.24 273.892 217.24H251.56C250.234 217.24 249.16 218.315 249.16 219.64V234.251C249.16 235.576 250.234 236.651 251.56 236.651H273.892C275.216 236.651 276.292 235.576 276.292 234.251V219.64Z"/>
<path transform="matrix(1,0,0,-1,-42.7104,726.12)" d="M242.913 218.52C242.913 217.194 241.838 216.119 240.512 216.119H218.18C216.856 216.119 215.781 217.194 215.781 218.52V233.131C215.781 234.456 216.856 235.53 218.18 235.53H240.512C241.838 235.53 242.913 234.456 242.913 233.131V218.52" fill="#b1b4b6"/>
<path transform="matrix(1,0,0,-1,-42.7104,726.12)" d="M241.114 219.64C241.114 218.315 240.038 217.24 238.713 217.24H216.381C215.055 217.24 213.981 218.315 213.981 219.64V234.251C213.981 235.576 215.055 236.651 216.381 236.651H238.713C240.038 236.651 241.114 235.576 241.114 234.251V219.64" fill="#c6c8ca"/>
<path transform="matrix(1,0,0,-1,-42.7104,726.12)" stroke-width=".75" stroke-linecap="butt" stroke-miterlimit="4" stroke-linejoin="miter" fill="none" stroke="#231f20" d="M241.114 219.64C241.114 218.315 240.038 217.24 238.713 217.24H216.381C215.055 217.24 213.981 218.315 213.981 219.64V234.251C213.981 235.576 215.055 236.651 216.381 236.651H238.713C240.038 236.651 241.114 235.576 241.114 234.251V219.64Z"/>
<path transform="matrix(1,0,0,-1,-42.7104,726.12)" d="M205.413 218.52C205.413 217.194 204.338 216.119 203.012 216.119H182.68C181.356 216.119 180.281 217.194 180.281 218.52V233.131C180.281 234.456 181.356 235.53 182.68 235.53H203.012C204.338 235.53 205.413 234.456 205.413 233.131V218.52" fill="#b1b4b6"/>
<path transform="matrix(1,0,0,-1,-42.7104,726.12)" d="M203.614 219.64C203.614 218.315 202.538 217.24 201.213 217.24H180.881C179.555 217.24 178.481 218.315 178.481 219.64V234.251C178.481 235.576 179.555 236.651 180.881 236.651H201.213C202.538 236.651 203.614 235.576 203.614 234.251V219.64" fill="#c6c8ca"/>
<path transform="matrix(1,0,0,-1,-42.7104,726.12)" stroke-width=".75" stroke-linecap="butt" stroke-miterlimit="4" stroke-linejoin="miter" fill="none" stroke="#231f20" d="M203.614 219.64C203.614 218.315 202.538 217.24 201.213 217.24H180.881C179.555 217.24 178.481 218.315 178.481 219.64V234.251C178.481 235.576 179.555 236.651 180.881 236.651H201.213C202.538 236.651 203.614 235.576 203.614 234.251V219.64Z"/>
<path transform="matrix(1,0,0,-1,-42.7104,726.12)" d="M203.992 247.256H179.641V266.456H203.992ZM179.641 247.256" fill="#231f20"/>
<path transform="matrix(1,0,0,-1,-42.7104,726.12)" d="M203.152 248.096H178.801V267.297H203.152ZM178.801 248.096" fill="#d4effc"/>
<path transform="matrix(1,0,0,-1,-42.7104,726.12)" stroke-width=".5" stroke-linecap="butt" stroke-miterlimit="4" stroke-linejoin="miter" fill="none" stroke="#00adef" d="M203.152 248.096H178.801V267.297H203.152Z"/>
<path transform="matrix(1,0,0,-1,-42.7104,726.12)" d="M221.225 247.629H271.985L260.931 266.127H233.182L220.549 247.629H221.225" fill="#231f20"/>
<path transform="matrix(1,0,0,-1,-42.7104,726.12)" stroke-width=".5" stroke-linecap="butt" stroke-miterlimit="4" stroke-linejoin="miter" fill="none" stroke="#231f20" d="M221.225 247.629H271.985L260.931 266.127H233.182L220.549 247.629H221.225Z"/>
<path transform="matrix(1,0,0,-1,-42.7104,726.12)" d="M219.225 248.629H269.985L258.931 267.127H231.182L218.549 248.629H219.225" fill="#d4effc"/>
<path transform="matrix(1,0,0,-1,-42.7104,726.12)" stroke-width=".5" stroke-linecap="butt" stroke-miterlimit="4" stroke-linejoin="miter" fill="none" stroke="#00adef" d="M219.225 248.629H269.985L258.931 267.127H231.182L218.549 248.629H219.225Z"/>
<path transform="matrix(1,0,0,-1,-42.7104,726.12)" d="M258.005 186.954C258.005 185.989 257.221 185.203 256.255 185.203 255.289 185.203 254.505 185.989 254.505 186.954 254.505 187.919 255.289 188.703 256.255 188.703 257.221 188.703 258.005 187.919 258.005 186.954" fill="#231f20"/>
<path transform="matrix(1,0,0,-1,-42.7104,726.12)" d="M151.179 291.995C151.179 291.03 150.395 290.244 149.429 290.244 148.463 290.244 147.679 291.03 147.679 291.995 147.679 292.96 148.463 293.744 149.429 293.744 150.395 293.744 151.179 292.96 151.179 291.995" fill="#231f20"/>
<path transform="matrix(1,0,0,-1,-42.7104,726.12)" d="M151.179 208.662C151.179 207.697 150.395 206.911 149.429 206.911 148.463 206.911 147.679 207.697 147.679 208.662 147.679 209.627 148.463 210.411 149.429 210.411 150.395 210.411 151.179 209.627 151.179 208.662" fill="#231f20"/>
<path transform="matrix(1,0,0,-1,-42.7104,726.12)" d="M172.209 202.644C172.209 201.679 171.425 200.893 170.459 200.893 169.493 200.893 168.709 201.679 168.709 202.644 168.709 203.609 169.493 204.393 170.459 204.393 171.425 204.393 172.209 203.609 172.209 202.644" fill="#231f20"/>
<path transform="matrix(1,0,0,-1,-42.7104,726.12)" d="M192.513 208.662C192.513 207.697 191.729 206.911 190.763 206.911 189.797 206.911 189.013 207.697 189.013 208.662 189.013 209.627 189.797 210.411 190.763 210.411 191.729 210.411 192.513 209.627 192.513 208.662" fill="#231f20"/>
<path transform="matrix(1,0,0,-1,-42.7104,726.12)" d="M220.846 208.662C220.846 207.697 220.062 206.911 219.096 206.911 218.13 206.911 217.346 207.697 217.346 208.662 217.346 209.627 218.13 210.411 219.096 210.411 220.062 210.411 220.846 209.627 220.846 208.662" fill="#231f20"/>
<path transform="matrix(1,0,0,-1,-42.7104,726.12)" stroke-width="1.5" stroke-linecap="butt" stroke-miterlimit="4" stroke-linejoin="miter" fill="none" stroke="#231f20" d="M227.346 245.345V236.79"/>
<path transform="matrix(1,0,0,-1,-42.7104,726.12)" d="M227.346 247.498 229.206 242.947 227.346 244.027 225.486 242.947 227.346 247.498" fill="#231f20"/>
<path transform="matrix(1,0,0,-1,-42.7104,726.12)" stroke-width="1.5" stroke-linecap="butt" stroke-miterlimit="4" stroke-linejoin="miter" fill="none" stroke="#231f20" d="M263.398 213.968V195.782H303.104V181.051"/>
<path transform="matrix(1,0,0,-1,-42.7104,726.12)" d="M263.398 216.645 265.258 212.094 263.398 213.173 261.539 212.094 263.398 216.645" fill="#231f20"/>
<path transform="matrix(1,0,0,-1,-42.7104,726.12)" stroke-width=".75" stroke-linecap="butt" stroke-dasharray=".75,.75" stroke-miterlimit="4" stroke-linejoin="miter" fill="none" stroke="#231f20" d="M191.013 245.345V237.123"/>
<path transform="matrix(1,0,0,-1,-42.7104,726.12)" d="M191.013 247.498 192.253 244.464 191.013 245.184 189.773 244.464 191.013 247.498" fill="#231f20"/>
<path transform="matrix(1,0,0,-1,-42.7104,726.12)" d="M191.013 276.257 192.253 273.223 191.013 273.943 189.773 273.223 191.013 276.257" fill="#231f20"/>
<path transform="matrix(1,0,0,-1,-42.7104,726.12)" stroke-width="1.5" stroke-linecap="butt" stroke-miterlimit="4" stroke-linejoin="miter" fill="none" stroke="#231f20" d="M262.679 245.345V237.123"/>
<path transform="matrix(1,0,0,-1,-42.7104,726.12)" d="M262.679 247.498 264.539 242.947 262.679 244.027 260.819 242.947 262.679 247.498" fill="#231f20"/>
<path transform="matrix(1,0,0,-1,-42.7104,726.12)" stroke-width=".5" stroke-linecap="butt" stroke-miterlimit="4" stroke-linejoin="miter" fill="none" stroke="#231f20" d="M191.065 273.943V267.154"/>
<path transform="matrix(1,0,0,-1,-42.7104,726.12)" d="M207.992 276.29H179.641V295.49003H207.992ZM179.641 276.29" fill="#231f20"/>
<path transform="matrix(1,0,0,-1,-42.7104,726.12)" d="M207.152 277.13H178.801V296.331H207.152ZM178.801 277.13" fill="#d4effc"/>
<path transform="matrix(1,0,0,-1,-42.7104,726.12)" stroke-width=".5" stroke-linecap="butt" stroke-miterlimit="4" stroke-linejoin="miter" fill="none" stroke="#00adef" d="M207.152 277.13H178.801V296.331H207.152Z"/>
<path transform="matrix(1,0,0,-1,-42.7104,726.12)" stroke-width=".75" stroke-linecap="butt" stroke-dasharray=".75,.75" stroke-miterlimit="4" stroke-linejoin="miter" fill="none" stroke="#231f20" d="M192.732 334.578V296.189"/>
<path transform="matrix(1,0,0,-1,-42.7104,726.12)" d="M192.732 336.732 193.972 333.697 192.732 334.417 191.492 333.697 192.732 336.732" fill="#231f20"/>
<path transform="matrix(1,0,0,-1,-42.7104,726.12)" stroke-width="1.5" stroke-linecap="butt" stroke-miterlimit="4" stroke-linejoin="miter" fill="none" stroke="#231f20" d="M245.81 334.578V267.82"/>
<path transform="matrix(1,0,0,-1,-42.7104,726.12)" d="M245.81 337.232 247.67 332.68 245.81 333.76 243.95 332.68 245.81 337.232" fill="#231f20"/>
<path transform="matrix(1,0,0,-1,-42.7104,726.12)" stroke-width="1.5" stroke-linecap="butt" stroke-miterlimit="4" stroke-linejoin="miter" fill="none" stroke="#231f20" d="M256.165 180.745V187.148"/>
<text fill="#231f20" xml:space="preserve" transform="matrix(1 0 -0 1 -42.7104 726.12)" font-size="6" font-family="Helvetica"><tspan y="-306.531" x="194.753 198.089 201.425 205.757 209.093">e_Cnd</tspan><tspan y="-321.5058" x="199.67781 203.67981 207.01581 208.34781 211.34781 214.6838 218.0198">E_icode</tspan><tspan y="-228.6288" x="94.49962 100.16362 103.49962 106.49962 108.16762 111.50362">W_stat</tspan><tspan y="-219.693" x="95.16562 100.16362 103.49962 106.49962 108.16762 111.50362">m_stat</tspan><tspan y="-411.3858" x="382.42283 387.4208 390.7568 394.0928 397.0928 398.7608">M_dstM</tspan><tspan y="-248.4306" x="386.58683 390.58885 393.92485 396.92485 398.92283 401.92283">E_srcA</tspan><tspan y="-430.33863" x="382.59083 387.5888 390.9248 393.9248 397.2608 398.5928">m_valM</tspan><tspan y="-282.06843" x="291.59065 295.59266 298.92866 301.92866 305.26466 306.59666">E_valA</tspan></text>
<path transform="matrix(1,0,0,-1,-42.7104,726.12)" d="M304.011 312.89C304.011 311.234 302.667 309.89 301.011 309.89H279.345C277.688 309.89 276.345 311.234 276.345 312.89V324.153C276.345 325.812 277.688 327.153 279.345 327.153H301.011C302.667 327.153 304.011 325.812 304.011 324.153V312.89" fill="#b1b4b6"/>
<path transform="matrix(1,0,0,-1,-42.7104,726.12)" d="M301.761 314.29C301.761 312.634 300.417 311.29 298.761 311.29H277.095C275.438 311.29 274.573 313.155 274.573 314.812V326.075C274.573 327.734 275.438 328.554 277.095 328.554H298.761C300.417 328.554 301.761 327.212 301.761 325.554V314.29" fill="#c6c8ca"/>
<path transform="matrix(1,0,0,-1,-42.7104,726.12)" stroke-width=".75" stroke-linecap="butt" stroke-miterlimit="4" stroke-linejoin="miter" fill="none" stroke="#231f20" d="M301.761 314.29C301.761 312.634 300.417 311.29 298.761 311.29H277.095C275.438 311.29 274.573 313.155 274.573 314.812V326.075C274.573 327.734 275.438 328.554 277.095 328.554H298.761C300.417 328.554 301.761 327.212 301.761 325.554V314.29Z"/>
<path transform="matrix(1,0,0,-1,-42.7104,726.12)" d="M234.012 410.137C234.012 408.481 232.668 407.137 231.012 407.137H207.346C205.689 407.137 204.346 408.481 204.346 410.137V424.401C204.346 426.059 205.689 427.401 207.346 427.401H231.012C232.668 427.401 234.012 426.059 234.012 424.401V410.137" fill="#b1b4b6"/>
<path transform="matrix(1,0,0,-1,-42.7104,726.12)" d="M231.762 411.538C231.762 409.882 230.418 408.538 228.762 408.538H205.096C203.439 408.538 202.574 410.403 202.574 412.06V426.323C202.574 427.981 203.439 428.802 205.096 428.802H228.762C230.418 428.802 231.762 427.46 231.762 425.802V411.538" fill="#c6c8ca"/>
<path transform="matrix(1,0,0,-1,-42.7104,726.12)" stroke-width=".75" stroke-linecap="butt" stroke-miterlimit="4" stroke-linejoin="miter" fill="none" stroke="#231f20" d="M231.762 411.538C231.762 409.882 230.418 408.538 228.762 408.538H205.096C203.439 408.538 202.574 410.403 202.574 412.06V426.323C202.574 427.981 203.439 428.802 205.096 428.802H228.762C230.418 428.802 231.762 427.46 231.762 425.802V411.538Z"/>
<path transform="matrix(1,0,0,-1,-42.7104,726.12)" d="M234.012 386.942C234.012 385.286 232.668 383.942 231.012 383.942H207.346C205.689 383.942 204.346 385.286 204.346 386.942V401.206C204.346 402.864 205.689 404.206 207.346 404.206H231.012C232.668 404.206 234.012 402.864 234.012 401.206V386.942" fill="#b1b4b6"/>
<path transform="matrix(1,0,0,-1,-42.7104,726.12)" d="M231.762 388.342C231.762 386.686 230.418 385.342 228.762 385.342H205.096C203.439 385.342 202.574 387.207 202.574 388.864V403.127C202.574 404.785 203.439 405.606 205.096 405.606H228.762C230.418 405.606 231.762 404.264 231.762 402.606V388.342" fill="#c6c8ca"/>
<path transform="matrix(1,0,0,-1,-42.7104,726.12)" stroke-width=".75" stroke-linecap="butt" stroke-miterlimit="4" stroke-linejoin="miter" fill="none" stroke="#231f20" d="M231.762 388.342C231.762 386.686 230.418 385.342 228.762 385.342H205.096C203.439 385.342 202.574 387.207 202.574 388.864V403.127C202.574 404.785 203.439 405.606 205.096 405.606H228.762C230.418 405.606 231.762 404.264 231.762 402.606V388.342Z"/>
<path transform="matrix(1,0,0,-1,-42.7104,726.12)" d="M285.005 371.387C285.005 370.062 283.931 368.988 282.604 368.988H265.272C263.948 368.988 262.873 370.062 262.873 371.387V381.997C262.873 383.324 263.948 384.398 265.272 384.398H282.604C283.931 384.398 285.005 383.324 285.005 381.997V371.387" fill="#b1b4b6"/>
<path transform="matrix(1,0,0,-1,-42.7104,726.12)" d="M283.206 372.507C283.206 371.181 282.13 370.107 280.806 370.107H263.474C262.147 370.107 261.073 371.181 261.073 372.507V383.118C261.073 384.445 262.147 385.519 263.474 385.519H280.806C282.13 385.519 283.206 384.445 283.206 383.118V372.507" fill="#c6c8ca"/>
<path transform="matrix(1,0,0,-1,-42.7104,726.12)" stroke-width=".75" stroke-linecap="butt" stroke-miterlimit="4" stroke-linejoin="miter" fill="none" stroke="#231f20" d="M283.206 372.507C283.206 371.181 282.13 370.107 280.806 370.107H263.474C262.147 370.107 261.073 371.181 261.073 372.507V383.118C261.073 384.445 262.147 385.519 263.474 385.519H280.806C282.13 385.519 283.206 384.445 283.206 383.118V372.507Z"/>
<path transform="matrix(1,0,0,-1,-42.7104,726.12)" d="M247.829 360.371C247.829 359.406 247.045 358.62 246.079 358.62 245.114 358.62 244.329 359.406 244.329 360.371 244.329 361.336 245.114 362.12 246.079 362.12 247.045 362.12 247.829 361.336 247.829 360.371" fill="#231f20"/>
<path transform="matrix(1,0,0,-1,-42.7104,726.12)" d="M290.263 360.343C290.263 359.379 289.479 358.592 288.513 358.592 287.547 358.592 286.763 359.379 286.763 360.343 286.763 361.308 287.547 362.092 288.513 362.092 289.479 362.092 290.263 361.308 290.263 360.343" fill="#231f20"/>
<path transform="matrix(1,0,0,-1,-42.7104,726.12)" d="M290.263 437.985C290.263 437.02 289.479 436.234 288.513 436.234 287.547 436.234 286.763 437.02 286.763 437.985 286.763 438.95 287.547 439.734 288.513 439.734 289.479 439.734 290.263 438.95 290.263 437.985" fill="#231f20"/>
<path transform="matrix(1,0,0,-1,-42.7104,726.12)" d="M364.763 408.676C364.763 407.711 363.979 406.925 363.013 406.925 362.047 406.925 361.263 407.711 361.263 408.676 361.263 409.641 362.047 410.425 363.013 410.425 363.979 410.425 364.763 409.641 364.763 408.676" fill="#231f20"/>
<path transform="matrix(1,0,0,-1,-42.7104,726.12)" stroke-width=".75" stroke-linecap="butt" stroke-dasharray=".75,.75" stroke-miterlimit="4" stroke-linejoin="miter" fill="none" stroke="#231f20" d="M231.678 418.629H264.607"/>
<path transform="matrix(1,0,0,-1,-42.7104,726.12)" d="M266.952 418.629 263.918 417.389 264.638 418.629 263.918 419.869 266.952 418.629" fill="#231f20"/>
<path transform="matrix(1,0,0,-1,-42.7104,726.12)" stroke-width=".75" stroke-linecap="butt" stroke-dasharray=".75,.75" stroke-miterlimit="4" stroke-linejoin="miter" fill="none" stroke="#231f20" d="M141.022 432.963H270.95V417.79"/>
<path transform="matrix(1,0,0,-1,-42.7104,726.12)" d="M138.678 432.963 141.712 431.723 140.992 432.963 141.712 434.203 138.678 432.963" fill="#231f20"/>
<path transform="matrix(1,0,0,-1,-42.7104,726.12)" stroke-width=".5" stroke-linecap="butt" stroke-miterlimit="4" stroke-linejoin="miter" fill="none" stroke="#231f20" d="M149.607 377.664H257.98"/>
<path transform="matrix(1,0,0,-1,-42.7104,726.12)" d="M260.325 377.664 257.291 376.424 258.011 377.664 257.291 378.904 260.325 377.664" fill="#231f20"/>
<path transform="matrix(1,0,0,-1,-42.7104,726.12)" stroke-width=".5" stroke-linecap="butt" stroke-miterlimit="4" stroke-linejoin="miter" fill="none" stroke="#231f20" d="M114.796 230.428H176.17"/>
<path transform="matrix(1,0,0,-1,-42.7104,726.12)" d="M178.514 230.428 175.48 229.188 176.2 230.428 175.48 231.668 178.514 230.428" fill="#231f20"/>
<path transform="matrix(1,0,0,-1,-42.7104,726.12)" stroke-width=".5" stroke-linecap="butt" stroke-miterlimit="4" stroke-linejoin="miter" fill="none" stroke="#231f20" d="M114.796 221.172H176.17"/>
<path transform="matrix(1,0,0,-1,-42.7104,726.12)" d="M178.514 221.172 175.48 219.932 176.2 221.172 175.48 222.412 178.514 221.172" fill="#231f20"/>
<path transform="matrix(1,0,0,-1,-42.7104,726.12)" stroke-width=".5" stroke-linecap="butt" stroke-miterlimit="4" stroke-linejoin="miter" fill="none" stroke="#231f20" d="M149.116 292.129H176.107"/>
<path transform="matrix(1,0,0,-1,-42.7104,726.12)" d="M178.452 292.129 175.418 290.889 176.138 292.129 175.418 293.369 178.452 292.129" fill="#231f20"/>
<path transform="matrix(1,0,0,-1,-42.7104,726.12)" d="M194.679 300.989C194.679 300.025 193.895 299.238 192.929 299.238 191.963 299.238 191.179 300.025 191.179 300.989 191.179 301.954 191.963 302.738 192.929 302.738 193.895 302.738 194.679 301.954 194.679 300.989" fill="#231f20"/>
<path transform="matrix(1,0,0,-1,-42.7104,726.12)" stroke-width=".5" stroke-linecap="butt" stroke-dasharray=".75,.75" stroke-miterlimit="4" stroke-linejoin="miter" fill="none" stroke="#231f20" d="M192.616 301.123H327.271"/>
<path transform="matrix(1,0,0,-1,-42.7104,726.12)" d="M329.616 301.123 326.582 299.883 327.302 301.123 326.582 302.363 329.616 301.123" fill="#231f20"/>
<path transform="matrix(1,0,0,-1,-42.7104,726.12)" d="M151.179 318.661C151.179 317.696 150.395 316.91 149.429 316.91 148.463 316.91 147.679 317.696 147.679 318.661 147.679 319.626 148.463 320.41 149.429 320.41 150.395 320.41 151.179 319.626 151.179 318.661" fill="#231f20"/>
<path transform="matrix(1,0,0,-1,-42.7104,726.12)" d="M151.179 377.473C151.179 376.508 150.395 375.722 149.429 375.722 148.463 375.722 147.679 376.508 147.679 377.473 147.679 378.438 148.463 379.222 149.429 379.222 150.395 379.222 151.179 378.438 151.179 377.473" fill="#231f20"/>
<path transform="matrix(1,0,0,-1,-42.7104,726.12)" d="M151.179 396.45C151.179 395.485 150.395 394.699 149.429 394.699 148.463 394.699 147.679 395.485 147.679 396.45 147.679 397.415 148.463 398.199 149.429 398.199 150.395 398.199 151.179 397.415 151.179 396.45" fill="#231f20"/>
<path transform="matrix(1,0,0,-1,-42.7104,726.12)" d="M151.179 418.699C151.179 417.734 150.395 416.948 149.429 416.948 148.463 416.948 147.679 417.734 147.679 418.699 147.679 419.664 148.463 420.448 149.429 420.448 150.395 420.448 151.179 419.664 151.179 418.699" fill="#231f20"/>
<path transform="matrix(1,0,0,-1,-42.7104,726.12)" stroke-width=".5" stroke-linecap="butt" stroke-miterlimit="4" stroke-linejoin="miter" fill="none" stroke="#231f20" d="M149.116 318.795H272.108"/>
<path transform="matrix(1,0,0,-1,-42.7104,726.12)" d="M274.452 318.795 271.419 317.555 272.138 318.795 271.419 320.035 274.452 318.795" fill="#231f20"/>
<path transform="matrix(1,0,0,-1,-42.7104,726.12)" stroke-width=".5" stroke-linecap="butt" stroke-miterlimit="4" stroke-linejoin="miter" fill="none" stroke="#231f20" d="M176.107 280.629H170.616V180.995"/>
<path transform="matrix(1,0,0,-1,-42.7104,726.12)" d="M178.452 280.629 175.418 279.389 176.138 280.629 175.418 281.869 178.452 280.629" fill="#231f20"/>
<path transform="matrix(1,0,0,-1,-42.7104,726.12)" stroke-width=".75" stroke-linecap="butt" stroke-dasharray=".75,.75" stroke-miterlimit="4" stroke-linejoin="miter" fill="none" stroke="#231f20" d="M231.678 396.345H264.607"/>
<path transform="matrix(1,0,0,-1,-42.7104,726.12)" d="M266.952 396.345 263.918 395.106 264.638 396.345 263.918 397.585 266.952 396.345" fill="#231f20"/>
<path transform="matrix(1,0,0,-1,-42.7104,726.12)" stroke-width=".5" stroke-linecap="butt" stroke-miterlimit="4" stroke-linejoin="miter" fill="none" stroke="#231f20" d="M149.782 418.629H199.754"/>
<path transform="matrix(1,0,0,-1,-42.7104,726.12)" d="M202.099 418.629 199.064 417.389 199.784 418.629 199.064 419.869 202.099 418.629" fill="#231f20"/>
<path transform="matrix(1,0,0,-1,-42.7104,726.12)" stroke-width=".5" stroke-linecap="butt" stroke-miterlimit="4" stroke-linejoin="miter" fill="none" stroke="#231f20" d="M149.782 396.345H199.754"/>
<path transform="matrix(1,0,0,-1,-42.7104,726.12)" d="M202.099 396.345 199.064 395.106 199.784 396.345 199.064 397.585 202.099 396.345" fill="#231f20"/>
<path transform="matrix(1,0,0,-1,-42.7104,726.12)" stroke-width="1.5" stroke-linecap="butt" stroke-miterlimit="4" stroke-linejoin="miter" fill="none" stroke="#231f20" d="M288.42 352.611V390.792"/>
<path transform="matrix(1,0,0,-1,-42.7104,726.12)" d="M288.42 392.945 290.28 388.393 288.42 389.473 286.561 388.393 288.42 392.945" fill="#231f20"/>
<path transform="matrix(1,0,0,-1,-42.7104,726.12)" stroke-width="1.5" stroke-linecap="butt" stroke-miterlimit="4" stroke-linejoin="miter" fill="none" stroke="#231f20" d="M288.42 328.448V335.253"/>
<path transform="matrix(1,0,0,-1,-42.7104,726.12)" d="M288.42 337.406 290.28 332.856 288.42 333.935 286.561 332.856 288.42 337.406" fill="#231f20"/>
<path transform="matrix(1,0,0,-1,-42.7104,726.12)" stroke-width="1.5" stroke-linecap="butt" stroke-miterlimit="4" stroke-linejoin="miter" fill="none" stroke="#231f20" d="M288.322 421.349V445.206"/>
<path transform="matrix(1,0,0,-1,-42.7104,726.12)" d="M288.322 448.109 290.183 443.557 288.322 444.637 286.463 443.557 288.322 448.109" fill="#231f20"/>
<path transform="matrix(1,0,0,-1,-42.7104,726.12)" stroke-width="1.5" stroke-linecap="butt" stroke-miterlimit="4" stroke-linejoin="miter" fill="none" stroke="#231f20" d="M272.774 385.531V390.72"/>
<path transform="matrix(1,0,0,-1,-42.7104,726.12)" d="M272.774 392.874 274.635 388.322 272.774 389.402 270.915 388.322 272.774 392.874" fill="#231f20"/>
<path transform="matrix(1,0,0,-1,-42.7104,726.12)" stroke-width="1.5" stroke-linecap="butt" stroke-miterlimit="4" stroke-linejoin="miter" fill="none" stroke="#231f20" d="M245.833 360.53H267.261V367.84"/>
<path transform="matrix(1,0,0,-1,-42.7104,726.12)" d="M267.261 369.993 269.121 365.441 267.261 366.521 265.401 365.441 267.261 369.993" fill="#231f20"/>
<path transform="matrix(1,0,0,-1,-42.7104,726.12)" stroke-width="1.5" stroke-linecap="butt" stroke-miterlimit="4" stroke-linejoin="miter" fill="none" stroke="#231f20" d="M245.833 445.84V352.554"/>
<path transform="matrix(1,0,0,-1,-42.7104,726.12)" d="M245.833 447.993 247.692 443.441 245.833 444.521 243.973 443.441 245.833 447.993" fill="#231f20"/>
<path transform="matrix(1,0,0,-1,-42.7104,726.12)" stroke-width="1.5" stroke-linecap="butt" stroke-miterlimit="4" stroke-linejoin="miter" fill="none" stroke="#231f20" d="M277.593 367.721V360.503H288.851"/>
<path transform="matrix(1,0,0,-1,-42.7104,726.12)" d="M277.593 369.874 279.453 365.322 277.593 366.402 275.733 365.322 277.593 369.874" fill="#231f20"/>
<path transform="matrix(1,0,0,-1,-42.7104,726.12)" stroke-width="1.5" stroke-linecap="butt" stroke-miterlimit="4" stroke-linejoin="miter" fill="none" stroke="#231f20" d="M288.155 437.708H429.994V319.79H304.616"/>
<path transform="matrix(1,0,0,-1,-42.7104,726.12)" d="M302.463 319.79 307.015 321.651 305.935 319.79 307.015 317.931 302.463 319.79" fill="#231f20"/>
<path transform="matrix(1,0,0,-1,-42.7104,726.12)" stroke-width=".5" stroke-linecap="butt" stroke-miterlimit="4" stroke-linejoin="miter" fill="none" stroke="#231f20" d="M342.42 352.729V445.976"/>
<path transform="matrix(1,0,0,-1,-42.7104,726.12)" d="M342.42 448.129 343.66 445.095 342.42 445.814 341.181 445.095 342.42 448.129" fill="#231f20"/>
<path transform="matrix(1,0,0,-1,-42.7104,726.12)" stroke-width=".5" stroke-linecap="butt" stroke-miterlimit="4" stroke-linejoin="miter" fill="none" stroke="#231f20" d="M149.281 352.729V445.976"/>
<path transform="matrix(1,0,0,-1,-42.7104,726.12)" d="M149.281 448.129 150.521 445.095 149.281 445.814 148.042 445.095 149.281 448.129" fill="#231f20"/>
<path transform="matrix(1,0,0,-1,-42.7104,726.12)" d="M301.957 324.936 304.99 326.176 304.271 324.936 304.99 323.696 301.957 324.936" fill="#231f20"/>
<path transform="matrix(1,0,0,-1,-42.7104,726.12)" stroke-width=".5" stroke-linecap="butt" stroke-miterlimit="4" stroke-linejoin="miter" fill="none" stroke="#231f20" d="M128.281 352.729V422.976"/>
<path transform="matrix(1,0,0,-1,-42.7104,726.12)" d="M128.281 425.129 129.521 422.095 128.281 422.814 127.042 422.095 128.281 425.129" fill="#231f20"/>
<path transform="matrix(1,0,0,-1,-42.7104,726.12)" stroke-width=".5" stroke-linecap="butt" stroke-miterlimit="4" stroke-linejoin="miter" fill="none" stroke="#231f20" d="M362.933 352.729V445.976"/>
<path transform="matrix(1,0,0,-1,-42.7104,726.12)" d="M362.933 448.129 364.173 445.095 362.933 445.814 361.693 445.095 362.933 448.129" fill="#231f20"/>
<path transform="matrix(1,0,0,-1,-42.7104,726.12)" stroke-width=".5" stroke-linecap="butt" stroke-miterlimit="4" stroke-linejoin="miter" fill="none" stroke="#231f20" d="M127.841 438.843V445.697"/>
<path transform="matrix(1,0,0,-1,-42.7104,726.12)" d="M127.841 447.849 129.081 444.814 127.841 445.534 126.602 444.814 127.841 447.849" fill="#231f20"/>
<path transform="matrix(1,0,0,-1,-42.7104,726.12)" d="M302.753 249.463 303.993 246.428 302.753 247.149 301.514 246.428 302.753 249.463" fill="#231f20"/>
<path transform="matrix(1,0,0,-1,-42.7104,726.12)" stroke-width=".5" stroke-linecap="butt" stroke-miterlimit="4" stroke-linejoin="miter" fill="none" stroke="#231f20" d="M316.44 247.311V202.623H170.246"/>
<path transform="matrix(1,0,0,-1,-42.7104,726.12)" d="M316.44 249.463 317.681 246.428 316.44 247.149 315.201 246.428 316.44 249.463" fill="#231f20"/>
<path transform="matrix(1,0,0,-1,-42.7104,726.12)" stroke-width=".5" stroke-linecap="butt" stroke-miterlimit="4" stroke-linejoin="miter" fill="none" stroke="#231f20" d="M149.42 180.601V334.977"/>
<path transform="matrix(1,0,0,-1,-42.7104,726.12)" d="M149.42 337.129 150.66 334.094 149.42 334.815 148.181 334.094 149.42 337.129" fill="#231f20"/>
<path transform="matrix(1,0,0,-1,-42.7104,726.12)" stroke-width=".5" stroke-linecap="butt" stroke-miterlimit="4" stroke-linejoin="miter" fill="none" stroke="#231f20" d="M128.42 180.601V334.977"/>
<path transform="matrix(1,0,0,-1,-42.7104,726.12)" d="M128.42 337.129 129.66 334.094 128.42 334.815 127.181 334.094 128.42 337.129" fill="#231f20"/>
<path transform="matrix(1,0,0,-1,-42.7104,726.12)" stroke-width=".5" stroke-linecap="butt" stroke-miterlimit="4" stroke-linejoin="miter" fill="none" stroke="#231f20" d="M362.933 180.601V334.977"/>
<path transform="matrix(1,0,0,-1,-42.7104,726.12)" d="M362.933 337.129 364.173 334.094 362.933 334.815 361.693 334.094 362.933 337.129" fill="#231f20"/>
<path transform="matrix(1,0,0,-1,-42.7104,726.12)" stroke-width=".5" stroke-linecap="butt" stroke-miterlimit="4" stroke-linejoin="miter" fill="none" stroke="#231f20" d="M342.709 305.041V334.977"/>
<path transform="matrix(1,0,0,-1,-42.7104,726.12)" d="M342.709 337.129 343.949 334.094 342.709 334.815 341.47 334.094 342.709 337.129" fill="#231f20"/>
<path transform="matrix(1,0,0,-1,-42.7104,726.12)" stroke-width=".5" stroke-linecap="butt" stroke-miterlimit="4" stroke-linejoin="miter" fill="none" stroke="#231f20" d="M362.933 408.706H422.896V325.03H303.953"/>
<path transform="matrix(1,0,0,-1,-42.7104,726.12)" d="M301.957 314.645 304.99 313.404 304.271 314.645 304.99 315.884 301.957 314.645" fill="#231f20"/>
<path transform="matrix(1,0,0,-1,-42.7104,726.12)" stroke-width=".5" stroke-linecap="butt" stroke-miterlimit="4" stroke-linejoin="miter" fill="none" stroke="#231f20" d="M383.896 180.495V314.55H303.953M191.012 208.477V214.627"/>
<path transform="matrix(1,0,0,-1,-42.7104,726.12)" d="M191.012 216.973 192.252 213.938 191.012 214.658 189.772 213.938 191.012 216.973" fill="#231f20"/>
<path transform="matrix(1,0,0,-1,-42.7104,726.12)" stroke-width=".5" stroke-linecap="butt" stroke-miterlimit="4" stroke-linejoin="miter" fill="none" stroke="#231f20" d="M219.052 208.477V214.627"/>
<path transform="matrix(1,0,0,-1,-42.7104,726.12)" d="M219.052 216.973 220.292 213.938 219.052 214.658 217.812 213.938 219.052 216.973" fill="#231f20"/>
<path transform="matrix(1,0,0,-1,-42.7104,726.12)" d="M257.565 208.662C257.565 207.697 256.781 206.911 255.815 206.911 254.85 206.911 254.065 207.697 254.065 208.662 254.065 209.627 254.85 210.411 255.815 210.411 256.781 210.411 257.565 209.627 257.565 208.662" fill="#231f20"/>
<path transform="matrix(1,0,0,-1,-42.7104,726.12)" stroke-width=".5" stroke-linecap="butt" stroke-miterlimit="4" stroke-linejoin="miter" fill="none" stroke="#231f20" d="M255.771 208.477V214.627"/>
<path transform="matrix(1,0,0,-1,-42.7104,726.12)" d="M255.771 216.973 257.012 213.938 255.771 214.658 254.531 213.938 255.771 216.973" fill="#231f20"/>
<path transform="matrix(1,0,0,-1,-42.7104,726.12)" stroke-width="1.5" stroke-linecap="butt" stroke-miterlimit="4" stroke-linejoin="miter" fill="none" stroke="#231f20" d="M227.598 180.576V214.627"/>
<path transform="matrix(1,0,0,-1,-42.7104,726.12)" d="M227.598 216.973 229.458 212.42 227.598 213.501 225.738 212.42 227.598 216.973" fill="#231f20"/>
<path transform="matrix(1,0,0,-1,-42.7104,726.12)" stroke-width=".5" stroke-linecap="butt" stroke-miterlimit="4" stroke-linejoin="miter" fill="none" stroke="#231f20" d="M302.771 248.201V208.478H149.55"/>
<path transform="matrix(1,0,0,-1,-42.7104,726.12)" stroke-width="1.5" stroke-linecap="butt" stroke-miterlimit="4" stroke-linejoin="miter" fill="none" stroke="#231f20" d="M235.465 214.884V186.745H288.417V307.951"/>
<path transform="matrix(1,0,0,-1,-42.7104,726.12)" d="M235.465 217.169 237.325 212.617 235.465 213.697 233.605 212.617 235.465 217.169" fill="#231f20"/>
<path transform="matrix(1,0,0,-1,-42.7104,726.12)" d="M288.417 310.605 290.277 306.053 288.417 307.133 286.558 306.053 288.417 310.605" fill="#231f20"/>
<path transform="matrix(1,0,0,-1,-42.7104,726.12)" d="M137.877 427.728C137.877 426.402 136.801 425.328 135.477 425.328H118.145C116.818 425.328 115.744 426.402 115.744 427.728V438.339C115.744 439.666 116.818 440.74 118.145 440.74H135.477C136.801 440.74 137.877 439.666 137.877 438.339V427.728" fill="#c6c8ca"/>
<path transform="matrix(1,0,0,-1,-42.7104,726.12)" stroke-width=".75" stroke-linecap="butt" stroke-miterlimit="4" stroke-linejoin="miter" fill="none" stroke="#231f20" d="M137.877 427.728C137.877 426.402 136.801 425.328 135.477 425.328H118.145C116.818 425.328 115.744 426.402 115.744 427.728V438.339C115.744 439.666 116.818 440.74 118.145 440.74H135.477C136.801 440.74 137.877 439.666 137.877 438.339V427.728Z"/>
<path transform="matrix(1,0,0,-1,-42.7104,726.12)" d="M353.481 292.029C353.481 290.705 352.407 289.631 351.081 289.631H333.749C332.425 289.631 331.35 290.705 331.35 292.029V302.641C331.35 303.967 332.425 305.041 333.749 305.041H351.081C352.407 305.041 353.481 303.967 353.481 302.641V292.029" fill="#b1b4b6"/>
<path transform="matrix(1,0,0,-1,-42.7104,726.12)" d="M351.683 293.151C351.683 291.824 350.606 290.75 349.282 290.75H331.95C330.624 290.75 329.55 291.824 329.55 293.151V303.762C329.55 305.088 330.624 306.162 331.95 306.162H349.282C350.606 306.162 351.683 305.088 351.683 303.762V293.151" fill="#c6c8ca"/>
<path transform="matrix(1,0,0,-1,-42.7104,726.12)" stroke-width=".75" stroke-linecap="butt" stroke-miterlimit="4" stroke-linejoin="miter" fill="none" stroke="#231f20" d="M351.683 293.151C351.683 291.824 350.606 290.75 349.282 290.75H331.95C330.624 290.75 329.55 291.824 329.55 293.151V303.762C329.55 305.088 330.624 306.162 331.95 306.162H349.282C350.606 306.162 351.683 305.088 351.683 303.762V293.151Z"/>
<path transform="matrix(1,0,0,-1,-42.7104,726.12)" stroke-width=".5" stroke-linecap="butt" stroke-miterlimit="4" stroke-linejoin="miter" fill="none" stroke="#231f20" d="M342.42 178.789V288.285"/>
<path transform="matrix(1,0,0,-1,-42.7104,726.12)" d="M342.42 290.438 343.66 287.402 342.42 288.123 341.181 287.402 342.42 290.438" fill="#231f20"/>
<path transform="matrix(1,0,0,-1,-42.7104,726.12)" d="M352.199 165.822H330.854V180.47101H352.199ZM330.854 165.822" fill="#ffffff"/>
<path transform="matrix(1,0,0,-1,-42.7104,726.12)" stroke-width="1" stroke-linecap="butt" stroke-miterlimit="4" stroke-linejoin="miter" fill="none" stroke="#231f20" d="M352.199 165.822H330.854V180.47101H352.199Z"/>
<path transform="matrix(1,0,0,-1,-42.7104,726.12)" d="M311.29 393.08H268.54V427.08H311.29ZM268.54 393.08" fill="#231f20"/>
<path transform="matrix(1,0,0,-1,-42.7104,726.12)" d="M309.991 394.379H267.24V428.379H309.991ZM267.24 394.379" fill="#d4effc"/>
<path transform="matrix(1,0,0,-1,-42.7104,726.12)" stroke-width=".5" stroke-linecap="butt" stroke-miterlimit="4" stroke-linejoin="miter" fill="none" stroke="#00adef" d="M309.991 394.379H267.24V428.379H309.991Z"/>
<text fill="#ffffff" xml:space="preserve" transform="matrix(1 0 -0 1 -42.7104 726.12)" font-size="8" font-family="Helvetica"><tspan y="-452.835" x="98.9262">W</tspan></text>
<text fill="#231f20" xml:space="preserve" transform="matrix(1 0 -0 1 -42.7104 726.12)" font-size="8" font-family="Helvetica"><tspan y="-452.835" x="139.83499 141.611 145.611 150.05899 154.50699 120.47659 124.47659 126.70059 131.14859">icodestat</tspan><tspan y="-342.0902" x="120.47659 124.47659 126.70059 131.14859">stat</tspan><tspan y="-170.0086" x="120.47659 124.47659 126.70059 131.14859">stat</tspan><tspan y="-452.83583" x="238.82379 242.82379 247.27179 249.04779 279.81819 283.81819 288.26618 290.04219 333.391 337.839 341.839 344.063 354.4134 358.8614 362.8614 365.0854">valEvalMdstEdstM</tspan></text>
<text fill="#ffffff" xml:space="preserve" transform="matrix(1 0 -0 1 -42.7104 726.12)" font-size="8" font-family="Helvetica"><tspan y="-342.091" x="99.37019">M</tspan></text>
<text fill="#231f20" xml:space="preserve" transform="matrix(1 0 -0 1 -42.7104 726.12)" font-size="8" font-family="Helvetica"><tspan y="-342.091" x="139.83499 141.611 145.611 150.05899 154.50699 184.73259 190.50859 194.95659 238.42539 242.42539 246.87339 248.64939 281.31819 285.31819 289.76618 291.54219 332.99098 337.43898 341.43898 343.66297 354.01417 358.46217 362.46217 364.68617">icodeCndvalEvalAdstEdstM</tspan></text>
<text fill="#ffffff" xml:space="preserve" transform="matrix(1 0 -0 1 -42.7104 726.12)" font-size="8" font-family="Helvetica"><tspan y="-170.0094" x="100.034198">E</tspan></text>
<text fill="#231f20" xml:space="preserve" transform="matrix(1 0 -0 1 -42.7104 726.12)" font-size="8" font-family="Helvetica"><tspan y="-170.0094" x="139.83499 141.611 145.611 150.05899 154.50699 165.33419 167.11019 169.33419 173.78218 206.36939 210.36939 214.81739 216.59339 249.4822 253.4822 257.9302 259.7062 291.935 295.935 300.383 302.159 353.61579 358.06379 362.06379 364.28779 376.19099 380.19099 382.85499 386.85499 397.30778 401.30778 403.97178 407.97178">icodeifunvalCvalAvalBdstMsrcAsrcB</tspan></text>
<text fill="#231f20" xml:space="preserve" transform="matrix(1 0 -0 1 -42.7104 726.12)" font-size="7.5" font-family="Helvetica"><tspan y="-228.026" x="220.283 225.2855 229.4555">ALU</tspan><tspan y="-220.02576" x="225.281">A</tspan><tspan y="-228.52475" x="185.69826 190.70076 194.87076">Set</tspan><tspan y="-220.5245" x="185.91126 191.32625">CC</tspan><tspan y="-228.0245" x="256.112 261.1145 265.28453">ALU</tspan><tspan y="-220.02426" x="260.90525">B</tspan><tspan y="-261.3425" x="302.35624 307.35874 311.52876">ALU</tspan><tspan y="-253.34226" x="303.39424 305.47923 309.64924 313.81925">fun.</tspan></text>
<text fill="#231f20" xml:space="preserve" transform="matrix(1 0 -0 1 -42.7104 726.12)" font-size="8" font-family="Helvetica"><tspan y="-254.695" x="238.048 243.384 247.832">ALU</tspan><tspan y="-254.8862" x="185.2792 191.0552">CC</tspan><tspan y="-283.9198" x="183.66 187.66 192.108 196.556">cond</tspan></text>
<text fill="#231f20" xml:space="preserve" transform="matrix(1 0 -0 1 -42.7104 726.12)" font-size="6" font-family="Helvetica"><tspan y="-430.761" x="290.004 293.34 296.676 298.344 301.68 303.348 306.684 310.02">data out</tspan><tspan y="-387.15" x="291.0432 294.3792 297.7152 299.3832 302.7192 304.3872 305.7192">data in</tspan><tspan y="-420.753" x="251.39821 253.39621 256.7322 260.0682">read</tspan><tspan y="-435.75419" x="175.06742 178.40341 183.40142 186.73741 191.73542 195.07141 198.40741 200.40541 202.40341 205.73941">dmem_error</tspan><tspan y="-389.81398" x="250.64522 254.97722 256.97523 258.30723 259.97523">write</tspan></text>
<text fill="#231f20" xml:space="preserve" transform="matrix(1 0 -0 1 -42.7104 726.12)" font-size="7.5" font-family="Helvetica"><tspan y="-374.714" x="263.958 268.9605 273.13053 277.30055">Addr</tspan><tspan y="-317.58424" x="277.59977 282.18226 287.59727 291.76728 293.44053">Fwd A</tspan><tspan y="-419.76649" x="208.11077 214.35826 218.52826 224.77576">Mem.</tspan><tspan y="-411.76625" x="209.98276 212.48026 216.65026 220.82025">read</tspan><tspan y="-396.31999" x="208.11077 214.35826 218.52826 224.77576">Mem.</tspan><tspan y="-388.31974" x="209.56952 214.98451 217.48201 219.147 221.23201">write</tspan><tspan y="-431.26774" x="121.169269 124.919269 127.004268 131.17427">stat</tspan><tspan y="-295.35798" x="332.84928 337.0193 340.7693 342.85429">dstE</tspan></text>
<text fill="#231f20" xml:space="preserve" transform="matrix(1 0 -0 1 -42.7104 726.12)" font-size="8" font-family="Helvetica"><tspan y="-170.008" x="333.643 338.091 342.091 344.315">dstE</tspan><tspan y="-413.2088" x="279.7622 285.5382 289.9862 292.2102">Data</tspan><tspan y="-404.2088" x="273.7662 280.4302 284.8782 291.5422 295.9902 298.6542">memory</tspan></text>
<text fill="#00adef" xml:space="preserve" transform="matrix(1 0 -0 1 -42.7104 726.12)" font-size="8.9664" font-family="StoneSans"><tspan y="-149.382" x="94.5 98.812839 100.94684 106.281848 111.40166 114.521968 122.04029 127.187007 129.76036 134.90708">Figure4.69</tspan></text>
<text fill="#231f20" xml:space="preserve" transform="matrix(1 0 -0 1 -42.7104 726.12)" font-size="8.9664" font-family="StoneSans" font-weight="bold"><tspan y="-149.382" x="148.02313 152.88292 157.66202 162.56664 166.85257 172.15172 175.63965 183.51663 188.34056 193.88179 202.44919 210.65345 215.55806 223.76232 229.18698 232.89009 240.51602 244.33571 247.82364 252.64757 258.2426 263.14726 269.93928 274.22523 279.04914 284.64418 289.46809 295.05415 297.4661 305.34309 310.76777 316.89628 319.30824 324.7329 329.55683 338.1242 341.28038 346.70506 350.40818 357.73374 362.55766 366.15318 371.7482 374.16017 379.7014 385.29643">Executeandmemorystagescapableofloadforwarding.</tspan></text>
<text fill="#231f20" xml:space="preserve" transform="matrix(1 0 -0 1 -42.7104 726.12)" font-size="8.9664" font-family="StoneSans"><tspan y="-149.382" x="390.8413 395.98805 403.39875 407.88197 413.21699 418.552 420.686 425.93135 434.2387">Byaddinga</tspan><tspan y="-138.42327" x="94.499088 99.83409 104.27246 109.625408 114.108608 117.596538 123.21578 128.56873 133.05193 136.14534 143.522 146.17606 149.29636 154.4341 164.58138 167.67479 172.92014 179.59741 187.61338 192.15933 200.1753 205.31304 208.54093 215.11061 220.24835 225.36817 228.46158 233.81452 238.93433 244.15906 247.25247 254.52153 257.61494 262.86027 269.53755 273.02546 278.1632 283.28303 286.2419 290.55476 297.23204 302.36979 307.15516 311.54869 316.03187 318.16587 325.7846 327.9186 335.29527 340.6482 342.7822 348.13514 352.6811 354.8151 356.9491 362.19444 368.8717 371.992 376.53797 381.873 384.007 387.4949 390.58833 395.13429 400.3859 408.70674 413.49928 420.4841 427.16139 431.4742 435.9574">bypasspathfromthememoryoutputtothesourceofvalAinpipelineregisterM,wecan</tspan><tspan y="-127.46453" x="94.499088 99.6189 103.10683 110.531909 113.18596 118.32371 121.55161 128.53644 133.01964 136.13994 141.47495 143.60895 148.8543 157.0684 160.1887 164.6719 167.76532 173.01067 177.55663 183.55693 186.65035 191.89569 196.37889 204.50334 207.99127 211.08469 215.56789 217.70189 219.83589 221.9699 227.21524 235.42935 238.0834 243.22115 249.22055 254.35829 259.60365 267.02873 269.68278 274.82054 277.94084 288.8359 293.97367 299.50685 301.64085 306.7786 311.26179 316.5968 320.08473 325.20454 328.69245 336.11753 341.36286 345.84608 349.88096 354.36415 357.48445 362.81947 368.27284 373.25816 378.50349 380.63749 387.00453 389.13853 395.50556 398.59898 403.8443 411.26939 414.7573 419.8771 425.21214 427.34614 431.8921 436.20494">useforwardingratherthanstallingforoneformofload/usehazard.Thisisthesubject</tspan><tspan y="-116.50669" x="94.499088 99.63683 104.86424 111.17659 116.31434 124.3303 128.87627 135.8611 140.99884 144.11914 150.96949 155.78444 158.90474 164.04248 169.37749 171.51149 176.05745 186.64678 191.79349 194.36685 199.51357 204.66028">ofHomeworkProblem4.56.</tspan></text>
</g>
</svg>
