<svg xmlns="http://www.w3.org/2000/svg" xmlns:xlink="http://www.w3.org/1999/xlink" version="1.1" width="532.7996" height="664.92" viewBox="0 0 532.7996 664.92">
<defs>
<clipPath id="clip_3279">
<path transform="matrix(1,0,0,-1,-42.7104,726.12)" d="M42.7104 61.2H575.51V726.12H42.7104Z" fill-rule="evenodd"/>
</clipPath>
</defs>
<g clip-path="url(#clip_3279)">
<text xml:space="preserve" transform="matrix(1 0 -0 1 -42.7104 726.12)" font-size="8.4682" font-family="StoneSans"><tspan y="-681.875" x="328.766 333.16947 337.46284 341.53605 344.45759 346.47303 351.3253 358.70954 363.57029 366.00065 379.3296 383.877 385.89247 390.94798 395.24134 397.25679 399.27223 404.2261 408.51948 415.9884 420.54429 425.40504 432.69615 434.94023 442.51078 447.56629 449.58174 453.8751 461.44566 465.739 470.6929 473.61445 477.84855 480.77009 482.78553 487.6378 492.59169">Section4.5PipelinedY86Implementations</tspan></text>
<text xml:space="preserve" transform="matrix(1 0 -0 1 -42.7104 726.12)" font-size="9.4645" font-family="StoneSans" font-weight="bold"><tspan y="-681.875" x="508.587 514.01968 519.4523">431</tspan></text>
<path transform="matrix(1,0,0,-1,-42.7104,726.12)" stroke-width=".5" stroke-linecap="butt" stroke-miterlimit="4" stroke-linejoin="miter" fill="none" stroke="#231f20" d="M141.002 643.183V628.685"/>
<path transform="matrix(1,0,0,-1,-42.7104,726.12)" d="M141.002 645.336 142.241 642.301 141.002 643.022 139.762 642.301 141.002 645.336" fill="#231f20"/>
<path transform="matrix(1,0,0,-1,-42.7104,726.12)" d="M151.033 653.579C151.033 649.026 146.543 645.337 141.002 645.337 135.458 645.337 130.966 649.026 130.966 653.579 130.966 658.131 135.458 661.82 141.002 661.82 146.543 661.82 151.033 658.131 151.033 653.579" fill="#ffffff"/>
<path transform="matrix(1,0,0,-1,-42.7104,726.12)" stroke-width=".5" stroke-linecap="butt" stroke-miterlimit="4" stroke-linejoin="miter" fill="none" stroke="#231f20" d="M151.033 653.579C151.033 649.026 146.543 645.337 141.002 645.337 135.458 645.337 130.966 649.026 130.966 653.579 130.966 658.131 135.458 661.82 141.002 661.82 146.543 661.82 151.033 658.131 151.033 653.579Z"/>
<text fill="#231f20" xml:space="preserve" transform="matrix(1 0 -0 1 -42.7104 726.12)" font-size="7" font-family="Helvetica"><tspan y="-650.791" x="134.56 139.229 141.175 145.067">Stat</tspan></text>
<path transform="matrix(1,0,0,-1,-42.7104,726.12)" d="M152.964 622.468C152.964 621.143 151.89 620.069 150.564 620.069H133.232C131.907 620.069 130.832 621.143 130.832 622.468V633.078C130.832 634.405 131.907 635.479 133.232 635.479H150.564C151.89 635.479 152.964 634.405 152.964 633.078V622.468" fill="#b1b4b6"/>
<path transform="matrix(1,0,0,-1,-42.7104,726.12)" d="M151.165 623.588C151.165 622.262 150.089 621.188 148.765 621.188H131.433C130.106 621.188 129.032 622.262 129.032 623.588V634.199C129.032 635.526 130.106 636.6 131.433 636.6H148.765C150.089 636.6 151.165 635.526 151.165 634.199V623.588" fill="#c6c8ca"/>
<path transform="matrix(1,0,0,-1,-42.7104,726.12)" stroke-width=".75" stroke-linecap="butt" stroke-miterlimit="4" stroke-linejoin="miter" fill="none" stroke="#231f20" d="M151.165 623.588C151.165 622.262 150.089 621.188 148.765 621.188H131.433C130.106 621.188 129.032 622.262 129.032 623.588V634.199C129.032 635.526 130.106 636.6 131.433 636.6H148.765C150.089 636.6 151.165 635.526 151.165 634.199V623.588Z"/>
<text fill="#231f20" xml:space="preserve" transform="matrix(1 0 -0 1 -42.7104 726.12)" font-size="7.5" font-family="Helvetica"><tspan y="-625.795" x="133.792 137.542 139.62702 143.79701">stat</tspan></text>
<path transform="matrix(1,0,0,-1,-42.7104,726.12)" stroke-width=".5" stroke-linecap="butt" stroke-miterlimit="4" stroke-linejoin="miter" fill="none" stroke="#231f20" d="M141.002 618.92V604.422"/>
<path transform="matrix(1,0,0,-1,-42.7104,726.12)" d="M141.002 621.074 142.241 618.039 141.002 618.76 139.762 618.039 141.002 621.074" fill="#231f20"/>
<path transform="matrix(1,0,0,-1,-42.7104,726.12)" d="M152.964 571.105C152.964 569.78 151.89 568.706 150.564 568.706H133.232C131.907 568.706 130.832 569.78 130.832 571.105V581.715C130.832 583.042 131.907 584.116 133.232 584.116H150.564C151.89 584.116 152.964 583.042 152.964 581.715V571.105" fill="#b1b4b6"/>
<path transform="matrix(1,0,0,-1,-42.7104,726.12)" d="M238.685 594.598H173.489V609.24606H238.685ZM173.489 594.598" fill="#8ed8f8"/>
<path transform="matrix(1,0,0,-1,-42.7104,726.12)" stroke-width="1" stroke-linecap="butt" stroke-miterlimit="4" stroke-linejoin="miter" fill="none" stroke="#231f20" d="M238.685 594.598H173.489V609.24606H238.685Z"/>
<path transform="matrix(1,0,0,-1,-42.7104,726.12)" d="M130.145 594.598H108.8V609.24606H130.145ZM108.8 594.598" fill="#8ed8f8"/>
<path transform="matrix(1,0,0,-1,-42.7104,726.12)" stroke-width="1" stroke-linecap="butt" stroke-miterlimit="4" stroke-linejoin="miter" fill="none" stroke="#231f20" d="M130.145 594.598H108.8V609.24606H130.145Z"/>
<path transform="matrix(1,0,0,-1,-42.7104,726.12)" d="M173.52 594.598H150.52V609.24606H173.52ZM150.52 594.598" fill="#ffffff"/>
<path transform="matrix(1,0,0,-1,-42.7104,726.12)" stroke-width="1" stroke-linecap="butt" stroke-miterlimit="4" stroke-linejoin="miter" fill="none" stroke="#231f20" d="M173.52 594.598H150.52V609.24606H173.52Z"/>
<path transform="matrix(1,0,0,-1,-42.7104,726.12)" d="M344.524 594.598H323.179V609.24606H344.524ZM323.179 594.598" fill="#8ed8f8"/>
<path transform="matrix(1,0,0,-1,-42.7104,726.12)" stroke-width="1" stroke-linecap="butt" stroke-miterlimit="4" stroke-linejoin="miter" fill="none" stroke="#231f20" d="M344.524 594.598H323.179V609.24606H344.524Z"/>
<path transform="matrix(1,0,0,-1,-42.7104,726.12)" d="M365.899 594.598H344.429V609.24606H365.899ZM344.429 594.598" fill="#ffffff"/>
<path transform="matrix(1,0,0,-1,-42.7104,726.12)" stroke-width="1" stroke-linecap="butt" stroke-miterlimit="4" stroke-linejoin="miter" fill="none" stroke="#231f20" d="M365.899 594.598H344.429V609.24606H365.899Z"/>
<path transform="matrix(1,0,0,-1,-42.7104,726.12)" d="M387.236 594.598H365.766V609.24606H387.236ZM365.766 594.598" fill="#ffffff"/>
<path transform="matrix(1,0,0,-1,-42.7104,726.12)" stroke-width="1" stroke-linecap="butt" stroke-miterlimit="4" stroke-linejoin="miter" fill="none" stroke="#231f20" d="M387.236 594.598H365.766V609.24606H387.236Z"/>
<path transform="matrix(1,0,0,-1,-42.7104,726.12)" d="M408.572 594.598H387.102V609.246H408.572 408.438 429.909V594.598H408.438 408.572" fill="#8ed8f8"/>
<path transform="matrix(1,0,0,-1,-42.7104,726.12)" stroke-width="1" stroke-linecap="butt" stroke-miterlimit="4" stroke-linejoin="miter" fill="none" stroke="#231f20" d="M408.572 594.598H387.102V609.246H408.572 408.438 429.909V594.598H408.438 408.572Z"/>
<path transform="matrix(1,0,0,-1,-42.7104,726.12)" d="M259.217 594.597H237.747V609.245H259.217 259.083 280.554V594.597H259.083 259.217" fill="#ffffff"/>
<path transform="matrix(1,0,0,-1,-42.7104,726.12)" stroke-width="1" stroke-linecap="butt" stroke-miterlimit="4" stroke-linejoin="miter" fill="none" stroke="#231f20" d="M259.217 594.597H237.747V609.245H259.217 259.083 280.554V594.597H259.083 259.217Z"/>
<path transform="matrix(1,0,0,-1,-42.7104,726.12)" d="M301.89 594.597H280.42V609.245H301.89 301.757 323.227V594.597H301.757 301.89" fill="#ffffff"/>
<path transform="matrix(1,0,0,-1,-42.7104,726.12)" stroke-width="1" stroke-linecap="butt" stroke-miterlimit="4" stroke-linejoin="miter" fill="none" stroke="#231f20" d="M301.89 594.597H280.42V609.245H301.89 301.757 323.227V594.597H301.757 301.89Z"/>
<path transform="matrix(1,0,0,-1,-42.7104,726.12)" d="M130.145 477.852H108.8V492.50099H130.145ZM108.8 477.852" fill="#8ed8f8"/>
<path transform="matrix(1,0,0,-1,-42.7104,726.12)" stroke-width="1" stroke-linecap="butt" stroke-miterlimit="4" stroke-linejoin="miter" fill="none" stroke="#231f20" d="M130.145 477.852H108.8V492.50099H130.145Z"/>
<path transform="matrix(1,0,0,-1,-42.7104,726.12)" d="M173.52 477.852H150.52V492.50099H173.52ZM150.52 477.852" fill="#ffffff"/>
<path transform="matrix(1,0,0,-1,-42.7104,726.12)" stroke-width="1" stroke-linecap="butt" stroke-miterlimit="4" stroke-linejoin="miter" fill="none" stroke="#231f20" d="M173.52 477.852H150.52V492.50099H173.52Z"/>
<path transform="matrix(1,0,0,-1,-42.7104,726.12)" d="M150.52 594.598H130.17V609.24606H150.52ZM130.17 594.598" fill="#ffffff"/>
<path transform="matrix(1,0,0,-1,-42.7104,726.12)" stroke-width="1" stroke-linecap="butt" stroke-miterlimit="4" stroke-linejoin="miter" fill="none" stroke="#231f20" d="M150.52 594.598H130.17V609.24606H150.52Z"/>
<path transform="matrix(1,0,0,-1,-42.7104,726.12)" d="M150.52 477.852H130.145V492.50099H150.52ZM130.145 477.852" fill="#ffffff"/>
<path transform="matrix(1,0,0,-1,-42.7104,726.12)" stroke-width="1" stroke-linecap="butt" stroke-miterlimit="4" stroke-linejoin="miter" fill="none" stroke="#231f20" d="M150.52 477.852H130.145V492.50099H150.52Z"/>
<path transform="matrix(1,0,0,-1,-42.7104,726.12)" d="M194.857 477.852H173.387V492.50099H194.857ZM173.387 477.852" fill="#8ed8f8"/>
<path transform="matrix(1,0,0,-1,-42.7104,726.12)" stroke-width="1" stroke-linecap="butt" stroke-miterlimit="4" stroke-linejoin="miter" fill="none" stroke="#231f20" d="M194.857 477.852H173.387V492.50099H194.857Z"/>
<path transform="matrix(1,0,0,-1,-42.7104,726.12)" d="M216.194 477.852H194.724V492.50099H216.194ZM194.724 477.852" fill="#ffffff"/>
<path transform="matrix(1,0,0,-1,-42.7104,726.12)" stroke-width="1" stroke-linecap="butt" stroke-miterlimit="4" stroke-linejoin="miter" fill="none" stroke="#231f20" d="M216.194 477.852H194.724V492.50099H216.194Z"/>
<path transform="matrix(1,0,0,-1,-42.7104,726.12)" d="M237.531 477.852H216.061V492.50099H237.531ZM216.061 477.852" fill="#8ed8f8"/>
<path transform="matrix(1,0,0,-1,-42.7104,726.12)" stroke-width="1" stroke-linecap="butt" stroke-miterlimit="4" stroke-linejoin="miter" fill="none" stroke="#231f20" d="M237.531 477.852H216.061V492.50099H237.531Z"/>
<path transform="matrix(1,0,0,-1,-42.7104,726.12)" d="M344.125 477.852H322.779V492.50099H344.125ZM322.779 477.852" fill="#8ed8f8"/>
<path transform="matrix(1,0,0,-1,-42.7104,726.12)" stroke-width="1" stroke-linecap="butt" stroke-miterlimit="4" stroke-linejoin="miter" fill="none" stroke="#231f20" d="M344.125 477.852H322.779V492.50099H344.125Z"/>
<path transform="matrix(1,0,0,-1,-42.7104,726.12)" d="M365.5 477.852H344.029V492.50099H365.5ZM344.029 477.852" fill="#ffffff"/>
<path transform="matrix(1,0,0,-1,-42.7104,726.12)" stroke-width="1" stroke-linecap="butt" stroke-miterlimit="4" stroke-linejoin="miter" fill="none" stroke="#231f20" d="M365.5 477.852H344.029V492.50099H365.5Z"/>
<path transform="matrix(1,0,0,-1,-42.7104,726.12)" d="M386.837 477.852H365.366V492.50099H386.837ZM365.366 477.852" fill="#ffffff"/>
<path transform="matrix(1,0,0,-1,-42.7104,726.12)" stroke-width="1" stroke-linecap="butt" stroke-miterlimit="4" stroke-linejoin="miter" fill="none" stroke="#231f20" d="M386.837 477.852H365.366V492.50099H386.837Z"/>
<path transform="matrix(1,0,0,-1,-42.7104,726.12)" d="M408.173 477.852H386.702V492.501H408.173 408.039 429.51V477.852H408.039 408.173" fill="#8ed8f8"/>
<path transform="matrix(1,0,0,-1,-42.7104,726.12)" stroke-width="1" stroke-linecap="butt" stroke-miterlimit="4" stroke-linejoin="miter" fill="none" stroke="#231f20" d="M408.173 477.852H386.702V492.501H408.173 408.039 429.51V477.852H408.039 408.173Z"/>
<path transform="matrix(1,0,0,-1,-42.7104,726.12)" d="M258.817 477.852H237.348V492.5H258.817 258.684 280.154V477.852H258.684 258.817" fill="#ffffff"/>
<path transform="matrix(1,0,0,-1,-42.7104,726.12)" stroke-width="1" stroke-linecap="butt" stroke-miterlimit="4" stroke-linejoin="miter" fill="none" stroke="#231f20" d="M258.817 477.852H237.348V492.5H258.817 258.684 280.154V477.852H258.684 258.817Z"/>
<path transform="matrix(1,0,0,-1,-42.7104,726.12)" d="M301.49 477.852H280.021V492.5H301.49 301.357 322.827V477.852H301.357 301.49" fill="#ffffff"/>
<path transform="matrix(1,0,0,-1,-42.7104,726.12)" stroke-width="1" stroke-linecap="butt" stroke-miterlimit="4" stroke-linejoin="miter" fill="none" stroke="#231f20" d="M301.49 477.852H280.021V492.5H301.49 301.357 322.827V477.852H301.357 301.49Z"/>
<text fill="#231f20" xml:space="preserve" transform="matrix(1 0 -0 1 -42.7104 726.12)" font-size="6" font-family="Helvetica"><tspan y="-506.264" x="95.2939 100.2919 103.6279 104.9599 107.9599 111.2959 114.6319">M_icode</tspan><tspan y="-496.112" x="98.6299 103.6279 106.9639 111.2959 114.6319">M_Cnd</tspan><tspan y="-613.199" x="94.5001 100.1641 103.5001 104.8321 107.8321 111.1681 114.5041 433.5001 439.1641 442.5001 445.8361 448.8361 450.5041">W_icodeW_dstM</tspan><tspan y="-573.36618" x="433.5001 438.49809 441.83409 444.83409 448.17008 449.50209">m_valM</tspan><tspan y="-556.86618" x="433.5001 438.49809 441.83409 445.17008 448.17008 449.83808">M_dstE</tspan><tspan y="-549.53176" x="433.5001 438.49809 441.83409 445.17008 448.17008 449.83808">M_dstM</tspan><tspan y="-504.86595" x="433.5001 438.49809 441.83409 444.83409 448.17008 449.50209">M_valA</tspan><tspan y="-495.86595" x="433.5001 438.49809 441.83409 444.83409 448.17008 449.50209">M_valE</tspan><tspan y="-619.20016" x="433.5001 439.1641 442.5001 445.8361 448.8361 450.5041">W_dstE</tspan><tspan y="-626.2003" x="433.5001 439.1641 442.5001 445.5001 448.8361 450.1681">W_valM</tspan><tspan y="-633.2005" x="433.5001 439.1641 442.5001 445.5001 448.8361 450.1681">W_valE</tspan></text>
<path transform="matrix(1,0,0,-1,-42.7104,726.12)" d="M247.226 554.085C247.226 552.429 245.882 551.085 244.226 551.085H220.56C218.903 551.085 217.56 552.429 217.56 554.085V568.349C217.56 570.007 218.903 571.349 220.56 571.349H244.226C245.882 571.349 247.226 570.007 247.226 568.349V554.085" fill="#b1b4b6"/>
<path transform="matrix(1,0,0,-1,-42.7104,726.12)" d="M244.976 555.486C244.976 553.829 243.632 552.486 241.976 552.486H218.31C216.653 552.486 215.788 554.351 215.788 556.007V570.271C215.788 571.929 216.653 572.749 218.31 572.749H241.976C243.632 572.749 244.976 571.407 244.976 569.749V555.486" fill="#c6c8ca"/>
<path transform="matrix(1,0,0,-1,-42.7104,726.12)" stroke-width=".75" stroke-linecap="butt" stroke-miterlimit="4" stroke-linejoin="miter" fill="none" stroke="#231f20" d="M244.976 555.486C244.976 553.829 243.632 552.486 241.976 552.486H218.31C216.653 552.486 215.788 554.351 215.788 556.007V570.271C215.788 571.929 216.653 572.749 218.31 572.749H241.976C243.632 572.749 244.976 571.407 244.976 569.749V555.486Z"/>
<path transform="matrix(1,0,0,-1,-42.7104,726.12)" d="M247.226 530.889C247.226 529.233 245.882 527.889 244.226 527.889H220.56C218.903 527.889 217.56 529.233 217.56 530.889V545.153C217.56 546.811 218.903 548.153 220.56 548.153H244.226C245.882 548.153 247.226 546.811 247.226 545.153V530.889" fill="#b1b4b6"/>
<path transform="matrix(1,0,0,-1,-42.7104,726.12)" d="M244.976 532.29C244.976 530.633 243.632 529.29 241.976 529.29H218.31C216.653 529.29 215.788 531.155 215.788 532.811V547.075C215.788 548.733 216.653 549.553 218.31 549.553H241.976C243.632 549.553 244.976 548.212 244.976 546.553V532.29" fill="#c6c8ca"/>
<path transform="matrix(1,0,0,-1,-42.7104,726.12)" stroke-width=".75" stroke-linecap="butt" stroke-miterlimit="4" stroke-linejoin="miter" fill="none" stroke="#231f20" d="M244.976 532.29C244.976 530.633 243.632 529.29 241.976 529.29H218.31C216.653 529.29 215.788 531.155 215.788 532.811V547.075C215.788 548.733 216.653 549.553 218.31 549.553H241.976C243.632 549.553 244.976 548.212 244.976 546.553V532.29Z"/>
<path transform="matrix(1,0,0,-1,-42.7104,726.12)" d="M298.219 515.335C298.219 514.01 297.145 512.936 295.818 512.936H278.486C277.162 512.936 276.087 514.01 276.087 515.335V525.945C276.087 527.272 277.162 528.346 278.486 528.346H295.818C297.145 528.346 298.219 527.272 298.219 525.945V515.335" fill="#b1b4b6"/>
<path transform="matrix(1,0,0,-1,-42.7104,726.12)" d="M296.42 516.455C296.42 515.129 295.344 514.055 294.02 514.055H276.688C275.361 514.055 274.287 515.129 274.287 516.455V527.067C274.287 528.393 275.361 529.467 276.688 529.467H294.02C295.344 529.467 296.42 528.393 296.42 527.067V516.455" fill="#c6c8ca"/>
<path transform="matrix(1,0,0,-1,-42.7104,726.12)" stroke-width=".75" stroke-linecap="butt" stroke-miterlimit="4" stroke-linejoin="miter" fill="none" stroke="#231f20" d="M296.42 516.455C296.42 515.129 295.344 514.055 294.02 514.055H276.688C275.361 514.055 274.287 515.129 274.287 516.455V527.067C274.287 528.393 275.361 529.467 276.688 529.467H294.02C295.344 529.467 296.42 528.393 296.42 527.067V516.455Z"/>
<path transform="matrix(1,0,0,-1,-42.7104,726.12)" d="M151.165 572.225C151.165 570.899 150.089 569.825 148.765 569.825H131.433C130.106 569.825 129.032 570.899 129.032 572.225V582.836C129.032 584.163 130.106 585.237 131.433 585.237H148.765C150.089 585.237 151.165 584.163 151.165 582.836V572.225" fill="#c6c8ca"/>
<path transform="matrix(1,0,0,-1,-42.7104,726.12)" stroke-width=".75" stroke-linecap="butt" stroke-miterlimit="4" stroke-linejoin="miter" fill="none" stroke="#231f20" d="M151.165 572.225C151.165 570.899 150.089 569.825 148.765 569.825H131.433C130.106 569.825 129.032 570.899 129.032 572.225V582.836C129.032 584.163 130.106 585.237 131.433 585.237H148.765C150.089 585.237 151.165 584.163 151.165 582.836V572.225Z"/>
<path transform="matrix(1,0,0,-1,-42.7104,726.12)" d="M324.504 537.028H281.754V564.028H324.504ZM281.754 537.028" fill="#231f20"/>
<path transform="matrix(1,0,0,-1,-42.7104,726.12)" d="M323.205 538.326H280.45399V565.326H323.205ZM280.454 538.326" fill="#d4effc"/>
<path transform="matrix(1,0,0,-1,-42.7104,726.12)" stroke-width=".5" stroke-linecap="butt" stroke-miterlimit="4" stroke-linejoin="miter" fill="none" stroke="#00adef" d="M323.205 538.326H280.45399V565.326H323.205Z"/>
<path transform="matrix(1,0,0,-1,-42.7104,726.12)" d="M261.042 498.819C261.042 497.854 260.259 497.068 259.292 497.068 258.328 497.068 257.542 497.854 257.542 498.819 257.542 499.783 258.328 500.568 259.292 500.568 260.259 500.568 261.042 499.783 261.042 498.819" fill="#231f20"/>
<path transform="matrix(1,0,0,-1,-42.7104,726.12)" d="M281.884 498.978C281.884 498.013 281.101 497.227 280.133 497.227 279.168 497.227 278.383 498.013 278.383 498.978 278.383 499.943 279.168 500.727 280.133 500.727 281.101 500.727 281.884 499.943 281.884 498.978" fill="#231f20"/>
<path transform="matrix(1,0,0,-1,-42.7104,726.12)" d="M303.477 505.791C303.477 504.826 302.692 504.04 301.727 504.04 300.761 504.04 299.977 504.826 299.977 505.791 299.977 506.756 300.761 507.54 301.727 507.54 302.692 507.54 303.477 506.756 303.477 505.791" fill="#231f20"/>
<path transform="matrix(1,0,0,-1,-42.7104,726.12)" d="M303.477 575.433C303.477 574.468 302.692 573.682 301.727 573.682 300.761 573.682 299.977 574.468 299.977 575.433 299.977 576.398 300.761 577.182 301.727 577.182 302.692 577.182 303.477 576.398 303.477 575.433" fill="#231f20"/>
<path transform="matrix(1,0,0,-1,-42.7104,726.12)" d="M377.977 552.186C377.977 551.221 377.192 550.435 376.227 550.435 375.261 550.435 374.477 551.221 374.477 552.186 374.477 553.151 375.261 553.935 376.227 553.935 377.192 553.935 377.977 553.151 377.977 552.186" fill="#231f20"/>
<path transform="matrix(1,0,0,-1,-42.7104,726.12)" d="M357.413 559.574C357.413 558.61 356.629 557.823 355.663 557.823 354.697 557.823 353.913 558.61 353.913 559.574 353.913 560.539 354.697 561.323 355.663 561.323 356.629 561.323 357.413 560.539 357.413 559.574" fill="#231f20"/>
<path transform="matrix(1,0,0,-1,-42.7104,726.12)" stroke-width=".75" stroke-linecap="butt" stroke-dasharray=".75,.75" stroke-miterlimit="4" stroke-linejoin="miter" fill="none" stroke="#231f20" d="M244.892 562.577H277.821"/>
<path transform="matrix(1,0,0,-1,-42.7104,726.12)" d="M280.166 562.577 277.132 561.337 277.852 562.577 277.132 563.817 280.166 562.577" fill="#231f20"/>
<path transform="matrix(1,0,0,-1,-42.7104,726.12)" stroke-width=".5" stroke-linecap="butt" stroke-miterlimit="4" stroke-linejoin="miter" fill="none" stroke="#231f20" d="M355.892 559.577H428.321"/>
<path transform="matrix(1,0,0,-1,-42.7104,726.12)" d="M430.666 559.577 427.632 558.337 428.352 559.577 427.632 560.818 430.666 559.577" fill="#231f20"/>
<path transform="matrix(1,0,0,-1,-42.7104,726.12)" stroke-width=".5" stroke-linecap="butt" stroke-miterlimit="4" stroke-linejoin="miter" fill="none" stroke="#231f20" d="M375.83 552.077H428.321"/>
<path transform="matrix(1,0,0,-1,-42.7104,726.12)" d="M430.666 552.077 427.632 550.837 428.352 552.077 427.632 553.318 430.666 552.077" fill="#231f20"/>
<path transform="matrix(1,0,0,-1,-42.7104,726.12)" stroke-width=".5" stroke-linecap="butt" stroke-miterlimit="4" stroke-linejoin="miter" fill="none" stroke="#231f20" d="M122.715 615.088H162.645V609.822"/>
<path transform="matrix(1,0,0,-1,-42.7104,726.12)" d="M120.37 615.088 123.404 616.328 122.685 615.088 123.404 613.848 120.37 615.088" fill="#231f20"/>
<path transform="matrix(1,0,0,-1,-42.7104,726.12)" stroke-width=".5" stroke-linecap="butt" stroke-miterlimit="4" stroke-linejoin="miter" fill="none" stroke="#231f20" d="M427.719 621.088H355.516V609.822"/>
<path transform="matrix(1,0,0,-1,-42.7104,726.12)" d="M430.063 621.088 427.029 622.328 427.749 621.088 427.029 619.848 430.063 621.088" fill="#231f20"/>
<path transform="matrix(1,0,0,-1,-42.7104,726.12)" stroke-width=".5" stroke-linecap="butt" stroke-miterlimit="4" stroke-linejoin="miter" fill="none" stroke="#231f20" d="M427.381 615.088H376.178V609.255"/>
<path transform="matrix(1,0,0,-1,-42.7104,726.12)" d="M429.726 615.088 426.691 616.328 427.411 615.088 426.691 613.848 429.726 615.088" fill="#231f20"/>
<path transform="matrix(1,0,0,-1,-42.7104,726.12)" stroke-width=".5" stroke-linecap="butt" stroke-miterlimit="4" stroke-linejoin="miter" fill="none" stroke="#231f20" d="M162.821 521.612H271.194"/>
<path transform="matrix(1,0,0,-1,-42.7104,726.12)" d="M273.539 521.612 270.505 520.372 271.225 521.612 270.505 522.852 273.539 521.612" fill="#231f20"/>
<path transform="matrix(1,0,0,-1,-42.7104,726.12)" d="M164.393 521.421C164.393 520.456 163.609 519.67 162.643 519.67 161.677 519.67 160.893 520.456 160.893 521.421 160.893 522.385 161.677 523.17 162.643 523.17 163.609 523.17 164.393 522.385 164.393 521.421" fill="#231f20"/>
<path transform="matrix(1,0,0,-1,-42.7104,726.12)" d="M164.393 540.398C164.393 539.433 163.609 538.647 162.643 538.647 161.677 538.647 160.893 539.433 160.893 540.398 160.893 541.362 161.677 542.147 162.643 542.147 163.609 542.147 164.393 541.362 164.393 540.398" fill="#231f20"/>
<path transform="matrix(1,0,0,-1,-42.7104,726.12)" d="M164.393 562.647C164.393 561.682 163.609 560.896 162.643 560.896 161.677 560.896 160.893 561.682 160.893 562.647 160.893 563.612 161.677 564.396 162.643 564.396 163.609 564.396 164.393 563.612 164.393 562.647" fill="#231f20"/>
<path transform="matrix(1,0,0,-1,-42.7104,726.12)" stroke-width=".75" stroke-linecap="butt" stroke-dasharray=".75,.75" stroke-miterlimit="4" stroke-linejoin="miter" fill="none" stroke="#231f20" d="M244.892 540.293H277.821"/>
<path transform="matrix(1,0,0,-1,-42.7104,726.12)" d="M280.166 540.293 277.132 539.054 277.852 540.293 277.132 541.533 280.166 540.293" fill="#231f20"/>
<path transform="matrix(1,0,0,-1,-42.7104,726.12)" stroke-width=".75" stroke-linecap="butt" stroke-dasharray=".75,.75" stroke-miterlimit="4" stroke-linejoin="miter" fill="none" stroke="#231f20" d="M122.236 497.794H205.247V492.738"/>
<path transform="matrix(1,0,0,-1,-42.7104,726.12)" d="M119.892 497.794 122.926 499.033 122.206 497.794 122.926 496.554 119.892 497.794" fill="#231f20"/>
<path transform="matrix(1,0,0,-1,-42.7104,726.12)" stroke-width=".75" stroke-linecap="butt" stroke-dasharray=".75,.75" stroke-miterlimit="4" stroke-linejoin="miter" fill="none" stroke="#231f20" d="M153.576 578.977H284.817V564.895"/>
<path transform="matrix(1,0,0,-1,-42.7104,726.12)" d="M151.231 578.977 154.265 580.216 153.545 578.977 154.265 577.737 151.231 578.977" fill="#231f20"/>
<path transform="matrix(1,0,0,-1,-42.7104,726.12)" stroke-width=".5" stroke-linecap="butt" stroke-miterlimit="4" stroke-linejoin="miter" fill="none" stroke="#231f20" d="M162.996 562.577H212.968"/>
<path transform="matrix(1,0,0,-1,-42.7104,726.12)" d="M215.313 562.577 212.278 561.337 212.998 562.577 212.278 563.817 215.313 562.577" fill="#231f20"/>
<path transform="matrix(1,0,0,-1,-42.7104,726.12)" stroke-width=".5" stroke-linecap="butt" stroke-miterlimit="4" stroke-linejoin="miter" fill="none" stroke="#231f20" d="M162.996 540.293H212.968"/>
<path transform="matrix(1,0,0,-1,-42.7104,726.12)" d="M215.313 540.293 212.278 539.054 212.998 540.293 212.278 541.533 215.313 540.293" fill="#231f20"/>
<path transform="matrix(1,0,0,-1,-42.7104,726.12)" d="M160.993 507.777C160.993 506.812 161.777 506.026 162.743 506.026 163.709 506.026 164.493 506.812 164.493 507.777 164.493 508.742 163.709 509.526 162.743 509.526 161.777 509.526 160.993 508.742 160.993 507.777" fill="#231f20"/>
<path transform="matrix(1,0,0,-1,-42.7104,726.12)" stroke-width=".5" stroke-linecap="butt" stroke-miterlimit="4" stroke-linejoin="miter" fill="none" stroke="#231f20" d="M162.39 507.673H122.418"/>
<path transform="matrix(1,0,0,-1,-42.7104,726.12)" d="M120.074 507.673 123.108 506.433 122.388 507.673 123.108 508.913 120.074 507.673" fill="#231f20"/>
<path transform="matrix(1,0,0,-1,-42.7104,726.12)" stroke-width="1.5" stroke-linecap="butt" stroke-miterlimit="4" stroke-linejoin="miter" fill="none" stroke="#231f20" d="M301.634 492.559V535.216"/>
<path transform="matrix(1,0,0,-1,-42.7104,726.12)" d="M301.634 536.869 303.494 532.317 301.634 533.398 299.774 532.317 301.634 536.869" fill="#231f20"/>
<path transform="matrix(1,0,0,-1,-42.7104,726.12)" stroke-width="1.5" stroke-linecap="butt" stroke-miterlimit="4" stroke-linejoin="miter" fill="none" stroke="#231f20" d="M301.536 565.08V591.919"/>
<path transform="matrix(1,0,0,-1,-42.7104,726.12)" d="M301.536 594.073 303.396 589.521 301.536 590.601 299.677 589.521 301.536 594.073" fill="#231f20"/>
<path transform="matrix(1,0,0,-1,-42.7104,726.12)" stroke-width="1.5" stroke-linecap="butt" stroke-miterlimit="4" stroke-linejoin="miter" fill="none" stroke="#231f20" d="M301.83 575.365H427.913"/>
<path transform="matrix(1,0,0,-1,-42.7104,726.12)" d="M430.066 575.365 425.516 573.506 426.595 575.365 425.516 577.224 430.066 575.365" fill="#231f20"/>
<path transform="matrix(1,0,0,-1,-42.7104,726.12)" stroke-width="1.5" stroke-linecap="butt" stroke-miterlimit="4" stroke-linejoin="miter" fill="none" stroke="#231f20" d="M285.988 529.479V534.883"/>
<path transform="matrix(1,0,0,-1,-42.7104,726.12)" d="M285.988 537.036 287.849 532.484 285.988 533.565 284.129 532.484 285.988 537.036" fill="#231f20"/>
<path transform="matrix(1,0,0,-1,-42.7104,726.12)" stroke-width="1.5" stroke-linecap="butt" stroke-miterlimit="4" stroke-linejoin="miter" fill="none" stroke="#231f20" d="M280.208 499.837V511.585"/>
<path transform="matrix(1,0,0,-1,-42.7104,726.12)" d="M280.315 514.018 282.176 509.466 280.315 510.546 278.456 509.466 280.315 514.018" fill="#231f20"/>
<path transform="matrix(1,0,0,-1,-42.7104,726.12)" stroke-width="1.5" stroke-linecap="butt" stroke-miterlimit="4" stroke-linejoin="miter" fill="none" stroke="#231f20" d="M259.046 498.978H428.997"/>
<path transform="matrix(1,0,0,-1,-42.7104,726.12)" d="M431.15 498.978 426.6 497.118 427.679 498.978 426.6 500.838 431.15 498.978" fill="#231f20"/>
<path transform="matrix(1,0,0,-1,-42.7104,726.12)" stroke-width="1.5" stroke-linecap="butt" stroke-miterlimit="4" stroke-linejoin="miter" fill="none" stroke="#231f20" d="M259.046 592.007V492.502"/>
<path transform="matrix(1,0,0,-1,-42.7104,726.12)" d="M259.046 594.161 260.906 589.609 259.046 590.689 257.187 589.609 259.046 594.161" fill="#231f20"/>
<path transform="matrix(1,0,0,-1,-42.7104,726.12)" stroke-width="1.5" stroke-linecap="butt" stroke-miterlimit="4" stroke-linejoin="miter" fill="none" stroke="#231f20" d="M290.807 511.214V505.95H428.497"/>
<path transform="matrix(1,0,0,-1,-42.7104,726.12)" d="M430.65 505.95 426.1 504.091 427.179 505.95 426.1 507.81 430.65 505.95" fill="#231f20"/>
<path transform="matrix(1,0,0,-1,-42.7104,726.12)" d="M290.807 513.569 292.667 509.016 290.807 510.097 288.947 509.016 290.807 513.569" fill="#231f20"/>
<path transform="matrix(1,0,0,-1,-42.7104,726.12)" stroke-width="1.5" stroke-linecap="butt" stroke-miterlimit="4" stroke-linejoin="miter" fill="none" stroke="#231f20" d="M427.456 633.855H258.92V609.246"/>
<path transform="matrix(1,0,0,-1,-42.7104,726.12)" d="M429.609 633.855 425.059 631.995 426.138 633.855 425.059 635.715 429.609 633.855" fill="#231f20"/>
<path transform="matrix(1,0,0,-1,-42.7104,726.12)" stroke-width="1.5" stroke-linecap="butt" stroke-miterlimit="4" stroke-linejoin="miter" fill="none" stroke="#231f20" d="M427.332 626.855H301.918V609.246"/>
<path transform="matrix(1,0,0,-1,-42.7104,726.12)" d="M429.485 626.855 424.934 624.995 426.014 626.855 424.934 628.715 429.485 626.855" fill="#231f20"/>
<path transform="matrix(1,0,0,-1,-42.7104,726.12)" stroke-width=".5" stroke-linecap="butt" stroke-miterlimit="4" stroke-linejoin="miter" fill="none" stroke="#231f20" d="M355.634 492.676V591.924"/>
<path transform="matrix(1,0,0,-1,-42.7104,726.12)" d="M355.634 594.076 356.874 591.042 355.634 591.762 354.395 591.042 355.634 594.076" fill="#231f20"/>
<path transform="matrix(1,0,0,-1,-42.7104,726.12)" stroke-width=".5" stroke-linecap="butt" stroke-miterlimit="4" stroke-linejoin="miter" fill="none" stroke="#231f20" d="M162.495 492.676V591.924"/>
<path transform="matrix(1,0,0,-1,-42.7104,726.12)" d="M162.495 594.076 163.735 591.042 162.495 591.762 161.256 591.042 162.495 594.076" fill="#231f20"/>
<path transform="matrix(1,0,0,-1,-42.7104,726.12)" stroke-width=".5" stroke-linecap="butt" stroke-miterlimit="4" stroke-linejoin="miter" fill="none" stroke="#231f20" d="M140.964 585.354V591.924"/>
<path transform="matrix(1,0,0,-1,-42.7104,726.12)" d="M140.964 594.076 142.204 591.042 140.964 591.762 139.725 591.042 140.964 594.076" fill="#231f20"/>
<path transform="matrix(1,0,0,-1,-42.7104,726.12)" stroke-width=".5" stroke-linecap="butt" stroke-miterlimit="4" stroke-linejoin="miter" fill="none" stroke="#231f20" d="M140.964 492.384V567.28"/>
<path transform="matrix(1,0,0,-1,-42.7104,726.12)" d="M140.964 569.433 142.204 566.399 140.964 567.118 139.725 566.399 140.964 569.433" fill="#231f20"/>
<path transform="matrix(1,0,0,-1,-42.7104,726.12)" stroke-width=".5" stroke-linecap="butt" stroke-miterlimit="4" stroke-linejoin="miter" fill="none" stroke="#231f20" d="M376.146 492.676V591.924"/>
<path transform="matrix(1,0,0,-1,-42.7104,726.12)" d="M376.146 594.076 377.387 591.042 376.146 591.762 374.907 591.042 376.146 594.076" fill="#231f20"/>
<text fill="#ffffff" xml:space="preserve" transform="matrix(1 0 -0 1 -42.7104 726.12)" font-size="8" font-family="Helvetica"><tspan y="-598.7831" x="112.14">W</tspan></text>
<text fill="#231f20" xml:space="preserve" transform="matrix(1 0 -0 1 -42.7104 726.12)" font-size="8" font-family="Helvetica"><tspan y="-598.7831" x="152.548 154.324 158.324 162.772 167.22 252.0376 256.0376 260.4856 262.2616 293.03199 297.03199 301.47999 303.25599 346.60398 351.05198 355.05198 357.27598 367.81117 372.25917 376.25917 378.48316">icodevalEvalMdstEdstM</tspan></text>
<text fill="#ffffff" xml:space="preserve" transform="matrix(1 0 -0 1 -42.7104 726.12)" font-size="8" font-family="Helvetica"><tspan y="-482.03828" x="112.584">M</tspan></text>
<text fill="#231f20" xml:space="preserve" transform="matrix(1 0 -0 1 -42.7104 726.12)" font-size="8" font-family="Helvetica"><tspan y="-482.03828" x="152.548 154.324 158.324 162.772 167.22">icode</tspan><tspan y="-598.7831" x="133.86801 137.86801 140.09201 144.54001">stat</tspan><tspan y="-482.03828" x="133.26721 137.26721 139.49121 143.93921 197.94641 203.72241 208.17041 251.6392 255.6392 260.08723 261.86323 294.532 298.532 302.98 304.756 346.2048 350.6528 354.6528 356.8768 367.228 371.676 375.676 377.9">statCndvalEvalAdstEdstM</tspan></text>
<text fill="#231f20" xml:space="preserve" transform="matrix(1 0 -0 1 -42.7104 726.12)" font-size="6" font-family="Helvetica"><tspan y="-567.709" x="303.218 306.554 309.88999 311.55799 314.89399 316.56199 319.89799 323.23399">data out</tspan><tspan y="-527.09799" x="303.257 306.593 309.929 311.597 314.93299 316.60099 317.93299">data in</tspan><tspan y="-564.7012" x="264.61219 266.61018 269.94618 273.28218">read</tspan><tspan y="-588.17019" x="119.00119 123.99919 127.33519 130.33519 132.00319 135.33919">m_stat</tspan><tspan y="-581.8522" x="192.30139 195.63739 200.63539 203.97139 208.96939 212.30539 215.64139 217.63939 219.63739 222.97339">dmem_error</tspan><tspan y="-533.76217" x="263.8592 268.1912 270.18919 271.52119 273.18919">write</tspan></text>
<text fill="#231f20" xml:space="preserve" transform="matrix(1 0 -0 1 -42.7104 726.12)" font-size="8" font-family="Helvetica"><tspan y="-554.156" x="292.976 298.752 303.2 305.424">Data</tspan><tspan y="-545.156" x="286.98 293.644 298.092 304.756 309.204 311.868">memory</tspan></text>
<text fill="#231f20" xml:space="preserve" transform="matrix(1 0 -0 1 -42.7104 726.12)" font-size="7.5" font-family="Helvetica"><tspan y="-518.662" x="277.172 282.1745 286.3445 290.51454">Addr</tspan><tspan y="-574.432" x="133.79225 137.54225 139.62726 143.79726">stat</tspan><tspan y="-564.214" x="221.32625 227.57375 231.74375 237.99124">Mem.</tspan><tspan y="-556.21377" x="223.1975 225.69499 229.86499 234.03499">read</tspan><tspan y="-541.018" x="221.32625 227.57375 231.74375 237.99124">Mem.</tspan><tspan y="-533.01779" x="222.78424 228.19924 230.69673 232.36173 234.44673">write</tspan></text>
<text fill="#00adef" xml:space="preserve" transform="matrix(1 0 -0 1 -42.7104 726.12)" font-size="8.9664" font-family="StoneSans"><tspan y="-461.412" x="94.5 98.812839 100.94684 106.281848 111.40166 114.521968 121.138278 126.28499 128.85836 134.00507">Figure4.59</tspan></text>
<text fill="#231f20" xml:space="preserve" transform="matrix(1 0 -0 1 -42.7104 726.12)" font-size="8.9664" font-family="StoneSans" font-weight="bold"><tspan y="-461.412" x="147.12201 152.43909 155.19178 160.50885 167.43898 175.64324 180.54785 188.7521 194.17678 197.87989 204.60379 208.42348 211.9114 216.73534 222.33037 229.30533 231.71729 237.14196 242.73699 245.14894 249.43488">PIPEmemorystagelogic.</tspan></text>
<text fill="#231f20" xml:space="preserve" transform="matrix(1 0 -0 1 -42.7104 726.12)" font-size="8.9664" font-family="StoneSans"><tspan y="-461.412" x="254.07862 262.39945 266.88264 272.12797 278.63667 283.7744 288.4988 291.59223 296.83757 303.45387 306.94178 309.07579 314.4108 319.65614 324.13935 326.27336 331.8325 334.48655 337.60685 342.7446 352.8309 358.18385 360.31785 365.67079 370.21675 372.35075 374.48475 379.73008 386.34638 389.46669 394.01264 399.34767 401.48167 404.96958 408.063 412.60896 415.72926 421.2875 431.67869 436.16188 441.4072 448.81257 459.19477 463.67799 466.79829 473.41459 478.76753 483.25074 486.73866 490.22657 494.77253 502.1779 507.5129 512.65066 519.63546">ManyofthesignalsfrompipelineregistersMandWarepasseddown</tspan><tspan y="-450.45326" x="94.5 97.59341 105.30451 109.85048 114.33368 117.45399 119.58799 121.72199 126.26796 131.96163 135.44956 138.54297 143.02617 148.36118 152.90714 158.96843 162.06185 169.77295 175.12589 178.24619 183.38393 187.77747 189.91147 195.24648 202.3658 209.35063 212.47093 214.60494 217.69835 222.24431 225.23012 230.56513 235.04833 239.36116 246.2115 249.3318 253.87776 257.3657 262.4855 264.6195 267.71293 271.20085 276.34757 278.48158 283.7269 287.2148 290.30824 293.42854 298.54835 302.86119 305.9546 308.0886 313.22636 321.04505 325.52827 330.86329 336.1983 339.3186 343.86457 347.35249 350.8404 355.38636 358.87428 364.021 368.5042 373.74955 381.65794 384.31199 389.44975 392.67765 399.66249 404.1457 407.266 412.601 417.14698 425.05537 428.17567 432.72163 436.20954 441.32936 443.46336 446.55677 450.04469">toearlierstagestoprovidewrite-backresults,instructionaddresses,andforwardedresults.</tspan></text>
<path transform="matrix(1,0,0,-1,-42.7104,726.12)" stroke-width="12.951" stroke-linecap="butt" stroke-miterlimit="10" stroke-linejoin="miter" fill="none" stroke="#c7eafb" d="M92.507 422.424H441.199"/>
<text fill="#231f20" xml:space="preserve" transform="matrix(1 0 -0 1 -42.7104 726.12)" font-size="11.208" font-family="StoneSans" font-weight="bold"><tspan y="-417.941" x="94.5 101.14635 105.640758 111.67066 117.02808 121.38799 124.40295 129.76038 139.10785 145.7542 150.24861 157.02945 164.01204 167.027 173.15778 186.62979 193.06319 196.27988 202.71327">PracticeProblem4.34</tspan></text>
<text fill="#231f20" xml:space="preserve" transform="matrix(1 0 -0 1 -42.7104 726.12)" font-size="9.9626" font-family="TimesTen"><tspan y="-402.997" x="94.5 98.37545 105.7936 109.111148 114.65035 117.41995 123.17435 127.0498 130.36734 135.34864 140.32993 144.9426 149.43373 156.62673 163.48697 167.91037 172.89167 180.30982 184.73322 190.27242 198.57126 204.11046 206.88007 211.86136 215.17891 222.03916 225.3567 230.8959 237.75615 242.17955 247.71875 256.0176 261.55683 267.09605 270.41358 275.39488 278.7124 281.482 287.0212 294.43937 299.97859 305.17506 308.49259 314.0318 320.89204 324.7675 328.08503 333.0663 336.38386 341.92308 347.67747 352.10087 357.64009 363.1793">Inthisstage,wecancompletethecomputationofthestatuscode</tspan></text>
<text fill="#231f20" xml:space="preserve" transform="matrix(1 0 -0 1 -42.7104 726.12)" font-size="9.9626" font-family="StoneSans"><tspan y="-402.997" x="370.0386 375.21916 378.65626 383.63755">Stat</tspan></text>
<text fill="#231f20" xml:space="preserve" transform="matrix(1 0 -0 1 -42.7104 726.12)" font-size="9.9626" font-family="TimesTen"><tspan y="-402.997" x="388.95359 394.4928 401.35304 406.89225 411.87355 415.19108 420.17237 424.59577 427.9133 430.6829 436.2221">bydetecting</tspan><tspan y="-391.0419" x="94.50098 97.81852 103.35773 110.42221 114.845607 119.826908 123.702358 130.76683 136.30603 141.70676 146.68805 154.31043 157.08003 162.61923 167.60053 172.58182 175.35143 178.12104 185.74341 190.7247 196.2639 201.8031 205.67856 210.65985 214.53531 220.49394 223.8115 229.3507 235.30933 238.62688 244.16608 251.23055 256.76976 261.75105 265.06858 272.13307 280.43193 285.4132 293.71208 299.25129 303.12675 307.19148 311.76533 321.7279 325.60337 328.37297 331.6905 338.75498 347.05384 354.24684 362.97508 367.39848 372.93769 378.4769 385.54139 388.85893 394.39814 400.35679 403.67433 409.21354 416.278 420.15348 422.92308 427.90437 433.44358 438.42488">thecaseofaninvalidaddressforthedatamemory.WriteHCLcodeforthesignal</tspan></text>
<text fill="#231f20" xml:space="preserve" transform="matrix(1 0 -0 1 -42.7104 726.12)" font-size="9.9626" font-family="StoneSans"><tspan y="-379.0868" x="94.50098 103.40754 108.38884 112.26429 115.701389 120.682689">m_stat</tspan></text>
<text fill="#231f20" xml:space="preserve" transform="matrix(1 0 -0 1 -42.7104 726.12)" font-size="9.9626" font-family="TimesTen"><tspan y="-379.0868" x="124.11978">.</tspan></text>
<path transform="matrix(1,0,0,-1,-42.7104,726.12)" stroke-width=".498" stroke-linecap="butt" stroke-miterlimit="10" stroke-linejoin="miter" fill="none" stroke="#00adef" d="M94.5 371.366H441.2"/>
<text fill="#231f20" xml:space="preserve" transform="matrix(1 0 -0 1 -42.7104 726.12)" font-size="10.4608" font-family="StoneSans" font-weight="bold"><tspan y="-342.006" x="94.5 100.5045 103.50675 109.51125 112.513507 118.518009">4.5.11</tspan></text>
<text fill="#231f20" xml:space="preserve" transform="matrix(1 0 -0 1 -42.7104 726.12)" font-size="9.9626" font-family="StoneSans" font-weight="bold"><tspan y="-342.006" x="134.983 140.89083 143.57077 149.78743 155.23697 157.91692 160.59687 166.75376 175.06256 181.74747 187.77484 193.93173 197.80719 201.80219 207.82956 213.36878 218.53937 224.56674 230.7834 233.46335">PipelineControlLogic</tspan></text>
<text fill="#231f20" xml:space="preserve" transform="matrix(1 0 -0 1 -42.7104 726.12)" font-size="9.9626" font-family="TimesTen"><tspan y="-322.0808" x="94.49998 103.72534 110.39132 115.37262 119.24807 125.91405 131.45325 136.99245 145.87012 149.74558 154.72687 159.70816 165.24736 171.91333 175.23088 182.45476 186.87816 192.41736 200.7162 206.2554 209.02501 214.0063 217.32386 223.98983 229.52902 235.06822 240.62836 246.16756 251.14885 255.0243 257.7939 262.7752 269.99909 273.31663 278.85585 284.41596 290.5031 294.37858 300.46574 309.34339 314.8826 321.54856 325.97196 329.8474 334.8287 339.81 343.12754 345.89714 351.43635 358.1023 361.41984 366.95906 373.625 379.1642 381.9338 387.47303 392.4543 395.2239 397.9935 403.5327 410.19868 414.62208 420.1613 425.7005 429.01805 432.8935 438.4327">WearenowreadytocompleteourdesignforPIPEbycreatingthepipelinecontrol</tspan><tspan y="-310.1257" x="94.49998 97.26958 102.808788 107.790088 110.559688 114.80375 121.25253 127.499088 133.03829 135.80789 143.6415 146.4111 151.9503 156.9316 159.7012 168.08275 176.38159 181.92079 185.79625 193.07195 198.61115 203.59244 209.13164 214.67084 217.44045 226.37989 229.69744 235.23664 244.17607 247.49362 253.03282 255.80243 258.57203 264.11125 271.30424 274.07383 279.61305 288.55247 291.87 297.4092 302.94844 310.782 315.2054 320.74464 326.28385 329.60139 333.47685 339.01606 345.74378 350.16719 355.14848 359.02394 364.00523 371.8388 375.15635 380.69557 388.52915 395.72215 401.26136 404.03096 408.45436 417.9517 423.4909 426.80845 432.34767 437.32896">logic.Thislogicmusthandlethefollowingfourcontrolcasesforwhichother</tspan><tspan y="-298.1706" x="94.49998 102.79882 107.78012 112.203517 117.74272 122.72402 128.26323 131.03284 134.9083 143.20714 146.53466 151.51595 155.3914 160.9306 165.354 173.38385 178.36515 184.73125 190.27045 195.25174 198.56929 206.04123 209.35878 214.89798 218.77344 225.96643 230.94773 234.82318 240.36238 243.13199 248.67119 256.14314 261.12443 266.66365 274.6935 280.23274 284.1082 289.08949 294.6287 299.0521 307.08198 312.6212 316.49665 321.47795 327.01716 329.78675 334.21015 337.52769 340.29728 345.8365 351.3757 356.35704 361.89625 369.92613 375.46534 381.00456 386.81275 390.6882 396.22743 399.54496 405.08418 409.50758 414.48887">mechanisms,suchasdataforwardingandbranchprediction,donotsuf&#xfb01;ce:</tspan></text>
<text fill="#231f20" xml:space="preserve" transform="matrix(1 0 -0 1 -42.7104 726.12)" font-size="9.9626" font-family="TimesTen" font-weight="bold"><tspan y="-278.1428" x="104.46258 111.107639 114.983089 120.53226 124.95565 129.93695 133.81241 137.68787 140.45748 145.99668">Processing</tspan></text>
<text fill="#231f20" xml:space="preserve" transform="matrix(1 0 -0 1 -42.7104 726.12)" font-size="9.9626" font-family="ZztexMono"><tspan y="-278.1428" x="154.39713 159.62749 164.85785">ret</tspan></text>
<text fill="#231f20" xml:space="preserve" transform="matrix(1 0 -0 1 -42.7104 726.12)" font-size="9.9626" font-family="TimesTen" font-weight="bold"><tspan y="-278.1428" x="170.08823">:</tspan></text>
<text fill="#231f20" xml:space="preserve" transform="matrix(1 0 -0 1 -42.7104 726.12)" font-size="9.9626" font-family="TimesTen"><tspan y="-278.1428" x="177.56018 183.80673 189.34593 197.74639 203.28559 206.05519 211.59439 216.57569 219.34529 222.1149 227.6541 236.05455 244.3534 249.8926 253.76805 260.50477 264.38023 267.69776 272.67906 275.44865 281.6374 287.1766 292.71583 296.03337 298.80296 304.9917 308.30924 313.84846">Thepipelinemuststalluntilthe</tspan></text>
<text fill="#231f20" xml:space="preserve" transform="matrix(1 0 -0 1 -42.7104 726.12)" font-size="9.9626" font-family="ZztexMono"><tspan y="-278.1428" x="322.251 327.48139 332.71177">ret</tspan></text>
<text fill="#231f20" xml:space="preserve" transform="matrix(1 0 -0 1 -42.7104 726.12)" font-size="9.9626" font-family="TimesTen"><tspan y="-278.1428" x="341.36128 344.13087 349.67008 353.54554 356.86308 360.73854 366.27775 370.70115 374.01869 376.78828 382.32749 391.28587 395.16133 400.1426 405.1239 409.5473 415.08653 420.0678 427.36244 430.67997 436.21919">instructionreachesthe</tspan><tspan y="-266.18769" x="130.36437 137.55736 141.43282 144.20243 147.51998 152.50127 155.81882 161.35802 166.33931 170.76271 178.79256 182.66802 185.98557 190.96686 195.94815 200.56082">write-backstage.</tspan></text>
<text fill="#231f20" xml:space="preserve" transform="matrix(1 0 -0 1 -42.7104 726.12)" font-size="9.9626" font-family="TimesTen" font-weight="bold"><tspan y="-251.24379" x="104.4626 111.10766 116.65683 121.63813 127.17734 129.94695 135.48615 139.3616 146.54463 152.08383 157.06513 161.48853 166.46982 170.34528 175.88448 179.75994">Load/usehazards:</tspan></text>
<text fill="#231f20" xml:space="preserve" transform="matrix(1 0 -0 1 -42.7104 726.12)" font-size="9.9626" font-family="TimesTen"><tspan y="-251.24379" x="187.23288 193.47943 199.01863 206.20166 211.74086 214.51047 220.04967 225.03096 227.80057 230.57018 236.10938 243.2924 251.59125 257.13047 261.00593 266.52519 270.40065 273.71818 278.69947 281.46907 286.44038 289.7579 295.29713 301.3743 306.9135 312.45274 319.63575 323.87983 328.8611 333.28453 336.0541 343.23713 348.77635 353.75764 357.07518 364.26817 369.24946 374.23075 381.97169 386.95298 394.6939 397.4635 403.00273 406.87818 410.1957 414.07118 419.61039 424.03379 427.35133 430.1209 435.66014">Thepipelinemuststallforonecyclebetweenaninstruction</tspan><tspan y="-239.28867" x="130.36536 133.6829 139.2221 144.2034 150.0116 153.88706 158.86835 163.84964 169.38884 175.75495 183.22689 188.20818 193.18947 195.95908 201.49828 208.97022 212.28777 216.16323 221.70243 232.49192 240.79076 245.77205 254.07089 259.6101 263.48558 270.95753 275.9388 281.47804 289.5079 294.4892 302.51908 305.28868 310.82789 314.70335 318.02088 321.89634 327.43556 331.85896 335.17649 337.94609 343.4853 351.51518 354.8327 360.37193 365.3532 371.1614 376.70063 380.57609 385.55738 391.9235 395.24104 400.78025 403.54985 409.91596 414.89726 419.87855 422.64814 428.18736 432.80003">thatreadsavaluefrommemoryandaninstructionthatusesthisvalue.</tspan></text>
<text fill="#231f20" xml:space="preserve" transform="matrix(1 0 -0 1 -42.7104 726.12)" font-size="9.9626" font-family="TimesTen" font-weight="bold"><tspan y="-224.34477" x="104.46359 113.868289 116.637889 120.513339 126.05254 129.82837 134.80966 140.34886 143.11847 147.54187 150.85942 155.84072 163.24092 168.78012 172.65558 177.63687 183.17607 187.59947 193.13867 198.11997 201.99542">Mispredictedbranches:</tspan></text>
<text fill="#231f20" xml:space="preserve" transform="matrix(1 0 -0 1 -42.7104 726.12)" font-size="9.9626" font-family="TimesTen"><tspan y="-224.34477" x="209.4684 216.66139 223.5037 226.82125 232.36045 239.20275 242.5203 245.2899 253.58875 260.43107 263.7486 269.2878 276.13014 281.66935 285.5448 290.5261 296.0653 300.4887 307.88896 310.65855 316.19776 321.17906 323.94865 330.23307 335.77229 340.75358 344.0711 349.0524 353.4758 356.79335 362.52983 365.84736 371.38658 376.36787 381.54643 388.38874 391.15834 396.69755 404.9964 412.39665 416.2721 421.8113 427.35054 432.88975 435.65934">Bythetimethebranchlogicdetectsthatajumpshould</tspan><tspan y="-212.38965" x="130.36637 135.90557 141.44477 147.81884 153.35803 158.33933 163.32062 171.35843 176.89763 181.87892 186.86022 195.45594 198.77349 203.75478 209.29398 214.27527 219.81447 225.50312 229.37857 234.35987 239.34116 244.32245 248.1979 253.1792 259.00535 261.77494 267.31416 271.1896 274.50715 278.3826 283.9218 288.3452 291.66276 294.43235 299.97157 305.51078 312.44276 317.42405 323.7981 327.11564 332.65486 340.69267 346.23188 350.10734 355.08863 360.62785 365.05125 373.64698 376.9645 381.9458 385.82127 390.80256 395.78385 402.1579 409.3509 412.12049 414.89009 420.7162 426.2554 431.2367 436.218">nothavebeentaken,severalinstructionsatthebranchtargetwillhave</tspan><tspan y="-200.43453" x="130.36637 134.24182 137.55937 142.54067 146.41613 149.73368 154.71497 162.82053 168.35973 173.89893 181.09192 189.19748 192.51503 198.05423 205.60189 211.14109 213.91069 219.44989 224.43119 227.20079 229.9704 235.5096 240.12227 245.17928 251.42583 256.96504 261.94633 265.82179 273.36946 276.13905 281.67826 285.5537 288.87126 292.7467 298.28593 302.70933 306.02687 308.79646 314.33567 319.87489 326.3167 334.61558 340.1548 344.03025 349.91416 355.45338 363.00105 366.8765 371.8578 380.15666 385.69587 390.67716 395.65846 403.76405 407.08158 410.95704 416.49626 427.36149 430.67903 436.21824">starteddownthepipeline.Theseinstructionsmustberemovedfromthe</tspan><tspan y="-188.4794" x="130.36637 135.90557 138.67517 144.21437 149.19567 151.96527 154.73488 160.27408 164.88675">pipeline.</tspan></text>
<text fill="#231f20" xml:space="preserve" transform="matrix(1 0 -0 1 -42.7104 726.12)" font-size="9.9626" font-family="TimesTen" font-weight="bold"><tspan y="-173.5355" x="104.4646 111.6576 116.6389 121.062297 126.043598 131.5828 134.90035 137.66996 143.21912 148.75832 152.63378">Exceptions:</tspan></text>
<text fill="#231f20" xml:space="preserve" transform="matrix(1 0 -0 1 -42.7104 726.12)" font-size="9.9626" font-family="TimesTen"><tspan y="-173.5355" x="160.10672 169.89 175.4292 180.41049 188.8508 193.83209 202.2724 205.042 210.5812 214.45667 217.77422 221.64968 227.18888 231.61228 234.92983 237.69944 243.23863 251.67894 256.10234 261.08363 266.62284 270.4983 275.47959 282.25617 287.23747 295.6778 300.6591 305.64039 310.06379 315.04508 320.5843 323.90184 326.67143 332.21064 337.74986 343.24424 350.43724 358.31965 365.51264 370.49394 376.03315 382.2518 385.56935 394.00968 399.5489 402.31849 406.19395 411.17524 416.71446 419.48405 427.36647 430.684 436.2232">Whenaninstructioncausesanexception,wewanttodisablethe</tspan><tspan y="-161.58039" x="130.36637 135.90557 141.44477 146.98397 151.96526 155.2828 158.05242 163.59162 172.04686 177.58606 184.37757 187.69512 193.23432 201.68956 207.22876 211.10422 216.64342 221.62471 225.50017 230.48146 238.7803 247.07915 252.06044 255.38796 258.7055 263.6868 266.4564 270.33186 273.10145 278.64067 281.41026 289.8655 293.74098 297.0585 302.0398 305.35734 313.8126 319.3518 327.80708 330.57667 335.55796 338.8755 343.85679 351.2062 353.9758 359.515 363.39048 366.708 370.58348 376.12269 380.54609 383.86363 386.6332 392.17243 397.71165 405.06108 410.04237 415.58158 424.59477 430.13398 435.11528 437.88487">updatingoftheprogrammer-visiblestatebylaterinstructionsandhalt</tspan><tspan y="-149.62526" x="130.36637 135.34766 140.32895 145.31024 149.73365 155.27285 158.5904 161.36 166.8992 174.92905 180.46825 186.00745 190.43085 197.90279 201.22034 206.75954 214.23148 219.21277 224.19406 228.61746 233.59876 239.13796 242.4555 245.22512 250.76432 258.23628 261.00587 266.54508 270.42054 273.73808 277.61354 283.15275 287.57615 290.89369 293.66328 299.20249 307.23237 311.10783 316.0891 321.0704 325.4938 331.03303 336.0143 342.38044 345.69798 351.23719 358.70915 365.90214 369.7776 372.54719 375.86473 380.846 384.16355 389.70277 394.68406 399.10746 407.13734 411.0128 414.33033 419.3116 424.2929 428.90559">executiononcetheexceptinginstructionreachesthewrite-backstage.</tspan><tspan y="-129.59745" x="112.43468 121.66004 128.23038 135.42337 138.19298 140.96259 145.32123 150.30252 157.43076 160.7483 166.2875 170.16297 175.70217 181.24137 186.22266 193.35089 196.66844 202.20764 208.77797 214.31717 219.29846 223.17392 225.94353 229.81899 234.80028 241.92852 246.9098 251.3332 254.65076 257.42036 262.95957 268.49879 273.96327 277.2808 282.82 288.2845 293.26579 298.24708 302.67048 309.7987 315.33793 320.24449 323.562 329.10124 334.08253 337.95799 344.5283 348.9517 353.93299 357.80845 362.78974 368.2542 373.2355 378.77473 385.90296 389.2205 394.7597 399.741 406.86924 412.40846 417.38975 422.37104 427.35234 430.12193 435.66114">Wewillgothroughthedesiredactionsforeachofthesecasesandthendevelop</tspan><tspan y="-117.64232" x="94.502 98.92539 104.4646 110.00381 113.32135 117.1968 122.73601 127.996257 130.76586 136.30506 141.28635 144.05596 150.97 154.28755 162.3174 167.8566 172.83789 178.37709 183.91629 186.6859 194.15784 199.13913 201.90874 207.16899 212.70819 218.51639 221.83394 227.37314 232.35443 240.65328">controllogictohandleallofthem.</tspan></text>
</g>
</svg>
