<svg xmlns="http://www.w3.org/2000/svg" xmlns:xlink="http://www.w3.org/1999/xlink" version="1.1" width="532.7996" height="664.92" viewBox="0 0 532.7996 664.92">
<defs>
<clipPath id="clip_3377">
<path transform="matrix(1,0,0,-1,-42.7104,726.12)" d="M42.7104 61.2H575.51V726.12H42.7104Z" fill-rule="evenodd"/>
</clipPath>
</defs>
<g clip-path="url(#clip_3377)">
<text xml:space="preserve" transform="matrix(1 0 -0 1 -42.7104 726.12)" font-size="8.4682" font-family="StoneSans"><tspan y="-681.875" x="316.597 321.00047 325.29383 329.36705 332.28858 334.30403 339.15629 346.54054 351.40129 353.83164 367.16059 373.00364 377.95753 382.9961 387.28947 390.2364 393.53053 396.45207 400.68617 405.64006 410.67863 412.69407 417.64796 425.11689 432.97538 437.82765 442.8662 447.15959 450.1065 457.49076 462.03819 464.9851 469.83738 473.91059 478.20396 481.49809 484.7922 489.64448 492.5914">Section5.7UnderstandingModernProcessors</tspan></text>
<text xml:space="preserve" transform="matrix(1 0 -0 1 -42.7104 726.12)" font-size="9.4645" font-family="StoneSans" font-weight="bold"><tspan y="-681.875" x="508.587 514.01968 519.4523">497</tspan></text>
<text fill="#00adef" xml:space="preserve" transform="matrix(1 0 -0 1 -42.7104 726.12)" font-size="8.9664" font-family="StoneSans"><tspan y="-655.623" x="94.5 98.812839 100.94684 106.281848 111.40166 114.521968 121.64129 126.788 129.36136 134.50807">Figure5.11</tspan></text>
<text fill="#231f20" xml:space="preserve" transform="matrix(1 0 -0 1 -42.7104 726.12)" font-size="8.9664" font-family="StoneSans" font-weight="bold"><tspan y="-644.66519" x="94.5 100.11297 102.52493 107.94961 112.23555 120.973308 126.56834 128.9803 133.80423 139.39926 142.99478 147.81871 160.16992 165.59459 172.89772">Blockdiagramofa</tspan><tspan y="-633.70736" x="94.5 102.704257 108.12893 113.72396 118.628589 122.22411 131.02643 136.62146 140.21698 145.64165 149.92758 154.8322 158.65189 162.47158 167.89624 170.82825">modernprocessor.</tspan></text>
<text fill="#231f20" xml:space="preserve" transform="matrix(1 0 -0 1 -42.7104 726.12)" font-size="8.9664" font-family="StoneSans"><tspan y="-633.70736" x="176.6618 181.64713 186.89247">The</tspan><tspan y="-622.7486" x="94.49999 96.633998 101.87934 105.36727 108.46068 111.580989 116.7008 121.01363 124.10704 126.24104 131.37879 140.14434 144.45717 149.59491 154.84026 157.93367 161.05397 166.19171 171.84592 176.96573 182.21108 184.34508">instructioncontrolunit</tspan><tspan y="-611.78988" x="94.49999 96.633998 103.16154 106.281848 110.82781 114.31574 119.668689 124.806438 130.05178 133.5397 135.6737 141.00872 143.14272 150.72829 153.38234 158.52008 164.68 167.8003 172.34626 176.82946 182.16446 184.29846 189.54381">isresponsibleforreading</tspan><tspan y="-600.83206" x="94.49999 96.633998 101.87934 105.36727 108.46068 111.580989 116.7008 121.01363 124.10704 126.24104 131.37879 136.62413 142.94455 145.5986 148.7189 153.85665 164.7051 172.72106 177.26702 185.28298 190.42072 193.6486">instructionsfrommemory</tspan><tspan y="-589.8733" x="94.49999 98.98319 104.22854 112.14139 117.476398 122.02236 127.26771 131.81368 134.93398 139.41718 142.51059 144.64459 149.88994 157.80278 164.86382 168.35175 172.8977 178.25064 183.37046 187.91641 193.16176 197.4746">andgeneratingasequence</tspan><tspan y="-578.91458" x="94.49999 99.63774 105.747447 111.10039 114.220699 116.3547 124.37066 126.50466 129.59807 131.73207 136.12561 144.12723 149.26497 154.6179 159.16387 162.28417 166.76737 169.86078 171.99478 177.13253 182.37787 185.8658">ofprimitiveoperations.</tspan><tspan y="-567.9558" x="94.49999 99.48531 104.73066 112.53053 117.0765 121.730068 126.27603 130.58887 135.70868 138.8021 140.9361 146.07384 154.57309 159.6929 164.93825 167.07225 173.41957 176.51299 181.75833 186.30429">Theexecutionunitthen</tspan><tspan y="-556.998" x="94.49999 99.852939 104.3989 107.62681 110.28086 115.41861 118.53892 126.55488 133.31822 136.41164 141.65699 149.47837 154.6161 159.96904 164.515 167.6353 172.1185 175.21192 177.34592 182.48366 187.729">performstheoperations</tspan><tspan y="-546.03927" x="94.49999 98.98319 104.22854 112.37361 114.507617 119.75296 125.08797 127.22197 131.5348 136.018 139.11142 143.65738 149.95539 156.94022 162.18556 166.73152 169.82494 175.07028 179.61624 185.54662 188.64003 193.88538">andindicateswhetherthe</tspan><tspan y="-535.0805" x="94.49999 99.835 102.95531 107.43851 112.68385 116.99669 122.242038 126.788 133.60784 140.59267 145.13863 148.25893 156.1368 160.44963 165.58737 168.70767 171.82798 176.37393 180.68677 183.78018 185.91419">brancheswerecorrectly</tspan><tspan y="-524.12179" x="94.49999 99.852939 102.97324 107.51921 112.85422 114.98822 119.301059 122.39446 126.94043 132.27544">predicted.</tspan></text>
<path transform="matrix(1,0,0,-1,-42.7104,726.12)" d="M521.451 563.065H240.72998V664.3H521.451ZM240.73 563.065" fill="#e1f3fd"/>
<path transform="matrix(1,0,0,-1,-42.7104,726.12)" stroke-width=".98" stroke-linecap="butt" stroke-miterlimit="4" stroke-linejoin="miter" fill="none" stroke="#231f20" d="M521.45 563.065H240.729V664.3H521.45Z"/>
<path transform="matrix(1,0,0,-1,-42.7104,726.12)" d="M521.451 381.275H240.72998V541.8H521.451ZM240.73 381.275" fill="#e1f3fd"/>
<path transform="matrix(1,0,0,-1,-42.7104,726.12)" stroke-width=".98" stroke-linecap="butt" stroke-miterlimit="4" stroke-linejoin="miter" fill="none" stroke="#231f20" d="M521.45 381.275H240.729V541.8H521.45Z"/>
<path transform="matrix(1,0,0,-1,-42.7104,726.12)" d="M518.238 473.501H261.91899V520.684H518.238ZM261.919 473.501" fill="#e6e7e8"/>
<path transform="matrix(1,0,0,-1,-42.7104,726.12)" stroke-width=".98" stroke-linecap="butt" stroke-miterlimit="4" stroke-linejoin="miter" fill="none" stroke="#231f20" d="M518.238 473.501H261.91899V520.684H518.238Z"/>
<path transform="matrix(1,0,0,-1,-42.7104,726.12)" d="M345.541 580.588H293.66499V634.653H345.541ZM293.665 580.588" fill="#dcddde"/>
<path transform="matrix(1,0,0,-1,-42.7104,726.12)" stroke-width=".98" stroke-linecap="butt" stroke-miterlimit="4" stroke-linejoin="miter" fill="none" stroke="#231f20" d="M345.54 580.588H293.664V634.653H345.54Z"/>
<path transform="matrix(1,0,0,-1,-42.7104,726.12)" d="M503.538 580.829H456.245V638.51199H503.538ZM456.245 580.829" fill="#dcddde"/>
<path transform="matrix(1,0,0,-1,-42.7104,726.12)" stroke-width=".98" stroke-linecap="butt" stroke-miterlimit="4" stroke-linejoin="miter" fill="none" stroke="#231f20" d="M503.538 580.829H456.245V638.51199H503.538Z"/>
<path transform="matrix(1,0,0,-1,-42.7104,726.12)" d="M354.75 488.201H314.031V512.354H354.75ZM314.031 488.201" fill="#00b9f1"/>
<path transform="matrix(1,0,0,-1,-42.7104,726.12)" stroke-width=".98" stroke-linecap="butt" stroke-miterlimit="4" stroke-linejoin="miter" fill="none" stroke="#231f20" d="M354.75 488.201H314.031V512.354H354.75Z"/>
<path transform="matrix(1,0,0,-1,-42.7104,726.12)" d="M306.73 488.201H266.01103V512.354H306.73ZM266.011 488.201" fill="#00b9f1"/>
<path transform="matrix(1,0,0,-1,-42.7104,726.12)" stroke-width=".98" stroke-linecap="butt" stroke-miterlimit="4" stroke-linejoin="miter" fill="none" stroke="#231f20" d="M306.73 488.201H266.01103V512.354H306.73Z"/>
<path transform="matrix(1,0,0,-1,-42.7104,726.12)" d="M402.482 488.201H361.763V512.354H402.482ZM361.763 488.201" fill="#00b9f1"/>
<path transform="matrix(1,0,0,-1,-42.7104,726.12)" stroke-width=".98" stroke-linecap="butt" stroke-miterlimit="4" stroke-linejoin="miter" fill="none" stroke="#231f20" d="M402.482 488.201H361.763V512.354H402.482Z"/>
<path transform="matrix(1,0,0,-1,-42.7104,726.12)" d="M441.326 488.201H409.966V512.354H441.326ZM409.966 488.201" fill="#00b9f1"/>
<path transform="matrix(1,0,0,-1,-42.7104,726.12)" stroke-width=".98" stroke-linecap="butt" stroke-miterlimit="4" stroke-linejoin="miter" fill="none" stroke="#231f20" d="M441.326 488.201H409.966V512.354H441.326Z"/>
<path transform="matrix(1,0,0,-1,-42.7104,726.12)" d="M478.278 488.201H446.91804V512.354H478.278ZM446.918 488.201" fill="#00b9f1"/>
<path transform="matrix(1,0,0,-1,-42.7104,726.12)" stroke-width=".98" stroke-linecap="butt" stroke-miterlimit="4" stroke-linejoin="miter" fill="none" stroke="#231f20" d="M478.278 488.201H446.91804V512.354H478.278Z"/>
<path transform="matrix(1,0,0,-1,-42.7104,726.12)" d="M481.978 396.089H414.309V428.57099H481.978ZM414.309 396.089" fill="#dcddde"/>
<path transform="matrix(1,0,0,-1,-42.7104,726.12)" stroke-width=".98" stroke-linecap="butt" stroke-miterlimit="4" stroke-linejoin="miter" fill="none" stroke="#231f20" d="M481.978 396.089H414.309V428.57099H481.978Z"/>
<path transform="matrix(1,0,0,-1,-42.7104,726.12)" d="M408.981 614.359H358.552V643.33706H408.981ZM358.552 614.359" fill="#dcddde"/>
<path transform="matrix(1,0,0,-1,-42.7104,726.12)" stroke-width=".98" stroke-linecap="butt" stroke-miterlimit="4" stroke-linejoin="miter" fill="none" stroke="#231f20" d="M408.981 614.359H358.552V643.33706H408.981Z"/>
<path transform="matrix(1,0,0,-1,-42.7104,726.12)" d="M408.981 580.346H358.552V609.32406H408.981ZM358.552 580.346" fill="#dcddde"/>
<path transform="matrix(1,0,0,-1,-42.7104,726.12)" stroke-width=".98" stroke-linecap="butt" stroke-miterlimit="4" stroke-linejoin="miter" fill="none" stroke="#231f20" d="M408.981 580.346H358.552V609.32406H408.981Z"/>
<path transform="matrix(1,0,0,-1,-42.7104,726.12)" stroke-width=".735" stroke-linecap="butt" stroke-dasharray="1.96,.98" stroke-miterlimit="4" stroke-linejoin="miter" fill="none" stroke="#231f20" d="M274.025 512.987V638.427H356.346"/>
<path transform="matrix(1,0,0,-1,-42.7104,726.12)" d="M357.802 638.427 354.829 637.212 355.534 638.427 354.829 639.642 357.802 638.427" fill="#231f20"/>
<path transform="matrix(1,0,0,-1,-42.7104,726.12)" stroke-width="1.225" stroke-linecap="butt" stroke-miterlimit="4" stroke-linejoin="miter" fill="none" stroke="#231f20" d="M409.102 630.097H453.366"/>
<path transform="matrix(1,0,0,-1,-42.7104,726.12)" d="M456.07 630.097 451.908 628.396 452.895 630.097 451.908 631.798 456.07 630.097" fill="#231f20"/>
<path transform="matrix(1,0,0,-1,-42.7104,726.12)" stroke-width="1.225" stroke-linecap="butt" stroke-miterlimit="4" stroke-linejoin="miter" fill="none" stroke="#231f20" d="M455.652 596.287H411.716"/>
<path transform="matrix(1,0,0,-1,-42.7104,726.12)" d="M409.011 596.287 413.173 597.988 412.186 596.287 413.173 594.586 409.011 596.287" fill="#231f20"/>
<path transform="matrix(1,0,0,-1,-42.7104,726.12)" stroke-width=".49" stroke-linecap="butt" stroke-miterlimit="4" stroke-linejoin="miter" fill="none" stroke="#231f20" d="M332.401 596.287H355.693"/>
<path transform="matrix(1,0,0,-1,-42.7104,726.12)" d="M357.966 596.287 354.992 595.072 355.697 596.287 354.992 597.502 357.966 596.287" fill="#231f20"/>
<path transform="matrix(1,0,0,-1,-42.7104,726.12)" stroke-width="1.96" stroke-linecap="butt" stroke-miterlimit="4" stroke-linejoin="miter" fill="none" stroke="#231f20" d="M383.786 580.607V528.177"/>
<path transform="matrix(1,0,0,-1,-42.7104,726.12)" d="M383.786 525.932 381.659 531.136 383.786 529.901 385.911 531.136 383.786 525.932" fill="#231f20"/>
<path transform="matrix(1,0,0,-1,-42.7104,726.12)" stroke-width="1.225" stroke-linecap="butt" stroke-miterlimit="4" stroke-linejoin="miter" fill="none" stroke="#231f20" d="M383.786 569.827H342.626V578.157"/>
<path transform="matrix(1,0,0,-1,-42.7104,726.12)" d="M342.626 580.862 344.326 576.698 342.626 577.686 340.925 576.698 342.626 580.862" fill="#231f20"/>
<path transform="matrix(1,0,0,-1,-42.7104,726.12)" stroke-width=".49" stroke-linecap="butt" stroke-miterlimit="4" stroke-linejoin="miter" fill="none" stroke="#231f20" d="M334.276 526.217V514.457"/>
<path transform="matrix(1,0,0,-1,-42.7104,726.12)" d="M334.276 512.347 333.061 515.32 334.276 514.615 335.491 515.32 334.276 512.347" fill="#231f20"/>
<path transform="matrix(1,0,0,-1,-42.7104,726.12)" stroke-width=".49" stroke-linecap="butt" stroke-miterlimit="4" stroke-linejoin="miter" fill="none" stroke="#231f20" d="M380.689 526.217V514.457"/>
<path transform="matrix(1,0,0,-1,-42.7104,726.12)" d="M380.689 512.347 379.475 515.32 380.689 514.615 381.904 515.32 380.689 512.347" fill="#231f20"/>
<path transform="matrix(1,0,0,-1,-42.7104,726.12)" stroke-width=".49" stroke-linecap="butt" stroke-miterlimit="4" stroke-linejoin="miter" fill="none" stroke="#231f20" d="M426.534 526.217V514.457"/>
<path transform="matrix(1,0,0,-1,-42.7104,726.12)" d="M426.534 512.347 425.318 515.32 426.534 514.615 427.748 515.32 426.534 512.347" fill="#231f20"/>
<path transform="matrix(1,0,0,-1,-42.7104,726.12)" stroke-width=".49" stroke-linecap="butt" stroke-miterlimit="4" stroke-linejoin="miter" fill="none" stroke="#231f20" d="M462.951 514.457V526.217H285.295V514.457"/>
<path transform="matrix(1,0,0,-1,-42.7104,726.12)" d="M285.295 512.347 284.08 515.32 285.295 514.615 286.51 515.32 285.295 512.347" fill="#231f20"/>
<path transform="matrix(1,0,0,-1,-42.7104,726.12)" d="M462.951 512.347 461.736 515.32 462.951 514.615 464.165 515.32 462.951 512.347" fill="#231f20"/>
<path transform="matrix(1,0,0,-1,-42.7104,726.12)" stroke-width=".49" stroke-linecap="butt" stroke-miterlimit="4" stroke-linejoin="miter" fill="none" stroke="#231f20" d="M285.785 485.672V468.791"/>
<path transform="matrix(1,0,0,-1,-42.7104,726.12)" d="M285.785 466.68 284.57 469.653 285.785 468.949 287 469.653 285.785 466.68" fill="#231f20"/>
<path transform="matrix(1,0,0,-1,-42.7104,726.12)" d="M285.785 487.782 287 484.809 285.785 485.514 284.57 484.809 285.785 487.782" fill="#231f20"/>
<path transform="matrix(1,0,0,-1,-42.7104,726.12)" stroke-width=".49" stroke-linecap="butt" stroke-miterlimit="4" stroke-linejoin="miter" fill="none" stroke="#231f20" d="M334.527 485.672V468.791"/>
<path transform="matrix(1,0,0,-1,-42.7104,726.12)" d="M334.527 466.68 333.312 469.653 334.527 468.949 335.742 469.653 334.527 466.68" fill="#231f20"/>
<path transform="matrix(1,0,0,-1,-42.7104,726.12)" d="M334.527 487.782 335.742 484.809 334.527 485.514 333.312 484.809 334.527 487.782" fill="#231f20"/>
<path transform="matrix(1,0,0,-1,-42.7104,726.12)" stroke-width=".49" stroke-linecap="butt" stroke-miterlimit="4" stroke-linejoin="miter" fill="none" stroke="#231f20" d="M380.836 485.672V468.791"/>
<path transform="matrix(1,0,0,-1,-42.7104,726.12)" d="M380.836 466.68 379.622 469.653 380.836 468.949 382.051 469.653 380.836 466.68" fill="#231f20"/>
<path transform="matrix(1,0,0,-1,-42.7104,726.12)" d="M380.836 487.782 382.051 484.809 380.836 485.514 379.622 484.809 380.836 487.782" fill="#231f20"/>
<path transform="matrix(1,0,0,-1,-42.7104,726.12)" stroke-width=".49" stroke-linecap="butt" stroke-miterlimit="4" stroke-linejoin="miter" fill="none" stroke="#231f20" d="M426.638 485.672V468.791"/>
<path transform="matrix(1,0,0,-1,-42.7104,726.12)" d="M426.638 466.68 425.423 469.653 426.638 468.949 427.853 469.653 426.638 466.68" fill="#231f20"/>
<path transform="matrix(1,0,0,-1,-42.7104,726.12)" d="M426.638 487.782 427.853 484.809 426.638 485.514 425.423 484.809 426.638 487.782" fill="#231f20"/>
<path transform="matrix(1,0,0,-1,-42.7104,726.12)" stroke-width=".49" stroke-linecap="butt" stroke-miterlimit="4" stroke-linejoin="miter" fill="none" stroke="#231f20" d="M462.855 485.672V468.791"/>
<path transform="matrix(1,0,0,-1,-42.7104,726.12)" d="M462.855 466.68 461.64 469.653 462.855 468.949 464.07 469.653 462.855 466.68" fill="#231f20"/>
<path transform="matrix(1,0,0,-1,-42.7104,726.12)" d="M462.855 487.782 464.07 484.809 462.855 485.514 461.64 484.809 462.855 487.782" fill="#231f20"/>
<path transform="matrix(1,0,0,-1,-42.7104,726.12)" stroke-width=".98" stroke-linecap="butt" stroke-miterlimit="4" stroke-linejoin="miter" fill="none" stroke="#231f20" d="M417.941 488.375V430.941"/>
<path transform="matrix(1,0,0,-1,-42.7104,726.12)" d="M417.941 429.083 416.579 432.412 417.941 431.624 419.301 432.412 417.941 429.083" fill="#231f20"/>
<path transform="matrix(1,0,0,-1,-42.7104,726.12)" stroke-width=".98" stroke-linecap="butt" stroke-miterlimit="4" stroke-linejoin="miter" fill="none" stroke="#231f20" d="M437.404 429.083V486.516"/>
<path transform="matrix(1,0,0,-1,-42.7104,726.12)" d="M437.404 488.376 438.766 485.046 437.404 485.835 436.045 485.046 437.404 488.376" fill="#231f20"/>
<path transform="matrix(1,0,0,-1,-42.7104,726.12)" stroke-width=".98" stroke-linecap="butt" stroke-miterlimit="4" stroke-linejoin="miter" fill="none" stroke="#231f20" d="M474.378 488.375V430.941"/>
<path transform="matrix(1,0,0,-1,-42.7104,726.12)" d="M474.378 429.083 473.016 432.412 474.378 431.624 475.738 432.412 474.378 429.083" fill="#231f20"/>
<path transform="matrix(1,0,0,-1,-42.7104,726.12)" stroke-width=".98" stroke-linecap="butt" stroke-miterlimit="4" stroke-linejoin="miter" fill="none" stroke="#231f20" d="M457.123 488.375V430.941"/>
<path transform="matrix(1,0,0,-1,-42.7104,726.12)" d="M457.123 429.083 455.762 432.412 457.123 431.624 458.483 432.412 457.123 429.083" fill="#231f20"/>
<path transform="matrix(1,0,0,-1,-42.7104,726.12)" d="M293.166 587.956 289.836 586.595 290.625 587.956 289.836 589.317 293.166 587.956" fill="#231f20"/>
<path transform="matrix(1,0,0,-1,-42.7104,726.12)" stroke-width=".98" stroke-linecap="butt" stroke-miterlimit="4" stroke-linejoin="miter" fill="none" stroke="#231f20" d="M291.306 587.957H257.365V466.437M482.811 466.437H247.075"/>
<path transform="matrix(1,0,0,-1,-42.7104,726.12)" stroke-width=".735" stroke-linecap="butt" stroke-dasharray="1.96,.98" stroke-miterlimit="4" stroke-linejoin="miter" fill="none" stroke="#231f20" d="M273.685 620.658H291.735"/>
<path transform="matrix(1,0,0,-1,-42.7104,726.12)" d="M293.193 620.658 290.219 619.443 290.925 620.658 290.219 621.873 293.193 620.658" fill="#231f20"/>
<path transform="matrix(1,0,0,-1,-42.7104,726.12)" d="M336.614 583.723H302.83103V609.565H336.614ZM302.831 583.723" fill="#aae0fa"/>
<path transform="matrix(1,0,0,-1,-42.7104,726.12)" stroke-width=".98" stroke-linecap="butt" stroke-miterlimit="4" stroke-linejoin="miter" fill="none" stroke="#231f20" d="M336.615 583.723H302.832V609.565H336.615Z"/>
<text fill="#231f20" xml:space="preserve" transform="matrix(1 0 -0 1 -42.7104 726.12)" font-size="8.82" font-family="Helvetica"><tspan y="-649.211" x="342.45 344.90199 349.8059 354.2159 356.66789 359.60496 364.50889 368.91889 371.37086 373.3289 378.23283 383.13676 385.5887 389.99873 394.90266 399.80659 402.25856 405.19563 410.09956">Instruction control</tspan></text>
<text fill="#231f20" xml:space="preserve" transform="matrix(1 0 -0 1 -42.7104 726.12)" font-size="7.84" font-family="Helvetica"><tspan y="-633.678" x="417.216 422.44529 426.80433 431.16337 433.77409 438.13313 442.05314">Address</tspan><tspan y="-600.84799" x="413.51084 415.69038 420.0494 423.96943 426.14897 428.75968 433.1187 437.03874 439.21827 440.95875 445.31779 449.67683">Instructions</tspan><tspan y="-622.60397" x="299.87318 305.53367 309.8927 312.07225 313.8127 316.42344 320.78248 327.3132 331.67225 336.03129">Retirement</tspan><tspan y="-613.78396" x="312.72294 317.08198 321.441 323.1815">unit</tspan><tspan y="-630.09976" x="374.21205 379.0023 383.36134 385.54087 389.46089">Fetch</tspan><tspan y="-622.16177" x="372.25205 376.17207 380.5311 384.89015 387.06968 389.6804 394.03944">control</tspan><tspan y="-595.7017" x="366.423 368.60255 372.96159 376.8816 379.06114 381.67185 386.03089 389.9509 392.13044 393.8709 398.22996">Instruction</tspan><tspan y="-587.76376" x="371.64915 376.00819 380.36723 384.28724 388.64628 393.0053">decode</tspan><tspan y="-570.51577" x="388.16725 394.26676 398.6258 402.98484 405.59556 409.9546 412.13414 413.8746 418.23365 422.59269">Operations</tspan><tspan y="-611.72598" x="461.973 464.15254 468.51158 472.43159 474.6111 477.22184 481.58088 485.5009 487.68043 489.4209 493.77995">Instruction</tspan><tspan y="-603.78799" x="469.59819 473.5182 477.87724 481.79725 486.15629">cache</tspan><tspan y="-553.8072" x="278.7804 284.00968 286.6204 290.97944 295.33848 297.07896 300.99897 303.1785 304.91899 309.278">Prediction</tspan><tspan y="-545.8692" x="278.7804 284.8799 290.1092">OK?</tspan><tspan y="-553.8072" x="226.00778 231.66826 236.0273 240.38634 242.12682 246.04682 248.22634 252.58538">Register</tspan><tspan y="-545.8692" x="226.00778 230.36682 234.72586 239.0849 243.44394 245.62346 249.9825">updates</tspan><tspan y="-457.22938" x="298.96839 305.0679 309.42695 313.78599 316.3967 320.75575 322.93528 324.67576 329.0348 333.39384 335.57337 338.18409 342.54313 346.46315 350.82218 352.56266 354.7422">Operation results</tspan><tspan y="-456.42344" x="397.41056 402.63984 406.99888 411.3579 413.5382 438.1072 443.3365 447.69554 452.05458 454.23487">Addr.Addr.</tspan><tspan y="-441.79478" x="418.97056 424.63105 428.99009 431.16963 475.9368 481.5973 485.95634 488.13587">DataData</tspan><tspan y="-413.83186" x="439.42277 445.08326 449.4423 451.62184">Data</tspan><tspan y="-405.89387" x="437.24247 441.16249 445.5215 449.44154 453.80058">cache</tspan><tspan y="-385.78663" x="364.71229 369.94157 373.86158 378.2206 382.14064 386.49967 388.6792 390.41969 394.77873">Execution</tspan><tspan y="-499.71125" x="479.92344 484.71369 489.07273 493.43177 497.35179 499.5313 501.2718 505.63084 509.98988 514.34896">Functional</tspan><tspan y="-491.77326" x="489.72737 494.0864 498.44544 500.1859 502.36546">units</tspan></text>
<text fill="#ffffff" xml:space="preserve" transform="matrix(1 0 -0 1 -42.7104 726.12)" font-size="7.84" font-family="Helvetica"><tspan y="-497.35926" x="453.1616 458.39088 460.5704 464.92945 467.54017 417.60093 421.95997 426.319 430.67805">StoreLoad</tspan><tspan y="-501.81944" x="369.21089 374.00114 379.09086 381.2704 385.62944 389.98847">FP add</tspan><tspan y="-493.88145" x="367.50569 372.08424 373.8247 378.18376 380.36329 384.72233 389.08137 393.4404">+integer</tspan><tspan y="-501.81944" x="315.70603 320.49629 325.586 327.76554 334.29627 338.6553 340.39579 342.57533 346.93437 348.67485">FP mul/div</tspan><tspan y="-493.88145" x="319.8777 324.45625 326.19673 330.55577 332.7353 337.09434 341.45338 345.8124">+integer</tspan><tspan y="-501.81944" x="274.15403 279.3833 281.99403 286.35307 290.7121 294.6321">Branch</tspan><tspan y="-493.88145" x="272.29908 276.87763 278.6181 282.97715 285.15669 289.51573 293.87477 298.2338">+integer</tspan></text>
<text fill="#231f20" xml:space="preserve" transform="matrix(1 0 -0 1 -42.7104 726.12)" font-size="7.84" font-family="Helvetica"><tspan y="-597.80929" x="304.98796 310.64845 315.00749 319.36653 321.107 325.027 327.20655 331.56559">Register</tspan><tspan y="-588.98928" x="314.57237 316.7519 318.49238 320.23286">file</tspan></text>
<text fill="#231f20" xml:space="preserve" transform="matrix(1 0 -0 1 -42.7104 726.12)" font-size="9.9626" font-family="TimesTen"><tspan y="-338.365" x="94.5 99.4813 104.4626 110.00181 112.77141 118.310619 121.080219 126.61344 129.38304 134.92224 138.7977 142.11525 145.9907 151.5299 155.95331 159.27086 162.04047 167.57967 173.11887 176.43642 179.20603 184.18732 189.16861 194.1499 199.1352 204.6744 209.65569 213.53115 218.51244 221.28205 224.05165 229.03295 231.80255 234.57216 238.44762 246.74646 251.45279 257.69935 263.23857">exploitinstruction-levelparallelism.The</tspan></text>
<text fill="#231f20" xml:space="preserve" transform="matrix(1 0 -0 1 -42.7104 726.12)" font-size="9.9626" font-family="TimesTen" font-style="italic"><tspan y="-338.365" x="270.43653 273.20613 278.74534 282.6208 288.16 293.69923 298.6805 304.21974 309.75895 315.29817 320.28343 325.82264 331.36186 336.90107 342.44029">throughputbound</tspan></text>
<text fill="#231f20" xml:space="preserve" transform="matrix(1 0 -0 1 -42.7104 726.12)" font-size="9.9626" font-family="TimesTen"><tspan y="-338.365" x="350.4342 354.8576 360.39683 365.3781 369.25358 374.23487 378.65827 381.9758 386.9571 390.83256 393.60215 398.02555 403.00685 409.09797 412.4155 417.9547 425.15168 429.02714 434.00843">characterizestheraw</tspan><tspan y="-326.40989" x="94.49901 98.9224 104.46161 112.76045 118.29966 123.83887 127.15641 129.92601 135.46521 143.47911 147.90251 152.8838 158.423 163.4043 167.8277 170.5973 173.91486 181.92876 187.46796 193.81812 197.13567 202.67487 210.68877 216.22797 220.10343 225.64263 230.06603 235.04732 238.92278 242.79824 248.33744 252.21289 254.80318 261.71125 265.02879 270.568 276.1072 280.5306 283.84815 286.61775 292.15696 297.69618 302.67747 308.47969 314.0189 319.5581 322.3277 325.64524 328.97276 334.49604 340.74259 346.2818 349.0514 355.95948 361.4987 367.0379 372.57713 378.11634 386.68818 392.2274 397.20869 401.63209 407.1713 415.47016 420.45146 427.35954 430.67707 436.21629">computingcapacityoftheprocessor&#x2019;sfunctionalunits.Thisboundbecomesthe</tspan><tspan y="-314.45478" x="94.49901 100.038219 102.807819 106.12536 108.89496 117.1938 122.1751 125.492649 132.96459 135.73419 138.5038 146.80265 149.57225 155.38045 160.91965 168.9495 174.4887 178.36415 183.90335 188.88465 192.7601 197.7414 208.53089 214.07009 219.05138 222.92684 226.24439 231.78359 235.65904 243.95789 248.93918 254.47838 258.90177 263.51445">ultimatelimitonprogramperformance.</tspan></text>
<text fill="#231f20" xml:space="preserve" transform="matrix(1 0 -0 1 -42.7104 726.12)" font-size="10.4608" font-family="StoneSans" font-weight="bold"><tspan y="-281.028" x="94.5 100.5045 103.50675 109.51125 112.513507">5.7.1</tspan></text>
<text fill="#231f20" xml:space="preserve" transform="matrix(1 0 -0 1 -42.7104 726.12)" font-size="9.9626" font-family="StoneSans" font-weight="bold"><tspan y="-281.028" x="128.979 136.82953 142.00012 147.44966 151.44467 156.80455 159.4845 165.02371 172.87424 179.0909 184.54044 188.53543 193.89531 197.77077 200.45072 206.47809">OverallOperation</tspan></text>
<text fill="#231f20" xml:space="preserve" transform="matrix(1 0 -0 1 -42.7104 726.12)" font-size="9.9626" font-family="TimesTen"><tspan y="-261.1028" x="94.50044 100.21898 102.98858 107.96988 113.50909 117.38454 125.83781 130.8191 133.30976 138.29105 146.74431 150.61977 156.15897 161.69817 168.89116 176.23859 184.69185 189.67314 194.65444 198.52989 206.98316 210.85861 213.62822 221.92707 227.46627 230.23587 233.00548 238.54468 243.52597 252.53714 257.51844 260.28804 265.26933 275.93428 281.47349 288.26298 296.71623 305.01509 310.5543 316.0935 321.0748 324.95027 333.96144 342.26029 345.02989 349.45329 353.32875 358.86796 364.40718 368.28263 373.82185 378.24525 383.22654 387.102 390.97746 396.51667 400.2128 406.1754 414.47428 420.0135 427.3609 432.90013 437.8814">Figure5.11showsaverysimpli&#xfb01;edviewofamodernmicroprocessor.Ourhy-</tspan><tspan y="-249.14769" x="94.50044 100.03965 105.57886 108.8964 114.43561 119.41691 122.73445 125.50405 129.92745 134.90874 140.45691 145.99611 149.87157 155.41077 159.83417 164.81546 168.69092 172.56638 178.10558 184.7596 190.2988 195.28009 199.15555 201.92516 206.90645 215.22422 217.99382 224.64785 230.18704 235.16834 239.0438 244.02509 252.34285 255.11246 260.65168 266.1909 270.06636 275.04765 277.81724 285.5771 291.1163 299.43409 302.75163 308.29084 316.0507 319.92616 323.24369 327.11915 332.65837 337.08177 340.3993 345.9385 349.81398 357.57383 363.11305 369.20915 372.52668 378.0659 385.82575 389.7012 395.24043 398.55796 403.53926 409.0874 416.2804 421.8196 425.69508 433.45494 436.22453">potheticalprocessordesignisbasedlooselyonthestructureoftheIntelCorei7</tspan><tspan y="-237.19257" x="94.50044 100.03965 103.9151 109.45431 113.8777 118.859 122.73445 126.6099 132.14911 138.64174 144.18094 149.16223 153.03769 155.8073 160.78859 166.32779 171.46649 178.65949 184.19869 186.96829 191.3917 199.54807 202.31768 208.8103 214.3495 217.66706 220.9846 225.9659 234.12227 237.99773 242.97902 246.29657 251.27787 255.15332 259.02879 264.01008 272.16648 275.484 283.6404 289.17964 296.7781 299.5477 302.86524 309.35789 314.8971 318.77256 324.31178 327.08137 332.06266 336.48606 342.42079 346.84419 352.3834 357.9226 365.5211 371.0603 376.0416 384.34046 391.93894 396.92024 404.67115 409.65245 415.19166 420.17295 422.94255 427.92384 436.2227">processordesign,whichisoftenreferredtobyitsprojectcodename&#x201c;Nehalem&#x201d;</tspan><tspan y="-225.23744" x="94.50044 97.817989 102.799289 107.78059 111.09813 115.21866 121.46521 127.00442 133.6156 141.3665 146.3478 151.887 156.86829 159.6379 164.61919 174.54792 182.84676 185.61637 190.03977 193.91522 199.45442 204.43572 208.31118 212.73458 218.27378 221.04338 224.36093 229.34223 233.76563 237.08318 242.62238 246.49784 253.10901 256.42655 261.40785 266.94706 269.71665 275.25587 280.23716 285.7425 289.06004 294.59925 301.21043 306.74964 309.51924 314.50053 320.03974 323.35728 328.33857 333.87779 341.04689 346.5861 350.46156 356.00077 360.42417 365.40547 369.2809 373.15638 378.6956 382.57106 388.0764 393.6156 397.49107 403.03028 408.5695 414.1087 418.5321 423.5134 430.6825 436.2217">[99].TheNehalemmicroarchitecturetypi&#xfb01;esthehigh-endprocessorsproducedby</tspan><tspan y="-213.28133" x="94.50044 102.16168 107.70089 113.2401 121.53894 127.07815 132.05945 138.61486 144.15406 150.15155 158.4504 163.43169 168.97089 174.51009 177.82764 182.80893 187.23233 190.54988 196.08908 199.96454 204.94583 208.82129 215.3767 219.25215 222.02176 227.56096 231.98436 239.6456 242.96315 248.50235 256.16358 258.93318 263.91447 267.232 274.89323 279.8745 284.8558 289.8371 294.8184 298.1459 303.3165 307.19197 313.18943 315.959 322.5144 328.05363 333.0349 336.91038 341.33378 345.20924 347.97883 353.51805 358.49934 366.71849 369.48808 377.7072 381.02476 386.56398 394.2252 396.99479 402.534 408.0732 413.61244 417.48789 420.80543 424.68089 432.3421 437.3234">anumberofmanufacturerssincethelate1990s.Itisdescribedintheindustryas</tspan><tspan y="-201.3262" x="94.50044 100.03965 105.02095 107.79055 113.32976">being</tspan></text>
<text fill="#231f20" xml:space="preserve" transform="matrix(1 0 -0 1 -42.7104 726.12)" font-size="9.9626" font-family="TimesTen" font-style="italic"><tspan y="-201.3262" x="120.37132 124.24677 129.78598 135.32518 139.74858 143.62404 147.4995 151.9229 156.90419 159.6738 164.65509">superscalar</tspan></text>
<text fill="#231f20" xml:space="preserve" transform="matrix(1 0 -0 1 -42.7104 726.12)" font-size="9.9626" font-family="TimesTen"><tspan y="-201.3262" x="168.9101 173.54669 180.73969 186.27889 189.0485 193.4719 201.07137 209.37021 214.3515 219.3328 224.872 230.80773 233.57733 238.95516 243.37856 248.35985 255.95932 261.49855 266.47984 270.3553 273.67283 279.21205 283.0875 293.44664 301.74549 307.2847 310.0543 313.37184 316.14143 321.68064 324.45024 331.4918 337.031 342.57023 347.5515 351.42698 356.40827 359.7258 362.4954 368.0346 373.57383 379.50956 385.04878 392.64826 397.62956 402.61085 407.59214 411.4676 418.50917 422.93257 425.70216 431.24137 435.66477">,whichmeansitcanperformmultipleoperationsoneveryclock</tspan><tspan y="-189.37108" x="94.500438 98.7445 103.7258 108.14919 110.91879 115.53148 120.070438 125.051738 130.59095">cycle,and</tspan></text>
<text fill="#231f20" xml:space="preserve" transform="matrix(1 0 -0 1 -42.7104 726.12)" font-size="9.9626" font-family="TimesTen" font-style="italic"><tspan y="-189.37108" x="138.06888 143.60808 149.14728 151.91689 155.23444 160.77364 164.09119 167.40874 172.94794 176.64408 182.18328 186.60668">out-of-order</tspan></text>
<text fill="#231f20" xml:space="preserve" transform="matrix(1 0 -0 1 -42.7104 726.12)" font-size="9.9626" font-family="TimesTen"><tspan y="-189.37108" x="190.86069 195.39965 203.69849 208.67978 213.66107 219.20027 221.96988 227.50908 234.4281 237.74565 243.28485 248.26615 253.52143 256.83897 262.37818 269.29719 274.8364 278.71186 284.25108 289.23237 295.04554 297.81513 305.29206 312.48506 318.02427 320.79386 325.21726 332.69419 335.46379 341.003 344.87846 348.19599 352.07145 357.61067 362.03407 365.3516 368.1212 373.6604 379.19963 385.0128 389.99409 394.97538 399.95668 404.38008 409.91929 413.23683 420.15583 425.69505 430.67634 435.65763">,meaningthattheorderinwhichinstructionsexecuteneed</tspan><tspan y="-177.41596" x="94.49943 100.038639 105.57784 110.77931 115.202709 120.74191 124.61736 128.49282 133.4741 137.34957 142.88877 148.42797 153.96717 161.39029 164.70784 172.13097 175.44852 180.98772 185.96901 188.73862 194.498 200.0372 203.91266 209.45186 214.43315 218.30861 221.07822 226.61742 233.48264 236.25225 243.67537 246.99292 252.53212 259.39738 267.69624 272.67753 277.10093 282.64015 285.40974 290.94895 295.93025 299.24778 302.01737 306.99867 311.97996 316.96125 321.61479 327.154 331.02946 336.56867 341.54997 345.4254 350.4067 358.70558 363.08018 369.32673 374.86595 381.73118 387.2704 392.25169 397.23298 401.10844 406.08973 408.8593 413.51286 419.05207 424.03337 427.9088 430.6784 435.6597">notcorrespondtotheirorderinginthemachine-levelprogram.Theoveralldesign</tspan><tspan y="-165.46083" x="94.49943 100.038639 105.019939 112.21393 115.53147 122.72447 131.58222 139.88106 144.86235 147.63196 156.4897 162.0289 167.0102 170.88565 174.2032 178.07866 183.88785 187.2054 192.7446">hastwomainparts:the</tspan></text>
<text fill="#231f20" xml:space="preserve" transform="matrix(1 0 -0 1 -42.7104 726.12)" font-size="9.9626" font-family="TimesTen" font-style="italic"><tspan y="-165.46083" x="201.04544 203.81505 209.35425 213.2297 215.99932 219.87477 225.41397 229.83737 232.60698 235.37659 240.91579 249.77353 254.19693 259.73616 265.27537 268.04496 271.9204 277.45964 283.54777 289.08699 294.6262 297.39579">instructioncontrolunit</tspan></text>
<text fill="#231f20" xml:space="preserve" transform="matrix(1 0 -0 1 -42.7104 726.12)" font-size="9.9626" font-family="TimesTen"><tspan y="-165.46083" x="303.983 307.85847 311.73393 318.9269 327.22578 331.10124 337.11766 344.31065 349.84986 352.61946 357.04286 365.9006 368.6702 375.8642 379.73966 384.72096 388.5964 394.13563 399.67485 405.21406 409.0895 411.8591 417.39833 420.1679 428.46775 431.78529 437.3245">(ICU),whichisresponsiblefor</tspan><tspan y="-153.5057" x="94.49843 98.37388 103.35518 108.33648 113.87569 116.64529 122.184497 129.6704 137.15628 141.03174 146.01303 151.55223 157.09143 162.07273 167.61193 172.03533 179.52121 185.06041 190.88256 193.65216 199.19136 203.06682 206.38437 210.25983 215.79903 220.22243 223.53998 226.30959 231.84879 237.38799 243.76804 247.08559 250.96105 256.50025 267.3037 275.60258 280.58387 288.88273 294.42195 298.2974 305.7833 310.7646 316.3038 324.34764 329.32893 334.3102 339.84944 344.83073 348.70619 353.68748 357.005 359.7746 365.3138 372.7997 376.11726 379.9927 385.53193 396.3354 399.65293 405.19215 410.17344 414.0489 421.5348 429.0207 432.89616 437.87745">readingasequenceofinstructionsfrommemoryandgeneratingfromtheseaset</tspan><tspan y="-141.55059" x="94.49843 100.037639 105.50311 111.04232 114.91777 117.68737 125.98621 128.75582 132.07337 134.84297 139.82427 146.95349 152.49269 158.03189 163.01319 166.88864 171.86994 175.18749 177.95709 183.49629 189.03549 195.05889 198.37644 206.06357 211.60277 216.58406 220.45952 223.77707 229.31627 233.19173 243.6385 249.1777 256.86485 262.40406 266.2795 271.81874 276.80003 280.67549 285.65678 296.10359 301.6428 306.62409 309.94163 314.9229 319.63026 324.61155 330.15077 337.83793 341.15547 346.69468">ofprimitiveoperationstoperformonprogramdata,andthe</tspan></text>
<text fill="#231f20" xml:space="preserve" transform="matrix(1 0 -0 1 -42.7104 726.12)" font-size="9.9626" font-family="TimesTen" font-style="italic"><tspan y="-141.55059" x="353.82588 358.24928 363.05125 367.47465 371.89805 377.43727 380.20686 382.97645 388.51567 396.20283 401.74205 407.28126 410.05085">executionunit</tspan></text>
<text fill="#231f20" xml:space="preserve" transform="matrix(1 0 -0 1 -42.7104 726.12)" font-size="9.9626" font-family="TimesTen"><tspan y="-141.55059" x="415.46647 419.34193 426.5349 434.83378 438.70924">(EU),</tspan><tspan y="-129.59546" x="94.497409 101.69041 107.229618 109.999217 114.42261 122.69555 126.01309 131.55229 136.53359 144.80652 149.78781 154.7691 159.7504 164.1738 169.713 173.03055 178.01184 184.62104 187.93859 193.47779 198.45908 202.33454 210.04956 215.58876 221.12796 226.10926 229.98471 234.966 238.28356 241.05316 246.59236 252.13156 255.45908 260.68348 267.87648 273.41569 281.71455 287.25376 292.23506 296.1105 301.0918 309.36476 312.68229 320.95524 324.27278 329.81199 337.527 341.40248 344.17207 352.47093 358.01014 360.77973">whichthenexecutestheseoperations.Comparedtothesimple</tspan></text>
<text fill="#231f20" xml:space="preserve" transform="matrix(1 0 -0 1 -42.7104 726.12)" font-size="9.9626" font-family="TimesTen" font-style="italic"><tspan y="-129.59546" x="368.4998 371.26939 376.8086 380.12614 385.66535 389.36149 394.9007 399.3241">in-order</tspan></text>
<text fill="#231f20" xml:space="preserve" transform="matrix(1 0 -0 1 -42.7104 726.12)" font-size="9.9626" font-family="TimesTen"><tspan y="-129.59546" x="406.31184 411.85105 414.62065 420.15986 425.14115 427.91075 430.68034 436.21955">pipeline</tspan><tspan y="-117.63934" x="94.497409 101.69041 110.20943 114.08488 117.40242 122.94163 128.48084 131.25045 136.23174 145.30866 148.07826 157.15518 164.34818 169.88738 174.86867 180.40787 183.72542 188.70671 196.11989 201.10118 207.39057 212.92977 218.46897 221.78652 225.10407 230.64327 233.96082 237.27837 242.81757 246.69303 252.23223 257.21354 264.6267 270.16593 274.04139 279.5806 284.004 288.9853 292.86076 296.7362 302.27543 306.15089 313.56407 317.4395 322.4208 327.96003 333.49925 336.26884 340.1443 348.6633 351.98085 356.96214 364.3753 369.3566 373.23207 378.21336 383.19465 386.51219 391.49348 398.90666 403.88795 409.42716 418.5041 426.80296 432.34217 436.21763">westudiedinChapter4,out-of-orderprocessorsrequirefargreaterandmore</tspan></text>
</g>
</svg>
