<svg xmlns="http://www.w3.org/2000/svg" xmlns:xlink="http://www.w3.org/1999/xlink" version="1.1" width="532.7996" height="664.92" viewBox="0 0 532.7996 664.92">
<defs>
<clipPath id="clip_3263">
<path transform="matrix(1,0,0,-1,-42.7104,726.12)" d="M42.7104 61.2H575.51V726.12H42.7104Z" fill-rule="evenodd"/>
</clipPath>
<clipPath id="clip_3264">
<path transform="matrix(1,0,0,-1,-42.7104,726.12)" d="M428.843 662.184H94.5V371.78804H428.843ZM94.5 662.184"/>
</clipPath>
<clipPath id="clip_3265">
<path transform="matrix(1,0,0,-1,-42.7104,726.12)" d="M0 792H612V.030029297H0Z"/>
</clipPath>
</defs>
<g clip-path="url(#clip_3263)">
<text xml:space="preserve" transform="matrix(1 0 -0 1 -42.7104 726.12)" font-size="8.4682" font-family="StoneSans"><tspan y="-681.875" x="328.766 333.16947 337.46284 341.53605 344.45759 346.47303 351.3253 358.70954 363.57029 366.00065 379.3296 383.877 385.89247 390.94798 395.24134 397.25679 399.27223 404.2261 408.51948 415.9884 420.54429 425.40504 432.69615 434.94023 442.51078 447.56629 449.58174 453.8751 461.44566 465.739 470.6929 473.61445 477.84855 480.77009 482.78553 487.6378 492.59169">Section4.5PipelinedY86Implementations</tspan></text>
<text xml:space="preserve" transform="matrix(1 0 -0 1 -42.7104 726.12)" font-size="9.4645" font-family="StoneSans" font-weight="bold"><tspan y="-681.875" x="508.587 514.01968 519.4523">425</tspan></text>
<path transform="matrix(1,0,0,-1,-42.7104,726.12)" stroke-width=".75" stroke-linecap="butt" stroke-miterlimit="4" stroke-linejoin="miter" fill="none" stroke="#231f20" d="M128.401 611.293V620.109"/>
<path transform="matrix(1,0,0,-1,-42.7104,726.12)" d="M128.401 622.263 127.161 619.228 128.401 619.948 129.641 619.228 128.401 622.263" fill="#231f20"/>
<path transform="matrix(1,0,0,-1,-42.7104,726.12)" d="M200.999 409.009C200.999 407.617 199.872 406.489 198.479 406.489H169.581C168.19 406.489 167.061 407.617 167.061 409.009V445.133C167.061 446.525 168.19 447.653 169.581 447.653H198.479C199.872 447.653 200.999 446.525 200.999 445.133V409.009" fill="#b1b4b6"/>
<path transform="matrix(1,0,0,-1,-42.7104,726.12)" stroke-width="1.5" stroke-linecap="butt" stroke-miterlimit="4" stroke-linejoin="miter" fill="none" stroke="#231f20" d="M182.263 394.531V405.422"/>
<path transform="matrix(1,0,0,-1,-42.7104,726.12)" d="M182.263 407.325 184.123 402.773 182.263 403.853 180.403 402.773 182.263 407.325" fill="#231f20"/>
<path transform="matrix(1,0,0,-1,-42.7104,726.12)" d="M182.322 379.96 184.182 375.408 182.322 376.488 180.462 375.408 182.322 379.96" fill="#231f20"/>
<path transform="matrix(1,0,0,-1,-42.7104,726.12)" d="M124.204 560.826C124.204 559.434 123.076 558.306 121.684 558.306H99.285C97.894 558.306 96.766 559.434 96.766 560.826V575.117C96.766 576.509 97.894 577.637 99.285 577.637H121.684C123.076 577.637 124.204 576.509 124.204 575.117V560.826" fill="#b1b4b6"/>
<path transform="matrix(1,0,0,-1,-42.7104,726.12)" d="M122.314 562.001C122.314 560.609 121.184 559.481 119.794 559.481H97.395C96.002 559.481 94.875 560.609 94.875 562.001V576.293C94.875 577.686 96.002 578.814 97.395 578.814H119.794C121.184 578.814 122.314 577.686 122.314 576.293V562.001" fill="#c6c8ca"/>
<g clip-path="url(#clip_3264)">
<g clip-path="url(#clip_3265)">
<path transform="matrix(1,0,0,-1,-42.7104,726.12)" stroke-width=".75" stroke-linecap="butt" stroke-miterlimit="4" stroke-linejoin="miter" fill="none" stroke="#231f20" d="M122.314 562.001C122.314 560.609 121.184 559.481 119.794 559.481H97.395C96.002 559.481 94.875 560.609 94.875 562.001V576.293C94.875 577.686 96.002 578.814 97.395 578.814H119.794C121.184 578.814 122.314 577.686 122.314 576.293V562.001Z"/>
</g>
</g>
<path transform="matrix(1,0,0,-1,-42.7104,726.12)" stroke-width=".5" stroke-linecap="butt" stroke-miterlimit="4" stroke-linejoin="miter" fill="none" stroke="#231f20" d="M148.572 518.581V619.876"/>
<path transform="matrix(1,0,0,-1,-42.7104,726.12)" d="M148.572 622.029 149.812 618.994 148.572 619.715 147.332 618.994 148.572 622.029" fill="#231f20"/>
<path transform="matrix(1,0,0,-1,-42.7104,726.12)" stroke-width=".5" stroke-linecap="butt" stroke-miterlimit="4" stroke-linejoin="miter" fill="none" stroke="#231f20" d="M169.97 518.581V619.876"/>
<path transform="matrix(1,0,0,-1,-42.7104,726.12)" d="M157.684 501.677 158.924 498.642 157.684 499.362 156.444 498.642 157.684 501.677" fill="#231f20"/>
<path transform="matrix(1,0,0,-1,-42.7104,726.12)" stroke-width=".5" stroke-linecap="butt" stroke-miterlimit="4" stroke-linejoin="miter" fill="none" stroke="#231f20" d="M191.217 518.581V619.876"/>
<path transform="matrix(1,0,0,-1,-42.7104,726.12)" d="M191.217 622.279 192.457 619.244 191.217 619.965 189.977 619.244 191.217 622.279" fill="#231f20"/>
<path transform="matrix(1,0,0,-1,-42.7104,726.12)" stroke-width=".5" stroke-linecap="butt" stroke-miterlimit="4" stroke-linejoin="miter" fill="none" stroke="#231f20" d="M213.095 518.581V619.876"/>
<path transform="matrix(1,0,0,-1,-42.7104,726.12)" d="M213.095 622.279 214.335 619.244 213.095 619.965 211.855 619.244 213.095 622.279" fill="#231f20"/>
<path transform="matrix(1,0,0,-1,-42.7104,726.12)" stroke-width="1.5" stroke-linecap="butt" stroke-miterlimit="4" stroke-linejoin="miter" fill="none" stroke="#231f20" d="M235.451 518.581V619.876"/>
<path transform="matrix(1,0,0,-1,-42.7104,726.12)" d="M235.451 622.279 237.311 617.727 235.451 618.807 233.591 617.727 235.451 622.279" fill="#231f20"/>
<path transform="matrix(1,0,0,-1,-42.7104,726.12)" stroke-width="1.5" stroke-linecap="butt" stroke-miterlimit="4" stroke-linejoin="miter" fill="none" stroke="#231f20" d="M235.795 604.026H333.989"/>
<path transform="matrix(1,0,0,-1,-42.7104,726.12)" d="M336.142 604.027 331.589 602.167 332.67 604.027 331.589 605.885 336.142 604.027" fill="#231f20"/>
<path transform="matrix(1,0,0,-1,-42.7104,726.12)" stroke-width="1.5" stroke-linecap="butt" stroke-miterlimit="4" stroke-linejoin="miter" fill="none" stroke="#231f20" d="M309.128 593.693H333.989"/>
<path transform="matrix(1,0,0,-1,-42.7104,726.12)" d="M336.142 593.694 331.589 591.834 332.67 593.694 331.589 595.552 336.142 593.694" fill="#231f20"/>
<path transform="matrix(1,0,0,-1,-42.7104,726.12)" stroke-width="1.5" stroke-linecap="butt" stroke-miterlimit="4" stroke-linejoin="miter" fill="none" stroke="#231f20" d="M308.818 587.362V619.876"/>
<path transform="matrix(1,0,0,-1,-42.7104,726.12)" d="M308.818 622.279 310.678 617.727 308.818 618.807 306.958 617.727 308.818 622.279" fill="#231f20"/>
<path transform="matrix(1,0,0,-1,-42.7104,726.12)" stroke-width="1.5" stroke-linecap="butt" stroke-miterlimit="4" stroke-linejoin="miter" fill="none" stroke="#231f20" d="M308.818 546.218V456.333H183.128"/>
<path transform="matrix(1,0,0,-1,-42.7104,726.12)" d="M308.818 549.371 310.678 544.819 308.818 545.899 306.958 544.819 308.818 549.371" fill="#231f20"/>
<path transform="matrix(1,0,0,-1,-42.7104,726.12)" stroke-width=".5" stroke-linecap="butt" stroke-miterlimit="4" stroke-linejoin="miter" fill="none" stroke="#231f20" d="M149.023 583.802H244.193"/>
<path transform="matrix(1,0,0,-1,-42.7104,726.12)" d="M246.095 583.802 243.062 582.562 243.781 583.802 243.062 585.042 246.095 583.802" fill="#231f20"/>
<path transform="matrix(1,0,0,-1,-42.7104,726.12)" stroke-width=".5" stroke-linecap="butt" stroke-miterlimit="4" stroke-linejoin="miter" fill="none" stroke="#231f20" d="M149.023 559.064H244.193"/>
<path transform="matrix(1,0,0,-1,-42.7104,726.12)" d="M246.095 559.064 243.062 557.825 243.781 559.064 243.062 560.304 246.095 559.064" fill="#231f20"/>
<path transform="matrix(1,0,0,-1,-42.7104,726.12)" stroke-width=".5" stroke-linecap="butt" stroke-miterlimit="4" stroke-linejoin="miter" fill="none" stroke="#231f20" d="M147.467 569.183H124.651"/>
<path transform="matrix(1,0,0,-1,-42.7104,726.12)" d="M122.498 569.183 125.533 570.423 124.812 569.183 125.533 567.943 122.498 569.183" fill="#231f20"/>
<path transform="matrix(1,0,0,-1,-42.7104,726.12)" stroke-width=".5" stroke-linecap="butt" stroke-miterlimit="4" stroke-linejoin="miter" fill="none" stroke="#231f20" d="M157.692 491.282V499.459"/>
<path transform="matrix(1,0,0,-1,-42.7104,726.12)" stroke-width="1.5" stroke-linecap="butt" stroke-miterlimit="4" stroke-linejoin="miter" fill="none" stroke="#231f20" d="M212.958 491.365V497.955"/>
<path transform="matrix(1,0,0,-1,-42.7104,726.12)" d="M212.957 501.606 214.817 497.055 212.957 498.135 211.099 497.055 212.957 501.606" fill="#231f20"/>
<path transform="matrix(1,0,0,-1,-42.7104,726.12)" stroke-width=".75" stroke-linecap="butt" stroke-dasharray=".75,.75" stroke-miterlimit="4" stroke-linejoin="miter" fill="none" stroke="#231f20" d="M279.8 558.155V509.794H244.707"/>
<path transform="matrix(1,0,0,-1,-42.7104,726.12)" d="M242.054 509.794 245.087 511.034 244.369 509.794 245.087 508.555 242.054 509.794" fill="#231f20"/>
<path transform="matrix(1,0,0,-1,-42.7104,726.12)" stroke-width="1.5" stroke-linecap="butt" stroke-miterlimit="4" stroke-linejoin="miter" fill="none" stroke="#231f20" d="M182.263 449.212V463.47"/>
<path transform="matrix(1,0,0,-1,-42.7104,726.12)" d="M182.263 465.623 184.123 461.072 182.263 462.151 180.403 461.072 182.263 465.623" fill="#231f20"/>
<path transform="matrix(1,0,0,-1,-42.7104,726.12)" d="M150.323 583.954C150.323 582.986 149.538 582.204 148.573 582.204 147.607 582.204 146.823 582.986 146.823 583.954 146.823 584.921 147.607 585.704 148.573 585.704 149.538 585.704 150.323 584.921 150.323 583.954" fill="#231f20"/>
<path transform="matrix(1,0,0,-1,-42.7104,726.12)" d="M150.323 610.619C150.323 609.651 149.538 608.869 148.573 608.869 147.607 608.869 146.823 609.651 146.823 610.619 146.823 611.586 147.607 612.369 148.573 612.369 149.538 612.369 150.323 611.586 150.323 610.619" fill="#231f20"/>
<path transform="matrix(1,0,0,-1,-42.7104,726.12)" d="M150.323 605.244C150.323 604.276 149.538 603.494 148.573 603.494 147.607 603.494 146.823 604.276 146.823 605.244 146.823 606.211 147.607 606.994 148.573 606.994 149.538 606.994 150.323 606.211 150.323 605.244" fill="#231f20"/>
<path transform="matrix(1,0,0,-1,-42.7104,726.12)" d="M237.323 603.952C237.323 602.984 236.538 602.202 235.573 602.202 234.607 602.202 233.823 602.984 233.823 603.952 233.823 604.919 234.607 605.702 235.573 605.702 236.538 605.702 237.323 604.919 237.323 603.952" fill="#231f20"/>
<path transform="matrix(1,0,0,-1,-42.7104,726.12)" d="M310.656 593.953C310.656 592.985 309.871 592.203 308.906 592.203 307.94 592.203 307.156 592.985 307.156 593.953 307.156 594.92 307.94 595.703 308.906 595.703 309.871 595.703 310.656 594.92 310.656 593.953" fill="#231f20"/>
<path transform="matrix(1,0,0,-1,-42.7104,726.12)" d="M150.223 569.232C150.223 568.264 149.438 567.482 148.473 567.482 147.507 567.482 146.723 568.264 146.723 569.232 146.723 570.199 147.507 570.982 148.473 570.982 149.438 570.982 150.223 570.199 150.223 569.232" fill="#231f20"/>
<path transform="matrix(1,0,0,-1,-42.7104,726.12)" stroke-width=".5" stroke-linecap="butt" stroke-miterlimit="4" stroke-linejoin="miter" fill="none" stroke="#231f20" d="M148.79 610.683H334.605"/>
<path transform="matrix(1,0,0,-1,-42.7104,726.12)" d="M336.508 610.683 333.473 611.923 334.194 610.683 333.473 609.443 336.508 610.683" fill="#231f20"/>
<path transform="matrix(1,0,0,-1,-42.7104,726.12)" d="M150.323 559.216C150.323 558.248 149.538 557.466 148.573 557.466 147.607 557.466 146.823 558.248 146.823 559.216 146.823 560.183 147.607 560.966 148.573 560.966 149.538 560.966 150.323 560.183 150.323 559.216" fill="#231f20"/>
<path transform="matrix(1,0,0,-1,-42.7104,726.12)" d="M130.267 529.659C130.267 528.691 129.482 527.909 128.517 527.909 127.551 527.909 126.767 528.691 126.767 529.659 126.767 530.626 127.551 531.409 128.517 531.409 129.482 531.409 130.267 530.626 130.267 529.659" fill="#231f20"/>
<path transform="matrix(1,0,0,-1,-42.7104,726.12)" d="M184.044 456.319C184.044 455.351 183.259 454.569 182.294 454.569 181.328 454.569 180.544 455.351 180.544 456.319 180.544 457.286 181.328 458.069 182.294 458.069 183.259 458.069 184.044 457.286 184.044 456.319" fill="#231f20"/>
<path transform="matrix(1,0,0,-1,-42.7104,726.12)" d="M281.552 559.216C281.552 558.248 280.767 557.466 279.802 557.466 278.835 557.466 278.052 558.248 278.052 559.216 278.052 560.183 278.835 560.966 279.802 560.966 280.767 560.966 281.552 560.183 281.552 559.216" fill="#231f20"/>
<path transform="matrix(1,0,0,-1,-42.7104,726.12)" d="M275.666 575.584C275.666 574.192 274.539 573.064 273.146 573.064H250.748C249.357 573.064 248.228 574.192 248.228 575.584V589.875C248.228 591.268 249.357 592.395 250.748 592.395H273.146C274.539 592.395 275.666 591.268 275.666 589.875V575.584" fill="#b1b4b6"/>
<path transform="matrix(1,0,0,-1,-42.7104,726.12)" d="M273.777 576.759C273.777 575.366 272.646 574.238 271.257 574.238H248.857C247.464 574.238 246.337 575.366 246.337 576.759V591.051C246.337 592.444 247.464 593.572 248.857 593.572H271.257C272.646 593.572 273.777 592.444 273.777 591.051V576.759" fill="#c6c8ca"/>
<path transform="matrix(1,0,0,-1,-42.7104,726.12)" stroke-width=".75" stroke-linecap="butt" stroke-miterlimit="4" stroke-linejoin="miter" fill="none" stroke="#231f20" d="M273.777 576.759C273.777 575.366 272.646 574.238 271.257 574.238H248.857C247.464 574.238 246.337 575.366 246.337 576.759V591.051C246.337 592.444 247.464 593.572 248.857 593.572H271.257C272.646 593.572 273.777 592.444 273.777 591.051V576.759Z"/>
<path transform="matrix(1,0,0,-1,-42.7104,726.12)" d="M275.666 550.74C275.666 549.348 274.539 548.22 273.146 548.22H250.748C249.357 548.22 248.228 549.348 248.228 550.74V565.031C248.228 566.423 249.357 567.551 250.748 567.551H273.146C274.539 567.551 275.666 566.423 275.666 565.031V550.74" fill="#b1b4b6"/>
<path transform="matrix(1,0,0,-1,-42.7104,726.12)" d="M273.777 551.915C273.777 550.523 272.646 549.395 271.257 549.395H248.857C247.464 549.395 246.337 550.523 246.337 551.915V566.207C246.337 567.6 247.464 568.728 248.857 568.728H271.257C272.646 568.728 273.777 567.6 273.777 566.207V551.915" fill="#c6c8ca"/>
<path transform="matrix(1,0,0,-1,-42.7104,726.12)" stroke-width=".75" stroke-linecap="butt" stroke-miterlimit="4" stroke-linejoin="miter" fill="none" stroke="#231f20" d="M273.777 551.915C273.777 550.523 272.646 549.395 271.257 549.395H248.857C247.464 549.395 246.337 550.523 246.337 551.915V566.207C246.337 567.6 247.464 568.728 248.857 568.728H271.257C272.646 568.728 273.777 567.6 273.777 566.207V551.915Z"/>
<path transform="matrix(1,0,0,-1,-42.7104,726.12)" d="M372.666 589.239C372.666 587.847 371.539 586.719 370.146 586.719H341.248C339.857 586.719 338.728 587.847 338.728 589.239V614.03C338.728 615.423 339.857 616.551 341.248 616.551H370.146C371.539 616.551 372.666 615.423 372.666 614.03V589.239" fill="#b1b4b6"/>
<path transform="matrix(1,0,0,-1,-42.7104,726.12)" d="M370.777 590.415C370.777 589.022 369.646 587.894 368.257 587.894H339.357C337.964 587.894 336.837 589.022 336.837 590.415V615.207C336.837 616.6 337.964 617.728 339.357 617.728H368.257C369.646 617.728 370.777 616.6 370.777 615.207V590.415" fill="#c6c8ca"/>
<path transform="matrix(1,0,0,-1,-42.7104,726.12)" stroke-width=".75" stroke-linecap="butt" stroke-miterlimit="4" stroke-linejoin="miter" fill="none" stroke="#231f20" d="M370.777 590.415C370.777 589.022 369.646 587.894 368.257 587.894H339.357C337.964 587.894 336.837 589.022 336.837 590.415V615.207C336.837 616.6 337.964 617.728 339.357 617.728H368.257C369.646 617.728 370.777 616.6 370.777 615.207V590.415Z"/>
<path transform="matrix(1,0,0,-1,-42.7104,726.12)" d="M199.11 410.184C199.11 408.792 197.979 407.664 196.59 407.664H167.69C166.297 407.664 165.17 408.792 165.17 410.184V446.309C165.17 447.702 166.297 448.83 167.69 448.83H196.59C197.979 448.83 199.11 447.702 199.11 446.309V410.184" fill="#c6c8ca"/>
<path transform="matrix(1,0,0,-1,-42.7104,726.12)" stroke-width=".75" stroke-linecap="butt" stroke-miterlimit="4" stroke-linejoin="miter" fill="none" stroke="#231f20" d="M199.11 410.184C199.11 408.792 197.979 407.664 196.59 407.664H167.69C166.297 407.664 165.17 408.792 165.17 410.184V446.309C165.17 447.702 166.297 448.83 167.69 448.83H196.59C197.979 448.83 199.11 447.702 199.11 446.309V410.184Z"/>
<path transform="matrix(1,0,0,-1,-42.7104,726.12)" d="M329.285 549.534H290.896V585.926H329.285ZM290.896 549.534" fill="#231f20"/>
<path transform="matrix(1,0,0,-1,-42.7104,726.12)" d="M327.986 550.834H289.597V587.227H327.986ZM289.597 550.834" fill="#d4effc"/>
<path transform="matrix(1,0,0,-1,-42.7104,726.12)" stroke-width=".5" stroke-linecap="butt" stroke-miterlimit="4" stroke-linejoin="miter" fill="none" stroke="#00adef" d="M327.986 550.834H289.597V587.227H327.986Z"/>
<path transform="matrix(1,0,0,-1,-42.7104,726.12)" d="M242 501.658H186.885V517.144H242ZM186.885 501.658" fill="#231f20"/>
<path transform="matrix(1,0,0,-1,-42.7104,726.12)" d="M240.701 502.959H185.586V518.445H240.701ZM185.586 502.959" fill="#d4effc"/>
<path transform="matrix(1,0,0,-1,-42.7104,726.12)" stroke-width=".5" stroke-linecap="butt" stroke-miterlimit="4" stroke-linejoin="miter" fill="none" stroke="#00adef" d="M240.701 502.959H185.586V518.445H240.701Z"/>
<path transform="matrix(1,0,0,-1,-42.7104,726.12)" d="M242.041 465.603H144.10199V489.876H242.041ZM144.102 465.603" fill="#231f20"/>
<path transform="matrix(1,0,0,-1,-42.7104,726.12)" d="M240.742 466.904H142.80301V491.177H240.742ZM142.803 466.904" fill="#d4effc"/>
<path transform="matrix(1,0,0,-1,-42.7104,726.12)" stroke-width=".5" stroke-linecap="butt" stroke-miterlimit="4" stroke-linejoin="miter" fill="none" stroke="#00adef" d="M240.742 466.904H142.80301V491.177H240.742Z"/>
<path transform="matrix(1,0,0,-1,-42.7104,726.12)" d="M173.793 501.658H147.828V517.144H173.793ZM147.828 501.658" fill="#231f20"/>
<path transform="matrix(1,0,0,-1,-42.7104,726.12)" d="M172.494 502.959H146.529V518.445H172.494ZM146.529 502.959" fill="#d4effc"/>
<path transform="matrix(1,0,0,-1,-42.7104,726.12)" stroke-width=".5" stroke-linecap="butt" stroke-miterlimit="4" stroke-linejoin="miter" fill="none" stroke="#00adef" d="M172.495 502.959H146.53V518.445H172.495Z"/>
<path transform="matrix(1,0,0,-1,-42.7104,726.12)" d="M289.484 583.802 286.449 582.562 287.169 583.802 286.449 585.042 289.484 583.802" fill="#231f20"/>
<path transform="matrix(1,0,0,-1,-42.7104,726.12)" stroke-width=".75" stroke-linecap="butt" stroke-dasharray=".75,.75" stroke-miterlimit="4" stroke-linejoin="miter" fill="none" stroke="#231f20" d="M273.634 583.802H286.705M273.947 559.064H287.382"/>
<path transform="matrix(1,0,0,-1,-42.7104,726.12)" d="M289.537 559.064 286.501 557.825 287.222 559.064 286.501 560.304 289.537 559.064" fill="#231f20"/>
<path transform="matrix(1,0,0,-1,-42.7104,726.12)" d="M117.046 622.799H95.701V637.448H117.046ZM95.701 622.799" fill="#8ed8f8"/>
<path transform="matrix(1,0,0,-1,-42.7104,726.12)" stroke-width="1" stroke-linecap="butt" stroke-miterlimit="4" stroke-linejoin="miter" fill="none" stroke="#231f20" d="M117.046 622.799H95.701V637.448H117.046Z"/>
<path transform="matrix(1,0,0,-1,-42.7104,726.12)" d="M159.421 622.799H137.951V637.448H159.421ZM137.951 622.799" fill="#ffffff"/>
<path transform="matrix(1,0,0,-1,-42.7104,726.12)" stroke-width="1" stroke-linecap="butt" stroke-miterlimit="4" stroke-linejoin="miter" fill="none" stroke="#231f20" d="M159.421 622.799H137.951V637.448H159.421Z"/>
<path transform="matrix(1,0,0,-1,-42.7104,726.12)" d="M137.951 622.799H116.951007V637.448H137.951ZM116.951 622.799" fill="#ffffff"/>
<path transform="matrix(1,0,0,-1,-42.7104,726.12)" stroke-width="1" stroke-linecap="butt" stroke-miterlimit="4" stroke-linejoin="miter" fill="none" stroke="#231f20" d="M137.951 622.799H116.951007V637.448H137.951Z"/>
<path transform="matrix(1,0,0,-1,-42.7104,726.12)" d="M180.758 622.799H159.288V637.448H180.758ZM159.288 622.799" fill="#ffffff"/>
<path transform="matrix(1,0,0,-1,-42.7104,726.12)" stroke-width="1" stroke-linecap="butt" stroke-miterlimit="4" stroke-linejoin="miter" fill="none" stroke="#231f20" d="M180.758 622.799H159.288V637.448H180.758Z"/>
<path transform="matrix(1,0,0,-1,-42.7104,726.12)" d="M202.095 622.799H180.625V637.448H202.095ZM180.625 622.799" fill="#ffffff"/>
<path transform="matrix(1,0,0,-1,-42.7104,726.12)" stroke-width="1" stroke-linecap="butt" stroke-miterlimit="4" stroke-linejoin="miter" fill="none" stroke="#231f20" d="M202.095 622.799H180.625V637.448H202.095Z"/>
<path transform="matrix(1,0,0,-1,-42.7104,726.12)" d="M223.294 622.799H201.949V637.448H223.294ZM201.949 622.799" fill="#ffffff"/>
<path transform="matrix(1,0,0,-1,-42.7104,726.12)" stroke-width="1" stroke-linecap="butt" stroke-miterlimit="4" stroke-linejoin="miter" fill="none" stroke="#231f20" d="M223.294 622.799H201.949V637.448H223.294Z"/>
<path transform="matrix(1,0,0,-1,-42.7104,726.12)" d="M287.262 622.799H265.792V637.448H287.262ZM265.792 622.799" fill="#8ed8f8"/>
<path transform="matrix(1,0,0,-1,-42.7104,726.12)" stroke-width="1" stroke-linecap="butt" stroke-miterlimit="4" stroke-linejoin="miter" fill="none" stroke="#231f20" d="M287.262 622.799H265.792V637.448H287.262Z"/>
<path transform="matrix(1,0,0,-1,-42.7104,726.12)" d="M351.211 622.799H329.741V637.448H351.211ZM329.741 622.799" fill="#8ed8f8"/>
<path transform="matrix(1,0,0,-1,-42.7104,726.12)" stroke-width="1" stroke-linecap="butt" stroke-miterlimit="4" stroke-linejoin="miter" fill="none" stroke="#231f20" d="M351.211 622.799H329.741V637.448H351.211Z"/>
<path transform="matrix(1,0,0,-1,-42.7104,726.12)" d="M244.758 622.799H223.289V637.448H244.758 244.625 266.095V622.799H244.625 244.758" fill="#ffffff"/>
<path transform="matrix(1,0,0,-1,-42.7104,726.12)" stroke-width="1" stroke-linecap="butt" stroke-miterlimit="4" stroke-linejoin="miter" fill="none" stroke="#231f20" d="M244.758 622.799H223.289V637.448H244.758 244.625 266.095V622.799H244.625 244.758Z"/>
<path transform="matrix(1,0,0,-1,-42.7104,726.12)" d="M308.727 622.799H287.257V637.448H308.727 308.594 330.064V622.799H308.594 308.727" fill="#ffffff"/>
<path transform="matrix(1,0,0,-1,-42.7104,726.12)" stroke-width="1" stroke-linecap="butt" stroke-miterlimit="4" stroke-linejoin="miter" fill="none" stroke="#231f20" d="M308.727 622.799H287.257V637.448H308.727 308.594 330.064V622.799H308.594 308.727Z"/>
<path transform="matrix(1,0,0,-1,-42.7104,726.12)" d="M137.804 380.477H116.459V395.126H348.914V380.477H137.804" fill="#8ed8f8"/>
<path transform="matrix(1,0,0,-1,-42.7104,726.12)" stroke-width="1" stroke-linecap="butt" stroke-miterlimit="4" stroke-linejoin="miter" fill="none" stroke="#231f20" d="M137.804 380.477H116.459V395.126H348.914V380.477H137.804Z"/>
<path transform="matrix(1,0,0,-1,-42.7104,726.12)" d="M182.024 380.477H160.678V395.126H182.024 181.928 203.399V380.477H181.928 182.024" fill="#ffffff"/>
<path transform="matrix(1,0,0,-1,-42.7104,726.12)" stroke-width="1" stroke-linecap="butt" stroke-miterlimit="4" stroke-linejoin="miter" fill="none" stroke="#231f20" d="M182.024 380.477H160.678V395.126H182.024 181.928 203.399V380.477H181.928 182.024Z"/>
<path transform="matrix(1,0,0,-1,-42.7104,726.12)" stroke-width=".5" stroke-linecap="butt" stroke-miterlimit="4" stroke-linejoin="miter" fill="none" stroke="#231f20" d="M201.711 439.491H377.019V653.499"/>
<path transform="matrix(1,0,0,-1,-42.7104,726.12)" d="M199.558 439.491 202.593 440.731 201.873 439.491 202.593 438.252 199.558 439.491" fill="#231f20"/>
<path transform="matrix(1,0,0,-1,-42.7104,726.12)" stroke-width=".75" stroke-linecap="butt" stroke-dasharray=".75,.75" stroke-miterlimit="4" stroke-linejoin="miter" fill="none" stroke="#231f20" d="M201.711 433.218H384.873V642.033"/>
<path transform="matrix(1,0,0,-1,-42.7104,726.12)" d="M199.558 433.218 202.593 434.458 201.873 433.218 202.593 431.978 199.558 433.218" fill="#231f20"/>
<path transform="matrix(1,0,0,-1,-42.7104,726.12)" stroke-width="1.5" stroke-linecap="butt" stroke-miterlimit="4" stroke-linejoin="miter" fill="none" stroke="#231f20" d="M201.711 426.944H393.101V631.385"/>
<path transform="matrix(1,0,0,-1,-42.7104,726.12)" d="M199.558 426.944 204.11 428.805 203.03 426.944 204.11 425.085 199.558 426.944" fill="#231f20"/>
<path transform="matrix(1,0,0,-1,-42.7104,726.12)" stroke-width=".5" stroke-linecap="butt" stroke-miterlimit="4" stroke-linejoin="miter" fill="none" stroke="#231f20" d="M201.711 420.671H401.241V619.992"/>
<path transform="matrix(1,0,0,-1,-42.7104,726.12)" d="M199.558 420.671 202.593 421.911 201.873 420.671 202.593 419.432 199.558 420.671" fill="#231f20"/>
<path transform="matrix(1,0,0,-1,-42.7104,726.12)" stroke-width="1.5" stroke-linecap="butt" stroke-miterlimit="4" stroke-linejoin="miter" fill="none" stroke="#231f20" d="M201.711 414.397H409.311V609.771"/>
<path transform="matrix(1,0,0,-1,-42.7104,726.12)" d="M199.558 414.397 204.11 416.258 203.03 414.397 204.11 412.538 199.558 414.397" fill="#231f20"/>
<path transform="matrix(1,0,0,-1,-42.7104,726.12)" stroke-width="1.5" stroke-linecap="square" stroke-miterlimit="4" stroke-linejoin="miter" fill="none" stroke="#231f20" d="M354.992 587.568V372.537H182.3V376.226"/>
<path transform="matrix(1,0,0,-1,-42.7104,726.12)" d="M161.154 525.062C161.154 523.671 160.026 522.543 158.635 522.543H142.235C140.844 522.543 139.717 523.671 139.717 525.062V532.353C139.717 533.746 140.844 534.874 142.235 534.874H158.635C160.026 534.874 161.154 533.746 161.154 532.353V525.062" fill="#b1b4b6"/>
<path transform="matrix(1,0,0,-1,-42.7104,726.12)" d="M159.265 526.238C159.265 524.846 158.135 523.718 156.745 523.718H140.346C138.953 523.718 137.826 524.846 137.826 526.238V533.53C137.826 534.923 138.953 536.051 140.346 536.051H156.745C158.135 536.051 159.265 534.923 159.265 533.53V526.238" fill="#c6c8ca"/>
<path transform="matrix(1,0,0,-1,-42.7104,726.12)" stroke-width=".75" stroke-linecap="butt" stroke-miterlimit="4" stroke-linejoin="miter" fill="none" stroke="#231f20" d="M159.265 526.238C159.265 524.846 158.135 523.718 156.745 523.718H140.346C138.953 523.718 137.826 524.846 137.826 526.238V533.53C137.826 534.923 138.953 536.051 140.346 536.051H156.745C158.135 536.051 159.265 534.923 159.265 533.53V526.238Z"/>
<path transform="matrix(1,0,0,-1,-42.7104,726.12)" d="M134.905 600.86C134.905 599.468 133.777 598.34 132.385 598.34H115.986C114.595 598.34 113.467 599.468 113.467 600.86V608.151C113.467 609.544 114.595 610.672 115.986 610.672H132.385C133.777 610.672 134.905 609.544 134.905 608.151V600.86" fill="#b1b4b6"/>
<path transform="matrix(1,0,0,-1,-42.7104,726.12)" d="M133.015 602.036C133.015 600.643 131.885 599.515 130.496 599.515H114.096C112.704 599.515 111.576 600.643 111.576 602.036V609.328C111.576 610.72 112.704 611.849 114.096 611.849H130.496C131.885 611.849 133.015 610.72 133.015 609.328V602.036" fill="#c6c8ca"/>
<path transform="matrix(1,0,0,-1,-42.7104,726.12)" stroke-width=".75" stroke-linecap="butt" stroke-miterlimit="4" stroke-linejoin="miter" fill="none" stroke="#231f20" d="M133.015 602.036C133.015 600.643 131.885 599.515 130.496 599.515H114.096C112.704 599.515 111.576 600.643 111.576 602.036V609.328C111.576 610.72 112.704 611.849 114.096 611.849H130.496C131.885 611.849 133.015 610.72 133.015 609.328V602.036Z"/>
<path transform="matrix(1,0,0,-1,-42.7104,726.12)" d="M182.594 525.062C182.594 523.671 181.466 522.543 180.074 522.543H163.675C162.284 522.543 161.157 523.671 161.157 525.062V532.353C161.157 533.746 162.284 534.874 163.675 534.874H180.074C181.466 534.874 182.594 533.746 182.594 532.353V525.062" fill="#b1b4b6"/>
<path transform="matrix(1,0,0,-1,-42.7104,726.12)" d="M180.704 526.238C180.704 524.846 179.574 523.718 178.184 523.718H161.785C160.393 523.718 159.265 524.846 159.265 526.238V533.53C159.265 534.923 160.393 536.051 161.785 536.051H178.184C179.574 536.051 180.704 534.923 180.704 533.53V526.238" fill="#c6c8ca"/>
<path transform="matrix(1,0,0,-1,-42.7104,726.12)" stroke-width=".75" stroke-linecap="butt" stroke-miterlimit="4" stroke-linejoin="miter" fill="none" stroke="#231f20" d="M180.704 526.238C180.704 524.846 179.574 523.718 178.184 523.718H161.785C160.393 523.718 159.265 524.846 159.265 526.238V533.53C159.265 534.923 160.393 536.051 161.785 536.051H178.184C179.574 536.051 180.704 534.923 180.704 533.53V526.238Z"/>
<text fill="#231f20" xml:space="preserve" transform="matrix(1 0 -0 1 -42.7104 726.12)" font-size="7.5" font-family="Helvetica"><tspan y="-584.938" x="252.197 257.612 261.782 265.95204">Need</tspan><tspan y="-576.93777" x="253.66027 257.41029 261.5803 263.2453">valC</tspan><tspan y="-561.0025" x="252.197 257.612 261.782 265.95204">Need</tspan><tspan y="-553.0015" x="250.949 253.4465 257.61653 261.78654 263.45155 267.62156">regids</tspan><tspan y="-604.0015" x="342.49024 347.49275 349.99024 354.16026 358.33027 359.99528 363.74528">Predict</tspan><tspan y="-596.0013" x="348.95149 353.95399">PC</tspan></text>
<text fill="#231f20" xml:space="preserve" transform="matrix(1 0 -0 1 -42.7104 726.12)" font-size="8" font-family="Helvetica"><tspan y="-430.437" x="171.377 176.713 181.161 182.937 187.385 191.385">Select</tspan><tspan y="-421.437" x="176.937 182.273">PC</tspan><tspan y="-571.6074" x="303.0882 308.4242">PC</tspan><tspan y="-562.6074" x="291.0842 292.8602 297.3082 301.3082 303.9722 308.4202 315.0842 319.5322 323.9802">increment</tspan><tspan y="-507.97624" x="203.8346 209.1706 210.9466 212.7226 217.1706">Align</tspan></text>
<text fill="#231f20" xml:space="preserve" transform="matrix(1 0 -0 1 -42.7104 726.12)" font-size="6" font-family="Helvetica"><tspan y="-493.539" x="222.417 226.419 229.419 231.087 234.423 237.423 239.091 242.427 246.003">Bytes 1&#x2013;5</tspan><tspan y="-455.523" x="166.12381 167.79181 171.1278 174.4638">f_pc</tspan><tspan y="-493.7352" x="164.0778 168.0798 171.0798 172.7478 176.0838 177.7518">Byte 0</tspan><tspan y="-471.399" x="108.855609 110.18761 115.18561 118.52161 123.51961 126.855609 130.1916 132.1896 134.1876 137.5236">imem_error</tspan></text>
<text fill="#231f20" xml:space="preserve" transform="matrix(1 0 -0 1 -42.7104 726.12)" font-size="8" font-family="Helvetica"><tspan y="-480.405" x="172.699 174.923 179.371 183.371 185.595 188.259 192.707 196.707 198.931 200.707 205.155">Instruction</tspan><tspan y="-471.405" x="176.707 183.371 187.819 194.483 198.931 201.595">memory</tspan><tspan y="-507.673" x="151.7902 157.1262 161.5742 163.3502 165.1262">Split</tspan></text>
<text fill="#231f20" xml:space="preserve" transform="matrix(1 0 -0 1 -42.7104 726.12)" font-size="7.5" font-family="Helvetica"><tspan y="-571.419" x="101.192 103.277 107.447 111.197 113.282">Instr</tspan><tspan y="-563.41879" x="100.77575 104.52575 108.69575 110.36075 112.02575">valid</tspan></text>
<text fill="#ffffff" xml:space="preserve" transform="matrix(1 0 -0 1 -42.7104 726.12)" font-size="8" font-family="Helvetica"><tspan y="-626.985" x="99.9289">D</tspan></text>
<text fill="#231f20" xml:space="preserve" transform="matrix(1 0 -0 1 -42.7104 726.12)" font-size="8" font-family="Helvetica"><tspan y="-626.985" x="138.9489 140.7249 144.7249 149.1729 153.6209 120.5921 124.5921 126.8161 131.2641 164.4489 166.2249 168.4489 172.8969 237.3609 241.3609 245.8089 247.5849 301.6209 305.6209 310.0689 311.8449 208.4769 211.1409 188.0609 190.7249">icodestatifunvalCvalPrBrA</tspan></text>
<text fill="#ffffff" xml:space="preserve" transform="matrix(1 0 -0 1 -42.7104 726.12)" font-size="8" font-family="Helvetica"><tspan y="-384.6634" x="121.1305">F</tspan></text>
<text fill="#231f20" xml:space="preserve" transform="matrix(1 0 -0 1 -42.7104 726.12)" font-size="8" font-family="Helvetica"><tspan y="-384.6634" x="169.1041 173.5521 176.2161 180.6641 185.11209 190.44809">predPC</tspan></text>
<text fill="#231f20" xml:space="preserve" transform="matrix(1 0 -0 1 -42.7104 726.12)" font-size="6" font-family="Helvetica"><tspan y="-657.03" x="374.304 379.30198 382.63798 383.96998 386.96998 390.30598 393.64198">M_icode</tspan><tspan y="-645.567" x="382.27619 387.27418 390.61018 394.61219 397.61219">M_Bch</tspan><tspan y="-634.82107" x="390.83039 395.82838 399.16438 402.16438 405.50038 406.83238">M_valA</tspan><tspan y="-623.541" x="399.3534 405.0174 408.3534 409.6854 412.6854 416.0214 419.3574">W_icode</tspan><tspan y="-612.8928" x="407.1774 412.8414 416.1774 419.1774 422.5134 423.8454">W_valM</tspan></text>
<text fill="#231f20" xml:space="preserve" transform="matrix(1 0 -0 1 -42.7104 726.12)" font-size="7.5" font-family="Helvetica"><tspan y="-527.4551" x="139.618 141.28299 145.03299 149.20299 153.37299">icode</tspan><tspan y="-603.2523" x="116.28625 120.03625 122.12125 126.291248">stat</tspan><tspan y="-527.4551" x="163.975 165.64 167.725 171.895">ifun</tspan></text>
<path transform="matrix(1,0,0,-1,-42.7104,726.12)" d="M128.401 599.107 129.641 596.072 128.401 596.793 127.161 596.072 128.401 599.107" fill="#231f20"/>
<path transform="matrix(1,0,0,-1,-42.7104,726.12)" stroke-width=".75" stroke-linecap="butt" stroke-dasharray=".75,.75" stroke-miterlimit="4" stroke-linejoin="miter" fill="none" stroke="#231f20" d="M142.628 478.766H128.378V597.265"/>
<path transform="matrix(1,0,0,-1,-42.7104,726.12)" stroke-width=".75" stroke-linecap="butt" stroke-miterlimit="4" stroke-linejoin="miter" fill="none" stroke="#231f20" d="M148.253 605.265H135.437"/>
<path transform="matrix(1,0,0,-1,-42.7104,726.12)" d="M133.284 605.265 136.319 606.505 135.598 605.265 136.319 604.025 133.284 605.265" fill="#231f20"/>
<path transform="matrix(1,0,0,-1,-42.7104,726.12)" stroke-width=".75" stroke-linecap="butt" stroke-dasharray=".75,.75" stroke-miterlimit="4" stroke-linejoin="miter" fill="none" stroke="#231f20" d="M117.878 579.015V597.112"/>
<path transform="matrix(1,0,0,-1,-42.7104,726.12)" d="M117.878 599.265 116.638 596.23 117.878 596.951 119.118 596.23 117.878 599.265" fill="#231f20"/>
<path transform="matrix(1,0,0,-1,-42.7104,726.12)" stroke-width=".75" stroke-linecap="butt" stroke-dasharray=".75,.75" stroke-miterlimit="4" stroke-linejoin="miter" fill="none" stroke="#231f20" d="M128.517 529.659H135.205"/>
<path transform="matrix(1,0,0,-1,-42.7104,726.12)" d="M137.358 529.659 134.323 528.419 135.044 529.659 134.323 530.899 137.358 529.659" fill="#231f20"/>
<text fill="#00adef" xml:space="preserve" transform="matrix(1 0 -0 1 -42.7104 726.12)" font-size="8.9664" font-family="StoneSans"><tspan y="-355.847" x="94.5 98.812839 100.94684 106.281848 111.40166 114.521968 122.23845 127.38516 129.95853 135.10524">Figure4.55</tspan></text>
<text fill="#231f20" xml:space="preserve" transform="matrix(1 0 -0 1 -42.7104 726.12)" font-size="8.9664" font-family="StoneSans" font-weight="bold"><tspan y="-355.847" x="148.22219 153.53926 156.29195 161.60903 169.63933 174.9564 184.14337 187.96306 192.86768 195.27964 200.18425 204.47019 207.95812 210.37007 215.79474 224.50649 229.33042 234.87165 243.63719 246.79337 251.69799 255.18592 259.47187 268.18363 270.59559 276.02027 281.6153 284.02726 288.3132">PIPEPCselectionandfetchlogic.</tspan></text>
<text fill="#231f20" xml:space="preserve" transform="matrix(1 0 -0 1 -42.7104 726.12)" font-size="8.9664" font-family="StoneSans"><tspan y="-355.847" x="294.0571 302.15379 304.28779 307.3812 312.62654 314.76054 323.1764 326.2698 331.51515 339.23164 344.3694 349.61473 357.3312 361.64405 366.0824 370.39524 372.52925 380.24574 383.33915 385.47315 393.4891 401.2056 403.3396 405.4736 413.48957 415.62358 418.71699 424.6106 427.704 432.94935">Withintheonecycletimelimit,the</tspan><tspan y="-344.88917" x="94.5 99.85294 102.97325 108.111 112.423839 116.9698 120.45773 123.94566 129.0834 134.77707 139.0899 143.5731 151.39182 156.52956 161.7749 163.9089 170.92064 176.27358 179.39388 183.93984 189.27484 191.40885 195.72168 201.38846 204.48188 209.72722 216.84654 221.32975 226.66475 231.99976 235.12006 239.66602 243.15395 249.21524 254.35298 259.5804 262.67384 267.91917 275.03849 280.2838 284.82978 289.48335 295.15013 297.28413 302.52946 306.01737 309.11079 312.23109 317.3509 321.66374 324.75715 326.89115 332.0289 337.27424">processorcanonlypredicttheaddressofthenextinstruction.</tspan></text>
<text fill="#231f20" xml:space="preserve" transform="matrix(1 0 -0 1 -42.7104 726.12)" font-size="9.9626" font-family="TimesTen"><tspan y="-315.123" x="112.433 118.67955 124.21876 132.53055 138.61769 149.14118 154.68038 158.55583 163.53713 169.07633 171.84593 176.26934 179.58689 182.35649 187.89569 196.76538 199.53499 205.07419 210.05548 212.82509 220.57898 225.00238 230.54158 236.08078 241.61998 245.49544 250.47673">ThePCpredictionlogicchooses</tspan></text>
<text fill="#231f20" xml:space="preserve" transform="matrix(1 0 -0 1 -42.7104 726.12)" font-size="9.9626" font-family="StoneSans"><tspan y="-315.123" x="257.68174 262.56343 267.5447 269.9158">valC</tspan></text>
<text fill="#231f20" xml:space="preserve" transform="matrix(1 0 -0 1 -42.7104 726.12)" font-size="9.9626" font-family="TimesTen"><tspan y="-315.123" x="280.06074 283.37828 288.91749 296.12345 299.44099 304.9802 313.292 316.60954 321.59083 324.90837 329.33177 334.87098 339.85227 348.722 351.49159 357.0308 360.90626 364.2238 368.09925 373.63847 378.06187 381.3794 384.149 389.6882 398.55793 405.75093 411.29014 416.27143 425.14115 427.91075 434.55879 437.32838">forthefetchedinstructionwhenitis</tspan><tspan y="-303.16789" x="94.499347 99.480648 102.250247 105.56779 111.106998 116.088298 122.45439 129.92635 134.34975 139.33104 142.10065 147.3609 152.9001 159.2662 166.73815 169.50775 175.04695 183.3458 188.4865 193.46779 198.44908 203.98828">eitheracallorajump,and</tspan></text>
<text fill="#231f20" xml:space="preserve" transform="matrix(1 0 -0 1 -42.7104 726.12)" font-size="9.9626" font-family="StoneSans"><tspan y="-303.16789" x="212.01917 216.90084 221.88213 224.25322">valP</tspan></text>
<text fill="#231f20" xml:space="preserve" transform="matrix(1 0 -0 1 -42.7104 726.12)" font-size="9.9626" font-family="TimesTen"><tspan y="-303.16789" x="232.09381 237.63301 240.95056 246.48976 251.47106 255.34651 262.53953 265.3091 269.18458 274.16587">otherwise:</tspan></text>
<text xml:space="preserve" transform="matrix(1 0 -0 1 -42.7104 726.12)" font-size="9.4645" font-family="ZztexMono"><tspan y="-283.635" x="94.5 99.468868 104.43773 114.37546 119.34432 124.31319 129.28205 134.2509 139.21976 144.18862 149.15747 159.09519 169.0329">intf_predPC=[</tspan><tspan y="-271.67945" x="134.2509 139.21976 144.18862 149.15747 154.12633 159.09519 164.06404 174.00176 178.97061 188.90833 198.84604 203.8149 208.78376 213.75261 218.72147 228.65918 233.62804 238.5969 243.56575 248.53664 258.47438 268.4121 278.34986 283.31874 288.2876 293.25648 298.22535 303.1942 308.1631">f_icodein{IJXX,ICALL}:f_valC;</tspan><tspan y="-259.72483" x="134.2509 144.18862 154.12633 159.09519 164.06404 169.0329 174.00176 178.97061 183.93947">1:f_valP;</tspan><tspan y="-247.76927" x="94.5 99.468868">];</tspan></text>
<text xml:space="preserve" transform="matrix(1 0 -0 1 -42.7104 726.12)" font-size="9.9626" font-family="TimesTen"><tspan y="-228.236" x="112.433 118.67955 124.21876 132.36617 135.13578 140.67498 145.65627 148.42588 156.01538 161.55458 164.32419 169.86339 174.28679 179.82599 186.86756 189.63716 194.61846 200.15766 205.13895 207.90856 212.88985 221.59516 226.57645 230.4519 235.9911 239.86656 243.18412 250.22568 255.20697 260.18827 262.95787 265.72746 271.26667 273.20939 281.52616 286.50746 294.25837 299.23966 304.22096 312.92628 316.80174 321.78303 326.7643 329.5339 335.07313 338.40065 340.34336 348.66014 353.64143 359.18064 367.88597 372.86726 380.61817 385.59947 390.58076 399.28608 404.26737 409.24867 412.01826 419.21125 427.35865 432.33995 436.2154">Thelogicblockslabeled&#x201c;Instrvalid,&#x201d;&#x201c;Needregids,&#x201d;and&#x201c;NeedvalC&#x201d;are</tspan><tspan y="-216.28087" x="94.50032 97.81786 103.35707 110.82902 114.70447 119.68577 127.98461 135.45656 140.43785 146.80396 150.1215 155.6607 162.02681 167.56601 174.759 183.05785 188.03914 195.23213 198.00174 201.31929 209.34914 214.33043 219.86963 225.40883 229.28429 234.82349 240.36269 244.23815 247.00775 251.98905 255.3066 260.2879 263.0575 270.52946 276.06867 281.04997 289.34883 294.3301 302.36 306.23545 311.77467 317.31388 321.18934 325.61274 333.0847 336.96015 339.72975 344.71104 350.25025 355.23155 358.00114 361.32865">thesameasforSEQ,withappropriatelynamedsourcesignals.</tspan><tspan y="-204.32575" x="112.433 120.73184 126.27105 129.04065 131.81026 137.34946 145.32152 148.09113 156.6211 162.1603 169.35329 177.28351 182.89046 190.08345 198.05551 206.35436 211.89356 215.76902 222.07733 225.95279 231.49199 234.2616 237.0312 243.33953 246.65708 252.19628 260.16838 264.59178 270.13099 278.42985 283.96907 289.50828 292.8258 297.8071 301.12464 303.89424 309.43345 317.96345 323.50267 329.81098 333.1285 338.66773 346.6398 349.4094 354.9486 358.82408 362.1416 366.01707 371.55628 375.97969 379.2972 382.0668 387.60603 396.13603 400.01148 403.329 408.3103 411.62785 417.16706 424.0333 426.8029 432.3421 435.65965">UnlikeinSEQ,wemustsplitthecomputationoftheinstructionstatusinto</tspan><tspan y="-192.36963" x="94.50032 97.81786 105.010868 112.41109 117.950298 122.931598 126.807048 130.12459 133.4521 137.80376 141.67922 149.07942 152.39698 157.93618 164.77848 168.09603 173.07732 176.39487 180.81827 188.21848 192.09394 195.41149 200.39278 205.37407 209.98674 214.46393 221.65692 228.49922 232.92263 237.90392 245.30413 248.62168 253.60297 257.47843 262.65699 265.97453 271.51374 277.2502 284.09254 292.3914 297.37269 305.67155 311.21076 315.0862 321.92854 326.90983 330.78529 334.66075 340.19996 345.93644 351.47566 357.01487 363.85719 367.1747 374.57496 379.55625 386.95649 392.4957 398.0349 401.35246 404.66999 410.2092 413.52674 416.84428 420.71974 425.70103 431.24024 436.22154">twoparts.Inthefetchstage,wecantestforamemoryerrorduetoanout-of-range</tspan><tspan y="-180.41352" x="94.50032 97.26992 102.80913 106.68458 110.00212 113.87757 119.41678 123.84017 127.157718 129.92733 135.46652 143.37783 148.35912 153.89832 159.43752 163.31298 168.29427 172.16973 175.49724 180.38289 185.36418 190.90338 198.81468 206.00768 213.36107 217.78447 222.76576 230.67707 236.21627 241.19756 244.5151 249.4964 253.9198 259.60945 264.59074 272.50205 275.27165 278.04124 280.81083 285.7921 290.7734 295.7547 300.8964 303.666 309.2052 313.08067 316.3982 320.27366 325.81288 330.23628 333.5538 336.3234 341.8626 349.77394 355.31315 361.5607">instructionaddress,andwecandetectanillegalinstructionora</tspan></text>
<text xml:space="preserve" transform="matrix(1 0 -0 1 -42.7104 726.12)" font-size="9.9626" font-family="ZztexMono"><tspan y="-180.41352" x="368.91316 374.14353 379.3739 384.60429">halt</tspan></text>
<text xml:space="preserve" transform="matrix(1 0 -0 1 -42.7104 726.12)" font-size="9.9626" font-family="TimesTen"><tspan y="-180.41352" x="392.20573 394.9753 400.51454 404.38999 407.70753 411.58299 417.1222 421.5456 424.86314 427.63273 433.17195 438.71116">instruction.</tspan><tspan y="-168.45839" x="94.49933 102.79817 107.77947 111.097019 116.078319 120.50171 123.81925 126.58885 132.12805 139.59999 144.58129 152.61113 155.38074 160.91994 165.90123 170.88253 173.65213 176.42174 184.45159 189.99079 194.97208 198.28963 205.76157 210.74286 216.28206 221.82126 225.69672 230.67801 234.55347 240.91957 249.21842 254.75762 258.63307 264.44126 269.98048 277.45243 282.99165 287.97294 291.29048 296.27177 300.14723 304.02268 309.00398 317.03385 320.35139 328.38127 331.6988 337.238 344.70997 353.00883 357.9901 366.28898 371.8282 375.70365 383.1756 387.05107 390.3686 395.34989 400.33119 404.94386">Detectinganinvaliddataaddressmustbedeferredtothememorystage.</tspan></text>
<path transform="matrix(1,0,0,-1,-42.7104,726.12)" stroke-width="12.951" stroke-linecap="butt" stroke-miterlimit="10" stroke-linejoin="miter" fill="none" stroke="#c7eafb" d="M92.507 145.038H441.199"/>
<text fill="#231f20" xml:space="preserve" transform="matrix(1 0 -0 1 -42.7104 726.12)" font-size="11.208" font-family="StoneSans" font-weight="bold"><tspan y="-140.555" x="94.5 101.14635 105.640758 111.67066 117.02808 121.38799 124.40295 129.76038 139.10785 145.7542 150.24861 157.02945 164.01204 167.027 173.15778 186.62979 193.06319 196.27988 202.71327">PracticeProblem4.28</tspan></text>
<text fill="#231f20" xml:space="preserve" transform="matrix(1 0 -0 1 -42.7104 726.12)" font-size="9.9626" font-family="TimesTen"><tspan y="-125.611" x="94.5 104.4626 108.33805 111.10765 114.42519 123.25405 131.5529 138.7459 149.2385 153.6619 159.2011 164.7403 173.56914 176.88669 182.42589 190.1489 193.46645 199.00565 207.83449 211.70995 214.47956 219.46085 225.00005 229.98134">WriteHCLcodeforthesignal</tspan></text>
<text fill="#231f20" xml:space="preserve" transform="matrix(1 0 -0 1 -42.7104 726.12)" font-size="9.9626" font-family="StoneSans"><tspan y="-125.611" x="236.59856 239.54749 244.52878 248.40424 251.84134 256.82264">f_stat</tspan></text>
<text fill="#231f20" xml:space="preserve" transform="matrix(1 0 -0 1 -42.7104 726.12)" font-size="9.9626" font-family="TimesTen"><tspan y="-125.611" x="260.25975 266.93669 272.4759 276.35136 281.89057 286.87187 289.64146 295.18067 297.95027 303.48948 312.31834 315.63587 321.17509 330.00395 335.54316 339.4186 344.95783 349.93913 352.7087 356.58418 359.35377 364.89299 370.4322 375.41349 382.03065 385.9061 389.22364 394.20494 397.52247 403.06169 410.7847 414.10224 419.64146 427.36448 430.682 436.22123">,providingtheprovisionalstatusforthe</tspan><tspan y="-113.65588" x="94.5 97.81754 102.79884 106.11639 110.53978 116.07899 121.06029 129.09015 131.85976 137.39896 141.27442 144.59197 148.46743 154.00662 158.43003 161.74758 164.51718 170.05638 175.59558">fetchedinstruction.</tspan></text>
<path transform="matrix(1,0,0,-1,-42.7104,726.12)" stroke-width=".498" stroke-linecap="butt" stroke-miterlimit="10" stroke-linejoin="miter" fill="none" stroke="#00adef" d="M94.5 105.935H441.2"/>
</g>
</svg>
