<?xml version="1.0" encoding="UTF-8" standalone="no"?>
<svg
   version="1.1"
   width="532.80005"
   height="280"
   viewBox="0 0 532.80007 280"
   id="svg125"
   sodipodi:docname="csapp2nd_50_pp_2.9.svg"
   inkscape:version="1.3.2 (091e20e, 2023-11-25, custom)"
   xmlns:inkscape="http://www.inkscape.org/namespaces/inkscape"
   xmlns:sodipodi="http://sodipodi.sourceforge.net/DTD/sodipodi-0.dtd"
   xmlns="http://www.w3.org/2000/svg"
   xmlns:svg="http://www.w3.org/2000/svg">
  <sodipodi:namedview
     id="namedview125"
     pagecolor="#e3e3e3"
     bordercolor="#ffffff"
     borderopacity="1"
     inkscape:showpageshadow="0"
     inkscape:pageopacity="0"
     inkscape:pagecheckerboard="1"
     inkscape:deskcolor="#3e3e3e"
     inkscape:zoom="1.3688964"
     inkscape:cx="280.15268"
     inkscape:cy="265.17712"
     inkscape:window-width="1500"
     inkscape:window-height="948"
     inkscape:window-x="-6"
     inkscape:window-y="-6"
     inkscape:window-maximized="1"
     inkscape:current-layer="g125" />
  <defs
     id="defs1">
    <clipPath
       id="clip_103">
      <path
         transform="matrix(1,0,0,-1,-35.28,726.12)"
         d="m 35.28,61.2 h 532.8 V 726.12 H 35.28 Z"
         fill-rule="evenodd"
         id="path1" />
    </clipPath>
  </defs>
  <g
     clip-path="url(#clip_103)"
     id="g125">
    <text
       xml:space="preserve"
       transform="translate(-35.28,726.12)"
       font-size="9.4645px"
       font-family="StoneSans"
       font-weight="bold"
       id="text1"><tspan
         y="-681.875"
         x="87.113899 92.546524"
         id="tspan1">50</tspan></text>
    <text
       xml:space="preserve"
       transform="translate(-35.28,726.12)"
       font-size="8.4682px"
       font-family="StoneSans"
       id="text2"><tspan
         y="-681.875"
         x="110.682 116.47425 121.42815 125.66225 130.71776 133.63928 137.93266 143.30997 156.63892 161.34723 165.64061 170.69612 173.64305 177.93643 181.23056 185.52394 190.47784 193.39937 195.41479 200.3687 207.83765 212.07175 217.02565 224.4946 232.35309 236.58719 241.54109 243.55652 248.61203 253.44737 255.4628 259.6969 262.61844 264.63388 269.58777 277.0567 279.30078 284.25467 286.76126 291.61353 294.56046 302.13101 306.36511 309.28665 311.30209 316.15436"
         id="tspan2">Chapter2RepresentingandManipulatingInformation</tspan></text>
    <path
       stroke-width="12.951"
       stroke-linecap="butt"
       stroke-miterlimit="10"
       stroke-linejoin="miter"
       fill="none"
       stroke="#c7eafb"
       d="M 133.528,67.45539 H 482.22"
       id="path65" />
    <text
       fill="#231f20"
       xml:space="preserve"
       font-size="11.208px"
       font-family="StoneSans"
       font-weight="bold"
       id="text66"
       x="-35.279999"
       y="579.28638"><tspan
         y="71.9384"
         x="135.52 142.16635 146.66077 152.69067 158.0481 162.408 165.42296 170.78038 180.12785 186.7742 191.26862 198.04945 205.03204 208.047 214.17778 227.64981 234.08319 237.2999"
         id="tspan66">PracticeProblem2.9</tspan></text>
    <text
       fill="#231f20"
       xml:space="preserve"
       font-size="9.9626px"
       font-family="TimesTen"
       id="text70"
       x="-35.279999"
       y="579.28638"><tspan
         y="86.882401"
         x="135.52 142.713 148.2522 156.55104 162.09024 167.62944 170.94699 175.92828 179.80374 187.66722 192.64851 197.62981 203.16901 208.1503 212.02576 217.00705 220.3246 229.29395 233.71735 239.25656 242.02615 247.56537 255.42886 260.96808 263.73767 268.16107 271.47861 277.01782 280.89328 285.87457 293.73807 299.27728 308.80453 317.77386 322.75516 325.52475 331.06396 336.04526 345.57251 349.44797 353.87137 357.74683 362.72812 367.70941 377.23666 382.77588 390.63937 393.40897 396.17856 401.71777 407.25699 410.02658 419.55383 423.97723 427.85269 432.83398 436.70944 440.02698 445.00827 451.7659 457.30511 460.07471 463.95016 469.48938 472.25897 477.24026"
         id="tspan67">Computersgeneratecolorpicturesonavideoscreenorliquidcrystaldisplay</tspan><tspan
         y="98.837509"
         x="135.52 141.0592 149.12292 157.42177 160.19138 165.17267 167.94228 173.48148 181.5452 184.86275 190.40195 194.2774 199.2587 207.32242 212.86162 215.63123 218.94878 222.26633 227.24762 231.12308 236.10437 241.64359 248.04355 252.46695 258.00616 260.77576 266.31497 270.19043 277.14832 282.68753 289.08749 291.85709 294.62668 299.60797 305.14719 308.46472 314.03781 317.91327 322.89456 328.43378 334.1553 339.1366 343.01205 347.99335 352.97464 358.51385 364.23538 369.21667 374.75589 383.37753 388.91675 391.68634 397.22556 401.83823 407.41132 411.28677 419.58563 424.56693 429.54822 432.31781 437.85703 445.92075 453.98447 457.85992 460.62952 468.92838 474.46759 477.23721"
         id="tspan68">bymixingthreedifferentcolorsoflight:red,green,andblue.Imagineasimple</tspan><tspan
         y="110.79262"
         x="135.52 139.39546 143.81886 149.35806 154.33936 162.6382 167.25087 172.01299 179.20598 181.97559 185.29314 193.04901 196.36656 201.90576 205.78122 210.76251 217.96048 223.49969 226.26929 229.58682 232.90436 237.88565 241.76111 246.7424 252.28162 257.81583 260.58542 263.35501 268.3363 273.87552 277.19305 280.52057 285.28271 290.26401 295.2453 299.6687 307.42459 312.96381 318.49802 325.69101 331.23022 333.99982 338.42322 346.17911 350.60251 355.5838 363.33969 368.87891 376.07687 379.39441 384.93362 388.80908 394.3483 399.32959 407.08548 412.62469 420.38058 425.9198 432.01193 437.55115 440.86868 443.68808 448.45023 453.98944 457.8649 463.40411 466.17371 471.155 475.5784 478.89597"
         id="tspan69">scheme,withthreedifferentlights,eachofwhichcanbeturnedonoroff,project-</tspan><tspan
         y="122.74773"
         x="135.52 138.28961 143.82881 151.30075 156.83995 162.37915 165.6967 173.72655 181.19849 186.17978 188.94939 193.93068 197.80614 204.17224 208.0477 212.4711 216.34656 221.32785 226.30914 231.84836"
         id="tspan70">ingontoaglassscreen:</tspan></text>
    <path
       d="m 214.191,202.07139 18.375,8.03 18.644,-8.003 -37.019,-0.027"
       fill="#808284"
       id="path70" />
    <path
       d="m 214.191,218.06839 18.375,-8.03 18.644,8.003 -37.019,0.027"
       fill="#bbbdbf"
       id="path71" />
    <path
       d="m 232.566,210.10139 -18.177,-8.054 h -9.129 l -0.199,15.864 h 9.465 l 18.04,-7.81"
       fill="#9d9fa1"
       id="path72" />
    <path
       stroke-width="0.5"
       stroke-linecap="butt"
       stroke-miterlimit="4"
       stroke-linejoin="miter"
       fill="none"
       stroke="#231f20"
       d="m 205.391,218.04439 h 8.909 l 36.411,-15.862 m -45.32,-0.111 h 8.8 l 36.52,15.84 m 46.722,0.133 17.687,-7.778 -17.797,-8.195"
       id="path73" />
    <path
       d="m 202.527,217.94039 c -0.42,0 -0.761,-3.573 -0.761,-7.981 0,-4.41 0.341,-7.982 0.761,-7.982 h 2.732 c -0.42,0 -0.761,3.572 -0.761,7.982 0,4.408 0.341,7.981 0.761,7.981 h -2.732"
       fill="#00c0f3"
       id="path74" />
    <path
       stroke-width="0.5"
       stroke-linecap="round"
       stroke-linejoin="round"
       fill="none"
       stroke="#231f20"
       d="m 202.527,217.94039 c -0.42,0 -0.761,-3.573 -0.761,-7.981 0,-4.41 0.341,-7.982 0.761,-7.982 h 2.732 c -0.42,0 -0.761,3.572 -0.761,7.982 0,4.408 0.341,7.981 0.761,7.981 z"
       id="path75" />
    <path
       d="m 202.378,217.82539 c -0.348,-0.726 -0.608,-3.866 -0.608,-7.714 0,-3.468 0.212,-6.418 0.507,-7.509 l 0.141,-0.434 -4.342,3.495 H 165.81 c -1.541,0 -2.791,1.973 -2.791,4.407 0,2.435 1.25,4.407 2.791,4.407 h 32.266 v 10e-4 l 4.389,3.603 -0.087,-0.256"
       fill="#00c0f3"
       id="path76" />
    <path
       stroke-width="0.5"
       stroke-linecap="round"
       stroke-linejoin="round"
       fill="none"
       stroke="#231f20"
       d="m 202.378,217.82539 c -0.348,-0.726 -0.608,-3.866 -0.608,-7.714 0,-3.468 0.212,-6.418 0.507,-7.509 l 0.141,-0.434 -4.342,3.495 H 165.81 c -1.541,0 -2.791,1.973 -2.791,4.407 0,2.435 1.25,4.407 2.791,4.407 h 32.266 v 10e-4 l 4.389,3.603 z m 2.933,0.26 h -2.832"
       id="path77" />
    <path
       d="m 206.024,210.11139 c 0,4.397 -0.342,7.961 -0.762,7.961 -0.421,0 -0.761,-3.564 -0.761,-7.961 0,-4.397 0.34,-7.962 0.761,-7.962 0.42,0 0.762,3.565 0.762,7.962"
       fill="#a7a9ac"
       id="path78" />
    <path
       stroke-width="0.5"
       stroke-linecap="butt"
       stroke-miterlimit="4"
       stroke-linejoin="miter"
       fill="none"
       stroke="#231f20"
       d="m 206.024,210.11139 c 0,4.397 -0.342,7.961 -0.762,7.961 -0.421,0 -0.761,-3.564 -0.761,-7.961 0,-4.397 0.34,-7.962 0.761,-7.962 0.42,0 0.762,3.565 0.762,7.962 z"
       id="path79" />
    <path
       d="m 204.323,224.96039 c 0.095,0.806 1.561,3.638 3.625,6.937 1.861,2.973 3.624,5.388 4.461,6.168 l 0.353,0.297 -5.557,-0.692 -28.213,17.656 c -1.306,0.818 -3.425,-0.211 -4.732,-2.297 -1.307,-2.087 -1.306,-4.441 0.001,-5.261 l 28.212,-17.656 1.787,-5.418 0.063,0.266"
       fill="#00c0f3"
       id="path80" />
    <path
       stroke-width="0.5"
       stroke-linecap="round"
       stroke-linejoin="round"
       fill="none"
       stroke="#231f20"
       d="m 204.323,224.96039 c 0.095,0.806 1.561,3.638 3.625,6.937 1.861,2.973 3.624,5.388 4.461,6.168 l 0.353,0.297 -5.557,-0.692 -28.213,17.656 c -1.306,0.818 -3.425,-0.211 -4.732,-2.297 -1.307,-2.087 -1.306,-4.441 0.001,-5.261 l 28.212,-17.656 1.787,-5.418 z"
       id="path81" />
    <path
       d="m 250.93,218.01239 -35.837,18.6 -8.404,-13.426 7.611,-5.176 36.63,0.002"
       fill="#d1d2d4"
       id="path82" />
    <path
       stroke-width="0.5"
       stroke-linecap="butt"
       stroke-miterlimit="4"
       stroke-linejoin="miter"
       fill="none"
       stroke="#231f20"
       d="m 250.93,218.01239 -35.837,18.6 -8.404,-13.426 7.611,-5.176 z"
       id="path83" />
    <path
       stroke-width="0.5"
       stroke-linecap="round"
       stroke-linejoin="round"
       fill="none"
       stroke="#231f20"
       d="m 212.741,238.39739 2.441,-1.528 m -8.512,-13.689 -2.4,1.503"
       id="path84" />
    <path
       d="m 204.248,224.68339 c -0.356,0.223 1.268,3.46 3.628,7.229 2.36,3.771 4.562,6.646 4.919,6.423 l 2.315,-1.449 c -0.357,0.223 -2.559,-2.653 -4.919,-6.423 -2.36,-3.77 -3.984,-7.007 -3.627,-7.23 l -2.316,1.45"
       fill="#00c0f3"
       id="path85" />
    <path
       stroke-width="0.5"
       stroke-linecap="round"
       stroke-linejoin="round"
       fill="none"
       stroke="#231f20"
       d="m 204.248,224.68339 c -0.356,0.223 1.268,3.46 3.628,7.229 2.36,3.771 4.562,6.646 4.919,6.423 l 2.315,-1.449 c -0.357,0.223 -2.559,-2.653 -4.919,-6.423 -2.36,-3.77 -3.984,-7.007 -3.627,-7.23 z"
       id="path86" />
    <path
       d="m 211.554,229.63939 c -2.36,-3.77 -4.562,-6.645 -4.919,-6.422 -0.356,0.224 1.268,3.46 3.627,7.231 2.361,3.769 4.563,6.645 4.92,6.422 0.355,-0.224 -1.269,-3.46 -3.628,-7.231"
       fill="#d1d2d4"
       id="path87" />
    <path
       stroke-width="0.5"
       stroke-linecap="butt"
       stroke-miterlimit="4"
       stroke-linejoin="miter"
       fill="none"
       stroke="#231f20"
       d="m 211.554,229.63939 c -2.36,-3.77 -4.562,-6.645 -4.919,-6.422 -0.356,0.224 1.268,3.46 3.627,7.231 2.361,3.769 4.563,6.645 4.92,6.422 0.355,-0.224 -1.269,-3.46 -3.628,-7.231 z"
       id="path88" />
    <path
       d="m 204.323,195.13339 c 0.095,-0.807 1.561,-3.637 3.625,-6.936 1.861,-2.973 3.624,-5.39 4.461,-6.169 l 0.353,-0.296 -5.557,0.691 -28.45,-17.892 c -1.305,-0.818 -3.425,0.21 -4.731,2.297 -1.307,2.088 -1.306,4.443 0.001,5.26 l 28.448,17.893 v 0.001 l 1.787,5.417 0.063,-0.266"
       fill="#00c0f3"
       id="path89" />
    <path
       stroke-width="0.5"
       stroke-linecap="round"
       stroke-linejoin="round"
       fill="none"
       stroke="#231f20"
       d="m 204.323,195.13339 c 0.095,-0.807 1.561,-3.637 3.625,-6.936 1.861,-2.973 3.624,-5.39 4.461,-6.169 l 0.353,-0.296 -5.557,0.691 -28.45,-17.892 c -1.305,-0.818 -3.425,0.21 -4.731,2.297 -1.307,2.088 -1.306,4.443 0.001,5.26 l 28.448,17.893 v 0.001 l 1.787,5.417 z"
       id="path90" />
    <path
       d="m 250.93,202.08139 -35.837,-18.599 -8.404,13.426 7.611,5.174 36.63,-0.001"
       fill="#6c6e70"
       id="path91" />
    <path
       stroke-width="0.5"
       stroke-linecap="butt"
       stroke-miterlimit="4"
       stroke-linejoin="miter"
       fill="none"
       stroke="#231f20"
       d="m 250.93,202.08139 -35.837,-18.599 -8.404,13.426 7.611,5.174 z"
       id="path92" />
    <path
       d="m 204.248,195.41039 c -0.356,-0.224 1.268,-3.46 3.628,-7.229 2.36,-3.771 4.562,-6.646 4.919,-6.423 l 2.315,1.45 c -0.357,-0.223 -2.559,2.651 -4.919,6.422 -2.36,3.769 -3.984,7.007 -3.627,7.229 l -2.316,-1.449"
       fill="#00c0f3"
       id="path93" />
    <path
       stroke-width="0.5"
       stroke-linecap="round"
       stroke-linejoin="round"
       fill="none"
       stroke="#231f20"
       d="m 204.248,195.41039 c -0.356,-0.224 1.268,-3.46 3.628,-7.229 2.36,-3.771 4.562,-6.646 4.919,-6.423 l 2.315,1.45 c -0.357,-0.223 -2.559,2.651 -4.919,6.422 -2.36,3.769 -3.984,7.007 -3.627,7.229 z"
       id="path94" />
    <path
       d="m 211.554,190.45439 c -2.36,3.771 -4.562,6.645 -4.919,6.422 -0.356,-0.223 1.268,-3.46 3.627,-7.23 2.361,-3.77 4.563,-6.645 4.92,-6.421 0.355,0.222 -1.269,3.459 -3.628,7.229"
       fill="#6c6e70"
       id="path95" />
    <path
       stroke-width="0.5"
       stroke-linecap="butt"
       stroke-miterlimit="4"
       stroke-linejoin="miter"
       fill="none"
       stroke="#231f20"
       d="m 211.554,190.45439 c -2.36,3.771 -4.562,6.645 -4.919,6.422 -0.356,-0.223 1.268,-3.46 3.627,-7.23 2.361,-3.77 4.563,-6.645 4.92,-6.421 0.355,0.222 -1.269,3.459 -3.628,7.229 z"
       id="path96" />
    <path
       d="m 257.53,270.06639 h -6 v -120 h 6 z m -6,0"
       fill="#d4effc"
       id="path97" />
    <path
       stroke-width="0.5"
       stroke-linecap="round"
       stroke-linejoin="round"
       fill="none"
       stroke="#231f20"
       d="m 257.53,270.06639 h -6 v -120 h 6 z"
       id="path98" />
    <path
       d="m 301.706,216.19039 c 1.701,-1.42 2.195,-3.769 2.195,-6.398 0,-2.183 -0.718,-4.138 -1.892,-5.564 l -0.311,-0.147 c -2.502,0.944 -4.252,3.283 -4.252,6.076 0,2.771 1.102,5.189 4.088,6.056 l 0.172,-0.023"
       fill="#c7eafb"
       id="path99" />
    <path
       stroke-width="0.5"
       stroke-linecap="butt"
       stroke-miterlimit="4"
       stroke-linejoin="miter"
       fill="none"
       stroke="#231f20"
       d="m 301.706,216.19039 c 1.701,-1.42 2.195,-3.769 2.195,-6.398 0,-2.183 -0.718,-4.138 -1.892,-5.564 l -0.311,-0.147 c -2.502,0.944 -4.252,3.283 -4.252,6.076 0,2.771 1.102,5.189 4.088,6.056 z"
       id="path100" />
    <path
       d="m 297.755,212.56739 c 2.459,-0.819 1.742,-5.121 0.308,-5.121 0,0 -1.144,1.498 -0.308,5.121"
       fill="#231f20"
       id="path101" />
    <text
       fill="#231f20"
       xml:space="preserve"
       font-size="8px"
       font-family="Helvetica"
       id="text105"
       x="-35.279999"
       y="579.28638"><tspan
         y="143.63338"
         x="135.63 140.078 141.854 146.302 150.75 152.974 155.198 159.198 163.646 168.09399 170.758 174.758 179.20599 231.46201 237.686 239.46201 243.91 247.91 251.91 254.134 258.134 262.134 264.798 269.246 273.694"
         id="tspan101">Light sourcesGlass screen</tspan><tspan
         y="197.31258"
         x="288.94919 295.17319 299.62119 303.62119 308.06918 310.73318 314.73318 319.18118"
         id="tspan102">Observer</tspan><tspan
         y="168.86778"
         x="149.7244 155.5004 159.94839"
         id="tspan103">Red</tspan><tspan
         y="212.34938"
         x="135.52119 141.74519 144.40919 148.85719 153.30519"
         id="tspan104">Green</tspan><tspan
         y="255.83739"
         x="148.6084 153.9444 155.7204 160.1684"
         id="tspan105">Blue</tspan></text>
  </g>
</svg>
