<?xml version="1.0" encoding="UTF-8" standalone="no"?>
<svg
   version="1.1"
   width="532.79962"
   height="320"
   viewBox="0 0 532.7996 320.00001"
   id="svg237"
   sodipodi:docname="csapp2nd_11_figure1.6.svg"
   inkscape:version="1.3.2 (091e20e, 2023-11-25, custom)"
   xmlns:inkscape="http://www.inkscape.org/namespaces/inkscape"
   xmlns:sodipodi="http://sodipodi.sourceforge.net/DTD/sodipodi-0.dtd"
   xmlns="http://www.w3.org/2000/svg"
   xmlns:svg="http://www.w3.org/2000/svg">
  <sodipodi:namedview
     id="namedview237"
     pagecolor="#505050"
     bordercolor="#ffffff"
     borderopacity="1"
     inkscape:showpageshadow="0"
     inkscape:pageopacity="0"
     inkscape:pagecheckerboard="1"
     inkscape:deskcolor="#505050"
     inkscape:zoom="0.90277842"
     inkscape:cx="266.39981"
     inkscape:cy="420.92278"
     inkscape:window-width="1500"
     inkscape:window-height="948"
     inkscape:window-x="-6"
     inkscape:window-y="-6"
     inkscape:window-maximized="1"
     inkscape:current-layer="g237" />
  <defs
     id="defs1">
    <clipPath
       id="clip_49">
      <path
         transform="matrix(1,0,0,-1,-42.7104,726.12)"
         d="M 42.7104,61.2 H 575.51 V 726.12 H 42.7104 Z"
         fill-rule="evenodd"
         id="path1" />
    </clipPath>
  </defs>
  <g
     clip-path="url(#clip_49)"
     id="g237">
    <text
       xml:space="preserve"
       transform="translate(-42.7104,726.12)"
       font-size="8.4682px"
       font-family="StoneSans"
       id="text1"><tspan
         y="-681.875"
         x="223.722 228.12546 232.41884 236.49205 239.41357 241.429 246.28128 253.66556 258.52631 260.95667 274.28561 278.83304 281.77997 286.63223 290.70544 294.99881 298.29294 301.58707 306.43933 309.38626 315.11075 319.81906 324.11243 328.34653 335.81546 340.04956 345.00345 352.47238 354.71646 359.67035 362.59189 366.88525 369.83218 374.8877 377.83463 382.12799 387.47989 389.72397 394.67786 397.97198 400.89352 403.84045 408.67578 412.74899 415.67053 417.68597 422.53824 427.49213 433.21661 437.62009 440.54163 445.39389 448.34082 452.63419 460.10312 462.11856 469.50281 477.3613 481.65466 489.22522 494.07748 497.12604"
         id="tspan1">Section1.4ProcessorsReadandInterpretInstructionsStoredinMemory</tspan></text>
    <text
       xml:space="preserve"
       transform="translate(-42.7104,726.12)"
       font-size="9.4645px"
       font-family="StoneSans"
       font-weight="bold"
       id="text2"><tspan
         y="-681.875"
         x="514.01892 519.45154"
         id="tspan2">11</tspan></text>
    <path
       d="m 218.02689,249.00898 v -17.668 c 0,-2.226 5.094,-4.031 11.375,-4.031 6.281,0 11.373,1.805 11.373,4.031 v 17.668 l -0.037,-0.107 c -0.465,2.076 -5.363,3.707 -11.336,3.707 -5.959,0 -10.848,-1.623 -11.334,-3.689 l -0.041,0.089"
       fill="#d4effc"
       id="path121" />
    <path
       stroke-width="0.5"
       stroke-linecap="butt"
       stroke-miterlimit="4"
       stroke-linejoin="miter"
       fill="none"
       stroke="#00adef"
       d="m 218.02689,249.00898 v -17.668 c 0,-2.226 5.094,-4.031 11.375,-4.031 6.281,0 11.373,1.805 11.373,4.031 v 17.668 l -0.037,-0.107 c -0.465,2.076 -5.363,3.707 -11.336,3.707 -5.959,0 -10.848,-1.623 -11.334,-3.689 z m 22.244,-17.668 c 0,2.227 -5.092,4.03 -11.373,4.03 -6.281,0 -11.375,-1.803 -11.375,-4.03"
       id="path122" />
    <path
       stroke-width="1"
       stroke-linecap="butt"
       stroke-miterlimit="4"
       stroke-linejoin="miter"
       fill="none"
       stroke="#231f20"
       d="M 156.09889,146.69498 H 46.148887 V 54.892981 H 156.09889 Z"
       id="path123" />
    <path
       d="m 81.204887,89.537981 h -27.47301 v -11.125 h 27.47301 z m -27.473,0"
       fill="#231f20"
       id="path124" />
    <path
       stroke-width="0.3"
       stroke-linecap="butt"
       stroke-miterlimit="4"
       stroke-linejoin="miter"
       fill="none"
       stroke="#231f20"
       d="m 79.903887,88.237981 h -27.473 v -11.125 h 27.473 z"
       id="path125" />
    <path
       d="m 79.904887,88.237981 h -27.47299 v -11.125 h 27.47299 z m -27.473,0"
       fill="#ffffff"
       id="path126" />
    <path
       stroke-width="0.3"
       stroke-linecap="butt"
       stroke-miterlimit="4"
       stroke-linejoin="miter"
       fill="none"
       stroke="#231f20"
       d="m 79.903887,88.237981 h -27.473 v -11.125 h 27.473 z"
       id="path127" />
    <path
       d="m 149.58789,103.03198 h -19.834 V 64.406981 h 19.834 z m -19.834,0"
       fill="#231f20"
       id="path128" />
    <path
       d="M 253.94889,212.94898 H 206.1989 v -21 h 47.74999 z m -47.75,0"
       fill="#231f20"
       id="path129" />
    <path
       d="m 252.64789,211.64798 h -47.75001 v -21 h 47.75001 z m -47.75,0"
       fill="#d4effc"
       id="path130" />
    <path
       stroke-width="0.5"
       stroke-linecap="butt"
       stroke-miterlimit="4"
       stroke-linejoin="miter"
       fill="none"
       stroke="#00adef"
       d="m 252.64789,211.64798 h -47.75001 v -21 h 47.75001 z"
       id="path131" />
    <path
       d="M 169.33789,212.94898 H 122.5869 v -21 h 46.75099 z m -46.751,0"
       fill="#231f20"
       id="path132" />
    <path
       d="m 168.03789,211.64798 h -46.75 v -21 h 46.75 z m -46.75,0"
       fill="#ffffff"
       id="path133" />
    <path
       stroke-width="0.3"
       stroke-linecap="butt"
       stroke-miterlimit="4"
       stroke-linejoin="miter"
       fill="none"
       stroke="#231f20"
       d="m 168.03789,211.64798 h -46.75 v -21 h 46.75 z"
       id="path134" />
    <path
       d="M 107.29789,213.04798 H 66.047887 v -21 h 41.250003 z m -41.250003,0"
       fill="#231f20"
       id="path135" />
    <path
       d="M 105.89789,211.64798 H 64.647887 v -21 h 41.250003 z m -41.250003,0"
       fill="#ffffff"
       id="path136" />
    <path
       stroke-width="0.3"
       stroke-linecap="butt"
       stroke-miterlimit="4"
       stroke-linejoin="miter"
       fill="none"
       stroke="#231f20"
       d="M 105.89789,211.64798 H 64.647887 v -21 h 41.250003 z"
       id="path137" />
    <path
       d="m 296.47589,146.09798 h -34.75 v -32.511 h 34.75 z m -34.75,0"
       fill="#231f20"
       id="path138" />
    <path
       d="m 295.17489,144.79798 h -34.75 v -32.51099 h 34.75 z m -34.75,0"
       fill="#d4effc"
       id="path139" />
    <path
       stroke-width="0.5"
       stroke-linecap="butt"
       stroke-miterlimit="4"
       stroke-linejoin="miter"
       fill="none"
       stroke="#00adef"
       d="m 295.17489,144.79798 h -34.75 v -32.51099 h 34.75 z"
       id="path140" />
    <path
       d="m 206.88089,139.78598 h -33 v -20.43304 h 33 z m -33,0"
       fill="#231f20"
       id="path141" />
    <path
       stroke-width="6"
       stroke-linecap="butt"
       stroke-miterlimit="4"
       stroke-linejoin="miter"
       fill="none"
       stroke="#c6c8ca"
       d="M 50.763887,164.89598 H 304.20089"
       id="path142" />
    <path
       d="m 303.37089,158.74898 v 12.393 l 6.195,-6.197 -6.195,-6.196"
       fill="#c6c8ca"
       id="path143" />
    <path
       stroke-width="6"
       stroke-linecap="butt"
       stroke-miterlimit="4"
       stroke-linejoin="miter"
       fill="none"
       stroke="#c6c8ca"
       d="m 85.272887,165.13098 v 19.778"
       id="path144" />
    <path
       d="m 91.418887,184.07898 h -12.393 l 6.197,6.195 6.196,-6.195"
       fill="#c6c8ca"
       id="path145" />
    <path
       stroke-width="6"
       stroke-linecap="butt"
       stroke-miterlimit="4"
       stroke-linejoin="miter"
       fill="none"
       stroke="#c6c8ca"
       d="m 144.75189,165.29798 v 19.778"
       id="path146" />
    <path
       d="m 150.89889,184.24598 h -12.393 l 6.196,6.195 6.197,-6.195"
       fill="#c6c8ca"
       id="path147" />
    <path
       stroke-width="6"
       stroke-linecap="butt"
       stroke-miterlimit="4"
       stroke-linejoin="miter"
       fill="none"
       stroke="#c6c8ca"
       d="m 229.31589,164.79798 v 19.778"
       id="path148" />
    <path
       d="m 235.46289,183.74598 h -12.393 l 6.195,6.195 6.198,-6.195"
       fill="#c6c8ca"
       id="path149" />
    <path
       stroke-width="6"
       stroke-linecap="butt"
       stroke-miterlimit="4"
       stroke-linejoin="miter"
       fill="none"
       stroke="#c6c8ca"
       d="m 188.93789,162.37298 v -17.917"
       id="path150" />
    <path
       d="m 182.79189,145.28598 h 12.392 l -6.195,-6.195 -6.197,6.195"
       fill="#c6c8ca"
       id="path151" />
    <path
       d="m 51.593887,171.04198 v -12.392 l -6.194,6.196 6.194,6.196"
       fill="#c6c8ca"
       id="path152" />
    <path
       d="m 205.58289,138.48598 h -33.001 v -20.43303 h 33.001 z m -33.001,0"
       fill="#d4effc"
       id="path153" />
    <path
       stroke-width="0.5"
       stroke-linecap="butt"
       stroke-miterlimit="4"
       stroke-linejoin="miter"
       fill="none"
       stroke="#00adef"
       d="m 205.58289,138.48598 h -33.001 v -20.43303 h 33.001 z"
       id="path154" />
    <path
       d="M 121.08189,139.73598 H 53.614897 v -20.43303 h 67.466993 z m -67.467003,0"
       fill="#231f20"
       id="path155" />
    <path
       d="M 119.78189,138.43698 H 52.314887 v -20.43304 h 67.467003 z m -67.467003,0"
       fill="#ffffff"
       id="path156" />
    <path
       stroke-width="0.3"
       stroke-linecap="butt"
       stroke-miterlimit="4"
       stroke-linejoin="miter"
       fill="none"
       stroke="#231f20"
       d="M 119.78189,138.43698 H 52.314887 v -20.43304 h 67.467003 z"
       id="path157" />
    <path
       stroke-width="6"
       stroke-linecap="butt"
       stroke-miterlimit="4"
       stroke-linejoin="miter"
       fill="none"
       stroke="#c6c8ca"
       d="m 108.66989,75.681981 h 15.503"
       id="path158" />
    <path
       d="m 122.05889,69.535981 v 12.393 l 6.195,-6.197 -6.195,-6.196"
       fill="#c6c8ca"
       id="path159" />
    <path
       d="M 111.12589,98.525981 H 86.208877 v -27.999 h 24.917013 z m -24.917003,0"
       fill="#231f20"
       id="path160" />
    <path
       stroke-width="6"
       stroke-linecap="butt"
       stroke-miterlimit="4"
       stroke-linejoin="miter"
       fill="none"
       stroke="#c6c8ca"
       d="m 97.483887,102.92298 v 9.356"
       id="path161" />
    <path
       d="M 103.63089,111.44898 H 91.237887 l 6.196,6.194 6.197003,-6.194"
       fill="#c6c8ca"
       id="path162" />
    <path
       d="m 91.337887,103.75398 h 12.393003 l -6.196003,-6.193999 -6.197,6.193999"
       fill="#c6c8ca"
       id="path163" />
    <path
       stroke-width="6"
       stroke-linecap="butt"
       stroke-miterlimit="4"
       stroke-linejoin="miter"
       fill="none"
       stroke="#c6c8ca"
       d="m 128.23289,90.156981 h -14.322"
       id="path164" />
    <path
       d="m 116.44089,96.302981 v -12.393 l -6.195,6.197 6.195,6.196"
       fill="#c6c8ca"
       id="path165" />
    <path
       d="M 109.82589,97.226981 H 84.908887 v -27.999 h 24.917003 z m -24.917003,0"
       fill="#ffffff"
       id="path166" />
    <path
       stroke-width="0.3"
       stroke-linecap="butt"
       stroke-miterlimit="4"
       stroke-linejoin="miter"
       fill="none"
       stroke="#231f20"
       d="M 109.82589,97.226981 H 84.908887 v -27.999 h 24.917003 z"
       id="path167" />
    <path
       d="M 84.908887,91.626981 H 109.82589"
       fill="#ffffff"
       id="path168" />
    <path
       stroke-width="0.3"
       stroke-linecap="butt"
       stroke-miterlimit="4"
       stroke-linejoin="miter"
       fill="none"
       stroke="#231f20"
       d="M 84.908887,91.626981 H 109.82589"
       id="path169" />
    <path
       d="M 84.908887,86.026981 H 109.82589"
       fill="#ffffff"
       id="path170" />
    <path
       stroke-width="0.3"
       stroke-linecap="butt"
       stroke-miterlimit="4"
       stroke-linejoin="miter"
       fill="none"
       stroke="#231f20"
       d="M 84.908887,86.026981 H 109.82589"
       id="path171" />
    <path
       d="M 84.908887,80.426981 H 109.82589"
       fill="#ffffff"
       id="path172" />
    <path
       stroke-width="0.3"
       stroke-linecap="butt"
       stroke-miterlimit="4"
       stroke-linejoin="miter"
       fill="none"
       stroke="#231f20"
       d="M 84.908887,80.426981 H 109.82589"
       id="path173" />
    <path
       d="M 84.908887,74.826981 H 109.82589"
       fill="#ffffff"
       id="path174" />
    <path
       stroke-width="0.3"
       stroke-linecap="butt"
       stroke-miterlimit="4"
       stroke-linejoin="miter"
       fill="none"
       stroke="#231f20"
       d="M 84.908887,74.826981 H 109.82589"
       id="path175" />
    <path
       d="M 148.28689,101.73198 H 128.45388 V 63.106981 h 19.83301 z m -19.833,0"
       fill="#ffffff"
       id="path176" />
    <path
       stroke-width="0.3"
       stroke-linecap="butt"
       stroke-miterlimit="4"
       stroke-linejoin="miter"
       fill="none"
       stroke="#231f20"
       d="M 148.28689,101.73198 H 128.45388 V 63.106981 h 19.83301 z"
       id="path177" />
    <path
       d="m 264.19789,174.09898 h -5 v -15.334 h 5 z m -5,0"
       fill="#231f20"
       id="path178" />
    <path
       d="m 262.89689,172.79898 h -5 v -15.334 h 5 z m -5,0"
       fill="#ffffff"
       id="path179" />
    <path
       stroke-width="0.3"
       stroke-linecap="butt"
       stroke-miterlimit="4"
       stroke-linejoin="miter"
       fill="none"
       stroke="#231f20"
       d="m 262.89689,172.79898 h -5 v -15.334 h 5 z"
       id="path180" />
    <path
       d="m 273.86389,174.09898 h -5 v -15.334 h 5 z m -5,0"
       fill="#231f20"
       id="path181" />
    <path
       d="m 272.56289,172.79898 h -5 v -15.334 h 5 z m -5,0"
       fill="#ffffff"
       id="path182" />
    <path
       stroke-width="0.3"
       stroke-linecap="butt"
       stroke-miterlimit="4"
       stroke-linejoin="miter"
       fill="none"
       stroke="#231f20"
       d="m 272.56289,172.79898 h -5 v -15.334 h 5 z"
       id="path183" />
    <path
       d="m 283.52989,174.09898 h -5 v -15.334 h 5 z m -5,0"
       fill="#231f20"
       id="path184" />
    <path
       d="m 282.22889,172.79898 h -5 v -15.334 h 5 z m -5,0"
       fill="#ffffff"
       id="path185" />
    <path
       stroke-width="0.3"
       stroke-linecap="butt"
       stroke-miterlimit="4"
       stroke-linejoin="miter"
       fill="none"
       stroke="#231f20"
       d="m 282.22889,172.79898 h -5 v -15.334 h 5 z"
       id="path186" />
    <path
       stroke-width="0.5"
       stroke-linecap="round"
       stroke-miterlimit="4"
       stroke-linejoin="miter"
       fill="none"
       stroke="#231f20"
       d="m 233.19789,119.06098 v -13.737"
       id="path187" />
    <path
       d="m 231.19789,118.97798 1.994,3.454 1.994,-3.454 h -3.988"
       fill="#231f20"
       id="path188" />
    <path
       stroke-width="0.5"
       stroke-linecap="butt"
       stroke-miterlimit="4"
       stroke-linejoin="miter"
       fill="none"
       stroke="#231f20"
       d="m 70.397887,225.86198 v -10.13"
       id="path189" />
    <path
       d="m 72.398887,216.56598 -1.994,-3.455 -1.995,3.455 h 3.989"
       fill="#231f20"
       id="path190" />
    <path
       stroke-width="0.5"
       stroke-linecap="butt"
       stroke-miterlimit="4"
       stroke-linejoin="miter"
       fill="none"
       stroke="#231f20"
       d="m 100.39789,225.86198 v -10.13"
       id="path191" />
    <path
       d="m 102.39889,216.56598 -1.994,-3.455 -1.995003,3.455 h 3.989003"
       fill="#231f20"
       id="path192" />
    <path
       stroke-width="0.5"
       stroke-linecap="butt"
       stroke-miterlimit="4"
       stroke-linejoin="miter"
       fill="none"
       stroke="#231f20"
       d="m 144.70489,223.62998 v -10.454"
       id="path193" />
    <path
       d="m 142.70389,223.29698 1.994,3.455 1.995,-3.455 h -3.989"
       fill="#231f20"
       id="path194" />
    <path
       stroke-width="0.5"
       stroke-linecap="butt"
       stroke-miterlimit="4"
       stroke-linejoin="miter"
       fill="none"
       stroke="#231f20"
       d="m 229.31989,223.62998 v -7.898"
       id="path195" />
    <path
       d="m 231.31889,215.62498 -1.994,-3.455 -1.994,3.455 h 3.988"
       fill="#231f20"
       id="path196" />
    <path
       d="m 227.31989,223.29698 1.994,3.455 1.994,-3.455 h -3.988"
       fill="#231f20"
       id="path197" />
    <path
       stroke-width="0.5"
       stroke-linecap="round"
       stroke-miterlimit="4"
       stroke-linejoin="miter"
       fill="none"
       stroke="#231f20"
       d="m 151.49189,120.73898 26.208,-15.909"
       id="path198" />
    <path
       d="m 150.95289,118.72598 -1.918,3.498 3.987,-0.088 -2.069,-3.41"
       fill="#231f20"
       id="path199" />
    <path
       stroke-width="10"
       stroke-linecap="butt"
       stroke-miterlimit="4"
       stroke-linejoin="miter"
       fill="none"
       stroke="#c6c8ca"
       d="m 129.02189,128.08298 h 37.56"
       id="path200" />
    <path
       d="m 161.85789,117.70598 v 20.654 l 10.324,-10.326 -10.324,-10.328"
       fill="#c6c8ca"
       id="path201" />
    <path
       d="m 130.40689,138.32698 v -20.654 l -10.325,10.326 10.325,10.328"
       fill="#c6c8ca"
       id="path202" />
    <path
       stroke-width="10"
       stroke-linecap="butt"
       stroke-miterlimit="4"
       stroke-linejoin="miter"
       fill="none"
       stroke="#c6c8ca"
       d="m 215.02289,128.08298 h 39.56"
       id="path203" />
    <path
       d="m 249.85789,117.70598 v 20.654 l 10.324,-10.326 -10.324,-10.328"
       fill="#c6c8ca"
       id="path204" />
    <path
       d="m 216.40789,138.32698 v -20.654 l -10.325,10.326 10.325,10.328"
       fill="#c6c8ca"
       id="path205" />
    <path
       d="m 251.00089,130.48698 9.079,-2.432 -9.079,-2.434 v 4.866"
       fill="#231f20"
       id="path206" />
    <path
       stroke-width="1.25"
       stroke-linecap="butt"
       stroke-miterlimit="4"
       stroke-linejoin="miter"
       fill="none"
       stroke="#231f20"
       d="m 228.84089,200.28998 v 3.209 m -39.647,-67.026 v 28.903 h 40.258 v 27.162 m 24.848,-64.767 h -65.106 v 1.39"
       id="path207" />
    <text
       fill="#231f20"
       xml:space="preserve"
       font-size="8px"
       font-family="Helvetica"
       font-weight="bold"
       id="text207"
       x="-49.100113"
       y="462.52496"><tspan
         y="246.21198"
         x="221.0869 226.8629 229.0869 233.5349"
         id="tspan207">Disk</tspan></text>
    <text
       fill="#231f20"
       xml:space="preserve"
       font-size="8px"
       font-family="Helvetica"
       id="text212"
       x="-49.100113"
       y="462.52496"><tspan
         y="51.772781"
         x="45.908501 51.684494 57.0205"
         id="tspan208">CPU</tspan><tspan
         y="65.333572"
         x="76.251694 82.027695 86.475693 90.923691 92.699692 96.699692 98.923691 103.37169 106.03569 108.25969 110.48369 112.25969 114.03569"
         id="tspan209">Register file</tspan><tspan
         y="85.695175"
         x="60.677284 66.01329"
         id="tspan210">PC</tspan><tspan
         y="85.627975"
         x="130.92049 136.25648 140.70448"
         id="tspan211">ALU</tspan><tspan
         y="131.22798"
         x="62.422089 67.758087 72.206085 76.206085 78.430084 80.206085 84.654083 86.878082 91.32608 93.990082 96.214081 100.66208 104.66208"
         id="tspan212">Bus interface</tspan></text>
    <text
       fill="#231f20"
       xml:space="preserve"
       font-size="8px"
       font-family="Helvetica"
       font-weight="bold"
       id="text214"
       x="-49.100113"
       y="462.52496"><tspan
         y="126.41118"
         x="183.3629 185.5869 187.8109"
         id="tspan213">I/O</tspan><tspan
         y="135.41118"
         x="176.4357 181.3237 184.4357 186.6597 191.5477 196.5141"
         id="tspan214">bridge</tspan></text>
    <text
       fill="#231f20"
       xml:space="preserve"
       font-size="8px"
       font-family="Helvetica"
       id="text216"
       x="-49.100113"
       y="462.52496"><tspan
         y="102.99519"
         x="157.96851 163.3045 167.3045 171.3045 173.5285 177.9765 184.6405 186.8645 191.3125 195.7605"
         id="tspan215">System bus</tspan><tspan
         y="103.05278"
         x="211.02769 217.6917 222.13969 228.8037 233.25169 235.9157 239.9157 242.13969 246.58769 251.03569"
         id="tspan216">Memory bus</tspan></text>
    <text
       fill="#231f20"
       xml:space="preserve"
       font-size="8px"
       font-family="Helvetica"
       font-weight="bold"
       id="text218"
       x="-49.100113"
       y="462.52496"><tspan
         y="126.49358"
         x="269.41248 276.07651 280.52448 282.74847"
         id="tspan217">Main</tspan><tspan
         y="135.49358"
         x="262.92526 270.03726 274.48526 281.59726 286.48526 289.67566"
         id="tspan218">memory</tspan></text>
    <text
       fill="#231f20"
       xml:space="preserve"
       font-size="8px"
       font-family="Helvetica"
       id="text222"
       x="-49.100113"
       y="462.52496"><tspan
         y="176.44237"
         x="176.04527 178.26927 180.49327 186.71727 188.94127 193.38927 197.83727"
         id="tspan219">I/O bus</tspan><tspan
         y="182.88637"
         x="259.36447 264.70047 268.70047 273.14847 277.59647 282.04446 286.04446 287.82047 292.26846 296.71646 298.94046 302.94046 304.71646 309.16446 311.38846 315.38846 317.61246 319.83646 324.28445"
         id="tspan220">Expansion slots for</tspan><tspan
         y="191.88637"
         x="259.36447 263.81247 266.03647 270.48447 274.93246 277.59647 279.82047 284.26846 288.71646 292.71646 294.49246 298.49246 302.94046 306.94046 309.16446 313.16446 317.61246 321.61246"
         id="tspan221">other devices such</tspan><tspan
         y="200.88637"
         x="259.36447 263.81247 267.81247 270.03647 274.48447 278.93246 281.15646 286.93246 291.38046 294.04446 298.04446 300.26846 304.71646 309.16446 313.61246 318.06046 320.28445 324.73245 327.39645"
         id="tspan222">as network adapters</tspan></text>
    <text
       fill="#231f20"
       xml:space="preserve"
       font-size="8px"
       font-family="Helvetica"
       font-weight="bold"
       id="text224"
       x="-49.100113"
       y="462.52496"><tspan
         y="199.55196"
         x="220.24928 226.02528 228.24928 232.69728"
         id="tspan223">Disk</tspan><tspan
         y="208.55196"
         x="210.32848 214.77647 219.66447 224.55247 227.21648 230.17009 235.05809 237.28209 239.50609 243.95409"
         id="tspan224">controller</tspan></text>
    <text
       fill="#231f20"
       xml:space="preserve"
       font-size="8px"
       font-family="Helvetica"
       id="text230"
       x="-49.100113"
       y="462.52496"><tspan
         y="199.85594"
         x="130.36047 136.58447 139.24847 143.69647 148.14447 152.59247 154.36847 158.36847"
         id="tspan225">Graphics</tspan><tspan
         y="208.85594"
         x="132.80048 137.24847 141.69647 146.14447 150.59247 152.81647 157.26447"
         id="tspan226">adapter</tspan><tspan
         y="233.32715"
         x="132.08607 137.86208 139.63808 143.63808 148.08607 149.86208 154.31007 56.294876 62.958874 67.406876 71.854874 75.854874 80.302872 82.526871 87.862869 92.310867 96.310867 100.75886 105.20686 109.65486 112.31886"
         id="tspan227">DisplayMouse Keyboard</tspan><tspan
         y="199.63274"
         x="76.974075 82.750076 88.086075"
         id="tspan228">USB</tspan><tspan
         y="208.63274"
         x="68.750076 72.750076 77.198074 81.646072 83.870071 86.534073 90.982071 92.758072 94.534073 98.982071"
         id="tspan229">controller</tspan><tspan
         y="126.31593"
         x="299.97086 302.63486 307.08286 311.53085 313.30685 315.08286 319.53085 321.75485 323.97885 329.75485 334.20285 336.86685 338.64285 343.09085 345.31485 349.76285"
         id="tspan230">“hello, world\n”</tspan></text>
    <text
       fill="#231f20"
       xml:space="preserve"
       font-size="8.5px"
       font-family="CMTTSY10"
       id="text231"
       x="-49.100113"
       y="462.52496"><tspan
         y="140.32997"
         x="303.86688 308.32938 312.79187 317.25436 321.71686"
         id="tspan231">hello</tspan></text>
    <text
       fill="#231f20"
       xml:space="preserve"
       font-size="8px"
       font-family="Helvetica"
       id="text232"
       x="-49.100113"
       y="462.52496"><tspan
         y="140.32997"
         x="326.17886 328.40286 332.40286 336.85086 341.29886"
         id="tspan232"> code</tspan></text>
    <text
       fill="#231f20"
       xml:space="preserve"
       font-size="8.5px"
       font-family="CMTTSY10"
       id="text233"
       x="-49.100113"
       y="462.52496"><tspan
         y="238.85197"
         x="248.28688 252.74937 257.21185 261.67438 266.13684"
         id="tspan233">hello</tspan></text>
    <text
       fill="#231f20"
       xml:space="preserve"
       font-size="8px"
       font-family="Helvetica"
       id="text235"
       x="-49.100113"
       y="462.52496"><tspan
         y="238.85197"
         x="270.59891 272.82288 277.27087 281.27087 285.71887 289.71887 294.16687 296.39087 300.83887 305.28687 307.06287"
         id="tspan234"> executable</tspan><tspan
         y="247.85197"
         x="254.99887 258.99887 261.22287 265.6709 268.33487 272.7829 277.23087 279.45486 283.90286 288.35086 290.57486 295.02286 296.79886 300.79886"
         id="tspan235">stored on disk</tspan></text>
    <text
       fill="#00adef"
       xml:space="preserve"
       font-size="8.9664px"
       font-family="StoneSans"
       id="text236"
       x="-49.100113"
       y="462.52496"><tspan
         y="268.79996"
         x="45.399887 49.71273 51.846725 57.18174 62.301544 65.42186 72.541176 77.687889 80.261246"
         id="tspan236">Figure1.6</tspan></text>
    <text
       fill="#231f20"
       xml:space="preserve"
       font-size="8.9664px"
       font-family="StoneSans"
       font-weight="bold"
       id="text237"
       x="-49.100113"
       y="462.52496"><tspan
         y="268.79996"
         x="93.377304 98.030869 103.45553 108.27946 113.8745 116.28645 121.82768 129.99608 133.48401 139.02524 146.50322 151.40784 156.18694 161.09155 165.37749 170.67664 174.16457 178.98849 184.57457 186.98653 194.46451 197.62068 201.2162 206.64087 217.4185 223.01353 225.42549 229.24516 236.40932 238.82127 244.3625 247.85042 255.84845 264.0527 268.87665 271.28857 279.4032 287.60742 292.51205 300.71631 306.14099 309.84412 313.83417"
         id="tspan237">Loadingtheexecutablefromdiskintomainmemory.</tspan></text>
  </g>
</svg>
