<?xml version="1.0" encoding="UTF-8" standalone="no"?>
<svg
   version="1.1"
   width="532.79962"
   height="220"
   viewBox="0 0 532.7996 220.00001"
   id="svg103"
   sodipodi:docname="csapp2nd_13_figure1.8.svg"
   inkscape:version="1.3.2 (091e20e, 2023-11-25, custom)"
   xmlns:inkscape="http://www.inkscape.org/namespaces/inkscape"
   xmlns:sodipodi="http://sodipodi.sourceforge.net/DTD/sodipodi-0.dtd"
   xmlns="http://www.w3.org/2000/svg"
   xmlns:svg="http://www.w3.org/2000/svg">
  <sodipodi:namedview
     id="namedview103"
     pagecolor="#505050"
     bordercolor="#ffffff"
     borderopacity="1"
     inkscape:showpageshadow="0"
     inkscape:pageopacity="0"
     inkscape:pagecheckerboard="1"
     inkscape:deskcolor="#505050"
     inkscape:zoom="0.69819869"
     inkscape:cx="266.39981"
     inkscape:cy="332.28363"
     inkscape:window-width="1500"
     inkscape:window-height="948"
     inkscape:window-x="-6"
     inkscape:window-y="-6"
     inkscape:window-maximized="1"
     inkscape:current-layer="g103" />
  <defs
     id="defs1">
    <clipPath
       id="clip_51">
      <path
         transform="matrix(1,0,0,-1,-42.7104,726.12)"
         d="M 42.7104,61.2 H 575.51 V 726.12 H 42.7104 Z"
         fill-rule="evenodd"
         id="path1" />
    </clipPath>
  </defs>
  <g
     clip-path="url(#clip_51)"
     id="g103">
    <text
       xml:space="preserve"
       transform="translate(-42.7104,726.12)"
       font-size="8.4682px"
       font-family="StoneSans"
       id="text1"><tspan
         y="-681.875"
         x="324.849 329.25247 333.54584 337.61905 340.54059 342.55603 347.40829 354.79254 359.65329 362.08365 375.4126 379.81607 382.73761 387.58987 390.5368 394.7709 399.80948 406.5332 412.76581 417.05917 421.20859 423.22403 427.29724 431.59061 437.31509 441.38831 446.24057 449.1875 459.18842 465.85287 471.81448 473.82993 478.12329 481.07022 485.30432 488.09882 492.17203 497.12592"
         id="tspan1">Section1.6StorageDevicesFormaHierarchy</tspan></text>
    <text
       xml:space="preserve"
       transform="translate(-42.7104,726.12)"
       font-size="9.4645px"
       font-family="StoneSans"
       font-weight="bold"
       id="text2"><tspan
         y="-681.875"
         x="514.02002 519.45264"
         id="tspan2">13</tspan></text>
    <text
       fill="#00adef"
       xml:space="preserve"
       transform="translate(-42.7104,726.12)"
       font-size="8.9664px"
       font-family="StoneSans"
       id="text3"><tspan
         y="-655.62299"
         x="94.5 98.812836 100.94684 106.28185 111.40166 114.52197 121.64129 126.788 129.36136"
         id="tspan3">Figure1.8</tspan></text>
    <text
       fill="#231f20"
       xml:space="preserve"
       transform="translate(-42.7104,726.12)"
       font-size="8.9664px"
       font-family="StoneSans"
       font-weight="bold"
       id="text4"><tspan
         y="-644.66516"
         x="94.5 100.51646 105.34038 109.62632 115.16756 122.64553 130.84979 135.75441 143.95866 149.38333 152.97885 155.39081 160.29543 164.11511"
         id="tspan4">Cachememories.</tspan></text>
    <path
       transform="matrix(1,0,0,-1,-42.7104,726.12)"
       d="m 427.238,554.213 h -33 v 22.666 h 33 z m -33,0"
       fill="#231f20"
       id="path4" />
    <path
       transform="matrix(1,0,0,-1,-42.7104,726.12)"
       d="m 425.94,555.512 h -33 v 22.667 h 33 z m -33,0"
       fill="#ffffff"
       id="path5" />
    <path
       transform="matrix(1,0,0,-1,-42.7104,726.12)"
       stroke-width="0.3"
       stroke-linecap="butt"
       stroke-miterlimit="4"
       stroke-linejoin="miter"
       fill="none"
       stroke="#231f20"
       d="m 425.94,555.512 h -33 v 22.667 h 33 z"
       id="path6" />
    <path
       transform="matrix(1,0,0,-1,-42.7104,726.12)"
       stroke-width="1"
       stroke-linecap="butt"
       stroke-miterlimit="4"
       stroke-linejoin="miter"
       fill="none"
       stroke="#231f20"
       d="M 373.629,549.793 H 226.523 v 101.844 h 147.106 z"
       id="path7" />
    <path
       transform="matrix(1,0,0,-1,-42.7104,726.12)"
       d="m 275.229,604.456 h -41.52899 v 31.09999 H 275.229 Z m -41.529,0"
       fill="#231f20"
       id="path8" />
    <path
       transform="matrix(1,0,0,-1,-42.7104,726.12)"
       d="m 273.799,605.886 h -41.52799 v 31.09999 H 273.799 Z m -41.528,0"
       fill="#d4effc"
       id="path9" />
    <path
       transform="matrix(1,0,0,-1,-42.7104,726.12)"
       stroke-width="0.5"
       stroke-linecap="butt"
       stroke-miterlimit="4"
       stroke-linejoin="miter"
       fill="none"
       stroke="#00adef"
       d="m 273.799,605.886 h -41.52799 v 31.09999 H 273.799 Z"
       id="path10" />
    <path
       transform="matrix(1,0,0,-1,-42.7104,726.12)"
       d="m 368.346,603.586 h -24.617 v 37.787 h 24.617 z m -24.617,0"
       fill="#231f20"
       id="path11" />
    <path
       transform="matrix(1,0,0,-1,-42.7104,726.12)"
       stroke-width="6"
       stroke-linecap="butt"
       stroke-miterlimit="4"
       stroke-linejoin="miter"
       fill="none"
       stroke="#c6c8ca"
       d="m 324.988,630.148 h 10.674"
       id="path12" />
    <path
       transform="matrix(1,0,0,-1,-42.7104,726.12)"
       d="m 335.465,636.908 v -13.632 l 6.814,6.816 -6.814,6.816"
       fill="#c6c8ca"
       id="path13" />
    <path
       transform="matrix(1,0,0,-1,-42.7104,726.12)"
       stroke-width="6"
       stroke-linecap="butt"
       stroke-miterlimit="4"
       stroke-linejoin="miter"
       fill="none"
       stroke="#c6c8ca"
       d="M 342.08,615.847 H 331.406"
       id="path14" />
    <path
       transform="matrix(1,0,0,-1,-42.7104,726.12)"
       d="m 331.604,622.609 v -13.632 l -6.815,6.816 6.815,6.816"
       fill="#c6c8ca"
       id="path15" />
    <path
       transform="matrix(1,0,0,-1,-42.7104,726.12)"
       d="m 325.272,604.076 h -24.108 v 30.799 h 24.108 z m -24.108,0"
       fill="#231f20"
       id="path16" />
    <path
       transform="matrix(1,0,0,-1,-42.7104,726.12)"
       d="m 323.842,605.506 h -24.108 v 30.799 h 24.108 z m -24.108,0"
       fill="#ffffff"
       id="path17" />
    <path
       transform="matrix(1,0,0,-1,-42.7104,726.12)"
       stroke-width="0.3"
       stroke-linecap="butt"
       stroke-miterlimit="4"
       stroke-linejoin="miter"
       fill="none"
       stroke="#231f20"
       d="m 323.843,605.506 h -24.108 v 30.799 h 24.108 z"
       id="path18" />
    <path
       transform="matrix(1,0,0,-1,-42.7104,726.12)"
       d="m 299.734,611.666 h 24.108"
       fill="#ffffff"
       id="path19" />
    <path
       transform="matrix(1,0,0,-1,-42.7104,726.12)"
       stroke-width="0.3"
       stroke-linecap="butt"
       stroke-miterlimit="4"
       stroke-linejoin="miter"
       fill="none"
       stroke="#231f20"
       d="m 299.734,611.666 h 24.108"
       id="path20" />
    <path
       transform="matrix(1,0,0,-1,-42.7104,726.12)"
       d="m 299.734,617.825 h 24.108"
       fill="#ffffff"
       id="path21" />
    <path
       transform="matrix(1,0,0,-1,-42.7104,726.12)"
       stroke-width="0.3"
       stroke-linecap="butt"
       stroke-miterlimit="4"
       stroke-linejoin="miter"
       fill="none"
       stroke="#231f20"
       d="m 299.734,617.825 h 24.108"
       id="path22" />
    <path
       transform="matrix(1,0,0,-1,-42.7104,726.12)"
       d="m 299.734,623.986 h 24.108"
       fill="#ffffff"
       id="path23" />
    <path
       transform="matrix(1,0,0,-1,-42.7104,726.12)"
       stroke-width="0.3"
       stroke-linecap="butt"
       stroke-miterlimit="4"
       stroke-linejoin="miter"
       fill="none"
       stroke="#231f20"
       d="m 299.734,623.986 h 24.108"
       id="path24" />
    <path
       transform="matrix(1,0,0,-1,-42.7104,726.12)"
       d="m 299.734,630.146 h 24.108"
       fill="#ffffff"
       id="path25" />
    <path
       transform="matrix(1,0,0,-1,-42.7104,726.12)"
       stroke-width="0.3"
       stroke-linecap="butt"
       stroke-miterlimit="4"
       stroke-linejoin="miter"
       fill="none"
       stroke="#231f20"
       d="m 299.734,630.146 h 24.108"
       id="path26" />
    <path
       transform="matrix(1,0,0,-1,-42.7104,726.12)"
       d="M 366.916,605.016 H 342.3 v 37.787 h 24.616 z m -24.616,0"
       fill="#ffffff"
       id="path27" />
    <path
       transform="matrix(1,0,0,-1,-42.7104,726.12)"
       stroke-width="0.3"
       stroke-linecap="butt"
       stroke-miterlimit="4"
       stroke-linejoin="miter"
       fill="none"
       stroke="#231f20"
       d="M 366.916,605.016 H 342.3 v 37.787 h 24.616 z"
       id="path28" />
    <path
       transform="matrix(1,0,0,-1,-42.7104,726.12)"
       stroke-width="10"
       stroke-linecap="butt"
       stroke-miterlimit="4"
       stroke-linejoin="miter"
       fill="none"
       stroke="#c6c8ca"
       d="m 346.592,567.333 h 39.716"
       id="path29" />
    <path
       transform="matrix(1,0,0,-1,-42.7104,726.12)"
       d="m 381.376,578.602 v -22.718 l 11.357,11.358 -11.357,11.36"
       fill="#c6c8ca"
       id="path30" />
    <path
       transform="matrix(1,0,0,-1,-42.7104,726.12)"
       d="m 347.115,556.065 v 22.719 l -11.357,-11.358 11.357,-11.361"
       fill="#c6c8ca"
       id="path31" />
    <path
       transform="matrix(1,0,0,-1,-42.7104,726.12)"
       stroke-width="10"
       stroke-linecap="butt"
       stroke-miterlimit="4"
       stroke-linejoin="miter"
       fill="none"
       stroke="#c6c8ca"
       d="m 436.292,567.333 h 34.716"
       id="path32" />
    <path
       transform="matrix(1,0,0,-1,-42.7104,726.12)"
       d="m 467.076,578.602 v -22.718 l 11.357,11.358 -11.357,11.36"
       fill="#c6c8ca"
       id="path33" />
    <path
       transform="matrix(1,0,0,-1,-42.7104,726.12)"
       d="m 437.816,556.065 v 22.719 l -11.358,-11.358 11.358,-11.361"
       fill="#c6c8ca"
       id="path34" />
    <path
       transform="matrix(1,0,0,-1,-42.7104,726.12)"
       stroke-width="6"
       stroke-linecap="butt"
       stroke-miterlimit="4"
       stroke-linejoin="miter"
       fill="none"
       stroke="#c6c8ca"
       d="M 254.097,598.829 V 582.037"
       id="path35" />
    <path
       transform="matrix(1,0,0,-1,-42.7104,726.12)"
       d="m 260.858,585.151 h -13.632 l 6.816,-6.813 6.816,6.813"
       fill="#c6c8ca"
       id="path36" />
    <path
       transform="matrix(1,0,0,-1,-42.7104,726.12)"
       d="m 247.335,597.915 h 13.632 l -6.816,6.814 -6.816,-6.814"
       fill="#c6c8ca"
       id="path37" />
    <path
       transform="matrix(1,0,0,-1,-42.7104,726.12)"
       stroke-width="6"
       stroke-linecap="butt"
       stroke-miterlimit="4"
       stroke-linejoin="miter"
       fill="none"
       stroke="#c6c8ca"
       d="M 312.357,598.329 V 582.037"
       id="path38" />
    <path
       transform="matrix(1,0,0,-1,-42.7104,726.12)"
       d="m 319.118,585.151 h -13.632 l 6.816,-6.813 6.816,6.813"
       fill="#c6c8ca"
       id="path39" />
    <path
       transform="matrix(1,0,0,-1,-42.7104,726.12)"
       d="m 305.596,597.415 h 13.632 l -6.816,6.813 -6.816,-6.813"
       fill="#c6c8ca"
       id="path40" />
    <path
       transform="matrix(1,0,0,-1,-42.7104,726.12)"
       stroke-width="6"
       stroke-linecap="butt"
       stroke-miterlimit="4"
       stroke-linejoin="miter"
       fill="none"
       stroke="#c6c8ca"
       d="m 281.669,621.186 h 14.292"
       id="path41" />
    <path
       transform="matrix(1,0,0,-1,-42.7104,726.12)"
       d="m 292.848,627.947 v -13.632 l 6.814,6.816 -6.814,6.816"
       fill="#c6c8ca"
       id="path42" />
    <path
       transform="matrix(1,0,0,-1,-42.7104,726.12)"
       d="m 282.584,614.424 v 13.632 l -6.814,-6.816 6.814,-6.816"
       fill="#c6c8ca"
       id="path43" />
    <path
       transform="matrix(1,0,0,-1,-42.7104,726.12)"
       stroke-width="0.5"
       stroke-linecap="butt"
       stroke-miterlimit="4"
       stroke-linejoin="miter"
       fill="none"
       stroke="#231f20"
       d="m 452.071,577.229 v 10.774"
       id="path44" />
    <path
       transform="matrix(1,0,0,-1,-42.7104,726.12)"
       d="m 449.871,577.321 2.194,-3.799 2.194,3.799 h -4.388"
       fill="#231f20"
       id="path45" />
    <path
       transform="matrix(1,0,0,-1,-42.7104,726.12)"
       stroke-width="0.5"
       stroke-linecap="butt"
       stroke-miterlimit="4"
       stroke-linejoin="miter"
       fill="none"
       stroke="#231f20"
       d="m 367.711,575.898 15.007,12.877"
       id="path46" />
    <path
       transform="matrix(1,0,0,-1,-42.7104,726.12)"
       d="m 366.348,577.628 -1.455,-4.139 4.312,0.81 -2.857,3.329"
       fill="#231f20"
       id="path47" />
    <path
       transform="matrix(1,0,0,-1,-42.7104,726.12)"
       d="M 336.064,554.213 H 234.48099 v 22.666 H 336.064 Z m -101.583,0"
       fill="#231f20"
       id="path48" />
    <path
       transform="matrix(1,0,0,-1,-42.7104,726.12)"
       d="M 334.765,555.513 H 233.182 v 22.666 h 101.583 z m -101.583,0"
       fill="#ffffff"
       id="path49" />
    <path
       transform="matrix(1,0,0,-1,-42.7104,726.12)"
       stroke-width="0.3"
       stroke-linecap="butt"
       stroke-miterlimit="4"
       stroke-linejoin="miter"
       fill="none"
       stroke="#231f20"
       d="M 334.765,555.513 H 233.182 v 22.666 h 101.583 z"
       id="path50" />
    <path
       transform="matrix(1,0,0,-1,-42.7104,726.12)"
       d="m 515.85,549.19 h -35.75001 v 34 H 515.85 Z m -35.75,0"
       fill="#231f20"
       id="path51" />
    <path
       transform="matrix(1,0,0,-1,-42.7104,726.12)"
       d="m 514.551,550.49 h -35.74996 v 34 H 514.551 Z m -35.75,0"
       fill="#ffffff"
       id="path52" />
    <path
       transform="matrix(1,0,0,-1,-42.7104,726.12)"
       stroke-width="0.3"
       stroke-linecap="butt"
       stroke-miterlimit="4"
       stroke-linejoin="miter"
       fill="none"
       stroke="#231f20"
       d="m 514.551,550.49 h -35.74996 v 34 H 514.551 Z"
       id="path53" />
    <text
       fill="#231f20"
       xml:space="preserve"
       transform="translate(-42.7104,726.12)"
       font-size="8px"
       font-family="Helvetica"
       id="text55"><tspan
         y="-568.51398"
         x="403.97299 406.19699 408.42099"
         id="tspan53">I/O</tspan><tspan
         y="-559.51318"
         x="398.19299 402.64099 405.30499 407.08099 411.52899 415.97699"
         id="tspan54">bridge</tspan><tspan
         y="-655.2428"
         x="226.0058 231.7818 237.1178 242.8938 245.1178 249.1178 253.5658 255.3418"
         id="tspan55">CPU chip</tspan></text>
    <text
       fill="#231f20"
       xml:space="preserve"
       transform="translate(-42.7104,726.12)"
       font-size="8px"
       font-family="Helvetica"
       font-weight="bold"
       id="text57"><tspan
         y="-623.83643"
         x="240.97299 246.74899 251.19699 255.56659 260.45459"
         id="tspan56">Cache</tspan><tspan
         y="-614.83643"
         x="234.04179 241.15379 245.60179 252.71379 257.60178 260.71378 262.93777 267.38577"
         id="tspan57">memories</tspan></text>
    <text
       fill="#231f20"
       xml:space="preserve"
       transform="translate(-42.7104,726.12)"
       font-size="8px"
       font-family="Helvetica"
       id="text63"><tspan
         y="-639.85565"
         x="291.3978 297.1738 301.6218 306.06979 307.84579 311.84579 314.06979 318.51779 321.18179 323.40579 325.62979 327.40579 329.18179"
         id="tspan58">Register file</tspan><tspan
         y="-591.11084"
         x="378.4938 383.8298 387.8298 391.8298 394.0538 398.5018 405.1658 407.3898 411.8378 416.2858 428.76819 435.43219 439.88019 446.54419 450.99219 453.65619 457.65619 459.88019 464.32819 468.77618"
         id="tspan59">System busMemory bus</tspan><tspan
         y="-563.87006"
         x="260.58582 265.92181 270.36981 274.36981 276.59381 278.36981 282.81781 285.04181 289.48981 292.15381 294.37781 298.82581 302.82581"
         id="tspan60">Bus interface</tspan><tspan
         y="-569.39807"
         x="487.86102 494.52502 498.97302 500.74902"
         id="tspan61">Main</tspan><tspan
         y="-560.39807"
         x="482.08502 488.74902 493.19702 499.86102 504.30902 506.97302"
         id="tspan62">memory</tspan><tspan
         y="-620.32367"
         x="346.98584 352.32184 356.76984"
         id="tspan63">ALU</tspan></text>
  </g>
</svg>
