<svg xmlns="http://www.w3.org/2000/svg" xmlns:xlink="http://www.w3.org/1999/xlink" version="1.1" width="532.80007" height="664.92" viewBox="0 0 532.80007 664.92">
<defs>
<clipPath id="clip_3190">
<path transform="matrix(1,0,0,-1,-35.28,726.12)" d="M35.28 61.2H568.08V726.12H35.28Z" fill-rule="evenodd"/>
</clipPath>
</defs>
<g clip-path="url(#clip_3190)">
<text xml:space="preserve" transform="matrix(1 0 -0 1 -35.28 726.12)" font-size="9.4645" font-family="StoneSans" font-weight="bold"><tspan y="-681.875" x="87.1139 92.546527 97.97915">402</tspan></text>
<text xml:space="preserve" transform="matrix(1 0 -0 1 -35.28 726.12)" font-size="8.4682" font-family="StoneSans"><tspan y="-681.875" x="116.115 121.90725 126.861148 131.09525 136.15076 139.07228 143.36566 148.74297 162.07192 166.61934 169.56627 174.41855 178.49176 182.78514 186.07927 189.3734 194.22568 199.60298 204.78553 207.58003 211.65325 216.60715 218.62258 221.5441 225.83748 229.91069 232.83222 237.66756 240.61449">Chapter4ProcessorArchitecture</tspan></text>
<path transform="matrix(1,0,0,-1,-35.28,726.12)" d="M237.702 623.579C237.702 621.922 236.358 620.579 234.702 620.579H217.037C215.38 620.579 214.037 621.922 214.037 623.579V633.843C214.037 635.5 215.38 636.843 217.037 636.843H234.702C236.358 636.843 237.702 635.5 237.702 633.843V623.579" fill="#b1b4b6"/>
<path transform="matrix(1,0,0,-1,-35.28,726.12)" stroke-width=".75" stroke-linecap="butt" stroke-dasharray=".75,.75" stroke-miterlimit="4" stroke-linejoin="miter" fill="none" stroke="#231f20" d="M225.174 619.968V308.664H245.831"/>
<path transform="matrix(1,0,0,-1,-35.28,726.12)" d="M225.174 622.121 226.414 619.086 225.174 619.807 223.934 619.086 225.174 622.121" fill="#231f20"/>
<path transform="matrix(1,0,0,-1,-35.28,726.12)" stroke-width=".5" stroke-linecap="butt" stroke-miterlimit="4" stroke-linejoin="miter" fill="none" stroke="#231f20" d="M296.498 504.331H287.136"/>
<path transform="matrix(1,0,0,-1,-35.28,726.12)" d="M285.044 504.331 288.079 505.571 287.359 504.331 288.079 503.092 285.044 504.331" fill="#231f20"/>
<path transform="matrix(1,0,0,-1,-35.28,726.12)" stroke-width="1.5" stroke-linecap="butt" stroke-miterlimit="4" stroke-linejoin="miter" fill="none" stroke="#231f20" d="M333.842 489.011V495.511"/>
<path transform="matrix(1,0,0,-1,-35.28,726.12)" stroke-width=".5" stroke-linecap="butt" stroke-miterlimit="4" stroke-linejoin="miter" fill="none" stroke="#231f20" d="M314.658 511.991V520.491"/>
<path transform="matrix(1,0,0,-1,-35.28,726.12)" d="M314.658 520.645 315.898 517.61 314.658 518.33 313.419 517.61 314.658 520.645" fill="#231f20"/>
<path transform="matrix(1,0,0,-1,-35.28,726.12)" stroke-width="1.5" stroke-linecap="butt" stroke-miterlimit="4" stroke-linejoin="miter" fill="none" stroke="#231f20" d="M364.211 391.565V418.906"/>
<path transform="matrix(1,0,0,-1,-35.28,726.12)" d="M364.211 420.781 366.071 416.23 364.211 417.31 362.351 416.23 364.211 420.781" fill="#231f20"/>
<path transform="matrix(1,0,0,-1,-35.28,726.12)" stroke-width="1.5" stroke-linecap="butt" stroke-miterlimit="4" stroke-linejoin="miter" fill="none" stroke="#231f20" d="M384.245 391.565V418.906"/>
<path transform="matrix(1,0,0,-1,-35.28,726.12)" d="M384.245 420.781 386.105 416.23 384.245 417.31 382.385 416.23 384.245 420.781" fill="#231f20"/>
<path transform="matrix(1,0,0,-1,-35.28,726.12)" stroke-width=".5" stroke-linecap="butt" stroke-miterlimit="4" stroke-linejoin="miter" fill="none" stroke="#231f20" d="M403.777 411.315V418.906"/>
<path transform="matrix(1,0,0,-1,-35.28,726.12)" d="M403.777 420.781 405.017 417.747 403.777 418.467 402.538 417.747 403.777 420.781" fill="#231f20"/>
<path transform="matrix(1,0,0,-1,-35.28,726.12)" d="M285.597 494.119H263.24598V510.319H285.597ZM263.246 494.119" fill="#231f20"/>
<path transform="matrix(1,0,0,-1,-35.28,726.12)" d="M284.757 494.959H262.40599V511.15904H284.757ZM262.406 494.959" fill="#d4effc"/>
<path transform="matrix(1,0,0,-1,-35.28,726.12)" stroke-width=".5" stroke-linecap="butt" stroke-miterlimit="4" stroke-linejoin="miter" fill="none" stroke="#00adef" d="M284.757 494.959H262.40599V511.15904H284.757Z"/>
<path transform="matrix(1,0,0,-1,-35.28,726.12)" d="M292.338 494.651H343.098L332.044 513.15H304.295L291.662 494.651H292.338" fill="#231f20"/>
<path transform="matrix(1,0,0,-1,-35.28,726.12)" stroke-width=".5" stroke-linecap="butt" stroke-miterlimit="4" stroke-linejoin="miter" fill="none" stroke="#231f20" d="M292.338 494.651H343.098L332.044 513.15H304.295L291.662 494.651H292.338Z"/>
<path transform="matrix(1,0,0,-1,-35.28,726.12)" d="M290.338 495.651H341.098L330.044 514.15H302.295L289.662 495.651H290.338" fill="#d4effc"/>
<path transform="matrix(1,0,0,-1,-35.28,726.12)" stroke-width=".5" stroke-linecap="butt" stroke-miterlimit="4" stroke-linejoin="miter" fill="none" stroke="#00adef" d="M290.338 495.651H341.098L330.044 514.15H302.295L289.662 495.651H290.338Z"/>
<path transform="matrix(1,0,0,-1,-35.28,726.12)" d="M305.993 583.603C305.993 581.946 304.65 580.603 302.993 580.603H281.328C279.671 580.603 278.328 581.946 278.328 583.603V596.867C278.328 598.524 279.671 599.867 281.328 599.867H302.993C304.65 599.867 305.993 598.524 305.993 596.867V583.603" fill="#b1b4b6"/>
<path transform="matrix(1,0,0,-1,-35.28,726.12)" d="M303.743 585.004C303.743 583.347 302.4 582.004 300.743 582.004H279.078C277.421 582.004 276.078 583.347 276.078 585.004V598.268C276.078 599.925 277.421 601.268 279.078 601.268H300.743C302.4 601.268 303.743 599.925 303.743 598.268V585.004" fill="#c6c8ca"/>
<path transform="matrix(1,0,0,-1,-35.28,726.12)" stroke-width=".75" stroke-linecap="butt" stroke-miterlimit="4" stroke-linejoin="miter" fill="none" stroke="#231f20" d="M303.743 585.004C303.743 583.347 302.4 582.004 300.743 582.004H279.078C277.421 582.004 276.078 583.347 276.078 585.004V598.268C276.078 599.925 277.421 601.268 279.078 601.268H300.743C302.4 601.268 303.743 599.925 303.743 598.268V585.004Z"/>
<path transform="matrix(1,0,0,-1,-35.28,726.12)" d="M344.653 555.768C344.653 554.443 343.579 553.368 342.254 553.368H324.922C323.596 553.368 322.522 554.443 322.522 555.768V566.379C322.522 567.705 323.596 568.779 324.922 568.779H342.254C343.579 568.779 344.653 567.705 344.653 566.379V555.768" fill="#b1b4b6"/>
<path transform="matrix(1,0,0,-1,-35.28,726.12)" d="M342.854 556.888C342.854 555.563 341.778 554.489 340.454 554.489H323.122C321.796 554.489 320.721 555.563 320.721 556.888V567.5C320.721 568.825 321.796 569.9 323.122 569.9H340.454C341.778 569.9 342.854 568.825 342.854 567.5V556.888" fill="#c6c8ca"/>
<path transform="matrix(1,0,0,-1,-35.28,726.12)" stroke-width=".75" stroke-linecap="butt" stroke-miterlimit="4" stroke-linejoin="miter" fill="none" stroke="#231f20" d="M342.854 556.888C342.854 555.563 341.778 554.489 340.454 554.489H323.122C321.796 554.489 320.721 555.563 320.721 556.888V567.5C320.721 568.825 321.796 569.9 323.122 569.9H340.454C341.778 569.9 342.854 568.825 342.854 567.5V556.888Z"/>
<path transform="matrix(1,0,0,-1,-35.28,726.12)" d="M370.98 555.768C370.98 554.443 369.906 553.368 368.581 553.368H351.249C349.924 553.368 348.849 554.443 348.849 555.768V566.379C348.849 567.705 349.924 568.779 351.249 568.779H368.581C369.906 568.779 370.98 567.705 370.98 566.379V555.768" fill="#b1b4b6"/>
<path transform="matrix(1,0,0,-1,-35.28,726.12)" d="M369.181 556.888C369.181 555.563 368.105 554.489 366.781 554.489H349.449C348.123 554.489 347.049 555.563 347.049 556.888V567.5C347.049 568.825 348.123 569.9 349.449 569.9H366.781C368.105 569.9 369.181 568.825 369.181 567.5V556.888" fill="#c6c8ca"/>
<path transform="matrix(1,0,0,-1,-35.28,726.12)" stroke-width=".75" stroke-linecap="butt" stroke-miterlimit="4" stroke-linejoin="miter" fill="none" stroke="#231f20" d="M369.181 556.888C369.181 555.563 368.105 554.489 366.781 554.489H349.449C348.123 554.489 347.049 555.563 347.049 556.888V567.5C347.049 568.825 348.123 569.9 349.449 569.9H366.781C368.105 569.9 369.181 568.825 369.181 567.5V556.888Z"/>
<path transform="matrix(1,0,0,-1,-35.28,726.12)" d="M400.008 497.739C400.008 496.414 398.933 495.34 397.608 495.34H376.276C374.951 495.34 373.877 496.414 373.877 497.739V513.35C373.877 514.676 374.951 515.75 376.276 515.75H397.608C398.933 515.75 400.008 514.676 400.008 513.35V497.739" fill="#b1b4b6"/>
<path transform="matrix(1,0,0,-1,-35.28,726.12)" d="M398.209 498.86C398.209 497.534 397.133 496.46 395.808 496.46H374.476C373.15 496.46 372.076 497.534 372.076 498.86V514.471C372.076 515.797 373.15 516.871 374.476 516.871H395.808C397.133 516.871 398.209 515.797 398.209 514.471V498.86" fill="#c6c8ca"/>
<path transform="matrix(1,0,0,-1,-35.28,726.12)" stroke-width=".75" stroke-linecap="butt" stroke-miterlimit="4" stroke-linejoin="miter" fill="none" stroke="#231f20" d="M398.209 498.86C398.209 497.534 397.133 496.46 395.808 496.46H374.476C373.15 496.46 372.076 497.534 372.076 498.86V514.471C372.076 515.797 373.15 516.871 374.476 516.871H395.808C397.133 516.871 398.209 515.797 398.209 514.471V498.86Z"/>
<path transform="matrix(1,0,0,-1,-35.28,726.12)" d="M348.654 472.438C348.654 471.113 347.58 470.038 346.255 470.038H324.923C323.597 470.038 322.523 471.113 322.523 472.438V486.048C322.523 487.374 323.597 488.448 324.923 488.448H346.255C347.58 488.448 348.654 487.374 348.654 486.048V472.438" fill="#b1b4b6"/>
<path transform="matrix(1,0,0,-1,-35.28,726.12)" d="M346.855 473.558C346.855 472.232 345.779 471.157 344.455 471.157H323.123C321.797 471.157 320.722 472.232 320.722 473.558V487.169C320.722 488.495 321.797 489.569 323.123 489.569H344.455C345.779 489.569 346.855 488.495 346.855 487.169V473.558" fill="#c6c8ca"/>
<path transform="matrix(1,0,0,-1,-35.28,726.12)" stroke-width=".75" stroke-linecap="butt" stroke-miterlimit="4" stroke-linejoin="miter" fill="none" stroke="#231f20" d="M346.855 473.558C346.855 472.232 345.779 471.157 344.455 471.157H323.123C321.797 471.157 320.722 472.232 320.722 473.558V487.169C320.722 488.495 321.797 489.569 323.123 489.569H344.455C345.779 489.569 346.855 488.495 346.855 487.169V473.558Z"/>
<path transform="matrix(1,0,0,-1,-35.28,726.12)" d="M311.926 472.438C311.926 471.113 310.852 470.038 309.527 470.038H288.195C286.87 470.038 285.796 471.113 285.796 472.438V486.048C285.796 487.374 286.87 488.448 288.195 488.448H309.527C310.852 488.448 311.926 487.374 311.926 486.048V472.438" fill="#b1b4b6"/>
<path transform="matrix(1,0,0,-1,-35.28,726.12)" d="M310.128 473.558C310.128 472.232 309.051 471.157 307.727 471.157H286.395C285.069 471.157 283.995 472.232 283.995 473.558V487.169C283.995 488.495 285.069 489.569 286.395 489.569H307.727C309.051 489.569 310.128 488.495 310.128 487.169V473.558" fill="#c6c8ca"/>
<path transform="matrix(1,0,0,-1,-35.28,726.12)" stroke-width=".75" stroke-linecap="butt" stroke-miterlimit="4" stroke-linejoin="miter" fill="none" stroke="#231f20" d="M310.128 473.558C310.128 472.232 309.051 471.157 307.727 471.157H286.395C285.069 471.157 283.995 472.232 283.995 473.558V487.169C283.995 488.495 285.069 489.569 286.395 489.569H307.727C309.051 489.569 310.128 488.495 310.128 487.169V473.558Z"/>
<path transform="matrix(1,0,0,-1,-35.28,726.12)" d="M366.938 576.46H325.189V603.46H366.938ZM325.189 576.46" fill="#231f20"/>
<path transform="matrix(1,0,0,-1,-35.28,726.12)" d="M365.639 577.76H323.889V604.76H365.639ZM323.889 577.76" fill="#d4effc"/>
<path transform="matrix(1,0,0,-1,-35.28,726.12)" stroke-width=".5" stroke-linecap="butt" stroke-miterlimit="4" stroke-linejoin="miter" fill="none" stroke="#00adef" d="M365.639 577.76H323.889V604.76H365.639Z"/>
<path transform="matrix(1,0,0,-1,-35.28,726.12)" stroke-width=".5" stroke-linecap="butt" stroke-miterlimit="4" stroke-linejoin="miter" fill="none" stroke="#231f20" d="M424.068 411.628V419.219"/>
<path transform="matrix(1,0,0,-1,-35.28,726.12)" d="M424.068 421.095 425.308 418.061 424.068 418.781 422.829 418.061 424.068 421.095" fill="#231f20"/>
<path transform="matrix(1,0,0,-1,-35.28,726.12)" stroke-width=".5" stroke-linecap="butt" stroke-miterlimit="4" stroke-linejoin="miter" fill="none" stroke="#231f20" d="M444.036 411.315V418.906"/>
<path transform="matrix(1,0,0,-1,-35.28,726.12)" d="M444.036 420.781 445.276 417.747 444.036 418.467 442.797 417.747 444.036 420.781" fill="#231f20"/>
<path transform="matrix(1,0,0,-1,-35.28,726.12)" d="M414.111 429.622C414.111 425.07 409.62 421.38 404.079 421.38 398.536 421.38 394.044 425.07 394.044 429.622 394.044 434.174 398.536 437.864 404.079 437.864 409.62 437.864 414.111 434.174 414.111 429.622" fill="#ffffff"/>
<path transform="matrix(1,0,0,-1,-35.28,726.12)" stroke-width=".75" stroke-linecap="butt" stroke-miterlimit="4" stroke-linejoin="miter" fill="none" stroke="#231f20" d="M414.111 429.622C414.111 425.07 409.62 421.38 404.079 421.38 398.536 421.38 394.044 425.07 394.044 429.622 394.044 434.174 398.536 437.864 404.079 437.864 409.62 437.864 414.111 434.174 414.111 429.622Z"/>
<path transform="matrix(1,0,0,-1,-35.28,726.12)" d="M394.088 429.622C394.088 425.07 389.596 421.38 384.055 421.38 378.512 421.38 374.02 425.07 374.02 429.622 374.02 434.174 378.512 437.864 384.055 437.864 389.596 437.864 394.088 434.174 394.088 429.622" fill="#ffffff"/>
<path transform="matrix(1,0,0,-1,-35.28,726.12)" stroke-width=".75" stroke-linecap="butt" stroke-miterlimit="4" stroke-linejoin="miter" fill="none" stroke="#231f20" d="M394.088 429.622C394.088 425.07 389.596 421.38 384.055 421.38 378.512 421.38 374.02 425.07 374.02 429.622 374.02 434.174 378.512 437.864 384.055 437.864 389.596 437.864 394.088 434.174 394.088 429.622Z"/>
<path transform="matrix(1,0,0,-1,-35.28,726.12)" d="M374.02 429.622C374.02 425.07 369.529 421.38 363.988 421.38 358.445 421.38 353.953 425.07 353.953 429.622 353.953 434.174 358.445 437.864 363.988 437.864 369.529 437.864 374.02 434.174 374.02 429.622" fill="#ffffff"/>
<path transform="matrix(1,0,0,-1,-35.28,726.12)" stroke-width=".75" stroke-linecap="butt" stroke-miterlimit="4" stroke-linejoin="miter" fill="none" stroke="#231f20" d="M374.02 429.622C374.02 425.07 369.529 421.38 363.988 421.38 358.445 421.38 353.953 425.07 353.953 429.622 353.953 434.174 358.445 437.864 363.988 437.864 369.529 437.864 374.02 434.174 374.02 429.622Z"/>
<path transform="matrix(1,0,0,-1,-35.28,726.12)" d="M415.107 401.004C415.107 399.81 414.141 398.843 412.948 398.843H397.356C396.164 398.843 395.197 399.81 395.197 401.004V408.391C395.197 409.583 396.164 410.549 397.356 410.549H412.948C414.141 410.549 415.107 409.583 415.107 408.391V401.004" fill="#b1b4b6"/>
<path transform="matrix(1,0,0,-1,-35.28,726.12)" d="M413.488 402.009C413.488 400.818 412.522 399.852 411.329 399.852H395.737C394.546 399.852 393.579 400.818 393.579 402.009V409.397C393.579 410.59 394.546 411.557 395.737 411.557H411.329C412.522 411.557 413.488 410.59 413.488 409.397V402.009" fill="#c6c8ca"/>
<path transform="matrix(1,0,0,-1,-35.28,726.12)" stroke-width=".75" stroke-linecap="butt" stroke-miterlimit="4" stroke-linejoin="miter" fill="none" stroke="#231f20" d="M413.488 402.009C413.488 400.818 412.522 399.852 411.329 399.852H395.737C394.546 399.852 393.579 400.818 393.579 402.009V409.397C393.579 410.59 394.546 411.557 395.737 411.557H411.329C412.522 411.557 413.488 410.59 413.488 409.397V402.009Z"/>
<path transform="matrix(1,0,0,-1,-35.28,726.12)" d="M434.02 429.622C434.02 425.07 429.529 421.38 423.988 421.38 418.445 421.38 413.953 425.07 413.953 429.622 413.953 434.174 418.445 437.864 423.988 437.864 429.529 437.864 434.02 434.174 434.02 429.622" fill="#ffffff"/>
<path transform="matrix(1,0,0,-1,-35.28,726.12)" stroke-width=".75" stroke-linecap="butt" stroke-miterlimit="4" stroke-linejoin="miter" fill="none" stroke="#231f20" d="M434.02 429.622C434.02 425.07 429.529 421.38 423.988 421.38 418.445 421.38 413.953 425.07 413.953 429.622 413.953 434.174 418.445 437.864 423.988 437.864 429.529 437.864 434.02 434.174 434.02 429.622Z"/>
<path transform="matrix(1,0,0,-1,-35.28,726.12)" d="M435.016 401.004C435.016 399.81 434.05 398.843 432.857 398.843H417.265C416.073 398.843 415.106 399.81 415.106 401.004V408.391C415.106 409.583 416.073 410.549 417.265 410.549H432.857C434.05 410.549 435.016 409.583 435.016 408.391V401.004" fill="#b1b4b6"/>
<path transform="matrix(1,0,0,-1,-35.28,726.12)" d="M433.397 402.009C433.397 400.818 432.431 399.852 431.238 399.852H415.646C414.455 399.852 413.488 400.818 413.488 402.009V409.397C413.488 410.59 414.455 411.557 415.646 411.557H431.238C432.431 411.557 433.397 410.59 433.397 409.397V402.009" fill="#c6c8ca"/>
<path transform="matrix(1,0,0,-1,-35.28,726.12)" stroke-width=".75" stroke-linecap="butt" stroke-miterlimit="4" stroke-linejoin="miter" fill="none" stroke="#231f20" d="M433.397 402.009C433.397 400.818 432.431 399.852 431.238 399.852H415.646C414.455 399.852 413.488 400.818 413.488 402.009V409.397C413.488 410.59 414.455 411.557 415.646 411.557H431.238C432.431 411.557 433.397 410.59 433.397 409.397V402.009Z"/>
<path transform="matrix(1,0,0,-1,-35.28,726.12)" d="M453.929 429.622C453.929 425.07 449.438 421.38 443.897 421.38 438.354 421.38 433.862 425.07 433.862 429.622 433.862 434.174 438.354 437.864 443.897 437.864 449.438 437.864 453.929 434.174 453.929 429.622" fill="#ffffff"/>
<path transform="matrix(1,0,0,-1,-35.28,726.12)" stroke-width=".75" stroke-linecap="butt" stroke-miterlimit="4" stroke-linejoin="miter" fill="none" stroke="#231f20" d="M453.929 429.622C453.929 425.07 449.438 421.38 443.897 421.38 438.354 421.38 433.862 425.07 433.862 429.622 433.862 434.174 438.354 437.864 443.897 437.864 449.438 437.864 453.929 434.174 453.929 429.622Z"/>
<path transform="matrix(1,0,0,-1,-35.28,726.12)" d="M454.925 401.004C454.925 399.81 453.96 398.843 452.766 398.843H437.175C435.982 398.843 435.015 399.81 435.015 401.004V408.391C435.015 409.583 435.982 410.549 437.175 410.549H452.766C453.96 410.549 454.925 409.583 454.925 408.391V401.004" fill="#b1b4b6"/>
<path transform="matrix(1,0,0,-1,-35.28,726.12)" d="M453.306 402.009C453.306 400.818 452.341 399.852 451.147 399.852H435.555C434.364 399.852 433.397 400.818 433.397 402.009V409.397C433.397 410.59 434.364 411.557 435.555 411.557H451.147C452.341 411.557 453.306 410.59 453.306 409.397V402.009" fill="#c6c8ca"/>
<path transform="matrix(1,0,0,-1,-35.28,726.12)" stroke-width=".75" stroke-linecap="butt" stroke-miterlimit="4" stroke-linejoin="miter" fill="none" stroke="#231f20" d="M453.306 402.009C453.306 400.818 452.341 399.852 451.147 399.852H435.555C434.364 399.852 433.397 400.818 433.397 402.009V409.397C433.397 410.59 434.364 411.557 435.555 411.557H451.147C452.341 411.557 453.306 410.59 453.306 409.397V402.009Z"/>
<path transform="matrix(1,0,0,-1,-35.28,726.12)" d="M473.839 429.622C473.839 425.07 469.347 421.38 463.806 421.38 458.263 421.38 453.771 425.07 453.771 429.622 453.771 434.174 458.263 437.864 463.806 437.864 469.347 437.864 473.839 434.174 473.839 429.622" fill="#ffffff"/>
<path transform="matrix(1,0,0,-1,-35.28,726.12)" stroke-width=".75" stroke-linecap="butt" stroke-miterlimit="4" stroke-linejoin="miter" fill="none" stroke="#231f20" d="M473.839 429.622C473.839 425.07 469.347 421.38 463.806 421.38 458.263 421.38 453.771 425.07 453.771 429.622 453.771 434.174 458.263 437.864 463.806 437.864 469.347 437.864 473.839 434.174 473.839 429.622Z"/>
<path transform="matrix(1,0,0,-1,-35.28,726.12)" d="M474.835 401.004C474.835 399.81 473.869 398.843 472.675 398.843H457.084C455.891 398.843 454.925 399.81 454.925 401.004V408.391C454.925 409.583 455.891 410.549 457.084 410.549H472.675C473.869 410.549 474.835 409.583 474.835 408.391V401.004" fill="#b1b4b6"/>
<path transform="matrix(1,0,0,-1,-35.28,726.12)" d="M473.216 402.009C473.216 400.818 472.25 399.852 471.056 399.852H455.465C454.273 399.852 453.306 400.818 453.306 402.009V409.397C453.306 410.59 454.273 411.557 455.465 411.557H471.056C472.25 411.557 473.216 410.59 473.216 409.397V402.009" fill="#c6c8ca"/>
<path transform="matrix(1,0,0,-1,-35.28,726.12)" stroke-width=".75" stroke-linecap="butt" stroke-miterlimit="4" stroke-linejoin="miter" fill="none" stroke="#231f20" d="M473.216 402.009C473.216 400.818 472.25 399.852 471.056 399.852H455.465C454.273 399.852 453.306 400.818 453.306 402.009V409.397C453.306 410.59 454.273 411.557 455.465 411.557H471.056C472.25 411.557 473.216 410.59 473.216 409.397V402.009Z"/>
<path transform="matrix(1,0,0,-1,-35.28,726.12)" stroke-width=".5" stroke-linecap="butt" stroke-miterlimit="4" stroke-linejoin="miter" fill="none" stroke="#231f20" d="M464.059 411.315V418.906"/>
<path transform="matrix(1,0,0,-1,-35.28,726.12)" d="M464.059 420.781 465.3 417.747 464.059 418.467 462.82 417.747 464.059 420.781" fill="#231f20"/>
<path transform="matrix(1,0,0,-1,-35.28,726.12)" stroke-width=".5" stroke-linecap="butt" stroke-miterlimit="4" stroke-linejoin="miter" fill="none" stroke="#231f20" d="M242.114 307.021V331.361M218.415 629.424V205.12H243.841V209.913M242.44 349.517V363.858H218.491"/>
<path transform="matrix(1,0,0,-1,-35.28,726.12)" d="M243.841 212.066 245.081 209.032 243.841 209.751 242.601 209.032 243.841 212.066" fill="#231f20"/>
<path transform="matrix(1,0,0,-1,-35.28,726.12)" d="M242.114 332.757 243.354 329.724 242.114 330.443 240.875 329.724 242.114 332.757" fill="#231f20"/>
<path transform="matrix(1,0,0,-1,-35.28,726.12)" stroke-width=".5" stroke-linecap="butt" stroke-miterlimit="4" stroke-linejoin="miter" fill="none" stroke="#231f20" d="M262.266 307.538V331.879"/>
<path transform="matrix(1,0,0,-1,-35.28,726.12)" d="M262.266 333.276 263.506 330.241 262.266 330.961 261.027 330.241 262.266 333.276" fill="#231f20"/>
<path transform="matrix(1,0,0,-1,-35.28,726.12)" stroke-width=".5" stroke-linecap="butt" stroke-miterlimit="4" stroke-linejoin="miter" fill="none" stroke="#231f20" d="M282.678 307.538V331.879"/>
<path transform="matrix(1,0,0,-1,-35.28,726.12)" d="M282.678 333.276 283.918 330.241 282.678 330.961 281.439 330.241 282.678 333.276" fill="#231f20"/>
<path transform="matrix(1,0,0,-1,-35.28,726.12)" stroke-width=".5" stroke-linecap="butt" stroke-miterlimit="4" stroke-linejoin="miter" fill="none" stroke="#231f20" d="M302.738 307.538V331.879"/>
<path transform="matrix(1,0,0,-1,-35.28,726.12)" d="M302.738 333.276 303.978 330.241 302.738 330.961 301.498 330.241 302.738 333.276" fill="#231f20"/>
<path transform="matrix(1,0,0,-1,-35.28,726.12)" d="M272.293 341.596C272.293 337.043 267.802 333.354 262.26 333.354 256.718 333.354 252.225 337.043 252.225 341.596 252.225 346.148 256.718 349.837 262.26 349.837 267.802 349.837 272.293 346.148 272.293 341.596" fill="#ffffff"/>
<path transform="matrix(1,0,0,-1,-35.28,726.12)" stroke-width=".75" stroke-linecap="butt" stroke-miterlimit="4" stroke-linejoin="miter" fill="none" stroke="#231f20" d="M272.293 341.596C272.293 337.043 267.802 333.354 262.26 333.354 256.718 333.354 252.225 337.043 252.225 341.596 252.225 346.148 256.718 349.837 262.26 349.837 267.802 349.837 272.293 346.148 272.293 341.596Z"/>
<path transform="matrix(1,0,0,-1,-35.28,726.12)" d="M252.196 341.596C252.196 337.043 247.705 333.354 242.164 333.354 236.621 333.354 232.129 337.043 232.129 341.596 232.129 346.148 236.621 349.837 242.164 349.837 247.705 349.837 252.196 346.148 252.196 341.596" fill="#ffffff"/>
<path transform="matrix(1,0,0,-1,-35.28,726.12)" stroke-width=".75" stroke-linecap="butt" stroke-miterlimit="4" stroke-linejoin="miter" fill="none" stroke="#231f20" d="M252.196 341.596C252.196 337.043 247.705 333.354 242.164 333.354 236.621 333.354 232.129 337.043 232.129 341.596 232.129 346.148 236.621 349.837 242.164 349.837 247.705 349.837 252.196 346.148 252.196 341.596Z"/>
<path transform="matrix(1,0,0,-1,-35.28,726.12)" d="M292.814 341.596C292.814 337.043 288.323 333.354 282.782 333.354 277.239 333.354 272.747 337.043 272.747 341.596 272.747 346.148 277.239 349.837 282.782 349.837 288.323 349.837 292.814 346.148 292.814 341.596" fill="#ffffff"/>
<path transform="matrix(1,0,0,-1,-35.28,726.12)" stroke-width=".75" stroke-linecap="butt" stroke-miterlimit="4" stroke-linejoin="miter" fill="none" stroke="#231f20" d="M292.814 341.596C292.814 337.043 288.323 333.354 282.782 333.354 277.239 333.354 272.747 337.043 272.747 341.596 272.747 346.148 277.239 349.837 282.782 349.837 288.323 349.837 292.814 346.148 292.814 341.596Z"/>
<path transform="matrix(1,0,0,-1,-35.28,726.12)" d="M289.814 276.596C289.814 272.043 285.323 268.354 279.782 268.354 274.239 268.354 269.747 272.043 269.747 276.596 269.747 281.148 274.239 284.837 279.782 284.837 285.323 284.837 289.814 281.148 289.814 276.596" fill="#ffffff"/>
<path transform="matrix(1,0,0,-1,-35.28,726.12)" stroke-width=".75" stroke-linecap="butt" stroke-miterlimit="4" stroke-linejoin="miter" fill="none" stroke="#231f20" d="M289.814 276.596C289.814 272.043 285.323 268.354 279.782 268.354 274.239 268.354 269.747 272.043 269.747 276.596 269.747 281.148 274.239 284.837 279.782 284.837 285.323 284.837 289.814 281.148 289.814 276.596Z"/>
<path transform="matrix(1,0,0,-1,-35.28,726.12)" d="M312.984 341.596C312.984 337.043 308.492 333.354 302.951 333.354 297.408 333.354 292.916 337.043 292.916 341.596 292.916 346.148 297.408 349.837 302.951 349.837 308.492 349.837 312.984 346.148 312.984 341.596" fill="#ffffff"/>
<path transform="matrix(1,0,0,-1,-35.28,726.12)" stroke-width=".75" stroke-linecap="butt" stroke-miterlimit="4" stroke-linejoin="miter" fill="none" stroke="#231f20" d="M312.984 341.596C312.984 337.043 308.492 333.354 302.951 333.354 297.408 333.354 292.916 337.043 292.916 341.596 292.916 346.148 297.408 349.837 302.951 349.837 308.492 349.837 312.984 346.148 312.984 341.596Z"/>
<path transform="matrix(1,0,0,-1,-35.28,726.12)" stroke-width="1.5" stroke-linecap="butt" stroke-miterlimit="4" stroke-linejoin="miter" fill="none" stroke="#231f20" d="M322.32 307.538V331.879M322.32 349.788V359.331"/>
<path transform="matrix(1,0,0,-1,-35.28,726.12)" d="M322.32 333.276 324.18 328.724 322.32 329.804 320.461 328.724 322.32 333.276" fill="#231f20"/>
<path transform="matrix(1,0,0,-1,-35.28,726.12)" d="M332.566 341.596C332.566 337.043 328.074 333.354 322.534 333.354 316.991 333.354 312.499 337.043 312.499 341.596 312.499 346.148 316.991 349.837 322.534 349.837 328.074 349.837 332.566 346.148 332.566 341.596" fill="#ffffff"/>
<path transform="matrix(1,0,0,-1,-35.28,726.12)" stroke-width=".75" stroke-linecap="butt" stroke-miterlimit="4" stroke-linejoin="miter" fill="none" stroke="#231f20" d="M332.566 341.596C332.566 337.043 328.074 333.354 322.534 333.354 316.991 333.354 312.499 337.043 312.499 341.596 312.499 346.148 316.991 349.837 322.534 349.837 328.074 349.837 332.566 346.148 332.566 341.596Z"/>
<path transform="matrix(1,0,0,-1,-35.28,726.12)" d="M362.664 341.596C362.664 337.043 358.172 333.354 352.631 333.354 347.088 333.354 342.595 337.043 342.595 341.596 342.595 346.148 347.088 349.837 352.631 349.837 358.172 349.837 362.664 346.148 362.664 341.596" fill="#ffffff"/>
<path transform="matrix(1,0,0,-1,-35.28,726.12)" stroke-width=".75" stroke-linecap="butt" stroke-miterlimit="4" stroke-linejoin="miter" fill="none" stroke="#231f20" d="M362.664 341.596C362.664 337.043 358.172 333.354 352.631 333.354 347.088 333.354 342.595 337.043 342.595 341.596 342.595 346.148 347.088 349.837 352.631 349.837 358.172 349.837 362.664 346.148 362.664 341.596Z"/>
<path transform="matrix(1,0,0,-1,-35.28,726.12)" stroke-width="1.5" stroke-linecap="butt" stroke-miterlimit="4" stroke-linejoin="miter" fill="none" stroke="#231f20" d="M352.884 322.339V330.879"/>
<path transform="matrix(1,0,0,-1,-35.28,726.12)" d="M352.884 332.755 354.745 328.204 352.884 329.283 351.024 328.204 352.884 332.755" fill="#231f20"/>
<path transform="matrix(1,0,0,-1,-35.28,726.12)" d="M400.942 363.219H358.192V390.219H400.942ZM358.192 363.219" fill="#231f20"/>
<path transform="matrix(1,0,0,-1,-35.28,726.12)" d="M399.643 364.52H356.893V391.52H399.643ZM356.893 364.52" fill="#d4effc"/>
<path transform="matrix(1,0,0,-1,-35.28,726.12)" stroke-width=".5" stroke-linecap="butt" stroke-miterlimit="4" stroke-linejoin="miter" fill="none" stroke="#00adef" d="M399.643 364.52H356.893V391.52H399.643Z"/>
<path transform="matrix(1,0,0,-1,-35.28,726.12)" d="M328.458 295.989H237.70801V320.989H328.458ZM237.708 295.989" fill="#231f20"/>
<path transform="matrix(1,0,0,-1,-35.28,726.12)" d="M327.159 297.289H236.409V322.289H327.159ZM236.409 297.289" fill="#d4effc"/>
<path transform="matrix(1,0,0,-1,-35.28,726.12)" stroke-width=".5" stroke-linecap="butt" stroke-miterlimit="4" stroke-linejoin="miter" fill="none" stroke="#00adef" d="M327.159 297.289H236.409V322.289H327.159Z"/>
<path transform="matrix(1,0,0,-1,-35.28,726.12)" stroke-width="1.5" stroke-linecap="butt" stroke-miterlimit="4" stroke-linejoin="miter" fill="none" stroke="#231f20" d="M351.767 632.798V637.747H486.709V194.167H296.025V209.923"/>
<path transform="matrix(1,0,0,-1,-35.28,726.12)" d="M296.025 212.076 297.884 207.525 296.025 208.605 294.165 207.525 296.025 212.076" fill="#231f20"/>
<path transform="matrix(1,0,0,-1,-35.28,726.12)" stroke-width="1.5" stroke-linecap="butt" stroke-miterlimit="4" stroke-linejoin="miter" fill="none" stroke="#231f20" d="M403.414 385.971H486.617"/>
<path transform="matrix(1,0,0,-1,-35.28,726.12)" d="M401.118 385.971 405.67 387.831 404.59 385.971 405.67 384.112 401.118 385.971" fill="#231f20"/>
<path transform="matrix(1,0,0,-1,-35.28,726.12)" d="M352.715 355.998C353.681 355.998 354.465 355.213 354.465 354.248 354.465 353.281 353.681 352.498 352.715 352.498 351.75 352.498 350.965 353.281 350.965 354.248 350.965 355.213 351.75 355.998 352.715 355.998" fill="#231f20"/>
<path transform="matrix(1,0,0,-1,-35.28,726.12)" d="M322.215 360.748C323.181 360.748 323.965 359.963 323.965 358.998 323.965 358.031 323.181 357.248 322.215 357.248 321.25 357.248 320.465 358.031 320.465 358.998 320.465 359.963 321.25 360.748 322.215 360.748" fill="#231f20"/>
<path transform="matrix(1,0,0,-1,-35.28,726.12)" d="M218.491 365.608C219.458 365.608 220.241 364.822 220.241 363.858 220.241 362.891 219.458 362.108 218.491 362.108 217.526 362.108 216.741 362.891 216.741 363.858 216.741 364.822 217.526 365.608 218.491 365.608" fill="#231f20"/>
<path transform="matrix(1,0,0,-1,-35.28,726.12)" d="M209.831 407.195C210.798 407.195 211.581 406.409 211.581 405.445 211.581 404.478 210.798 403.695 209.831 403.695 208.866 403.695 208.081 404.478 208.081 405.445 208.081 406.409 208.866 407.195 209.831 407.195" fill="#231f20"/>
<path transform="matrix(1,0,0,-1,-35.28,726.12)" d="M364.18 449.268C365.147 449.268 365.93 448.483 365.93 447.518 365.93 446.551 365.147 445.768 364.18 445.768 363.216 445.768 362.43 446.551 362.43 447.518 362.43 448.483 363.216 449.268 364.18 449.268" fill="#231f20"/>
<path transform="matrix(1,0,0,-1,-35.28,726.12)" d="M486.567 387.604C487.534 387.604 488.317 386.819 488.317 385.854 488.317 384.887 487.534 384.104 486.567 384.104 485.602 384.104 484.817 384.887 484.817 385.854 484.817 386.819 485.602 387.604 486.567 387.604" fill="#231f20"/>
<path transform="matrix(1,0,0,-1,-35.28,726.12)" d="M364.134 547.067C365.101 547.067 365.884 546.281 365.884 545.317 365.884 544.35 365.101 543.567 364.134 543.567 363.17 543.567 362.384 544.35 362.384 545.317 362.384 546.281 363.17 547.067 364.134 547.067" fill="#231f20"/>
<path transform="matrix(1,0,0,-1,-35.28,726.12)" d="M329.468 542.685C330.435 542.685 331.218 541.9 331.218 540.935 331.218 539.968 330.435 539.185 329.468 539.185 328.504 539.185 327.718 539.968 327.718 540.935 327.718 541.9 328.504 542.685 329.468 542.685" fill="#231f20"/>
<path transform="matrix(1,0,0,-1,-35.28,726.12)" stroke-width=".75" stroke-linecap="butt" stroke-dasharray=".75,.75" stroke-miterlimit="4" stroke-linejoin="miter" fill="none" stroke="#231f20" d="M273.498 537.024V545.331H209.992V199.599H268.142V209.81"/>
<path transform="matrix(1,0,0,-1,-35.28,726.12)" d="M268.142 212.095 269.382 209.061 268.142 209.781 266.902 209.061 268.142 212.095" fill="#231f20"/>
<path transform="matrix(1,0,0,-1,-35.28,726.12)" stroke-width=".75" stroke-linecap="butt" stroke-dasharray=".75,.75" stroke-miterlimit="4" stroke-linejoin="miter" fill="none" stroke="#231f20" d="M273.658 511.331V519.831"/>
<path transform="matrix(1,0,0,-1,-35.28,726.12)" d="M273.658 520.488 274.898 517.453 273.658 518.174 272.419 517.453 273.658 520.488" fill="#231f20"/>
<path transform="matrix(1,0,0,-1,-35.28,726.12)" stroke-width="1.5" stroke-linecap="butt" stroke-miterlimit="4" stroke-linejoin="miter" fill="none" stroke="#231f20" d="M314.55 536.782V540.831H480.151V371.831H402.223"/>
<path transform="matrix(1,0,0,-1,-35.28,726.12)" d="M401.054 371.831 405.605 373.692 404.526 371.831 405.605 369.972 401.054 371.831" fill="#231f20"/>
<path transform="matrix(1,0,0,-1,-35.28,726.12)" stroke-width="1.5" stroke-linecap="butt" stroke-miterlimit="4" stroke-linejoin="miter" fill="none" stroke="#231f20" d="M364.043 438.049V545.331H338.498V551.459"/>
<path transform="matrix(1,0,0,-1,-35.28,726.12)" d="M338.498 554.05 340.358 549.497 338.498 550.578 336.638 549.497 338.498 554.05" fill="#231f20"/>
<path transform="matrix(1,0,0,-1,-35.28,726.12)" stroke-width=".5" stroke-linecap="butt" stroke-miterlimit="4" stroke-linejoin="miter" fill="none" stroke="#231f20" d="M371.998 506.842H337.998"/>
<path transform="matrix(1,0,0,-1,-35.28,726.12)" d="M335.844 506.842 338.879 508.081 338.159 506.842 338.879 505.602 335.844 506.842" fill="#231f20"/>
<path transform="matrix(1,0,0,-1,-35.28,726.12)" stroke-width="1.5" stroke-linecap="butt" stroke-miterlimit="4" stroke-linejoin="miter" fill="none" stroke="#231f20" d="M383.947 438.049V458.331H333.848V468.331"/>
<path transform="matrix(1,0,0,-1,-35.28,726.12)" d="M333.848 470.815 335.709 466.263 333.848 467.343 331.989 466.263 333.848 470.815" fill="#231f20"/>
<path transform="matrix(1,0,0,-1,-35.28,726.12)" stroke-width="1.5" stroke-linecap="butt" stroke-miterlimit="4" stroke-linejoin="miter" fill="none" stroke="#231f20" d="M365.998 447.831H305.498V469.331"/>
<path transform="matrix(1,0,0,-1,-35.28,726.12)" d="M305.498 471.156 307.357 466.604 305.498 467.684 303.638 466.604 305.498 471.156" fill="#231f20"/>
<path transform="matrix(1,0,0,-1,-35.28,726.12)" stroke-width="1.5" stroke-linecap="butt" stroke-miterlimit="4" stroke-linejoin="miter" fill="none" stroke="#231f20" d="M329.498 541.826V551.826"/>
<path transform="matrix(1,0,0,-1,-35.28,726.12)" d="M329.498 553.98 331.358 549.428 329.498 550.508 327.637 549.428 329.498 553.98" fill="#231f20"/>
<path transform="matrix(1,0,0,-1,-35.28,726.12)" stroke-width="1.5" stroke-linecap="butt" stroke-miterlimit="4" stroke-linejoin="miter" fill="none" stroke="#231f20" d="M296.498 489.331V494.831M352.63 350.046V552.522"/>
<path transform="matrix(1,0,0,-1,-35.28,726.12)" d="M352.586 554.092 354.446 549.54 352.586 550.62 350.726 549.54 352.586 554.092" fill="#231f20"/>
<path transform="matrix(1,0,0,-1,-35.28,726.12)" stroke-width="1.5" stroke-linecap="butt" stroke-miterlimit="4" stroke-linejoin="miter" fill="none" stroke="#231f20" d="M363.936 545.995V552.182"/>
<path transform="matrix(1,0,0,-1,-35.28,726.12)" d="M363.936 554.335 365.797 549.783 363.936 550.864 362.077 549.783 363.936 554.335" fill="#231f20"/>
<path transform="matrix(1,0,0,-1,-35.28,726.12)" stroke-width="1.5" stroke-linecap="butt" stroke-miterlimit="4" stroke-linejoin="miter" fill="none" stroke="#231f20" d="M335.755 570.376V573.914"/>
<path transform="matrix(1,0,0,-1,-35.28,726.12)" d="M335.755 576.817 337.615 572.265 335.755 573.345 333.895 572.265 335.755 576.817" fill="#231f20"/>
<path transform="matrix(1,0,0,-1,-35.28,726.12)" stroke-width="1.5" stroke-linecap="butt" stroke-miterlimit="4" stroke-linejoin="miter" fill="none" stroke="#231f20" d="M352.674 570.209V573.747"/>
<path transform="matrix(1,0,0,-1,-35.28,726.12)" d="M352.674 576.9 354.534 572.348 352.674 573.428 350.814 572.348 352.674 576.9" fill="#231f20"/>
<path transform="matrix(1,0,0,-1,-35.28,726.12)" stroke-width=".75" stroke-linecap="butt" stroke-dasharray=".75,.75" stroke-miterlimit="4" stroke-linejoin="miter" fill="none" stroke="#231f20" d="M209.831 405.445H390.931"/>
<path transform="matrix(1,0,0,-1,-35.28,726.12)" d="M393.275 405.445 390.241 404.205 390.961 405.445 390.241 406.685 393.275 405.445" fill="#231f20"/>
<path transform="matrix(1,0,0,-1,-35.28,726.12)" stroke-width=".75" stroke-linecap="butt" stroke-dasharray=".75,.75" stroke-miterlimit="4" stroke-linejoin="miter" fill="none" stroke="#231f20" d="M303.66 586.336H321.171M303.66 595.474H321.171"/>
<path transform="matrix(1,0,0,-1,-35.28,726.12)" d="M323.516 586.336 320.481 585.096 321.201 586.336 320.481 587.576 323.516 586.336" fill="#231f20"/>
<path transform="matrix(1,0,0,-1,-35.28,726.12)" d="M323.516 595.474 320.481 594.234 321.201 595.474 320.481 596.714 323.516 595.474" fill="#231f20"/>
<path transform="matrix(1,0,0,-1,-35.28,726.12)" stroke-width="1.5" stroke-linecap="butt" stroke-miterlimit="4" stroke-linejoin="miter" fill="none" stroke="#231f20" d="M279.696 284.831V294.27M354.623 294.456V288.409H279.644"/>
<path transform="matrix(1,0,0,-1,-35.28,726.12)" d="M279.696 296.423 281.555 291.872 279.696 292.951 277.837 291.872 279.696 296.423" fill="#231f20"/>
<path transform="matrix(1,0,0,-1,-35.28,726.12)" d="M354.623 296.61 356.483 292.058 354.623 293.138 352.763 292.058 354.623 296.61" fill="#231f20"/>
<path transform="matrix(1,0,0,-1,-35.28,726.12)" d="M279.644 290.223C280.611 290.223 281.394 289.438 281.394 288.473 281.394 287.506 280.611 286.723 279.644 286.723 278.679 286.723 277.894 287.506 277.894 288.473 277.894 289.438 278.679 290.223 279.644 290.223" fill="#231f20"/>
<path transform="matrix(1,0,0,-1,-35.28,726.12)" stroke-width="1.5" stroke-linecap="butt" stroke-miterlimit="4" stroke-linejoin="miter" fill="none" stroke="#231f20" d="M350.722 604.71V614.283"/>
<path transform="matrix(1,0,0,-1,-35.28,726.12)" d="M350.722 616.436 352.583 611.884 350.722 612.964 348.863 611.884 350.722 616.436" fill="#231f20"/>
<path transform="matrix(1,0,0,-1,-35.28,726.12)" stroke-width="1.5" stroke-linecap="butt" stroke-miterlimit="4" stroke-linejoin="miter" fill="none" stroke="#231f20" d="M293.381 469.236V359.331H400.998V199.04H331.431V209.978"/>
<path transform="matrix(1,0,0,-1,-35.28,726.12)" d="M331.431 212.131 333.292 207.579 331.431 208.659 329.572 207.579 331.431 212.131" fill="#231f20"/>
<path transform="matrix(1,0,0,-1,-35.28,726.12)" d="M293.381 471.112 295.241 466.56 293.381 467.64 291.521 466.56 293.381 471.112" fill="#231f20"/>
<path transform="matrix(1,0,0,-1,-35.28,726.12)" d="M372.889 295.989H334.139V320.989H372.889ZM334.139 295.989" fill="#231f20"/>
<path transform="matrix(1,0,0,-1,-35.28,726.12)" d="M371.591 297.289H332.841V322.289H371.591ZM332.841 297.289" fill="#d4effc"/>
<path transform="matrix(1,0,0,-1,-35.28,726.12)" stroke-width=".5" stroke-linecap="butt" stroke-miterlimit="4" stroke-linejoin="miter" fill="none" stroke="#00adef" d="M371.591 297.289H332.841V322.289H371.591Z"/>
<path transform="matrix(1,0,0,-1,-35.28,726.12)" d="M360.669 624.556C360.669 620.003 356.177 616.314 350.636 616.314 345.093 616.314 340.601 620.003 340.601 624.556 340.601 629.108 345.093 632.797 350.636 632.797 356.177 632.797 360.669 629.108 360.669 624.556" fill="#ffffff"/>
<path transform="matrix(1,0,0,-1,-35.28,726.12)" stroke-width=".75" stroke-linecap="butt" stroke-miterlimit="4" stroke-linejoin="miter" fill="none" stroke="#231f20" d="M360.669 624.556C360.669 620.003 356.177 616.314 350.636 616.314 345.093 616.314 340.601 620.003 340.601 624.556 340.601 629.108 345.093 632.797 350.636 632.797 356.177 632.797 360.669 629.108 360.669 624.556Z"/>
<path transform="matrix(1,0,0,-1,-35.28,726.12)" d="M324.516 528.783C324.516 524.23 320.025 520.541 314.484 520.541 308.941 520.541 304.449 524.23 304.449 528.783 304.449 533.335 308.941 537.024 314.484 537.024 320.025 537.024 324.516 533.335 324.516 528.783" fill="#ffffff"/>
<path transform="matrix(1,0,0,-1,-35.28,726.12)" stroke-width=".75" stroke-linecap="butt" stroke-miterlimit="4" stroke-linejoin="miter" fill="none" stroke="#231f20" d="M324.516 528.783C324.516 524.23 320.025 520.541 314.484 520.541 308.941 520.541 304.449 524.23 304.449 528.783 304.449 533.335 308.941 537.024 314.484 537.024 320.025 537.024 324.516 533.335 324.516 528.783Z"/>
<path transform="matrix(1,0,0,-1,-35.28,726.12)" d="M283.641 528.783C283.641 524.23 279.15 520.541 273.609 520.541 268.066 520.541 263.574 524.23 263.574 528.783 263.574 533.335 268.066 537.024 273.609 537.024 279.15 537.024 283.641 533.335 283.641 528.783" fill="#ffffff"/>
<path transform="matrix(1,0,0,-1,-35.28,726.12)" stroke-width=".75" stroke-linecap="butt" stroke-miterlimit="4" stroke-linejoin="miter" fill="none" stroke="#231f20" d="M283.641 528.783C283.641 524.23 279.15 520.541 273.609 520.541 268.066 520.541 263.574 524.23 263.574 528.783 263.574 533.335 268.066 537.024 273.609 537.024 279.15 537.024 283.641 533.335 283.641 528.783Z"/>
<path transform="matrix(1,0,0,-1,-35.28,726.12)" stroke-width="1.5" stroke-linecap="butt" stroke-miterlimit="4" stroke-linejoin="miter" fill="none" stroke="#231f20" d="M352.498 354.331H394.998V203.465H366.286V209.978"/>
<path transform="matrix(1,0,0,-1,-35.28,726.12)" d="M366.286 211.989 368.146 207.437 366.286 208.517 364.426 207.437 366.286 211.989" fill="#231f20"/>
<path transform="matrix(1,0,0,-1,-35.28,726.12)" d="M386.392 242.376C386.392 240.718 385.05 239.376 383.392 239.376H236.605C234.948 239.376 233.605 240.718 233.605 242.376V256.084C233.605 257.74 234.948 259.084 236.605 259.084H383.392C385.05 259.084 386.392 257.74 386.392 256.084V242.376" fill="#b1b4b6"/>
<path transform="matrix(1,0,0,-1,-35.28,726.12)" d="M384.142 243.777C384.142 242.118 382.8 240.777 381.142 240.777H234.355C232.698 240.777 231.355 242.118 231.355 243.777V257.485C231.355 259.141 232.698 260.485 234.355 260.485H381.142C382.8 260.485 384.142 259.141 384.142 257.485V243.777" fill="#c6c8ca"/>
<path transform="matrix(1,0,0,-1,-35.28,726.12)" stroke-width=".75" stroke-linecap="butt" stroke-miterlimit="4" stroke-linejoin="miter" fill="none" stroke="#231f20" d="M384.142 243.777C384.142 242.118 382.8 240.777 381.142 240.777H234.355C232.698 240.777 231.355 242.118 231.355 243.777V257.485C231.355 259.141 232.698 260.485 234.355 260.485H381.142C382.8 260.485 384.142 259.141 384.142 257.485V243.777Z"/>
<text fill="#231f20" xml:space="preserve" transform="matrix(1 0 -0 1 -35.28 726.12)" font-size="8" font-family="Helvetica"><tspan y="-585" x="171.104 177.768 182.216 188.88 193.328 195.992">Memory</tspan><tspan y="-500.8968" x="171.2392 176.5752 180.5752 185.0232 189.0232 193.47119 195.69519">Execute</tspan><tspan y="-380.08399" x="171.4904 177.2664 181.7144 185.7144 190.1624 194.6104">Decode</tspan><tspan y="-309.38319" x="170.8 175.688 180.136 182.36 186.36">Fetch</tspan><tspan y="-239.69838" x="170.8 176.136">PC</tspan><tspan y="-621.9416" x="341.7712 345.7712 350.2192 351.9952">valM</tspan></text>
<text fill="#231f20" xml:space="preserve" transform="matrix(1 0 -0 1 -35.28 726.12)" font-size="6" font-family="Helvetica"><tspan y="-609.3461" x="355.761 359.097 362.43299 364.10099 367.43699 369.10499 372.44099 375.77699">data out</tspan><tspan y="-598.22097" x="307.91819 309.91618 313.25218 316.58818">read</tspan><tspan y="-578.8038" x="307.49699 311.82899 313.82698 315.15898 316.82698">write</tspan></text>
<text fill="#231f20" xml:space="preserve" transform="matrix(1 0 -0 1 -35.28 726.12)" font-size="8" font-family="Helvetica"><tspan y="-593.589" x="336.411 342.187 346.635 348.859">Data</tspan><tspan y="-584.589" x="330.415 337.079 341.527 348.191 352.639 355.303">memory</tspan><tspan y="-559.0946" x="323.079 328.415 332.863 337.311 350.33583 356.11183 360.5598 362.7838">AddrData</tspan></text>
<text fill="#231f20" xml:space="preserve" transform="matrix(1 0 -0 1 -35.28 726.12)" font-size="7.5" font-family="Helvetica"><tspan y="-593.2311" x="279.924 286.1715 290.34153 296.58903">Mem.</tspan><tspan y="-585.23086" x="278.04527 281.79527 285.96528 290.13529 292.22029 294.71778 298.8878">control</tspan></text>
<text fill="#231f20" xml:space="preserve" transform="matrix(1 0 -0 1 -35.28 726.12)" font-size="8" font-family="Helvetica"><tspan y="-525.995" x="266.062 271.838 276.286 306.4892 310.4892 314.9372 316.7132">CndvalE</tspan><tspan y="-500.23899" x="267.70683 273.48283">CC</tspan><tspan y="-500.5062" x="307.41004 312.74604 317.19404">ALU</tspan></text>
<text fill="#231f20" xml:space="preserve" transform="matrix(1 0 -0 1 -35.28 726.12)" font-size="7.5" font-family="Helvetica"><tspan y="-507.821" x="378.985 383.9875 388.1575">ALU</tspan><tspan y="-499.82" x="380.02375 382.10874 386.27876 390.44877">fun.</tspan><tspan y="-481.565" x="288.961 293.9635 298.1335">ALU</tspan><tspan y="-473.564" x="293.95976">A</tspan><tspan y="-481.565" x="326.0965 331.099 335.269">ALU</tspan><tspan y="-473.564" x="330.8875">B</tspan></text>
<text fill="#231f20" xml:space="preserve" transform="matrix(1 0 -0 1 -35.28 726.12)" font-size="8" font-family="Helvetica"><tspan y="-427.098" x="356.416 360.416 364.86399 366.63999 375.7584 379.7584 384.2064 385.9824 395.5528 400.0008 404.0008 406.2248 414.72 419.168 423.168 425.392 435.8992 439.8992 442.5632 446.5632 455.808 459.808 462.47203 466.47203">valAvalBdstEdstMsrcAsrcB</tspan><tspan y="-403.554" x="395.552 400 404 406.224">dstE</tspan><tspan y="-403.34599" x="414.5112 418.9592 422.9592 425.1832">dstM</tspan><tspan y="-403.554" x="435.4792 439.4792 442.1432 446.1432 454.75999 458.75999 461.42399 465.42399">srcAsrcB</tspan><tspan y="-378.27479" x="362.17518 367.95118 372.39918 376.84718 378.62318 382.62318 384.84718 389.29518">Register</tspan><tspan y="-369.27479" x="371.95518 374.17918 375.95518 377.73118">file</tspan><tspan y="-357.494" x="418.87757 426.28718 428.95118 430.72718 432.95118 437.39918 439.62318 444.07118 448.51918 452.51918">Write back</tspan></text>
<text fill="#231f20" xml:space="preserve" transform="matrix(1 0 -0 1 -35.28 726.12)" font-size="6" font-family="Helvetica"><tspan y="-386.036" x="368.374 382.492">AB</tspan><tspan y="-366.42024" x="394.0192">E</tspan><tspan y="-381.41725" x="393.5212">M</tspan></text>
<text fill="#231f20" xml:space="preserve" transform="matrix(1 0 -0 1 -35.28 726.12)" font-size="8" font-family="Helvetica"><tspan y="-339.043" x="233.209 234.825 238.665 242.95299 247.24098 255.8162 257.5922 259.8162 264.2642 279.14179 281.8058 299.13859 301.80259 314.72178 318.72178 323.16978 324.94578 345.64179 349.64179 354.08979 355.86579">icodeifunrArBvalCvalP</tspan><tspan y="-312.147" x="346.5994 351.9354">PC</tspan><tspan y="-303.147" x="334.5954 336.3714 340.8194 344.8194 347.4834 351.9314 358.5954 363.0434 367.4914">increment</tspan><tspan y="-312.147" x="263.2298 265.4538 269.9018 273.9018 276.1258 278.7898 283.2378 287.2378 289.4618 291.2378 295.6858">Instruction</tspan><tspan y="-303.147" x="267.2378 273.9018 278.3498 285.0138 289.4618 292.1258">memory</tspan><tspan y="-273.7262" x="274.3482 279.6842">PC</tspan></text>
<path transform="matrix(1,0,0,-1,-35.28,726.12)" stroke-width="1.5" stroke-linecap="butt" stroke-miterlimit="4" stroke-linejoin="miter" fill="none" stroke="#231f20" d="M279.804 260.286V266.134"/>
<path transform="matrix(1,0,0,-1,-35.28,726.12)" d="M279.804 268.286 281.665 263.737 279.804 264.815 277.945 263.737 279.804 268.286" fill="#231f20"/>
<path transform="matrix(1,0,0,-1,-35.28,726.12)" stroke-width=".5" stroke-linecap="butt" stroke-miterlimit="4" stroke-linejoin="miter" fill="none" stroke="#231f20" d="M243.581 227.464V238.158"/>
<path transform="matrix(1,0,0,-1,-35.28,726.12)" d="M243.581 240.312 244.821 237.278 243.581 237.997 242.342 237.278 243.581 240.312" fill="#231f20"/>
<text fill="#231f20" xml:space="preserve" transform="matrix(1 0 -0 1 -35.28 726.12)" font-size="8" font-family="Helvetica"><tspan y="-247.717" x="302.704 308.04">PC</tspan><tspan y="-217.06819" x="231.80722 236.25522 238.03122 242.03122 246.47922 250.92722 318.7608 323.2088 327.9528 332.4008 334.1768 284.52644 288.97444 293.7184 298.1664 299.9424 258.59843 263.04643 268.82243 273.27043 355.8944 360.3424 365.0864 369.5344 371.3104">plcodepValCpValMpCndpValP</tspan></text>
<path transform="matrix(1,0,0,-1,-35.28,726.12)" stroke-width=".75" stroke-linecap="butt" stroke-dasharray=".75,.75" stroke-miterlimit="4" stroke-linejoin="miter" fill="none" stroke="#231f20" d="M268.128 227.148V237.842"/>
<path transform="matrix(1,0,0,-1,-35.28,726.12)" d="M268.128 239.995 269.368 236.961 268.128 237.681 266.889 236.961 268.128 239.995" fill="#231f20"/>
<path transform="matrix(1,0,0,-1,-35.28,726.12)" stroke-width="1.5" stroke-linecap="butt" stroke-miterlimit="4" stroke-linejoin="miter" fill="none" stroke="#231f20" d="M295.833 227.464V238.158"/>
<path transform="matrix(1,0,0,-1,-35.28,726.12)" d="M295.833 240.312 297.693 235.761 295.833 236.84 293.973 235.761 295.833 240.312" fill="#231f20"/>
<path transform="matrix(1,0,0,-1,-35.28,726.12)" stroke-width="1.5" stroke-linecap="butt" stroke-miterlimit="4" stroke-linejoin="miter" fill="none" stroke="#231f20" d="M331.623 227.464V238.158"/>
<path transform="matrix(1,0,0,-1,-35.28,726.12)" d="M331.623 240.312 333.483 235.761 331.623 236.84 329.763 235.761 331.623 240.312" fill="#231f20"/>
<path transform="matrix(1,0,0,-1,-35.28,726.12)" stroke-width="1.5" stroke-linecap="butt" stroke-miterlimit="4" stroke-linejoin="miter" fill="none" stroke="#231f20" d="M366.256 227.464V238.158"/>
<path transform="matrix(1,0,0,-1,-35.28,726.12)" d="M366.256 240.312 368.116 235.761 366.256 236.84 364.396 235.761 366.256 240.312" fill="#231f20"/>
<path transform="matrix(1,0,0,-1,-35.28,726.12)" stroke-width=".75" stroke-linecap="butt" stroke-miterlimit="4" stroke-linejoin="miter" fill="none" stroke="#231f20" d="M279.495 227.253H312.811V212.253H279.495ZM312.812 227.253H349.12904V212.253H312.812ZM349.13 227.253H385.446V212.253H349.13ZM256.969 227.253H279.496V212.253H256.969ZM230.179 227.253H256.969V212.253H230.179Z"/>
<path transform="matrix(1,0,0,-1,-35.28,726.12)" stroke-width=".5" stroke-linecap="butt" stroke-dasharray=".75,.75" stroke-miterlimit="4" stroke-linejoin="miter" fill="none" stroke="#231f20" d="M225.499 644.102V629.604"/>
<path transform="matrix(1,0,0,-1,-35.28,726.12)" d="M225.499 646.255 226.739 643.22 225.499 643.941 224.259 643.22 225.499 646.255" fill="#231f20"/>
<path transform="matrix(1,0,0,-1,-35.28,726.12)" d="M236.405 625.015C236.405 623.358 235.061 622.015 233.405 622.015H215.74C214.083 622.015 212.74 623.358 212.74 625.015V635.279C212.74 636.936 214.083 638.279 215.74 638.279H233.405C235.061 638.279 236.405 636.936 236.405 635.279V625.015" fill="#c6c8ca"/>
<path transform="matrix(1,0,0,-1,-35.28,726.12)" stroke-width=".75" stroke-linecap="butt" stroke-miterlimit="4" stroke-linejoin="miter" fill="none" stroke="#231f20" d="M236.405 625.015C236.405 623.358 235.061 622.015 233.405 622.015H215.74C214.083 622.015 212.74 623.358 212.74 625.015V635.279C212.74 636.936 214.083 638.279 215.74 638.279H233.405C235.061 638.279 236.405 636.936 236.405 635.279V625.015Z"/>
<path transform="matrix(1,0,0,-1,-35.28,726.12)" stroke-width=".75" stroke-linecap="butt" stroke-dasharray=".75,.75" stroke-miterlimit="4" stroke-linejoin="miter" fill="none" stroke="#231f20" d="M231.824 619.968V611.892H333.832V604.594"/>
<path transform="matrix(1,0,0,-1,-35.28,726.12)" d="M231.824 622.121 233.064 619.086 231.824 619.807 230.584 619.086 231.824 622.121" fill="#231f20"/>
<path transform="matrix(1,0,0,-1,-35.28,726.12)" d="M218.524 622.121 219.764 619.086 218.524 619.807 217.284 619.086 218.524 622.121" fill="#231f20"/>
<path transform="matrix(1,0,0,-1,-35.28,726.12)" d="M235.531 654.497C235.531 649.944 231.04 646.255 225.499 646.255 219.956 646.255 215.464 649.944 215.464 654.497 215.464 659.049 219.956 662.738 225.499 662.738 231.04 662.738 235.531 659.049 235.531 654.497" fill="#ffffff"/>
<path transform="matrix(1,0,0,-1,-35.28,726.12)" stroke-width=".5" stroke-linecap="butt" stroke-miterlimit="4" stroke-linejoin="miter" fill="none" stroke="#231f20" d="M235.531 654.497C235.531 649.944 231.04 646.255 225.499 646.255 219.956 646.255 215.464 649.944 215.464 654.497 215.464 659.049 219.956 662.738 225.499 662.738 231.04 662.738 235.531 659.049 235.531 654.497Z"/>
<text fill="#231f20" xml:space="preserve" transform="matrix(1 0 -0 1 -35.28 726.12)" font-size="8" font-family="Helvetica"><tspan y="-628.115" x="218.159 222.159 224.383 228.831">stat</tspan></text>
<text fill="#231f20" xml:space="preserve" transform="matrix(1 0 -0 1 -35.28 726.12)" font-size="6" font-family="Helvetica"><tspan y="-615.52" x="288.61 291.94599 296.94398 300.27998 305.27796 308.61396 311.94996 313.94795 315.94593 319.28193">dmem_error</tspan></text>
<text fill="#231f20" xml:space="preserve" transform="matrix(1 0 -0 1 -35.28 726.12)" font-size="7" font-family="Helvetica"><tspan y="-651.709" x="219.058 223.727 225.673 229.565">Stat</tspan></text>
<text fill="#231f20" xml:space="preserve" transform="matrix(1 0 -0 1 -35.28 726.12)" font-size="6" font-family="Helvetica"><tspan y="-439.78" x="229.314 230.646 233.982 236.982 238.65 240.648 243.984 246.984 250.31999 251.652 252.984">instr_valid</tspan><tspan y="-427.126" x="229.314 230.646 235.644 238.98 243.978 247.314 250.65 252.648 254.646 257.982">imem_error</tspan></text>
<text fill="#00adef" xml:space="preserve" transform="matrix(1 0 -0 1 -35.28 726.12)" font-size="8.9664" font-family="StoneSans"><tspan y="-177.476" x="170.8 175.11284 177.24684 182.58185 187.70166 190.82196 198.23448 203.3812 205.95456 211.10128">Figure4.40</tspan></text>
<text fill="#231f20" xml:space="preserve" transform="matrix(1 0 -0 1 -35.28 726.12)" font-size="8.9664" font-family="StoneSans" font-weight="bold"><tspan y="-177.476" x="224.21733 229.20265 234.06244 241.12796 249.14124 254.68247 259.50639 263.1019 268.69694 276.0225 280.8464 284.44194 292.2131 296.03279 299.5207 303.1162 308.41535 312.7013 316.1892 321.48835 325.08387 329.9885">SEQ+hardwarestructure.</tspan></text>
<text fill="#231f20" xml:space="preserve" transform="matrix(1 0 -0 1 -35.28 726.12)" font-size="8.9664" font-family="StoneSans"><tspan y="-177.476" x="335.4267 340.08924 345.33457 347.46858 350.12263 353.21604 355.35005 360.59538 368.79695 371.89036 377.13569 384.5482 389.36317 398.36274 402.67558 407.81333 415.82929 421.18223 426.30204 429.39546 433.87867 436.97209 439.10609 444.24385 452.3557 455.00978 458.13008 463.26783 474.15034 477.24375 482.48908 489.90159 494.44755 499.69288 507.89445 513.03219">ShiftingthePCcomputationfromtheendof</tspan><tspan y="-166.51816" x="170.8009 173.89432 179.13967 186.25899 190.57183 192.70583 197.84357 202.1564 209.00675 213.31958 217.75795 222.07079 224.20479 231.32411 234.41753 242.12863 245.22205 250.46739 257.5867 262.92173 267.46769 272.8027 274.9367 280.18205 285.42738 287.56138 292.8067 300.7151 308.73106 313.21424 317.4912 322.03718 328.09846 330.23246 335.89924 343.9152 349.05296 352.17326 359.29258 362.7805 367.9003 370.0343 373.12773 377.6109 382.94593 385.07994 392.19926 394.8533 399.99107 405.68473 411.03767 413.17167 418.5246 423.07057 425.20457 427.33857 432.5839 434.7179 439.96324 445.29826">theclockcycletothebeginningmakesitmoresuitableforpipelining.</tspan></text>
</g>
</svg>
