<svg xmlns="http://www.w3.org/2000/svg" xmlns:xlink="http://www.w3.org/1999/xlink" version="1.1" width="532.80007" height="664.92" viewBox="0 0 532.80007 664.92">
<defs>
<clipPath id="clip_3336">
<path transform="matrix(1,0,0,-1,-35.28,726.12)" d="M35.28 61.2H568.08V726.12H35.28Z" fill-rule="evenodd"/>
</clipPath>
</defs>
<g clip-path="url(#clip_3336)">
<text xml:space="preserve" transform="matrix(1 0 -0 1 -35.28 726.12)" font-size="9.4645" font-family="StoneSans" font-weight="bold"><tspan y="-681.875" x="87.1139 92.546527 97.97915">456</tspan></text>
<text xml:space="preserve" transform="matrix(1 0 -0 1 -35.28 726.12)" font-size="8.4682" font-family="StoneSans"><tspan y="-681.875" x="116.115 121.90725 126.861148 131.09525 136.15076 139.07228 143.36566 148.74297 162.07192 166.61934 169.56627 174.41855 178.49176 182.78514 186.07927 189.3734 194.22568 199.60298 204.78553 207.58003 211.65325 216.60715 218.62258 221.5441 225.83748 229.91069 232.83222 237.66756 240.61449">Chapter4ProcessorArchitecture</tspan></text>
<text xml:space="preserve" transform="matrix(1 0 -0 1 -35.28 726.12)" font-size="9.9626" font-family="TimesTen"><tspan y="-655.623" x="170.8 173.56961 181.80469 187.34389 190.1135 195.6527 200.63399 203.4036 206.1732 211.7124 219.38957 223.26503 228.24633 233.22762 235.99723 239.87268 243.19023 248.17153 254.74286 264.14756 269.3341 277.63298 285.86808 289.1856 294.72483 302.402 307.94123 312.92253 317.9038 323.91725 328.34065 331.11024 336.64945 341.07286 349.30796 353.55204 358.53334 362.95674 365.72633 370.339 375.57734 378.89488 384.43409 387.20368 393.77503 397.09257 402.63179 406.50724 413.70024 418.68153 422.55699 428.0962 433.07749 441.3126 446.29389 451.27519 454.04478 459.58399 467.26118 471.68458 476.66587 484.90098 488.2185 493.75773 498.739 506.97413 512.5133">inpipelineregisterM.Onthenextclockcycle,thisforwardedvaluecanthenbe</tspan><tspan y="-643.66787" x="170.8 177.993 181.86846 184.63806 187.95561 191.27317 196.25446 204.2843 207.60186 215.6317 223.93054 228.91184 237.21068 242.74988 246.62534 250.69007 255.67136 261.9179 267.45713 270.2267 276.59284 279.91038 284.89167 289.31507 294.85429 300.3935 303.1631 308.7023 314.24153 321.71348 324.48307 330.84919 336.3884 341.9276 347.46684 354.65983 362.6897 367.671">writtentomemory.Thistechniqueisknownas</tspan></text>
<text xml:space="preserve" transform="matrix(1 0 -0 1 -35.28 726.12)" font-size="9.9626" font-family="TimesTen" font-style="italic"><tspan y="-643.66787" x="374.03904 376.80863 382.34785 387.32914 395.359 398.67655 404.21577 408.09123 415.2842 420.2655 423.96165 429.50086 432.27046 437.80967">loadforwarding</tspan></text>
<text xml:space="preserve" transform="matrix(1 0 -0 1 -35.28 726.12)" font-size="9.9626" font-family="TimesTen"><tspan y="-643.66787" x="443.11073">.</tspan><tspan y="-631.7127" x="188.73267 196.48357 202.02277 205.34032 213.97789 217.29544 222.83464 227.81594 234.78977 238.10732 243.64652 252.28409 256.15956 261.14085 265.56425 271.10346 276.64268 285.83818 290.81947 295.80076 300.78205 309.0809 314.62013 317.3897 326.02729 329.90275 332.67234 335.44194 340.98115 345.96244 353.49418 362.13175 367.11305 372.65226 381.84776 386.82905 394.36079 397.13038 406.32588 409.6434 415.18263 423.8202 428.2436 433.7828 439.32203 447.9596 451.83506 456.81636 462.35557 467.89479 472.87608 478.41529 482.83869 491.47627 496.45756 501.99678 507.53599 512.5173">Notethatthesecondexample(lines4and5)inthecodesequenceabove</tspan><tspan y="-619.75759" x="170.79999 175.22339 180.20468 185.74388 191.28308 196.82228 202.73609 211.03493 216.01622 221.55542 229.13297 234.67217 238.54763 246.12517 251.66437 257.5782 260.34779 265.887 270.8683 279.00376 282.3213 287.8605 291.73597 298.92897 303.91026 307.7857 313.32493 316.0945 321.63374 326.4357 331.5226 337.76918 343.30839 350.88594 355.86723 360.8485 363.6181 369.15733 376.73487 379.50447 385.04368 390.02497 395.56419 400.54548 408.68095 414.22016 421.7977 425.11524 430.65446">cannotmakeuseofloadforwarding.Thevalueloadedbythe</tspan></text>
<text xml:space="preserve" transform="matrix(1 0 -0 1 -35.28 726.12)" font-size="9.9626" font-family="ZztexMono"><tspan y="-619.75759" x="438.23704 443.4674 448.69779 453.92817">popl</tspan></text>
<text xml:space="preserve" transform="matrix(1 0 -0 1 -35.28 726.12)" font-size="9.9626" font-family="TimesTen"><tspan y="-619.75759" x="461.75474 464.52433 470.06355 473.939 477.25654 481.132 486.6712 491.0946 494.41215 497.18174 502.72096 510.8564 513.62606">instructionis</tspan><tspan y="-607.8024" x="170.79901 176.33821 180.21367 185.19496 193.3314 198.3127 204.7854 210.3246 215.3059 219.18135 225.09615 230.63535 236.55014 239.86769 245.40689 252.98543 257.96675 263.50596 269.04518 272.92063 277.90193 281.77738 288.2501 292.6735 298.2127 306.51158 312.05079 317.59 320.90754 325.88883 329.20637 331.97596 337.51518 345.65165 351.19087 358.7694 362.08695 367.62617 375.2047 380.74394 385.72523 390.7065 396.6213 399.3909 404.9301 408.80558 412.1231 415.99858 421.53779 425.96119 429.27873 432.0483 437.58753 443.12675 448.24156 453.22285 458.76206 466.89854 470.21607 475.75529 478.52488 484.9976 489.97889 494.96018 497.72978 503.26899 510.84754 513.6171">usedaspartoftheaddresscomputationbythenextinstruction,andthisvalueis</tspan><tspan y="-595.8473" x="170.79901 174.67447 179.65576 185.19496 190.73416 193.50377 197.37923 202.36052 210.39037 213.15998 221.18982 224.50737 230.04657 237.51851 242.4998 247.4811 252.46239 256.88578 262.425 265.74253 273.21449 277.08995 280.40748 285.38877 290.37007 297.842 301.71748 306.69877 310.0163 315.5555 320.5368 326.90293 330.22047 335.75968 340.74098 348.77085 352.08839 357.6276 365.09956 373.3984 378.3797 386.67857 392.21778 396.09324 403.5652 407.44065 410.75819 415.73948 420.72077 425.33345">requiredintheexecutestageratherthanthememorystage.</tspan><tspan y="-577.9146" x="178.76909 187.11775 194.70925 204.67185 208.5473 211.31691 214.63446 222.03467 229.43488 232.20449 237.74369 242.72498 245.49459 252.3369 255.65445 261.19367 265.06913 273.36799 278.9072 281.6768 289.077 294.6162 299.5975 303.47297 307.89637 311.77183 314.5414 320.08064 322.85023 328.38945 335.78965 339.10719 344.6464 352.0466 357.58583 362.5671 365.88465 370.86595 375.28935 378.60688 381.37648 386.91569 394.8738 399.2972 404.83644 410.37565 415.91487 418.68446 422.00199 424.77159 430.3108 438.26893 441.58647 447.12568 453.42005 460.82026 463.58985 469.12907 474.11036 479.64958 482.41917 487.95838 491.83384 499.23405 504.77326 509.75456 514.1779">A.Writealogicformuladescribingthedetectionconditionforaload/usehaz-</tspan><tspan y="-565.9595" x="194.70925 199.69054 203.566 209.1052 214.96918 218.84464 221.61425 229.91309 232.6827 235.4523 240.4336 247.50605 250.8236 259.55979 262.87733 268.41654 276.59483 282.13404 287.67326 295.85154 300.83283 303.60243 308.5837 313.565 322.3012 325.0708 333.807 339.52555 342.29515 347.27644 352.81565 356.6911 364.8694 369.85069 372.34135 377.32264 382.30393 388.1679 393.1492 398.1305 402.5539 407.5352 413.0744 419.58894 422.90647 428.44569 433.42698 439.9415 442.7111 449.22563 456.4186 459.1882 461.9578 467.92439 473.4636 479.0028 485.51734 489.94075 494.92204 500.46125 504.3367 512.515">ard,similartotheonegiveninFigure4.64,exceptthatitwillnotcausea</tspan><tspan y="-554.00436" x="194.70925 198.5847 201.90225 206.88355 209.65316 214.9134 217.68302 225.71286 230.13626 235.11756 238.99301 243.9743 250.34041 257.53343 263.07264 268.05393 271.92939 279.40135 282.17094 287.71015 292.69145 300.7213 304.03886 309.57807 313.45353 320.6465 325.6278 329.50328 335.04249 337.81208 343.3513 350.82325 355.24665 360.22795 368.2578 373.79704 381.26899 386.8082 390.68367 395.66496 401.20417">stallincaseswhereloadforwardingcanbeused.</tspan><tspan y="-538.0632" x="178.76909 185.22486 194.70925 200.9558 206.495 214.88948 220.42868 223.19829">B.The&#xfb01;le</tspan></text>
<text xml:space="preserve" transform="matrix(1 0 -0 1 -35.28 726.12)" font-size="9.9626" font-family="ZztexMono"><tspan y="-538.0632" x="231.59378 236.82415 242.0545 247.28487 252.51523 257.7456 262.97599 268.20637 273.43675 278.6671 283.8975">pipe-lf.hcl</tspan></text>
<text xml:space="preserve" transform="matrix(1 0 -0 1 -35.28 726.12)" font-size="9.9626" font-family="TimesTen"><tspan y="-538.0632" x="292.542 296.9654 302.5046 308.04383 311.36137 316.34266 319.11225 324.65147 331.9401 340.33457 348.63343 354.17265 359.71186 362.48146 368.02067 373.00196 381.95536 386.93666 391.91795 395.7934 399.66886 402.43846 407.97767 416.93006 422.46928 429.19999 432.51753 438.05674 446.4512 450.8746 456.41383 461.95304 465.27058 469.14604 474.68525 480.868 483.6376 489.17683 494.1581 496.9277 504.76429 508.08183 513.62106">containsamodi&#xfb01;edversionofthecontrollogicfor</tspan><tspan y="-526.10806" x="194.70926 200.7964 204.67186 210.759 217.952 223.64163 227.51709 234.03363 238.45703 243.99623 249.53543 252.85298 257.8343 260.60389 266.1431 273.21757 276.5351 282.0743 290.2546 295.79383 300.77513 306.31434 311.85356 314.62315 317.94068 320.71028 326.24949 334.9877 340.52693 347.04347 355.22377 359.0992 361.8688 366.8501 372.3893 377.3706">PIPE.Itcontainsthede&#xfb01;nitionofasignal</tspan></text>
<text xml:space="preserve" transform="matrix(1 0 -0 1 -35.28 726.12)" font-size="9.9626" font-family="StoneSans"><tspan y="-526.10806" x="383.34016 388.39118 393.37248 398.25416 403.23545 405.60655">e_valA</tspan></text>
<text xml:space="preserve" transform="matrix(1 0 -0 1 -35.28 726.12)" font-size="9.9626" font-family="TimesTen"><tspan y="-526.10806" x="414.90367 418.2212 426.9594 429.729 438.02787 443.56709 446.33668 451.31797 459.61683 464.5981 470.13734 476.65388 479.9714 485.51063 493.69093 499.23014 501.99974 507.53895 511.96235">toimplementtheblock</tspan><tspan y="-514.1529" x="194.70928 197.47888 202.46018 207.99938 212.98067 215.75028 220.73157 228.3918 233.3731 239.46024 246.65323 254.31346 261.55628 268.6586 271.4282 279.08845 284.80699 287.57658 292.55787 298.09709 301.97254 309.07487 314.05616 316.5468 321.5281 326.5094 331.1211 334.99656 340.43513 345.4164 348.186 352.06147 359.7217 365.26094 370.24223 376.2387 379.55625 385.09547 392.19779 396.6212 402.1604 407.69963 413.23884 416.00843 419.32597 422.09556 427.63478 433.17399 439.17048 442.488 448.02723 454.0237 461.12605 463.89564 469.43486 474.41615 479.95536 482.72496 488.26417 492.13963 499.24195 504.78117 509.76246 514.18588">labeled&#x201c;FwdA&#x201d;inFigure4.69.Italsohastheconditionsforaload/usehaz-</tspan><tspan y="-502.19779" x="194.70928 199.69057 203.56603 211.4056 214.1752 222.01477 225.33232 230.87152 238.15319 243.69239 246.46199 252.00119 256.98249 259.75209 262.52168 268.06089 275.34254 279.76594 285.30516 290.84437 294.1619 298.03736 303.57658 308.6465 311.4161 316.95533 321.9366 324.7062 331.42997 335.30543 340.2867 345.9046 349.22215 357.0617 361.4851 366.4664 370.34187 375.48258 380.31147 385.29277 390.83198 398.67155 402.547 410.38658 413.7041 419.24333 426.52497 432.06419 434.83378 440.373 445.35429 448.12388 450.89347 456.43269 463.71434 468.13774 473.67695 479.21617 482.5337 486.40916 491.94837 497.0183 499.7879 505.32713 510.3084 513.078">ardinthepipelinecontrollogicsettozero,andsothepipelinecontrollogic</tspan><tspan y="-490.24269" x="194.70928 201.90227 204.67188 207.44149 212.80735 218.34654 223.88574 229.79955 235.33875 240.32004 243.63759 248.61888 253.04228 258.9561 263.93739 269.4766 277.05415 280.37168 285.9109 289.78636 298.0852 304.55693 310.09614 316.00993 318.7795 324.31874 329.30003 334.83924 337.60884 343.14805 347.0235 354.60105 360.14027 365.12156 369.54496 374.52626 378.4017 383.94093 387.26844 392.35536 401.76005 407.29927 412.83848 415.60807 418.9256 426.50315 429.82069 435.3599 438.1295 444.6012 452.90007 460.09306 469.33436 474.87358 479.85487 483.73033 488.15373 492.02919 494.79878 500.33799 503.65553 506.4251 511.96434">willnotdetectanyformsofload/usehazards.ModifythisHCLdescription</tspan><tspan y="-478.28758" x="194.70928 198.02683 205.77573 208.54534 216.84418 222.38338 225.15299 230.13428 238.43312 243.41442 248.95362 254.48087 257.25047 262.78968 267.77098 275.5199 278.83744 284.37666 288.2521 295.4451 300.4264 304.30186 309.84107 312.61067 318.14988 322.95185 327.65223 333.19145 338.17274 345.36375 348.68128 354.2205 361.4115 364.1811 369.16239 376.91133 385.21018 390.19148 393.509 398.4903 402.36576 405.13536 410.11665 415.09596 418.41349 423.9527 430.03788 435.5771 438.34669 442.22215 447.20344 451.62684 454.94438 457.71397 463.25318 468.7924 474.87757 480.41679 488.1657 493.70494 499.24415 508.64686 511.9644">toimplementloadforwarding.Seethelabmaterialfordirectionsonhowto</tspan><tspan y="-466.33247" x="194.70928 199.69057 204.67186 210.21106 215.19235 219.06781 224.0491 227.36666 234.8386 242.31053 246.18599 248.9556 257.25447 262.79368 265.56327 270.54457 273.8621 279.4013 285.76744 289.08497 294.62419 300.9903 305.9716 311.5108 317.05003 323.41615 327.2916 332.8308 335.6004 341.13963 344.45716 347.22676 352.76597 360.79585 365.77714 371.31636 379.34623 384.88545 390.42466 400.1083 403.42585 411.45573 414.77326 419.75456 423.63 429.4382 432.2078 435.52534">generateasimulatorforyoursolutionandhowtotestit.</tspan></text>
<text fill="#00adef" xml:space="preserve" transform="matrix(1 0 -0 1 -35.28 726.12)" font-size="9.4645" font-family="StoneSans" font-weight="bold"><tspan y="-446.238" x="170.8 176.23262 178.94893 184.38155">4.57</tspan></text>
<text fill="#00adef" xml:space="preserve" transform="matrix(1 0 -0 1 -35.28 726.12)" font-size="9.9626" font-family="ZapfDingbats"><tspan y="-446.238" x="198.781 206.63153 214.48206">&#x25c6;&#x25c6;&#x25c6;</tspan></text>
<text fill="#231f20" xml:space="preserve" transform="matrix(1 0 -0 1 -35.28 726.12)" font-size="9.9626" font-family="TimesTen"><tspan y="-434.2829" x="170.80005 179.09889 184.63809 191.6966 197.2358 200.0054 205.5446 210.5259 213.2955 216.06511 221.60431 226.5856 235.30785 240.84705 245.82834 249.7038 252.4734 257.4547 266.17698 268.94657 276.00508 284.1694 289.70863 292.4782 298.9788 304.518 310.05723 313.93269 318.91398 323.89527 326.66487 329.43446 333.3099 336.62745 339.39704 347.00349 349.77308 358.49534 361.81288 367.35209 372.33338 378.83396 386.02696 394.19129 399.7305 404.7118 409.69309 417.85743 421.17497 428.36796 437.0902 444.2832 448.15867 450.92826 454.2458 462.41014 467.94935 473.48857 477.364 480.68156 487.74006 491.0576 496.5968 503.6553 506.97285 512.512">Ourpipelineddesignisabitunrealisticinthatwehavetwowriteportsforthe</tspan><tspan y="-422.3278" x="170.80005 174.6755 179.6568 184.63809 187.4077 191.28316 194.60071 199.582 205.69705 211.23625 214.00586 218.61853 223.39858 228.93778 234.47698 240.03412 245.57332 251.11252 253.88213 261.10304 264.42057 269.95979">register&#xfb01;le,butonlythe</tspan></text>
<text fill="#231f20" xml:space="preserve" transform="matrix(1 0 -0 1 -35.28 726.12)" font-size="9.9626" font-family="ZztexMono"><tspan y="-422.3278" x="277.1797 282.41007 287.64045 292.87083">popl</tspan></text>
<text fill="#231f20" xml:space="preserve" transform="matrix(1 0 -0 1 -35.28 726.12)" font-size="9.9626" font-family="TimesTen"><tspan y="-422.3278" x="300.34074 303.11033 308.64955 312.525 315.84254 319.718 325.2572 329.6806 332.99815 335.76774 341.30696 349.08576 352.9612 357.9425 363.48173 369.02095 371.79054 375.666 380.64729 386.76234 390.07987 397.27287 405.05168 408.92713 411.69673 419.99559 425.5348 428.30439 431.62193 436.6032 442.14244 447.12373 452.66294 458.20216 464.3172 471.5102 475.38566 478.15525 481.47279 486.45408 492.56913 495.88667 503.66548 506.983 512.5222">instructionrequirestwosimultaneouswritestothe</tspan><tspan y="-410.37269" x="170.80004 174.67549 179.65679 184.63808 187.40769 191.28314 194.6007 199.58199 205.55558 211.09477 213.86438 218.47705 223.06583 229.31238 234.85158 241.931 247.4702 250.78775 256.32698 261.30827 267.28184 270.05143 275.59065 279.4661 282.78364 286.6591 292.1983 296.6217 299.93925 302.70884 308.24806 313.78727 319.76084 324.18424 329.72346 335.26268 338.03227 345.6696 348.98713 354.52635 359.50764 363.3831 368.36439 371.68193 377.22114 381.0966 388.176 393.7152 397.59068 404.67008 411.74949 415.62495 418.39454 423.93376 428.91505 431.68464 438.76405 445.95704 449.8325 452.60209 455.91963 462.99903 468.53825 474.07746 477.9529 481.27046 485.93794 489.8134 495.3526 500.3339 504.20936 506.97895 512.5181">register&#xfb01;le.Theotherinstructionscouldthereforeuseasinglewriteport,sharing</tspan><tspan y="-398.41758" x="170.80004 174.11759 179.65679 182.42639 188.10408 191.42163 196.96083 202.63852 209.83152 213.70697 216.47658 219.79413 222.56374 228.10294">thisforwriting</tspan></text>
<text fill="#231f20" xml:space="preserve" transform="matrix(1 0 -0 1 -35.28 726.12)" font-size="9.9626" font-family="StoneSans"><tspan y="-398.41758" x="234.88944 239.7711 244.7524 247.12349">valE</tspan></text>
<text fill="#231f20" xml:space="preserve" transform="matrix(1 0 -0 1 -35.28 726.12)" font-size="9.9626" font-family="TimesTen"><tspan y="-398.41758" x="253.87715 258.85847 264.39768">and</tspan></text>
<text fill="#231f20" xml:space="preserve" transform="matrix(1 0 -0 1 -35.28 726.12)" font-size="9.9626" font-family="StoneSans"><tspan y="-398.41758" x="271.74009 276.62178 281.60307 283.97416">valM</tspan></text>
<text fill="#231f20" xml:space="preserve" transform="matrix(1 0 -0 1 -35.28 726.12)" font-size="9.9626" font-family="TimesTen"><tspan y="-398.41758" x="293.22047 297.51338 303.75993 309.29914 316.08268 319.4002 324.93943 327.709 330.4786 336.01783 343.21083 345.9804 351.51963 358.30317 363.84239 368.82368 374.36289 378.23835 385.02189 388.89735 394.43656 399.97578 407.16877 412.84648 419.63 427.92887 433.46809 439.0073 441.7769 447.3161 452.2974 459.63887 464.62016 469.60145 473.4769 477.35237 480.12196 485.66117 493.00263 498.54185 503.66163 506.97917 512.5184">.Thefollowing&#xfb01;gureshowsamodi&#xfb01;edversionofthe</tspan><tspan y="-386.46247" x="170.80103 177.99402 181.86948 184.63909 187.95664 192.93793 196.25548 201.79468 206.77597 211.19937 219.22724 221.99684 227.53604 232.51734 235.28694 239.53102 244.51033 247.27994 255.3078 262.5008 268.04 270.8096 275.233 283.26087 290.45387 297.9238 306.22267 311.20396 315.0794 320.0607 327.53065 330.84819 336.3874 343.85734 351.05033 354.92579 357.69538 361.0129 365.9942 369.31175 374.85096 379.83226 384.25566 392.2835 396.15898 401.14027 406.12156 408.89115 412.7666 416.08415 421.06544 427.42955 431.305 439.60386 445.96797">write-backlogic,inwhichwemergethewrite-backregisterIDs(</tspan></text>
<text fill="#231f20" xml:space="preserve" transform="matrix(1 0 -0 1 -35.28 726.12)" font-size="9.9626" font-family="StoneSans"><tspan y="-386.46247" x="449.84349 459.0788 464.0601 469.98783 473.86329 477.30039">W_dstE</tspan></text>
<text fill="#231f20" xml:space="preserve" transform="matrix(1 0 -0 1 -35.28 726.12)" font-size="9.9626" font-family="TimesTen"><tspan y="-386.46247" x="484.74049 489.72178 495.261">and</tspan></text>
<text fill="#231f20" xml:space="preserve" transform="matrix(1 0 -0 1 -35.28 726.12)" font-size="9.9626" font-family="StoneSans"><tspan y="-386.46247" x="503.28886 512.5242">W_</tspan><tspan y="-374.50736" x="170.80301 176.73076 180.60622 184.04332">dstM</tspan></text>
<text fill="#231f20" xml:space="preserve" transform="matrix(1 0 -0 1 -35.28 726.12)" font-size="9.9626" font-family="TimesTen"><tspan y="-374.50736" x="193.2886 199.1267 201.8963 207.4355 210.75305 218.25489 225.1988 229.07427 231.84387 237.38307 242.36437 245.13397 252.0779 255.95336 258.72297 263.70426 269.24348 274.22477">)intoasinglesignal</tspan></text>
<text fill="#231f20" xml:space="preserve" transform="matrix(1 0 -0 1 -35.28 726.12)" font-size="9.9626" font-family="StoneSans"><tspan y="-374.50736" x="278.958 286.71888 291.70018 297.6279 301.50337 304.94047">w_dstE</tspan></text>
<text fill="#231f20" xml:space="preserve" transform="matrix(1 0 -0 1 -35.28 726.12)" font-size="9.9626" font-family="TimesTen"><tspan y="-374.50736" x="311.85453 316.83583 322.37504 329.8769 333.19444 338.73365 345.67759 352.87059 356.74604 359.51564 362.83317 367.81446 371.132 376.6712 381.6525 386.0759 393.57777 398.55906 403.54035 406.30995 411.84916 416.83045 422.66856">andthewrite-backvalues(</tspan></text>
<text fill="#231f20" xml:space="preserve" transform="matrix(1 0 -0 1 -35.28 726.12)" font-size="9.9626" font-family="StoneSans"><tspan y="-374.50736" x="426.54597 435.78129 440.76258 445.64427 450.62556 452.99665">W_valE</tspan></text>
<text fill="#231f20" xml:space="preserve" transform="matrix(1 0 -0 1 -35.28 726.12)" font-size="9.9626" font-family="TimesTen"><tspan y="-374.50736" x="459.9107 464.892 470.4312">and</tspan></text>
<text fill="#231f20" xml:space="preserve" transform="matrix(1 0 -0 1 -35.28 726.12)" font-size="9.9626" font-family="StoneSans"><tspan y="-374.50736" x="477.93305 487.16838 492.14967 497.03135 502.01264 504.38374">W_valM</tspan></text>
<text fill="#231f20" xml:space="preserve" transform="matrix(1 0 -0 1 -35.28 726.12)" font-size="9.9626" font-family="TimesTen"><tspan y="-374.50736" x="513.629">)</tspan><tspan y="-362.55226" x="170.80103 173.57064 179.10984 182.42739 190.45723 197.92917 201.80463 204.57424 210.11344 215.09473 217.86434 225.33628 229.21173 231.98134 236.96263 242.50183 247.48313">intoasinglesignal</tspan></text>
<text fill="#231f20" xml:space="preserve" transform="matrix(1 0 -0 1 -35.28 726.12)" font-size="9.9626" font-family="StoneSans"><tspan y="-362.55226" x="252.74539 260.50627 265.48756 270.36924 275.35054 277.72163">w_valE</tspan></text>
<text fill="#231f20" xml:space="preserve" transform="matrix(1 0 -0 1 -35.28 726.12)" font-size="9.9626" font-family="TimesTen"><tspan y="-362.55226" x="282.67207">:</tspan></text>
<path transform="matrix(1,0,0,-1,-35.28,726.12)" d="M451.374 276.167H430.333V290.522H451.374ZM430.333 276.167" fill="#ffffff"/>
<path transform="matrix(1,0,0,-1,-35.28,726.12)" stroke-width=".98" stroke-linecap="butt" stroke-miterlimit="4" stroke-linejoin="miter" fill="none" stroke="#231f20" d="M451.374 276.167H430.333V290.522H451.374Z"/>
<path transform="matrix(1,0,0,-1,-35.28,726.12)" d="M305.794 276.167H242.882V290.522H305.794ZM242.882 276.167" fill="#8ed8f8"/>
<path transform="matrix(1,0,0,-1,-35.28,726.12)" stroke-width=".98" stroke-linecap="butt" stroke-miterlimit="4" stroke-linejoin="miter" fill="none" stroke="#231f20" d="M305.794 276.167H242.882V290.522H305.794Z"/>
<path transform="matrix(1,0,0,-1,-35.28,726.12)" d="M200.405 276.167H179.487V290.522H200.405ZM179.487 276.167" fill="#8ed8f8"/>
<path transform="matrix(1,0,0,-1,-35.28,726.12)" stroke-width=".98" stroke-linecap="butt" stroke-miterlimit="4" stroke-linejoin="miter" fill="none" stroke="#231f20" d="M200.405 276.167H179.487V290.522H200.405Z"/>
<path transform="matrix(1,0,0,-1,-35.28,726.12)" d="M242.912 276.167H220.892V290.522H242.912ZM220.892 276.167" fill="#ffffff"/>
<path transform="matrix(1,0,0,-1,-35.28,726.12)" stroke-width=".98" stroke-linecap="butt" stroke-miterlimit="4" stroke-linejoin="miter" fill="none" stroke="#231f20" d="M242.912 276.167H220.892V290.522H242.912Z"/>
<path transform="matrix(1,0,0,-1,-35.28,726.12)" d="M409.516 276.167H388.598V290.522H409.516ZM388.598 276.167" fill="#8ed8f8"/>
<path transform="matrix(1,0,0,-1,-35.28,726.12)" stroke-width=".98" stroke-linecap="butt" stroke-miterlimit="4" stroke-linejoin="miter" fill="none" stroke="#231f20" d="M409.516 276.167H388.598V290.522H409.516Z"/>
<path transform="matrix(1,0,0,-1,-35.28,726.12)" d="M430.354 276.167H409.53303V290.522H430.354ZM409.533 276.167" fill="#ffffff"/>
<path transform="matrix(1,0,0,-1,-35.28,726.12)" stroke-width=".98" stroke-linecap="butt" stroke-miterlimit="4" stroke-linejoin="miter" fill="none" stroke="#231f20" d="M430.354 276.167H409.53303V290.522H430.354Z"/>
<path transform="matrix(1,0,0,-1,-35.28,726.12)" d="M472.283 276.167H451.352V290.522H472.283 472.152 493.193V276.167H472.152 472.283" fill="#8ed8f8"/>
<path transform="matrix(1,0,0,-1,-35.28,726.12)" stroke-width=".98" stroke-linecap="butt" stroke-miterlimit="4" stroke-linejoin="miter" fill="none" stroke="#231f20" d="M472.283 276.167H451.352V290.522H472.283 472.152 493.193V276.167H472.152 472.283Z"/>
<path transform="matrix(1,0,0,-1,-35.28,726.12)" d="M325.915 276.167H304.874V290.522H325.915 325.784 346.825V276.167H325.784 325.915" fill="#ffffff"/>
<path transform="matrix(1,0,0,-1,-35.28,726.12)" stroke-width=".98" stroke-linecap="butt" stroke-miterlimit="4" stroke-linejoin="miter" fill="none" stroke="#231f20" d="M325.915 276.167H304.874V290.522H325.915 325.784 346.825V276.167H325.784 325.915Z"/>
<path transform="matrix(1,0,0,-1,-35.28,726.12)" d="M367.735 276.167H346.694V290.522H367.735 367.605 388.645V276.167H367.605 367.735" fill="#ffffff"/>
<path transform="matrix(1,0,0,-1,-35.28,726.12)" stroke-width=".98" stroke-linecap="butt" stroke-miterlimit="4" stroke-linejoin="miter" fill="none" stroke="#231f20" d="M367.735 276.167H346.694V290.522H367.735 367.605 388.645V276.167H367.605 367.735Z"/>
<path transform="matrix(1,0,0,-1,-35.28,726.12)" d="M364.878 300.788C364.878 299.165 363.561 297.848 361.938 297.848H332.864C331.24 297.848 329.924 299.165 329.924 300.788V314.766C329.924 316.391 331.24 317.706 332.864 317.706H361.938C363.561 317.706 364.878 316.391 364.878 314.766V300.788" fill="#b1b4b6"/>
<path transform="matrix(1,0,0,-1,-35.28,726.12)" d="M362.673 302.16C362.673 300.537 361.356 299.22 359.733 299.22H330.659C329.035 299.22 328.189 301.048 328.189 302.671V316.649C328.189 318.274 329.035 319.078 330.659 319.078H359.733C361.356 319.078 362.673 317.763 362.673 316.138V302.16" fill="#c6c8ca"/>
<path transform="matrix(1,0,0,-1,-35.28,726.12)" stroke-width=".735" stroke-linecap="butt" stroke-miterlimit="4" stroke-linejoin="miter" fill="none" stroke="#231f20" d="M362.673 302.16C362.673 300.537 361.356 299.22 359.733 299.22H330.659C329.035 299.22 328.189 301.048 328.189 302.671V316.649C328.189 318.274 329.035 319.078 330.659 319.078H359.733C361.356 319.078 362.673 317.763 362.673 316.138V302.16Z"/>
<path transform="matrix(1,0,0,-1,-35.28,726.12)" d="M449.445 320.709C449.445 319.086 448.128 317.769 446.505 317.769H417.431C415.807 317.769 414.491 319.086 414.491 320.709V334.687C414.491 336.312 415.807 337.627 417.431 337.627H446.505C448.128 337.627 449.445 336.312 449.445 334.687V320.709" fill="#b1b4b6"/>
<path transform="matrix(1,0,0,-1,-35.28,726.12)" d="M447.24 322.081C447.24 320.458 445.923 319.141 444.3 319.141H415.226C413.602 319.141 412.755 320.969 412.755 322.592V336.571C412.755 338.196 413.602 338.999 415.226 338.999H444.3C445.923 338.999 447.24 337.684 447.24 336.059V322.081" fill="#c6c8ca"/>
<path transform="matrix(1,0,0,-1,-35.28,726.12)" stroke-width=".735" stroke-linecap="butt" stroke-miterlimit="4" stroke-linejoin="miter" fill="none" stroke="#231f20" d="M447.24 322.081C447.24 320.458 445.923 319.141 444.3 319.141H415.226C413.602 319.141 412.755 320.969 412.755 322.592V336.571C412.755 338.196 413.602 338.999 415.226 338.999H444.3C445.923 338.999 447.24 337.684 447.24 336.059V322.081Z"/>
<path transform="matrix(1,0,0,-1,-35.28,726.12)" d="M442.372 307.95C442.372 307.004 441.604 306.234 440.657 306.234 439.71 306.234 438.942 307.004 438.942 307.95 438.942 308.895 439.71 309.664 440.657 309.664 441.604 309.664 442.372 308.895 442.372 307.95" fill="#231f20"/>
<path transform="matrix(1,0,0,-1,-35.28,726.12)" stroke-width=".49" stroke-linecap="butt" stroke-miterlimit="4" stroke-linejoin="miter" fill="none" stroke="#231f20" d="M198.61 298.772H231.048V290.279"/>
<path transform="matrix(1,0,0,-1,-35.28,726.12)" d="M196.313 298.772 199.287 297.557 198.581 298.772 199.287 299.987 196.313 298.772" fill="#231f20"/>
<path transform="matrix(1,0,0,-1,-35.28,726.12)" stroke-width=".49" stroke-linecap="butt" stroke-miterlimit="4" stroke-linejoin="miter" fill="none" stroke="#231f20" d="M490.844 345.889H429.819V338.866"/>
<path transform="matrix(1,0,0,-1,-35.28,726.12)" d="M493.141 345.889 490.168 344.674 490.873 345.889 490.168 347.104 493.141 345.889" fill="#231f20"/>
<path transform="matrix(1,0,0,-1,-35.28,726.12)" stroke-width=".49" stroke-linecap="butt" stroke-miterlimit="4" stroke-linejoin="miter" fill="none" stroke="#231f20" d="M420.116 290.721V316.717"/>
<path transform="matrix(1,0,0,-1,-35.28,726.12)" d="M420.116 319.016 418.903 316.042 420.116 316.748 421.331 316.042 420.116 319.016" fill="#231f20"/>
<path transform="matrix(1,0,0,-1,-35.28,726.12)" stroke-width=".49" stroke-linecap="butt" stroke-miterlimit="4" stroke-linejoin="miter" fill="none" stroke="#231f20" d="M440.484 290.721V316.717"/>
<path transform="matrix(1,0,0,-1,-35.28,726.12)" d="M440.484 319.016 439.271 316.042 440.484 316.748 441.699 316.042 440.484 319.016" fill="#231f20"/>
<path transform="matrix(1,0,0,-1,-35.28,726.12)" stroke-width=".49" stroke-linecap="butt" stroke-miterlimit="4" stroke-linejoin="miter" fill="none" stroke="#231f20" d="M440.306 308.005H365.025"/>
<path transform="matrix(1,0,0,-1,-35.28,726.12)" d="M362.727 308.005 365.7 306.791 364.996 308.005 365.7 309.22 362.727 308.005" fill="#231f20"/>
<path transform="matrix(1,0,0,-1,-35.28,726.12)" stroke-width="1.47" stroke-linecap="butt" stroke-miterlimit="4" stroke-linejoin="miter" fill="none" stroke="#231f20" d="M335.013 290.475V296.082"/>
<path transform="matrix(1,0,0,-1,-35.28,726.12)" d="M335.013 298.192 336.835 293.731 335.013 294.79 333.191 293.731 335.013 298.192" fill="#231f20"/>
<path transform="matrix(1,0,0,-1,-35.28,726.12)" stroke-width="1.47" stroke-linecap="butt" stroke-miterlimit="4" stroke-linejoin="miter" fill="none" stroke="#231f20" d="M356.343 290.475V296.082"/>
<path transform="matrix(1,0,0,-1,-35.28,726.12)" d="M356.343 298.192 358.166 293.731 356.343 294.79 354.52 293.731 356.343 298.192" fill="#231f20"/>
<path transform="matrix(1,0,0,-1,-35.28,726.12)" stroke-width="1.47" stroke-linecap="butt" stroke-miterlimit="4" stroke-linejoin="miter" fill="none" stroke="#231f20" d="M490.219 354.354H345.826V319.478"/>
<path transform="matrix(1,0,0,-1,-35.28,726.12)" d="M493.817 354.354 489.356 352.532 490.413 354.354 489.356 356.176 493.817 354.354" fill="#231f20"/>
<path transform="matrix(1,0,0,-1,-35.28,726.12)" d="M224.359 313.638C224.359 312.34 223.306 311.288 222.007 311.288H205.021C203.724 311.288 202.67 312.34 202.67 313.638V324.037C202.67 325.337 203.724 326.389 205.021 326.389H222.007C223.306 326.389 224.359 325.337 224.359 324.037V313.638" fill="#b1b4b6"/>
<path transform="matrix(1,0,0,-1,-35.28,726.12)" stroke-width=".49" stroke-linecap="butt" stroke-miterlimit="4" stroke-linejoin="miter" fill="none" stroke="#231f20" d="M211.544 290.237V310.08"/>
<path transform="matrix(1,0,0,-1,-35.28,726.12)" d="M211.543 312.189 212.758 309.215 211.543 309.921 210.329 309.215 211.543 312.189" fill="#231f20"/>
<path transform="matrix(1,0,0,-1,-35.28,726.12)" stroke-width=".49" stroke-linecap="butt" stroke-miterlimit="4" stroke-linejoin="miter" fill="none" stroke="#231f20" d="M211.544 325.629V332.345"/>
<path transform="matrix(1,0,0,-1,-35.28,726.12)" d="M211.544 334.455 212.759 331.481 211.544 332.187 210.329 331.481 211.544 334.455" fill="#231f20"/>
<path transform="matrix(1,0,0,-1,-35.28,726.12)" d="M222.389 314.736C222.389 313.436 221.334 312.384 220.037 312.384H203.051C201.752 312.384 200.699 313.436 200.699 314.736V325.135C200.699 326.435 201.752 327.487 203.051 327.487H220.037C221.334 327.487 222.389 326.435 222.389 325.135V314.736" fill="#c6c8ca"/>
<path transform="matrix(1,0,0,-1,-35.28,726.12)" stroke-width=".735" stroke-linecap="butt" stroke-miterlimit="4" stroke-linejoin="miter" fill="none" stroke="#231f20" d="M222.389 314.736C222.389 313.436 221.334 312.384 220.037 312.384H203.051C201.752 312.384 200.699 313.436 200.699 314.736V325.135C200.699 326.435 201.752 327.487 203.051 327.487H220.037C221.334 327.487 222.389 326.435 222.389 325.135V314.736Z"/>
<text fill="#231f20" xml:space="preserve" transform="matrix(1 0 -0 1 -35.28 726.12)" font-size="7.84" font-family="Helvetica"><tspan y="-339.341" x="204.571 209.80028 211.9798 216.33884">Stat</tspan></text>
<text fill="#231f20" xml:space="preserve" transform="matrix(1 0 -0 1 -35.28 726.12)" font-size="7.35" font-family="Helvetica"><tspan y="-318.205" x="205.62 209.295 211.3383 215.4249">stat</tspan></text>
<text fill="#ffffff" xml:space="preserve" transform="matrix(1 0 -0 1 -35.28 726.12)" font-size="7.84" font-family="Helvetica"><tspan y="-280.269" x="182.76">W</tspan></text>
<text fill="#231f20" xml:space="preserve" transform="matrix(1 0 -0 1 -35.28 726.12)" font-size="7.84" font-family="Helvetica"><tspan y="-280.269" x="222.84984 224.59032 228.51032 232.86936 237.2284 318.87965 322.79966 327.1587 328.89918 359.05418 362.97419 367.33323 369.0737 411.55476 415.9138 419.8338 422.01335 432.1575 436.51655 440.43656 442.6161">icodevalEvalMdstEdstM</tspan><tspan y="-306.09007" x="337.38285 341.30287 345.6619 347.40238">valE</tspan><tspan y="-326.0107" x="421.7287 426.08775 430.00776 432.1873">dstE</tspan></text>
<text fill="#231f20" xml:space="preserve" transform="matrix(1 0 -0 1 -35.28 726.12)" font-size="5.88" font-family="Helvetica"><tspan y="-352.421" x="495.859 500.10438 503.37367 506.31367 509.58296 510.8883">w_valE</tspan><tspan y="-343.89207" x="495.69496 499.9403 503.2096 506.47889 509.41889 511.05354">w_dstE</tspan><tspan y="-297.12727" x="170.80023 176.35095 179.62024 180.9256 183.8656 187.13489 190.40418">W_icode</tspan></text>
<path transform="matrix(1,0,0,-1,-35.28,726.12)" d="M220.892 276.167H200.312V290.52299H220.892ZM200.312 276.167" fill="#ffffff"/>
<path transform="matrix(1,0,0,-1,-35.28,726.12)" stroke-width=".98" stroke-linecap="butt" stroke-miterlimit="4" stroke-linejoin="miter" fill="none" stroke="#231f20" d="M220.892 276.167H200.312V290.52299H220.892Z"/>
<text fill="#231f20" xml:space="preserve" transform="matrix(1 0 -0 1 -35.28 726.12)" font-size="7.84" font-family="Helvetica"><tspan y="-280.269" x="203.879 207.799 209.97852 214.33756">stat</tspan></text>
<text fill="#231f20" xml:space="preserve" transform="matrix(1 0 -0 1 -35.28 726.12)" font-size="9.9626" font-family="TimesTen"><tspan y="-259.737" x="188.733 194.97956 200.51876 207.99069 210.7603 216.2995 221.28079 224.0504 230.96445 234.282 239.8212 246.1873 251.7265 256.7078 260.58326 263.9008 269.44 273.31547 281.61433 284.3839 289.92314 297.39509 300.71263 306.25184 313.7238 322.02265 327.00395 330.8794 335.8607 340.84199 347.2081 349.9777 356.3438 363.5368 367.41227 370.18186 373.4994 376.81694 381.79823 389.8281 392.5977 400.62757 408.92643 416.11943 425.25514 430.23643 436.60255 439.92008 445.4593 448.22889 450.99848 456.5377 463.73069 467.60615">ThelogicforperformingthemergesiswritteninHCLasfollows:</tspan></text>
<text xml:space="preserve" transform="matrix(1 0 -0 1 -35.28 726.12)" font-size="9.4645" font-family="ZztexMono"><tspan y="-237.193" x="170.8 175.76886 185.70658 190.67543 195.64429 205.582 215.51972 220.48857 225.45743 230.42629 240.364 245.33286 250.30171 255.27057 260.23945 265.2083 270.1772 275.14607 285.0838 290.05268">##SetEportregisterID</tspan><tspan y="-225.23744" x="170.8 175.76886 180.73772 190.67543 195.64429 200.61315 205.582 210.55086 215.51972 225.45743 235.39514">intw_dstE=[</tspan><tspan y="-213.28284" x="210.5509 215.51976 225.45748 230.42633 235.39519 240.36405 245.3329 250.30176 255.27062 265.20835 270.17723 275.1461 280.11497 290.0527 295.02159 299.99046 304.95933">##writingfromvalM</tspan><tspan y="-201.32729" x="210.5509 215.51976 220.48862 225.45748 230.42633 235.39519 245.3329 250.30176 260.23948 265.20835 270.17723 275.1461 280.11497 290.0527 299.99046 304.95933 309.9282 314.89707 319.86595 324.8348 329.80369">W_dstM!=RNONE:W_dstM;</tspan><tspan y="-189.37174" x="210.5509 215.51976 225.45748 230.42633 235.39519 240.36405 245.3329 250.30176 255.27062">1:W_dstE;</tspan><tspan y="-177.41713" x="170.8 175.76886">];</tspan><tspan y="-153.50696" x="170.8 175.76886 185.70658 190.67543 195.64429 205.582 215.51972 220.48857 225.45743 230.42629 240.364 245.33286 250.30171 255.27057 260.23945">##SetEportvalue</tspan><tspan y="-141.5514" x="170.8 175.76886 180.73772 190.67543 195.64429 200.61315 205.582 210.55086 215.51972 225.45743 235.39514">intw_valE=[</tspan><tspan y="-129.5968" x="210.5509 215.51976 220.48862 225.45748 230.42633 235.39519 245.3329 250.30176 260.23948 265.20835 270.17723 275.1461 280.11497 290.0527 299.99046 304.95933 309.9282 314.89707 319.86595 324.8348 329.80369">W_dstM!=RNONE:W_valM;</tspan><tspan y="-117.64124" x="210.5509 215.51976 225.45748 230.42633 235.39519 240.36405 245.3329 250.30176 255.27062">1:W_valE;</tspan><tspan y="-105.68663" x="170.8 175.76886">];</tspan></text>
</g>
</svg>
