<svg xmlns="http://www.w3.org/2000/svg" xmlns:xlink="http://www.w3.org/1999/xlink" version="1.1" width="532.7996" height="664.92" viewBox="0 0 532.7996 664.92">
<defs>
<clipPath id="clip_3319">
<path transform="matrix(1,0,0,-1,-42.7104,726.12)" d="M42.7104 61.2H575.51V726.12H42.7104Z" fill-rule="evenodd"/>
</clipPath>
<clipPath id="clip_3320">
<path transform="matrix(1,0,0,-1,-42.7104,726.12)" d="M479.447 662.357H94.5V415.544H479.447ZM94.5 662.357"/>
</clipPath>
<clipPath id="clip_3321">
<path transform="matrix(1,0,0,-1,-42.7104,726.12)" d="M0 792H612V.030029297H0Z"/>
</clipPath>
</defs>
<g clip-path="url(#clip_3319)">
<text xml:space="preserve" transform="matrix(1 0 -0 1 -42.7104 726.12)" font-size="8.4682" font-family="StoneSans"><tspan y="-681.875" x="328.766 333.16947 337.46284 341.53605 344.45759 346.47303 351.3253 358.70954 363.57029 366.00065 379.3296 383.877 385.89247 390.94798 395.24134 397.25679 399.27223 404.2261 408.51948 415.9884 420.54429 425.40504 432.69615 434.94023 442.51078 447.56629 449.58174 453.8751 461.44566 465.739 470.6929 473.61445 477.84855 480.77009 482.78553 487.6378 492.59169">Section4.5PipelinedY86Implementations</tspan></text>
<text xml:space="preserve" transform="matrix(1 0 -0 1 -42.7104 726.12)" font-size="9.4645" font-family="StoneSans" font-weight="bold"><tspan y="-681.875" x="508.587 514.01968 519.4523">441</tspan></text>
<path transform="matrix(1,0,0,-1,-42.7104,726.12)" d="M125.889 418.544C125.889 416.887 124.546 415.544 122.889 415.544H100.125C98.469 415.544 97.125 416.887 97.125 418.544V657.582C97.125 659.239 98.469 660.582 100.125 660.582H122.889C124.546 660.582 125.889 659.239 125.889 657.582V418.544" fill="#b1b4b6"/>
<path transform="matrix(1,0,0,-1,-42.7104,726.12)" stroke-width=".75" stroke-linecap="butt" stroke-dasharray=".75,.75" stroke-miterlimit="4" stroke-linejoin="miter" fill="none" stroke="#231f20" d="M239.94 549.24H111.247"/>
<path transform="matrix(1,0,0,-1,-42.7104,726.12)" d="M242.092 549.24 239.059 550.48 239.778 549.24 239.059 548.002 242.092 549.24" fill="#231f20"/>
<path transform="matrix(1,0,0,-1,-42.7104,726.12)" d="M123.639 419.945C123.639 418.288 122.296 416.945 120.639 416.945H97.875C96.219 416.945 94.875 418.288 94.875 419.945V658.982C94.875 660.639 96.219 661.982 97.875 661.982H120.639C122.296 661.982 123.639 660.639 123.639 658.982V419.945" fill="#c6c8ca"/>
<g clip-path="url(#clip_3320)">
<g clip-path="url(#clip_3321)">
<path transform="matrix(1,0,0,-1,-42.7104,726.12)" stroke-width=".75" stroke-linecap="butt" stroke-miterlimit="4" stroke-linejoin="miter" fill="none" stroke="#231f20" d="M123.639 419.945C123.639 418.288 122.296 416.945 120.639 416.945H97.875C96.219 416.945 94.875 418.288 94.875 419.945V658.982C94.875 660.639 96.219 661.982 97.875 661.982H120.639C122.296 661.982 123.639 660.639 123.639 658.982V419.945Z"/>
</g>
</g>
<path transform="matrix(1,0,0,-1,-42.7104,726.12)" d="M287.723 630.49H222.527V645.138H287.723ZM222.527 630.49" fill="#8ed8f8"/>
<path transform="matrix(1,0,0,-1,-42.7104,726.12)" stroke-width="1" stroke-linecap="butt" stroke-miterlimit="4" stroke-linejoin="miter" fill="none" stroke="#231f20" d="M287.723 630.49H222.527V645.138H287.723Z"/>
<path transform="matrix(1,0,0,-1,-42.7104,726.12)" d="M179.183 630.49H157.838V645.138H179.183ZM157.838 630.49" fill="#8ed8f8"/>
<path transform="matrix(1,0,0,-1,-42.7104,726.12)" stroke-width="1" stroke-linecap="butt" stroke-miterlimit="4" stroke-linejoin="miter" fill="none" stroke="#231f20" d="M179.183 630.49H157.838V645.138H179.183Z"/>
<path transform="matrix(1,0,0,-1,-42.7104,726.12)" d="M222.558 630.49H199.088V645.138H222.558ZM199.088 630.49" fill="#ffffff"/>
<path transform="matrix(1,0,0,-1,-42.7104,726.12)" stroke-width="1" stroke-linecap="butt" stroke-miterlimit="4" stroke-linejoin="miter" fill="none" stroke="#231f20" d="M222.558 630.49H199.088V645.138H222.558Z"/>
<path transform="matrix(1,0,0,-1,-42.7104,726.12)" d="M393.562 630.49H372.216V645.138H393.562ZM372.216 630.49" fill="#8ed8f8"/>
<path transform="matrix(1,0,0,-1,-42.7104,726.12)" stroke-width="1" stroke-linecap="butt" stroke-miterlimit="4" stroke-linejoin="miter" fill="none" stroke="#231f20" d="M393.562 630.49H372.216V645.138H393.562Z"/>
<path transform="matrix(1,0,0,-1,-42.7104,726.12)" d="M414.937 630.49H393.466V645.138H414.937ZM393.466 630.49" fill="#ffffff"/>
<path transform="matrix(1,0,0,-1,-42.7104,726.12)" stroke-width="1" stroke-linecap="butt" stroke-miterlimit="4" stroke-linejoin="miter" fill="none" stroke="#231f20" d="M414.937 630.49H393.466V645.138H414.937Z"/>
<path transform="matrix(1,0,0,-1,-42.7104,726.12)" d="M199.088 630.49H179.088V645.138H199.088ZM179.088 630.49" fill="#ffffff"/>
<path transform="matrix(1,0,0,-1,-42.7104,726.12)" stroke-width="1" stroke-linecap="butt" stroke-miterlimit="4" stroke-linejoin="miter" fill="none" stroke="#231f20" d="M199.088 630.49H179.088V645.138H199.088Z"/>
<path transform="matrix(1,0,0,-1,-42.7104,726.12)" d="M199.088 593.744H179.088V608.392H199.088ZM179.088 593.744" fill="#ffffff"/>
<path transform="matrix(1,0,0,-1,-42.7104,726.12)" stroke-width="1" stroke-linecap="butt" stroke-miterlimit="4" stroke-linejoin="miter" fill="none" stroke="#231f20" d="M199.088 593.744H179.088V608.392H199.088Z"/>
<path transform="matrix(1,0,0,-1,-42.7104,726.12)" d="M199.088 506.958H179.088V521.606H199.088ZM179.088 506.958" fill="#ffffff"/>
<path transform="matrix(1,0,0,-1,-42.7104,726.12)" stroke-width="1" stroke-linecap="butt" stroke-miterlimit="4" stroke-linejoin="miter" fill="none" stroke="#231f20" d="M199.088 506.958H179.088V521.606H199.088Z"/>
<path transform="matrix(1,0,0,-1,-42.7104,726.12)" d="M199.088 452.661H179.088V467.30903H199.088ZM179.088 452.661" fill="#ffffff"/>
<path transform="matrix(1,0,0,-1,-42.7104,726.12)" stroke-width="1" stroke-linecap="butt" stroke-miterlimit="4" stroke-linejoin="miter" fill="none" stroke="#231f20" d="M199.088 452.661H179.088V467.30903H199.088Z"/>
<path transform="matrix(1,0,0,-1,-42.7104,726.12)" d="M436.274 630.49H414.80299V645.138H436.274ZM414.803 630.49" fill="#ffffff"/>
<path transform="matrix(1,0,0,-1,-42.7104,726.12)" stroke-width="1" stroke-linecap="butt" stroke-miterlimit="4" stroke-linejoin="miter" fill="none" stroke="#231f20" d="M436.274 630.49H414.80299V645.138H436.274Z"/>
<path transform="matrix(1,0,0,-1,-42.7104,726.12)" d="M457.61 630.49H436.139V645.138H457.61 457.476 478.947V630.49H457.476 457.61" fill="#8ed8f8"/>
<path transform="matrix(1,0,0,-1,-42.7104,726.12)" stroke-width="1" stroke-linecap="butt" stroke-miterlimit="4" stroke-linejoin="miter" fill="none" stroke="#231f20" d="M457.61 630.49H436.139V645.138H457.61 457.476 478.947V630.49H457.476 457.61Z"/>
<path transform="matrix(1,0,0,-1,-42.7104,726.12)" d="M308.254 630.489H286.785V645.137H308.254 308.122 329.591V630.489H308.122 308.254" fill="#ffffff"/>
<path transform="matrix(1,0,0,-1,-42.7104,726.12)" stroke-width="1" stroke-linecap="butt" stroke-miterlimit="4" stroke-linejoin="miter" fill="none" stroke="#231f20" d="M308.254 630.489H286.785V645.137H308.254 308.122 329.591V630.489H308.122 308.254Z"/>
<path transform="matrix(1,0,0,-1,-42.7104,726.12)" d="M350.927 630.489H329.458V645.137H350.927 350.794 372.264V630.489H350.794 350.927" fill="#ffffff"/>
<path transform="matrix(1,0,0,-1,-42.7104,726.12)" stroke-width="1" stroke-linecap="butt" stroke-miterlimit="4" stroke-linejoin="miter" fill="none" stroke="#231f20" d="M350.927 630.489H329.458V645.137H350.927 350.794 372.264V630.489H350.794 350.927Z"/>
<path transform="matrix(1,0,0,-1,-42.7104,726.12)" d="M179.183 593.744H157.838V608.392H179.183ZM157.838 593.744" fill="#8ed8f8"/>
<path transform="matrix(1,0,0,-1,-42.7104,726.12)" stroke-width="1" stroke-linecap="butt" stroke-miterlimit="4" stroke-linejoin="miter" fill="none" stroke="#231f20" d="M179.183 593.744H157.838V608.392H179.183Z"/>
<path transform="matrix(1,0,0,-1,-42.7104,726.12)" d="M222.558 593.744H199.088V608.392H222.558ZM199.088 593.744" fill="#ffffff"/>
<path transform="matrix(1,0,0,-1,-42.7104,726.12)" stroke-width="1" stroke-linecap="butt" stroke-miterlimit="4" stroke-linejoin="miter" fill="none" stroke="#231f20" d="M222.558 593.744H199.088V608.392H222.558Z"/>
<path transform="matrix(1,0,0,-1,-42.7104,726.12)" d="M243.895 593.744H222.425V608.392H243.895ZM222.425 593.744" fill="#8ed8f8"/>
<path transform="matrix(1,0,0,-1,-42.7104,726.12)" stroke-width="1" stroke-linecap="butt" stroke-miterlimit="4" stroke-linejoin="miter" fill="none" stroke="#231f20" d="M243.895 593.744H222.425V608.392H243.895Z"/>
<path transform="matrix(1,0,0,-1,-42.7104,726.12)" d="M265.231 593.744H243.762V608.392H265.231ZM243.762 593.744" fill="#ffffff"/>
<path transform="matrix(1,0,0,-1,-42.7104,726.12)" stroke-width="1" stroke-linecap="butt" stroke-miterlimit="4" stroke-linejoin="miter" fill="none" stroke="#231f20" d="M265.231 593.744H243.762V608.392H265.231Z"/>
<path transform="matrix(1,0,0,-1,-42.7104,726.12)" d="M286.568 593.744H265.099V608.392H286.568ZM265.099 593.744" fill="#8ed8f8"/>
<path transform="matrix(1,0,0,-1,-42.7104,726.12)" stroke-width="1" stroke-linecap="butt" stroke-miterlimit="4" stroke-linejoin="miter" fill="none" stroke="#231f20" d="M286.568 593.744H265.099V608.392H286.568Z"/>
<path transform="matrix(1,0,0,-1,-42.7104,726.12)" d="M393.163 593.744H371.817V608.392H393.163ZM371.817 593.744" fill="#8ed8f8"/>
<path transform="matrix(1,0,0,-1,-42.7104,726.12)" stroke-width="1" stroke-linecap="butt" stroke-miterlimit="4" stroke-linejoin="miter" fill="none" stroke="#231f20" d="M393.163 593.744H371.817V608.392H393.163Z"/>
<path transform="matrix(1,0,0,-1,-42.7104,726.12)" d="M414.538 593.744H393.067V608.392H414.538ZM393.067 593.744" fill="#ffffff"/>
<path transform="matrix(1,0,0,-1,-42.7104,726.12)" stroke-width="1" stroke-linecap="butt" stroke-miterlimit="4" stroke-linejoin="miter" fill="none" stroke="#231f20" d="M414.538 593.744H393.067V608.392H414.538Z"/>
<path transform="matrix(1,0,0,-1,-42.7104,726.12)" d="M435.875 593.744H414.404V608.392H435.875ZM414.404 593.744" fill="#ffffff"/>
<path transform="matrix(1,0,0,-1,-42.7104,726.12)" stroke-width="1" stroke-linecap="butt" stroke-miterlimit="4" stroke-linejoin="miter" fill="none" stroke="#231f20" d="M435.875 593.744H414.404V608.392H435.875Z"/>
<path transform="matrix(1,0,0,-1,-42.7104,726.12)" d="M457.21 593.744H435.74V608.392H457.21 457.077 478.547V593.744H457.077 457.21" fill="#8ed8f8"/>
<path transform="matrix(1,0,0,-1,-42.7104,726.12)" stroke-width="1" stroke-linecap="butt" stroke-miterlimit="4" stroke-linejoin="miter" fill="none" stroke="#231f20" d="M457.21 593.744H435.74V608.392H457.21 457.077 478.547V593.744H457.077 457.21Z"/>
<path transform="matrix(1,0,0,-1,-42.7104,726.12)" d="M307.855 593.744H286.385V608.392H307.855 307.722 329.192V593.744H307.722 307.855" fill="#ffffff"/>
<path transform="matrix(1,0,0,-1,-42.7104,726.12)" stroke-width="1" stroke-linecap="butt" stroke-miterlimit="4" stroke-linejoin="miter" fill="none" stroke="#231f20" d="M307.855 593.744H286.385V608.392H307.855 307.722 329.192V593.744H307.722 307.855Z"/>
<path transform="matrix(1,0,0,-1,-42.7104,726.12)" d="M350.528 593.744H329.058V608.392H350.528 350.395 371.865V593.744H350.395 350.528" fill="#ffffff"/>
<path transform="matrix(1,0,0,-1,-42.7104,726.12)" stroke-width="1" stroke-linecap="butt" stroke-miterlimit="4" stroke-linejoin="miter" fill="none" stroke="#231f20" d="M350.528 593.744H329.058V608.392H350.528 350.395 371.865V593.744H350.395 350.528Z"/>
<path transform="matrix(1,0,0,-1,-42.7104,726.12)" d="M179.183 506.958H157.838V521.606H179.183ZM157.838 506.958" fill="#8ed8f8"/>
<path transform="matrix(1,0,0,-1,-42.7104,726.12)" stroke-width="1" stroke-linecap="butt" stroke-miterlimit="4" stroke-linejoin="miter" fill="none" stroke="#231f20" d="M179.183 506.958H157.838V521.606H179.183Z"/>
<path transform="matrix(1,0,0,-1,-42.7104,726.12)" d="M222.558 506.958H199.088V521.606H222.558ZM199.088 506.958" fill="#ffffff"/>
<path transform="matrix(1,0,0,-1,-42.7104,726.12)" stroke-width="1" stroke-linecap="butt" stroke-miterlimit="4" stroke-linejoin="miter" fill="none" stroke="#231f20" d="M222.558 506.958H199.088V521.606H222.558Z"/>
<path transform="matrix(1,0,0,-1,-42.7104,726.12)" d="M243.895 506.958H222.425V521.606H243.895ZM222.425 506.958" fill="#ffffff"/>
<path transform="matrix(1,0,0,-1,-42.7104,726.12)" stroke-width="1" stroke-linecap="butt" stroke-miterlimit="4" stroke-linejoin="miter" fill="none" stroke="#231f20" d="M243.895 506.958H222.425V521.606H243.895Z"/>
<path transform="matrix(1,0,0,-1,-42.7104,726.12)" d="M265.231 506.958H243.762V521.606H265.231ZM243.762 506.958" fill="#8ed8f8"/>
<path transform="matrix(1,0,0,-1,-42.7104,726.12)" stroke-width="1" stroke-linecap="butt" stroke-miterlimit="4" stroke-linejoin="miter" fill="none" stroke="#231f20" d="M265.231 506.958H243.762V521.606H265.231Z"/>
<path transform="matrix(1,0,0,-1,-42.7104,726.12)" d="M414.451 506.958H393.10499V521.606H414.451ZM393.105 506.958" fill="#ffffff"/>
<path transform="matrix(1,0,0,-1,-42.7104,726.12)" stroke-width="1" stroke-linecap="butt" stroke-miterlimit="4" stroke-linejoin="miter" fill="none" stroke="#231f20" d="M414.451 506.958H393.10499V521.606H414.451Z"/>
<path transform="matrix(1,0,0,-1,-42.7104,726.12)" d="M435.826 506.958H414.35499V521.606H435.826ZM414.355 506.958" fill="#ffffff"/>
<path transform="matrix(1,0,0,-1,-42.7104,726.12)" stroke-width="1" stroke-linecap="butt" stroke-miterlimit="4" stroke-linejoin="miter" fill="none" stroke="#231f20" d="M435.826 506.958H414.35499V521.606H435.826Z"/>
<path transform="matrix(1,0,0,-1,-42.7104,726.12)" d="M457.163 506.958H435.692V521.606H457.163ZM435.692 506.958" fill="#ffffff"/>
<path transform="matrix(1,0,0,-1,-42.7104,726.12)" stroke-width="1" stroke-linecap="butt" stroke-miterlimit="4" stroke-linejoin="miter" fill="none" stroke="#231f20" d="M457.163 506.958H435.692V521.606H457.163Z"/>
<path transform="matrix(1,0,0,-1,-42.7104,726.12)" d="M478.5 506.958H457.029V521.606H478.5ZM457.029 506.958" fill="#ffffff"/>
<path transform="matrix(1,0,0,-1,-42.7104,726.12)" stroke-width="1" stroke-linecap="butt" stroke-miterlimit="4" stroke-linejoin="miter" fill="none" stroke="#231f20" d="M478.5 506.958H457.029V521.606H478.5Z"/>
<path transform="matrix(1,0,0,-1,-42.7104,726.12)" d="M286.518 506.958H265.048V521.606H286.518 286.385 307.855V506.958H286.385 286.518" fill="#ffffff"/>
<path transform="matrix(1,0,0,-1,-42.7104,726.12)" stroke-width="1" stroke-linecap="butt" stroke-miterlimit="4" stroke-linejoin="miter" fill="none" stroke="#231f20" d="M286.518 506.958H265.048V521.606H286.518 286.385 307.855V506.958H286.385 286.518Z"/>
<path transform="matrix(1,0,0,-1,-42.7104,726.12)" d="M329.191 506.958H307.721V521.606H329.191 329.058 350.528V506.958H329.058 329.191" fill="#ffffff"/>
<path transform="matrix(1,0,0,-1,-42.7104,726.12)" stroke-width="1" stroke-linecap="butt" stroke-miterlimit="4" stroke-linejoin="miter" fill="none" stroke="#231f20" d="M329.191 506.958H307.721V521.606H329.191 329.058 350.528V506.958H329.058 329.191Z"/>
<path transform="matrix(1,0,0,-1,-42.7104,726.12)" d="M371.864 506.958H350.394V521.606H371.864 371.731 393.201V506.958H371.731 371.864" fill="#ffffff"/>
<path transform="matrix(1,0,0,-1,-42.7104,726.12)" stroke-width="1" stroke-linecap="butt" stroke-miterlimit="4" stroke-linejoin="miter" fill="none" stroke="#231f20" d="M371.864 506.958H350.394V521.606H371.864 371.731 393.201V506.958H371.731 371.864Z"/>
<path transform="matrix(1,0,0,-1,-42.7104,726.12)" d="M179.183 452.661H157.838V467.30903H179.183ZM157.838 452.661" fill="#8ed8f8"/>
<path transform="matrix(1,0,0,-1,-42.7104,726.12)" stroke-width="1" stroke-linecap="butt" stroke-miterlimit="4" stroke-linejoin="miter" fill="none" stroke="#231f20" d="M179.183 452.661H157.838V467.30903H179.183Z"/>
<path transform="matrix(1,0,0,-1,-42.7104,726.12)" d="M222.558 452.661H199.088V467.30903H222.558ZM199.088 452.661" fill="#ffffff"/>
<path transform="matrix(1,0,0,-1,-42.7104,726.12)" stroke-width="1" stroke-linecap="butt" stroke-miterlimit="4" stroke-linejoin="miter" fill="none" stroke="#231f20" d="M222.558 452.661H199.088V467.30903H222.558Z"/>
<path transform="matrix(1,0,0,-1,-42.7104,726.12)" d="M243.895 452.661H222.425V467.30903H243.895ZM222.425 452.661" fill="#ffffff"/>
<path transform="matrix(1,0,0,-1,-42.7104,726.12)" stroke-width="1" stroke-linecap="butt" stroke-miterlimit="4" stroke-linejoin="miter" fill="none" stroke="#231f20" d="M243.895 452.661H222.425V467.30903H243.895Z"/>
<path transform="matrix(1,0,0,-1,-42.7104,726.12)" d="M265.231 452.661H243.762V467.30903H265.231ZM243.762 452.661" fill="#8ed8f8"/>
<path transform="matrix(1,0,0,-1,-42.7104,726.12)" stroke-width="1" stroke-linecap="butt" stroke-miterlimit="4" stroke-linejoin="miter" fill="none" stroke="#231f20" d="M265.231 452.661H243.762V467.30903H265.231Z"/>
<path transform="matrix(1,0,0,-1,-42.7104,726.12)" d="M478.811 452.661H393.105V467.30903H478.811ZM393.105 452.661" fill="#8ed8f8"/>
<path transform="matrix(1,0,0,-1,-42.7104,726.12)" stroke-width="1" stroke-linecap="butt" stroke-miterlimit="4" stroke-linejoin="miter" fill="none" stroke="#231f20" d="M478.811 452.661H393.105V467.30903H478.811Z"/>
<path transform="matrix(1,0,0,-1,-42.7104,726.12)" d="M286.431 452.661H265.085V467.30903H286.431ZM265.085 452.661" fill="#ffffff"/>
<path transform="matrix(1,0,0,-1,-42.7104,726.12)" stroke-width="1" stroke-linecap="butt" stroke-miterlimit="4" stroke-linejoin="miter" fill="none" stroke="#231f20" d="M286.431 452.661H265.085V467.30903H286.431Z"/>
<path transform="matrix(1,0,0,-1,-42.7104,726.12)" d="M307.806 452.661H286.335V467.30903H307.806ZM286.335 452.661" fill="#ffffff"/>
<path transform="matrix(1,0,0,-1,-42.7104,726.12)" stroke-width="1" stroke-linecap="butt" stroke-miterlimit="4" stroke-linejoin="miter" fill="none" stroke="#231f20" d="M307.806 452.661H286.335V467.30903H307.806Z"/>
<path transform="matrix(1,0,0,-1,-42.7104,726.12)" d="M329.191 452.661H307.721V467.309H329.191 329.058 350.528V452.661H329.058 329.191" fill="#ffffff"/>
<path transform="matrix(1,0,0,-1,-42.7104,726.12)" stroke-width="1" stroke-linecap="butt" stroke-miterlimit="4" stroke-linejoin="miter" fill="none" stroke="#231f20" d="M329.191 452.661H307.721V467.309H329.191 329.058 350.528V452.661H329.058 329.191Z"/>
<path transform="matrix(1,0,0,-1,-42.7104,726.12)" d="M371.864 452.661H350.394V467.309H371.864 371.731 393.201V452.661H371.731 371.864" fill="#ffffff"/>
<path transform="matrix(1,0,0,-1,-42.7104,726.12)" stroke-width="1" stroke-linecap="butt" stroke-miterlimit="4" stroke-linejoin="miter" fill="none" stroke="#231f20" d="M371.864 452.661H350.394V467.309H371.864 371.731 393.201V452.661H371.731 371.864Z"/>
<path transform="matrix(1,0,0,-1,-42.7104,726.12)" d="M179.183 419.419H157.838V434.067H285.231V419.419H179.183" fill="#8ed8f8"/>
<path transform="matrix(1,0,0,-1,-42.7104,726.12)" stroke-width="1" stroke-linecap="butt" stroke-miterlimit="4" stroke-linejoin="miter" fill="none" stroke="#231f20" d="M179.183 419.419H157.838V434.067H285.231V419.419H179.183Z"/>
<path transform="matrix(1,0,0,-1,-42.7104,726.12)" d="M478.811 419.419H297.259V434.06703H478.811ZM297.259 419.419" fill="#8ed8f8"/>
<path transform="matrix(1,0,0,-1,-42.7104,726.12)" stroke-width="1" stroke-linecap="butt" stroke-miterlimit="4" stroke-linejoin="miter" fill="none" stroke="#231f20" d="M478.811 419.419H297.259V434.06703H478.811Z"/>
<path transform="matrix(1,0,0,-1,-42.7104,726.12)" d="M275.931 419.419H254.585V434.067H275.931 275.835 297.306V419.419H275.835 275.931" fill="#ffffff"/>
<path transform="matrix(1,0,0,-1,-42.7104,726.12)" stroke-width="1" stroke-linecap="butt" stroke-miterlimit="4" stroke-linejoin="miter" fill="none" stroke="#231f20" d="M275.931 419.419H254.585V434.067H275.931 275.835 297.306V419.419H275.835 275.931Z"/>
<text fill="#ffffff" xml:space="preserve" transform="matrix(1 0 -0 1 -42.7104 726.12)" font-size="8" font-family="Helvetica"><tspan y="-423.604" x="162.51">F</tspan></text>
<path transform="matrix(1,0,0,-1,-42.7104,726.12)" stroke-width=".5" stroke-linecap="butt" stroke-miterlimit="4" stroke-linejoin="miter" fill="none" stroke="#231f20" d="M125.498 614.404H210.275V608.517"/>
<path transform="matrix(1,0,0,-1,-42.7104,726.12)" d="M123.345 614.404 126.379 615.643 125.659 614.404 126.379 613.165 123.345 614.404" fill="#231f20"/>
<path transform="matrix(1,0,0,-1,-42.7104,726.12)" stroke-width=".5" stroke-linecap="butt" stroke-miterlimit="4" stroke-linejoin="miter" fill="none" stroke="#231f20" d="M125.498 651.263H188.917V645.376"/>
<path transform="matrix(1,0,0,-1,-42.7104,726.12)" d="M123.345 651.263 126.379 652.502 125.659 651.263 126.379 650.024 123.345 651.263" fill="#231f20"/>
<path transform="matrix(1,0,0,-1,-42.7104,726.12)" stroke-width=".5" stroke-linecap="butt" stroke-miterlimit="4" stroke-linejoin="miter" fill="none" stroke="#231f20" d="M125.498 584.904H189.702"/>
<path transform="matrix(1,0,0,-1,-42.7104,726.12)" d="M123.345 584.904 126.379 586.143 125.659 584.904 126.379 583.665 123.345 584.904" fill="#231f20"/>
<path transform="matrix(1,0,0,-1,-42.7104,726.12)" stroke-width=".5" stroke-linecap="butt" stroke-miterlimit="4" stroke-linejoin="miter" fill="none" stroke="#231f20" d="M126.069 526.745H210.275V521.264"/>
<path transform="matrix(1,0,0,-1,-42.7104,726.12)" d="M123.916 526.745 126.95 527.984 126.231 526.745 126.95 525.506 123.916 526.745" fill="#231f20"/>
<path transform="matrix(1,0,0,-1,-42.7104,726.12)" stroke-width=".75" stroke-linecap="butt" stroke-dasharray=".75,.75" stroke-miterlimit="4" stroke-linejoin="miter" fill="none" stroke="#231f20" d="M155.167 463.273H123.96"/>
<path transform="matrix(1,0,0,-1,-42.7104,726.12)" d="M157.319 463.273 154.285 464.512 155.005 463.273 154.285 462.034 157.319 463.273" fill="#231f20"/>
<path transform="matrix(1,0,0,-1,-42.7104,726.12)" stroke-width=".75" stroke-linecap="butt" stroke-dasharray=".75,.75" stroke-miterlimit="4" stroke-linejoin="miter" fill="none" stroke="#231f20" d="M155.167 455.273H123.96"/>
<path transform="matrix(1,0,0,-1,-42.7104,726.12)" d="M157.319 455.273 154.285 456.512 155.005 455.273 154.285 454.034 157.319 455.273" fill="#231f20"/>
<path transform="matrix(1,0,0,-1,-42.7104,726.12)" stroke-width=".75" stroke-linecap="butt" stroke-dasharray=".75,.75" stroke-miterlimit="4" stroke-linejoin="miter" fill="none" stroke="#231f20" d="M155.167 515.274H123.96"/>
<path transform="matrix(1,0,0,-1,-42.7104,726.12)" d="M157.319 515.274 154.285 516.512 155.005 515.274 154.285 514.034 157.319 515.274" fill="#231f20"/>
<path transform="matrix(1,0,0,-1,-42.7104,726.12)" stroke-width=".75" stroke-linecap="butt" stroke-dasharray=".75,.75" stroke-miterlimit="4" stroke-linejoin="miter" fill="none" stroke="#231f20" d="M155.167 634.274H123.96"/>
<path transform="matrix(1,0,0,-1,-42.7104,726.12)" d="M157.319 634.274 154.285 635.512 155.005 634.274 154.285 633.034 157.319 634.274" fill="#231f20"/>
<path transform="matrix(1,0,0,-1,-42.7104,726.12)" stroke-width=".75" stroke-linecap="butt" stroke-dasharray=".75,.75" stroke-miterlimit="4" stroke-linejoin="miter" fill="none" stroke="#231f20" d="M155.167 600.97H123.96"/>
<path transform="matrix(1,0,0,-1,-42.7104,726.12)" d="M157.319 600.97 154.285 602.208 155.005 600.97 154.285 599.73 157.319 600.97" fill="#231f20"/>
<path transform="matrix(1,0,0,-1,-42.7104,726.12)" stroke-width=".75" stroke-linecap="butt" stroke-dasharray=".75,.75" stroke-miterlimit="4" stroke-linejoin="miter" fill="none" stroke="#231f20" d="M155.167 422.273H123.96"/>
<path transform="matrix(1,0,0,-1,-42.7104,726.12)" d="M157.319 422.273 154.285 423.512 155.005 422.273 154.285 421.034 157.319 422.273" fill="#231f20"/>
<path transform="matrix(1,0,0,-1,-42.7104,726.12)" stroke-width=".5" stroke-linecap="butt" stroke-miterlimit="4" stroke-linejoin="miter" fill="none" stroke="#231f20" d="M126.069 474.773H210.275V467.764"/>
<path transform="matrix(1,0,0,-1,-42.7104,726.12)" d="M123.916 474.773 126.95 476.012 126.231 474.773 126.95 473.534 123.916 474.773" fill="#231f20"/>
<path transform="matrix(1,0,0,-1,-42.7104,726.12)" stroke-width=".5" stroke-linecap="butt" stroke-miterlimit="4" stroke-linejoin="miter" fill="none" stroke="#231f20" d="M125.899 535.086H425.098V521.065"/>
<path transform="matrix(1,0,0,-1,-42.7104,726.12)" d="M123.747 535.086 126.78 536.326 126.061 535.086 126.78 533.847 123.747 535.086" fill="#231f20"/>
<path transform="matrix(1,0,0,-1,-42.7104,726.12)" stroke-width=".5" stroke-linecap="butt" stroke-miterlimit="4" stroke-linejoin="miter" fill="none" stroke="#231f20" d="M125.899 497.407H467.668"/>
<path transform="matrix(1,0,0,-1,-42.7104,726.12)" d="M123.747 497.407 126.78 498.647 126.061 497.407 126.78 496.169 123.747 497.407" fill="#231f20"/>
<path transform="matrix(1,0,0,-1,-42.7104,726.12)" stroke-width=".5" stroke-linecap="butt" stroke-miterlimit="4" stroke-linejoin="miter" fill="none" stroke="#231f20" d="M125.899 487.907H446.598"/>
<path transform="matrix(1,0,0,-1,-42.7104,726.12)" d="M123.747 487.907 126.78 489.147 126.061 487.907 126.78 486.669 123.747 487.907" fill="#231f20"/>
<path transform="matrix(1,0,0,-1,-42.7104,726.12)" d="M267.582 538.87H243.23V558.07H267.582ZM243.23 538.87" fill="#231f20"/>
<path transform="matrix(1,0,0,-1,-42.7104,726.12)" d="M266.742 539.71H242.391V558.91006H266.742ZM242.391 539.71" fill="#d4effc"/>
<path transform="matrix(1,0,0,-1,-42.7104,726.12)" stroke-width=".5" stroke-linecap="butt" stroke-miterlimit="4" stroke-linejoin="miter" fill="none" stroke="#00adef" d="M266.742 539.71H242.391V558.91006H266.742Z"/>
<path transform="matrix(1,0,0,-1,-42.7104,726.12)" d="M457.462 473.455C457.462 472.259 456.497 471.293 455.303 471.293H439.711C438.519 471.293 437.552 472.259 437.552 473.455V480.841C437.552 482.033 438.519 483 439.711 483H455.303C456.497 483 457.462 482.033 457.462 480.841V473.455" fill="#b1b4b6"/>
<path transform="matrix(1,0,0,-1,-42.7104,726.12)" d="M455.843 474.459C455.843 473.267 454.877 472.302 453.684 472.302H438.092C436.901 472.302 435.934 473.267 435.934 474.459V481.847C435.934 483.041 436.901 484.007 438.092 484.007H453.684C454.877 484.007 455.843 483.041 455.843 481.847V474.459" fill="#c6c8ca"/>
<path transform="matrix(1,0,0,-1,-42.7104,726.12)" stroke-width=".75" stroke-linecap="butt" stroke-miterlimit="4" stroke-linejoin="miter" fill="none" stroke="#231f20" d="M455.843 474.459C455.843 473.267 454.877 472.302 453.684 472.302H438.092C436.901 472.302 435.934 473.267 435.934 474.459V481.847C435.934 483.041 436.901 484.007 438.092 484.007H453.684C454.877 484.007 455.843 483.041 455.843 481.847V474.459Z"/>
<path transform="matrix(1,0,0,-1,-42.7104,726.12)" d="M479.113 484.078C479.113 482.882 478.147 481.916 476.954 481.916H461.362C460.169 481.916 459.203 482.882 459.203 484.078V491.464C459.203 492.656 460.169 493.623 461.362 493.623H476.954C478.147 493.623 479.113 492.656 479.113 491.464V484.078" fill="#b1b4b6"/>
<path transform="matrix(1,0,0,-1,-42.7104,726.12)" d="M477.494 485.082C477.494 483.89 476.528 482.925 475.334 482.925H459.743C458.551 482.925 457.584 483.89 457.584 485.082V492.47C457.584 493.664 458.551 494.63 459.743 494.63H475.334C476.528 494.63 477.494 493.664 477.494 492.47V485.082" fill="#c6c8ca"/>
<path transform="matrix(1,0,0,-1,-42.7104,726.12)" stroke-width=".75" stroke-linecap="butt" stroke-miterlimit="4" stroke-linejoin="miter" fill="none" stroke="#231f20" d="M477.494 485.082C477.494 483.89 476.528 482.925 475.334 482.925H459.743C458.551 482.925 457.584 483.89 457.584 485.082V492.47C457.584 493.664 458.551 494.63 459.743 494.63H475.334C476.528 494.63 477.494 493.664 477.494 492.47V485.082Z"/>
<path transform="matrix(1,0,0,-1,-42.7104,726.12)" d="M200.621 570.282C200.621 569.087 199.655 568.12 198.462 568.12H182.87C181.678 568.12 180.711 569.087 180.711 570.282V577.669C180.711 578.86 181.678 579.827 182.87 579.827H198.462C199.655 579.827 200.621 578.86 200.621 577.669V570.282" fill="#b1b4b6"/>
<path transform="matrix(1,0,0,-1,-42.7104,726.12)" d="M199.002 571.286C199.002 570.095 198.036 569.13 196.843 569.13H181.251C180.06 569.13 179.093 570.095 179.093 571.286V578.675C179.093 579.868 180.06 580.835 181.251 580.835H196.843C198.036 580.835 199.002 579.868 199.002 578.675V571.286" fill="#c6c8ca"/>
<path transform="matrix(1,0,0,-1,-42.7104,726.12)" stroke-width=".75" stroke-linecap="butt" stroke-miterlimit="4" stroke-linejoin="miter" fill="none" stroke="#231f20" d="M199.002 571.286C199.002 570.095 198.036 569.13 196.843 569.13H181.251C180.06 569.13 179.093 570.095 179.093 571.286V578.675C179.093 579.868 180.06 580.835 181.251 580.835H196.843C198.036 580.835 199.002 579.868 199.002 578.675V571.286Z"/>
<path transform="matrix(1,0,0,-1,-42.7104,726.12)" stroke-width=".75" stroke-linecap="butt" stroke-dasharray=".75,.75" stroke-miterlimit="4" stroke-linejoin="miter" fill="none" stroke="#231f20" d="M254.625 591.12V558.962"/>
<path transform="matrix(1,0,0,-1,-42.7104,726.12)" d="M254.625 593.072 255.865 590.038 254.625 590.758 253.386 590.038 254.625 593.072" fill="#231f20"/>
<path transform="matrix(1,0,0,-1,-42.7104,726.12)" stroke-width=".75" stroke-linecap="butt" stroke-miterlimit="4" stroke-linejoin="miter" fill="none" stroke="#231f20" d="M189.706 591.291V580.779"/>
<path transform="matrix(1,0,0,-1,-42.7104,726.12)" d="M189.706 593.243 190.945 590.209 189.706 590.929 188.467 590.209 189.706 593.243" fill="#231f20"/>
<path transform="matrix(1,0,0,-1,-42.7104,726.12)" stroke-width=".5" stroke-linecap="butt" stroke-miterlimit="4" stroke-linejoin="miter" fill="none" stroke="#231f20" d="M467.722 504.607V494.602"/>
<path transform="matrix(1,0,0,-1,-42.7104,726.12)" d="M467.722 506.548 468.96 503.514 467.722 504.234 466.482 503.514 467.722 506.548" fill="#231f20"/>
<path transform="matrix(1,0,0,-1,-42.7104,726.12)" stroke-width=".5" stroke-linecap="butt" stroke-miterlimit="4" stroke-linejoin="miter" fill="none" stroke="#231f20" d="M445.806 504.396V484.196"/>
<path transform="matrix(1,0,0,-1,-42.7104,726.12)" d="M445.806 506.548 447.044 503.514 445.806 504.234 444.566 503.514 445.806 506.548" fill="#231f20"/>
<path transform="matrix(1,0,0,-1,-42.7104,726.12)" d="M447.53 487.753C447.53 486.789 446.746 486.003 445.78 486.003 444.814 486.003 444.03 486.789 444.03 487.753 444.03 488.718 444.814 489.503 445.78 489.503 446.746 489.503 447.53 488.718 447.53 487.753" fill="#231f20"/>
<path transform="matrix(1,0,0,-1,-42.7104,726.12)" stroke-width=".75" stroke-linecap="butt" stroke-dasharray=".75,.75" stroke-miterlimit="4" stroke-linejoin="miter" fill="none" stroke="#231f20" d="M125.899 564.906H254.592"/>
<path transform="matrix(1,0,0,-1,-42.7104,726.12)" d="M123.747 564.906 126.78 566.146 126.061 564.906 126.78 563.668 123.747 564.906" fill="#231f20"/>
<path transform="matrix(1,0,0,-1,-42.7104,726.12)" d="M256.374 564.753C256.374 563.788 255.59 563.002 254.624 563.002 253.658 563.002 252.874 563.788 252.874 564.753 252.874 565.718 253.658 566.502 254.624 566.502 255.59 566.502 256.374 565.718 256.374 564.753" fill="#231f20"/>
<path transform="matrix(1,0,0,-1,-42.7104,726.12)" d="M191.451 584.797C191.451 583.832 190.667 583.046 189.701 583.046 188.735 583.046 187.951 583.832 187.951 584.797 187.951 585.762 188.735 586.546 189.701 586.546 190.667 586.546 191.451 585.762 191.451 584.797" fill="#231f20"/>
<path transform="matrix(1,0,0,-1,-42.7104,726.12)" d="M469.438 497.434C469.438 496.469 468.654 495.683 467.688 495.683 466.722 495.683 465.938 496.469 465.938 497.434 465.938 498.399 466.722 499.183 467.688 499.183 468.654 499.183 469.438 498.399 469.438 497.434" fill="#231f20"/>
<text fill="#231f20" xml:space="preserve" transform="matrix(1 0 -0 1 -42.7104 726.12)" font-size="8" font-family="Helvetica"><tspan y="-545.5" x="248.542 254.31801">CC</tspan></text>
<text fill="#ffffff" xml:space="preserve" transform="matrix(1 0 -0 1 -42.7104 726.12)" font-size="8" font-family="Helvetica"><tspan y="-634.6752" x="161.17801">W</tspan></text>
<text fill="#231f20" xml:space="preserve" transform="matrix(1 0 -0 1 -42.7104 726.12)" font-size="8" font-family="Helvetica"><tspan y="-634.6752" x="201.08602 202.86202 206.86202 211.31002 215.75801 301.07643 305.07643 309.5244 311.3004 342.41163 346.41163 350.85963 352.63563 395.64283 400.09083 404.09083 406.31483 182.34922 186.34922 188.57321 193.02121">icodevalEvalMdstEstat</tspan><tspan y="-597.92959" x="182.34922 186.34922 188.57321 193.02121">stat</tspan><tspan y="-511.14237" x="182.34922 186.34922 188.57321 193.02121">stat</tspan><tspan y="-456.84559" x="182.34922 186.34922 188.57321 193.02121">stat</tspan><tspan y="-634.6752" x="416.66523 421.11323 425.11323 427.33723">dstM</tspan></text>
<text fill="#ffffff" xml:space="preserve" transform="matrix(1 0 -0 1 -42.7104 726.12)" font-size="8" font-family="Helvetica"><tspan y="-597.92959" x="161.62203">M</tspan></text>
<text fill="#231f20" xml:space="preserve" transform="matrix(1 0 -0 1 -42.7104 726.12)" font-size="8" font-family="Helvetica"><tspan y="-597.92959" x="201.08603 202.86203 206.86203 211.31003 215.75803 246.98442 252.76042 257.20845 300.67643 304.67643 309.12443 310.90043 343.5692 347.5692 352.0172 353.7932 395.24363 399.69163 403.69163 405.91563 416.26603 420.71403 424.71403 426.93803">icodeCndvalEvalAdstEdstM</tspan></text>
<text fill="#ffffff" xml:space="preserve" transform="matrix(1 0 -0 1 -42.7104 726.12)" font-size="8" font-family="Helvetica"><tspan y="-511.14317" x="162.28603">E</tspan></text>
<text fill="#231f20" xml:space="preserve" transform="matrix(1 0 -0 1 -42.7104 726.12)" font-size="8" font-family="Helvetica"><tspan y="-511.14317" x="201.08603 202.86203 206.86203 211.31003 215.75803 227.58522 229.36122 231.58522 236.03322 279.11964 283.11964 287.56764 289.34364 322.23243 326.23243 330.68043 332.45643 364.6852 368.6852 373.1332 374.9092 415.8676 420.3156 424.3156 426.5396 438.44203 442.44203 445.10603 449.10603 459.5588 463.5588 466.2228 470.2228 395.89405 400.34205 404.34205 406.56605">icodeifunvalCvalAvalBdstMsrcAsrcBdstE</tspan></text>
<text fill="#ffffff" xml:space="preserve" transform="matrix(1 0 -0 1 -42.7104 726.12)" font-size="8" font-family="Helvetica"><tspan y="-456.84638" x="162.06604">D</tspan></text>
<text fill="#231f20" xml:space="preserve" transform="matrix(1 0 -0 1 -42.7104 726.12)" font-size="8" font-family="Helvetica"><tspan y="-456.84638" x="201.08605 202.86205 206.86205 211.31005 215.75804 227.58524 229.36124 231.58524 236.03324 321.79325 325.79325 330.24125 332.01725 364.75724 368.75724 373.20524 374.98124 292.51484 295.17884 272.09803 274.76203">icodeifunvalCvalPrBrA</tspan></text>
<text fill="#ffffff" xml:space="preserve" transform="matrix(1 0 -0 1 -42.7104 726.12)" font-size="8" font-family="Helvetica"><tspan y="-423.60398" x="162.51003">F</tspan></text>
<text fill="#231f20" xml:space="preserve" transform="matrix(1 0 -0 1 -42.7104 726.12)" font-size="8" font-family="Helvetica"><tspan y="-423.60398" x="263.01084 267.45884 270.12284 274.57084 279.01884 284.35484">predPC</tspan><tspan y="-475.36" x="438.43727 442.43727 445.10127 449.10127">srcA</tspan><tspan y="-485.98399" x="459.86927 463.86927 466.53327 470.53327">srcB</tspan><tspan y="-572.188" x="182.92926 186.92926 189.15326 193.60126">stat</tspan><tspan y="-541.9616" x="101.12926 106.465259 108.24126 112.689258">Pipe</tspan><tspan y="-532.9616" x="97.12926 101.12926 105.577259 110.02525 112.24925 114.91325 119.36125">control</tspan><tspan y="-523.9616" x="100.909259 102.68526 107.133258 111.58125 113.357257">logic</tspan></text>
<text fill="#231f20" xml:space="preserve" transform="matrix(1 0 -0 1 -42.7104 726.12)" font-size="6" font-family="Helvetica"><tspan y="-616.921" x="149.315 154.313 157.649 158.981 161.981 165.317 168.653">M_icode</tspan><tspan y="-653.7802" x="149.315 154.979 158.315 161.315 162.983 166.319">W_stat</tspan><tspan y="-568.357" x="149.315 152.651 155.987 160.319 163.655">e_Cnd</tspan><tspan y="-586.9588" x="149.315 154.313 157.649 160.649 162.317 165.653">m_stat</tspan><tspan y="-538.0006" x="149.315 153.317 156.653 159.989 162.989 164.657">E_dstM</tspan><tspan y="-499.47163" x="149.315 152.651 155.987 158.987 160.985 163.985">d_srcB</tspan><tspan y="-489.92143" x="149.315 152.651 155.987 158.987 160.985 163.985">d_srcA</tspan><tspan y="-477.69764" x="149.315 153.647 156.983 158.315 161.315 164.651 167.987">D_icode</tspan><tspan y="-528.8314" x="149.315 153.317 156.653 157.985 160.985 164.321 167.657">E_icode</tspan><tspan y="-517.66366" x="127.2488 131.25081 134.5868 137.9228 141.2588 144.5948 147.9308 149.2628">E_bubble</tspan><tspan y="-552.80148" x="127.2488 130.24881 133.58481 135.2528 138.5888 141.5888">set_cc</tspan><tspan y="-636.66348" x="127.2488 132.9128 136.2488 139.2488 140.9168 144.25279 145.5848">W_stall</tspan><tspan y="-603.3605" x="127.2488 132.2468 135.5828 138.9188 142.25479 145.59079 148.92679 150.25879">M_bubble</tspan><tspan y="-466.18128" x="127.2488 131.5808 134.9168 138.25279 141.58879 144.92479 148.26079 149.59279">D_bubble</tspan><tspan y="-457.16029" x="127.2488 131.5808 134.9168 137.9168 139.5848 142.92079 144.25279">D_stall</tspan><tspan y="-424.3061" x="127.2488 130.9148 134.2508 137.2508 138.9188 142.25479 143.58679">F_stall</tspan></text>
<text fill="#00adef" xml:space="preserve" transform="matrix(1 0 -0 1 -42.7104 726.12)" font-size="8.9664" font-family="StoneSans"><tspan y="-399.603" x="94.5 98.812839 100.94684 106.281848 111.40166 114.521968 122.14162 127.28833 129.8617 135.0084">Figure4.68</tspan></text>
<text fill="#231f20" xml:space="preserve" transform="matrix(1 0 -0 1 -42.7104 726.12)" font-size="8.9664" font-family="StoneSans" font-weight="bold"><tspan y="-399.603" x="148.12357 153.44065 156.19333 161.5104 169.44388 175.03891 177.45087 183.0459 187.95052 190.36248 192.77443 198.31566 206.29396 210.5799 216.00457 221.54579 225.03372 228.62924 234.05391 239.53955 241.9515 247.37618 252.9712 255.38317 259.6691">PIPEpipelinecontrollogic.</tspan></text>
<text fill="#231f20" xml:space="preserve" transform="matrix(1 0 -0 1 -42.7104 726.12)" font-size="8.9664" font-family="StoneSans"><tspan y="-399.603" x="265.3135 270.29884 275.54417 277.67817 284.23976 286.37376 291.5115 296.84654 298.98054 306.36705 311.5048 315.89833 320.44429 323.56459 326.68489 328.81889 334.1539 338.69987 345.26145 348.35487 353.6002 361.21983 366.46516 371.6029 374.7232 382.73918 387.22236 392.43003 397.23603 402.37379 412.43229 417.57005 423.29777 425.43177 430.6771 434.165 437.25843 440.37873 445.49855 449.81138 452.9048 455.0388 460.17655 465.42189 471.98347 475.07688 480.3222 483.4425 488.58027 493.70008 499.0351 507.3541 510.4475 515.6929">Thislogicoverridesthenormal&#xfb02;owofinstructionsthroughthe</tspan><tspan y="-388.64518" x="94.4991 99.85204 101.986049 107.33899 111.88496 114.01896 116.15296 121.39831 129.06099 132.1544 140.40886 145.6542 150.1374 155.38275 160.71776 162.85176 170.51444 174.00237 179.3553 183.90126 188.2141 190.3481 194.8313 200.08202 204.39485 209.5326 214.77794 220.11295 222.24695 225.34037 227.47437 232.6121 237.85746 244.4621 247.95003 253.06984 257.3827 265.74476 270.22798 276.8326 282.18556 285.30586 290.4436 294.75645 299.3024 304.63743 309.75724 312.87754 320.54023 323.66053 328.20649 331.2999 336.4197 339.54 344.78535 348.27326 354.09873 362.1147 364.2487 367.7366 373.08955 376.20985 380.7558 386.09083 388.22483 392.53767 395.63108 400.17704 408.62879 413.9638 417.0841 421.56733 426.81266 431.1255 436.37083 440.91679 444.4047 450.23017 452.36418 457.50193 461.9851 467.32014 470.80805 475.92787 479.41578 487.07847 492.3238 496.807 500.8419 505.32508 508.44538 513.7804 517.2683">pipelinetohandlespecialconditionssuchasprocedurereturns,mispredictedbranches,load/usehazards,</tspan><tspan y="-377.68644" x="94.4991 98.9823 104.227649 112.13601 117.48895 120.60926 125.74701 131.08202 134.20232 138.68552 149.27484 153.8208 158.47437 162.7872 167.33316 172.6861 175.77951 177.91352 183.05126 188.2966 191.78453">andprogramexceptions.</tspan></text>
<text fill="#231f20" xml:space="preserve" transform="matrix(1 0 -0 1 -42.7104 726.12)" font-size="9.9626" font-family="TimesTen"><tspan y="-342.609" x="94.5 100.03921 105.02051 108.33805 113.31935 117.742748 121.06029 123.82989 129.3691 137.40592 141.82932 147.36852 152.90772 158.44692 161.21652 164.53408 167.30368 172.84288 178.38208 184.75516 190.29436 196.10953 201.82805 204.59766 209.57895 215.11815 218.9936 226.47252 231.45381 233.94446 238.92575 246.40467 253.59766 256.36726 259.68479 267.72163 271.03916 276.57838 284.05729 289.03858 293.46199 296.7795 299.5491 305.08833 310.62754 317.0006 322.53984 328.35499 334.07353 336.8431 341.8244 347.36363 351.23908 358.718 363.69929 366.18995 371.17124 378.65016 381.96769 390.00453 394.42793 398.30339 403.28468 408.26597 411.5835 419.0624 427.36128 434.55427">detectionconditionsofFigure4.64withtheactionsofFigure4.66tocreateHCL</tspan><tspan y="-330.6539" x="94.5 100.03921 105.02051 108.89596 113.31935 117.1948 119.9644 125.50361 128.82115 131.59076 137.12996 142.66916 149.03527 152.35282 157.89202 164.25812 167.57567 173.11487 180.5868 186.126 188.89562 192.21317 195.53072 200.51201 204.38747 209.36876 214.90796 220.71616 226.25536 229.02497 234.56417 239.54546 242.31507 245.08467 250.62387 258.09584 262.51924 268.05845 273.59767 276.9152 280.79066 286.32987 291.59013 295.46559 298.23518 303.21647 308.75569 313.73698 316.50657 319.83409">descriptionsforthedifferentpipelinecontrolsignals.</tspan><tspan y="-318.6988" x="112.43268 118.51983 121.28943 126.828639 131.80994 134.57955 137.34915 142.88835 152.19242 156.06787 161.04917 166.03046 168.80007 172.67552 175.99308 180.97437 189.17259 199.5825 207.88135 213.42055 217.296 224.93633 230.47553 239.77959 243.65505 246.9726 251.95389 254.7235 257.4931 262.4744 272.3364 275.65394 281.19316 289.3914 294.37269 297.14228 300.4598 305.99903 310.98033 319.17857 328.48265 331.25224 336.79145 341.77275 347.31196 350.08155 355.62077 359.49623 368.8003 374.3395 379.3208 383.7442 388.7255 392.60096 402.46296 408.00218 416.2004">PipelineregisterFmustbestalledforeitheraload/usehazardora</tspan></text>
<text fill="#231f20" xml:space="preserve" transform="matrix(1 0 -0 1 -42.7104 726.12)" font-size="9.9626" font-family="ZztexMono"><tspan y="-318.6988" x="425.51039 430.74076 435.97114">ret</tspan></text>
<text fill="#231f20" xml:space="preserve" transform="matrix(1 0 -0 1 -42.7104 726.12)" font-size="9.9626" font-family="TimesTen"><tspan y="-306.74369" x="94.49902 97.26862 102.80783 106.68328 110.000827 113.876277 119.41548 123.838878 127.15642 129.92603 135.46523 141.00443">instruction:</tspan></text>
<text xml:space="preserve" transform="matrix(1 0 -0 1 -42.7104 726.12)" font-size="9.4645" font-family="ZztexMono"><tspan y="-284.224" x="94.5 99.468868 104.43773 109.40659 119.34432 124.31319 129.28205 134.2509 139.21976 144.18862 149.15747 159.09519">boolF_stall=</tspan><tspan y="-272.26939" x="134.2509 144.18862 149.15747 154.12633 159.09519 164.06404 169.0329 174.00176 178.97061 183.93947 188.90833 198.84604 203.8149 208.78376 218.72147 228.65918 233.62804 238.5969 243.56575 248.5346 253.50347 258.47233 263.4412 273.37895 278.3478 283.31669 288.28556 293.25444 298.2233">#Conditionsforaload/usehazard</tspan><tspan y="-260.3138" x="134.2509 139.21976 144.18862 149.15747 154.12633 159.09519 164.06404 174.00176 178.97061 188.90833 198.84604 203.8149 208.78376 213.75261 218.72147 223.69033 228.65918 233.62804 243.56575 248.5346 253.50347 258.47233 263.4412 273.37895 283.31669 288.28556">E_icodein{IMRMOVL,IPOPL}&#x0026;&#x0026;</tspan><tspan y="-248.35826" x="139.21976 144.18862 149.15747 154.12633 159.09519 164.06404 174.00176 178.97061 188.90833 198.84604 203.8149 208.78376 213.75261 218.72147 223.69033 228.65918 238.5969 243.56575 248.5346 253.50347 258.47233 263.4412 273.37895 283.31669 288.28556">E_dstMin{d_srcA,d_srcB}||</tspan><tspan y="-236.40366" x="134.2509 144.18862 149.15747 154.12633 159.09519 164.06404 169.0329 174.00176 178.97061 188.90833 193.87718 203.8149 208.78376 213.75261 218.72147 223.69033 233.62804 238.5969 243.56575 248.5346 253.50347 263.4412 268.41007 273.37895 283.31669 288.28556 293.25444 298.2233 303.19218 308.16105 318.0988 323.06767 328.03654 333.0054 337.97428 342.94316 347.91203 357.84977 362.81864 367.7875 372.75639 377.72526 382.69413 387.663 392.63188">#Stallingatfetchwhileretpassesthroughpipeline</tspan><tspan y="-224.4481" x="134.2509 139.21976 144.18862 149.15747 159.09519 164.06404 174.00176 183.93947 188.90833 193.87718 198.84604 203.8149 208.78376 213.75261 218.72147 228.65918 233.62804 238.5969 243.56575 248.5346 253.50347 258.47233 263.4412 273.37895 278.3478 283.31669 288.28556 293.25444 298.2233 303.19218 313.1299 318.0988">IRETin{D_icode,E_icode,M_icode};</tspan></text>
<path transform="matrix(1,0,0,-1,-42.7104,726.12)" stroke-width="12.951" stroke-linecap="butt" stroke-miterlimit="10" stroke-linejoin="miter" fill="none" stroke="#c7eafb" d="M92.507 197.446H441.199"/>
<text fill="#231f20" xml:space="preserve" transform="matrix(1 0 -0 1 -42.7104 726.12)" font-size="11.208" font-family="StoneSans" font-weight="bold"><tspan y="-192.963" x="94.5 101.14635 105.640758 111.67066 117.02808 121.38799 124.40295 129.76038 139.10785 145.7542 150.24861 157.02945 164.01204 167.027 173.15778 186.62979 193.06319 196.27988 202.71327">PracticeProblem4.37</tspan></text>
<text fill="#231f20" xml:space="preserve" transform="matrix(1 0 -0 1 -42.7104 726.12)" font-size="9.9626" font-family="TimesTen"><tspan y="-178.019" x="94.5 104.4626 108.33805 111.10765 114.42519 121.89714 130.19599 137.38898 146.52468 150.94808 156.48728 162.02648 169.49842 172.81597 178.35517 184.72127 188.03882 193.57802 201.04996 204.92542 207.69503 212.67632 218.21552 223.19681">WriteHCLcodeforthesignal</tspan></text>
<text fill="#231f20" xml:space="preserve" transform="matrix(1 0 -0 1 -42.7104 726.12)" font-size="9.9626" font-family="StoneSans"><tspan y="-178.019" x="228.4591 235.79158 240.77288 244.64833 248.08544 253.06673 255.43782">D_stall</tspan></text>
<text fill="#231f20" xml:space="preserve" transform="matrix(1 0 -0 1 -42.7104 726.12)" font-size="9.9626" font-family="TimesTen"><tspan y="-178.019" x="260.30058 263.07017 271.10005 274.41758 279.9568 287.42875 293.5159 297.39137 303.47853 313.16218 315.93177 324.23063 329.76985 332.53944 337.52073 345.81959 350.80088 356.3401 359.65763 364.63893 367.95646 370.72605 376.26527 381.80448">inthePIPEimplementation.</tspan></text>
<path transform="matrix(1,0,0,-1,-42.7104,726.12)" stroke-width=".498" stroke-linecap="butt" stroke-miterlimit="10" stroke-linejoin="miter" fill="none" stroke="#00adef" d="M94.5 170.298H441.2"/>
<text fill="#231f20" xml:space="preserve" transform="matrix(1 0 -0 1 -42.7104 726.12)" font-size="9.9626" font-family="TimesTen"><tspan y="-138.563" x="112.433 118.52015 121.28975 126.82896 131.81026 134.57987 137.34947 142.88867 150.46125 154.3367 159.318 164.29929 167.0689 170.94435 174.2619 179.2432 185.70993 196.60005 204.8989 210.4381 214.31356 220.22238 225.76158 233.33415 237.20961 242.1909 248.09973 251.41728 259.54777 265.08699 270.6262 276.1654 281.70463 284.4742 292.04679 295.36433 300.90354 307.37028 314.94285 323.2417 326.0113 329.88676 335.42597 339.30143 344.2827 349.82194 352.59153 357.01493 360.33247 365.31376 373.44425 378.98347 382.85893 387.8402 393.37944 397.80284 405.93333 411.47254 417.93928">PipelineregisterDmustbesettobubbleforamispredictedbranchora</tspan></text>
<text fill="#231f20" xml:space="preserve" transform="matrix(1 0 -0 1 -42.7104 726.12)" font-size="9.9626" font-family="ZztexMono"><tspan y="-138.563" x="425.51069 430.74107 435.97145">ret</tspan></text>
<text fill="#231f20" xml:space="preserve" transform="matrix(1 0 -0 1 -42.7104 726.12)" font-size="9.9626" font-family="TimesTen"><tspan y="-126.60689" x="94.49933 97.26893 102.808139 106.683589 110.00113 113.87658 119.41579 123.83918 127.15672 129.92633 135.46553 141.00473 147.11579 155.46445 162.96031 166.27787 171.81707 180.41876 185.40006 190.93926 195.92055 198.69016 203.67145 207.5469 210.31652 217.81238 220.58199 229.7416 233.05915 238.59835 247.20005 252.73925 256.6147 261.59599 266.01939 271.00068 276.5399 279.30949 284.8487 293.4504 297.32588 302.30717 306.73057 310.0481 312.8177 318.3569 327.51655 331.392 336.9312 342.47044 349.66343 352.99095 359.38395 364.92317 370.46238 377.65538 382.63667 387.61796 392.59925 396.29539 402.6884 405.45799 412.39595 416.2714 421.8106 427.34983 432.88905 435.65864">instruction.Astheanalysisintheprecedingsectionshows,however,itshould</tspan></text>
</g>
</svg>
