<svg xmlns="http://www.w3.org/2000/svg" xmlns:xlink="http://www.w3.org/1999/xlink" version="1.1" width="532.80007" height="664.92" viewBox="0 0 532.80007 664.92">
<defs>
<clipPath id="clip_3144">
<path transform="matrix(1,0,0,-1,-35.28,726.12)" d="M35.28 61.2H568.08V726.12H35.28Z" fill-rule="evenodd"/>
</clipPath>
<clipPath id="clip_3145">
<path transform="matrix(1,0,0,-1,-35.28,726.12)" d="M505.857 662.633H170.79999V202.383H505.857ZM170.8 662.633"/>
</clipPath>
<clipPath id="clip_3146">
<path transform="matrix(1,0,0,-1,-35.28,726.12)" d="M0 792H612V.030029297H0Z"/>
</clipPath>
</defs>
<g clip-path="url(#clip_3144)">
<text xml:space="preserve" transform="matrix(1 0 -0 1 -35.28 726.12)" font-size="9.4645" font-family="StoneSans" font-weight="bold"><tspan y="-681.875" x="87.1139 92.546527 97.97915">378</tspan></text>
<text xml:space="preserve" transform="matrix(1 0 -0 1 -35.28 726.12)" font-size="8.4682" font-family="StoneSans"><tspan y="-681.875" x="116.115 121.90725 126.861148 131.09525 136.15076 139.07228 143.36566 148.74297 162.07192 166.61934 169.56627 174.41855 178.49176 182.78514 186.07927 189.3734 194.22568 199.60298 204.78553 207.58003 211.65325 216.60715 218.62258 221.5441 225.83748 229.91069 232.83222 237.66756 240.61449">Chapter4ProcessorArchitecture</tspan></text>
<path transform="matrix(1,0,0,-1,-35.28,726.12)" stroke-width=".5" stroke-linecap="butt" stroke-miterlimit="4" stroke-linejoin="miter" fill="none" stroke="#231f20" d="M230.478 584.488V569.99"/>
<path transform="matrix(1,0,0,-1,-35.28,726.12)" d="M230.478 586.641 231.718 583.606 230.478 584.326 229.238 583.606 230.478 586.641" fill="#231f20"/>
<path transform="matrix(1,0,0,-1,-35.28,726.12)" d="M242.681 563.965C242.681 562.307 241.337 560.965 239.681 560.965H222.016C220.359 560.965 219.016 562.307 219.016 563.965V574.229C219.016 575.886 220.359 577.229 222.016 577.229H239.681C241.337 577.229 242.681 575.886 242.681 574.229V563.965" fill="#b1b4b6"/>
<path transform="matrix(1,0,0,-1,-35.28,726.12)" d="M241.384 565.401C241.384 563.744 240.04 562.401 238.384 562.401H220.718C219.062 562.401 217.718 563.744 217.718 565.401V575.665C217.718 577.322 219.062 578.665 220.718 578.665H238.384C240.04 578.665 241.384 577.322 241.384 575.665V565.401" fill="#c6c8ca"/>
<path transform="matrix(1,0,0,-1,-35.28,726.12)" stroke-width=".75" stroke-linecap="butt" stroke-miterlimit="4" stroke-linejoin="miter" fill="none" stroke="#231f20" d="M241.384 565.401C241.384 563.744 240.04 562.401 238.384 562.401H220.718C219.062 562.401 217.718 563.744 217.718 565.401V575.665C217.718 577.322 219.062 578.665 220.718 578.665H238.384C240.04 578.665 241.384 577.322 241.384 575.665V565.401Z"/>
<path transform="matrix(1,0,0,-1,-35.28,726.12)" stroke-width=".75" stroke-linecap="butt" stroke-dasharray=".75,.75" stroke-miterlimit="4" stroke-linejoin="miter" fill="none" stroke="#231f20" d="M236.803 560.354V552.279H340.81V535.05"/>
<path transform="matrix(1,0,0,-1,-35.28,726.12)" d="M236.803 562.507 238.043 559.472 236.803 560.193 235.563 559.472 236.803 562.507" fill="#231f20"/>
<path transform="matrix(1,0,0,-1,-35.28,726.12)" stroke-width=".75" stroke-linecap="butt" stroke-dasharray=".75,.75" stroke-miterlimit="4" stroke-linejoin="miter" fill="none" stroke="#231f20" d="M224.153 560.354V249.05H252.81"/>
<path transform="matrix(1,0,0,-1,-35.28,726.12)" d="M224.153 562.507 225.393 559.472 224.153 560.193 222.913 559.472 224.153 562.507" fill="#231f20"/>
<path transform="matrix(1,0,0,-1,-35.28,726.12)" d="M403.478 611.451C403.478 609.794 402.134 608.451 400.478 608.451H218C216.344 608.451 215 609.794 215 611.451V624.965C215 626.622 216.344 627.965 218 627.965H400.478C402.134 627.965 403.478 626.622 403.478 624.965V611.451" fill="#b1b4b6"/>
<path transform="matrix(1,0,0,-1,-35.28,726.12)" d="M316.02 521.87C316.02 520.213 314.676 518.87 313.02 518.87H291.355C289.698 518.87 288.355 520.213 288.355 521.87V535.134C288.355 536.791 289.698 538.134 291.355 538.134H313.02C314.676 538.134 316.02 536.791 316.02 535.134V521.87" fill="#b1b4b6"/>
<path transform="matrix(1,0,0,-1,-35.28,726.12)" d="M355.131 492.755C355.131 491.429 354.055 490.355 352.731 490.355H335.399C334.073 490.355 332.998 491.429 332.998 492.755V503.366C332.998 504.692 334.073 505.766 335.399 505.766H352.731C354.055 505.766 355.131 504.692 355.131 503.366V492.755" fill="#b1b4b6"/>
<path transform="matrix(1,0,0,-1,-35.28,726.12)" d="M381.458 492.755C381.458 491.429 380.382 490.355 379.058 490.355H361.726C360.4 490.355 359.325 491.429 359.325 492.755V503.366C359.325 504.692 360.4 505.766 361.726 505.766H379.058C380.382 505.766 381.458 504.692 381.458 503.366V492.755" fill="#b1b4b6"/>
<path transform="matrix(1,0,0,-1,-35.28,726.12)" d="M410.486 434.476C410.486 433.15 409.409 432.076 408.085 432.076H386.753C385.427 432.076 384.353 433.15 384.353 434.476V450.087C384.353 451.413 385.427 452.487 386.753 452.487H408.085C409.409 452.487 410.486 451.413 410.486 450.087V434.476" fill="#b1b4b6"/>
<path transform="matrix(1,0,0,-1,-35.28,726.12)" d="M359.132 407.174C359.132 405.848 358.056 404.774 356.732 404.774H335.4C334.073 404.774 332.999 405.848 332.999 407.174V420.785C332.999 422.112 334.073 423.186 335.4 423.186H356.732C358.056 423.186 359.132 422.112 359.132 420.785V407.174" fill="#b1b4b6"/>
<path transform="matrix(1,0,0,-1,-35.28,726.12)" d="M322.404 407.174C322.404 405.848 321.328 404.774 320.004 404.774H298.672C297.346 404.774 296.272 405.848 296.272 407.174V420.785C296.272 422.112 297.346 423.186 298.672 423.186H320.004C321.328 423.186 322.404 422.112 322.404 420.785V407.174" fill="#b1b4b6"/>
<path transform="matrix(1,0,0,-1,-35.28,726.12)" d="M428.198 337.625C428.198 336.434 427.233 335.468 426.039 335.468H410.447C409.256 335.468 408.289 336.434 408.289 337.625V345.013C408.289 346.206 409.256 347.173 410.447 347.173H426.039C427.233 347.173 428.198 346.206 428.198 345.013V337.625" fill="#b1b4b6"/>
<path transform="matrix(1,0,0,-1,-35.28,726.12)" d="M448.45 337.625C448.45 336.434 447.485 335.468 446.291 335.468H430.699C429.508 335.468 428.541 336.434 428.541 337.625V345.013C428.541 346.206 429.508 347.173 430.699 347.173H446.291C447.485 347.173 448.45 346.206 448.45 345.013V337.625" fill="#b1b4b6"/>
<path transform="matrix(1,0,0,-1,-35.28,726.12)" d="M468.702 337.625C468.702 336.434 467.737 335.468 466.543 335.468H450.951C449.76 335.468 448.793 336.434 448.793 337.625V345.013C448.793 346.206 449.76 347.173 450.951 347.173H466.543C467.737 347.173 468.702 346.206 468.702 345.013V337.625" fill="#b1b4b6"/>
<path transform="matrix(1,0,0,-1,-35.28,726.12)" d="M488.954 337.625C488.954 336.434 487.988 335.468 486.795 335.468H471.203C470.012 335.468 469.045 336.434 469.045 337.625V345.013C469.045 346.206 470.012 347.173 471.203 347.173H486.795C487.988 347.173 488.954 346.206 488.954 345.013V337.625" fill="#b1b4b6"/>
<path transform="matrix(1,0,0,-1,-35.28,726.12)" stroke-width=".5" stroke-linecap="butt" stroke-miterlimit="4" stroke-linejoin="miter" fill="none" stroke="#231f20" d="M269.476 248.639V271.98"/>
<path transform="matrix(1,0,0,-1,-35.28,726.12)" d="M269.476 273.376 270.716 270.342 269.476 271.062 268.237 270.342 269.476 273.376" fill="#231f20"/>
<path transform="matrix(1,0,0,-1,-35.28,726.12)" stroke-width=".5" stroke-linecap="butt" stroke-miterlimit="4" stroke-linejoin="miter" fill="none" stroke="#231f20" d="M307.477 441.383H295.115"/>
<path transform="matrix(1,0,0,-1,-35.28,726.12)" d="M293.023 441.383 296.058 442.623 295.338 441.383 296.058 440.143 293.023 441.383" fill="#231f20"/>
<path transform="matrix(1,0,0,-1,-35.28,726.12)" stroke-width="1.5" stroke-linecap="butt" stroke-miterlimit="4" stroke-linejoin="miter" fill="none" stroke="#231f20" d="M344.821 424.063V432.563"/>
<path transform="matrix(1,0,0,-1,-35.28,726.12)" stroke-width=".5" stroke-linecap="butt" stroke-miterlimit="4" stroke-linejoin="miter" fill="none" stroke="#231f20" d="M325.637 449.043V457.543"/>
<path transform="matrix(1,0,0,-1,-35.28,726.12)" stroke-width="1.5" stroke-linecap="butt" stroke-miterlimit="4" stroke-linejoin="miter" fill="none" stroke="#231f20" d="M377.19 328.616V356.457"/>
<path transform="matrix(1,0,0,-1,-35.28,726.12)" d="M377.19 358.333 379.05 353.781 377.19 354.862 375.33 353.781 377.19 358.333" fill="#231f20"/>
<path transform="matrix(1,0,0,-1,-35.28,726.12)" stroke-width="1.5" stroke-linecap="butt" stroke-miterlimit="4" stroke-linejoin="miter" fill="none" stroke="#231f20" d="M397.315 328.616V356.457"/>
<path transform="matrix(1,0,0,-1,-35.28,726.12)" d="M397.315 358.333 399.175 353.781 397.315 354.862 395.455 353.781 397.315 358.333" fill="#231f20"/>
<path transform="matrix(1,0,0,-1,-35.28,726.12)" stroke-width=".5" stroke-linecap="butt" stroke-miterlimit="4" stroke-linejoin="miter" fill="none" stroke="#231f20" d="M417.19 348.366V355.957"/>
<path transform="matrix(1,0,0,-1,-35.28,726.12)" d="M417.19 357.833 418.43 354.799 417.19 355.519 415.95 354.799 417.19 357.833" fill="#231f20"/>
<path transform="matrix(1,0,0,-1,-35.28,726.12)" d="M293.576 431.171H271.22499V447.371H293.576ZM271.225 431.171" fill="#231f20"/>
<path transform="matrix(1,0,0,-1,-35.28,726.12)" d="M292.736 432.011H270.38499V448.211H292.736ZM270.385 432.011" fill="#d4effc"/>
<path transform="matrix(1,0,0,-1,-35.28,726.12)" stroke-width=".5" stroke-linecap="butt" stroke-miterlimit="4" stroke-linejoin="miter" fill="none" stroke="#00adef" d="M292.736 432.011H270.38499V448.211H292.736Z"/>
<path transform="matrix(1,0,0,-1,-35.28,726.12)" d="M303.317 431.702H354.077L343.023 450.201H315.274L302.641 431.702H303.317" fill="#231f20"/>
<path transform="matrix(1,0,0,-1,-35.28,726.12)" stroke-width=".5" stroke-linecap="butt" stroke-miterlimit="4" stroke-linejoin="miter" fill="none" stroke="#231f20" d="M303.317 431.702H354.077L343.023 450.201H315.274L302.641 431.702H303.317Z"/>
<path transform="matrix(1,0,0,-1,-35.28,726.12)" d="M301.317 432.702H352.077L341.023 451.201H313.274L300.641 432.702H301.317" fill="#d4effc"/>
<path transform="matrix(1,0,0,-1,-35.28,726.12)" stroke-width=".5" stroke-linecap="butt" stroke-miterlimit="4" stroke-linejoin="miter" fill="none" stroke="#00adef" d="M301.317 432.702H352.077L341.023 451.201H313.274L300.641 432.702H301.317Z"/>
<path transform="matrix(1,0,0,-1,-35.28,726.12)" d="M402.18 612.887C402.18 611.23 400.836 609.887 399.18 609.887H216.702C215.046 609.887 213.702 611.23 213.702 612.887V626.401C213.702 628.058 215.046 629.401 216.702 629.401H399.18C400.836 629.401 402.18 628.058 402.18 626.401V612.887" fill="#c6c8ca"/>
<path transform="matrix(1,0,0,-1,-35.28,726.12)" stroke-width=".75" stroke-linecap="butt" stroke-miterlimit="4" stroke-linejoin="miter" fill="none" stroke="#231f20" d="M402.18 612.887C402.18 611.23 400.836 609.887 399.18 609.887H216.702C215.046 609.887 213.702 611.23 213.702 612.887V626.401C213.702 628.058 215.046 629.401 216.702 629.401H399.18C400.836 629.401 402.18 628.058 402.18 626.401V612.887Z"/>
<path transform="matrix(1,0,0,-1,-35.28,726.12)" d="M334.484 648.645C334.484 644.337 327.935 640.844 319.857 640.844 311.779 640.844 305.231 644.337 305.231 648.645 305.231 652.953 311.779 656.446 319.857 656.446 327.935 656.446 334.484 652.953 334.484 648.645" fill="#ffffff"/>
<path transform="matrix(1,0,0,-1,-35.28,726.12)" stroke-width=".5" stroke-linecap="butt" stroke-miterlimit="4" stroke-linejoin="miter" fill="none" stroke="#231f20" d="M334.484 648.645C334.484 644.337 327.935 640.844 319.857 640.844 311.779 640.844 305.231 644.337 305.231 648.645 305.231 652.953 311.779 656.446 319.857 656.446 327.935 656.446 334.484 652.953 334.484 648.645Z"/>
<path transform="matrix(1,0,0,-1,-35.28,726.12)" d="M314.722 523.306C314.722 521.649 313.379 520.306 311.722 520.306H290.057C288.4 520.306 287.057 521.649 287.057 523.306V536.57C287.057 538.227 288.4 539.57 290.057 539.57H311.722C313.379 539.57 314.722 538.227 314.722 536.57V523.306" fill="#c6c8ca"/>
<path transform="matrix(1,0,0,-1,-35.28,726.12)" stroke-width=".75" stroke-linecap="butt" stroke-miterlimit="4" stroke-linejoin="miter" fill="none" stroke="#231f20" d="M314.722 523.306C314.722 521.649 313.379 520.306 311.722 520.306H290.057C288.4 520.306 287.057 521.649 287.057 523.306V536.57C287.057 538.227 288.4 539.57 290.057 539.57H311.722C313.379 539.57 314.722 538.227 314.722 536.57V523.306Z"/>
<path transform="matrix(1,0,0,-1,-35.28,726.12)" d="M353.833 494.19C353.833 492.864 352.757 491.79 351.433 491.79H334.101C332.775 491.79 331.7 492.864 331.7 494.19V504.801C331.7 506.127 332.775 507.201 334.101 507.201H351.433C352.757 507.201 353.833 506.127 353.833 504.801V494.19" fill="#c6c8ca"/>
<path transform="matrix(1,0,0,-1,-35.28,726.12)" stroke-width=".75" stroke-linecap="butt" stroke-miterlimit="4" stroke-linejoin="miter" fill="none" stroke="#231f20" d="M353.833 494.19C353.833 492.864 352.757 491.79 351.433 491.79H334.101C332.775 491.79 331.7 492.864 331.7 494.19V504.801C331.7 506.127 332.775 507.201 334.101 507.201H351.433C352.757 507.201 353.833 506.127 353.833 504.801V494.19Z"/>
<path transform="matrix(1,0,0,-1,-35.28,726.12)" d="M380.16 494.19C380.16 492.864 379.084 491.79 377.76 491.79H360.428C359.102 491.79 358.028 492.864 358.028 494.19V504.801C358.028 506.127 359.102 507.201 360.428 507.201H377.76C379.084 507.201 380.16 506.127 380.16 504.801V494.19" fill="#c6c8ca"/>
<path transform="matrix(1,0,0,-1,-35.28,726.12)" stroke-width=".75" stroke-linecap="butt" stroke-miterlimit="4" stroke-linejoin="miter" fill="none" stroke="#231f20" d="M380.16 494.19C380.16 492.864 379.084 491.79 377.76 491.79H360.428C359.102 491.79 358.028 492.864 358.028 494.19V504.801C358.028 506.127 359.102 507.201 360.428 507.201H377.76C379.084 507.201 380.16 506.127 380.16 504.801V494.19Z"/>
<path transform="matrix(1,0,0,-1,-35.28,726.12)" d="M409.188 435.911C409.188 434.586 408.112 433.511 406.787 433.511H385.455C384.129 433.511 383.055 434.586 383.055 435.911V451.523C383.055 452.848 384.129 453.923 385.455 453.923H406.787C408.112 453.923 409.188 452.848 409.188 451.523V435.911" fill="#c6c8ca"/>
<path transform="matrix(1,0,0,-1,-35.28,726.12)" stroke-width=".75" stroke-linecap="butt" stroke-miterlimit="4" stroke-linejoin="miter" fill="none" stroke="#231f20" d="M409.188 435.911C409.188 434.586 408.112 433.511 406.787 433.511H385.455C384.129 433.511 383.055 434.586 383.055 435.911V451.523C383.055 452.848 384.129 453.923 385.455 453.923H406.787C408.112 453.923 409.188 452.848 409.188 451.523V435.911Z"/>
<path transform="matrix(1,0,0,-1,-35.28,726.12)" d="M357.834 408.61C357.834 407.283 356.758 406.209 355.434 406.209H334.102C332.776 406.209 331.701 407.283 331.701 408.61V422.221C331.701 423.547 332.776 424.621 334.102 424.621H355.434C356.758 424.621 357.834 423.547 357.834 422.221V408.61" fill="#c6c8ca"/>
<path transform="matrix(1,0,0,-1,-35.28,726.12)" stroke-width=".75" stroke-linecap="butt" stroke-miterlimit="4" stroke-linejoin="miter" fill="none" stroke="#231f20" d="M357.834 408.61C357.834 407.283 356.758 406.209 355.434 406.209H334.102C332.776 406.209 331.701 407.283 331.701 408.61V422.221C331.701 423.547 332.776 424.621 334.102 424.621H355.434C356.758 424.621 357.834 423.547 357.834 422.221V408.61Z"/>
<path transform="matrix(1,0,0,-1,-35.28,726.12)" d="M321.107 408.61C321.107 407.283 320.03 406.209 318.706 406.209H297.374C296.048 406.209 294.974 407.283 294.974 408.61V422.221C294.974 423.547 296.048 424.621 297.374 424.621H318.706C320.03 424.621 321.107 423.547 321.107 422.221V408.61" fill="#c6c8ca"/>
<path transform="matrix(1,0,0,-1,-35.28,726.12)" stroke-width=".75" stroke-linecap="butt" stroke-miterlimit="4" stroke-linejoin="miter" fill="none" stroke="#231f20" d="M321.107 408.61C321.107 407.283 320.03 406.209 318.706 406.209H297.374C296.048 406.209 294.974 407.283 294.974 408.61V422.221C294.974 423.547 296.048 424.621 297.374 424.621H318.706C320.03 424.621 321.107 423.547 321.107 422.221V408.61Z"/>
<path transform="matrix(1,0,0,-1,-35.28,726.12)" d="M377.917 514.762H336.168V541.762H377.917ZM336.168 514.762" fill="#231f20"/>
<path transform="matrix(1,0,0,-1,-35.28,726.12)" d="M376.618 516.062H334.868V543.062H376.618ZM334.868 516.062" fill="#d4effc"/>
<path transform="matrix(1,0,0,-1,-35.28,726.12)" stroke-width=".5" stroke-linecap="butt" stroke-miterlimit="4" stroke-linejoin="miter" fill="none" stroke="#00adef" d="M376.618 516.062H334.868V543.062H376.618Z"/>
<path transform="matrix(1,0,0,-1,-35.28,726.12)" stroke-width=".5" stroke-linecap="butt" stroke-miterlimit="4" stroke-linejoin="miter" fill="none" stroke="#231f20" d="M437.823 348.68V356.271"/>
<path transform="matrix(1,0,0,-1,-35.28,726.12)" d="M437.823 358.147 439.064 355.112 437.823 355.832 436.584 355.112 437.823 358.147" fill="#231f20"/>
<path transform="matrix(1,0,0,-1,-35.28,726.12)" stroke-width=".5" stroke-linecap="butt" stroke-miterlimit="4" stroke-linejoin="miter" fill="none" stroke="#231f20" d="M458.134 348.366V355.957"/>
<path transform="matrix(1,0,0,-1,-35.28,726.12)" d="M458.134 357.833 459.374 354.799 458.134 355.519 456.895 354.799 458.134 357.833" fill="#231f20"/>
<path transform="matrix(1,0,0,-1,-35.28,726.12)" d="M427.524 366.674C427.524 362.121 423.032 358.432 417.491 358.432 411.948 358.432 407.456 362.121 407.456 366.674 407.456 371.226 411.948 374.915 417.491 374.915 423.032 374.915 427.524 371.226 427.524 366.674" fill="#ffffff"/>
<path transform="matrix(1,0,0,-1,-35.28,726.12)" stroke-width=".5" stroke-linecap="butt" stroke-miterlimit="4" stroke-linejoin="miter" fill="none" stroke="#231f20" d="M427.524 366.674C427.524 362.121 423.032 358.432 417.491 358.432 411.948 358.432 407.456 362.121 407.456 366.674 407.456 371.226 411.948 374.915 417.491 374.915 423.032 374.915 427.524 371.226 427.524 366.674Z"/>
<path transform="matrix(1,0,0,-1,-35.28,726.12)" d="M407.157 366.674C407.157 362.121 402.666 358.432 397.125 358.432 391.582 358.432 387.09 362.121 387.09 366.674 387.09 371.226 391.582 374.915 397.125 374.915 402.666 374.915 407.157 371.226 407.157 366.674" fill="#ffffff"/>
<path transform="matrix(1,0,0,-1,-35.28,726.12)" stroke-width=".5" stroke-linecap="butt" stroke-miterlimit="4" stroke-linejoin="miter" fill="none" stroke="#231f20" d="M407.157 366.674C407.157 362.121 402.666 358.432 397.125 358.432 391.582 358.432 387.09 362.121 387.09 366.674 387.09 371.226 391.582 374.915 397.125 374.915 402.666 374.915 407.157 371.226 407.157 366.674Z"/>
<path transform="matrix(1,0,0,-1,-35.28,726.12)" d="M386.999 366.674C386.999 362.121 382.508 358.432 376.967 358.432 371.424 358.432 366.932 362.121 366.932 366.674 366.932 371.226 371.424 374.915 376.967 374.915 382.508 374.915 386.999 371.226 386.999 366.674" fill="#ffffff"/>
<path transform="matrix(1,0,0,-1,-35.28,726.12)" stroke-width=".5" stroke-linecap="butt" stroke-miterlimit="4" stroke-linejoin="miter" fill="none" stroke="#231f20" d="M386.999 366.674C386.999 362.121 382.508 358.432 376.967 358.432 371.424 358.432 366.932 362.121 366.932 366.674 366.932 371.226 371.424 374.915 376.967 374.915 382.508 374.915 386.999 371.226 386.999 366.674Z"/>
<path transform="matrix(1,0,0,-1,-35.28,726.12)" d="M426.901 339.061C426.901 337.869 425.935 336.904 424.741 336.904H409.15C407.958 336.904 406.991 337.869 406.991 339.061V346.448C406.991 347.642 407.958 348.609 409.15 348.609H424.741C425.935 348.609 426.901 347.642 426.901 346.448V339.061" fill="#c6c8ca"/>
<path transform="matrix(1,0,0,-1,-35.28,726.12)" stroke-width=".75" stroke-linecap="butt" stroke-miterlimit="4" stroke-linejoin="miter" fill="none" stroke="#231f20" d="M426.901 339.061C426.901 337.869 425.935 336.904 424.741 336.904H409.15C407.958 336.904 406.991 337.869 406.991 339.061V346.448C406.991 347.642 407.958 348.609 409.15 348.609H424.741C425.935 348.609 426.901 347.642 426.901 346.448V339.061Z"/>
<path transform="matrix(1,0,0,-1,-35.28,726.12)" d="M447.776 366.674C447.776 362.121 443.284 358.432 437.743 358.432 432.2 358.432 427.708 362.121 427.708 366.674 427.708 371.226 432.2 374.915 437.743 374.915 443.284 374.915 447.776 371.226 447.776 366.674" fill="#ffffff"/>
<path transform="matrix(1,0,0,-1,-35.28,726.12)" stroke-width=".5" stroke-linecap="butt" stroke-miterlimit="4" stroke-linejoin="miter" fill="none" stroke="#231f20" d="M447.776 366.674C447.776 362.121 443.284 358.432 437.743 358.432 432.2 358.432 427.708 362.121 427.708 366.674 427.708 371.226 432.2 374.915 437.743 374.915 443.284 374.915 447.776 371.226 447.776 366.674Z"/>
<path transform="matrix(1,0,0,-1,-35.28,726.12)" d="M447.153 339.061C447.153 337.869 446.187 336.904 444.993 336.904H429.402C428.21 336.904 427.243 337.869 427.243 339.061V346.448C427.243 347.642 428.21 348.609 429.402 348.609H444.993C446.187 348.609 447.153 347.642 447.153 346.448V339.061" fill="#c6c8ca"/>
<path transform="matrix(1,0,0,-1,-35.28,726.12)" stroke-width=".75" stroke-linecap="butt" stroke-miterlimit="4" stroke-linejoin="miter" fill="none" stroke="#231f20" d="M447.153 339.061C447.153 337.869 446.187 336.904 444.993 336.904H429.402C428.21 336.904 427.243 337.869 427.243 339.061V346.448C427.243 347.642 428.21 348.609 429.402 348.609H444.993C446.187 348.609 447.153 347.642 447.153 346.448V339.061Z"/>
<path transform="matrix(1,0,0,-1,-35.28,726.12)" d="M468.028 366.674C468.028 362.121 463.536 358.432 457.995 358.432 452.452 358.432 447.96 362.121 447.96 366.674 447.96 371.226 452.452 374.915 457.995 374.915 463.536 374.915 468.028 371.226 468.028 366.674" fill="#ffffff"/>
<path transform="matrix(1,0,0,-1,-35.28,726.12)" stroke-width=".5" stroke-linecap="butt" stroke-miterlimit="4" stroke-linejoin="miter" fill="none" stroke="#231f20" d="M468.028 366.674C468.028 362.121 463.536 358.432 457.995 358.432 452.452 358.432 447.96 362.121 447.96 366.674 447.96 371.226 452.452 374.915 457.995 374.915 463.536 374.915 468.028 371.226 468.028 366.674Z"/>
<path transform="matrix(1,0,0,-1,-35.28,726.12)" d="M467.404 339.061C467.404 337.869 466.439 336.904 465.245 336.904H449.654C448.462 336.904 447.495 337.869 447.495 339.061V346.448C447.495 347.642 448.462 348.609 449.654 348.609H465.245C466.439 348.609 467.404 347.642 467.404 346.448V339.061" fill="#c6c8ca"/>
<path transform="matrix(1,0,0,-1,-35.28,726.12)" stroke-width=".75" stroke-linecap="butt" stroke-miterlimit="4" stroke-linejoin="miter" fill="none" stroke="#231f20" d="M467.404 339.061C467.404 337.869 466.439 336.904 465.245 336.904H449.654C448.462 336.904 447.495 337.869 447.495 339.061V346.448C447.495 347.642 448.462 348.609 449.654 348.609H465.245C466.439 348.609 467.404 347.642 467.404 346.448V339.061Z"/>
<path transform="matrix(1,0,0,-1,-35.28,726.12)" d="M488.279 366.674C488.279 362.121 483.788 358.432 478.247 358.432 472.704 358.432 468.212 362.121 468.212 366.674 468.212 371.226 472.704 374.915 478.247 374.915 483.788 374.915 488.279 371.226 488.279 366.674" fill="#ffffff"/>
<path transform="matrix(1,0,0,-1,-35.28,726.12)" stroke-width=".5" stroke-linecap="butt" stroke-miterlimit="4" stroke-linejoin="miter" fill="none" stroke="#231f20" d="M488.279 366.674C488.279 362.121 483.788 358.432 478.247 358.432 472.704 358.432 468.212 362.121 468.212 366.674 468.212 371.226 472.704 374.915 478.247 374.915 483.788 374.915 488.279 371.226 488.279 366.674Z"/>
<path transform="matrix(1,0,0,-1,-35.28,726.12)" d="M487.656 339.061C487.656 337.869 486.691 336.904 485.497 336.904H469.905C468.714 336.904 467.747 337.869 467.747 339.061V346.448C467.747 347.642 468.714 348.609 469.905 348.609H485.497C486.691 348.609 487.656 347.642 487.656 346.448V339.061" fill="#c6c8ca"/>
<path transform="matrix(1,0,0,-1,-35.28,726.12)" stroke-width=".75" stroke-linecap="butt" stroke-miterlimit="4" stroke-linejoin="miter" fill="none" stroke="#231f20" d="M487.656 339.061C487.656 337.869 486.691 336.904 485.497 336.904H469.905C468.714 336.904 467.747 337.869 467.747 339.061V346.448C467.747 347.642 468.714 348.609 469.905 348.609H485.497C486.691 348.609 487.656 347.642 487.656 346.448V339.061Z"/>
<path transform="matrix(1,0,0,-1,-35.28,726.12)" stroke-width=".5" stroke-linecap="butt" stroke-miterlimit="4" stroke-linejoin="miter" fill="none" stroke="#231f20" d="M481.5 348.366V355.957"/>
<path transform="matrix(1,0,0,-1,-35.28,726.12)" d="M481.5 357.833 482.74 354.799 481.5 355.519 480.261 354.799 481.5 357.833" fill="#231f20"/>
<path transform="matrix(1,0,0,-1,-35.28,726.12)" stroke-width=".5" stroke-linecap="butt" stroke-miterlimit="4" stroke-linejoin="miter" fill="none" stroke="#231f20" d="M247.093 248.59V271.931"/>
<path transform="matrix(1,0,0,-1,-35.28,726.12)" d="M247.093 273.327 248.333 270.293 247.093 271.013 245.854 270.293 247.093 273.327" fill="#231f20"/>
<path transform="matrix(1,0,0,-1,-35.28,726.12)" stroke-width=".5" stroke-linecap="butt" stroke-miterlimit="4" stroke-linejoin="miter" fill="none" stroke="#231f20" d="M291.321 248.59V271.931"/>
<path transform="matrix(1,0,0,-1,-35.28,726.12)" d="M291.321 273.327 292.562 270.293 291.321 271.013 290.082 270.293 291.321 273.327" fill="#231f20"/>
<path transform="matrix(1,0,0,-1,-35.28,726.12)" stroke-width=".5" stroke-linecap="butt" stroke-miterlimit="4" stroke-linejoin="miter" fill="none" stroke="#231f20" d="M312.947 248.59V271.931"/>
<path transform="matrix(1,0,0,-1,-35.28,726.12)" d="M312.947 273.327 314.187 270.293 312.947 271.013 311.708 270.293 312.947 273.327" fill="#231f20"/>
<path transform="matrix(1,0,0,-1,-35.28,726.12)" stroke-width="1.5" stroke-linecap="butt" stroke-miterlimit="4" stroke-linejoin="miter" fill="none" stroke="#231f20" d="M333.799 248.59V271.931"/>
<path transform="matrix(1,0,0,-1,-35.28,726.12)" d="M333.799 273.327 335.659 268.776 333.799 269.856 331.94 268.776 333.799 273.327" fill="#231f20"/>
<path transform="matrix(1,0,0,-1,-35.28,726.12)" d="M300.848 281.648C300.848 277.095 296.357 273.405 290.816 273.405 285.273 273.405 280.78 277.095 280.78 281.648 280.78 286.199 285.273 289.889 290.816 289.889 296.357 289.889 300.848 286.199 300.848 281.648" fill="#ffffff"/>
<path transform="matrix(1,0,0,-1,-35.28,726.12)" stroke-width=".5" stroke-linecap="butt" stroke-miterlimit="4" stroke-linejoin="miter" fill="none" stroke="#231f20" d="M300.848 281.648C300.848 277.095 296.357 273.405 290.816 273.405 285.273 273.405 280.78 277.095 280.78 281.648 280.78 286.199 285.273 289.889 290.816 289.889 296.357 289.889 300.848 286.199 300.848 281.648Z"/>
<path transform="matrix(1,0,0,-1,-35.28,726.12)" d="M279.175 281.648C279.175 277.095 274.684 273.405 269.143 273.405 263.6 273.405 259.108 277.095 259.108 281.648 259.108 286.199 263.6 289.889 269.143 289.889 274.684 289.889 279.175 286.199 279.175 281.648" fill="#ffffff"/>
<path transform="matrix(1,0,0,-1,-35.28,726.12)" stroke-width=".5" stroke-linecap="butt" stroke-miterlimit="4" stroke-linejoin="miter" fill="none" stroke="#231f20" d="M279.175 281.648C279.175 277.095 274.684 273.405 269.143 273.405 263.6 273.405 259.108 277.095 259.108 281.648 259.108 286.199 263.6 289.889 269.143 289.889 274.684 289.889 279.175 286.199 279.175 281.648Z"/>
<path transform="matrix(1,0,0,-1,-35.28,726.12)" d="M322.333 281.648C322.333 277.095 317.842 273.405 312.301 273.405 306.758 273.405 302.266 277.095 302.266 281.648 302.266 286.199 306.758 289.889 312.301 289.889 317.842 289.889 322.333 286.199 322.333 281.648" fill="#ffffff"/>
<path transform="matrix(1,0,0,-1,-35.28,726.12)" stroke-width=".5" stroke-linecap="butt" stroke-miterlimit="4" stroke-linejoin="miter" fill="none" stroke="#231f20" d="M322.333 281.648C322.333 277.095 317.842 273.405 312.301 273.405 306.758 273.405 302.266 277.095 302.266 281.648 302.266 286.199 306.758 289.889 312.301 289.889 317.842 289.889 322.333 286.199 322.333 281.648Z"/>
<path transform="matrix(1,0,0,-1,-35.28,726.12)" d="M344.045 281.648C344.045 277.095 339.553 273.405 334.013 273.405 328.47 273.405 323.978 277.095 323.978 281.648 323.978 286.199 328.47 289.889 334.013 289.889 339.553 289.889 344.045 286.199 344.045 281.648" fill="#ffffff"/>
<path transform="matrix(1,0,0,-1,-35.28,726.12)" stroke-width=".5" stroke-linecap="butt" stroke-miterlimit="4" stroke-linejoin="miter" fill="none" stroke="#231f20" d="M344.045 281.648C344.045 277.095 339.553 273.405 334.013 273.405 328.47 273.405 323.978 277.095 323.978 281.648 323.978 286.199 328.47 289.889 334.013 289.889 339.553 289.889 344.045 286.199 344.045 281.648Z"/>
<path transform="matrix(1,0,0,-1,-35.28,726.12)" d="M373.643 281.648C373.643 277.095 369.151 273.405 363.61 273.405 358.067 273.405 353.574 277.095 353.574 281.648 353.574 286.199 358.067 289.889 363.61 289.889 369.151 289.889 373.643 286.199 373.643 281.648" fill="#ffffff"/>
<path transform="matrix(1,0,0,-1,-35.28,726.12)" stroke-width=".5" stroke-linecap="butt" stroke-miterlimit="4" stroke-linejoin="miter" fill="none" stroke="#231f20" d="M373.643 281.648C373.643 277.095 369.151 273.405 363.61 273.405 358.067 273.405 353.574 277.095 353.574 281.648 353.574 286.199 358.067 289.889 363.61 289.889 369.151 289.889 373.643 286.199 373.643 281.648Z"/>
<path transform="matrix(1,0,0,-1,-35.28,726.12)" stroke-width="1.5" stroke-linecap="butt" stroke-miterlimit="4" stroke-linejoin="miter" fill="none" stroke="#231f20" d="M363.863 263.391V270.931"/>
<path transform="matrix(1,0,0,-1,-35.28,726.12)" d="M363.863 272.807 365.724 268.256 363.863 269.335 362.003 268.256 363.863 272.807" fill="#231f20"/>
<path transform="matrix(1,0,0,-1,-35.28,726.12)" d="M411.921 300.271H369.171V327.271H411.921ZM369.171 300.271" fill="#231f20"/>
<path transform="matrix(1,0,0,-1,-35.28,726.12)" d="M410.622 301.571H367.872V328.571H410.622ZM367.872 301.571" fill="#d4effc"/>
<path transform="matrix(1,0,0,-1,-35.28,726.12)" stroke-width=".5" stroke-linecap="butt" stroke-miterlimit="4" stroke-linejoin="miter" fill="none" stroke="#00adef" d="M410.622 301.571H367.872V328.571H410.622Z"/>
<path transform="matrix(1,0,0,-1,-35.28,726.12)" d="M339.437 237.04H244.68701V262.03999H339.437ZM244.687 237.04" fill="#231f20"/>
<path transform="matrix(1,0,0,-1,-35.28,726.12)" d="M338.138 238.341H243.388V263.341H338.138ZM243.388 238.341" fill="#d4effc"/>
<path transform="matrix(1,0,0,-1,-35.28,726.12)" stroke-width=".5" stroke-linecap="butt" stroke-miterlimit="4" stroke-linejoin="miter" fill="none" stroke="#00adef" d="M338.138 238.341H243.388V263.341H338.138Z"/>
<path transform="matrix(1,0,0,-1,-35.28,726.12)" stroke-width="1" stroke-linecap="butt" stroke-miterlimit="4" stroke-linejoin="miter" fill="none" stroke="#231f20" d="M307.621 211.589H275.871V226.589H307.621Z"/>
<path transform="matrix(1,0,0,-1,-35.28,726.12)" stroke-width="1.5" stroke-linecap="butt" stroke-miterlimit="4" stroke-linejoin="miter" fill="none" stroke="#231f20" d="M361.537 581.049H499.83V323.023H415.088"/>
<path transform="matrix(1,0,0,-1,-35.28,726.12)" d="M411.678 323.023 416.229 324.883 415.15 323.023 416.229 321.163 411.678 323.023" fill="#231f20"/>
<path transform="matrix(1,0,0,-1,-35.28,726.12)" d="M361.537 582.799C362.504 582.799 363.287 582.014 363.287 581.049 363.287 580.082 362.504 579.299 361.537 579.299 360.572 579.299 359.787 580.082 359.787 581.049 359.787 582.014 360.572 582.799 361.537 582.799" fill="#231f20"/>
<path transform="matrix(1,0,0,-1,-35.28,726.12)" d="M304.389 377.549C305.356 377.549 306.139 376.764 306.139 375.799 306.139 374.832 305.356 374.049 304.389 374.049 303.424 374.049 302.639 374.832 302.639 375.799 302.639 376.764 303.424 377.549 304.389 377.549" fill="#231f20"/>
<path transform="matrix(1,0,0,-1,-35.28,726.12)" d="M377.159 386.32C378.126 386.32 378.909 385.534 378.909 384.57 378.909 383.603 378.126 382.82 377.159 382.82 376.195 382.82 375.409 383.603 375.409 384.57 375.409 385.534 376.195 386.32 377.159 386.32" fill="#231f20"/>
<path transform="matrix(1,0,0,-1,-35.28,726.12)" d="M377.113 483.931C378.08 483.931 378.863 483.146 378.863 482.181 378.863 481.214 378.08 480.431 377.113 480.431 376.149 480.431 375.363 481.214 375.363 482.181 375.363 483.146 376.149 483.931 377.113 483.931" fill="#231f20"/>
<path transform="matrix(1,0,0,-1,-35.28,726.12)" d="M340.447 479.737C341.414 479.737 342.197 478.951 342.197 477.987 342.197 477.02 341.414 476.237 340.447 476.237 339.482 476.237 338.697 477.02 338.697 477.987 338.697 478.951 339.482 479.737 340.447 479.737" fill="#231f20"/>
<path transform="matrix(1,0,0,-1,-35.28,726.12)" d="M246.977 547.606C247.944 547.606 248.727 546.821 248.727 545.856 248.727 544.889 247.944 544.106 246.977 544.106 246.012 544.106 245.227 544.889 245.227 545.856 245.227 546.821 246.012 547.606 246.977 547.606" fill="#231f20"/>
<path transform="matrix(1,0,0,-1,-35.28,726.12)" d="M281.477 489.133C282.444 489.133 283.227 488.348 283.227 487.383 283.227 486.416 282.444 485.633 281.477 485.633 280.512 485.633 279.727 486.416 279.727 487.383 279.727 488.348 280.512 489.133 281.477 489.133" fill="#231f20"/>
<path transform="matrix(1,0,0,-1,-35.28,726.12)" stroke-width=".5" stroke-linecap="butt" stroke-miterlimit="4" stroke-linejoin="miter" fill="none" stroke="#231f20" d="M247.138 289.919V607.156"/>
<path transform="matrix(1,0,0,-1,-35.28,726.12)" d="M247.138 609.31 248.378 606.275 247.138 606.995 245.898 606.275 247.138 609.31" fill="#231f20"/>
<path transform="matrix(1,0,0,-1,-35.28,726.12)" stroke-width=".75" stroke-linecap="butt" stroke-dasharray=".75,.75" stroke-miterlimit="4" stroke-linejoin="miter" fill="none" stroke="#231f20" d="M281.637 474.383V607.156"/>
<path transform="matrix(1,0,0,-1,-35.28,726.12)" d="M281.637 609.31 282.877 606.275 281.637 606.995 280.398 606.275 281.637 609.31" fill="#231f20"/>
<path transform="matrix(1,0,0,-1,-35.28,726.12)" stroke-width=".5" stroke-linecap="butt" stroke-miterlimit="4" stroke-linejoin="miter" fill="none" stroke="#231f20" d="M230.478 560.354V545.856H246.977"/>
<path transform="matrix(1,0,0,-1,-35.28,726.12)" d="M230.478 562.507 231.718 559.472 230.478 560.193 229.238 559.472 230.478 562.507" fill="#231f20"/>
<path transform="matrix(1,0,0,-1,-35.28,726.12)" stroke-width="1.5" stroke-linecap="butt" stroke-miterlimit="4" stroke-linejoin="miter" fill="none" stroke="#231f20" d="M361.637 570.133V608.104"/>
<path transform="matrix(1,0,0,-1,-35.28,726.12)" d="M361.637 609.675 363.497 605.123 361.637 606.203 359.778 605.123 361.637 609.675" fill="#231f20"/>
<path transform="matrix(1,0,0,-1,-35.28,726.12)" stroke-width="1.5" stroke-linecap="butt" stroke-miterlimit="4" stroke-linejoin="miter" fill="none" stroke="#231f20" d="M392.363 607.288V466.883H363.477V289.919"/>
<path transform="matrix(1,0,0,-1,-35.28,726.12)" d="M392.363 609.441 394.224 604.889 392.363 605.969 390.504 604.889 392.363 609.441" fill="#231f20"/>
<path transform="matrix(1,0,0,-1,-35.28,726.12)" stroke-width=".75" stroke-linecap="butt" stroke-dasharray=".75,.75" stroke-miterlimit="4" stroke-linejoin="miter" fill="none" stroke="#231f20" d="M281.637 448.383V456.883"/>
<path transform="matrix(1,0,0,-1,-35.28,726.12)" d="M281.637 459.036 282.877 456.002 281.637 456.722 280.398 456.002 281.637 459.036" fill="#231f20"/>
<path transform="matrix(1,0,0,-1,-35.28,726.12)" d="M325.637 459.536 326.877 456.502 325.637 457.222 324.398 456.502 325.637 459.536" fill="#231f20"/>
<path transform="matrix(1,0,0,-1,-35.28,726.12)" stroke-width="1.5" stroke-linecap="butt" stroke-miterlimit="4" stroke-linejoin="miter" fill="none" stroke="#231f20" d="M257.138 606.156V375.883H333.978V289.919"/>
<path transform="matrix(1,0,0,-1,-35.28,726.12)" d="M257.138 609.31 258.998 604.758 257.138 605.838 255.278 604.758 257.138 609.31" fill="#231f20"/>
<path transform="matrix(1,0,0,-1,-35.28,726.12)" stroke-width="1.5" stroke-linecap="butt" stroke-miterlimit="4" stroke-linejoin="miter" fill="none" stroke="#231f20" d="M325.529 474.834V477.883H494.13V308.883H414.952"/>
<path transform="matrix(1,0,0,-1,-35.28,726.12)" d="M411.763 308.883 416.315 310.743 415.235 308.883 416.315 307.024 411.763 308.883" fill="#231f20"/>
<path transform="matrix(1,0,0,-1,-35.28,726.12)" stroke-width="1.5" stroke-linecap="butt" stroke-miterlimit="4" stroke-linejoin="miter" fill="none" stroke="#231f20" d="M377.022 375.101V482.383H349.477V488.761"/>
<path transform="matrix(1,0,0,-1,-35.28,726.12)" d="M349.477 491.351 351.337 486.799 349.477 487.88 347.617 486.799 349.477 491.351" fill="#231f20"/>
<path transform="matrix(1,0,0,-1,-35.28,726.12)" stroke-width=".5" stroke-linecap="butt" stroke-miterlimit="4" stroke-linejoin="miter" fill="none" stroke="#231f20" d="M382.977 443.893H348.977"/>
<path transform="matrix(1,0,0,-1,-35.28,726.12)" d="M346.823 443.893 349.858 445.133 349.138 443.893 349.858 442.654 346.823 443.893" fill="#231f20"/>
<path transform="matrix(1,0,0,-1,-35.28,726.12)" stroke-width="1.5" stroke-linecap="butt" stroke-miterlimit="4" stroke-linejoin="miter" fill="none" stroke="#231f20" d="M397.017 375.101V395.383H344.827V403.383"/>
<path transform="matrix(1,0,0,-1,-35.28,726.12)" d="M344.827 405.866 346.688 401.315 344.827 402.395 342.968 401.315 344.827 405.866" fill="#231f20"/>
<path transform="matrix(1,0,0,-1,-35.28,726.12)" stroke-width="1.5" stroke-linecap="butt" stroke-miterlimit="4" stroke-linejoin="miter" fill="none" stroke="#231f20" d="M377.337 384.883H316.477V404.383"/>
<path transform="matrix(1,0,0,-1,-35.28,726.12)" d="M316.477 406.207 318.336 401.656 316.477 402.736 314.617 401.656 316.477 406.207" fill="#231f20"/>
<g clip-path="url(#clip_3145)">
<g clip-path="url(#clip_3146)">
<path transform="matrix(1,0,0,-1,-35.28,726.12)" stroke-width="1.5" stroke-linecap="butt" stroke-miterlimit="4" stroke-linejoin="miter" fill="none" stroke="#231f20" d="M318.942 656.883V661.883H505.107V203.133H291.683V209.633"/>
</g>
</g>
<path transform="matrix(1,0,0,-1,-35.28,726.12)" d="M291.739 211.01 293.599 206.459 291.739 207.538 289.88 206.459 291.739 211.01" fill="#231f20"/>
<path transform="matrix(1,0,0,-1,-35.28,726.12)" stroke-width="1.5" stroke-linecap="butt" stroke-miterlimit="4" stroke-linejoin="miter" fill="none" stroke="#231f20" d="M340.477 478.878V489.128"/>
<path transform="matrix(1,0,0,-1,-35.28,726.12)" d="M340.477 491.281 342.336 486.73 340.477 487.81 338.617 486.73 340.477 491.281" fill="#231f20"/>
<path transform="matrix(1,0,0,-1,-35.28,726.12)" stroke-width="1.5" stroke-linecap="butt" stroke-miterlimit="4" stroke-linejoin="miter" fill="none" stroke="#231f20" d="M307.477 424.383V431.883M363.413 467.043V489.823"/>
<path transform="matrix(1,0,0,-1,-35.28,726.12)" d="M363.413 491.727 365.274 487.175 363.413 488.255 361.554 487.175 363.413 491.727" fill="#231f20"/>
<path transform="matrix(1,0,0,-1,-35.28,726.12)" stroke-width="1.5" stroke-linecap="butt" stroke-miterlimit="4" stroke-linejoin="miter" fill="none" stroke="#231f20" d="M376.915 483.047V489.484"/>
<path transform="matrix(1,0,0,-1,-35.28,726.12)" d="M376.915 491.637 378.776 487.085 376.915 488.165 375.056 487.085 376.915 491.637" fill="#231f20"/>
<path transform="matrix(1,0,0,-1,-35.28,726.12)" stroke-width="1.5" stroke-linecap="butt" stroke-miterlimit="4" stroke-linejoin="miter" fill="none" stroke="#231f20" d="M346.734 507.428V513.216"/>
<path transform="matrix(1,0,0,-1,-35.28,726.12)" d="M346.734 515.369 348.594 510.818 346.734 511.898 344.874 510.818 346.734 515.369" fill="#231f20"/>
<path transform="matrix(1,0,0,-1,-35.28,726.12)" stroke-width="1.5" stroke-linecap="butt" stroke-miterlimit="4" stroke-linejoin="miter" fill="none" stroke="#231f20" d="M364.32 507.428V513.216"/>
<path transform="matrix(1,0,0,-1,-35.28,726.12)" d="M364.32 515.369 366.18 510.818 364.32 511.898 362.46 510.818 364.32 515.369" fill="#231f20"/>
<path transform="matrix(1,0,0,-1,-35.28,726.12)" stroke-width=".75" stroke-linecap="butt" stroke-dasharray=".75,.75" stroke-miterlimit="4" stroke-linejoin="miter" fill="none" stroke="#231f20" d="M314.639 534.065H332.15"/>
<path transform="matrix(1,0,0,-1,-35.28,726.12)" d="M334.495 534.065 331.46 532.825 332.18 534.065 331.46 535.305 334.495 534.065" fill="#231f20"/>
<path transform="matrix(1,0,0,-1,-35.28,726.12)" d="M406.791 342.383 403.756 341.143 404.477 342.383 403.756 343.623 406.791 342.383" fill="#231f20"/>
<path transform="matrix(1,0,0,-1,-35.28,726.12)" stroke-width=".75" stroke-linecap="butt" stroke-dasharray=".75,.75" stroke-miterlimit="4" stroke-linejoin="miter" fill="none" stroke="#231f20" d="M314.639 524.638H332.15"/>
<path transform="matrix(1,0,0,-1,-35.28,726.12)" d="M334.495 524.638 331.46 523.398 332.18 524.638 331.46 525.878 334.495 524.638" fill="#231f20"/>
<path transform="matrix(1,0,0,-1,-35.28,726.12)" stroke-width="1.5" stroke-linecap="butt" stroke-miterlimit="4" stroke-linejoin="miter" fill="none" stroke="#231f20" d="M319.955 629.553V638.245"/>
<path transform="matrix(1,0,0,-1,-35.28,726.12)" d="M319.955 640.399 321.815 635.847 319.955 636.927 318.096 635.847 319.955 640.399" fill="#231f20"/>
<path transform="matrix(1,0,0,-1,-35.28,726.12)" stroke-width="1.5" stroke-linecap="butt" stroke-miterlimit="4" stroke-linejoin="miter" fill="none" stroke="#231f20" d="M291.675 226.732V235.321M365.602 235.508V230.211H291.623"/>
<path transform="matrix(1,0,0,-1,-35.28,726.12)" d="M291.675 237.475 293.534 232.924 291.675 234.003 289.816 232.924 291.675 237.475" fill="#231f20"/>
<path transform="matrix(1,0,0,-1,-35.28,726.12)" d="M365.602 237.161 367.462 232.61 365.602 233.69 363.742 232.61 365.602 237.161" fill="#231f20"/>
<path transform="matrix(1,0,0,-1,-35.28,726.12)" d="M291.623 232.025C292.59 232.025 293.373 231.239 293.373 230.275 293.373 229.308 292.59 228.525 291.623 228.525 290.658 228.525 289.873 229.308 289.873 230.275 289.873 231.239 290.658 232.025 291.623 232.025" fill="#231f20"/>
<path transform="matrix(1,0,0,-1,-35.28,726.12)" stroke-width="1.5" stroke-linecap="butt" stroke-miterlimit="4" stroke-linejoin="miter" fill="none" stroke="#231f20" d="M361.701 543.416V552.585"/>
<path transform="matrix(1,0,0,-1,-35.28,726.12)" d="M361.701 554.738 363.562 550.187 361.701 551.267 359.842 550.187 361.701 554.738" fill="#231f20"/>
<path transform="matrix(1,0,0,-1,-35.28,726.12)" stroke-width="1.5" stroke-linecap="butt" stroke-miterlimit="4" stroke-linejoin="miter" fill="none" stroke="#231f20" d="M304.36 376.139V404.287"/>
<path transform="matrix(1,0,0,-1,-35.28,726.12)" d="M304.36 406.163 306.22 401.612 304.36 402.692 302.5 401.612 304.36 406.163" fill="#231f20"/>
<path transform="matrix(1,0,0,-1,-35.28,726.12)" d="M383.868 237.04H345.118V262.03999H383.868ZM345.118 237.04" fill="#231f20"/>
<path transform="matrix(1,0,0,-1,-35.28,726.12)" d="M382.57 238.341H343.82V263.341H382.57ZM343.82 238.341" fill="#d4effc"/>
<path transform="matrix(1,0,0,-1,-35.28,726.12)" stroke-width=".5" stroke-linecap="butt" stroke-miterlimit="4" stroke-linejoin="miter" fill="none" stroke="#00adef" d="M382.57 238.341H343.82V263.341H382.57Z"/>
<path transform="matrix(1,0,0,-1,-35.28,726.12)" d="M240.51 594.883C240.51 590.33 236.019 586.641 230.478 586.641 224.935 586.641 220.443 590.33 220.443 594.883 220.443 599.435 224.935 603.124 230.478 603.124 236.019 603.124 240.51 599.435 240.51 594.883" fill="#ffffff"/>
<path transform="matrix(1,0,0,-1,-35.28,726.12)" stroke-width=".5" stroke-linecap="butt" stroke-miterlimit="4" stroke-linejoin="miter" fill="none" stroke="#231f20" d="M240.51 594.883C240.51 590.33 236.019 586.641 230.478 586.641 224.935 586.641 220.443 590.33 220.443 594.883 220.443 599.435 224.935 603.124 230.478 603.124 236.019 603.124 240.51 599.435 240.51 594.883Z"/>
<path transform="matrix(1,0,0,-1,-35.28,726.12)" d="M291.62 467.835C291.62 463.282 287.129 459.592 281.588 459.592 276.045 459.592 271.553 463.282 271.553 467.835 271.553 472.386 276.045 476.076 281.588 476.076 287.129 476.076 291.62 472.386 291.62 467.835" fill="#ffffff"/>
<path transform="matrix(1,0,0,-1,-35.28,726.12)" stroke-width=".5" stroke-linecap="butt" stroke-miterlimit="4" stroke-linejoin="miter" fill="none" stroke="#231f20" d="M291.62 467.835C291.62 463.282 287.129 459.592 281.588 459.592 276.045 459.592 271.553 463.282 271.553 467.835 271.553 472.386 276.045 476.076 281.588 476.076 287.129 476.076 291.62 472.386 291.62 467.835Z"/>
<path transform="matrix(1,0,0,-1,-35.28,726.12)" d="M335.51 467.835C335.51 463.282 331.019 459.592 325.478 459.592 319.935 459.592 315.443 463.282 315.443 467.835 315.443 472.386 319.935 476.076 325.478 476.076 331.019 476.076 335.51 472.386 335.51 467.835" fill="#ffffff"/>
<path transform="matrix(1,0,0,-1,-35.28,726.12)" stroke-width=".5" stroke-linecap="butt" stroke-miterlimit="4" stroke-linejoin="miter" fill="none" stroke="#231f20" d="M335.51 467.835C335.51 463.282 331.019 459.592 325.478 459.592 319.935 459.592 315.443 463.282 315.443 467.835 315.443 472.386 319.935 476.076 325.478 476.076 331.019 476.076 335.51 472.386 335.51 467.835Z"/>
<path transform="matrix(1,0,0,-1,-35.28,726.12)" d="M371.668 561.892C371.668 557.339 367.178 553.65 361.637 553.65 356.094 553.65 351.602 557.339 351.602 561.892 351.602 566.443 356.094 570.133 361.637 570.133 367.178 570.133 371.668 566.443 371.668 561.892" fill="#ffffff"/>
<path transform="matrix(1,0,0,-1,-35.28,726.12)" stroke-width=".5" stroke-linecap="butt" stroke-miterlimit="4" stroke-linejoin="miter" fill="none" stroke="#231f20" d="M371.668 561.892C371.668 557.339 367.178 553.65 361.637 553.65 356.094 553.65 351.602 557.339 351.602 561.892 351.602 566.443 356.094 570.133 361.637 570.133 367.178 570.133 371.668 566.443 371.668 561.892Z"/>
<path transform="matrix(1,0,0,-1,-35.28,726.12)" d="M257.51 281.634C257.51 277.081 253.019 273.392 247.478 273.392 241.935 273.392 237.443 277.081 237.443 281.634 237.443 286.186 241.935 289.875 247.478 289.875 253.019 289.875 257.51 286.186 257.51 281.634" fill="#ffffff"/>
<path transform="matrix(1,0,0,-1,-35.28,726.12)" stroke-width=".5" stroke-linecap="butt" stroke-miterlimit="4" stroke-linejoin="miter" fill="none" stroke="#231f20" d="M257.51 281.634C257.51 277.081 253.019 273.392 247.478 273.392 241.935 273.392 237.443 277.081 237.443 281.634 237.443 286.186 241.935 289.875 247.478 289.875 253.019 289.875 257.51 286.186 257.51 281.634Z"/>
<path transform="matrix(1,0,0,-1,-35.28,726.12)" d="M363.477 468.758C364.444 468.758 365.227 467.973 365.227 467.008 365.227 466.041 364.444 465.258 363.477 465.258 362.512 465.258 361.727 466.041 361.727 467.008 361.727 467.973 362.512 468.758 363.477 468.758" fill="#231f20"/>
<path transform="matrix(1,0,0,-1,-35.28,726.12)" stroke-width=".75" stroke-linecap="butt" stroke-dasharray=".75,.75" stroke-miterlimit="4" stroke-linejoin="miter" fill="none" stroke="#231f20" d="M281.477 487.383H264.977V342.383H406.477"/>
<text fill="#231f20" xml:space="preserve" transform="matrix(1 0 -0 1 -35.28 726.12)" font-size="8" font-family="Helvetica"><tspan y="-568.501" x="223.138 227.138 229.362 233.81">stat</tspan><tspan y="-594.81539" x="171.7932 177.1292">PC</tspan><tspan y="-518.0314" x="171.1044 177.7684 182.2164 188.8804 193.3284 195.9924">Memory</tspan><tspan y="-437.95057" x="171.2396 176.57559 180.57559 185.02359 189.02359 193.47159 195.69559">Execute</tspan><tspan y="-319.99058" x="171.4908 177.2668 181.7148 185.7148 190.1628 194.6108">Decode</tspan><tspan y="-250.43537" x="170.8004 175.6884 180.1364 182.3604 186.3604">Fetch</tspan></text>
<text fill="#231f20" xml:space="preserve" transform="matrix(1 0 -0 1 -35.28 726.12)" font-size="7" font-family="Helvetica"><tspan y="-646.173" x="308.511 312.40299 316.29499 321.34898 326.01799">newPC</tspan></text>
<text fill="#231f20" xml:space="preserve" transform="matrix(1 0 -0 1 -35.28 726.12)" font-size="8" font-family="Helvetica"><tspan y="-616.483" x="288.952 294.728 299.176 304.952 307.176 312.512">New PC</tspan></text>
<text fill="#231f20" xml:space="preserve" transform="matrix(1 0 -0 1 -35.28 726.12)" font-size="6" font-family="Helvetica"><tspan y="-546.927" x="365.12 368.456 371.792 373.46 376.796 378.464 381.8 385.136">data out</tspan><tspan y="-555.906" x="295.589 298.925 303.92298 307.25898 312.25697 315.59297 318.92897 320.92695 322.92494 326.26094">dmem_error</tspan><tspan y="-536.9928" x="318.8972 320.89518 324.23118 327.56718">read</tspan><tspan y="-517.164" x="318.47599 322.80799 324.80598 326.13798 327.80598">write</tspan></text>
<text fill="#231f20" xml:space="preserve" transform="matrix(1 0 -0 1 -35.28 726.12)" font-size="8" font-family="Helvetica"><tspan y="-531.891" x="347.39 353.16603 357.614 359.838">Data</tspan><tspan y="-522.891" x="341.394 348.058 352.506 359.17 363.618 366.282">memory</tspan></text>
<text fill="#231f20" xml:space="preserve" transform="matrix(1 0 -0 1 -35.28 726.12)" font-size="7" font-family="Helvetica"><tspan y="-496.397" x="335.114 339.78303 343.67503 347.56703 362.3713 367.4253 371.3173 373.2633">AddrData</tspan><tspan y="-531.5328" x="291.5278 297.3588 301.2508 307.0818">Mem.</tspan><tspan y="-523.5318" x="289.7736 293.2736 297.1656 301.0576 303.0036 305.3346 309.2266">control</tspan><tspan y="-465.0468" x="274.9567 280.01069 283.90269 318.4575 321.9575 325.8495 327.40348">CndvalE</tspan><tspan y="-559.1037" x="354.03639 357.53639 361.42839 362.98237">valM</tspan><tspan y="-592.0947" x="224.03517 228.70418 230.65018 234.54218">Stat</tspan></text>
<text fill="#231f20" xml:space="preserve" transform="matrix(1 0 -0 1 -35.28 726.12)" font-size="8" font-family="Helvetica"><tspan y="-437.291" x="275.687 281.463">CC</tspan><tspan y="-437.55738" x="318.3894 323.7254 328.1734">ALU</tspan></text>
<text fill="#231f20" xml:space="preserve" transform="matrix(1 0 -0 1 -35.28 726.12)" font-size="7" font-family="Helvetica"><tspan y="-444.872" x="389.451 394.12 398.012">ALU</tspan><tspan y="-436.8717" x="390.4198 392.3658 396.2578 400.1498">fun.</tspan><tspan y="-416.1629" x="301.1117 305.7807 309.6727">ALU</tspan><tspan y="-408.1619" x="305.7765">A</tspan><tspan y="-416.6627" x="337.74549 342.4145 346.3065">ALU</tspan><tspan y="-408.66169" x="342.21849">B</tspan><tspan y="-364.14869" x="370.33818 373.83818 377.73017 379.28416 389.79817 393.29817 397.19017 398.74415 409.96305 413.85505 417.35505 419.30107 429.55607 433.44807 436.94807 438.89408 450.96699 454.46699 456.79798 460.29798 471.24598 474.74598 477.07698 480.57698">valAvalBdstEdstMsrcAsrcB</tspan><tspan y="-340.6056" x="409.96308 413.85508 417.35508 419.3011">dstE</tspan><tspan y="-340.3963" x="429.34678 433.23878 436.73878 438.68479">dstM</tspan><tspan y="-340.6056" x="450.54698 454.04698 456.37797 459.87797 470.19807 473.69807 476.02906 479.52906">srcAsrcB</tspan></text>
<text fill="#231f20" xml:space="preserve" transform="matrix(1 0 -0 1 -35.28 726.12)" font-size="8" font-family="Helvetica"><tspan y="-316.327" x="374.153 379.92903 384.377 388.825 390.601 394.601 396.825 401.273">Register</tspan><tspan y="-307.327" x="382.601 387.489 389.265 391.04103">File</tspan><tspan y="-294.5462" x="429.8554 437.265 439.92903 441.70503 443.92903 448.377 450.601 455.049 459.497 463.497">Write back</tspan></text>
<text fill="#231f20" xml:space="preserve" transform="matrix(1 0 -0 1 -35.28 726.12)" font-size="6" font-family="Helvetica"><tspan y="-323.088" x="379.353 393.471">AB</tspan><tspan y="-303.47224" x="404.9982">E</tspan><tspan y="-318.46925" x="404.5002">M</tspan></text>
<text fill="#231f20" xml:space="preserve" transform="matrix(1 0 -0 1 -35.28 726.12)" font-size="7" font-family="Helvetica"><tspan y="-279.429" x="239.296 240.85 244.35 248.242 252.134">icode</tspan></text>
<text fill="#231f20" xml:space="preserve" transform="matrix(1 0 -0 1 -35.28 726.12)" font-size="6" font-family="Helvetica"><tspan y="-284.443" x="191.204 192.536 195.872 198.872 200.54 202.538 205.874 208.874 212.20999 213.54199 214.874">instr_valid</tspan><tspan y="-271.78779" x="187.54399 188.87599 193.874 197.20999 202.208 205.54399 208.87999 210.87799 212.87599 216.21199">imem_error</tspan></text>
<text fill="#231f20" xml:space="preserve" transform="matrix(1 0 -0 1 -35.28 726.12)" font-size="7" font-family="Helvetica"><tspan y="-279.429" x="263.704 265.258 267.204 271.096 287.14283 289.47383 308.73994 311.07093 327.15904 330.65904 334.55104 336.105">ifunrArBvalC</tspan><tspan y="-279.34498" x="356.7557 360.2557 364.1477 365.7017">valP</tspan></text>
<text fill="#231f20" xml:space="preserve" transform="matrix(1 0 -0 1 -35.28 726.12)" font-size="8" font-family="Helvetica"><tspan y="-253.198" x="357.577 362.913">PC</tspan><tspan y="-244.198" x="345.573 347.349 351.797 355.797 358.461 362.909 369.573 374.021 378.469">increment</tspan><tspan y="-253.198" x="273.2066 275.4306 279.8786 283.8786 286.1026 288.7666 293.2146 297.2146 299.4386 301.2146 305.6626">Instruction</tspan><tspan y="-244.198" x="277.2146 283.8786 288.3266 294.9906 299.4386 302.1026">memory</tspan><tspan y="-215.0284" x="285.8258 291.1618">PC</tspan></text>
<text fill="#00adef" xml:space="preserve" transform="matrix(1 0 -0 1 -35.28 726.12)" font-size="8.9664" font-family="StoneSans"><tspan y="-186.443" x="170.8 175.11284 177.24684 182.58185 187.70166 190.82196 198.07936 203.22608 205.79944 210.94615">Figure4.23</tspan></text>
<text fill="#231f20" xml:space="preserve" transform="matrix(1 0 -0 1 -35.28 726.12)" font-size="8.9664" font-family="StoneSans" font-weight="bold"><tspan y="-186.443" x="224.06221 230.70632 235.53025 239.12577 244.7208 252.04634 256.87028 260.4658 268.08186 271.90153 275.38945 278.98497 284.2841 288.57005 292.05796 297.3571 300.9526 308.56867 313.99336 319.86094 324.84626 329.70606 336.77159 342.09135 349.62669 353.44636 358.35099 363.946 369.24516 374.14979 379.691 383.17893 385.59089 390.4148 395.53819 397.95014 406.1544 411.74943 414.16139 419.066 427.27027 432.1749 437.71614 441.20405 446.02796 449.51588 451.92784 457.3525 462.89375">HardwarestructureofSEQ,asequentialimplementation.</tspan></text>
<text fill="#231f20" xml:space="preserve" transform="matrix(1 0 -0 1 -35.28 726.12)" font-size="8.9664" font-family="StoneSans"><tspan y="-186.443" x="468.17695 472.83949 477.97724 485.9932 493.25059 498.38835 503.7538 506.84724 512.0926">Someofthe</tspan><tspan y="-175.48426" x="170.80002 175.11286 180.2506 185.49594 188.58936 191.70966 196.8474 201.55477 205.0427 207.1767 212.5117 217.75705 222.24025 224.37425 227.86219 233.00891 237.49211 243.5534 250.53824 255.0842 257.2182 261.92558 266.40876 272.47004 275.56346 280.80879 287.9281 291.0484 295.59437 300.92939 303.0634 306.5513 309.6447 314.19068 319.88435 324.36756 329.61289 337.52128 341.8341 346.97187 352.2172 355.3106 358.4309 363.56867 368.27604 375.26087 380.39863 383.51893 391.4273 395.74015 400.8779 406.12324 411.36857 415.91453 420.22737 423.32078 425.45478 430.59254 435.83787 439.32579 444.4725 448.9557 452.076 459.1953 464.44065 469.5784 475.24519 478.7331 483.97843 489.11619 496.101 501.34635">controlsignals,aswellastheregisterandcontrolwordconnections,arenotshown.</tspan></text>
</g>
</svg>
