<svg xmlns="http://www.w3.org/2000/svg" xmlns:xlink="http://www.w3.org/1999/xlink" version="1.1" width="532.7996" height="664.92" viewBox="0 0 532.7996 664.92">
<defs>
<clipPath id="clip_3245">
<path transform="matrix(1,0,0,-1,-42.7104,726.12)" d="M42.7104 61.2H575.51V726.12H42.7104Z" fill-rule="evenodd"/>
</clipPath>
<clipPath id="clip_3246">
<path transform="matrix(1,0,0,-1,-42.7104,726.12)" d="M453.844 663.445H94.5V160.54001H453.844ZM94.5 663.445"/>
</clipPath>
<clipPath id="clip_3247">
<path transform="matrix(1,0,0,-1,-42.7104,726.12)" d="M0 792H612V.030029297H0Z"/>
</clipPath>
</defs>
<g clip-path="url(#clip_3245)">
<text xml:space="preserve" transform="matrix(1 0 -0 1 -42.7104 726.12)" font-size="8.4682" font-family="StoneSans"><tspan y="-681.875" x="328.766 333.16947 337.46284 341.53605 344.45759 346.47303 351.3253 358.70954 363.57029 366.00065 379.3296 383.877 385.89247 390.94798 395.24134 397.25679 399.27223 404.2261 408.51948 415.9884 420.54429 425.40504 432.69615 434.94023 442.51078 447.56629 449.58174 453.8751 461.44566 465.739 470.6929 473.61445 477.84855 480.77009 482.78553 487.6378 492.59169">Section4.5PipelinedY86Implementations</tspan></text>
<text xml:space="preserve" transform="matrix(1 0 -0 1 -42.7104 726.12)" font-size="9.4645" font-family="StoneSans" font-weight="bold"><tspan y="-681.875" x="508.587 514.01968 519.4523">419</tspan></text>
<path transform="matrix(1,0,0,-1,-42.7104,726.12)" d="M330.397 336.287C330.397 334.962 329.323 333.888 327.997 333.888H304.665C303.341 333.888 302.265 334.962 302.265 336.287V380.064C302.265 381.39 303.341 382.464 304.665 382.464H327.997C329.323 382.464 330.397 381.39 330.397 380.064V336.287" fill="#b1b4b6"/>
<path transform="matrix(1,0,0,-1,-42.7104,726.12)" d="M328.599 337.408C328.599 336.082 327.522 335.008 326.198 335.008H302.866C301.54 335.008 300.466 336.082 300.466 337.408V381.185C300.466 382.51 301.54 383.584 302.866 383.584H326.198C327.522 383.584 328.599 382.51 328.599 381.185V337.408" fill="#c6c8ca"/>
<path transform="matrix(1,0,0,-1,-42.7104,726.12)" stroke-width=".75" stroke-linecap="butt" stroke-miterlimit="4" stroke-linejoin="miter" fill="none" stroke="#231f20" d="M328.599 337.408C328.599 336.082 327.522 335.008 326.198 335.008H302.866C301.54 335.008 300.466 336.082 300.466 337.408V381.185C300.466 382.51 301.54 383.584 302.866 383.584H326.198C327.522 383.584 328.599 382.51 328.599 381.185V337.408Z"/>
<path transform="matrix(1,0,0,-1,-42.7104,726.12)" d="M231.37 593.62H166.174V608.268H231.37ZM166.174 593.62" fill="#8ed8f8"/>
<path transform="matrix(1,0,0,-1,-42.7104,726.12)" stroke-width="1" stroke-linecap="butt" stroke-miterlimit="4" stroke-linejoin="miter" fill="none" stroke="#231f20" d="M231.37 593.62H166.174V608.268H231.37Z"/>
<path transform="matrix(1,0,0,-1,-42.7104,726.12)" d="M123.83 593.62H102.485V608.268H123.83ZM102.485 593.62" fill="#8ed8f8"/>
<path transform="matrix(1,0,0,-1,-42.7104,726.12)" stroke-width="1" stroke-linecap="butt" stroke-miterlimit="4" stroke-linejoin="miter" fill="none" stroke="#231f20" d="M123.83 593.62H102.485V608.268H123.83Z"/>
<path transform="matrix(1,0,0,-1,-42.7104,726.12)" d="M166.205 593.62H144.735V608.268H166.205ZM144.735 593.62" fill="#ffffff"/>
<path transform="matrix(1,0,0,-1,-42.7104,726.12)" stroke-width="1" stroke-linecap="butt" stroke-miterlimit="4" stroke-linejoin="miter" fill="none" stroke="#231f20" d="M166.205 593.62H144.735V608.268H166.205Z"/>
<path transform="matrix(1,0,0,-1,-42.7104,726.12)" d="M337.209 593.62H315.863V608.268H337.209ZM315.863 593.62" fill="#8ed8f8"/>
<path transform="matrix(1,0,0,-1,-42.7104,726.12)" stroke-width="1" stroke-linecap="butt" stroke-miterlimit="4" stroke-linejoin="miter" fill="none" stroke="#231f20" d="M337.209 593.62H315.863V608.268H337.209Z"/>
<path transform="matrix(1,0,0,-1,-42.7104,726.12)" d="M358.584 593.62H337.113V608.268H358.584ZM337.113 593.62" fill="#ffffff"/>
<path transform="matrix(1,0,0,-1,-42.7104,726.12)" stroke-width="1" stroke-linecap="butt" stroke-miterlimit="4" stroke-linejoin="miter" fill="none" stroke="#231f20" d="M358.584 593.62H337.113V608.268H358.584Z"/>
<path transform="matrix(1,0,0,-1,-42.7104,726.12)" d="M379.921 593.62H358.44999V608.268H379.921ZM358.45 593.62" fill="#ffffff"/>
<path transform="matrix(1,0,0,-1,-42.7104,726.12)" stroke-width="1" stroke-linecap="butt" stroke-miterlimit="4" stroke-linejoin="miter" fill="none" stroke="#231f20" d="M379.921 593.62H358.44999V608.268H379.921Z"/>
<path transform="matrix(1,0,0,-1,-42.7104,726.12)" d="M401.257 593.62H379.786V608.268H401.257 401.123 422.594V593.62H401.123 401.257" fill="#8ed8f8"/>
<path transform="matrix(1,0,0,-1,-42.7104,726.12)" stroke-width="1" stroke-linecap="butt" stroke-miterlimit="4" stroke-linejoin="miter" fill="none" stroke="#231f20" d="M401.257 593.62H379.786V608.268H401.257 401.123 422.594V593.62H401.123 401.257Z"/>
<path transform="matrix(1,0,0,-1,-42.7104,726.12)" d="M251.901 593.62H230.432V608.268H251.901 251.768 273.238V593.62H251.768 251.901" fill="#ffffff"/>
<path transform="matrix(1,0,0,-1,-42.7104,726.12)" stroke-width="1" stroke-linecap="butt" stroke-miterlimit="4" stroke-linejoin="miter" fill="none" stroke="#231f20" d="M251.901 593.62H230.432V608.268H251.901 251.768 273.238V593.62H251.768 251.901Z"/>
<path transform="matrix(1,0,0,-1,-42.7104,726.12)" d="M294.574 593.62H273.104V608.268H294.574 294.441 315.911V593.62H294.441 294.574" fill="#ffffff"/>
<path transform="matrix(1,0,0,-1,-42.7104,726.12)" stroke-width="1" stroke-linecap="butt" stroke-miterlimit="4" stroke-linejoin="miter" fill="none" stroke="#231f20" d="M294.574 593.62H273.104V608.268H294.574 294.441 315.911V593.62H294.441 294.574Z"/>
<path transform="matrix(1,0,0,-1,-42.7104,726.12)" d="M123.83 499.625H102.485V514.273H123.83ZM102.485 499.625" fill="#8ed8f8"/>
<path transform="matrix(1,0,0,-1,-42.7104,726.12)" stroke-width="1" stroke-linecap="butt" stroke-miterlimit="4" stroke-linejoin="miter" fill="none" stroke="#231f20" d="M123.83 499.625H102.485V514.273H123.83Z"/>
<path transform="matrix(1,0,0,-1,-42.7104,726.12)" d="M166.205 499.625H144.735V514.273H166.205ZM144.735 499.625" fill="#ffffff"/>
<path transform="matrix(1,0,0,-1,-42.7104,726.12)" stroke-width="1" stroke-linecap="butt" stroke-miterlimit="4" stroke-linejoin="miter" fill="none" stroke="#231f20" d="M166.205 499.625H144.735V514.273H166.205Z"/>
<path transform="matrix(1,0,0,-1,-42.7104,726.12)" d="M187.542 499.625H166.072V514.273H187.542ZM166.072 499.625" fill="#8ed8f8"/>
<path transform="matrix(1,0,0,-1,-42.7104,726.12)" stroke-width="1" stroke-linecap="butt" stroke-miterlimit="4" stroke-linejoin="miter" fill="none" stroke="#231f20" d="M187.541 499.625H166.071V514.273H187.541Z"/>
<path transform="matrix(1,0,0,-1,-42.7104,726.12)" d="M208.878 499.625H187.40901V514.273H208.878ZM187.409 499.625" fill="#ffffff"/>
<path transform="matrix(1,0,0,-1,-42.7104,726.12)" stroke-width="1" stroke-linecap="butt" stroke-miterlimit="4" stroke-linejoin="miter" fill="none" stroke="#231f20" d="M208.878 499.625H187.40901V514.273H208.878Z"/>
<path transform="matrix(1,0,0,-1,-42.7104,726.12)" d="M230.215 499.625H208.746V514.273H230.215ZM208.746 499.625" fill="#8ed8f8"/>
<path transform="matrix(1,0,0,-1,-42.7104,726.12)" stroke-width="1" stroke-linecap="butt" stroke-miterlimit="4" stroke-linejoin="miter" fill="none" stroke="#231f20" d="M230.215 499.625H208.746V514.273H230.215Z"/>
<path transform="matrix(1,0,0,-1,-42.7104,726.12)" d="M336.81 499.625H315.464V514.273H336.81ZM315.464 499.625" fill="#8ed8f8"/>
<path transform="matrix(1,0,0,-1,-42.7104,726.12)" stroke-width="1" stroke-linecap="butt" stroke-miterlimit="4" stroke-linejoin="miter" fill="none" stroke="#231f20" d="M336.81 499.625H315.464V514.273H336.81Z"/>
<path transform="matrix(1,0,0,-1,-42.7104,726.12)" d="M358.185 499.625H336.714V514.273H358.185ZM336.714 499.625" fill="#ffffff"/>
<path transform="matrix(1,0,0,-1,-42.7104,726.12)" stroke-width="1" stroke-linecap="butt" stroke-miterlimit="4" stroke-linejoin="miter" fill="none" stroke="#231f20" d="M358.185 499.625H336.714V514.273H358.185Z"/>
<path transform="matrix(1,0,0,-1,-42.7104,726.12)" d="M379.521 499.625H358.051V514.273H379.521ZM358.051 499.625" fill="#ffffff"/>
<path transform="matrix(1,0,0,-1,-42.7104,726.12)" stroke-width="1" stroke-linecap="butt" stroke-miterlimit="4" stroke-linejoin="miter" fill="none" stroke="#231f20" d="M379.521 499.625H358.051V514.273H379.521Z"/>
<path transform="matrix(1,0,0,-1,-42.7104,726.12)" d="M400.857 499.625H379.387V514.273H400.857 400.724 422.194V499.625H400.724 400.857" fill="#8ed8f8"/>
<path transform="matrix(1,0,0,-1,-42.7104,726.12)" stroke-width="1" stroke-linecap="butt" stroke-miterlimit="4" stroke-linejoin="miter" fill="none" stroke="#231f20" d="M400.857 499.625H379.387V514.273H400.857 400.724 422.194V499.625H400.724 400.857Z"/>
<path transform="matrix(1,0,0,-1,-42.7104,726.12)" d="M251.502 499.624H230.032V514.272H251.502 251.369 272.839V499.624H251.369 251.502" fill="#ffffff"/>
<path transform="matrix(1,0,0,-1,-42.7104,726.12)" stroke-width="1" stroke-linecap="butt" stroke-miterlimit="4" stroke-linejoin="miter" fill="none" stroke="#231f20" d="M251.502 499.624H230.032V514.272H251.502 251.369 272.839V499.624H251.369 251.502Z"/>
<path transform="matrix(1,0,0,-1,-42.7104,726.12)" d="M294.175 499.624H272.705V514.272H294.175 294.042 315.512V499.624H294.042 294.175" fill="#ffffff"/>
<path transform="matrix(1,0,0,-1,-42.7104,726.12)" stroke-width="1" stroke-linecap="butt" stroke-miterlimit="4" stroke-linejoin="miter" fill="none" stroke="#231f20" d="M294.175 499.624H272.705V514.272H294.175 294.042 315.512V499.624H294.042 294.175Z"/>
<path transform="matrix(1,0,0,-1,-42.7104,726.12)" d="M123.83 404.838H102.485V419.48603H123.83ZM102.485 404.838" fill="#8ed8f8"/>
<path transform="matrix(1,0,0,-1,-42.7104,726.12)" stroke-width="1" stroke-linecap="butt" stroke-miterlimit="4" stroke-linejoin="miter" fill="none" stroke="#231f20" d="M123.83 404.838H102.485V419.48603H123.83Z"/>
<path transform="matrix(1,0,0,-1,-42.7104,726.12)" d="M166.205 404.838H144.735V419.48603H166.205ZM144.735 404.838" fill="#ffffff"/>
<path transform="matrix(1,0,0,-1,-42.7104,726.12)" stroke-width="1" stroke-linecap="butt" stroke-miterlimit="4" stroke-linejoin="miter" fill="none" stroke="#231f20" d="M166.205 404.838H144.735V419.48603H166.205Z"/>
<path transform="matrix(1,0,0,-1,-42.7104,726.12)" d="M187.542 404.838H166.072V419.48603H187.542ZM166.072 404.838" fill="#ffffff"/>
<path transform="matrix(1,0,0,-1,-42.7104,726.12)" stroke-width="1" stroke-linecap="butt" stroke-miterlimit="4" stroke-linejoin="miter" fill="none" stroke="#231f20" d="M187.541 404.838H166.071V419.48603H187.541Z"/>
<path transform="matrix(1,0,0,-1,-42.7104,726.12)" d="M358.098 404.838H336.75199V419.48603H358.098ZM336.752 404.838" fill="#ffffff"/>
<path transform="matrix(1,0,0,-1,-42.7104,726.12)" stroke-width="1" stroke-linecap="butt" stroke-miterlimit="4" stroke-linejoin="miter" fill="none" stroke="#231f20" d="M358.098 404.838H336.75199V419.48603H358.098Z"/>
<path transform="matrix(1,0,0,-1,-42.7104,726.12)" d="M379.473 404.838H358.00199V419.48603H379.473ZM358.002 404.838" fill="#ffffff"/>
<path transform="matrix(1,0,0,-1,-42.7104,726.12)" stroke-width="1" stroke-linecap="butt" stroke-miterlimit="4" stroke-linejoin="miter" fill="none" stroke="#231f20" d="M379.473 404.838H358.00199V419.48603H379.473Z"/>
<path transform="matrix(1,0,0,-1,-42.7104,726.12)" d="M400.81 404.838H379.339V419.48603H400.81ZM379.339 404.838" fill="#ffffff"/>
<path transform="matrix(1,0,0,-1,-42.7104,726.12)" stroke-width="1" stroke-linecap="butt" stroke-miterlimit="4" stroke-linejoin="miter" fill="none" stroke="#231f20" d="M400.81 404.838H379.339V419.48603H400.81Z"/>
<path transform="matrix(1,0,0,-1,-42.7104,726.12)" d="M422.146 404.838H400.676V419.48603H422.146ZM400.676 404.838" fill="#ffffff"/>
<path transform="matrix(1,0,0,-1,-42.7104,726.12)" stroke-width="1" stroke-linecap="butt" stroke-miterlimit="4" stroke-linejoin="miter" fill="none" stroke="#231f20" d="M422.146 404.838H400.676V419.48603H422.146Z"/>
<path transform="matrix(1,0,0,-1,-42.7104,726.12)" d="M212.558 404.838H187.542V419.486H212.558 212.402 237.42V404.838H212.402 212.558" fill="#ffffff"/>
<path transform="matrix(1,0,0,-1,-42.7104,726.12)" stroke-width="1" stroke-linecap="butt" stroke-miterlimit="4" stroke-linejoin="miter" fill="none" stroke="#231f20" d="M212.558 404.838H187.542V419.486H212.558 212.402 237.42V404.838H212.402 212.558Z"/>
<path transform="matrix(1,0,0,-1,-42.7104,726.12)" d="M262.28 404.838H237.264V419.486H262.28 262.125 287.142V404.838H262.125 262.28" fill="#ffffff"/>
<path transform="matrix(1,0,0,-1,-42.7104,726.12)" stroke-width="1" stroke-linecap="butt" stroke-miterlimit="4" stroke-linejoin="miter" fill="none" stroke="#231f20" d="M262.28 404.838H237.264V419.486H262.28 262.125 287.142V404.838H262.125 262.28Z"/>
<path transform="matrix(1,0,0,-1,-42.7104,726.12)" d="M312.002 404.838H286.985V419.486H312.002 311.848 336.863V404.838H311.848 312.002" fill="#ffffff"/>
<path transform="matrix(1,0,0,-1,-42.7104,726.12)" stroke-width="1" stroke-linecap="butt" stroke-miterlimit="4" stroke-linejoin="miter" fill="none" stroke="#231f20" d="M312.002 404.838H286.985V419.486H312.002 311.848 336.863V404.838H311.848 312.002Z"/>
<path transform="matrix(1,0,0,-1,-42.7104,726.12)" d="M123.83 269.676H102.485V284.324H123.83ZM102.485 269.676" fill="#8ed8f8"/>
<path transform="matrix(1,0,0,-1,-42.7104,726.12)" stroke-width="1" stroke-linecap="butt" stroke-miterlimit="4" stroke-linejoin="miter" fill="none" stroke="#231f20" d="M123.83 269.676H102.485V284.324H123.83Z"/>
<path transform="matrix(1,0,0,-1,-42.7104,726.12)" d="M166.205 269.676H144.735V284.324H166.205ZM144.735 269.676" fill="#ffffff"/>
<path transform="matrix(1,0,0,-1,-42.7104,726.12)" stroke-width="1" stroke-linecap="butt" stroke-miterlimit="4" stroke-linejoin="miter" fill="none" stroke="#231f20" d="M166.205 269.676H144.735V284.324H166.205Z"/>
<path transform="matrix(1,0,0,-1,-42.7104,726.12)" d="M187.542 269.676H166.072V284.324H187.542ZM166.072 269.676" fill="#ffffff"/>
<path transform="matrix(1,0,0,-1,-42.7104,726.12)" stroke-width="1" stroke-linecap="butt" stroke-miterlimit="4" stroke-linejoin="miter" fill="none" stroke="#231f20" d="M187.541 269.676H166.071V284.324H187.541Z"/>
<path transform="matrix(1,0,0,-1,-42.7104,726.12)" d="M208.878 269.676H187.40901V284.324H208.878ZM187.409 269.676" fill="#ffffff"/>
<path transform="matrix(1,0,0,-1,-42.7104,726.12)" stroke-width="1" stroke-linecap="butt" stroke-miterlimit="4" stroke-linejoin="miter" fill="none" stroke="#231f20" d="M208.878 269.676H187.40901V284.324H208.878Z"/>
<path transform="matrix(1,0,0,-1,-42.7104,726.12)" d="M422.458 269.676H326.53703V284.324H422.458ZM326.537 269.676" fill="#8ed8f8"/>
<path transform="matrix(1,0,0,-1,-42.7104,726.12)" stroke-width="1" stroke-linecap="butt" stroke-miterlimit="4" stroke-linejoin="miter" fill="none" stroke="#231f20" d="M422.458 269.676H326.53703V284.324H422.458Z"/>
<path transform="matrix(1,0,0,-1,-42.7104,726.12)" d="M230.078 269.676H208.732V284.324H230.078ZM208.732 269.676" fill="#ffffff"/>
<path transform="matrix(1,0,0,-1,-42.7104,726.12)" stroke-width="1" stroke-linecap="butt" stroke-miterlimit="4" stroke-linejoin="miter" fill="none" stroke="#231f20" d="M230.078 269.676H208.732V284.324H230.078Z"/>
<path transform="matrix(1,0,0,-1,-42.7104,726.12)" d="M283.826 269.676H272.818V284.324H283.826ZM272.818 269.676" fill="#8ed8f8"/>
<path transform="matrix(1,0,0,-1,-42.7104,726.12)" stroke-width="1" stroke-linecap="butt" stroke-miterlimit="4" stroke-linejoin="miter" fill="none" stroke="#231f20" d="M283.826 269.676H272.818V284.324H283.826Z"/>
<path transform="matrix(1,0,0,-1,-42.7104,726.12)" d="M251.42 269.676H229.95V284.323H251.42 251.287 272.757V269.676H251.287 251.42" fill="#ffffff"/>
<path transform="matrix(1,0,0,-1,-42.7104,726.12)" stroke-width="1" stroke-linecap="butt" stroke-miterlimit="4" stroke-linejoin="miter" fill="none" stroke="#231f20" d="M251.42 269.676H229.95V284.323H251.42 251.287 272.757V269.676H251.287 251.42Z"/>
<path transform="matrix(1,0,0,-1,-42.7104,726.12)" d="M305.296 269.676H283.826V284.323H305.296 305.163 326.633V269.676H305.163 305.296" fill="#ffffff"/>
<path transform="matrix(1,0,0,-1,-42.7104,726.12)" stroke-width="1" stroke-linecap="butt" stroke-miterlimit="4" stroke-linejoin="miter" fill="none" stroke="#231f20" d="M305.296 269.676H283.826V284.323H305.296 305.163 326.633V269.676H305.163 305.296Z"/>
<path transform="matrix(1,0,0,-1,-42.7104,726.12)" d="M144.83 170.433H102.485V185.081H208.878V170.433H144.83" fill="#8ed8f8"/>
<path transform="matrix(1,0,0,-1,-42.7104,726.12)" stroke-width="1" stroke-linecap="butt" stroke-miterlimit="4" stroke-linejoin="miter" fill="none" stroke="#231f20" d="M144.83 170.433H102.485V185.081H208.878V170.433H144.83Z"/>
<path transform="matrix(1,0,0,-1,-42.7104,726.12)" d="M422.458 170.433H220.906V185.081H422.458ZM220.906 170.433" fill="#8ed8f8"/>
<path transform="matrix(1,0,0,-1,-42.7104,726.12)" stroke-width="1" stroke-linecap="butt" stroke-miterlimit="4" stroke-linejoin="miter" fill="none" stroke="#231f20" d="M422.458 170.433H220.906V185.081H422.458Z"/>
<path transform="matrix(1,0,0,-1,-42.7104,726.12)" d="M199.578 170.433H178.232V185.081H199.578 199.482 220.953V170.433H199.482 199.578" fill="#ffffff"/>
<path transform="matrix(1,0,0,-1,-42.7104,726.12)" stroke-width="1" stroke-linecap="butt" stroke-miterlimit="4" stroke-linejoin="miter" fill="none" stroke="#231f20" d="M199.578 170.433H178.232V185.081H199.578 199.482 220.953V170.433H199.482 199.578Z"/>
<path transform="matrix(1,0,0,-1,-42.7104,726.12)" d="M232.087 554.463C232.087 552.806 230.744 551.463 229.087 551.463H207.422C205.765 551.463 204.422 552.806 204.422 554.463V567.727C204.422 569.384 205.765 570.727 207.422 570.727H229.087C230.744 570.727 232.087 569.384 232.087 567.727V554.463" fill="#b1b4b6"/>
<path transform="matrix(1,0,0,-1,-42.7104,726.12)" d="M229.837 555.863C229.837 554.206 228.494 552.863 226.837 552.863H205.172C203.515 552.863 202.172 554.206 202.172 555.863V569.127C202.172 570.784 203.515 572.127 205.172 572.127H226.837C228.494 572.127 229.837 570.784 229.837 569.127V555.863" fill="#c6c8ca"/>
<path transform="matrix(1,0,0,-1,-42.7104,726.12)" stroke-width=".75" stroke-linecap="butt" stroke-miterlimit="4" stroke-linejoin="miter" fill="none" stroke="#231f20" d="M229.837 555.863C229.837 554.206 228.494 552.863 226.837 552.863H205.172C203.515 552.863 202.172 554.206 202.172 555.863V569.127C202.172 570.784 203.515 572.127 205.172 572.127H226.837C228.494 572.127 229.837 570.784 229.837 569.127V555.863Z"/>
<path transform="matrix(1,0,0,-1,-42.7104,726.12)" d="M284.081 530.306C284.081 528.981 283.007 527.906 281.681 527.906H264.349C263.024 527.906 261.949 528.981 261.949 530.306V540.917C261.949 542.243 263.024 543.317 264.349 543.317H281.681C283.007 543.317 284.081 542.243 284.081 540.917V530.306" fill="#b1b4b6"/>
<path transform="matrix(1,0,0,-1,-42.7104,726.12)" d="M282.282 531.426C282.282 530.101 281.206 529.027 279.882 529.027H262.55C261.224 529.027 260.149 530.101 260.149 531.426V542.038C260.149 543.363 261.224 544.438 262.55 544.438H279.882C281.206 544.438 282.282 543.363 282.282 542.038V531.426" fill="#c6c8ca"/>
<path transform="matrix(1,0,0,-1,-42.7104,726.12)" stroke-width=".75" stroke-linecap="butt" stroke-miterlimit="4" stroke-linejoin="miter" fill="none" stroke="#231f20" d="M282.282 531.426C282.282 530.101 281.206 529.027 279.882 529.027H262.55C261.224 529.027 260.149 530.101 260.149 531.426V542.038C260.149 543.363 261.224 544.438 262.55 544.438H279.882C281.206 544.438 282.282 543.363 282.282 542.038V531.426Z"/>
<path transform="matrix(1,0,0,-1,-42.7104,726.12)" d="M334.727 458.003C334.727 456.677 333.652 455.603 332.326 455.603H311.994C310.67 455.603 309.595 456.677 309.595 458.003V472.613C309.595 473.939 310.67 475.013 311.994 475.013H332.326C333.652 475.013 334.727 473.939 334.727 472.613V458.003" fill="#b1b4b6"/>
<path transform="matrix(1,0,0,-1,-42.7104,726.12)" d="M332.928 459.123C332.928 457.797 331.852 456.723 330.527 456.723H310.195C308.869 456.723 307.795 457.797 307.795 459.123V473.734C307.795 475.06 308.869 476.134 310.195 476.134H330.527C331.852 476.134 332.928 475.06 332.928 473.734V459.123" fill="#c6c8ca"/>
<path transform="matrix(1,0,0,-1,-42.7104,726.12)" stroke-width=".75" stroke-linecap="butt" stroke-miterlimit="4" stroke-linejoin="miter" fill="none" stroke="#231f20" d="M332.928 459.123C332.928 457.797 331.852 456.723 330.527 456.723H310.195C308.869 456.723 307.795 457.797 307.795 459.123V473.734C307.795 475.06 308.869 476.134 310.195 476.134H330.527C331.852 476.134 332.928 475.06 332.928 473.734V459.123Z"/>
<path transform="matrix(1,0,0,-1,-42.7104,726.12)" d="M282.674 439.219C282.674 437.893 281.6 436.819 280.273 436.819H259.941C258.617 436.819 257.542 437.893 257.542 439.219V453.83C257.542 455.155 258.617 456.23 259.941 456.23H280.273C281.6 456.23 282.674 455.155 282.674 453.83V439.219" fill="#b1b4b6"/>
<path transform="matrix(1,0,0,-1,-42.7104,726.12)" d="M280.875 440.339C280.875 439.013 279.799 437.939 278.475 437.939H258.143C256.816 437.939 255.742 439.013 255.742 440.339V454.95C255.742 456.276 256.816 457.35 258.143 457.35H278.475C279.799 457.35 280.875 456.276 280.875 454.95V440.339" fill="#c6c8ca"/>
<path transform="matrix(1,0,0,-1,-42.7104,726.12)" stroke-width=".75" stroke-linecap="butt" stroke-miterlimit="4" stroke-linejoin="miter" fill="none" stroke="#231f20" d="M280.875 440.339C280.875 439.013 279.799 437.939 278.475 437.939H258.143C256.816 437.939 255.742 439.013 255.742 440.339V454.95C255.742 456.276 256.816 457.35 258.143 457.35H278.475C279.799 457.35 280.875 456.276 280.875 454.95V440.339Z"/>
<path transform="matrix(1,0,0,-1,-42.7104,726.12)" d="M245.495 439.219C245.495 437.893 244.421 436.819 243.095 436.819H222.763C221.438 436.819 220.363 437.893 220.363 439.219V453.83C220.363 455.155 221.438 456.23 222.763 456.23H243.095C244.421 456.23 245.495 455.155 245.495 453.83V439.219" fill="#b1b4b6"/>
<path transform="matrix(1,0,0,-1,-42.7104,726.12)" d="M243.696 440.339C243.696 439.013 242.62 437.939 241.296 437.939H220.964C219.638 437.939 218.563 439.013 218.563 440.339V454.95C218.563 456.276 219.638 457.35 220.964 457.35H241.296C242.62 457.35 243.696 456.276 243.696 454.95V440.339" fill="#c6c8ca"/>
<path transform="matrix(1,0,0,-1,-42.7104,726.12)" stroke-width=".75" stroke-linecap="butt" stroke-miterlimit="4" stroke-linejoin="miter" fill="none" stroke="#231f20" d="M243.696 440.339C243.696 439.013 242.62 437.939 241.296 437.939H220.964C219.638 437.939 218.563 439.013 218.563 440.339V454.95C218.563 456.276 219.638 457.35 220.964 457.35H241.296C242.62 457.35 243.696 456.276 243.696 454.95V440.339Z"/>
<path transform="matrix(1,0,0,-1,-42.7104,726.12)" d="M288.242 336.287C288.242 334.962 287.168 333.888 285.842 333.888H255.51C254.186 333.888 253.109 334.962 253.109 336.287V380.064C253.109 381.39 254.186 382.464 255.51 382.464H285.842C287.168 382.464 288.242 381.39 288.242 380.064V336.287" fill="#b1b4b6"/>
<path transform="matrix(1,0,0,-1,-42.7104,726.12)" d="M286.443 337.408C286.443 336.082 285.367 335.008 284.043 335.008H253.711C252.385 335.008 251.311 336.082 251.311 337.408V381.185C251.311 382.51 252.385 383.584 253.711 383.584H284.043C285.367 383.584 286.443 382.51 286.443 381.185V337.408" fill="#c6c8ca"/>
<path transform="matrix(1,0,0,-1,-42.7104,726.12)" stroke-width=".75" stroke-linecap="butt" stroke-miterlimit="4" stroke-linejoin="miter" fill="none" stroke="#231f20" d="M286.443 337.408C286.443 336.082 285.367 335.008 284.043 335.008H253.711C252.385 335.008 251.311 336.082 251.311 337.408V381.185C251.311 382.51 252.385 383.584 253.711 383.584H284.043C285.367 383.584 286.443 382.51 286.443 381.185V337.408Z"/>
<path transform="matrix(1,0,0,-1,-42.7104,726.12)" d="M376.682 245.318C376.682 243.86 375.5 242.678 374.041 242.678H339.669C338.212 242.678 337.028 243.86 337.028 245.318V261.39C337.028 262.849 338.212 264.03 339.669 264.03H374.041C375.5 264.03 376.682 262.849 376.682 261.39V245.318" fill="#b1b4b6"/>
<path transform="matrix(1,0,0,-1,-42.7104,726.12)" d="M374.702 246.55C374.702 245.092 373.519 243.91 372.063 243.91H337.69C336.231 243.91 335.05 245.092 335.05 246.55V262.623C335.05 264.08 336.231 265.262 337.69 265.262H372.063C373.519 265.262 374.702 264.08 374.702 262.623V246.55" fill="#c6c8ca"/>
<path transform="matrix(1,0,0,-1,-42.7104,726.12)" stroke-width=".75" stroke-linecap="butt" stroke-miterlimit="4" stroke-linejoin="miter" fill="none" stroke="#231f20" d="M374.702 246.55C374.702 245.092 373.519 243.91 372.063 243.91H337.69C336.231 243.91 335.05 245.092 335.05 246.55V262.623C335.05 264.08 336.231 265.262 337.69 265.262H372.063C373.519 265.262 374.702 264.08 374.702 262.623V246.55Z"/>
<path transform="matrix(1,0,0,-1,-42.7104,726.12)" d="M219.651 194.086C219.651 192.761 218.577 191.687 217.25 191.687H186.003C184.679 191.687 183.603 192.761 183.603 194.086V208.697C183.603 210.024 184.679 211.098 186.003 211.098H217.25C218.577 211.098 219.651 210.024 219.651 208.697V194.086" fill="#b1b4b6"/>
<path transform="matrix(1,0,0,-1,-42.7104,726.12)" d="M217.852 195.207C217.852 193.881 216.776 192.807 215.452 192.807H184.205C182.878 192.807 181.804 193.881 181.804 195.207V209.819C181.804 211.144 182.878 212.218 184.205 212.218H215.452C216.776 212.218 217.852 211.144 217.852 209.819V195.207" fill="#c6c8ca"/>
<path transform="matrix(1,0,0,-1,-42.7104,726.12)" stroke-width=".75" stroke-linecap="butt" stroke-miterlimit="4" stroke-linejoin="miter" fill="none" stroke="#231f20" d="M217.852 195.207C217.852 193.881 216.776 192.807 215.452 192.807H184.205C182.878 192.807 181.804 193.881 181.804 195.207V209.819C181.804 211.144 182.878 212.218 184.205 212.218H215.452C216.776 212.218 217.852 211.144 217.852 209.819V195.207Z"/>
<path transform="matrix(1,0,0,-1,-42.7104,726.12)" d="M305.366 551.82H263.616V575.972H305.366ZM263.616 551.82" fill="#231f20"/>
<path transform="matrix(1,0,0,-1,-42.7104,726.12)" d="M304.067 552.772H262.31599V577.272H304.067ZM262.316 552.772" fill="#d4effc"/>
<path transform="matrix(1,0,0,-1,-42.7104,726.12)" stroke-width=".5" stroke-linecap="butt" stroke-miterlimit="4" stroke-linejoin="miter" fill="none" stroke="#00adef" d="M304.067 552.772H262.31599V577.272H304.067Z"/>
<path transform="matrix(1,0,0,-1,-42.7104,726.12)" d="M212.322 461.956H187.97101V481.155H212.322ZM187.971 461.956" fill="#231f20"/>
<path transform="matrix(1,0,0,-1,-42.7104,726.12)" d="M211.482 462.796H187.131V481.996H211.482ZM187.131 462.796" fill="#d4effc"/>
<path transform="matrix(1,0,0,-1,-42.7104,726.12)" stroke-width=".5" stroke-linecap="butt" stroke-miterlimit="4" stroke-linejoin="miter" fill="none" stroke="#00adef" d="M211.482 462.796H187.131V481.996H211.482Z"/>
<path transform="matrix(1,0,0,-1,-42.7104,726.12)" d="M226.807 461.328H277.568L266.514 479.827H238.764L226.131 461.328H226.807" fill="#231f20"/>
<path transform="matrix(1,0,0,-1,-42.7104,726.12)" stroke-width=".5" stroke-linecap="butt" stroke-miterlimit="4" stroke-linejoin="miter" fill="none" stroke="#231f20" d="M226.807 461.328H277.568L266.514 479.827H238.764L226.131 461.328H226.807Z"/>
<path transform="matrix(1,0,0,-1,-42.7104,726.12)" d="M224.807 462.328H275.568L264.514 480.827H236.764L224.131 462.328H224.807" fill="#d4effc"/>
<path transform="matrix(1,0,0,-1,-42.7104,726.12)" stroke-width=".5" stroke-linecap="butt" stroke-miterlimit="4" stroke-linejoin="miter" fill="none" stroke="#00adef" d="M224.807 462.328H275.568L264.514 480.827H236.764L224.131 462.328H224.807Z"/>
<path transform="matrix(1,0,0,-1,-42.7104,726.12)" stroke-width=".5" stroke-linecap="butt" stroke-miterlimit="4" stroke-linejoin="miter" fill="none" stroke="#231f20" d="M347.588 395.187V402.778"/>
<path transform="matrix(1,0,0,-1,-42.7104,726.12)" d="M347.668 404.748 348.908 401.714 347.668 402.434 346.429 401.714 347.668 404.748" fill="#231f20"/>
<path transform="matrix(1,0,0,-1,-42.7104,726.12)" d="M358.52 384.876C358.52 383.681 357.554 382.714 356.36 382.714H339.046C337.854 382.714 336.887 383.681 336.887 384.876V392.263C336.887 393.454 337.854 394.421 339.046 394.421H356.36C357.554 394.421 358.52 393.454 358.52 392.263V384.876" fill="#b1b4b6"/>
<path transform="matrix(1,0,0,-1,-42.7104,726.12)" d="M356.9 385.88C356.9 384.689 355.935 383.724 354.741 383.724H337.427C336.235 383.724 335.269 384.689 335.269 385.88V393.269C335.269 394.462 336.235 395.429 337.427 395.429H354.741C355.935 395.429 356.9 394.462 356.9 393.269V385.88" fill="#c6c8ca"/>
<path transform="matrix(1,0,0,-1,-42.7104,726.12)" stroke-width=".75" stroke-linecap="butt" stroke-miterlimit="4" stroke-linejoin="miter" fill="none" stroke="#231f20" d="M356.9 385.88C356.9 384.689 355.935 383.724 354.741 383.724H337.427C336.235 383.724 335.269 384.689 335.269 385.88V393.269C335.269 394.462 336.235 395.429 337.427 395.429H354.741C355.935 395.429 356.9 394.462 356.9 393.269V385.88Z"/>
<path transform="matrix(1,0,0,-1,-42.7104,726.12)" d="M358.52 442.209C358.52 441.014 357.554 440.047 356.36 440.047H339.046C337.854 440.047 336.887 441.014 336.887 442.209V449.596C336.887 450.787 337.854 451.754 339.046 451.754H356.36C357.554 451.754 358.52 450.787 358.52 449.596V442.209" fill="#b1b4b6"/>
<path transform="matrix(1,0,0,-1,-42.7104,726.12)" d="M356.9 443.213C356.9 442.022 355.935 441.057 354.741 441.057H337.427C336.235 441.057 335.269 442.022 335.269 443.213V450.602C335.269 451.795 336.235 452.762 337.427 452.762H354.741C355.935 452.762 356.9 451.795 356.9 450.602V443.213" fill="#c6c8ca"/>
<path transform="matrix(1,0,0,-1,-42.7104,726.12)" stroke-width=".75" stroke-linecap="butt" stroke-miterlimit="4" stroke-linejoin="miter" fill="none" stroke="#231f20" d="M356.9 443.213C356.9 442.022 355.935 441.057 354.741 441.057H337.427C336.235 441.057 335.269 442.022 335.269 443.213V450.602C335.269 451.795 336.235 452.762 337.427 452.762H354.741C355.935 452.762 356.9 451.795 356.9 450.602V443.213Z"/>
<path transform="matrix(1,0,0,-1,-42.7104,726.12)" stroke-width=".5" stroke-linecap="butt" stroke-miterlimit="4" stroke-linejoin="miter" fill="none" stroke="#231f20" d="M369.22 395.187V402.778"/>
<path transform="matrix(1,0,0,-1,-42.7104,726.12)" d="M369.3 404.748 370.54 401.714 369.3 402.434 368.061 401.714 369.3 404.748" fill="#231f20"/>
<path transform="matrix(1,0,0,-1,-42.7104,726.12)" d="M380.151 384.876C380.151 383.681 379.186 382.714 377.992 382.714H360.678C359.485 382.714 358.519 383.681 358.519 384.876V392.263C358.519 393.454 359.485 394.421 360.678 394.421H377.992C379.186 394.421 380.151 393.454 380.151 392.263V384.876" fill="#b1b4b6"/>
<path transform="matrix(1,0,0,-1,-42.7104,726.12)" d="M378.532 385.88C378.532 384.689 377.566 383.724 376.373 383.724H359.059C357.867 383.724 356.9 384.689 356.9 385.88V393.269C356.9 394.462 357.867 395.429 359.059 395.429H376.373C377.566 395.429 378.532 394.462 378.532 393.269V385.88" fill="#c6c8ca"/>
<path transform="matrix(1,0,0,-1,-42.7104,726.12)" stroke-width=".75" stroke-linecap="butt" stroke-miterlimit="4" stroke-linejoin="miter" fill="none" stroke="#231f20" d="M378.532 385.88C378.532 384.689 377.566 383.724 376.373 383.724H359.059C357.867 383.724 356.9 384.689 356.9 385.88V393.269C356.9 394.462 357.867 395.429 359.059 395.429H376.373C377.566 395.429 378.532 394.462 378.532 393.269V385.88Z"/>
<path transform="matrix(1,0,0,-1,-42.7104,726.12)" stroke-width=".5" stroke-linecap="butt" stroke-miterlimit="4" stroke-linejoin="miter" fill="none" stroke="#231f20" d="M390.852 395.187V402.778"/>
<path transform="matrix(1,0,0,-1,-42.7104,726.12)" d="M390.932 404.748 392.172 401.714 390.932 402.434 389.692 401.714 390.932 404.748" fill="#231f20"/>
<path transform="matrix(1,0,0,-1,-42.7104,726.12)" d="M401.783 384.876C401.783 383.681 400.817 382.714 399.624 382.714H382.31C381.117 382.714 380.15 383.681 380.15 384.876V392.263C380.15 393.454 381.117 394.421 382.31 394.421H399.624C400.817 394.421 401.783 393.454 401.783 392.263V384.876" fill="#b1b4b6"/>
<path transform="matrix(1,0,0,-1,-42.7104,726.12)" d="M400.164 385.88C400.164 384.689 399.198 383.724 398.005 383.724H380.69C379.499 383.724 378.532 384.689 378.532 385.88V393.269C378.532 394.462 379.499 395.429 380.69 395.429H398.005C399.198 395.429 400.164 394.462 400.164 393.269V385.88" fill="#c6c8ca"/>
<path transform="matrix(1,0,0,-1,-42.7104,726.12)" stroke-width=".75" stroke-linecap="butt" stroke-miterlimit="4" stroke-linejoin="miter" fill="none" stroke="#231f20" d="M400.164 385.88C400.164 384.689 399.198 383.724 398.005 383.724H380.69C379.499 383.724 378.532 384.689 378.532 385.88V393.269C378.532 394.462 379.499 395.429 380.69 395.429H398.005C399.198 395.429 400.164 394.462 400.164 393.269V385.88Z"/>
<path transform="matrix(1,0,0,-1,-42.7104,726.12)" stroke-width=".5" stroke-linecap="butt" stroke-miterlimit="4" stroke-linejoin="miter" fill="none" stroke="#231f20" d="M412.483 395.187V402.778"/>
<path transform="matrix(1,0,0,-1,-42.7104,726.12)" d="M412.563 404.748 413.804 401.714 412.563 402.434 411.324 401.714 412.563 404.748" fill="#231f20"/>
<path transform="matrix(1,0,0,-1,-42.7104,726.12)" d="M423.415 384.876C423.415 383.681 422.449 382.714 421.256 382.714H403.941C402.749 382.714 401.782 383.681 401.782 384.876V392.263C401.782 393.454 402.749 394.421 403.941 394.421H421.256C422.449 394.421 423.415 393.454 423.415 392.263V384.876" fill="#b1b4b6"/>
<path transform="matrix(1,0,0,-1,-42.7104,726.12)" d="M421.796 385.88C421.796 384.689 420.83 383.724 419.637 383.724H402.322C401.131 383.724 400.164 384.689 400.164 385.88V393.269C400.164 394.462 401.131 395.429 402.322 395.429H419.637C420.83 395.429 421.796 394.462 421.796 393.269V385.88" fill="#c6c8ca"/>
<path transform="matrix(1,0,0,-1,-42.7104,726.12)" stroke-width=".75" stroke-linecap="butt" stroke-miterlimit="4" stroke-linejoin="miter" fill="none" stroke="#231f20" d="M421.796 385.88C421.796 384.689 420.83 383.724 419.637 383.724H402.322C401.131 383.724 400.164 384.689 400.164 385.88V393.269C400.164 394.462 401.131 395.429 402.322 395.429H419.637C420.83 395.429 421.796 394.462 421.796 393.269V385.88Z"/>
<path transform="matrix(1,0,0,-1,-42.7104,726.12)" d="M332.229 295.199H289.479V322.199H332.229ZM289.479 295.199" fill="#231f20"/>
<path transform="matrix(1,0,0,-1,-42.7104,726.12)" d="M330.93 296.5H288.18V323.5H330.93ZM288.18 296.5" fill="#d4effc"/>
<path transform="matrix(1,0,0,-1,-42.7104,726.12)" stroke-width=".5" stroke-linecap="butt" stroke-miterlimit="4" stroke-linejoin="miter" fill="none" stroke="#00adef" d="M330.93 296.5H288.18V323.5H330.93Z"/>
<path transform="matrix(1,0,0,-1,-42.7104,726.12)" d="M307.111 254.77C307.111 253.805 306.327 253.019 305.361 253.019 304.396 253.019 303.611 253.805 303.611 254.77 303.611 255.735 304.396 256.519 305.361 256.519 306.327 256.519 307.111 255.735 307.111 254.77" fill="#231f20"/>
<path transform="matrix(1,0,0,-1,-42.7104,726.12)" d="M201.925 216.372C201.925 215.407 201.141 214.621 200.175 214.621 199.209 214.621 198.425 215.407 198.425 216.372 198.425 217.337 199.209 218.121 200.175 218.121 201.141 218.121 201.925 217.337 201.925 216.372" fill="#231f20"/>
<path transform="matrix(1,0,0,-1,-42.7104,726.12)" d="M274.344 424.445C274.344 423.48 273.56 422.694 272.594 422.694 271.628 422.694 270.844 423.48 270.844 424.445 270.844 425.409 271.628 426.194 272.594 426.194 273.56 426.194 274.344 425.409 274.344 424.445" fill="#231f20"/>
<path transform="matrix(1,0,0,-1,-42.7104,726.12)" d="M253.271 484.32C253.271 483.355 252.486 482.569 251.521 482.569 250.555 482.569 249.771 483.355 249.771 484.32 249.771 485.285 250.555 486.069 251.521 486.069 252.486 486.069 253.271 485.285 253.271 484.32" fill="#231f20"/>
<path transform="matrix(1,0,0,-1,-42.7104,726.12)" d="M201.6 492.232C201.6 491.267 200.816 490.481 199.85 490.481 198.884 490.481 198.1 491.267 198.1 492.232 198.1 493.196 198.884 493.981 199.85 493.981 200.816 493.981 201.6 493.196 201.6 492.232" fill="#231f20"/>
<path transform="matrix(1,0,0,-1,-42.7104,726.12)" d="M448.888 315.829C448.888 314.864 448.104 314.078 447.138 314.078 446.172 314.078 445.388 314.864 445.388 315.829 445.388 316.794 446.172 317.578 447.138 317.578 448.104 317.578 448.888 316.794 448.888 315.829" fill="#231f20"/>
<path transform="matrix(1,0,0,-1,-42.7104,726.12)" d="M448.888 352.467C448.888 351.502 448.104 350.716 447.138 350.716 446.172 350.716 445.388 351.502 445.388 352.467 445.388 353.432 446.172 354.216 447.138 354.216 448.104 354.216 448.888 353.432 448.888 352.467" fill="#231f20"/>
<path transform="matrix(1,0,0,-1,-42.7104,726.12)" d="M453.691 345.355C453.691 344.39 452.907 343.604 451.941 343.604 450.976 343.604 450.191 344.39 450.191 345.355 450.191 346.32 450.976 347.104 451.941 347.104 452.907 347.104 453.691 346.32 453.691 345.355" fill="#231f20"/>
<path transform="matrix(1,0,0,-1,-42.7104,726.12)" d="M253.271 517.89C253.271 516.925 252.487 516.139 251.521 516.139 250.555 516.139 249.771 516.925 249.771 517.89 249.771 518.855 250.555 519.639 251.521 519.639 252.487 519.639 253.271 518.855 253.271 517.89" fill="#231f20"/>
<path transform="matrix(1,0,0,-1,-42.7104,726.12)" d="M267.01 517.89C267.01 516.925 266.226 516.139 265.26 516.139 264.294 516.139 263.51 516.925 263.51 517.89 263.51 518.855 264.294 519.639 265.26 519.639 266.226 519.639 267.01 518.855 267.01 517.89" fill="#231f20"/>
<path transform="matrix(1,0,0,-1,-42.7104,726.12)" d="M295.946 584.569C295.946 583.604 295.162 582.818 294.196 582.818 293.23 582.818 292.446 583.604 292.446 584.569 292.446 585.534 293.23 586.318 294.196 586.318 295.162 586.318 295.946 585.534 295.946 584.569" fill="#231f20"/>
<path transform="matrix(1,0,0,-1,-42.7104,726.12)" d="M295.853 521.894C295.853 520.929 295.068 520.143 294.103 520.143 293.137 520.143 292.353 520.929 292.353 521.894 292.353 522.859 293.137 523.643 294.103 523.643 295.068 523.643 295.853 522.859 295.853 521.894" fill="#231f20"/>
<text fill="#231f20" xml:space="preserve" transform="matrix(1 0 -0 1 -42.7104 726.12)" font-size="8" font-family="Helvetica"><tspan y="-503.81" x="287.216 291.216 295.664 297.44">valA</tspan></text>
<path transform="matrix(1,0,0,-1,-42.7104,726.12)" stroke-width=".75" stroke-linecap="butt" stroke-dasharray=".75,.75" stroke-miterlimit="4" stroke-linejoin="miter" fill="none" stroke="#231f20" d="M229.754 565.623H259.599"/>
<path transform="matrix(1,0,0,-1,-42.7104,726.12)" d="M261.943 565.623 258.909 564.383 259.629 565.623 258.909 566.863 261.943 565.623" fill="#231f20"/>
<path transform="matrix(1,0,0,-1,-42.7104,726.12)" stroke-width=".75" stroke-linecap="butt" stroke-dasharray=".75,.75" stroke-miterlimit="4" stroke-linejoin="miter" fill="none" stroke="#231f20" d="M229.754 558.195H259.599"/>
<path transform="matrix(1,0,0,-1,-42.7104,726.12)" d="M261.943 558.195 258.909 556.956 259.629 558.195 258.909 559.435 261.943 558.195" fill="#231f20"/>
<path transform="matrix(1,0,0,-1,-42.7104,726.12)" stroke-width=".5" stroke-linecap="butt" stroke-miterlimit="4" stroke-linejoin="miter" fill="none" stroke="#231f20" d="M155.954 514.435V590.845"/>
<path transform="matrix(1,0,0,-1,-42.7104,726.12)" d="M155.954 592.998 157.194 589.963 155.954 590.684 154.714 589.963 155.954 592.998" fill="#231f20"/>
<path transform="matrix(1,0,0,-1,-42.7104,726.12)" stroke-width=".5" stroke-linecap="butt" stroke-miterlimit="4" stroke-linejoin="miter" fill="none" stroke="#231f20" d="M155.954 420.109V497.135"/>
<path transform="matrix(1,0,0,-1,-42.7104,726.12)" d="M155.954 499.289 157.194 496.254 155.954 496.974 154.714 496.254 155.954 499.289" fill="#231f20"/>
<path transform="matrix(1,0,0,-1,-42.7104,726.12)" stroke-width=".5" stroke-linecap="butt" stroke-miterlimit="4" stroke-linejoin="miter" fill="none" stroke="#231f20" d="M155.954 284.349V402.028"/>
<path transform="matrix(1,0,0,-1,-42.7104,726.12)" d="M155.954 404.18 157.194 401.146 155.954 401.865 154.714 401.146 155.954 404.18" fill="#231f20"/>
<path transform="matrix(1,0,0,-1,-42.7104,726.12)" stroke-width=".5" stroke-linecap="butt" stroke-miterlimit="4" stroke-linejoin="miter" fill="none" stroke="#231f20" d="M155.954 253.79V267.05"/>
<path transform="matrix(1,0,0,-1,-42.7104,726.12)" d="M155.954 269.202 157.194 266.168 155.954 266.888 154.714 266.168 155.954 269.202" fill="#231f20"/>
<path transform="matrix(1,0,0,-1,-42.7104,726.12)" stroke-width=".5" stroke-linecap="butt" stroke-miterlimit="4" stroke-linejoin="miter" fill="none" stroke="#231f20" d="M176.688 284.349V402.028"/>
<path transform="matrix(1,0,0,-1,-42.7104,726.12)" d="M176.688 404.18 177.928 401.146 176.688 401.865 175.448 401.146 176.688 404.18" fill="#231f20"/>
<path transform="matrix(1,0,0,-1,-42.7104,726.12)" d="M181.648 202.343 178.614 201.103 179.334 202.343 178.614 203.582 181.648 202.343" fill="#231f20"/>
<path transform="matrix(1,0,0,-1,-42.7104,726.12)" stroke-width=".5" stroke-linecap="butt" stroke-miterlimit="4" stroke-linejoin="miter" fill="none" stroke="#231f20" d="M348.02 514.518V590.987"/>
<path transform="matrix(1,0,0,-1,-42.7104,726.12)" d="M348.02 593.389 349.26 590.355 348.02 591.075 346.78 590.355 348.02 593.389" fill="#231f20"/>
<path transform="matrix(1,0,0,-1,-42.7104,726.12)" stroke-width=".5" stroke-linecap="butt" stroke-miterlimit="4" stroke-linejoin="miter" fill="none" stroke="#231f20" d="M369.537 514.518V590.987"/>
<path transform="matrix(1,0,0,-1,-42.7104,726.12)" d="M369.537 593.389 370.777 590.355 369.537 591.075 368.298 590.355 369.537 593.389" fill="#231f20"/>
<path transform="matrix(1,0,0,-1,-42.7104,726.12)" stroke-width=".5" stroke-linecap="butt" stroke-miterlimit="4" stroke-linejoin="miter" fill="none" stroke="#231f20" d="M348.02 452.707V496.788"/>
<path transform="matrix(1,0,0,-1,-42.7104,726.12)" d="M348.02 498.941 349.26 495.906 348.02 496.626 346.78 495.906 348.02 498.941" fill="#231f20"/>
<path transform="matrix(1,0,0,-1,-42.7104,726.12)" d="M294.403 498.941 296.264 494.39 294.403 495.469 292.544 494.39 294.403 498.941" fill="#231f20"/>
<path transform="matrix(1,0,0,-1,-42.7104,726.12)" stroke-width=".5" stroke-linecap="butt" stroke-miterlimit="4" stroke-linejoin="miter" fill="none" stroke="#231f20" d="M369.537 419.631V497.314"/>
<path transform="matrix(1,0,0,-1,-42.7104,726.12)" d="M369.537 499.466 370.777 496.432 369.537 497.152 368.298 496.432 369.537 499.466" fill="#231f20"/>
<path transform="matrix(1,0,0,-1,-42.7104,726.12)" d="M436.704 463.516 434.844 468.067 436.704 466.987 438.563 468.067 436.704 463.516" fill="#231f20"/>
<path transform="matrix(1,0,0,-1,-42.7104,726.12)" d="M431.195 463.516 429.335 468.067 431.195 466.987 433.055 468.067 431.195 463.516" fill="#231f20"/>
<path transform="matrix(1,0,0,-1,-42.7104,726.12)" d="M441.258 463.516 439.397 468.067 441.258 466.987 443.117 468.067 441.258 463.516" fill="#231f20"/>
<path transform="matrix(1,0,0,-1,-42.7104,726.12)" d="M426.261 463.516 424.4 468.067 426.261 466.987 428.12 468.067 426.261 463.516" fill="#231f20"/>
<path transform="matrix(1,0,0,-1,-42.7104,726.12)" d="M447.247 463.516 445.387 468.067 447.247 466.987 449.106 468.067 447.247 463.516" fill="#231f20"/>
<path transform="matrix(1,0,0,-1,-42.7104,726.12)" d="M451.984 463.516 450.124 468.067 451.984 466.987 453.844 468.067 451.984 463.516" fill="#231f20"/>
<path transform="matrix(1,0,0,-1,-42.7104,726.12)" stroke-width="1.5" stroke-linecap="butt" stroke-miterlimit="4" stroke-linejoin="miter" fill="none" stroke="#231f20" d="M212.502 402.027V321.187H248.044V284.521"/>
<path transform="matrix(1,0,0,-1,-42.7104,726.12)" d="M212.502 404.18 214.362 399.629 212.502 400.708 210.642 399.629 212.502 404.18" fill="#231f20"/>
<path transform="matrix(1,0,0,-1,-42.7104,726.12)" stroke-width="1.5" stroke-linecap="butt" stroke-miterlimit="4" stroke-linejoin="miter" fill="none" stroke="#231f20" d="M227.083 435.179V420.11"/>
<path transform="matrix(1,0,0,-1,-42.7104,726.12)" d="M227.083 437.332 228.942 432.78 227.083 433.861 225.224 432.78 227.083 437.332" fill="#231f20"/>
<path transform="matrix(1,0,0,-1,-42.7104,726.12)" stroke-width="1.5" stroke-linecap="butt" stroke-miterlimit="4" stroke-linejoin="miter" fill="none" stroke="#231f20" d="M268.437 435.613V429.321H315.374V418.936"/>
<path transform="matrix(1,0,0,-1,-42.7104,726.12)" d="M268.437 437.767 270.297 433.215 268.437 434.295 266.577 433.215 268.437 437.767" fill="#231f20"/>
<path transform="matrix(1,0,0,-1,-42.7104,726.12)" stroke-width="1.5" stroke-linecap="butt" stroke-miterlimit="4" stroke-linejoin="miter" fill="none" stroke="#231f20" d="M236.41 435.179V424.497H294.421V495.998"/>
<path transform="matrix(1,0,0,-1,-42.7104,726.12)" d="M236.41 437.332 238.27 432.78 236.41 433.861 234.55 432.78 236.41 437.332" fill="#231f20"/>
<path transform="matrix(1,0,0,-1,-42.7104,726.12)" stroke-width="1.5" stroke-linecap="butt" stroke-miterlimit="4" stroke-linejoin="miter" fill="none" stroke="#231f20" d="M315.496 383.638V402.324"/>
<path transform="matrix(1,0,0,-1,-42.7104,726.12)" d="M315.496 404.478 317.356 399.926 315.496 401.006 313.637 399.926 315.496 404.478" fill="#231f20"/>
<path transform="matrix(1,0,0,-1,-42.7104,726.12)" stroke-width="1.5" stroke-linecap="butt" stroke-miterlimit="4" stroke-linejoin="miter" fill="none" stroke="#231f20" d="M268.496 383.638V402.324"/>
<path transform="matrix(1,0,0,-1,-42.7104,726.12)" d="M268.496 404.478 270.356 399.926 268.496 401.006 266.637 399.926 268.496 404.478" fill="#231f20"/>
<path transform="matrix(1,0,0,-1,-42.7104,726.12)" stroke-width="1.5" stroke-linecap="butt" stroke-miterlimit="4" stroke-linejoin="miter" fill="none" stroke="#231f20" d="M315.496 323.363V332.63"/>
<path transform="matrix(1,0,0,-1,-42.7104,726.12)" d="M315.496 334.783 317.356 330.233 315.496 331.312 313.637 330.233 315.496 334.783" fill="#231f20"/>
<path transform="matrix(1,0,0,-1,-42.7104,726.12)" stroke-width="1.5" stroke-linecap="butt" stroke-miterlimit="4" stroke-linejoin="miter" fill="none" stroke="#231f20" d="M331.26 373.973H426.335V484.172H251.663M289.295 373.973H300.577"/>
<path transform="matrix(1,0,0,-1,-42.7104,726.12)" d="M287.142 373.973 291.693 375.833 290.613 373.973 291.693 372.113 287.142 373.973" fill="#231f20"/>
<path transform="matrix(1,0,0,-1,-42.7104,726.12)" stroke-width="1.5" stroke-linecap="butt" stroke-miterlimit="4" stroke-linejoin="miter" fill="none" stroke="#231f20" d="M330.201 366.833H431.075V517.974H252.085M289.295 366.833H300.577"/>
<path transform="matrix(1,0,0,-1,-42.7104,726.12)" d="M287.142 366.833 291.693 368.694 290.613 366.833 291.693 364.974 287.142 366.833" fill="#231f20"/>
<path transform="matrix(1,0,0,-1,-42.7104,726.12)" stroke-width="1.5" stroke-linecap="butt" stroke-miterlimit="4" stroke-linejoin="miter" fill="none" stroke="#231f20" d="M330.201 359.694H441.044V584.681H294.044M289.295 359.694H300.478"/>
<path transform="matrix(1,0,0,-1,-42.7104,726.12)" d="M287.142 359.694 291.693 361.554 290.613 359.694 291.693 357.834 287.142 359.694" fill="#231f20"/>
<path transform="matrix(1,0,0,-1,-42.7104,726.12)" stroke-width="1.5" stroke-linecap="butt" stroke-miterlimit="4" stroke-linejoin="miter" fill="none" stroke="#231f20" d="M330.868 352.554H446.472M289.295 352.554H300.377"/>
<path transform="matrix(1,0,0,-1,-42.7104,726.12)" d="M287.142 352.554 291.693 354.414 290.613 352.554 291.693 350.695 287.142 352.554" fill="#231f20"/>
<path transform="matrix(1,0,0,-1,-42.7104,726.12)" stroke-width="1.5" stroke-linecap="butt" stroke-miterlimit="4" stroke-linejoin="miter" fill="none" stroke="#231f20" d="M331.535 345.414H451.155M289.295 345.414H300.478"/>
<path transform="matrix(1,0,0,-1,-42.7104,726.12)" d="M287.142 345.414 291.693 347.275 290.613 345.414 291.693 343.555 287.142 345.414" fill="#231f20"/>
<path transform="matrix(1,0,0,-1,-42.7104,726.12)" d="M329.142 373.973 333.693 375.833 332.613 373.973 333.693 372.113 329.142 373.973" fill="#231f20"/>
<path transform="matrix(1,0,0,-1,-42.7104,726.12)" d="M329.142 366.833 333.693 368.694 332.613 366.833 333.693 364.974 329.142 366.833" fill="#231f20"/>
<path transform="matrix(1,0,0,-1,-42.7104,726.12)" d="M329.142 359.694 333.693 361.554 332.613 359.694 333.693 357.834 329.142 359.694" fill="#231f20"/>
<path transform="matrix(1,0,0,-1,-42.7104,726.12)" d="M329.142 352.554 333.693 354.414 332.613 352.554 333.693 350.695 329.142 352.554" fill="#231f20"/>
<path transform="matrix(1,0,0,-1,-42.7104,726.12)" d="M329.142 345.414 333.693 347.275 332.613 345.414 333.693 343.555 329.142 345.414" fill="#231f20"/>
<path transform="matrix(1,0,0,-1,-42.7104,726.12)" stroke-width="1.5" stroke-linecap="butt" stroke-miterlimit="4" stroke-linejoin="miter" fill="none" stroke="#231f20" d="M294.184 514.854V549.472"/>
<path transform="matrix(1,0,0,-1,-42.7104,726.12)" d="M294.184 551.835 296.044 547.283 294.184 548.613 292.324 547.533 294.184 551.835" fill="#231f20"/>
<path transform="matrix(1,0,0,-1,-42.7104,726.12)" stroke-width="1.5" stroke-linecap="butt" stroke-miterlimit="4" stroke-linejoin="miter" fill="none" stroke="#231f20" d="M294.184 578.485V591.324"/>
<path transform="matrix(1,0,0,-1,-42.7104,726.12)" d="M294.184 593.727 296.044 589.175 294.184 590.255 292.324 589.175 294.184 593.727" fill="#231f20"/>
<path transform="matrix(1,0,0,-1,-42.7104,726.12)" stroke-width="1.5" stroke-linecap="butt" stroke-miterlimit="4" stroke-linejoin="miter" fill="none" stroke="#231f20" d="M271.851 544.187V548.604"/>
<path transform="matrix(1,0,0,-1,-42.7104,726.12)" d="M271.851 551.772 273.711 547.22 271.851 548.3 269.991 547.22 271.851 551.772" fill="#231f20"/>
<path transform="matrix(1,0,0,-1,-42.7104,726.12)" stroke-width="1.5" stroke-linecap="butt" stroke-miterlimit="4" stroke-linejoin="miter" fill="none" stroke="#231f20" d="M332.978 260.942H238.816"/>
<path transform="matrix(1,0,0,-1,-42.7104,726.12)" d="M334.881 260.942 330.33 259.081 331.409 260.942 330.33 262.801 334.881 260.942" fill="#231f20"/>
<path transform="matrix(1,0,0,-1,-42.7104,726.12)" stroke-width="1.5" stroke-linecap="butt" stroke-miterlimit="4" stroke-linejoin="miter" fill="none" stroke="#231f20" d="M332.978 254.79H305.4"/>
<path transform="matrix(1,0,0,-1,-42.7104,726.12)" d="M240.561 260.862C240.561 259.898 239.777 259.112 238.811 259.112 237.845 259.112 237.061 259.898 237.061 260.862 237.061 261.827 237.845 262.612 238.811 262.612 239.777 262.612 240.561 261.827 240.561 260.862" fill="#231f20"/>
<path transform="matrix(1,0,0,-1,-42.7104,726.12)" d="M335.131 254.79 330.58 252.93 331.659 254.79 330.58 256.65 335.131 254.79" fill="#231f20"/>
<path transform="matrix(1,0,0,-1,-42.7104,726.12)" stroke-width="1.5" stroke-linecap="butt" stroke-miterlimit="4" stroke-linejoin="miter" fill="none" stroke="#231f20" d="M334.434 300.39H451.963V618.271H251.483V608.191"/>
<path transform="matrix(1,0,0,-1,-42.7104,726.12)" d="M332.28 300.39 336.832 302.25 335.752 300.39 336.832 298.53 332.28 300.39" fill="#231f20"/>
<path transform="matrix(1,0,0,-1,-42.7104,726.12)" stroke-width="1.5" stroke-linecap="butt" stroke-miterlimit="4" stroke-linejoin="miter" fill="none" stroke="#231f20" d="M220.413 197.458H447.298V613.255H294.121V608.01"/>
<path transform="matrix(1,0,0,-1,-42.7104,726.12)" d="M218.279 197.458 222.831 199.319 221.75 197.458 222.831 195.599 218.279 197.458" fill="#231f20"/>
<path transform="matrix(1,0,0,-1,-42.7104,726.12)" d="M218.38 207.336 222.933 209.196 221.852 207.336 222.933 205.477 218.38 207.336" fill="#231f20"/>
<path transform="matrix(1,0,0,-1,-42.7104,726.12)" stroke-width="1.5" stroke-linecap="butt" stroke-miterlimit="4" stroke-linejoin="miter" fill="none" stroke="#231f20" d="M334.434 315.648H446.352"/>
<path transform="matrix(1,0,0,-1,-42.7104,726.12)" d="M332.28 315.648 336.832 317.508 335.752 315.648 336.832 313.788 332.28 315.648" fill="#231f20"/>
<path transform="matrix(1,0,0,-1,-42.7104,726.12)" stroke-width=".5" stroke-linecap="butt" stroke-miterlimit="4" stroke-linejoin="miter" fill="none" stroke="#231f20" d="M214.26 474.917H232.639"/>
<path transform="matrix(1,0,0,-1,-42.7104,726.12)" d="M212.107 474.917 215.142 476.156 214.421 474.917 215.142 473.677 212.107 474.917" fill="#231f20"/>
<path transform="matrix(1,0,0,-1,-42.7104,726.12)" stroke-width=".75" stroke-linecap="butt" stroke-dasharray=".75,.75" stroke-miterlimit="4" stroke-linejoin="miter" fill="none" stroke="#231f20" d="M200.063 496.788V481.854"/>
<path transform="matrix(1,0,0,-1,-42.7104,726.12)" d="M200.063 498.941 201.303 495.906 200.063 496.627 198.823 495.906 200.063 498.941" fill="#231f20"/>
<path transform="matrix(1,0,0,-1,-42.7104,726.12)" stroke-width=".75" stroke-linecap="butt" stroke-dasharray=".75,.75" stroke-miterlimit="4" stroke-linejoin="miter" fill="none" stroke="#231f20" d="M342.5 455.297V492.231H199.85"/>
<path transform="matrix(1,0,0,-1,-42.7104,726.12)" d="M342.5 453.143 343.74 456.178 342.5 455.458 341.26 456.178 342.5 453.143" fill="#231f20"/>
<path transform="matrix(1,0,0,-1,-42.7104,726.12)" stroke-width="1.5" stroke-linecap="butt" stroke-miterlimit="4" stroke-linejoin="miter" fill="none" stroke="#231f20" d="M251.393 496.788V480.529"/>
<path transform="matrix(1,0,0,-1,-42.7104,726.12)" d="M251.393 498.941 253.252 494.389 251.393 495.469 249.533 494.389 251.393 498.941" fill="#231f20"/>
<path transform="matrix(1,0,0,-1,-42.7104,726.12)" stroke-width="1.5" stroke-linecap="butt" stroke-miterlimit="4" stroke-linejoin="miter" fill="none" stroke="#231f20" d="M265.378 517.984V526.562M251.393 590.789V514.052"/>
<path transform="matrix(1,0,0,-1,-42.7104,726.12)" d="M265.378 528.859 267.238 524.307 265.378 525.387 263.519 524.307 265.378 528.859" fill="#231f20"/>
<path transform="matrix(1,0,0,-1,-42.7104,726.12)" d="M275.722 528.555 277.582 524.003 275.722 525.083 273.862 524.003 275.722 528.555" fill="#231f20"/>
<path transform="matrix(1,0,0,-1,-42.7104,726.12)" d="M251.393 593.192 253.253 588.64 251.393 589.72 249.533 588.64 251.393 593.192" fill="#231f20"/>
<path transform="matrix(1,0,0,-1,-42.7104,726.12)" stroke-width="1.5" stroke-linecap="butt" stroke-miterlimit="4" stroke-linejoin="miter" fill="none" stroke="#231f20" d="M275.711 527.214V521.88H436.676V207.352H220.551"/>
<path transform="matrix(1,0,0,-1,-42.7104,726.12)" stroke-width=".5" stroke-linecap="butt" stroke-miterlimit="4" stroke-linejoin="miter" fill="none" stroke="#231f20" d="M276.223 467.777H307.798"/>
<path transform="matrix(1,0,0,-1,-42.7104,726.12)" d="M274.069 467.777 277.104 469.017 276.384 467.777 277.104 466.537 274.069 467.777" fill="#231f20"/>
<path transform="matrix(1,0,0,-1,-42.7104,726.12)" stroke-width="1.5" stroke-linecap="butt" stroke-miterlimit="4" stroke-linejoin="miter" fill="none" stroke="#231f20" d="M305.229 267.049V250.704"/>
<path transform="matrix(1,0,0,-1,-42.7104,726.12)" d="M305.229 269.202 307.09 264.651 305.229 265.731 303.37 264.651 305.229 269.202" fill="#231f20"/>
<path transform="matrix(1,0,0,-1,-42.7104,726.12)" stroke-width="1.5" stroke-linecap="butt" stroke-miterlimit="4" stroke-linejoin="miter" fill="none" stroke="#231f20" d="M238.816 267.44V253.79"/>
<path transform="matrix(1,0,0,-1,-42.7104,726.12)" d="M238.816 269.593 240.676 265.041 238.816 266.121 236.956 265.041 238.816 269.593" fill="#231f20"/>
<path transform="matrix(1,0,0,-1,-42.7104,726.12)" stroke-width="1.5" stroke-linecap="butt" stroke-miterlimit="4" stroke-linejoin="miter" fill="none" stroke="#231f20" d="M200.066 189.44V184.988"/>
<path transform="matrix(1,0,0,-1,-42.7104,726.12)" d="M200.066 192.593 201.926 188.041 200.066 189.121 198.206 188.041 200.066 192.593" fill="#231f20"/>
<path transform="matrix(1,0,0,-1,-42.7104,726.12)" stroke-width="1.5" stroke-linecap="butt" stroke-miterlimit="4" stroke-linejoin="miter" fill="none" stroke="#231f20" d="M306.566 221.821V216.488H200.211"/>
<path transform="matrix(1,0,0,-1,-42.7104,726.12)" d="M306.566 224.225 308.427 219.674 306.566 220.753 304.707 219.674 306.566 224.225" fill="#231f20"/>
<path transform="matrix(1,0,0,-1,-42.7104,726.12)" stroke-width="1.5" stroke-linecap="butt" stroke-miterlimit="4" stroke-linejoin="miter" fill="none" stroke="#231f20" d="M200.204 225.44V212.15"/>
<path transform="matrix(1,0,0,-1,-42.7104,726.12)" d="M200.204 227.593 202.063 223.041 200.204 224.121 198.344 223.041 200.204 227.593" fill="#231f20"/>
<path transform="matrix(1,0,0,-1,-42.7104,726.12)" stroke-width="1.5" stroke-linecap="butt" stroke-miterlimit="4" stroke-linejoin="miter" fill="none" stroke="#231f20" d="M200.125 167.774V161.29H355.211V243.488"/>
<path transform="matrix(1,0,0,-1,-42.7104,726.12)" d="M200.125 169.927 201.984 165.375 200.125 166.455 198.265 165.375 200.125 169.927" fill="#231f20"/>
<path transform="matrix(1,0,0,-1,-42.7104,726.12)" stroke-width="1.5" stroke-linecap="butt" stroke-miterlimit="4" stroke-linejoin="miter" fill="none" stroke="#231f20" d="M268.476 332.021V290.282H305.221V284.35"/>
<path transform="matrix(1,0,0,-1,-42.7104,726.12)" d="M268.476 334.174 270.336 329.623 268.476 330.702 266.616 329.623 268.476 334.174" fill="#231f20"/>
<path transform="matrix(1,0,0,-1,-42.7104,726.12)" stroke-width="1.5" stroke-linecap="butt" stroke-miterlimit="4" stroke-linejoin="miter" fill="none" stroke="#231f20" d="M282.648 332.021V320H287.966"/>
<path transform="matrix(1,0,0,-1,-42.7104,726.12)" d="M282.648 334.174 284.509 329.623 282.648 330.702 280.789 329.623 282.648 334.174" fill="#231f20"/>
<path transform="matrix(1,0,0,-1,-42.7104,726.12)" stroke-width=".5" stroke-linecap="butt" stroke-miterlimit="4" stroke-linejoin="miter" fill="none" stroke="#231f20" d="M176.297 253.79V267.658"/>
<path transform="matrix(1,0,0,-1,-42.7104,726.12)" d="M176.297 269.812 177.537 266.778 176.297 267.497 175.057 266.778 176.297 269.812" fill="#231f20"/>
<path transform="matrix(1,0,0,-1,-42.7104,726.12)" stroke-width=".5" stroke-linecap="butt" stroke-miterlimit="4" stroke-linejoin="miter" fill="none" stroke="#231f20" d="M197.964 253.79V267.658"/>
<path transform="matrix(1,0,0,-1,-42.7104,726.12)" d="M197.964 269.812 199.204 266.778 197.964 267.497 196.724 266.778 197.964 269.812" fill="#231f20"/>
<path transform="matrix(1,0,0,-1,-42.7104,726.12)" stroke-width=".5" stroke-linecap="butt" stroke-miterlimit="4" stroke-linejoin="miter" fill="none" stroke="#231f20" d="M219.331 253.79V267.658"/>
<path transform="matrix(1,0,0,-1,-42.7104,726.12)" d="M219.331 269.812 220.571 266.778 219.331 267.497 218.091 266.778 219.331 269.812" fill="#231f20"/>
<path transform="matrix(1,0,0,-1,-42.7104,726.12)" stroke-width="1.5" stroke-linecap="butt" stroke-miterlimit="4" stroke-linejoin="miter" fill="none" stroke="#231f20" d="M272.504 419.486V424.888M268.508 457.52V461.187M230.572 457.52V461.187"/>
<g clip-path="url(#clip_3246)">
<g clip-path="url(#clip_3247)">
<path transform="matrix(1,0,0,-1,-42.7104,726.12)" stroke-width=".75" stroke-linecap="butt" stroke-dasharray=".75,.75" stroke-miterlimit="4" stroke-linejoin="miter" fill="none" stroke="#231f20" d="M199.517 514.299V520.705H94.875V202.368H180.534"/>
</g>
</g>
<path transform="matrix(1,0,0,-1,-42.7104,726.12)" stroke-width=".5" stroke-linecap="butt" stroke-miterlimit="4" stroke-linejoin="miter" fill="none" stroke="#231f20" d="M347.588 419.516V438.919"/>
<path transform="matrix(1,0,0,-1,-42.7104,726.12)" d="M347.668 440.889 348.908 437.855 347.668 438.575 346.429 437.855 347.668 440.889" fill="#231f20"/>
<text fill="#231f20" xml:space="preserve" transform="matrix(1 0 -0 1 -42.7104 726.12)" font-size="8" font-family="Helvetica"><tspan y="-359.058" x="307.208 312.096 317.872">Fwd</tspan><tspan y="-350.058" x="312.096">B</tspan></text>
<text fill="#ffffff" xml:space="preserve" transform="matrix(1 0 -0 1 -42.7104 726.12)" font-size="8" font-family="Helvetica"><tspan y="-597.8052" x="105.824817">W</tspan></text>
<text fill="#231f20" xml:space="preserve" transform="matrix(1 0 -0 1 -42.7104 726.12)" font-size="8" font-family="Helvetica"><tspan y="-597.8052" x="145.73282 147.50882 151.50882 155.95682 160.40482 244.7232 248.7232 253.1712 254.9472 286.732 290.732 295.18 296.956 339.2888 343.7368 347.7368 349.9608 360.3104 364.7584 368.7584 370.9824">icodevalEvalMdstEdstM</tspan></text>
<text fill="#231f20" xml:space="preserve" transform="matrix(1 0 -0 1 -42.7104 726.12)" font-size="7.5" font-family="Helvetica"><tspan y="-448.224" x="224.865 229.86751 234.0375">ALU</tspan><tspan y="-440.22377" x="229.863">A</tspan><tspan y="-448.224" x="261.69526 266.69776 270.86778">ALU</tspan><tspan y="-440.22377" x="266.487">B</tspan><tspan y="-467.403" x="314.10676 319.10926 323.27928">ALU</tspan><tspan y="-459.40278" x="315.14476 317.22975 321.39976 325.56977">fun.</tspan></text>
<text fill="#ffffff" xml:space="preserve" transform="matrix(1 0 -0 1 -42.7104 726.12)" font-size="8" font-family="Helvetica"><tspan y="-503.81" x="106.269">M</tspan></text>
<text fill="#231f20" xml:space="preserve" transform="matrix(1 0 -0 1 -42.7104 726.12)" font-size="8" font-family="Helvetica"><tspan y="-503.81" x="145.733 147.509 151.509 155.957 160.405 190.6314 196.4074 200.8554 244.3234 248.3234 252.7714 254.5474 287.2162 291.2162 295.66419 297.4402 338.8906 343.3386 347.3386 349.5626 359.9122 364.3602 368.3602 370.5842">icodeCndvalEvalAdstEdstM</tspan></text>
<text fill="#ffffff" xml:space="preserve" transform="matrix(1 0 -0 1 -42.7104 726.12)" font-size="8" font-family="Helvetica"><tspan y="-409.0244" x="106.933">E</tspan></text>
<text fill="#231f20" xml:space="preserve" transform="matrix(1 0 -0 1 -42.7104 726.12)" font-size="8" font-family="Helvetica"><tspan y="-409.0244" x="145.733 147.509 151.509 155.957 160.405 171.2322 173.0082 175.2322 179.68019">icodeifun</tspan><tspan y="-409.02363" x="205.2578 209.2578 213.7058 215.4818 255.4194 259.4194 263.8674 265.6434 304.9226 308.9226 313.3706 315.1466">valCvalAvalB</tspan><tspan y="-409.0244" x="359.5138 363.9618 367.9618 370.1858 382.0882 386.0882 388.7522 392.7522 403.205 407.205 409.869 413.869 339.541 343.98899 347.98899 350.21299">dstMsrcAsrcBdstE</tspan></text>
<text fill="#ffffff" xml:space="preserve" transform="matrix(1 0 -0 1 -42.7104 726.12)" font-size="8" font-family="Helvetica"><tspan y="-273.8628" x="106.71298">D</tspan></text>
<text fill="#231f20" xml:space="preserve" transform="matrix(1 0 -0 1 -42.7104 726.12)" font-size="8" font-family="Helvetica"><tspan y="-273.8628" x="145.73299 147.50899 151.50899 155.95699 160.40499 171.23218 173.00818 175.23218 179.68018 244.02259 248.02259 252.47058 254.24658 298.1898 302.1898 306.6378 308.4138 215.4242 218.0882 195.0074 197.6714">icodeifunvalCvalPrBrA</tspan></text>
<text fill="#ffffff" xml:space="preserve" transform="matrix(1 0 -0 1 -42.7104 726.12)" font-size="8" font-family="Helvetica"><tspan y="-174.61879" x="107.157">F</tspan></text>
<text fill="#231f20" xml:space="preserve" transform="matrix(1 0 -0 1 -42.7104 726.12)" font-size="8" font-family="Helvetica"><tspan y="-174.61879" x="186.6578 191.1058 193.7698 198.2178 202.6658 208.0018">predPC</tspan></text>
<text fill="#231f20" xml:space="preserve" transform="matrix(1 0 -0 1 -42.7104 726.12)" font-size="6" font-family="Helvetica"><tspan y="-578.8771" x="297.71 301.046 304.382 306.05 309.386 311.054 314.38999 317.72599">data out</tspan><tspan y="-544.46829" x="298.2812 301.6172 304.9532 306.6212 309.95719 311.62519 312.95719">data in</tspan><tspan y="-523.33926" x="169.06099 174.05899 177.39499 181.72699 185.06299">M_Cnd</tspan><tspan y="-577.55227" x="182.38399 185.71999 190.71799 194.05399 199.05199 202.38799 205.72399 207.72199 209.71999 213.05599">dmem_error</tspan><tspan y="-584.82009" x="113.09119 118.08919 121.425189 124.425189 126.093189 129.42919">m_stat</tspan><tspan y="-524.0323" x="228.39499 233.39299 236.72899 239.72899 243.06499 244.39699">M_valE</tspan><tspan y="-577.7545" x="396.8972 401.89518 405.23118 408.23118 411.56718 412.89918">m_valM</tspan><tspan y="-484.72633" x="205.487 208.823 212.159 216.491 219.827">e_Cnd</tspan></text>
<text fill="#231f20" xml:space="preserve" transform="matrix(1 0 -0 1 -42.7104 726.12)" font-size="8" font-family="Helvetica" font-weight="bold"><tspan y="-545.356" x="96.6665 103.3305 107.778499 114.890499 119.778499 122.968898">Memory</tspan></text>
<text fill="#231f20" xml:space="preserve" transform="matrix(1 0 -0 1 -42.7104 726.12)" font-size="8" font-family="Helvetica"><tspan y="-468.3952" x="243.6297 248.9657 253.4137">ALU</tspan></text>
<text fill="#231f20" xml:space="preserve" transform="matrix(1 0 -0 1 -42.7104 726.12)" font-size="8" font-family="Helvetica" font-weight="bold"><tspan y="-439.588" x="97.15849 102.49449 106.86409 111.31209 115.760089 120.64809 123.31209">Execute</tspan></text>
<text fill="#231f20" xml:space="preserve" transform="matrix(1 0 -0 1 -42.7104 726.12)" font-size="8" font-family="Helvetica"><tspan y="-386.7824" x="338.5473 342.9953 346.9953 349.2193">dstE</tspan><tspan y="-444.1144" x="338.5473 342.9953 346.9953 349.2193">dstE</tspan><tspan y="-386.7824" x="359.5153 363.9633 367.9633 370.1873 382.0345 386.0345 388.6985 392.6985 403.5345 407.5345 410.1985 414.1985">dstMsrcAsrcB</tspan><tspan y="-359.0584" x="253.41449 258.7505 263.1985 264.9745 269.64649 274.5345 280.3105">Sel+Fwd</tspan><tspan y="-350.0584" x="266.6385">A</tspan></text>
<text fill="#231f20" xml:space="preserve" transform="matrix(1 0 -0 1 -42.7104 726.12)" font-size="8.8" font-family="Helvetica"><tspan y="-255.78" x="342.014 347.8836 350.814 355.7068 360.59959 362.5532 366.9532">Predict</tspan><tspan y="-245.88" x="349.5961 355.4657">PC</tspan></text>
<text fill="#231f20" xml:space="preserve" transform="matrix(1 0 -0 1 -42.7104 726.12)" font-size="8" font-family="Helvetica"><tspan y="-203.598" x="189.468 194.804 199.252 201.028 205.476 209.476">Select</tspan><tspan y="-194.598" x="195.028 200.364">PC</tspan></text>
<text fill="#231f20" xml:space="preserve" transform="matrix(1 0 -0 1 -42.7104 726.12)" font-size="6" font-family="Helvetica"><tspan y="-397.792" x="370.656 373.992 377.328 380.328 382.326 385.326">d_srcA</tspan><tspan y="-397.8592" x="392.6448 395.9808 399.3168 402.3168 404.3148 407.3148">d_srcB</tspan><tspan y="-317.95719" x="373.8996 379.5636 382.8996 385.8996 389.2356 390.5676">W_valM</tspan><tspan y="-459.6742" x="348.9198 352.2558 355.5918 358.9278 361.9278 363.5958">e_dstE</tspan><tspan y="-524.6032" x="389.5326 394.53059 397.86659 400.86659 404.20259 405.53459">M_valA</tspan><tspan y="-605.8684" x="423.75779 429.42179 432.75779 435.75779 439.09379 440.42579">W_valM</tspan><tspan y="-620.7454" x="424.25578 429.91978 433.25578 436.25578 439.59178 440.92378">W_valE</tspan><tspan y="-302.89244" x="374.39759 380.06159 383.39759 386.39759 389.73359 391.06559">W_valE</tspan><tspan y="-210.45763" x="381.5358 386.53379 389.86979 392.86979 396.20579 397.53779">M_valA</tspan><tspan y="-200.39142" x="380.5398 386.2038 389.5398 392.5398 395.8758 397.2078">W_valM</tspan></text>
<text fill="#231f20" xml:space="preserve" transform="matrix(1 0 -0 1 -42.7104 726.12)" font-size="8" font-family="Helvetica"><tspan y="-469.585" x="193.22 198.996">CC</tspan></text>
<text fill="#231f20" xml:space="preserve" transform="matrix(1 0 -0 1 -42.7104 726.12)" font-size="8" font-family="Helvetica" font-weight="bold"><tspan y="-321.1178" x="97.5112 103.2872 107.7352 112.1832 117.0712 121.9592">Decode</tspan><tspan y="-223.79779" x="97.3304 102.2184 106.6664 109.3304 113.7">Fetch</tspan></text>
<text fill="#231f20" xml:space="preserve" transform="matrix(1 0 -0 1 -42.7104 726.12)" font-size="6" font-family="Helvetica"><tspan y="-567.7471" x="236.896 238.894 242.23 245.566">read</tspan><tspan y="-551.66287" x="236.1418 240.4738 242.4718 243.8038 245.4718">write</tspan></text>
<text fill="#231f20" xml:space="preserve" transform="matrix(1 0 -0 1 -42.7104 726.12)" font-size="8" font-family="Helvetica"><tspan y="-566.602" x="274.838 280.614 285.062 287.286">Data</tspan><tspan y="-557.602" x="268.842 275.506 279.954 286.618 291.066 293.73">memory</tspan><tspan y="-533.6332" x="262.506 267.842 272.29 276.738">Addr</tspan></text>
<text fill="#231f20" xml:space="preserve" transform="matrix(1 0 -0 1 -42.7104 726.12)" font-size="7.5" font-family="Helvetica"><tspan y="-563.591" x="206.018 212.2655 216.4355 222.683">Mem.</tspan><tspan y="-555.59078" x="204.13925 207.88925 212.05925 216.22925 218.31426 220.81175 224.98175">control</tspan></text>
<text fill="#231f20" xml:space="preserve" transform="matrix(1 0 -0 1 -42.7104 726.12)" font-size="8" font-family="Helvetica"><tspan y="-310.256" x="293.461 299.237 303.685 308.133 309.909 313.909 316.133 320.581">Register</tspan><tspan y="-301.256" x="303.241 305.465 307.241 309.017">file</tspan></text>
<text fill="#231f20" xml:space="preserve" transform="matrix(1 0 -0 1 -42.7104 726.12)" font-size="6" font-family="Helvetica"><tspan y="-318.017" x="292.181 313.778">AB</tspan><tspan y="-298.40119" x="325.3058">E</tspan><tspan y="-313.3982" x="324.8078">M</tspan></text>
<path transform="matrix(1,0,0,-1,-42.7104,726.12)" d="M246.266 227.33H153.36101V252.33H246.266ZM153.361 227.33" fill="#231f20"/>
<path transform="matrix(1,0,0,-1,-42.7104,726.12)" d="M244.967 228.631H152.062V253.631H244.967ZM152.062 228.631" fill="#d4effc"/>
<path transform="matrix(1,0,0,-1,-42.7104,726.12)" stroke-width=".5" stroke-linecap="butt" stroke-miterlimit="4" stroke-linejoin="miter" fill="none" stroke="#00adef" d="M244.967 228.631H152.062V253.631H244.967Z"/>
<path transform="matrix(1,0,0,-1,-42.7104,726.12)" d="M325.697 224.33H286.947V249.33H325.697ZM286.947 224.33" fill="#231f20"/>
<path transform="matrix(1,0,0,-1,-42.7104,726.12)" d="M324.398 225.631H285.648V250.631H324.398ZM285.648 225.631" fill="#d4effc"/>
<path transform="matrix(1,0,0,-1,-42.7104,726.12)" stroke-width=".5" stroke-linecap="butt" stroke-miterlimit="4" stroke-linejoin="miter" fill="none" stroke="#00adef" d="M324.398 225.631H285.648V250.631H324.398Z"/>
<text fill="#231f20" xml:space="preserve" transform="matrix(1 0 -0 1 -42.7104 726.12)" font-size="8" font-family="Helvetica"><tspan y="-240.488" x="299.406 304.742">PC</tspan><tspan y="-231.488" x="287.402 289.178 293.626 297.626 300.29 304.738 311.402 315.85 320.298">increment</tspan><tspan y="-243.488" x="176.0364 178.2604 182.7084 186.7084 188.9324 191.5964 196.0444 200.0444 202.2684 204.0444 208.4924">Instruction</tspan><tspan y="-234.488" x="180.0444 186.7084 191.1564 197.8204 202.2684 204.9324">memory</tspan></text>
<text fill="#231f20" xml:space="preserve" transform="matrix(1 0 -0 1 -42.7104 726.12)" font-size="6" font-family="Helvetica"><tspan y="-218.736" x="181.708 183.37599 186.71199 190.04799">f_pc</tspan></text>
<path transform="matrix(1,0,0,-1,-42.7104,726.12)" d="M144.735 269.676H123.735V284.324H144.735ZM123.735 269.676" fill="#ffffff"/>
<path transform="matrix(1,0,0,-1,-42.7104,726.12)" stroke-width="1" stroke-linecap="butt" stroke-miterlimit="4" stroke-linejoin="miter" fill="none" stroke="#231f20" d="M144.735 269.676H123.735V284.324H144.735Z"/>
<path transform="matrix(1,0,0,-1,-42.7104,726.12)" d="M157.756 257.92C157.756 256.955 156.972 256.169 156.006 256.169 155.04 256.169 154.256 256.955 154.256 257.92 154.256 258.885 155.04 259.669 156.006 259.669 156.972 259.669 157.756 258.885 157.756 257.92" fill="#231f20"/>
<path transform="matrix(1,0,0,-1,-42.7104,726.12)" stroke-width=".5" stroke-linecap="butt" stroke-miterlimit="4" stroke-linejoin="miter" fill="none" stroke="#231f20" d="M134.954 263.298V267.05"/>
<path transform="matrix(1,0,0,-1,-42.7104,726.12)" d="M134.954 269.202 136.194 266.168 134.954 266.888 133.714 266.168 134.954 269.202" fill="#231f20"/>
<path transform="matrix(1,0,0,-1,-42.7104,726.12)" d="M145.19 253.61C145.19 251.953 143.846 250.61 142.19 250.61H128.524C126.867 250.61 125.524 251.953 125.524 253.61V258.873C125.524 260.531 126.867 261.873 128.524 261.873H142.19C143.846 261.873 145.19 260.531 145.19 258.873V253.61" fill="#b1b4b6"/>
<path transform="matrix(1,0,0,-1,-42.7104,726.12)" d="M143.891 255.045C143.891 253.389 142.547 252.045 140.891 252.045H127.226C125.569 252.045 124.226 253.389 124.226 255.045V260.309C124.226 261.967 125.569 263.309 127.226 263.309H140.891C142.547 263.309 143.891 261.967 143.891 260.309V255.045" fill="#c6c8ca"/>
<path transform="matrix(1,0,0,-1,-42.7104,726.12)" stroke-width=".75" stroke-linecap="butt" stroke-miterlimit="4" stroke-linejoin="miter" fill="none" stroke="#231f20" d="M143.891 255.045C143.891 253.389 142.547 252.045 140.891 252.045H127.226C125.569 252.045 124.226 253.389 124.226 255.045V260.309C124.226 261.967 125.569 263.309 127.226 263.309H140.891C142.547 263.309 143.891 261.967 143.891 260.309V255.045Z"/>
<text fill="#231f20" xml:space="preserve" transform="matrix(1 0 -0 1 -42.7104 726.12)" font-size="8" font-family="Helvetica"><tspan y="-255.148" x="127.675 131.675 133.899 138.347">stat</tspan></text>
<path transform="matrix(1,0,0,-1,-42.7104,726.12)" stroke-width=".5" stroke-linecap="butt" stroke-miterlimit="4" stroke-linejoin="miter" fill="none" stroke="#231f20" d="M156.006 257.919H146.254"/>
<path transform="matrix(1,0,0,-1,-42.7104,726.12)" d="M144.102 257.919 147.136 256.68 146.416 257.919 147.136 259.158 144.102 257.919" fill="#231f20"/>
<path transform="matrix(1,0,0,-1,-42.7104,726.12)" stroke-width=".5" stroke-linecap="butt" stroke-dasharray=".75,.75" stroke-miterlimit="4" stroke-linejoin="miter" fill="none" stroke="#231f20" d="M134.954 249.487V238.261H151.718"/>
<path transform="matrix(1,0,0,-1,-42.7104,726.12)" d="M134.954 251.639 136.194 248.605 134.954 249.324 133.714 248.605 134.954 251.639" fill="#231f20"/>
<text fill="#231f20" xml:space="preserve" transform="matrix(1 0 -0 1 -42.7104 726.12)" font-size="8" font-family="Helvetica"><tspan y="-273.862" x="127.376 131.376 133.6 138.048">stat</tspan></text>
<text fill="#231f20" xml:space="preserve" transform="matrix(1 0 -0 1 -42.7104 726.12)" font-size="6" font-family="Helvetica"><tspan y="-244.832" x="101.49 102.822 107.82 111.156 116.154 119.49 122.826 124.824 126.822 130.158">imem_error</tspan><tspan y="-238.832" x="105.15 106.482 109.818 112.818 114.486 116.484 119.82 122.82 126.156 127.488 128.81999">instr_valid</tspan></text>
<path transform="matrix(1,0,0,-1,-42.7104,726.12)" stroke-width=".5" stroke-linecap="butt" stroke-miterlimit="4" stroke-linejoin="miter" fill="none" stroke="#231f20" d="M134.139 644.558V630.06"/>
<path transform="matrix(1,0,0,-1,-42.7104,726.12)" d="M134.139 646.712 135.378 643.677 134.139 644.397 132.899 643.677 134.139 646.712" fill="#231f20"/>
<path transform="matrix(1,0,0,-1,-42.7104,726.12)" d="M144.17 654.954C144.17 650.401 139.68 646.712 134.139 646.712 128.595 646.712 124.103 650.401 124.103 654.954 124.103 659.506 128.595 663.195 134.139 663.195 139.68 663.195 144.17 659.506 144.17 654.954" fill="#ffffff"/>
<path transform="matrix(1,0,0,-1,-42.7104,726.12)" stroke-width=".5" stroke-linecap="butt" stroke-miterlimit="4" stroke-linejoin="miter" fill="none" stroke="#231f20" d="M144.17 654.954C144.17 650.401 139.68 646.712 134.139 646.712 128.595 646.712 124.103 650.401 124.103 654.954 124.103 659.506 128.595 663.195 134.139 663.195 139.68 663.195 144.17 659.506 144.17 654.954Z"/>
<text fill="#231f20" xml:space="preserve" transform="matrix(1 0 -0 1 -42.7104 726.12)" font-size="7" font-family="Helvetica"><tspan y="-652.166" x="127.697 132.366 134.312 138.204">Stat</tspan></text>
<path transform="matrix(1,0,0,-1,-42.7104,726.12)" d="M146.342 624.035C146.342 622.379 144.998 621.035 143.342 621.035H125.676C124.019 621.035 122.676 622.379 122.676 624.035V634.299C122.676 635.957 124.019 637.299 125.676 637.299H143.342C144.998 637.299 146.342 635.957 146.342 634.299V624.035" fill="#b1b4b6"/>
<path transform="matrix(1,0,0,-1,-42.7104,726.12)" d="M145.043 625.471C145.043 623.815 143.699 622.471 142.043 622.471H124.378C122.721 622.471 121.378 623.815 121.378 625.471V635.735C121.378 637.393 122.721 638.735 124.378 638.735H142.043C143.699 638.735 145.043 637.393 145.043 635.735V625.471" fill="#c6c8ca"/>
<path transform="matrix(1,0,0,-1,-42.7104,726.12)" stroke-width=".75" stroke-linecap="butt" stroke-miterlimit="4" stroke-linejoin="miter" fill="none" stroke="#231f20" d="M145.043 625.471C145.043 623.815 143.699 622.471 142.043 622.471H124.378C122.721 622.471 121.378 623.815 121.378 625.471V635.735C121.378 637.393 122.721 638.735 124.378 638.735H142.043C143.699 638.735 145.043 637.393 145.043 635.735V625.471Z"/>
<text fill="#231f20" xml:space="preserve" transform="matrix(1 0 -0 1 -42.7104 726.12)" font-size="8" font-family="Helvetica"><tspan y="-628.571" x="126.798 130.798 133.022 137.47">stat</tspan></text>
<path transform="matrix(1,0,0,-1,-42.7104,726.12)" d="M144.735 404.838H123.735V419.48603H144.735ZM123.735 404.838" fill="#ffffff"/>
<path transform="matrix(1,0,0,-1,-42.7104,726.12)" stroke-width="1" stroke-linecap="butt" stroke-miterlimit="4" stroke-linejoin="miter" fill="none" stroke="#231f20" d="M144.735 404.838H123.735V419.48603H144.735Z"/>
<path transform="matrix(1,0,0,-1,-42.7104,726.12)" d="M144.735 499.624H123.735V514.273H144.735ZM123.735 499.624" fill="#ffffff"/>
<path transform="matrix(1,0,0,-1,-42.7104,726.12)" stroke-width="1" stroke-linecap="butt" stroke-miterlimit="4" stroke-linejoin="miter" fill="none" stroke="#231f20" d="M144.735 499.624H123.735V514.273H144.735Z"/>
<path transform="matrix(1,0,0,-1,-42.7104,726.12)" stroke-width=".5" stroke-linecap="butt" stroke-miterlimit="4" stroke-linejoin="miter" fill="none" stroke="#231f20" d="M134.954 578.437V590.845"/>
<path transform="matrix(1,0,0,-1,-42.7104,726.12)" d="M134.954 592.998 136.194 589.963 134.954 590.684 133.714 589.963 134.954 592.998" fill="#231f20"/>
<path transform="matrix(1,0,0,-1,-42.7104,726.12)" stroke-width=".5" stroke-linecap="butt" stroke-miterlimit="4" stroke-linejoin="miter" fill="none" stroke="#231f20" d="M134.954 419.991V497.135"/>
<path transform="matrix(1,0,0,-1,-42.7104,726.12)" d="M134.954 499.289 136.194 496.254 134.954 496.974 133.714 496.254 134.954 499.289" fill="#231f20"/>
<path transform="matrix(1,0,0,-1,-42.7104,726.12)" stroke-width=".5" stroke-linecap="butt" stroke-miterlimit="4" stroke-linejoin="miter" fill="none" stroke="#231f20" d="M134.954 284.681V401.91"/>
<path transform="matrix(1,0,0,-1,-42.7104,726.12)" d="M134.954 404.062 136.194 401.029 134.954 401.748 133.714 401.029 134.954 404.062" fill="#231f20"/>
<path transform="matrix(1,0,0,-1,-42.7104,726.12)" stroke-width=".5" stroke-linecap="butt" stroke-miterlimit="4" stroke-linejoin="miter" fill="none" stroke="#231f20" d="M134.139 620.296V605.798"/>
<path transform="matrix(1,0,0,-1,-42.7104,726.12)" d="M134.139 622.449 135.378 619.414 134.139 620.135 132.899 619.414 134.139 622.449" fill="#231f20"/>
<path transform="matrix(1,0,0,-1,-42.7104,726.12)" d="M145.189 570.725C145.189 569.069 143.845 567.725 142.189 567.725H128.523C126.866 567.725 125.523 569.069 125.523 570.725V575.989C125.523 577.647 126.866 578.989 128.523 578.989H142.189C143.845 578.989 145.189 577.647 145.189 575.989V570.725" fill="#b1b4b6"/>
<path transform="matrix(1,0,0,-1,-42.7104,726.12)" d="M143.891 572.16C143.891 570.504 142.547 569.16 140.891 569.16H127.226C125.569 569.16 124.226 570.504 124.226 572.16V577.424C124.226 579.082 125.569 580.424 127.226 580.424H140.891C142.547 580.424 143.891 579.082 143.891 577.424V572.16" fill="#c6c8ca"/>
<path transform="matrix(1,0,0,-1,-42.7104,726.12)" stroke-width=".75" stroke-linecap="butt" stroke-miterlimit="4" stroke-linejoin="miter" fill="none" stroke="#231f20" d="M143.891 572.16C143.891 570.504 142.547 569.16 140.891 569.16H127.226C125.569 569.16 124.226 570.504 124.226 572.16V577.424C124.226 579.082 125.569 580.424 127.226 580.424H140.891C142.547 580.424 143.891 579.082 143.891 577.424V572.16Z"/>
<text fill="#231f20" xml:space="preserve" transform="matrix(1 0 -0 1 -42.7104 726.12)" font-size="8" font-family="Helvetica"><tspan y="-572.2631" x="127.674 131.67401 133.89801 138.34601">stat</tspan></text>
<path transform="matrix(1,0,0,-1,-42.7104,726.12)" stroke-width=".75" stroke-linecap="butt" stroke-dasharray=".75,.75" stroke-miterlimit="4" stroke-linejoin="miter" fill="none" stroke="#231f20" d="M261.711 574.77H146.723"/>
<path transform="matrix(1,0,0,-1,-42.7104,726.12)" d="M144.378 574.77 147.412 573.53 146.692 574.77 147.412 576.01 144.378 574.77" fill="#231f20"/>
<path transform="matrix(1,0,0,-1,-42.7104,726.12)" stroke-width=".5" stroke-linecap="butt" stroke-miterlimit="4" stroke-linejoin="miter" fill="none" stroke="#231f20" d="M134.954 514.52V566.652"/>
<path transform="matrix(1,0,0,-1,-42.7104,726.12)" d="M134.954 568.805 136.194 565.77 134.954 566.491 133.714 565.77 134.954 568.805" fill="#231f20"/>
<path transform="matrix(1,0,0,-1,-42.7104,726.12)" d="M144.735 593.62H123.735V608.268H144.735ZM123.735 593.62" fill="#ffffff"/>
<path transform="matrix(1,0,0,-1,-42.7104,726.12)" stroke-width="1" stroke-linecap="butt" stroke-miterlimit="4" stroke-linejoin="miter" fill="none" stroke="#231f20" d="M144.735 593.62H123.735V608.268H144.735Z"/>
<text fill="#231f20" xml:space="preserve" transform="matrix(1 0 -0 1 -42.7104 726.12)" font-size="8" font-family="Helvetica" font-weight="bold"><tspan y="-645.838" x="98.5014 106.053409 109.165409 111.389408 114.053409">Write</tspan><tspan y="-636.838" x="98.5014 103.389408 107.8374 112.127">back</tspan></text>
<text fill="#231f20" xml:space="preserve" transform="matrix(1 0 -0 1 -42.7104 726.12)" font-size="8" font-family="Helvetica"><tspan y="-409.02284" x="127.375 131.375 133.599 138.047">stat</tspan><tspan y="-503.81004" x="127.375 131.375 133.599 138.047">stat</tspan><tspan y="-597.806" x="127.375 131.375 133.599 138.047">stat</tspan></text>
<text fill="#00adef" xml:space="preserve" transform="matrix(1 0 -0 1 -42.7104 726.12)" font-size="8.9664" font-family="StoneSans"><tspan y="-144.6" x="94.5 98.812839 100.94684 106.281848 111.40166 114.521968 122.004428 127.15114 129.7245 134.87122">Figure4.52</tspan></text>
<text fill="#231f20" xml:space="preserve" transform="matrix(1 0 -0 1 -42.7104 726.12)" font-size="8.9664" font-family="StoneSans" font-weight="bold"><tspan y="-144.6" x="147.98728 154.63138 159.4553 163.05083 168.64586 175.9714 180.79534 184.39086 192.23197 196.05165 199.53958 203.1351 208.43425 212.72019 216.20812 221.50727 225.10279 232.9439 238.36856 244.46123 249.7783 252.53099 257.84806 262.70787 268.3083 273.73298 279.0321 285.56413 291.16813 296.70936 301.53327 306.8817 312.47676 314.8887 320.48374 325.38838 327.80033 330.21229 335.7535 340.65815 349.18968 351.60163 359.80589 365.4009 367.81288 372.7175 380.92176 385.8264 391.3676 394.85554 399.67945 403.16737 405.5793 411.004 416.54524">HardwarestructureofPIPE,our&#xfb01;nalpipelinedimplementation.</tspan></text>
<text fill="#231f20" xml:space="preserve" transform="matrix(1 0 -0 1 -42.7104 726.12)" font-size="8.9664" font-family="StoneSans"><tspan y="-144.6" x="422.04798 427.0333 432.27864 439.76109 444.24427 449.57929 454.9143 457.0483 460.14173 462.27574 467.41349 472.6588 477.14204 482.21253 487.54756 491.9859 497.33885 501.82203 505.30995 508.79786 510.93186 516.1772">Theadditionalbypassing</tspan><tspan y="-133.64127" x="94.49997 99.85291 104.33611 107.42952 112.674869 118.30218 122.848148 128.09349 132.57669 137.9117 140.0457 146.73105 149.3851 154.52285 157.75074 164.73557 169.21877 172.33907 177.67407 179.80808 185.05342 192.52782 195.62123 200.86658 207.55193 210.67223 215.21819 218.70612 223.82593 225.95993 229.05335 234.68067 237.33472 240.45502 245.59276 255.74811 258.84153 264.08686 270.7722 273.8656 279.11094 282.23124 286.7772 293.46253 298.81547 301.93577 306.48173 310.79457 315.3405 320.67555 322.80955 328.05488 335.52928 337.66328 342.9086 346.3965 349.48994 352.61024 357.73005 362.04289 365.1363 367.2703 372.40806 377.65339 381.1413 385.85404 390.83937 396.0847 398.2187 403.84599 408.32917 410.46318 412.59718 417.73493 424.71977 430.34706 435.46687 441.09416 444.18757 451.4647 456.71003 461.19325 466.43858 471.7736 473.9076 480.59294 488.6089 493.74665 497.23457 502.46736 505.1214 510.25917 513.37948 521.39547">pathsenableforwardingtheresultsfromthethreeprecedinginstructions.Thisallowsustohandlemostforms</tspan><tspan y="-122.68253" x="94.49997 99.63772 104.86513 110.200138 114.683338 117.77674 124.8333 130.07865 134.56185 138.59673 143.07993 146.20023 151.53524 157.59653 164.58136 166.71537 169.80878 175.05413 180.19187 185.31168 190.97846 194.46639 197.5598 202.043 204.177 206.311 208.445 213.69036 221.59873 224.69214 229.93749 237.05681 242.40975 244.54375 249.89669 254.44264 256.57667 258.71067 263.956 268.50196">ofdatahazardswithoutstallingthepipeline.</tspan></text>
</g>
</svg>
