<svg xmlns="http://www.w3.org/2000/svg" xmlns:xlink="http://www.w3.org/1999/xlink" version="1.1" width="532.80007" height="664.92" viewBox="0 0 532.80007 664.92">
<defs>
<clipPath id="clip_3274">
<path transform="matrix(1,0,0,-1,-35.28,726.12)" d="M35.28 61.2H568.08V726.12H35.28Z" fill-rule="evenodd"/>
</clipPath>
<clipPath id="clip_3275">
<path transform="matrix(1,0,0,-1,-35.28,726.12)" d="M517.389 662.076H170.79999V482.16499H517.389ZM170.8 662.076"/>
</clipPath>
<clipPath id="clip_3276">
<path transform="matrix(1,0,0,-1,-35.28,726.12)" d="M0 792H612V.030029297H0Z"/>
</clipPath>
<clipPath id="clip_3277">
<path transform="matrix(1,0,0,-1,-35.28,726.12)" d="M517.389 662.076H170.79999V482.16499H517.389ZM170.8 662.076"/>
</clipPath>
<clipPath id="clip_3278">
<path transform="matrix(1,0,0,-1,-35.28,726.12)" d="M0 792H612V.030029297H0Z"/>
</clipPath>
</defs>
<g clip-path="url(#clip_3274)">
<text xml:space="preserve" transform="matrix(1 0 -0 1 -35.28 726.12)" font-size="9.4645" font-family="StoneSans" font-weight="bold"><tspan y="-681.875" x="87.1139 92.546527 97.97915">430</tspan></text>
<text xml:space="preserve" transform="matrix(1 0 -0 1 -35.28 726.12)" font-size="8.4682" font-family="StoneSans"><tspan y="-681.875" x="116.115 121.90725 126.861148 131.09525 136.15076 139.07228 143.36566 148.74297 162.07192 166.61934 169.56627 174.41855 178.49176 182.78514 186.07927 189.3734 194.22568 199.60298 204.78553 207.58003 211.65325 216.60715 218.62258 221.5441 225.83748 229.91069 232.83222 237.66756 240.61449">Chapter4ProcessorArchitecture</tspan></text>
<path transform="matrix(1,0,0,-1,-35.28,726.12)" d="M427.104 611.977C427.104 610.664 426.041 609.601 424.728 609.601H407.57C406.258 609.601 405.195 610.664 405.195 611.977V622.482C405.195 623.794 406.258 624.858 407.57 624.858H424.728C426.041 624.858 427.104 623.794 427.104 622.482V611.977" fill="#b1b4b6"/>
<path transform="matrix(1,0,0,-1,-35.28,726.12)" stroke-width=".495" stroke-linecap="butt" stroke-miterlimit="4" stroke-linejoin="miter" fill="none" stroke="#231f20" d="M313.029 594.001H277.46"/>
<path transform="matrix(1,0,0,-1,-35.28,726.12)" d="M275.138 594.001 278.142 595.229 277.43 594.001 278.142 592.773 275.138 594.001" fill="#231f20"/>
<path transform="matrix(1,0,0,-1,-35.28,726.12)" stroke-width=".495" stroke-linecap="butt" stroke-miterlimit="4" stroke-linejoin="miter" fill="none" stroke="#231f20" d="M372.428 594.001H340.819"/>
<path transform="matrix(1,0,0,-1,-35.28,726.12)" d="M338.497 594.001 341.501 595.229 340.789 594.001 341.501 592.773 338.497 594.001" fill="#231f20"/>
<path transform="matrix(1,0,0,-1,-35.28,726.12)" d="M192.426 647.08H171.295V661.58206H192.426ZM171.295 647.08" fill="#8ed8f8"/>
<g clip-path="url(#clip_3275)">
<g clip-path="url(#clip_3276)">
<path transform="matrix(1,0,0,-1,-35.28,726.12)" stroke-width=".99" stroke-linecap="butt" stroke-miterlimit="4" stroke-linejoin="miter" fill="none" stroke="#231f20" d="M192.426 647.08H171.295V661.58206H192.426Z"/>
</g>
</g>
<path transform="matrix(1,0,0,-1,-35.28,726.12)" d="M234.377 647.08H213.122V661.58206H234.377ZM213.122 647.08" fill="#ffffff"/>
<path transform="matrix(1,0,0,-1,-35.28,726.12)" stroke-width=".99" stroke-linecap="butt" stroke-miterlimit="4" stroke-linejoin="miter" fill="none" stroke="#231f20" d="M234.377 647.08H213.122V661.58206H234.377Z"/>
<path transform="matrix(1,0,0,-1,-35.28,726.12)" d="M276.311 647.08H234.245V661.58206H276.311ZM234.245 647.08" fill="#8ed8f8"/>
<path transform="matrix(1,0,0,-1,-35.28,726.12)" stroke-width=".99" stroke-linecap="butt" stroke-miterlimit="4" stroke-linejoin="miter" fill="none" stroke="#231f20" d="M276.311 647.08H234.245V661.58206H276.311Z"/>
<path transform="matrix(1,0,0,-1,-35.28,726.12)" d="M297.565 647.08H276.311V661.58206H297.565ZM276.311 647.08" fill="#ffffff"/>
<path transform="matrix(1,0,0,-1,-35.28,726.12)" stroke-width=".99" stroke-linecap="butt" stroke-miterlimit="4" stroke-linejoin="miter" fill="none" stroke="#231f20" d="M297.565 647.08H276.311V661.58206H297.565Z"/>
<path transform="matrix(1,0,0,-1,-35.28,726.12)" d="M403.274 647.08H382.142V661.58206H403.274ZM382.142 647.08" fill="#8ed8f8"/>
<path transform="matrix(1,0,0,-1,-35.28,726.12)" stroke-width=".99" stroke-linecap="butt" stroke-miterlimit="4" stroke-linejoin="miter" fill="none" stroke="#231f20" d="M403.274 647.08H382.142V661.58206H403.274Z"/>
<path transform="matrix(1,0,0,-1,-35.28,726.12)" d="M424.435 647.08H403.179V661.58206H424.435ZM403.179 647.08" fill="#ffffff"/>
<path transform="matrix(1,0,0,-1,-35.28,726.12)" stroke-width=".99" stroke-linecap="butt" stroke-miterlimit="4" stroke-linejoin="miter" fill="none" stroke="#231f20" d="M424.436 647.08H403.18V661.58206H424.436Z"/>
<path transform="matrix(1,0,0,-1,-35.28,726.12)" d="M445.559 647.08H424.30299V661.58206H445.559ZM424.303 647.08" fill="#ffffff"/>
<path transform="matrix(1,0,0,-1,-35.28,726.12)" stroke-width=".99" stroke-linecap="butt" stroke-miterlimit="4" stroke-linejoin="miter" fill="none" stroke="#231f20" d="M445.559 647.08H424.30299V661.58206H445.559Z"/>
<path transform="matrix(1,0,0,-1,-35.28,726.12)" d="M466.681 647.08H445.425V661.582H466.681 466.548 487.803V647.08H466.548 466.681" fill="#8ed8f8"/>
<path transform="matrix(1,0,0,-1,-35.28,726.12)" stroke-width=".99" stroke-linecap="butt" stroke-miterlimit="4" stroke-linejoin="miter" fill="none" stroke="#231f20" d="M466.681 647.08H445.425V661.582H466.681 466.548 487.803V647.08H466.548 466.681Z"/>
<path transform="matrix(1,0,0,-1,-35.28,726.12)" d="M318.82 647.08H297.565V661.581H318.82 318.688 339.943V647.08H318.688 318.82" fill="#ffffff"/>
<path transform="matrix(1,0,0,-1,-35.28,726.12)" stroke-width=".99" stroke-linecap="butt" stroke-miterlimit="4" stroke-linejoin="miter" fill="none" stroke="#231f20" d="M318.82 647.08H297.565V661.581H318.82 318.688 339.943V647.08H318.688 318.82Z"/>
<path transform="matrix(1,0,0,-1,-35.28,726.12)" d="M361.066 647.08H339.811V661.581H361.066 360.934 382.189V647.08H360.934 361.066" fill="#ffffff"/>
<path transform="matrix(1,0,0,-1,-35.28,726.12)" stroke-width=".99" stroke-linecap="butt" stroke-miterlimit="4" stroke-linejoin="miter" fill="none" stroke="#231f20" d="M361.066 647.08H339.811V661.581H361.066 360.934 382.189V647.08H360.934 361.066Z"/>
<path transform="matrix(1,0,0,-1,-35.28,726.12)" d="M192.426 482.661H171.295V497.16203H192.426ZM171.295 482.661" fill="#8ed8f8"/>
<g clip-path="url(#clip_3277)">
<g clip-path="url(#clip_3278)">
<path transform="matrix(1,0,0,-1,-35.28,726.12)" stroke-width=".99" stroke-linecap="butt" stroke-miterlimit="4" stroke-linejoin="miter" fill="none" stroke="#231f20" d="M192.426 482.661H171.295V497.16203H192.426Z"/>
</g>
</g>
<path transform="matrix(1,0,0,-1,-35.28,726.12)" d="M234.377 482.661H213.122V497.16203H234.377ZM213.122 482.661" fill="#ffffff"/>
<path transform="matrix(1,0,0,-1,-35.28,726.12)" stroke-width=".99" stroke-linecap="butt" stroke-miterlimit="4" stroke-linejoin="miter" fill="none" stroke="#231f20" d="M234.377 482.661H213.122V497.16203H234.377Z"/>
<path transform="matrix(1,0,0,-1,-35.28,726.12)" d="M255.5 482.661H234.245V497.16203H255.5ZM234.245 482.661" fill="#ffffff"/>
<path transform="matrix(1,0,0,-1,-35.28,726.12)" stroke-width=".99" stroke-linecap="butt" stroke-miterlimit="4" stroke-linejoin="miter" fill="none" stroke="#231f20" d="M255.5 482.661H234.245V497.16203H255.5Z"/>
<path transform="matrix(1,0,0,-1,-35.28,726.12)" d="M266.229 482.661H255.369V497.16203H266.229ZM255.369 482.661" fill="#8ed8f8"/>
<path transform="matrix(1,0,0,-1,-35.28,726.12)" stroke-width=".99" stroke-linecap="butt" stroke-miterlimit="4" stroke-linejoin="miter" fill="none" stroke="#231f20" d="M266.229 482.661H255.369V497.16203H266.229Z"/>
<path transform="matrix(1,0,0,-1,-35.28,726.12)" d="M403.628 482.661H392.768V497.16203H403.628ZM392.768 482.661" fill="#8ed8f8"/>
<path transform="matrix(1,0,0,-1,-35.28,726.12)" stroke-width=".99" stroke-linecap="butt" stroke-miterlimit="4" stroke-linejoin="miter" fill="none" stroke="#231f20" d="M403.628 482.661H392.768V497.16203H403.628Z"/>
<path transform="matrix(1,0,0,-1,-35.28,726.12)" d="M424.349 482.661H403.217V497.16203H424.349ZM403.217 482.661" fill="#ffffff"/>
<path transform="matrix(1,0,0,-1,-35.28,726.12)" stroke-width=".99" stroke-linecap="butt" stroke-miterlimit="4" stroke-linejoin="miter" fill="none" stroke="#231f20" d="M424.349 482.661H403.217V497.16203H424.349Z"/>
<path transform="matrix(1,0,0,-1,-35.28,726.12)" d="M445.51 482.661H424.254V497.16203H445.51ZM424.254 482.661" fill="#ffffff"/>
<path transform="matrix(1,0,0,-1,-35.28,726.12)" stroke-width=".99" stroke-linecap="butt" stroke-miterlimit="4" stroke-linejoin="miter" fill="none" stroke="#231f20" d="M445.51 482.661H424.254V497.16203H445.51Z"/>
<path transform="matrix(1,0,0,-1,-35.28,726.12)" d="M466.634 482.661H445.378V497.16203H466.634ZM445.378 482.661" fill="#ffffff"/>
<path transform="matrix(1,0,0,-1,-35.28,726.12)" stroke-width=".99" stroke-linecap="butt" stroke-miterlimit="4" stroke-linejoin="miter" fill="none" stroke="#231f20" d="M466.634 482.661H445.378V497.16203H466.634Z"/>
<path transform="matrix(1,0,0,-1,-35.28,726.12)" d="M487.757 482.661H466.50099V497.16203H487.757ZM466.501 482.661" fill="#ffffff"/>
<path transform="matrix(1,0,0,-1,-35.28,726.12)" stroke-width=".99" stroke-linecap="butt" stroke-miterlimit="4" stroke-linejoin="miter" fill="none" stroke="#231f20" d="M487.757 482.661H466.50099V497.16203H487.757Z"/>
<path transform="matrix(1,0,0,-1,-35.28,726.12)" d="M287.302 482.661H266.047V497.162H287.302 287.17 308.425V482.661H287.17 287.302" fill="#ffffff"/>
<path transform="matrix(1,0,0,-1,-35.28,726.12)" stroke-width=".99" stroke-linecap="butt" stroke-miterlimit="4" stroke-linejoin="miter" fill="none" stroke="#231f20" d="M287.302 482.661H266.047V497.162H287.302 287.17 308.425V482.661H287.17 287.302Z"/>
<path transform="matrix(1,0,0,-1,-35.28,726.12)" d="M329.548 482.661H308.293V497.162H329.548 329.416 350.671V482.661H329.416 329.548" fill="#ffffff"/>
<path transform="matrix(1,0,0,-1,-35.28,726.12)" stroke-width=".99" stroke-linecap="butt" stroke-miterlimit="4" stroke-linejoin="miter" fill="none" stroke="#231f20" d="M329.548 482.661H308.293V497.162H329.548 329.416 350.671V482.661H329.416 329.548Z"/>
<path transform="matrix(1,0,0,-1,-35.28,726.12)" d="M371.794 482.661H350.539V497.162H371.794 371.662 392.917V482.661H371.662 371.794" fill="#ffffff"/>
<path transform="matrix(1,0,0,-1,-35.28,726.12)" stroke-width=".99" stroke-linecap="butt" stroke-miterlimit="4" stroke-linejoin="miter" fill="none" stroke="#231f20" d="M371.794 482.661H350.539V497.162H371.794 371.662 392.917V482.661H371.662 371.794Z"/>
<path transform="matrix(1,0,0,-1,-35.28,726.12)" d="M397.398 584.254C397.398 582.941 396.335 581.878 395.022 581.878H370.934C369.623 581.878 368.559 582.941 368.559 584.254V598.718C368.559 600.03 369.623 601.094 370.934 601.094H395.022C396.335 601.094 397.398 600.03 397.398 598.718V584.254" fill="#b1b4b6"/>
<path transform="matrix(1,0,0,-1,-35.28,726.12)" d="M395.617 585.362C395.617 584.05 394.552 582.987 393.241 582.987H369.153C367.84 582.987 366.777 584.05 366.777 585.362V599.827C366.777 601.14 367.84 602.203 369.153 602.203H393.241C394.552 602.203 395.617 601.14 395.617 599.827V585.362" fill="#c6c8ca"/>
<path transform="matrix(1,0,0,-1,-35.28,726.12)" stroke-width=".742" stroke-linecap="butt" stroke-miterlimit="4" stroke-linejoin="miter" fill="none" stroke="#231f20" d="M395.617 585.362C395.617 584.05 394.552 582.987 393.241 582.987H369.153C367.84 582.987 366.777 584.05 366.777 585.362V599.827C366.777 601.14 367.84 602.203 369.153 602.203H393.241C394.552 602.203 395.617 601.14 395.617 599.827V585.362Z"/>
<path transform="matrix(1,0,0,-1,-35.28,726.12)" d="M350.982 554.63C350.982 553.317 349.919 552.253 348.606 552.253H326.498C325.187 552.253 324.123 553.317 324.123 554.63V569.095C324.123 570.407 325.187 571.47 326.498 571.47H348.606C349.919 571.47 350.982 570.407 350.982 569.095V554.63" fill="#b1b4b6"/>
<path transform="matrix(1,0,0,-1,-35.28,726.12)" d="M349.202 555.739C349.202 554.427 348.136 553.363 346.825 553.363H324.718C323.404 553.363 322.341 554.427 322.341 555.739V570.204C322.341 571.516 323.404 572.579 324.718 572.579H346.825C348.136 572.579 349.202 571.516 349.202 570.204V555.739" fill="#c6c8ca"/>
<path transform="matrix(1,0,0,-1,-35.28,726.12)" stroke-width=".742" stroke-linecap="butt" stroke-miterlimit="4" stroke-linejoin="miter" fill="none" stroke="#231f20" d="M349.202 555.739C349.202 554.427 348.136 553.363 346.825 553.363H324.718C323.404 553.363 322.341 554.427 322.341 555.739V570.204C322.341 571.516 323.404 572.579 324.718 572.579H346.825C348.136 572.579 349.202 571.516 349.202 570.204V555.739Z"/>
<path transform="matrix(1,0,0,-1,-35.28,726.12)" d="M316.156 554.63C316.156 553.317 315.093 552.253 313.78 552.253H291.672C290.361 552.253 289.296 553.317 289.296 554.63V569.095C289.296 570.407 290.361 571.47 291.672 571.47H313.78C315.093 571.47 316.156 570.407 316.156 569.095V554.63" fill="#b1b4b6"/>
<path transform="matrix(1,0,0,-1,-35.28,726.12)" d="M314.375 555.739C314.375 554.427 313.31 553.363 311.999 553.363H289.891C288.578 553.363 287.515 554.427 287.515 555.739V570.204C287.515 571.516 288.578 572.579 289.891 572.579H311.999C313.31 572.579 314.375 571.516 314.375 570.204V555.739" fill="#c6c8ca"/>
<path transform="matrix(1,0,0,-1,-35.28,726.12)" stroke-width=".742" stroke-linecap="butt" stroke-miterlimit="4" stroke-linejoin="miter" fill="none" stroke="#231f20" d="M314.375 555.739C314.375 554.427 313.31 553.363 311.999 553.363H289.891C288.578 553.363 287.515 554.427 287.515 555.739V570.204C287.515 571.516 288.578 572.579 289.891 572.579H311.999C313.31 572.579 314.375 571.516 314.375 570.204V555.739Z"/>
<path transform="matrix(1,0,0,-1,-35.28,726.12)" d="M276.062 554.63C276.062 553.317 274.999 552.253 273.686 552.253H253.557C252.246 552.253 251.182 553.317 251.182 554.63V569.095C251.182 570.407 252.246 571.47 253.557 571.47H273.686C274.999 571.47 276.062 570.407 276.062 569.095V554.63" fill="#b1b4b6"/>
<path transform="matrix(1,0,0,-1,-35.28,726.12)" d="M274.281 555.739C274.281 554.427 273.216 553.363 271.905 553.363H251.776C250.464 553.363 249.4 554.427 249.4 555.739V570.204C249.4 571.516 250.464 572.579 251.776 572.579H271.905C273.216 572.579 274.281 571.516 274.281 570.204V555.739" fill="#c6c8ca"/>
<path transform="matrix(1,0,0,-1,-35.28,726.12)" stroke-width=".742" stroke-linecap="butt" stroke-miterlimit="4" stroke-linejoin="miter" fill="none" stroke="#231f20" d="M274.281 555.739C274.281 554.427 273.216 553.363 271.905 553.363H251.776C250.464 553.363 249.4 554.427 249.4 555.739V570.204C249.4 571.516 250.464 572.579 251.776 572.579H271.905C273.216 572.579 274.281 571.516 274.281 570.204V555.739Z"/>
<path transform="matrix(1,0,0,-1,-35.28,726.12)" d="M274.655 583.078H250.548V602.086H274.655ZM250.548 583.078" fill="#231f20"/>
<path transform="matrix(1,0,0,-1,-35.28,726.12)" d="M273.824 583.91H249.71701V602.91897H273.824ZM249.717 583.91" fill="#d4effc"/>
<path transform="matrix(1,0,0,-1,-35.28,726.12)" stroke-width=".495" stroke-linecap="butt" stroke-miterlimit="4" stroke-linejoin="miter" fill="none" stroke="#00adef" d="M273.823 583.91H249.716V602.91897H273.823Z"/>
<path transform="matrix(1,0,0,-1,-35.28,726.12)" d="M294.685 583.448H344.938L333.995 601.761H306.522L294.016 583.448H294.685" fill="#231f20"/>
<path transform="matrix(1,0,0,-1,-35.28,726.12)" stroke-width=".495" stroke-linecap="butt" stroke-miterlimit="4" stroke-linejoin="miter" fill="none" stroke="#231f20" d="M294.685 583.448H344.938L333.995 601.761H306.522L294.016 583.448H294.685Z"/>
<path transform="matrix(1,0,0,-1,-35.28,726.12)" d="M292.705 584.438H342.958L332.015 602.751H304.542L292.036 584.438H292.705" fill="#d4effc"/>
<path transform="matrix(1,0,0,-1,-35.28,726.12)" stroke-width=".495" stroke-linecap="butt" stroke-miterlimit="4" stroke-linejoin="miter" fill="none" stroke="#00adef" d="M292.705 584.438H342.958L332.015 602.751H304.542L292.036 584.438H292.705Z"/>
<path transform="matrix(1,0,0,-1,-35.28,726.12)" d="M331.097 506.252C331.097 505.297 330.321 504.519 329.365 504.519 328.409 504.519 327.632 505.297 327.632 506.252 327.632 507.206 328.409 507.983 329.365 507.983 330.321 507.983 331.097 507.206 331.097 506.252" fill="#231f20"/>
<path transform="matrix(1,0,0,-1,-35.28,726.12)" d="M320.766 636.716C320.766 635.761 319.99 634.983 319.034 634.983 318.078 634.983 317.301 635.761 317.301 636.716 317.301 637.671 318.078 638.448 319.034 638.448 319.99 638.448 320.766 637.671 320.766 636.716" fill="#231f20"/>
<path transform="matrix(1,0,0,-1,-35.28,726.12)" d="M287.896 619.825C287.896 618.87 287.12 618.091 286.164 618.091 285.207 618.091 284.431 618.87 284.431 619.825 284.431 620.78 285.207 621.556 286.164 621.556 287.12 621.556 287.896 620.78 287.896 619.825" fill="#231f20"/>
<path transform="matrix(1,0,0,-1,-35.28,726.12)" d="M225.341 544.87C225.341 543.916 224.565 543.137 223.609 543.137 222.652 543.137 221.876 543.916 221.876 544.87 221.876 545.825 222.652 546.602 223.609 546.602 224.565 546.602 225.341 545.825 225.341 544.87" fill="#231f20"/>
<path transform="matrix(1,0,0,-1,-35.28,726.12)" d="M245.171 538.913C245.171 537.958 244.395 537.18 243.439 537.18 242.482 537.18 241.706 537.958 241.706 538.913 241.706 539.868 242.482 540.645 243.439 540.645 244.395 540.645 245.171 539.868 245.171 538.913" fill="#231f20"/>
<path transform="matrix(1,0,0,-1,-35.28,726.12)" d="M263.291 544.87C263.291 543.916 262.515 543.137 261.559 543.137 260.602 543.137 259.826 543.916 259.826 544.87 259.826 545.825 260.602 546.602 261.559 546.602 262.515 546.602 263.291 545.825 263.291 544.87" fill="#231f20"/>
<path transform="matrix(1,0,0,-1,-35.28,726.12)" d="M294.311 544.87C294.311 543.916 293.535 543.137 292.579 543.137 291.622 543.137 290.846 543.916 290.846 544.87 290.846 545.825 291.622 546.602 292.579 546.602 293.535 546.602 294.311 545.825 294.311 544.87" fill="#231f20"/>
<path transform="matrix(1,0,0,-1,-35.28,726.12)" stroke-width="1.485" stroke-linecap="butt" stroke-miterlimit="4" stroke-linejoin="miter" fill="none" stroke="#231f20" d="M300.746 581.186V572.717"/>
<path transform="matrix(1,0,0,-1,-35.28,726.12)" d="M300.746 583.318 302.587 578.813 300.746 579.881 298.905 578.813 300.746 583.318" fill="#231f20"/>
<path transform="matrix(1,0,0,-1,-35.28,726.12)" stroke-width="1.485" stroke-linecap="butt" stroke-miterlimit="4" stroke-linejoin="miter" fill="none" stroke="#231f20" d="M336.437 550.123V532.119H375.745V497.736"/>
<path transform="matrix(1,0,0,-1,-35.28,726.12)" d="M336.437 552.255 338.277 547.75 336.437 548.819 334.597 547.75 336.437 552.255" fill="#231f20"/>
<path transform="matrix(1,0,0,-1,-35.28,726.12)" stroke-width=".742" stroke-linecap="butt" stroke-dasharray=".74249,.74249" stroke-miterlimit="4" stroke-linejoin="miter" fill="none" stroke="#231f20" d="M261.807 581.082V573.047"/>
<path transform="matrix(1,0,0,-1,-35.28,726.12)" stroke-width="1.485" stroke-linecap="butt" stroke-miterlimit="4" stroke-linejoin="miter" fill="none" stroke="#231f20" d="M335.725 581.186V573.047"/>
<path transform="matrix(1,0,0,-1,-35.28,726.12)" d="M335.725 583.318 337.566 578.813 335.725 579.881 333.884 578.813 335.725 583.318" fill="#231f20"/>
<path transform="matrix(1,0,0,-1,-35.28,726.12)" stroke-width=".495" stroke-linecap="butt" stroke-miterlimit="4" stroke-linejoin="miter" fill="none" stroke="#231f20" d="M261.858 609.086V602.778"/>
<path transform="matrix(1,0,0,-1,-35.28,726.12)" stroke-width=".742" stroke-linecap="butt" stroke-dasharray=".74249,.74249" stroke-miterlimit="4" stroke-linejoin="miter" fill="none" stroke="#231f20" d="M286.278 644.777V618.899"/>
<path transform="matrix(1,0,0,-1,-35.28,726.12)" d="M286.278 646.908 287.506 643.904 286.278 644.617 285.05 643.904 286.278 646.908" fill="#231f20"/>
<path transform="matrix(1,0,0,-1,-35.28,726.12)" stroke-width=".742" stroke-linecap="butt" stroke-dasharray=".74249,.74249" stroke-miterlimit="4" stroke-linejoin="miter" fill="none" stroke="#231f20" d="M401.098 619.576H263.889"/>
<path transform="matrix(1,0,0,-1,-35.28,726.12)" d="M403.23 619.576 400.226 620.803 400.938 619.576 400.226 618.349 403.23 619.576" fill="#231f20"/>
<path transform="matrix(1,0,0,-1,-35.28,726.12)" stroke-width="1.485" stroke-linecap="butt" stroke-miterlimit="4" stroke-linejoin="miter" fill="none" stroke="#231f20" d="M319.025 644.777V603.437"/>
<path transform="matrix(1,0,0,-1,-35.28,726.12)" d="M319.025 646.908 320.865 642.402 319.025 643.471 317.184 642.402 319.025 646.908" fill="#231f20"/>
<path transform="matrix(1,0,0,-1,-35.28,726.12)" stroke-width="1.485" stroke-linecap="butt" stroke-miterlimit="4" stroke-linejoin="miter" fill="none" stroke="#231f20" d="M300.536 550.411V497.349"/>
<path transform="matrix(1,0,0,-1,-35.28,726.12)" d="M300.536 552.542 302.377 548.037 300.536 549.106 298.696 548.037 300.536 552.542" fill="#231f20"/>
<path transform="matrix(1,0,0,-1,-35.28,726.12)" stroke-width="1.485" stroke-linecap="butt" stroke-miterlimit="4" stroke-linejoin="miter" fill="none" stroke="#231f20" d="M495.007 636.71H319.027"/>
<path transform="matrix(1,0,0,-1,-35.28,726.12)" d="M497.138 636.71 492.632 634.868 493.702 636.71 492.632 638.551 497.138 636.71" fill="#231f20"/>
<path transform="matrix(1,0,0,-1,-35.28,726.12)" stroke-width="1.485" stroke-linecap="butt" stroke-miterlimit="4" stroke-linejoin="miter" fill="none" stroke="#231f20" d="M329.277 497.433V506.443"/>
<text fill="#231f20" xml:space="preserve" transform="matrix(1 0 -0 1 -35.28 726.12)" font-size="5.9399" font-family="Helvetica"><tspan y="-622.678" x="287.454 290.7566 294.05918 298.34779 301.65037">e_Cnd</tspan><tspan y="-565.2587" x="171.62596 177.23323 180.53582 183.50577 185.15706 188.45964">W_stat</tspan><tspan y="-557.0088" x="172.2847 177.23264 180.53522 183.50518 185.15647 188.45905">m_stat</tspan><tspan y="-636.2156" x="498.81468 502.11726 505.41984 508.38978 511.69236 513.011">e_valE</tspan><tspan y="-629.2843" x="498.89546 502.19804 505.5006 508.8032 511.77314 513.42446">e_dstE</tspan></text>
<path transform="matrix(1,0,0,-1,-35.28,726.12)" d="M420.369 630.835C420.369 629.88 419.594 629.101 418.637 629.101 417.681 629.101 416.904 629.88 416.904 630.835 416.904 631.79 417.681 632.566 418.637 632.566 419.594 632.566 420.369 631.79 420.369 630.835" fill="#231f20"/>
<path transform="matrix(1,0,0,-1,-35.28,726.12)" stroke-width=".495" stroke-linecap="butt" stroke-miterlimit="4" stroke-linejoin="miter" fill="none" stroke="#231f20" d="M418.327 630.967H495.537"/>
<path transform="matrix(1,0,0,-1,-35.28,726.12)" d="M497.859 630.967 494.855 629.739 495.567 630.967 494.855 632.195 497.859 630.967" fill="#231f20"/>
<path transform="matrix(1,0,0,-1,-35.28,726.12)" stroke-width=".495" stroke-linecap="butt" stroke-miterlimit="4" stroke-linejoin="miter" fill="none" stroke="#231f20" d="M243.594 609.218V497.68M418.627 497.29V608.07"/>
<path transform="matrix(1,0,0,-1,-35.28,726.12)" d="M418.627 610.202 419.856 607.197 418.627 607.911 417.4 607.197 418.627 610.202" fill="#231f20"/>
<path transform="matrix(1,0,0,-1,-35.28,726.12)" stroke-width=".495" stroke-linecap="butt" stroke-miterlimit="4" stroke-linejoin="miter" fill="none" stroke="#231f20" d="M418.627 625.021V644.579"/>
<path transform="matrix(1,0,0,-1,-35.28,726.12)" d="M418.627 646.71 419.856 643.705 418.627 644.419 417.4 643.705 418.627 646.71" fill="#231f20"/>
<path transform="matrix(1,0,0,-1,-35.28,726.12)" d="M375.398 582.293 376.626 579.288 375.398 580.002 374.17 579.288 375.398 582.293" fill="#231f20"/>
<path transform="matrix(1,0,0,-1,-35.28,726.12)" stroke-width=".495" stroke-linecap="butt" stroke-miterlimit="4" stroke-linejoin="miter" fill="none" stroke="#231f20" d="M388.948 580.162V538.891H243.227"/>
<path transform="matrix(1,0,0,-1,-35.28,726.12)" d="M388.948 582.293 390.176 579.288 388.948 580.002 387.721 579.288 388.948 582.293" fill="#231f20"/>
<path transform="matrix(1,0,0,-1,-35.28,726.12)" stroke-width=".495" stroke-linecap="butt" stroke-miterlimit="4" stroke-linejoin="miter" fill="none" stroke="#231f20" d="M223.6 498.281V645.172"/>
<path transform="matrix(1,0,0,-1,-35.28,726.12)" d="M223.6 646.312 224.828 643.307 223.6 644.021 222.373 643.307 223.6 646.312" fill="#231f20"/>
<path transform="matrix(1,0,0,-1,-35.28,726.12)" d="M243.659 611.076 244.887 608.071 243.659 608.785 242.432 608.071 243.659 611.076" fill="#231f20"/>
<path transform="matrix(1,0,0,-1,-35.28,726.12)" d="M261.758 611.076 262.986 608.071 261.758 608.785 260.531 608.071 261.758 611.076" fill="#231f20"/>
<path transform="matrix(1,0,0,-1,-35.28,726.12)" d="M261.758 583.072 262.986 580.067 261.758 580.781 260.531 580.067 261.758 583.072" fill="#231f20"/>
<path transform="matrix(1,0,0,-1,-35.28,726.12)" d="M213.587 647.08H192.797V661.58206H213.587ZM192.797 647.08" fill="#ffffff"/>
<path transform="matrix(1,0,0,-1,-35.28,726.12)" stroke-width=".99" stroke-linecap="butt" stroke-miterlimit="4" stroke-linejoin="miter" fill="none" stroke="#231f20" d="M213.587 647.08H192.797V661.58206H213.587Z"/>
<path transform="matrix(1,0,0,-1,-35.28,726.12)" d="M213.587 482.661H192.797V497.16203H213.587ZM192.797 482.661" fill="#ffffff"/>
<path transform="matrix(1,0,0,-1,-35.28,726.12)" stroke-width=".99" stroke-linecap="butt" stroke-miterlimit="4" stroke-linejoin="miter" fill="none" stroke="#231f20" d="M213.587 482.661H192.797V497.16203H213.587Z"/>
<path transform="matrix(1,0,0,-1,-35.28,726.12)" stroke-width=".495" stroke-linecap="butt" stroke-miterlimit="4" stroke-linejoin="miter" fill="none" stroke="#231f20" d="M202.81 498.281V645.172"/>
<path transform="matrix(1,0,0,-1,-35.28,726.12)" d="M202.81 646.312 204.038 643.307 202.81 644.021 201.583 643.307 202.81 646.312" fill="#231f20"/>
<path transform="matrix(1,0,0,-1,-35.28,726.12)" stroke-width=".495" stroke-linecap="butt" stroke-miterlimit="4" stroke-linejoin="miter" fill="none" stroke="#231f20" d="M434.975 497.291V644.182"/>
<path transform="matrix(1,0,0,-1,-35.28,726.12)" d="M434.975 646.312 436.203 643.307 434.975 644.021 433.748 643.307 434.975 646.312" fill="#231f20"/>
<path transform="matrix(1,0,0,-1,-35.28,726.12)" stroke-width=".495" stroke-linecap="butt" stroke-miterlimit="4" stroke-linejoin="miter" fill="none" stroke="#231f20" d="M261.805 544.687V550.775"/>
<path transform="matrix(1,0,0,-1,-35.28,726.12)" d="M261.805 553.098 263.033 550.093 261.805 550.806 260.577 550.093 261.805 553.098" fill="#231f20"/>
<path transform="matrix(1,0,0,-1,-35.28,726.12)" stroke-width=".495" stroke-linecap="butt" stroke-miterlimit="4" stroke-linejoin="miter" fill="none" stroke="#231f20" d="M191.124 566.777H246.221"/>
<path transform="matrix(1,0,0,-1,-35.28,726.12)" d="M248.544 566.777 245.539 568.005 246.253 566.777 245.539 565.549 248.544 566.777" fill="#231f20"/>
<path transform="matrix(1,0,0,-1,-35.28,726.12)" stroke-width=".495" stroke-linecap="butt" stroke-miterlimit="4" stroke-linejoin="miter" fill="none" stroke="#231f20" d="M191.124 558.857H246.221"/>
<path transform="matrix(1,0,0,-1,-35.28,726.12)" d="M248.544 558.857 245.539 560.086 246.253 558.857 245.539 557.629 248.544 558.857" fill="#231f20"/>
<path transform="matrix(1,0,0,-1,-35.28,726.12)" stroke-width=".495" stroke-linecap="butt" stroke-miterlimit="4" stroke-linejoin="miter" fill="none" stroke="#231f20" d="M292.535 544.687V550.775"/>
<path transform="matrix(1,0,0,-1,-35.28,726.12)" d="M292.535 553.098 293.763 550.093 292.535 550.806 291.307 550.093 292.535 553.098" fill="#231f20"/>
<path transform="matrix(1,0,0,-1,-35.28,726.12)" d="M330.663 544.87C330.663 543.916 329.887 543.137 328.931 543.137 327.974 543.137 327.198 543.916 327.198 544.87 327.198 545.825 327.974 546.602 328.931 546.602 329.887 546.602 330.663 545.825 330.663 544.87" fill="#231f20"/>
<path transform="matrix(1,0,0,-1,-35.28,726.12)" d="M376.995 544.87C376.995 543.916 376.219 543.137 375.263 543.137 374.306 543.137 373.53 543.916 373.53 544.87 373.53 545.825 374.306 546.602 375.263 546.602 376.219 546.602 376.995 545.825 376.995 544.87" fill="#231f20"/>
<path transform="matrix(1,0,0,-1,-35.28,726.12)" stroke-width=".495" stroke-linecap="butt" stroke-miterlimit="4" stroke-linejoin="miter" fill="none" stroke="#231f20" d="M328.887 544.687V550.775"/>
<path transform="matrix(1,0,0,-1,-35.28,726.12)" d="M328.887 553.098 330.115 550.093 328.887 550.806 327.659 550.093 328.887 553.098" fill="#231f20"/>
<path transform="matrix(1,0,0,-1,-35.28,726.12)" stroke-width="1.485" stroke-linecap="butt" stroke-miterlimit="4" stroke-linejoin="miter" fill="none" stroke="#231f20" d="M307.737 550.776V506.05H361.044L361.099 507.411V644.777"/>
<path transform="matrix(1,0,0,-1,-35.28,726.12)" d="M361.099 646.908 362.94 642.402 361.099 643.471 359.259 642.402 361.099 646.908" fill="#231f20"/>
<path transform="matrix(1,0,0,-1,-35.28,726.12)" d="M307.737 552.908 309.578 548.402 307.737 549.471 305.896 548.402 307.737 552.908" fill="#231f20"/>
<path transform="matrix(1,0,0,-1,-35.28,726.12)" stroke-width=".495" stroke-linecap="butt" stroke-miterlimit="4" stroke-linejoin="miter" fill="none" stroke="#231f20" d="M375.415 581.044V544.688"/>
<path transform="matrix(1,0,0,-1,-35.28,726.12)" d="M266.735 610.832H238.66799V629.83999H266.735ZM238.668 610.832" fill="#231f20"/>
<path transform="matrix(1,0,0,-1,-35.28,726.12)" d="M265.904 611.663H237.83699V630.672H265.904ZM237.837 611.663" fill="#d4effc"/>
<path transform="matrix(1,0,0,-1,-35.28,726.12)" stroke-width=".495" stroke-linecap="butt" stroke-miterlimit="4" stroke-linejoin="miter" fill="none" stroke="#00adef" d="M265.904 611.663H237.83699V630.672H265.904Z"/>
<path transform="matrix(1,0,0,-1,-35.28,726.12)" d="M425.323 613.086C425.323 611.774 424.258 610.711 422.947 610.711H405.789C404.476 610.711 403.412 611.774 403.412 613.086V623.591C403.412 624.903 404.476 625.967 405.789 625.967H422.947C424.258 625.967 425.323 624.903 425.323 623.591V613.086" fill="#c6c8ca"/>
<path transform="matrix(1,0,0,-1,-35.28,726.12)" stroke-width=".742" stroke-linecap="butt" stroke-miterlimit="4" stroke-linejoin="miter" fill="none" stroke="#231f20" d="M425.323 613.086C425.323 611.774 424.258 610.711 422.947 610.711H405.789C404.476 610.711 403.412 611.774 403.412 613.086V623.591C403.412 624.903 404.476 625.967 405.789 625.967H422.947C424.258 625.967 425.323 624.903 425.323 623.591V613.086Z"/>
<path transform="matrix(1,0,0,-1,-35.28,726.12)" d="M411.368 610.337 412.597 607.332 411.368 608.046 410.141 607.332 411.368 610.337" fill="#231f20"/>
<path transform="matrix(1,0,0,-1,-35.28,726.12)" stroke-width=".495" stroke-linecap="butt" stroke-miterlimit="4" stroke-linejoin="miter" fill="none" stroke="#231f20" d="M411.385 609.088V544.689H223.728"/>
<text fill="#ffffff" xml:space="preserve" transform="matrix(1 0 -0 1 -35.28 726.12)" font-size="7.9199" font-family="Helvetica"><tspan y="-651.223" x="175.041">M</tspan></text>
<text fill="#231f20" xml:space="preserve" transform="matrix(1 0 -0 1 -35.28 726.12)" font-size="7.9199" font-family="Helvetica"><tspan y="-651.223" x="214.10987 215.86809 219.82804 224.23149 228.63495 196.40177 200.36171 202.56345 206.9669">icodestat</tspan><tspan y="-486.80433" x="196.40177 200.36171 202.56345 206.9669">stat</tspan><tspan y="-651.223" x="279.50053 285.2187 289.62217 311.71315 315.6731 320.07658 321.83479 354.17649 358.13645 362.53993 364.29814 405.3335 409.73698 413.69694 415.89866 426.14543 430.5489 434.50886 436.71058">CndvalEvalAdstEdstM</tspan></text>
<text fill="#ffffff" xml:space="preserve" transform="matrix(1 0 -0 1 -35.28 726.12)" font-size="7.9199" font-family="Helvetica"><tspan y="-486.80433" x="175.69757">E</tspan></text>
<text fill="#231f20" xml:space="preserve" transform="matrix(1 0 -0 1 -35.28 726.12)" font-size="7.9199" font-family="Helvetica"><tspan y="-486.80433" x="214.10988 215.8681 219.82805 224.2315 228.63497 239.35375 241.11197 243.3137 247.71717 279.9773 283.93727 288.34074 290.09895 322.65846 326.6184 331.02189 332.7801 364.68778 368.64775 373.0512 374.80943 425.751 430.15449 434.11445 436.31617 448.0986 452.05857 454.6959 458.65586 469.004 472.96397 475.6013 479.56126 405.97819 410.38166 414.3416 416.54335">icodeifunvalCvalAvalBdstMsrcAsrcBdstE</tspan></text>
<text fill="#231f20" xml:space="preserve" transform="matrix(1 0 -0 1 -35.28 726.12)" font-size="7.4249" font-family="Helvetica"><tspan y="-563.545" x="293.753 298.7054 302.83366">ALU</tspan><tspan y="-555.62637" x="298.7017">A</tspan><tspan y="-563.545" x="257.28559 262.238 266.36625">Set</tspan><tspan y="-555.62637" x="257.49794 262.8587">CC</tspan><tspan y="-563.545" x="329.7177 334.67015 338.79838">ALU</tspan><tspan y="-555.62637" x="334.4615">B</tspan><tspan y="-593.56167" x="374.18769 379.1401 383.26835">ALU</tspan><tspan y="-585.64077" x="375.21678 377.28089 381.40913 385.53736">fun.</tspan></text>
<text fill="#231f20" xml:space="preserve" transform="matrix(1 0 -0 1 -35.28 726.12)" font-size="7.9199" font-family="Helvetica"><tspan y="-590.443" x="311.34 316.62257 321.02604">ALU</tspan><tspan y="-590.63229" x="257.39439 263.11256">CC</tspan><tspan y="-618.386" x="242.64832 246.60826 251.01172 255.41518">cond</tspan></text>
<text fill="#231f20" xml:space="preserve" transform="matrix(1 0 -0 1 -35.28 726.12)" font-size="7.4249" font-family="Helvetica"><tspan y="-615.201" x="407.364 411.49226 415.2047 417.26884">dstE</tspan></text>
<text fill="#00adef" xml:space="preserve" transform="matrix(1 0 -0 1 -35.28 726.12)" font-size="8.9664" font-family="StoneSans"><tspan y="-466.225" x="170.8 175.11284 177.24684 182.58185 187.70166 190.82196 197.59697 202.74369 205.31705 210.46376">Figure4.58</tspan></text>
<text fill="#231f20" xml:space="preserve" transform="matrix(1 0 -0 1 -35.28 726.12)" font-size="8.9664" font-family="StoneSans" font-weight="bold"><tspan y="-466.225" x="223.57982 228.8969 231.64958 236.96666 244.0555 248.96012 253.73921 258.64384 262.92979 268.2289 271.71684 278.8505 282.67018 286.15809 290.982 296.57704 303.7107 306.12266 311.54734 317.14237 319.55433 323.84028">PIPEexecutestagelogic.</tspan></text>
<text fill="#231f20" xml:space="preserve" transform="matrix(1 0 -0 1 -35.28 726.12)" font-size="8.9664" font-family="StoneSans"><tspan y="-466.225" x="328.64094 333.62626 338.87159 341.00559 346.72254 352.07548 356.55867 359.67897 365.0014 370.13917 375.02226 378.11567 383.361 390.136 395.471 400.01698 403.50489 405.6389 410.9739 418.44828 420.58229 426.29924 430.69276 435.2387 438.4666 445.134 448.62193 450.75593 458.77189 460.90589 463.0399 467.52308 472.8724 475.96583 483.3326 486.42604 491.67137 498.44636 500.58036 505.7181 511.05314 513.18716">Thispartofthedesignisverysimilartothelogic</tspan><tspan y="-455.26719" x="170.80002 172.93402 180.75273 183.84615 189.09149 196.21082 200.87334 205.32964 215.04026 217.17426 225.19022 230.54315 232.67716 237.22312 245.23908 249.78504 255.03038 258.12379 262.607 265.7004 267.8344 272.97218 278.2175">intheSEQimplementation.</tspan></text>
<text fill="#231f20" xml:space="preserve" transform="matrix(1 0 -0 1 -35.28 726.12)" font-size="9.9626" font-family="StoneSans"><tspan y="-410.488" x="170.8 180.03534 185.01663 188.89209 192.3292 197.31049">W_stat</tspan></text>
<text fill="#231f20" xml:space="preserve" transform="matrix(1 0 -0 1 -35.28 726.12)" font-size="9.9626" font-family="TimesTen"><tspan y="-410.488" x="204.91693 209.89823 217.94303 220.71263 226.25183 231.79103 237.33023 240.64778 243.9753 250.63529 256.88185 262.42106 267.40235 271.2778 280.42845 284.3039 287.0735 292.05479 297.594 302.5753 305.34489 313.38969 318.37098 322.24644 331.39707 336.93629 340.81175 345.79304 355.5016 358.81913 368.52769 374.0669 379.0482 382.36573 387.34703 391.77043 399.2573 403.6807 408.662 412.53746 417.51875 425.56355 432.75654 438.29576 443.27705 447.1525 456.30314 461.28443 470.99299 473.76258 479.3018 483.17726 486.49479 490.37025 495.90946 500.33287 503.6504 506.41999 511.9592">asinputs.Thesesignalsareusedtodetectcaseswhereaninstruction</tspan><tspan y="-398.5329" x="170.8 175.2234 180.2047 185.7439 189.61936 192.38896 197.92816 206.05066 211.03195 219.71236 224.69365 229.67494 234.09835 239.07964 244.61884 247.93639 250.706 256.2452 264.92564 267.69523 274.71189 280.2511 285.2324 289.10786 292.9833 295.7529 301.2921 309.4146 312.73216 318.27137 322.14683 327.68605 333.22526 338.20655 346.88697 349.65657 354.63786 357.95539 362.93669 369.95335 375.49256 378.26216 383.80137 388.78266 391.55226 394.32185 399.86106 407.98356 411.859 415.17655 420.15785 425.13914 430.12043 433.44795 439.2432 444.2245 449.7637 458.44413 461.76167 467.30088 472.28218 476.15763 481.13893 484.45646 489.99568 493.87113 501.99363 506.9749 512.5141">causinganexceptionispassingthroughlaterpipelinestages,andthereforeany</tspan><tspan y="-386.5778" x="170.8 176.3392 181.8784 187.4176 192.3989 195.71645 198.48606 204.02526 211.19533 216.73453 222.24086 225.55841 231.09761 238.26769 242.69109 248.23029 253.76949 259.3087 262.07829 265.3958 268.1654 273.70463 281.43263 285.85603 291.39524 296.93446 301.91575 307.97999 311.85545 317.39466 322.93388 328.47309 331.24269 338.97068 344.5099 351.67997 355.55543 361.09465 366.63386 372.17308 376.04853 381.02983 384.90528 388.78074 393.76203 399.30125 403.98069 410.22724 415.76646 418.53605 424.60029 429.58158 433.45704 438.99626 443.97755 448.40095 453.90727 459.44648 464.9528 468.27033 473.80955 480.9796 486.51884 491.50013 495.37559 498.14518 503.12648 510.85447 513.6241">updatingoftheconditioncodesshouldbesuppressed.Thisaspectofthedesignis</tspan><tspan y="-374.62269" x="170.8 176.3392 179.10881 182.98427 187.40767 192.94687 196.82233 200.69779 205.67908 213.70893 216.47853 224.50838 230.04758 235.02887 239.45227 242.76982 245.53943 251.07863 259.1085 264.08979 266.58045 271.56175 274.0524 279.0337 284.01499">discussedinSection4.5.11.</tspan></text>
<path transform="matrix(1,0,0,-1,-35.28,726.12)" stroke-width="12.951" stroke-linecap="butt" stroke-miterlimit="10" stroke-linejoin="miter" fill="none" stroke="#c7eafb" d="M168.808 342.769H517.5"/>
<text fill="#231f20" xml:space="preserve" transform="matrix(1 0 -0 1 -35.28 726.12)" font-size="11.208" font-family="StoneSans" font-weight="bold"><tspan y="-338.286" x="170.8 177.44635 181.94077 187.97068 193.3281 197.688 200.70296 206.06038 215.40785 222.0542 226.54862 233.32946 240.31204 243.327 249.45778 262.9298 269.3632 272.5799 279.01329">PracticeProblem4.33</tspan></text>
<text fill="#231f20" xml:space="preserve" transform="matrix(1 0 -0 1 -35.28 726.12)" font-size="9.9626" font-family="TimesTen"><tspan y="-323.342" x="170.8 179.09885 184.63805 191.69556 195.57102 200.5523 204.97571 210.51491 216.05411 224.77536 229.19876 234.18006 238.05551 246.21886 248.98847 257.70973 261.02726 266.56648 274.72984 283.0287 290.22169 300.0488 304.4722 310.0114 315.55064 323.714 327.03153 332.57075">OursecondcaseintheHCLcodefor</tspan></text>
<text fill="#231f20" xml:space="preserve" transform="matrix(1 0 -0 1 -35.28 726.12)" font-size="9.9626" font-family="StoneSans"><tspan y="-323.342" x="339.6322 345.55995 350.54124 355.4229 360.4042 362.7753">d_valA</tspan></text>
<text fill="#231f20" xml:space="preserve" transform="matrix(1 0 -0 1 -35.28 726.12)" font-size="9.9626" font-family="TimesTen"><tspan y="-323.342" x="372.0565 377.5957 381.47117 386.45246 393.50999 397.38545 400.15504 405.13633 410.67555 415.65684">usessignal</tspan></text>
<text fill="#231f20" xml:space="preserve" transform="matrix(1 0 -0 1 -35.28 726.12)" font-size="9.9626" font-family="StoneSans"><tspan y="-323.342" x="421.60948 426.6605 431.64179 437.56953 441.44499 444.88209">e_dstE</tspan></text>
<text fill="#231f20" xml:space="preserve" transform="matrix(1 0 -0 1 -35.28 726.12)" font-size="9.9626" font-family="TimesTen"><tspan y="-323.342" x="453.01658 456.3341 465.0554 468.93086 473.91215 482.0755 489.2685 494.8077 499.789 503.10655 508.64576 513.6271">toseewhether</tspan><tspan y="-311.3869" x="170.80002 174.11757 182.57183 186.44728 191.42858 194.19818 199.17948 203.60288 209.83548 213.15303 218.69223 226.58858 234.93724 241.58229 252.79619 258.3354 263.8746 267.19215 272.73136 278.27058">toselecttheALUoutput</tspan></text>
<text fill="#231f20" xml:space="preserve" transform="matrix(1 0 -0 1 -35.28 726.12)" font-size="9.9626" font-family="StoneSans"><tspan y="-311.3869" x="284.50416 289.55519 294.53648 299.41816 304.39945 306.77055">e_valE</tspan></text>
<text fill="#231f20" xml:space="preserve" transform="matrix(1 0 -0 1 -35.28 726.12)" font-size="9.9626" font-family="TimesTen"><tspan y="-311.3869" x="314.63703 319.61833 326.40885 329.72639 335.2656 343.16197 346.4795 352.0187 355.89418 363.08717 368.06846 371.9439 377.48313 380.25273 385.79194 393.6883 397.56376 403.10298 408.64219 412.51765 416.94105 421.5537 426.95945 432.49867 438.03788 443.5771 449.1163 454.65553 458.53099 466.42735 469.19694 474.73616 478.6116 481.92915 486.91044 491.89173 500.346 503.66355 509.20277 514.1841">astheforwardingsource.Supposeinsteadthat</tspan><tspan y="-299.4318" x="170.79999 177.99298 186.52893 192.06813 195.94359 204.47954 208.355 211.1246 216.1059 221.6451 226.62639">weusesignal</tspan></text>
<text fill="#231f20" xml:space="preserve" transform="matrix(1 0 -0 1 -35.28 726.12)" font-size="9.9626" font-family="StoneSans"><tspan y="-299.4318" x="232.95166 237.90308 242.88437 248.81212 252.68758 256.12467">E_dstE</tspan></text>
<text fill="#231f20" xml:space="preserve" transform="matrix(1 0 -0 1 -35.28 726.12)" font-size="9.9626" font-family="TimesTen"><tspan y="-299.4318" x="261.07609 267.3874 270.70494 276.24415 284.7801 290.3193 295.3006 299.17607 302.4936 305.26319 310.8024 315.7837 319.10124 321.87083 327.41004 336.5039 340.37937 345.36067 350.34196 353.11155 356.987 360.30455 365.28584 372.71595 376.5914 388.44493 391.2145 400.30839 405.8476 408.6172 414.1564 419.1377 421.9073 424.67689 430.2161 438.75205 442.6275 447.6088 452.5901 455.35969 459.23515 462.55268 467.53398 474.96409 485.71174 489.02928 494.56849 501.9986 505.31614 510.85536 513.62496">,thedestinationregisterIDinpipelineregisterEforthis</tspan><tspan y="-287.47669" x="170.79999 174.67545 179.65674 182.42635 187.40764 191.83104 195.14859 197.9182 203.4574 208.9966 215.814 225.7766 229.65206 232.42166 235.73921 245.04726 254.3553 262.1062 267.0875 276.39555 281.93476 285.8102 291.34944 296.33073 300.20619 305.18748 317.81309 321.1306 326.66984 331.65113 339.2954 346.4884 352.02763 357.56684 360.33644 370.2024 375.1837 377.95329 382.93458 392.2426 397.2239 407.08988 409.85948 415.39869 419.82209 425.3613 429.23677 433.1122 438.0935 442.5169 450.1612 454.03666 459.01795 462.8934 468.43263 471.2022 478.8465 486.0395 488.80909 492.12663 501.99259 505.31013 510.84934 513.61898">selection.WriteaY86programthatwouldgiveanincorrectresultwiththis</tspan><tspan y="-275.52159" x="170.79999 179.09883 184.63803 190.17723 192.94684 198.48604 203.46733 211.49718 214.81473 220.35393 224.22939 231.42238 236.40367 240.27913 245.81833 248.58794 254.12714 261.5991 264.36869 269.9079 274.8892 277.65879 281.90287">modi&#xfb01;edforwardinglogic.</tspan></text>
<path transform="matrix(1,0,0,-1,-35.28,726.12)" stroke-width=".498" stroke-linecap="butt" stroke-miterlimit="10" stroke-linejoin="miter" fill="none" stroke="#00adef" d="M170.8 267.801H517.5"/>
<text fill="#00adef" xml:space="preserve" transform="matrix(1 0 -0 1 -35.28 726.12)" font-size="10.9589" font-family="StoneSans"><tspan y="-231.215" x="170.8 180.96987 186.52603 196.32329 202.60274 206.54793 215.11779 220.8164 224.59723 230.07668 236.59723">MemoryStage</tspan></text>
<text fill="#231f20" xml:space="preserve" transform="matrix(1 0 -0 1 -35.28 726.12)" font-size="9.9626" font-family="TimesTen"><tspan y="-213.282" x="170.8 176.51853 179.28813 184.26943 189.80863 193.68408 200.32614 205.30744 207.79808 212.77938 219.42144 223.29689 228.83609 234.37529 241.56829 247.1045 250.42206 255.96126 262.60334 270.9022 275.88349 284.18235 289.72157 293.59703 300.23908 304.11454 307.43208 312.41337 317.39466 324.0367 326.8063 332.34553 337.3268 340.0964 346.18058 349.4981 355.03733 360.57356 366.6607 370.53617 376.62333 383.8163 387.96775 395.16075 400.69996 408.9988 414.53804 419.51933 423.39479 426.16438 431.70359 438.34565 441.66319 447.2024 449.972 455.5082 458.82575 466.02574 469.34327 474.88249 481.52455 489.8234 494.8047 503.10356 508.64277 512.5182">Figure4.59showsthememorystagelogicforPIPE.Comparingthistothememory</tspan><tspan y="-201.32688" x="170.8 174.67546 177.99301 182.9743 187.9556 194.67038 197.98793 203.52713 209.13608 214.67528 221.86827 231.9006 235.77606 241.49459 244.26419 249.24549 254.78469 258.66014 265.3749 270.3562 272.84687 277.82817 282.80946 286.6849 291.0605 298.25349 304.96827 308.84373 313.825 320.5398 323.85734 329.39656 334.37785 337.69538 342.07096 347.05226 352.6612 358.2004 363.73963 367.05717 372.03846 379.31117 384.85038 389.83168 393.1492 398.68843 402.56388 407.17655 411.55213 414.86967 420.40888 427.12367 432.66288 435.43247 440.97169 445.39509 452.6678 455.43739 460.41868 465.9579 470.93919 473.70878 478.69007 485.96278 490.94407 499.24293 504.2242 507.54176 512.5231">stageforSEQ(Figure4.30),weseethat,asnotedbefore,theblocklabeled&#x201c;Data&#x201d;</tspan><tspan y="-189.37175" x="170.8 173.56961 181.89635 187.43555 194.62854 205.71492 208.48453 215.14752 220.68672 226.22592 232.33101 237.87021 241.74567 246.72696 250.60242 255.58371 261.12294 267.228 269.9976 278.32435 284.4115 288.28697 294.3741 301.5671 306.8453 313.09187 318.63108 321.40068 328.06367 333.60289 336.37248 341.91169 346.33509 354.66184 358.5373 363.5186 367.39405 372.37535 377.35664 385.68339 389.00093 397.32768 401.20314 406.18443 408.954 413.9353 418.3587 424.46379 430.003 434.98429 438.30183 445.4948 450.4761 455.4574 463.78416 469.32337 474.30467 477.6222 485.39103 489.26649 494.8057 500.3449 504.22038 508.64378 513.62509">inSEQisnotpresentinPIPE.Thisblockservedtoselectbetweendatasources</tspan></text>
<text fill="#231f20" xml:space="preserve" transform="matrix(1 0 -0 1 -35.28 726.12)" font-size="9.9626" font-family="StoneSans"><tspan y="-177.41663" x="170.8 175.68167 180.66297 183.03406">valP</tspan></text>
<text fill="#231f20" xml:space="preserve" transform="matrix(1 0 -0 1 -35.28 726.12)" font-size="9.9626" font-family="TimesTen"><tspan y="-177.41663" x="191.23329 195.10875 198.4263 203.9655">(for</tspan></text>
<text fill="#231f20" xml:space="preserve" transform="matrix(1 0 -0 1 -35.28 726.12)" font-size="9.9626" font-family="ZztexMono"><tspan y="-177.41663" x="210.69025 215.92061 221.15097 226.38134">call</tspan></text>
<text fill="#231f20" xml:space="preserve" transform="matrix(1 0 -0 1 -35.28 726.12)" font-size="9.9626" font-family="TimesTen"><tspan y="-177.41663" x="234.46102 237.23062 242.76982 246.64528 249.96283 253.83829 259.3775 263.8009 267.11845 269.88804 275.42726 280.96647 284.84193 291.56669 296.54798 302.0872">instructions)and</tspan></text>
<text fill="#231f20" xml:space="preserve" transform="matrix(1 0 -0 1 -35.28 726.12)" font-size="9.9626" font-family="StoneSans"><tspan y="-177.41663" x="310.47666 315.35835 320.33964 322.71073">valA</tspan></text>
<text fill="#231f20" xml:space="preserve" transform="matrix(1 0 -0 1 -35.28 726.12)" font-size="9.9626" font-family="TimesTen"><tspan y="-177.41663" x="328.80784 334.23747 339.77668 345.3159 351.48274 354.80027 360.33949 363.10908 369.83384 373.7093 378.69059 381.46018 386.44148 390.86488 394.1824 396.952 402.4912 410.87974 413.64933 420.37409 425.9133 431.4525 441.4948 447.03404 452.01533 455.89079 459.2083 464.74754 468.623 476.92185 481.90315 490.29167 495.83088 503.66148 506.979 512.5182">,butthisselectionisnowperformedbythe</tspan><tspan y="-165.4615" x="170.79901 176.33821 179.10782 184.64702 189.07042 197.65619 200.4258 205.40709 210.94629 215.92758 218.69719 223.67848 232.26425 237.24555 242.78475 247.76604 250.53565 256.5132 262.60038 269.79338 278.37916 285.62199 293.64985 296.41944 305.00523 308.32276 313.86198 321.88984 327.42906 332.41035 336.83375 342.37297 347.91218 355.94004 359.8155 363.13304 368.11433 373.0956 377.70829 383.2455 392.6502 398.18943 402.06489 408.429 413.9682 417.28575 422.82496 427.80625 434.72828 440.2675 443.03709 448.5763 452.9997 458.5389 465.46095 468.23054 476.8163 480.13386 485.67308 488.44267 495.3647 499.24015 502.55769 507.53898 512.52029">blocklabeled&#x201c;Sel+FwdA&#x201d;inthedecodestage.Mostotherblocksinthisstage</tspan><tspan y="-153.50638" x="170.79901 175.7803 179.65576 187.61487 190.38448 195.92368 200.90497 206.44417 209.76172 212.53133 216.95473 221.93602 227.68344 231.00099 239.518 242.83556 248.37476 253.35605 256.12565 262.9789 267.4023 272.94154 278.48075 284.01997 287.3375 292.3188 296.19425 301.73347 306.71476 310.5902 313.90776 320.76103 323.5306 332.04765 337.58686 344.77986 353.0787 358.66874 365.86174 368.63133 371.94886 380.46589 385.44718 393.9642 398.9455 404.4847 410.02394 413.89939 419.4386 424.9778 428.85328 431.62287 436.60417 439.9217 447.8808 451.75627 456.73756 462.27677 467.25807 475.55693 478.3265 483.86573 491.82484 497.36405 503.6594 506.97694 512.5161">areidenticaltotheircounterpartsinSEQ,withanappropriaterenamingofthe</tspan><tspan y="-141.55126" x="170.79901 174.67447 177.44408 182.42537 187.96457 192.94586 195.71547 199.04299 203.62776 207.50322 215.13655 218.4541 223.9933 226.76291 232.7325 238.2717 243.25299 248.79219 252.66765 257.28034 261.94483 266.92613 272.46534 280.0987 284.5221 289.5034 297.13676 302.11805 304.88764 308.7631 316.39646 320.2719 325.2532 332.32865 335.64619 341.1854 346.1667 351.57838 359.87724 364.85853 370.39775 377.47319 383.0124 388.42408 391.7416 397.28083 404.35627 409.33757 414.31886 417.08845 422.62767 427.60896 433.57856 436.34815 443.9815 449.52073 452.2903 457.82954 462.81083 465.5804 468.35 473.88923 480.96467 484.84013 489.8214 494.8027 497.5723 501.44776 504.7653 509.74659 513.622">signals.Inthis&#xfb01;gure,youcanalsoseethatmanyofthevaluesinpipelineregisters</tspan><tspan y="-129.59514" x="170.79901 175.7803 181.3195 189.63628 201.81855 206.79984 212.33904 220.6558 233.39598 238.37728 242.25273 250.0116 253.88706 259.42628 264.96549 270.5047 273.2743 276.04389 281.02519 289.34199 292.65953 300.97633 306.51554 309.83308 315.37229 320.35359 327.00663 332.54585 337.52714 341.4026 344.72013 351.37318 356.91239 363.0075 366.32505 371.86427 379.62315 384.04655 386.81614 390.6916 395.115 400.6542 403.4238 409.51893 414.5002 421.15327 426.69248 431.67378 435.54924 441.64436 447.18357 453.2787 456.59623 462.13545 469.89433 473.21186 478.75108 482.62654 489.81953 494.8008 498.67628 504.21549 506.98509 512.5243">andMandWaresuppliedtootherpartsofthecircuitaspartoftheforwarding</tspan><tspan y="-117.640018" x="170.79901 175.7803 181.3195 189.34935 194.88855 197.65816 203.19736 208.17865 210.94826 213.71787 219.25707 226.729 231.1524 236.6916 242.2308 245.54836 249.42382 254.96302 260.22328 262.99287 268.53208 273.51338 276.28297 280.52705">andpipelinecontrollogic.</tspan></text>
</g>
</svg>
