<?xml version="1.0" encoding="UTF-8" standalone="no"?>
<svg
   version="1.1"
   width="532.80005"
   height="340"
   viewBox="0 0 532.80007 340.00001"
   id="svg99"
   sodipodi:docname="csapp2nd_14_figure1.9.svg"
   inkscape:version="1.3.2 (091e20e, 2023-11-25, custom)"
   xmlns:inkscape="http://www.inkscape.org/namespaces/inkscape"
   xmlns:sodipodi="http://sodipodi.sourceforge.net/DTD/sodipodi-0.dtd"
   xmlns="http://www.w3.org/2000/svg"
   xmlns:svg="http://www.w3.org/2000/svg">
  <sodipodi:namedview
     id="namedview99"
     pagecolor="#505050"
     bordercolor="#ffffff"
     borderopacity="1"
     inkscape:showpageshadow="0"
     inkscape:pageopacity="0"
     inkscape:pagecheckerboard="1"
     inkscape:deskcolor="#505050"
     inkscape:zoom="0.69819813"
     inkscape:cx="266.40002"
     inkscape:cy="332.2839"
     inkscape:window-width="1500"
     inkscape:window-height="948"
     inkscape:window-x="-6"
     inkscape:window-y="-6"
     inkscape:window-maximized="1"
     inkscape:current-layer="g99" />
  <defs
     id="defs1">
    <clipPath
       id="clip_52">
      <path
         transform="matrix(1,0,0,-1,-35.28,726.12)"
         d="m 35.28,61.2 h 532.8 V 726.12 H 35.28 Z"
         fill-rule="evenodd"
         id="path1" />
    </clipPath>
  </defs>
  <g
     clip-path="url(#clip_52)"
     id="g99">
    <text
       xml:space="preserve"
       transform="translate(-35.28,726.12)"
       font-size="9.4645px"
       font-family="StoneSans"
       font-weight="bold"
       id="text1"><tspan
         y="-681.875"
         x="87.113899 92.546524"
         id="tspan1">14</tspan></text>
    <text
       xml:space="preserve"
       transform="translate(-35.28,726.12)"
       font-size="8.4682px"
       font-family="StoneSans"
       id="text2"><tspan
         y="-681.875"
         x="110.682 116.47425 121.42815 125.66225 130.71776 133.63928 137.93266 143.30997 156.63892 164.25183 168.35043 173.20271 178.03806 183.41536 188.26764 193.20461 198.99686 203.84914 211.41971 216.47522 221.31056 224.23209 228.52547 233.90277 238.30623 242.49799 245.79211 248.71364 253.00702 260.57758"
         id="tspan2">Chapter1ATourofComputerSystems</tspan></text>
    <path
       transform="matrix(1,0,0,-1,-35.28,726.12)"
       stroke-width="1.25"
       stroke-linecap="butt"
       stroke-miterlimit="4"
       stroke-linejoin="miter"
       fill="none"
       stroke="#231f20"
       d="m 89.576,574.282 v 72.086"
       id="path2" />
    <path
       transform="matrix(1,0,0,-1,-35.28,726.12)"
       d="m 91.979,644.708 -2.432,9.079 -2.433,-9.079 h 4.865"
       fill="#231f20"
       id="path3" />
    <path
       transform="matrix(1,0,0,-1,-35.28,726.12)"
       stroke-width="1.25"
       stroke-linecap="butt"
       stroke-miterlimit="4"
       stroke-linejoin="miter"
       fill="none"
       stroke="#231f20"
       d="M 90.204,548.573 V 466.91"
       id="path4" />
    <path
       transform="matrix(1,0,0,-1,-35.28,726.12)"
       d="m 87.801,468.569 2.432,-9.079 2.433,9.079 h -4.865"
       fill="#231f20"
       id="path5" />
    <path
       transform="matrix(1,0,0,-1,-35.28,726.12)"
       d="M 351.175,447.964 243.623,660.432 135.458,447.964 h 215.717"
       fill="#ffffff"
       id="path6" />
    <path
       transform="matrix(1,0,0,-1,-35.28,726.12)"
       stroke-width="1"
       stroke-linecap="butt"
       stroke-miterlimit="4"
       stroke-linejoin="miter"
       fill="none"
       stroke="#231f20"
       d="M 351.175,447.964 243.623,660.432 135.458,447.964 Z"
       id="path7" />
    <path
       transform="matrix(1,0,0,-1,-35.28,726.12)"
       d="m 150.91,478.318 h 184.9"
       fill="#ffffff"
       id="path8" />
    <path
       transform="matrix(1,0,0,-1,-35.28,726.12)"
       stroke-width="1"
       stroke-linecap="butt"
       stroke-miterlimit="4"
       stroke-linejoin="miter"
       fill="none"
       stroke="#231f20"
       d="m 150.91,478.318 h 184.9"
       id="path9" />
    <path
       transform="matrix(1,0,0,-1,-35.28,726.12)"
       d="M 166.362,508.669 H 320.445"
       fill="#ffffff"
       id="path10" />
    <path
       transform="matrix(1,0,0,-1,-35.28,726.12)"
       stroke-width="1"
       stroke-linecap="butt"
       stroke-miterlimit="4"
       stroke-linejoin="miter"
       fill="none"
       stroke="#231f20"
       d="M 166.362,508.669 H 320.445"
       id="path11" />
    <path
       transform="matrix(1,0,0,-1,-35.28,726.12)"
       d="M 181.814,539.022 H 305.081"
       fill="#ffffff"
       id="path12" />
    <path
       transform="matrix(1,0,0,-1,-35.28,726.12)"
       stroke-width="1"
       stroke-linecap="butt"
       stroke-miterlimit="4"
       stroke-linejoin="miter"
       fill="none"
       stroke="#231f20"
       d="M 181.814,539.022 H 305.081"
       id="path13" />
    <path
       transform="matrix(1,0,0,-1,-35.28,726.12)"
       d="m 197.266,569.374 h 92.451"
       fill="#ffffff"
       id="path14" />
    <path
       transform="matrix(1,0,0,-1,-35.28,726.12)"
       stroke-width="1"
       stroke-linecap="butt"
       stroke-miterlimit="4"
       stroke-linejoin="miter"
       fill="none"
       stroke="#231f20"
       d="m 197.266,569.374 h 92.451"
       id="path15" />
    <path
       transform="matrix(1,0,0,-1,-35.28,726.12)"
       d="m 212.718,599.727 h 61.634"
       fill="#ffffff"
       id="path16" />
    <path
       transform="matrix(1,0,0,-1,-35.28,726.12)"
       stroke-width="1"
       stroke-linecap="butt"
       stroke-miterlimit="4"
       stroke-linejoin="miter"
       fill="none"
       stroke="#231f20"
       d="m 212.718,599.727 h 61.634"
       id="path17" />
    <path
       transform="matrix(1,0,0,-1,-35.28,726.12)"
       d="m 228.171,630.079 h 30.817"
       fill="#ffffff"
       id="path18" />
    <path
       transform="matrix(1,0,0,-1,-35.28,726.12)"
       stroke-width="1"
       stroke-linecap="butt"
       stroke-miterlimit="4"
       stroke-linejoin="miter"
       fill="none"
       stroke="#231f20"
       d="m 228.171,630.079 h 30.817"
       id="path19" />
    <text
       fill="#231f20"
       xml:space="preserve"
       transform="translate(-35.28,726.12)"
       font-size="8px"
       font-family="Helvetica"
       id="text63"><tspan
         y="-632.46002"
         x="280.04199 285.81799 291.15399 296.92999 299.15399 301.81799 306.26599 310.71399 312.48999 316.48999 318.71399 323.16199 325.82599 329.82599 332.04999 336.49799 340.94598 342.72198 347.16998 349.39398 355.16998 359.61798 362.28198 366.72998 370.72998"
         id="tspan19">CPU registers hold words </tspan><tspan
         y="-623.46002"
         x="280.04199 282.70599 287.15399 289.37799 292.04199 293.81799 298.26599 302.26599 306.71399 311.16199 313.38599 315.60999 318.27399 322.72198 329.38599 331.60999 335.60999 340.05798 344.05798 348.50598 352.95398 355.17798 361.84198 366.28998 372.95398 377.40198 380.06598 383.47397"
         id="tspan20">retrieved from cache memory.</tspan><tspan
         y="-601.83282"
         x="294.6452 299.0932 303.5412 305.7652 309.7652 314.2132 318.2132 322.66119 327.10919 329.33319 333.78119 338.22919 340.00519 344.45319 348.45319 350.67719 354.67719 359.12518 363.12518 367.57318 372.02118 374.24518 376.02118 377.79718 382.24518 386.69318 390.69318"
         id="tspan21">L1 cache holds cache lines </tspan><tspan
         y="-592.83282"
         x="294.6452 297.3092 301.7572 303.9812 306.6452 308.4212 312.8692 316.8692 321.3172 325.7652 327.9892 330.2132 332.8772 337.3252 343.9892 346.2132 350.66119 355.10919 357.33319 361.33319 365.78119 369.78119 374.22919 378.67719"
         id="tspan22">retrieved from L2 cache.</tspan><tspan
         y="-571.61285"
         x="309.28839 313.73639 318.18439 320.40839 324.40839 328.85638 332.85638 337.30438 341.75238 343.97638 348.42438 352.87238 354.64838 359.09637 363.09637 365.32037 369.32037 373.76837 377.76837 382.21637 386.66437 388.88837 390.66437 392.44037 396.88837 401.33636"
         id="tspan23">L2 cache holds cache lines</tspan><tspan
         y="-562.61285"
         x="309.28839 311.95239 316.40039 318.62439 321.28839 323.06439 327.51239 331.51239 335.96039 340.40839 342.63239 344.85638 347.52039 351.96838 358.63239 360.85638 365.30438 369.75238 371.97638 375.97638 380.42438 384.42438 388.87238 393.32037"
         id="tspan24">retrieved from L3 cache.</tspan><tspan
         y="-510.74484"
         x="341.14838 347.81238 352.26038 354.03638 358.48438 360.70837 367.37238 371.82037 378.48438 382.93237 385.59637 389.59637 391.82037 396.26837 400.71637 402.49237 406.94037 410.94037 413.16437 417.61237 419.38837 423.38837 427.38837 429.61237 434.06036 435.83636 440.28436 444.28436 448.28436 452.28436"
         id="tspan25">Main memory holds disk blocks </tspan><tspan
         y="-501.74484"
         x="341.14838 343.81238 348.26038 350.48438 353.14838 354.92438 359.37238 363.37238 367.82037 372.26837 374.49237 376.71637 379.38037 383.82837 390.49237 392.71637 394.49237 398.94037 402.94037 407.38837 409.16437 411.38837 415.83636 417.61237 421.61237 425.61237 429.61237"
         id="tspan26">retrieved from local disks.</tspan><tspan
         y="-484.38565"
         x="360.49237 364.94037 369.38837 373.38837 377.83636 379.61237 381.83636 386.28436 388.06036 392.06036 396.06036 400.06036 402.28436 406.73236 411.18036 412.95636 417.40436 419.62836 421.85236 423.62836 425.40436 429.85236"
         id="tspan27">Local disks hold files</tspan><tspan
         y="-475.38565"
         x="360.49237 363.15637 367.60437 369.82837 372.49237 374.26837 378.71637 382.71637 387.16437 391.61237 393.83636 396.06036 398.72437 403.17236 409.83636 412.06036 416.50836 418.28436 422.28436 426.28436 430.28436 432.50836 436.95636"
         id="tspan28">retrieved from disks on</tspan><tspan
         y="-466.38565"
         x="360.49237 363.15637 367.60437 374.26837 378.71637 380.94037 385.38837 387.61237 392.06036 396.50836 398.73236 404.50836 408.95636 411.62036 415.62036 417.84436 421.84436 426.29236 428.95636 432.95636 437.40436 439.62915"
         id="tspan29">remote network server.</tspan><tspan
         y="-633.51447"
         x="234.19077 239.96677 244.41476 248.86276"
         id="tspan30">Regs</tspan><tspan
         y="-555.59607"
         x="227.29477 231.74277 236.19077 238.41476 242.41476 246.86276 250.86276 255.31076"
         id="tspan31">L3 cache</tspan><tspan
         y="-546.59607"
         x="229.30676 231.97076 237.30676 243.08276 248.41876 255.08276"
         id="tspan32">(SRAM)</tspan><tspan
         y="-585.95288"
         x="227.29477 231.74277 236.19077 238.41476 242.41476 246.86276 250.86276 255.31076"
         id="tspan33">L2 cache</tspan><tspan
         y="-576.95288"
         x="229.30676 231.97076 237.30676 243.08276 248.41876 255.08276"
         id="tspan34">(SRAM)</tspan><tspan
         y="-615.02808"
         x="227.29477 231.74277 236.19077 238.41476 242.41476 246.86276 250.86276 255.31076"
         id="tspan35">L1 cache</tspan><tspan
         y="-606.02808"
         x="229.30676 231.97076 237.30676 243.08276 248.41876 255.08276"
         id="tspan36">(SRAM)</tspan><tspan
         y="-524.97687"
         x="219.30276 225.96677 230.41476 232.19077 236.63876 238.86276 245.52676 249.97476 256.63876 261.08676 263.75076"
         id="tspan37">Main memory</tspan><tspan
         y="-515.97687"
         x="229.08676 231.75076 237.52676 243.30276 248.63876 255.30276"
         id="tspan38">(DRAM)</tspan><tspan
         y="-494.78088"
         x="199.95076 204.39876 208.84676 212.84676 217.29475 219.07076 221.29475 225.29475 229.74275 233.74275 238.19075 242.63875 247.08675 251.53474 254.19875 258.19873 260.42273 264.42273 266.64673 271.09473 273.75873 278.20673 282.65472"
         id="tspan39">Local secondary storage</tspan><tspan
         y="-485.78088"
         x="222.41476 225.07877 226.85477 231.30276 235.30276 239.75076 241.52676 243.75076 248.19876 249.97476 253.97476 257.97476 261.97476"
         id="tspan40">(local disks)</tspan><tspan
         y="-465.40009"
         x="195.50676 201.28276 205.73076 212.39476 216.84276 219.06676 223.51476 225.73875 229.73875 234.18675 238.18675 242.63475 247.08275 251.53075 255.97874 258.64273 262.64273 264.86673 268.86673 271.09073 275.53873 278.20273 282.65073 287.09872"
         id="tspan41">Remote secondary storage</tspan><tspan
         y="-456.40009"
         x="175.80595 178.46996 182.91795 184.69395 188.69395 190.91795 193.58195 195.35796 199.80595 204.25395 206.47795 210.92595 215.37395 217.59795 219.82195 221.59795 223.37395 227.82195 230.04594 234.04594 238.04594 242.04594 244.26994 248.71794 255.38194 259.38196 261.60596 263.82996 271.23956 275.68756 280.13556 282.35956 286.35956 290.80756 293.47156 297.47156 301.91956 304.58356 308.58356"
         id="tspan42">(distributed file systems, Web servers)</tspan><tspan
         y="-631.24408"
         x="98.919556 104.25555 110.91956 115.36755 117.14355 118.91956 123.36755 125.59235"
         id="tspan43">Smaller,</tspan><tspan
         y="-622.24408"
         x="102.47156 104.69556 109.14355 113.14355 115.36755 119.81555 122.04035"
         id="tspan44">faster,</tspan><tspan
         y="-613.24408"
         x="106.69556 111.14355 115.59155"
         id="tspan45">and</tspan><tspan
         y="-604.24408"
         x="100.69955 104.69955 109.14755 113.14755 115.37155 117.14755 118.92355 123.37155"
         id="tspan46">costlier</tspan><tspan
         y="-595.24408"
         x="96.251556 98.915558 103.36356 107.81155 110.47556 112.69955 117.14755 121.14755 123.37155 127.81955"
         id="tspan47">(per byte)</tspan><tspan
         y="-586.24408"
         x="100.02756 104.02756 106.25156 110.69955 113.36356 117.81155 122.25955"
         id="tspan48">storage</tspan><tspan
         y="-577.24408"
         x="99.807556 104.25555 108.70355 112.70355 114.47955 118.47955 122.92755"
         id="tspan49">devices</tspan><tspan
         y="-538.99451"
         x="99.906754 104.35475 108.80275 111.46675 115.91475 120.36275 122.58755"
         id="tspan50">Larger,</tspan><tspan
         y="-529.99451"
         x="99.910751 103.91075 105.68675 110.13475 115.91075 120.35875 122.58355"
         id="tspan51">slower,</tspan><tspan
         y="-520.99451"
         x="105.68675 110.13475 114.58275"
         id="tspan52">and</tspan><tspan
         y="-511.99451"
         x="97.906754 101.90675 106.35475 110.80275 115.25075 119.69875 124.14674"
         id="tspan53">cheaper</tspan><tspan
         y="-502.99451"
         x="95.242752 97.906754 102.35475 106.80275 109.46675 111.69075 116.13875 120.13875 122.36275 126.81075"
         id="tspan54">(per byte)</tspan><tspan
         y="-493.99451"
         x="99.018753 103.01875 105.24275 109.69075 112.35475 116.80275 121.25075"
         id="tspan55">storage</tspan><tspan
         y="-484.99451"
         x="98.798752 103.24675 107.69475 111.69475 113.47075 117.47075 121.91875"
         id="tspan56">devices</tspan><tspan
         y="-643.18732"
         x="221.33795 225.78595 230.23395"
         id="tspan57">L0:</tspan><tspan
         y="-615.18811"
         x="206.40115 210.84915 215.29715"
         id="tspan58">L1:</tspan><tspan
         y="-583.94012"
         x="191.29715 195.74515 200.19315"
         id="tspan59">L2:</tspan><tspan
         y="-554.1817"
         x="176.48915 180.93715 185.38515"
         id="tspan60">L3:</tspan><tspan
         y="-524.28809"
         x="160.53635 164.98434 169.43234"
         id="tspan61">L4:</tspan><tspan
         y="-494.75607"
         x="145.98915 150.43715 154.88515"
         id="tspan62">L5:</tspan><tspan
         y="-464.82806"
         x="130.31395 134.76195 139.20995"
         id="tspan63">L6:</tspan></text>
    <path
       transform="matrix(1,0,0,-1,-35.28,726.12)"
       stroke-width="0.5"
       stroke-linecap="butt"
       stroke-miterlimit="4"
       stroke-linejoin="miter"
       fill="none"
       stroke="#231f20"
       d="m 271.802,618.117 c 0.879,0 1.592,0.712 1.592,1.592 l -0.002,8.777 h 0.002 c 0,0.879 0.714,1.593 1.594,1.593 -0.88,0 -1.594,0.713 -1.594,1.592 h -0.002 l 0.002,8.668 c 0,0.88 -0.713,1.592 -1.592,1.592 m 15.365,-54.166 c 0.879,0 1.593,0.712 1.593,1.592 l -10e-4,8.777 h 10e-4 c 0,0.88 0.713,1.592 1.592,1.592 -0.879,0 -1.592,0.713 -1.592,1.593 h -10e-4 l 10e-4,8.668 c 0,0.88 -0.714,1.593 -1.593,1.593 m 14.363,-54.167 c 0.88,0 1.593,0.712 1.593,1.592 l -0.002,8.777 h 0.002 c 0,0.879 0.714,1.592 1.594,1.592 -0.88,0 -1.594,0.713 -1.594,1.593 h -0.002 l 0.002,8.668 c 0,0.88 -0.713,1.592 -1.593,1.592"
       id="path63" />
    <text
       fill="#231f20"
       xml:space="preserve"
       transform="translate(-35.28,726.12)"
       font-size="8px"
       font-family="Helvetica"
       id="text65"><tspan
         y="-541.26001"
         x="325.651 330.099 334.547 336.771 340.771 345.21899 349.21899 353.66699 358.11499 360.33899 364.78699 369.23499 371.01099 375.45898 379.45898 381.68298 385.68298 390.13098 394.13098 398.57898 403.02698 405.25098 407.02698 408.80298 413.25098 417.69897"
         id="tspan64">L3 cache holds cache lines</tspan><tspan
         y="-532.26001"
         x="325.651 328.315 332.763 334.987 337.651 339.427 343.875 347.875 352.323 356.771 358.995 361.21899 363.883 368.33099 374.995 377.21899 383.883 388.33099 394.995 399.44299 402.10699 405.51498"
         id="tspan65">retrieved from memory.</tspan></text>
    <path
       transform="matrix(1,0,0,-1,-35.28,726.12)"
       stroke-width="0.5"
       stroke-linecap="butt"
       stroke-miterlimit="4"
       stroke-linejoin="miter"
       fill="none"
       stroke="#231f20"
       d="m 317.894,527.06 c 0.88,0 1.593,0.713 1.593,1.592 l -0.002,8.778 h 0.002 c 0,0.879 0.714,1.592 1.594,1.592 -0.88,0 -1.594,0.713 -1.594,1.593 h -0.002 l 0.002,8.667 c 0,0.88 -0.713,1.593 -1.593,1.593 m 15.365,-54.167 c 0.879,0 1.592,0.713 1.592,1.592 l -0.002,8.778 h 0.002 c 0,0.878 0.714,1.591 1.594,1.591 -0.88,0 -1.594,0.713 -1.594,1.593 h -0.002 l 0.002,8.667 c 0,0.881 -0.713,1.594 -1.592,1.594 m 19.365,-57.968 c 0.88,0 1.593,0.712 1.593,1.592 l -0.002,12.577 h 0.002 c 0,0.88 0.713,1.594 1.593,1.594 -0.88,0 -1.593,0.713 -1.593,1.592 h -0.002 l 0.002,12.466 c 0,0.881 -0.713,1.594 -1.593,1.594"
       id="path65" />
    <text
       fill="#00adef"
       xml:space="preserve"
       transform="translate(-35.28,726.12)"
       font-size="8.9664px"
       font-family="StoneSans"
       id="text66"><tspan
         y="-431.52399"
         x="87.113899 91.426735 93.560738 98.895744 104.01556 107.13586 114.25519 119.4019 121.97526"
         id="tspan66">Figure1.9</tspan></text>
    <text
       fill="#231f20"
       xml:space="preserve"
       transform="translate(-35.28,726.12)"
       font-size="8.9664px"
       font-family="StoneSans"
       font-weight="bold"
       id="text67"><tspan
         y="-431.52399"
         x="135.09131 141.0719 149.18649 154.09111 158.87021 163.69414 171.89839 177.49342 179.90538 187.38336 192.80803 198.53757 205.93486 214.13911 219.04373 227.24799 232.67265 236.37576 243.60269 249.14392 251.55588 256.46051 260.05603 264.87994 268.31406 272.60001 278.14124 282.13129"
         id="tspan67">Anexampleofamemoryhierarchy.</tspan></text>
  </g>
</svg>
