<svg xmlns="http://www.w3.org/2000/svg" xmlns:xlink="http://www.w3.org/1999/xlink" version="1.1" width="532.7996" height="664.92" viewBox="0 0 532.7996 664.92">
<defs>
<clipPath id="clip_3191">
<path transform="matrix(1,0,0,-1,-42.7104,726.12)" d="M42.7104 61.2H575.51V726.12H42.7104Z" fill-rule="evenodd"/>
</clipPath>
<clipPath id="clip_3192">
<path transform="matrix(1,0,0,-1,-42.7104,726.12)" d="M440.963 663.154H94.5V214.51999H440.963ZM94.5 663.154"/>
</clipPath>
<clipPath id="clip_3193">
<path transform="matrix(1,0,0,-1,-42.7104,726.12)" d="M0 792H612V.030029297H0Z"/>
</clipPath>
</defs>
<g clip-path="url(#clip_3191)">
<text xml:space="preserve" transform="matrix(1 0 -0 1 -42.7104 726.12)" font-size="8.4682" font-family="StoneSans"><tspan y="-681.875" x="328.766 333.16947 337.46284 341.53605 344.45759 346.47303 351.3253 358.70954 363.57029 366.00065 379.3296 383.877 385.89247 390.94798 395.24134 397.25679 399.27223 404.2261 408.51948 415.9884 420.54429 425.40504 432.69615 434.94023 442.51078 447.56629 449.58174 453.8751 461.44566 465.739 470.6929 473.61445 477.84855 480.77009 482.78553 487.6378 492.59169">Section4.5PipelinedY86Implementations</tspan></text>
<text xml:space="preserve" transform="matrix(1 0 -0 1 -42.7104 726.12)" font-size="9.4645" font-family="StoneSans" font-weight="bold"><tspan y="-681.875" x="508.587 514.01968 519.4523">403</tspan></text>
<path transform="matrix(1,0,0,-1,-42.7104,726.12)" stroke-width=".49" stroke-linecap="butt" stroke-miterlimit="4" stroke-linejoin="miter" fill="none" stroke="#231f20" d="M134.816 644.645V630.437"/>
<path transform="matrix(1,0,0,-1,-42.7104,726.12)" d="M134.816 646.755 136.03 643.781 134.816 644.487 133.601 643.781 134.816 646.755" fill="#231f20"/>
<path transform="matrix(1,0,0,-1,-42.7104,726.12)" d="M144.646 654.832C144.646 650.37 140.246 646.755 134.815 646.755 129.383 646.755 124.98 650.37 124.98 654.832 124.98 659.293 129.383 662.908 134.815 662.908 140.246 662.908 144.646 659.293 144.646 654.832" fill="#ffffff"/>
<path transform="matrix(1,0,0,-1,-42.7104,726.12)" stroke-width=".49" stroke-linecap="butt" stroke-miterlimit="4" stroke-linejoin="miter" fill="none" stroke="#231f20" d="M144.646 654.832C144.646 650.37 140.246 646.755 134.815 646.755 129.383 646.755 124.98 650.37 124.98 654.832 124.98 659.293 129.383 662.908 134.815 662.908 140.246 662.908 144.646 659.293 144.646 654.832Z"/>
<text fill="#231f20" xml:space="preserve" transform="matrix(1 0 -0 1 -42.7104 726.12)" font-size="6.86" font-family="Helvetica"><tspan y="-652.1" x="128.503 133.07863 134.9857 138.79987">Stat</tspan></text>
<path transform="matrix(1,0,0,-1,-42.7104,726.12)" d="M146.775 624.532C146.775 622.909 145.458 621.592 143.835 621.592H126.522C124.899 621.592 123.582 622.909 123.582 624.532V634.59C123.582 636.215 124.899 637.53 126.522 637.53H143.835C145.458 637.53 146.775 636.215 146.775 634.59V624.532" fill="#b1b4b6"/>
<path transform="matrix(1,0,0,-1,-42.7104,726.12)" d="M145.502 625.939C145.502 624.316 144.185 622.999 142.562 622.999H125.25C123.627 622.999 122.31 624.316 122.31 625.939V635.997C122.31 637.622 123.627 638.937 125.25 638.937H142.562C144.185 638.937 145.502 637.622 145.502 635.997V625.939" fill="#c6c8ca"/>
<path transform="matrix(1,0,0,-1,-42.7104,726.12)" stroke-width=".735" stroke-linecap="butt" stroke-miterlimit="4" stroke-linejoin="miter" fill="none" stroke="#231f20" d="M145.502 625.939C145.502 624.316 144.185 622.999 142.562 622.999H125.25C123.627 622.999 122.31 624.316 122.31 625.939V635.997C122.31 637.622 123.627 638.937 125.25 638.937H142.562C144.185 638.937 145.502 637.622 145.502 635.997V625.939Z"/>
<text fill="#231f20" xml:space="preserve" transform="matrix(1 0 -0 1 -42.7104 726.12)" font-size="7.84" font-family="Helvetica"><tspan y="-628.978" x="127.622 131.542 133.72153 138.08057">stat</tspan></text>
<path transform="matrix(1,0,0,-1,-42.7104,726.12)" d="M230.102 594.725H166.21V609.07998H230.102ZM166.21 594.725" fill="#8ed8f8"/>
<path transform="matrix(1,0,0,-1,-42.7104,726.12)" stroke-width=".98" stroke-linecap="butt" stroke-miterlimit="4" stroke-linejoin="miter" fill="none" stroke="#231f20" d="M230.103 594.725H166.211V609.07998H230.103Z"/>
<path transform="matrix(1,0,0,-1,-42.7104,726.12)" d="M124.713 594.725H103.795V609.07998H124.713ZM103.795 594.725" fill="#8ed8f8"/>
<path transform="matrix(1,0,0,-1,-42.7104,726.12)" stroke-width=".98" stroke-linecap="butt" stroke-miterlimit="4" stroke-linejoin="miter" fill="none" stroke="#231f20" d="M124.713 594.725H103.795V609.07998H124.713Z"/>
<path transform="matrix(1,0,0,-1,-42.7104,726.12)" d="M166.24 594.725H145.20001V609.07998H166.24ZM145.2 594.725" fill="#ffffff"/>
<path transform="matrix(1,0,0,-1,-42.7104,726.12)" stroke-width=".98" stroke-linecap="butt" stroke-miterlimit="4" stroke-linejoin="miter" fill="none" stroke="#231f20" d="M166.241 594.725H145.20099V609.07998H166.241Z"/>
<path transform="matrix(1,0,0,-1,-42.7104,726.12)" d="M333.825 594.725H312.906V609.07998H333.825ZM312.906 594.725" fill="#8ed8f8"/>
<path transform="matrix(1,0,0,-1,-42.7104,726.12)" stroke-width=".98" stroke-linecap="butt" stroke-miterlimit="4" stroke-linejoin="miter" fill="none" stroke="#231f20" d="M333.825 594.725H312.906V609.07998H333.825Z"/>
<path transform="matrix(1,0,0,-1,-42.7104,726.12)" d="M354.773 594.725H333.73103V609.07998H354.773ZM333.731 594.725" fill="#ffffff"/>
<path transform="matrix(1,0,0,-1,-42.7104,726.12)" stroke-width=".98" stroke-linecap="butt" stroke-miterlimit="4" stroke-linejoin="miter" fill="none" stroke="#231f20" d="M354.772 594.725H333.73V609.07998H354.772Z"/>
<path transform="matrix(1,0,0,-1,-42.7104,726.12)" d="M375.683 594.725H354.64103V609.07998H375.683ZM354.641 594.725" fill="#ffffff"/>
<path transform="matrix(1,0,0,-1,-42.7104,726.12)" stroke-width=".98" stroke-linecap="butt" stroke-miterlimit="4" stroke-linejoin="miter" fill="none" stroke="#231f20" d="M375.683 594.725H354.64103V609.07998H375.683Z"/>
<path transform="matrix(1,0,0,-1,-42.7104,726.12)" d="M396.592 594.725H375.55V609.08H396.592 396.461 417.502V594.725H396.461 396.592" fill="#8ed8f8"/>
<path transform="matrix(1,0,0,-1,-42.7104,726.12)" stroke-width=".98" stroke-linecap="butt" stroke-miterlimit="4" stroke-linejoin="miter" fill="none" stroke="#231f20" d="M396.592 594.725H375.55V609.08H396.592 396.461 417.502V594.725H396.461 396.592Z"/>
<path transform="matrix(1,0,0,-1,-42.7104,726.12)" d="M250.223 594.725H229.183V609.08H250.223 250.093 271.133V594.725H250.093 250.223" fill="#ffffff"/>
<path transform="matrix(1,0,0,-1,-42.7104,726.12)" stroke-width=".98" stroke-linecap="butt" stroke-miterlimit="4" stroke-linejoin="miter" fill="none" stroke="#231f20" d="M250.223 594.725H229.183V609.08H250.223 250.093 271.133V594.725H250.093 250.223Z"/>
<path transform="matrix(1,0,0,-1,-42.7104,726.12)" d="M292.043 594.725H271.002V609.08H292.043 291.913 312.953V594.725H291.913 292.043" fill="#ffffff"/>
<path transform="matrix(1,0,0,-1,-42.7104,726.12)" stroke-width=".98" stroke-linecap="butt" stroke-miterlimit="4" stroke-linejoin="miter" fill="none" stroke="#231f20" d="M292.043 594.725H271.002V609.08H292.043 291.913 312.953V594.725H291.913 292.043Z"/>
<path transform="matrix(1,0,0,-1,-42.7104,726.12)" d="M124.713 500.895H103.795V515.25H124.713ZM103.795 500.895" fill="#8ed8f8"/>
<path transform="matrix(1,0,0,-1,-42.7104,726.12)" stroke-width=".98" stroke-linecap="butt" stroke-miterlimit="4" stroke-linejoin="miter" fill="none" stroke="#231f20" d="M124.713 500.895H103.795V515.25H124.713Z"/>
<path transform="matrix(1,0,0,-1,-42.7104,726.12)" d="M166.24 500.895H145.20001V515.25H166.24ZM145.2 500.895" fill="#ffffff"/>
<path transform="matrix(1,0,0,-1,-42.7104,726.12)" stroke-width=".98" stroke-linecap="butt" stroke-miterlimit="4" stroke-linejoin="miter" fill="none" stroke="#231f20" d="M166.241 500.895H145.20099V515.25H166.241Z"/>
<path transform="matrix(1,0,0,-1,-42.7104,726.12)" d="M187.15 500.895H166.10999V515.25H187.15ZM166.11 500.895" fill="#8ed8f8"/>
<path transform="matrix(1,0,0,-1,-42.7104,726.12)" stroke-width=".98" stroke-linecap="butt" stroke-miterlimit="4" stroke-linejoin="miter" fill="none" stroke="#231f20" d="M187.151 500.895H166.111V515.25H187.151Z"/>
<path transform="matrix(1,0,0,-1,-42.7104,726.12)" d="M208.061 500.895H187.021V515.25H208.061ZM187.021 500.895" fill="#ffffff"/>
<path transform="matrix(1,0,0,-1,-42.7104,726.12)" stroke-width=".98" stroke-linecap="butt" stroke-miterlimit="4" stroke-linejoin="miter" fill="none" stroke="#231f20" d="M208.06 500.895H187.01999V515.25H208.06Z"/>
<path transform="matrix(1,0,0,-1,-42.7104,726.12)" d="M228.971 500.895H207.931V515.25H228.971ZM207.931 500.895" fill="#8ed8f8"/>
<path transform="matrix(1,0,0,-1,-42.7104,726.12)" stroke-width=".98" stroke-linecap="butt" stroke-miterlimit="4" stroke-linejoin="miter" fill="none" stroke="#231f20" d="M228.971 500.895H207.931V515.25H228.971Z"/>
<path transform="matrix(1,0,0,-1,-42.7104,726.12)" d="M333.434 500.895H312.51499V515.25H333.434ZM312.515 500.895" fill="#8ed8f8"/>
<path transform="matrix(1,0,0,-1,-42.7104,726.12)" stroke-width=".98" stroke-linecap="butt" stroke-miterlimit="4" stroke-linejoin="miter" fill="none" stroke="#231f20" d="M333.434 500.895H312.51499V515.25H333.434Z"/>
<path transform="matrix(1,0,0,-1,-42.7104,726.12)" d="M354.382 500.895H333.34V515.25H354.382ZM333.34 500.895" fill="#ffffff"/>
<path transform="matrix(1,0,0,-1,-42.7104,726.12)" stroke-width=".98" stroke-linecap="butt" stroke-miterlimit="4" stroke-linejoin="miter" fill="none" stroke="#231f20" d="M354.381 500.895H333.33903V515.25H354.381Z"/>
<path transform="matrix(1,0,0,-1,-42.7104,726.12)" d="M375.291 500.895H354.25V515.25H375.291ZM354.25 500.895" fill="#ffffff"/>
<path transform="matrix(1,0,0,-1,-42.7104,726.12)" stroke-width=".98" stroke-linecap="butt" stroke-miterlimit="4" stroke-linejoin="miter" fill="none" stroke="#231f20" d="M375.291 500.895H354.25V515.25H375.291Z"/>
<path transform="matrix(1,0,0,-1,-42.7104,726.12)" d="M396.2 500.895H375.159V515.25H396.2 396.07 417.11V500.895H396.07 396.2" fill="#8ed8f8"/>
<path transform="matrix(1,0,0,-1,-42.7104,726.12)" stroke-width=".98" stroke-linecap="butt" stroke-miterlimit="4" stroke-linejoin="miter" fill="none" stroke="#231f20" d="M396.2 500.895H375.159V515.25H396.2 396.07 417.11V500.895H396.07 396.2Z"/>
<path transform="matrix(1,0,0,-1,-42.7104,726.12)" d="M249.832 500.894H228.791V515.249H249.832 249.702 270.742V500.894H249.702 249.832" fill="#ffffff"/>
<path transform="matrix(1,0,0,-1,-42.7104,726.12)" stroke-width=".98" stroke-linecap="butt" stroke-miterlimit="4" stroke-linejoin="miter" fill="none" stroke="#231f20" d="M249.832 500.894H228.791V515.249H249.832 249.702 270.742V500.894H249.702 249.832Z"/>
<path transform="matrix(1,0,0,-1,-42.7104,726.12)" d="M291.651 500.894H270.61V515.249H291.651 291.521 312.561V500.894H291.521 291.651" fill="#ffffff"/>
<path transform="matrix(1,0,0,-1,-42.7104,726.12)" stroke-width=".98" stroke-linecap="butt" stroke-miterlimit="4" stroke-linejoin="miter" fill="none" stroke="#231f20" d="M291.651 500.894H270.61V515.249H291.651 291.521 312.561V500.894H291.521 291.651Z"/>
<path transform="matrix(1,0,0,-1,-42.7104,726.12)" d="M124.713 405.064H103.795V419.419H124.713ZM103.795 405.064" fill="#8ed8f8"/>
<path transform="matrix(1,0,0,-1,-42.7104,726.12)" stroke-width=".98" stroke-linecap="butt" stroke-miterlimit="4" stroke-linejoin="miter" fill="none" stroke="#231f20" d="M124.713 405.064H103.795V419.419H124.713Z"/>
<path transform="matrix(1,0,0,-1,-42.7104,726.12)" d="M166.24 405.064H145.20001V419.419H166.24ZM145.2 405.064" fill="#ffffff"/>
<path transform="matrix(1,0,0,-1,-42.7104,726.12)" stroke-width=".98" stroke-linecap="butt" stroke-miterlimit="4" stroke-linejoin="miter" fill="none" stroke="#231f20" d="M166.241 405.064H145.20099V419.419H166.241Z"/>
<path transform="matrix(1,0,0,-1,-42.7104,726.12)" d="M187.15 405.064H166.10999V419.419H187.15ZM166.11 405.064" fill="#ffffff"/>
<path transform="matrix(1,0,0,-1,-42.7104,726.12)" stroke-width=".98" stroke-linecap="butt" stroke-miterlimit="4" stroke-linejoin="miter" fill="none" stroke="#231f20" d="M187.151 405.064H166.111V419.419H187.151Z"/>
<path transform="matrix(1,0,0,-1,-42.7104,726.12)" d="M208.061 405.064H187.021V419.419H208.061ZM187.021 405.064" fill="#8ed8f8"/>
<path transform="matrix(1,0,0,-1,-42.7104,726.12)" stroke-width=".98" stroke-linecap="butt" stroke-miterlimit="4" stroke-linejoin="miter" fill="none" stroke="#231f20" d="M208.06 405.064H187.01999V419.419H208.06Z"/>
<path transform="matrix(1,0,0,-1,-42.7104,726.12)" d="M281.509 322.439H270.795V336.794H281.509ZM270.795 322.439" fill="#8ed8f8"/>
<path transform="matrix(1,0,0,-1,-42.7104,726.12)" stroke-width=".98" stroke-linecap="butt" stroke-miterlimit="4" stroke-linejoin="miter" fill="none" stroke="#231f20" d="M281.509 322.439H270.795V336.794H281.509Z"/>
<path transform="matrix(1,0,0,-1,-42.7104,726.12)" d="M354.296 405.064H333.37699V419.419H354.296ZM333.377 405.064" fill="#ffffff"/>
<path transform="matrix(1,0,0,-1,-42.7104,726.12)" stroke-width=".98" stroke-linecap="butt" stroke-miterlimit="4" stroke-linejoin="miter" fill="none" stroke="#231f20" d="M354.296 405.064H333.37699V419.419H354.296Z"/>
<path transform="matrix(1,0,0,-1,-42.7104,726.12)" d="M375.244 405.064H354.202V419.419H375.244ZM354.202 405.064" fill="#ffffff"/>
<path transform="matrix(1,0,0,-1,-42.7104,726.12)" stroke-width=".98" stroke-linecap="butt" stroke-miterlimit="4" stroke-linejoin="miter" fill="none" stroke="#231f20" d="M375.244 405.064H354.202V419.419H375.244Z"/>
<path transform="matrix(1,0,0,-1,-42.7104,726.12)" d="M396.154 405.064H375.112V419.419H396.154ZM375.112 405.064" fill="#ffffff"/>
<path transform="matrix(1,0,0,-1,-42.7104,726.12)" stroke-width=".98" stroke-linecap="butt" stroke-miterlimit="4" stroke-linejoin="miter" fill="none" stroke="#231f20" d="M396.154 405.064H375.112V419.419H396.154Z"/>
<path transform="matrix(1,0,0,-1,-42.7104,726.12)" d="M417.064 405.064H396.023V419.419H417.064ZM396.023 405.064" fill="#ffffff"/>
<path transform="matrix(1,0,0,-1,-42.7104,726.12)" stroke-width=".98" stroke-linecap="butt" stroke-miterlimit="4" stroke-linejoin="miter" fill="none" stroke="#231f20" d="M417.063 405.064H396.02198V419.419H417.063Z"/>
<path transform="matrix(1,0,0,-1,-42.7104,726.12)" d="M228.922 405.064H207.881V419.419H228.922 228.792 249.832V405.064H228.792 228.922" fill="#ffffff"/>
<path transform="matrix(1,0,0,-1,-42.7104,726.12)" stroke-width=".98" stroke-linecap="butt" stroke-miterlimit="4" stroke-linejoin="miter" fill="none" stroke="#231f20" d="M228.922 405.064H207.881V419.419H228.922 228.792 249.832V405.064H228.792 228.922Z"/>
<path transform="matrix(1,0,0,-1,-42.7104,726.12)" d="M270.741 405.064H249.7V419.419H270.741 270.611 291.651V405.064H270.611 270.741" fill="#ffffff"/>
<path transform="matrix(1,0,0,-1,-42.7104,726.12)" stroke-width=".98" stroke-linecap="butt" stroke-miterlimit="4" stroke-linejoin="miter" fill="none" stroke="#231f20" d="M270.741 405.064H249.7V419.419H270.741 270.611 291.651V405.064H270.611 270.741Z"/>
<path transform="matrix(1,0,0,-1,-42.7104,726.12)" d="M312.561 405.064H291.52V419.419H312.561 312.431 333.471V405.064H312.431 312.561" fill="#ffffff"/>
<path transform="matrix(1,0,0,-1,-42.7104,726.12)" stroke-width=".98" stroke-linecap="butt" stroke-miterlimit="4" stroke-linejoin="miter" fill="none" stroke="#231f20" d="M312.561 405.064H291.52V419.419H312.561 312.431 333.471V405.064H312.431 312.561Z"/>
<path transform="matrix(1,0,0,-1,-42.7104,726.12)" d="M124.713 322.453H103.795V336.809H124.713ZM103.795 322.453" fill="#8ed8f8"/>
<path transform="matrix(1,0,0,-1,-42.7104,726.12)" stroke-width=".98" stroke-linecap="butt" stroke-miterlimit="4" stroke-linejoin="miter" fill="none" stroke="#231f20" d="M124.713 322.453H103.795V336.809H124.713Z"/>
<path transform="matrix(1,0,0,-1,-42.7104,726.12)" d="M166.24 322.453H145.20001V336.809H166.24ZM145.2 322.453" fill="#ffffff"/>
<path transform="matrix(1,0,0,-1,-42.7104,726.12)" stroke-width=".98" stroke-linecap="butt" stroke-miterlimit="4" stroke-linejoin="miter" fill="none" stroke="#231f20" d="M166.241 322.453H145.20099V336.809H166.241Z"/>
<path transform="matrix(1,0,0,-1,-42.7104,726.12)" d="M145.2 322.453H124.619998V336.809H145.2ZM124.62 322.453" fill="#ffffff"/>
<path transform="matrix(1,0,0,-1,-42.7104,726.12)" stroke-width=".98" stroke-linecap="butt" stroke-miterlimit="4" stroke-linejoin="miter" fill="none" stroke="#231f20" d="M145.2 322.453H124.619998V336.809H145.2Z"/>
<path transform="matrix(1,0,0,-1,-42.7104,726.12)" d="M145.2 405.178H124.619998V419.534H145.2ZM124.62 405.178" fill="#ffffff"/>
<path transform="matrix(1,0,0,-1,-42.7104,726.12)" stroke-width=".98" stroke-linecap="butt" stroke-miterlimit="4" stroke-linejoin="miter" fill="none" stroke="#231f20" d="M145.2 405.178H124.619998V419.534H145.2Z"/>
<path transform="matrix(1,0,0,-1,-42.7104,726.12)" d="M145.2 500.894H124.619998V515.25H145.2ZM124.62 500.894" fill="#ffffff"/>
<path transform="matrix(1,0,0,-1,-42.7104,726.12)" stroke-width=".98" stroke-linecap="butt" stroke-miterlimit="4" stroke-linejoin="miter" fill="none" stroke="#231f20" d="M145.2 500.894H124.619998V515.25H145.2Z"/>
<path transform="matrix(1,0,0,-1,-42.7104,726.12)" d="M187.15 322.453H166.10999V336.809H187.15ZM166.11 322.453" fill="#ffffff"/>
<path transform="matrix(1,0,0,-1,-42.7104,726.12)" stroke-width=".98" stroke-linecap="butt" stroke-miterlimit="4" stroke-linejoin="miter" fill="none" stroke="#231f20" d="M187.151 322.453H166.111V336.809H187.151Z"/>
<path transform="matrix(1,0,0,-1,-42.7104,726.12)" d="M417.369 322.453H323.366V336.809H417.369ZM323.366 322.453" fill="#8ed8f8"/>
<path transform="matrix(1,0,0,-1,-42.7104,726.12)" stroke-width=".98" stroke-linecap="butt" stroke-miterlimit="4" stroke-linejoin="miter" fill="none" stroke="#231f20" d="M417.369 322.453H323.366V336.809H417.369Z"/>
<path transform="matrix(1,0,0,-1,-42.7104,726.12)" d="M208.012 322.453H187.09299V336.809H208.012ZM187.093 322.453" fill="#ffffff"/>
<path transform="matrix(1,0,0,-1,-42.7104,726.12)" stroke-width=".98" stroke-linecap="butt" stroke-miterlimit="4" stroke-linejoin="miter" fill="none" stroke="#231f20" d="M208.011 322.453H187.092V336.809H208.011Z"/>
<path transform="matrix(1,0,0,-1,-42.7104,726.12)" d="M228.959 322.453H207.91699V336.809H228.959ZM207.917 322.453" fill="#ffffff"/>
<path transform="matrix(1,0,0,-1,-42.7104,726.12)" stroke-width=".98" stroke-linecap="butt" stroke-miterlimit="4" stroke-linejoin="miter" fill="none" stroke="#231f20" d="M228.959 322.453H207.91699V336.809H228.959Z"/>
<path transform="matrix(1,0,0,-1,-42.7104,726.12)" d="M249.916 322.453H228.875V336.808H249.916 249.786 270.826V322.453H249.786 249.916" fill="#ffffff"/>
<path transform="matrix(1,0,0,-1,-42.7104,726.12)" stroke-width=".98" stroke-linecap="butt" stroke-miterlimit="4" stroke-linejoin="miter" fill="none" stroke="#231f20" d="M249.916 322.453H228.875V336.808H249.916 249.786 270.826V322.453H249.786 249.916Z"/>
<path transform="matrix(1,0,0,-1,-42.7104,726.12)" d="M302.55 322.453H281.509V336.808H302.55 302.42 323.46V322.453H302.42 302.55" fill="#ffffff"/>
<path transform="matrix(1,0,0,-1,-42.7104,726.12)" stroke-width=".98" stroke-linecap="butt" stroke-miterlimit="4" stroke-linejoin="miter" fill="none" stroke="#231f20" d="M302.55 322.453H281.509V336.808H302.55 302.42 323.46V322.453H302.42 302.55Z"/>
<path transform="matrix(1,0,0,-1,-42.7104,726.12)" d="M145.293 224.215H103.795V238.57H208.06V224.215H145.293" fill="#8ed8f8"/>
<path transform="matrix(1,0,0,-1,-42.7104,726.12)" stroke-width=".98" stroke-linecap="butt" stroke-miterlimit="4" stroke-linejoin="miter" fill="none" stroke="#231f20" d="M145.293 224.215H103.795V238.57H208.06V224.215H145.293Z"/>
<path transform="matrix(1,0,0,-1,-42.7104,726.12)" d="M417.369 224.215H219.84799V238.56999H417.369ZM219.848 224.215" fill="#8ed8f8"/>
<path transform="matrix(1,0,0,-1,-42.7104,726.12)" stroke-width=".98" stroke-linecap="butt" stroke-miterlimit="4" stroke-linejoin="miter" fill="none" stroke="#231f20" d="M417.369 224.215H219.84799V238.56999H417.369Z"/>
<path transform="matrix(1,0,0,-1,-42.7104,726.12)" d="M198.946 224.215H178.027V238.57H198.946 198.852 219.894V224.215H198.852 198.946" fill="#ffffff"/>
<path transform="matrix(1,0,0,-1,-42.7104,726.12)" stroke-width=".98" stroke-linecap="butt" stroke-miterlimit="4" stroke-linejoin="miter" fill="none" stroke="#231f20" d="M198.946 224.215H178.027V238.57H198.946 198.852 219.894V224.215H198.852 198.946Z"/>
<path transform="matrix(1,0,0,-1,-42.7104,726.12)" d="M232.765 558.242C232.765 556.618 231.449 555.302 229.825 555.302H208.593C206.969 555.302 205.653 556.618 205.653 558.242V571.24C205.653 572.864 206.969 574.18 208.593 574.18H229.825C231.449 574.18 232.765 572.864 232.765 571.24V558.242" fill="#b1b4b6"/>
<path transform="matrix(1,0,0,-1,-42.7104,726.12)" d="M230.56 559.614C230.56 557.99 229.244 556.674 227.62 556.674H206.388C204.764 556.674 203.448 557.99 203.448 559.614V572.613C203.448 574.237 204.764 575.553 206.388 575.553H227.62C229.244 575.553 230.56 574.237 230.56 572.613V559.614" fill="#c6c8ca"/>
<path transform="matrix(1,0,0,-1,-42.7104,726.12)" stroke-width=".735" stroke-linecap="butt" stroke-miterlimit="4" stroke-linejoin="miter" fill="none" stroke="#231f20" d="M230.56 559.614C230.56 557.99 229.244 556.674 227.62 556.674H206.388C204.764 556.674 203.448 557.99 203.448 559.614V572.613C203.448 574.237 204.764 575.553 206.388 575.553H227.62C229.244 575.553 230.56 574.237 230.56 572.613V559.614Z"/>
<path transform="matrix(1,0,0,-1,-42.7104,726.12)" d="M281.759 533.902C281.759 532.604 280.706 531.55 279.407 531.55H262.422C261.123 531.55 260.07 532.604 260.07 533.902V544.301C260.07 545.6 261.123 546.653 262.422 546.653H279.407C280.706 546.653 281.759 545.6 281.759 544.301V533.902" fill="#b1b4b6"/>
<path transform="matrix(1,0,0,-1,-42.7104,726.12)" d="M279.996 535C279.996 533.702 278.941 532.649 277.644 532.649H260.659C259.359 532.649 258.306 533.702 258.306 535V545.4C258.306 546.698 259.359 547.752 260.659 547.752H277.644C278.941 547.752 279.996 546.698 279.996 545.4V535" fill="#c6c8ca"/>
<path transform="matrix(1,0,0,-1,-42.7104,726.12)" stroke-width=".735" stroke-linecap="butt" stroke-miterlimit="4" stroke-linejoin="miter" fill="none" stroke="#231f20" d="M279.996 535C279.996 533.702 278.941 532.649 277.644 532.649H260.659C259.359 532.649 258.306 533.702 258.306 535V545.4C258.306 546.698 259.359 547.752 260.659 547.752H277.644C278.941 547.752 279.996 546.698 279.996 545.4V535Z"/>
<path transform="matrix(1,0,0,-1,-42.7104,726.12)" d="M330.124 470.042C330.124 468.744 329.071 467.69 327.771 467.69H307.846C306.548 467.69 305.495 468.744 305.495 470.042V484.361C305.495 485.66 306.548 486.713 307.846 486.713H327.771C329.071 486.713 330.124 485.66 330.124 484.361V470.042" fill="#b1b4b6"/>
<path transform="matrix(1,0,0,-1,-42.7104,726.12)" d="M328.361 471.139C328.361 469.841 327.307 468.787 326.008 468.787H306.083C304.783 468.787 303.731 469.841 303.731 471.139V485.459C303.731 486.757 304.783 487.811 306.083 487.811H326.008C327.307 487.811 328.361 486.757 328.361 485.459V471.139" fill="#c6c8ca"/>
<path transform="matrix(1,0,0,-1,-42.7104,726.12)" stroke-width=".735" stroke-linecap="butt" stroke-miterlimit="4" stroke-linejoin="miter" fill="none" stroke="#231f20" d="M328.361 471.139C328.361 469.841 327.307 468.787 326.008 468.787H306.083C304.783 468.787 303.731 469.841 303.731 471.139V485.459C303.731 486.757 304.783 487.811 306.083 487.811H326.008C327.307 487.811 328.361 486.757 328.361 485.459V471.139Z"/>
<path transform="matrix(1,0,0,-1,-42.7104,726.12)" d="M283.074 444.637C283.074 443.338 282.021 442.285 280.721 442.285H260.796C259.498 442.285 258.445 443.338 258.445 444.637V458.956C258.445 460.254 259.498 461.308 260.796 461.308H280.721C282.021 461.308 283.074 460.254 283.074 458.956V444.637" fill="#b1b4b6"/>
<path transform="matrix(1,0,0,-1,-42.7104,726.12)" d="M281.311 445.735C281.311 444.436 280.256 443.383 278.959 443.383H259.034C257.733 443.383 256.681 444.436 256.681 445.735V460.054C256.681 461.353 257.733 462.406 259.034 462.406H278.959C280.256 462.406 281.311 461.353 281.311 460.054V445.735" fill="#c6c8ca"/>
<path transform="matrix(1,0,0,-1,-42.7104,726.12)" stroke-width=".735" stroke-linecap="butt" stroke-miterlimit="4" stroke-linejoin="miter" fill="none" stroke="#231f20" d="M281.311 445.735C281.311 444.436 280.256 443.383 278.959 443.383H259.034C257.733 443.383 256.681 444.436 256.681 445.735V460.054C256.681 461.353 257.733 462.406 259.034 462.406H278.959C280.256 462.406 281.311 461.353 281.311 460.054V445.735Z"/>
<path transform="matrix(1,0,0,-1,-42.7104,726.12)" d="M246.638 444.637C246.638 443.338 245.585 442.285 244.286 442.285H224.361C223.063 442.285 222.009 443.338 222.009 444.637V458.956C222.009 460.254 223.063 461.308 224.361 461.308H244.286C245.585 461.308 246.638 460.254 246.638 458.956V444.637" fill="#b1b4b6"/>
<path transform="matrix(1,0,0,-1,-42.7104,726.12)" d="M244.875 445.735C244.875 444.436 243.821 443.383 242.523 443.383H222.598C221.298 443.383 220.246 444.436 220.246 445.735V460.054C220.246 461.353 221.298 462.406 222.598 462.406H242.523C243.821 462.406 244.875 461.353 244.875 460.054V445.735" fill="#c6c8ca"/>
<path transform="matrix(1,0,0,-1,-42.7104,726.12)" stroke-width=".735" stroke-linecap="butt" stroke-miterlimit="4" stroke-linejoin="miter" fill="none" stroke="#231f20" d="M244.875 445.735C244.875 444.436 243.821 443.383 242.523 443.383H222.598C221.298 443.383 220.246 444.436 220.246 445.735V460.054C220.246 461.353 221.298 462.406 222.598 462.406H242.523C243.821 462.406 244.875 461.353 244.875 460.054V445.735Z"/>
<path transform="matrix(1,0,0,-1,-42.7104,726.12)" d="M284.641 380.206C284.641 378.907 283.588 377.854 282.289 377.854H259.424C258.126 377.854 257.072 378.907 257.072 380.206V394.525C257.072 395.824 258.126 396.878 259.424 396.878H282.289C283.588 396.878 284.641 395.824 284.641 394.525V380.206" fill="#b1b4b6"/>
<path transform="matrix(1,0,0,-1,-42.7104,726.12)" d="M282.879 381.305C282.879 380.006 281.824 378.953 280.526 378.953H257.661C256.361 378.953 255.308 380.006 255.308 381.305V395.624C255.308 396.922 256.361 397.976 257.661 397.976H280.526C281.824 397.976 282.879 396.922 282.879 395.624V381.305" fill="#c6c8ca"/>
<path transform="matrix(1,0,0,-1,-42.7104,726.12)" stroke-width=".735" stroke-linecap="butt" stroke-miterlimit="4" stroke-linejoin="miter" fill="none" stroke="#231f20" d="M282.879 381.305C282.879 380.006 281.824 378.953 280.526 378.953H257.661C256.361 378.953 255.308 380.006 255.308 381.305V395.624C255.308 396.922 256.361 397.976 257.661 397.976H280.526C281.824 397.976 282.879 396.922 282.879 395.624V381.305Z"/>
<path transform="matrix(1,0,0,-1,-42.7104,726.12)" d="M372.508 298.582C372.508 297.153 371.35 295.995 369.92 295.995H336.235C334.807 295.995 333.647 297.153 333.647 298.582V314.333C333.647 315.762 334.807 316.921 336.235 316.921H369.92C371.35 316.921 372.508 315.762 372.508 314.333V298.582" fill="#b1b4b6"/>
<path transform="matrix(1,0,0,-1,-42.7104,726.12)" d="M370.568 299.789C370.568 298.36 369.409 297.203 367.982 297.203H334.296C332.866 297.203 331.709 298.36 331.709 299.789V315.541C331.709 316.968 332.866 318.127 334.296 318.127H367.982C369.409 318.127 370.568 316.968 370.568 315.541V299.789" fill="#c6c8ca"/>
<path transform="matrix(1,0,0,-1,-42.7104,726.12)" stroke-width=".735" stroke-linecap="butt" stroke-miterlimit="4" stroke-linejoin="miter" fill="none" stroke="#231f20" d="M370.568 299.789C370.568 298.36 369.409 297.203 367.982 297.203H334.296C332.866 297.203 331.709 298.36 331.709 299.789V315.541C331.709 316.968 332.866 318.127 334.296 318.127H367.982C369.409 318.127 370.568 316.968 370.568 315.541V299.789Z"/>
<path transform="matrix(1,0,0,-1,-42.7104,726.12)" d="M218.618 246.415C218.618 245.116 217.565 244.064 216.265 244.064H185.643C184.346 244.064 183.291 245.116 183.291 246.415V260.735C183.291 262.034 184.346 263.087 185.643 263.087H216.265C217.565 263.087 218.618 262.034 218.618 260.735V246.415" fill="#b1b4b6"/>
<path transform="matrix(1,0,0,-1,-42.7104,726.12)" d="M216.855 248.493C216.855 247.194 215.801 246.141 214.503 246.141H183.881C182.581 246.141 181.528 247.194 181.528 248.493V262.813C181.528 264.111 182.581 265.164 183.881 265.164H214.503C215.801 265.164 216.855 264.111 216.855 262.813V248.493" fill="#c6c8ca"/>
<path transform="matrix(1,0,0,-1,-42.7104,726.12)" stroke-width=".735" stroke-linecap="butt" stroke-miterlimit="4" stroke-linejoin="miter" fill="none" stroke="#231f20" d="M216.855 248.493C216.855 247.194 215.801 246.141 214.503 246.141H183.881C182.581 246.141 181.528 247.194 181.528 248.493V262.813C181.528 264.111 182.581 265.164 183.881 265.164H214.503C215.801 265.164 216.855 264.111 216.855 262.813V248.493Z"/>
<path transform="matrix(1,0,0,-1,-42.7104,726.12)" d="M211.436 465.939H187.572V484.754H211.436ZM187.572 465.939" fill="#231f20"/>
<path transform="matrix(1,0,0,-1,-42.7104,726.12)" d="M210.613 466.763H186.74901V485.579H210.613ZM186.749 466.763" fill="#d4effc"/>
<path transform="matrix(1,0,0,-1,-42.7104,726.12)" stroke-width=".49" stroke-linecap="butt" stroke-miterlimit="4" stroke-linejoin="miter" fill="none" stroke="#00adef" d="M210.612 466.763H186.748V485.579H210.612Z"/>
<path transform="matrix(1,0,0,-1,-42.7104,726.12)" d="M228.324 466.304H278.07L267.237 484.433H240.042L227.662 466.304H228.324" fill="#231f20"/>
<path transform="matrix(1,0,0,-1,-42.7104,726.12)" stroke-width=".49" stroke-linecap="butt" stroke-miterlimit="4" stroke-linejoin="miter" fill="none" stroke="#231f20" d="M228.324 466.304H278.07L267.237 484.433H240.042L227.662 466.304H228.324Z"/>
<path transform="matrix(1,0,0,-1,-42.7104,726.12)" d="M226.364 467.284H276.11L265.277 485.413H238.082L225.702 467.284H226.364" fill="#d4effc"/>
<path transform="matrix(1,0,0,-1,-42.7104,726.12)" stroke-width=".49" stroke-linecap="butt" stroke-miterlimit="4" stroke-linejoin="miter" fill="none" stroke="#00adef" d="M226.364 467.284H276.11L265.277 485.413H238.082L225.702 467.284H226.364Z"/>
<path transform="matrix(1,0,0,-1,-42.7104,726.12)" stroke-width=".49" stroke-linecap="butt" stroke-miterlimit="4" stroke-linejoin="miter" fill="none" stroke="#231f20" d="M343.645 395.606V403.045"/>
<path transform="matrix(1,0,0,-1,-42.7104,726.12)" d="M343.725 404.976 344.94 402.003 343.725 402.708 342.51 402.003 343.725 404.976" fill="#231f20"/>
<path transform="matrix(1,0,0,-1,-42.7104,726.12)" d="M355.339 385.501C355.339 384.33 354.392 383.382 353.223 383.382H335.983C334.815 383.382 333.867 384.33 333.867 385.501V392.74C333.867 393.907 334.815 394.855 335.983 394.855H353.223C354.392 394.855 355.339 393.907 355.339 392.74V385.501" fill="#b1b4b6"/>
<path transform="matrix(1,0,0,-1,-42.7104,726.12)" d="M353.752 386.485C353.752 385.318 352.805 384.372 351.636 384.372H334.396C333.229 384.372 332.281 385.318 332.281 386.485V393.726C332.281 394.895 333.229 395.843 334.396 395.843H351.636C352.805 395.843 353.752 394.895 353.752 393.726V386.485" fill="#c6c8ca"/>
<path transform="matrix(1,0,0,-1,-42.7104,726.12)" stroke-width=".735" stroke-linecap="butt" stroke-miterlimit="4" stroke-linejoin="miter" fill="none" stroke="#231f20" d="M353.752 386.485C353.752 385.318 352.805 384.372 351.636 384.372H334.396C333.229 384.372 332.281 385.318 332.281 386.485V393.726C332.281 394.895 333.229 395.843 334.396 395.843H351.636C352.805 395.843 353.752 394.895 353.752 393.726V386.485Z"/>
<path transform="matrix(1,0,0,-1,-42.7104,726.12)" stroke-width=".49" stroke-linecap="butt" stroke-miterlimit="4" stroke-linejoin="miter" fill="none" stroke="#231f20" d="M365.196 395.606V403.045"/>
<path transform="matrix(1,0,0,-1,-42.7104,726.12)" d="M365.274 404.976 366.489 402.003 365.274 402.708 364.06 402.003 365.274 404.976" fill="#231f20"/>
<path transform="matrix(1,0,0,-1,-42.7104,726.12)" d="M376.888 385.501C376.888 384.33 375.942 383.382 374.772 383.382H357.532C356.364 383.382 355.416 384.33 355.416 385.501V392.74C355.416 393.907 356.364 394.855 357.532 394.855H374.772C375.942 394.855 376.888 393.907 376.888 392.74V385.501" fill="#b1b4b6"/>
<path transform="matrix(1,0,0,-1,-42.7104,726.12)" d="M375.301 386.485C375.301 385.318 374.354 384.372 373.185 384.372H355.945C354.778 384.372 353.83 385.318 353.83 386.485V393.726C353.83 394.895 354.778 395.843 355.945 395.843H373.185C374.354 395.843 375.301 394.895 375.301 393.726V386.485" fill="#c6c8ca"/>
<path transform="matrix(1,0,0,-1,-42.7104,726.12)" stroke-width=".735" stroke-linecap="butt" stroke-miterlimit="4" stroke-linejoin="miter" fill="none" stroke="#231f20" d="M375.301 386.485C375.301 385.318 374.354 384.372 373.185 384.372H355.945C354.778 384.372 353.83 385.318 353.83 386.485V393.726C353.83 394.895 354.778 395.843 355.945 395.843H373.185C374.354 395.843 375.301 394.895 375.301 393.726V386.485Z"/>
<path transform="matrix(1,0,0,-1,-42.7104,726.12)" stroke-width=".49" stroke-linecap="butt" stroke-miterlimit="4" stroke-linejoin="miter" fill="none" stroke="#231f20" d="M386.666 395.606V403.045"/>
<path transform="matrix(1,0,0,-1,-42.7104,726.12)" d="M386.745 404.976 387.96 402.003 386.745 402.708 385.531 402.003 386.745 404.976" fill="#231f20"/>
<path transform="matrix(1,0,0,-1,-42.7104,726.12)" d="M398.36 385.501C398.36 384.33 397.413 383.382 396.243 383.382H379.004C377.835 383.382 376.887 384.33 376.887 385.501V392.74C376.887 393.907 377.835 394.855 379.004 394.855H396.243C397.413 394.855 398.36 393.907 398.36 392.74V385.501" fill="#b1b4b6"/>
<path transform="matrix(1,0,0,-1,-42.7104,726.12)" d="M396.772 386.485C396.772 385.318 395.826 384.372 394.656 384.372H377.416C376.249 384.372 375.301 385.318 375.301 386.485V393.726C375.301 394.895 376.249 395.843 377.416 395.843H394.656C395.826 395.843 396.772 394.895 396.772 393.726V386.485" fill="#c6c8ca"/>
<path transform="matrix(1,0,0,-1,-42.7104,726.12)" stroke-width=".735" stroke-linecap="butt" stroke-miterlimit="4" stroke-linejoin="miter" fill="none" stroke="#231f20" d="M396.772 386.485C396.772 385.318 395.826 384.372 394.656 384.372H377.416C376.249 384.372 375.301 385.318 375.301 386.485V393.726C375.301 394.895 376.249 395.843 377.416 395.843H394.656C395.826 395.843 396.772 394.895 396.772 393.726V386.485Z"/>
<path transform="matrix(1,0,0,-1,-42.7104,726.12)" stroke-width=".49" stroke-linecap="butt" stroke-miterlimit="4" stroke-linejoin="miter" fill="none" stroke="#231f20" d="M408.137 395.606V403.045"/>
<path transform="matrix(1,0,0,-1,-42.7104,726.12)" d="M408.216 404.976 409.431 402.003 408.216 402.708 407.002 402.003 408.216 404.976" fill="#231f20"/>
<path transform="matrix(1,0,0,-1,-42.7104,726.12)" d="M419.831 385.501C419.831 384.33 418.884 383.382 417.715 383.382H400.475C399.306 383.382 398.359 384.33 398.359 385.501V392.74C398.359 393.907 399.306 394.855 400.475 394.855H417.715C418.884 394.855 419.831 393.907 419.831 392.74V385.501" fill="#b1b4b6"/>
<path transform="matrix(1,0,0,-1,-42.7104,726.12)" d="M418.244 386.485C418.244 385.318 417.297 384.372 416.127 384.372H398.888C397.72 384.372 396.772 385.318 396.772 386.485V393.726C396.772 394.895 397.72 395.843 398.888 395.843H416.127C417.297 395.843 418.244 394.895 418.244 393.726V386.485" fill="#c6c8ca"/>
<path transform="matrix(1,0,0,-1,-42.7104,726.12)" stroke-width=".735" stroke-linecap="butt" stroke-miterlimit="4" stroke-linejoin="miter" fill="none" stroke="#231f20" d="M418.244 386.485C418.244 385.318 417.297 384.372 416.127 384.372H398.888C397.72 384.372 396.772 385.318 396.772 386.485V393.726C396.772 394.895 397.72 395.843 398.888 395.843H416.127C417.297 395.843 418.244 394.895 418.244 393.726V386.485Z"/>
<path transform="matrix(1,0,0,-1,-42.7104,726.12)" d="M321.279 347.466H279.384V373.926H321.279ZM279.384 347.466" fill="#231f20"/>
<path transform="matrix(1,0,0,-1,-42.7104,726.12)" d="M320.006 348.74H278.11103V375.19999H320.006ZM278.111 348.74" fill="#d4effc"/>
<path transform="matrix(1,0,0,-1,-42.7104,726.12)" stroke-width=".49" stroke-linecap="butt" stroke-miterlimit="4" stroke-linejoin="miter" fill="none" stroke="#00adef" d="M320.006 348.74H278.11103V375.19999H320.006Z"/>
<path transform="matrix(1,0,0,-1,-42.7104,726.12)" d="M304.366 307.675C304.366 306.729 303.598 305.959 302.651 305.959 301.705 305.959 300.936 306.729 300.936 307.675 300.936 308.621 301.705 309.389 302.651 309.389 303.598 309.389 304.366 308.621 304.366 307.675" fill="#231f20"/>
<path transform="matrix(1,0,0,-1,-42.7104,726.12)" d="M240.409 314.311C240.409 313.365 239.641 312.595 238.694 312.595 237.747 312.595 236.979 313.365 236.979 314.311 236.979 315.256 237.747 316.025 238.694 316.025 239.641 316.025 240.409 315.256 240.409 314.311" fill="#231f20"/>
<path transform="matrix(1,0,0,-1,-42.7104,726.12)" d="M157.961 310.932C157.961 309.986 157.192 309.216 156.246 309.216 155.299 309.216 154.531 309.986 154.531 310.932 154.531 311.878 155.299 312.646 156.246 312.646 157.192 312.646 157.961 311.878 157.961 310.932" fill="#231f20"/>
<path transform="matrix(1,0,0,-1,-42.7104,726.12)" d="M201.223 270.192C201.223 269.246 200.455 268.476 199.508 268.476 198.561 268.476 197.793 269.246 197.793 270.192 197.793 271.138 198.561 271.906 199.508 271.906 200.455 271.906 201.223 271.138 201.223 270.192" fill="#231f20"/>
<path transform="matrix(1,0,0,-1,-42.7104,726.12)" d="M272.492 427.151C272.492 426.205 271.724 425.435 270.777 425.435 269.83 425.435 269.062 426.205 269.062 427.151 269.062 428.097 269.83 428.865 270.777 428.865 271.724 428.865 272.492 428.097 272.492 427.151" fill="#231f20"/>
<path transform="matrix(1,0,0,-1,-42.7104,726.12)" d="M436.204 367.684C436.204 366.738 435.436 365.968 434.489 365.968 433.542 365.968 432.774 366.738 432.774 367.684 432.774 368.629 433.542 369.398 434.489 369.398 435.436 369.398 436.204 368.629 436.204 367.684" fill="#231f20"/>
<path transform="matrix(1,0,0,-1,-42.7104,726.12)" d="M253.924 521.216C253.924 520.27 253.156 519.5 252.209 519.5 251.262 519.5 250.494 520.27 250.494 521.216 250.494 522.162 251.262 522.93 252.209 522.93 253.156 522.93 253.924 522.162 253.924 521.216" fill="#231f20"/>
<path transform="matrix(1,0,0,-1,-42.7104,726.12)" d="M201.2 491.646C201.2 490.7 200.432 489.93 199.485 489.93 198.538 489.93 197.77 490.7 197.77 491.646 197.77 492.592 198.538 493.36 199.485 493.36 200.432 493.36 201.2 492.592 201.2 491.646" fill="#231f20"/>
<path transform="matrix(1,0,0,-1,-42.7104,726.12)" d="M293.415 521.216C293.415 520.27 292.646 519.5 291.7 519.5 290.753 519.5 289.985 520.27 289.985 521.216 289.985 522.162 290.753 522.93 291.7 522.93 292.646 522.93 293.415 522.162 293.415 521.216" fill="#231f20"/>
<text fill="#231f20" xml:space="preserve" transform="matrix(1 0 -0 1 -42.7104 726.12)" font-size="7.84" font-family="Helvetica"><tspan y="-504.996" x="284.832 288.752 293.11106 294.85154">valA</tspan></text>
<path transform="matrix(1,0,0,-1,-42.7104,726.12)" stroke-width=".735" stroke-linecap="butt" stroke-dasharray=".735,.735" stroke-miterlimit="4" stroke-linejoin="miter" fill="none" stroke="#231f20" d="M230.479 570.158H257.767"/>
<path transform="matrix(1,0,0,-1,-42.7104,726.12)" d="M260.064 570.158 257.091 568.943 257.796 570.158 257.091 571.373 260.064 570.158" fill="#231f20"/>
<path transform="matrix(1,0,0,-1,-42.7104,726.12)" stroke-width=".735" stroke-linecap="butt" stroke-dasharray=".735,.735" stroke-miterlimit="4" stroke-linejoin="miter" fill="none" stroke="#231f20" d="M230.479 560.919H257.767"/>
<path transform="matrix(1,0,0,-1,-42.7104,726.12)" d="M260.064 560.919 257.091 559.704 257.796 560.919 257.091 562.134 260.064 560.919" fill="#231f20"/>
<path transform="matrix(1,0,0,-1,-42.7104,726.12)" stroke-width=".49" stroke-linecap="butt" stroke-miterlimit="4" stroke-linejoin="miter" fill="none" stroke="#231f20" d="M156.195 515.409V592.006"/>
<path transform="matrix(1,0,0,-1,-42.7104,726.12)" d="M156.195 594.116 157.41 591.142 156.195 591.848 154.98 591.142 156.195 594.116" fill="#231f20"/>
<path transform="matrix(1,0,0,-1,-42.7104,726.12)" stroke-width=".49" stroke-linecap="butt" stroke-miterlimit="4" stroke-linejoin="miter" fill="none" stroke="#231f20" d="M156.195 420.029V498.454"/>
<path transform="matrix(1,0,0,-1,-42.7104,726.12)" d="M156.195 500.566 157.41 497.592 156.195 498.297 154.98 497.592 156.195 500.566" fill="#231f20"/>
<path transform="matrix(1,0,0,-1,-42.7104,726.12)" stroke-width=".49" stroke-linecap="butt" stroke-miterlimit="4" stroke-linejoin="miter" fill="none" stroke="#231f20" d="M156.195 336.832V402.31"/>
<path transform="matrix(1,0,0,-1,-42.7104,726.12)" d="M156.195 404.419 157.41 401.446 156.195 402.15 154.98 401.446 156.195 404.419" fill="#231f20"/>
<path transform="matrix(1,0,0,-1,-42.7104,726.12)" stroke-width=".49" stroke-linecap="butt" stroke-miterlimit="4" stroke-linejoin="miter" fill="none" stroke="#231f20" d="M156.195 305.904V319.879"/>
<path transform="matrix(1,0,0,-1,-42.7104,726.12)" d="M156.195 321.989 157.41 319.015 156.195 319.72 154.98 319.015 156.195 321.989" fill="#231f20"/>
<path transform="matrix(1,0,0,-1,-42.7104,726.12)" stroke-width=".49" stroke-linecap="butt" stroke-miterlimit="4" stroke-linejoin="miter" fill="none" stroke="#231f20" d="M135.615 582.786V592.006"/>
<path transform="matrix(1,0,0,-1,-42.7104,726.12)" d="M135.615 594.116 136.83 591.142 135.615 591.848 134.4 591.142 135.615 594.116" fill="#231f20"/>
<path transform="matrix(1,0,0,-1,-42.7104,726.12)" stroke-width=".49" stroke-linecap="butt" stroke-miterlimit="4" stroke-linejoin="miter" fill="none" stroke="#231f20" d="M135.615 420.029V498.454"/>
<path transform="matrix(1,0,0,-1,-42.7104,726.12)" d="M135.615 500.566 136.83 497.592 135.615 498.297 134.4 497.592 135.615 500.566" fill="#231f20"/>
<path transform="matrix(1,0,0,-1,-42.7104,726.12)" stroke-width=".49" stroke-linecap="butt" stroke-miterlimit="4" stroke-linejoin="miter" fill="none" stroke="#231f20" d="M135.615 336.832V402.31"/>
<path transform="matrix(1,0,0,-1,-42.7104,726.12)" d="M135.615 404.419 136.83 401.446 135.615 402.15 134.4 401.446 135.615 404.419" fill="#231f20"/>
<path transform="matrix(1,0,0,-1,-42.7104,726.12)" stroke-width=".49" stroke-linecap="butt" stroke-miterlimit="4" stroke-linejoin="miter" fill="none" stroke="#231f20" d="M135.615 316.202V319.879"/>
<path transform="matrix(1,0,0,-1,-42.7104,726.12)" d="M135.615 321.989 136.83 319.015 135.615 319.72 134.4 319.015 135.615 321.989" fill="#231f20"/>
<path transform="matrix(1,0,0,-1,-42.7104,726.12)" stroke-width=".49" stroke-linecap="butt" stroke-miterlimit="4" stroke-linejoin="miter" fill="none" stroke="#231f20" d="M176.514 336.832V402.31"/>
<path transform="matrix(1,0,0,-1,-42.7104,726.12)" d="M176.514 404.419 177.729 401.446 176.514 402.15 175.299 401.446 176.514 404.419" fill="#231f20"/>
<path transform="matrix(1,0,0,-1,-42.7104,726.12)" d="M181.375 255.486 178.402 254.271 179.107 255.486 178.402 256.7 181.375 255.486" fill="#231f20"/>
<path transform="matrix(1,0,0,-1,-42.7104,726.12)" stroke-width=".49" stroke-linecap="butt" stroke-miterlimit="4" stroke-linejoin="miter" fill="none" stroke="#231f20" d="M344.42 516.006V592.39"/>
<path transform="matrix(1,0,0,-1,-42.7104,726.12)" d="M344.42 594.499 345.635 591.526 344.42 592.231 343.205 591.526 344.42 594.499" fill="#231f20"/>
<path transform="matrix(1,0,0,-1,-42.7104,726.12)" stroke-width=".49" stroke-linecap="butt" stroke-miterlimit="4" stroke-linejoin="miter" fill="none" stroke="#231f20" d="M365.506 516.006V592.39"/>
<path transform="matrix(1,0,0,-1,-42.7104,726.12)" d="M365.506 594.499 366.721 591.526 365.506 592.231 364.292 591.526 365.506 594.499" fill="#231f20"/>
<path transform="matrix(1,0,0,-1,-42.7104,726.12)" stroke-width=".49" stroke-linecap="butt" stroke-miterlimit="4" stroke-linejoin="miter" fill="none" stroke="#231f20" d="M344.42 419.561V498.115"/>
<path transform="matrix(1,0,0,-1,-42.7104,726.12)" d="M344.42 500.225 345.635 497.251 344.42 497.956 343.205 497.251 344.42 500.225" fill="#231f20"/>
<path transform="matrix(1,0,0,-1,-42.7104,726.12)" d="M430.015 461.56 428.192 466.02 430.015 464.963 431.838 466.02 430.015 461.56" fill="#231f20"/>
<path transform="matrix(1,0,0,-1,-42.7104,726.12)" d="M434.695 461.56 432.871 466.02 434.695 464.963 436.517 466.02 434.695 461.56" fill="#231f20"/>
<path transform="matrix(1,0,0,-1,-42.7104,726.12)" d="M439.141 461.56 437.317 466.02 439.141 464.963 440.963 466.02 439.141 461.56" fill="#231f20"/>
<path transform="matrix(1,0,0,-1,-42.7104,726.12)" stroke-width=".49" stroke-linecap="butt" stroke-miterlimit="4" stroke-linejoin="miter" fill="none" stroke="#231f20" d="M365.506 419.561V498.115"/>
<path transform="matrix(1,0,0,-1,-42.7104,726.12)" d="M365.506 500.225 366.721 497.251 365.506 497.956 364.292 497.251 365.506 500.225" fill="#231f20"/>
<path transform="matrix(1,0,0,-1,-42.7104,726.12)" stroke-width="1.47" stroke-linecap="butt" stroke-miterlimit="4" stroke-linejoin="miter" fill="none" stroke="#231f20" d="M238.406 402.485V336.992"/>
<path transform="matrix(1,0,0,-1,-42.7104,726.12)" d="M238.406 404.596 240.228 400.135 238.406 401.193 236.583 400.135 238.406 404.596" fill="#231f20"/>
<path transform="matrix(1,0,0,-1,-42.7104,726.12)" stroke-width="1.47" stroke-linecap="butt" stroke-miterlimit="4" stroke-linejoin="miter" fill="none" stroke="#231f20" d="M229.422 441.265V420.03"/>
<path transform="matrix(1,0,0,-1,-42.7104,726.12)" d="M229.422 443.375 231.245 438.914 229.422 439.972 227.599 438.914 229.422 443.375" fill="#231f20"/>
<path transform="matrix(1,0,0,-1,-42.7104,726.12)" stroke-width="1.47" stroke-linecap="butt" stroke-miterlimit="4" stroke-linejoin="miter" fill="none" stroke="#231f20" d="M269.087 440.975V432.977H312.376V418.88"/>
<path transform="matrix(1,0,0,-1,-42.7104,726.12)" d="M269.087 443.085 270.911 438.624 269.087 439.683 267.265 438.624 269.087 443.085" fill="#231f20"/>
<path transform="matrix(1,0,0,-1,-42.7104,726.12)" stroke-width="1.47" stroke-linecap="butt" stroke-miterlimit="4" stroke-linejoin="miter" fill="none" stroke="#231f20" d="M239.391 441.12V427.27H291.707V498.308"/>
<path transform="matrix(1,0,0,-1,-42.7104,726.12)" d="M291.707 500.418 293.531 495.957 291.707 497.015 289.885 495.957 291.707 500.418" fill="#231f20"/>
<path transform="matrix(1,0,0,-1,-42.7104,726.12)" d="M239.391 443.23 241.214 438.77 239.391 439.828 237.568 438.77 239.391 443.23" fill="#231f20"/>
<path transform="matrix(1,0,0,-1,-42.7104,726.12)" stroke-width="1.47" stroke-linecap="butt" stroke-miterlimit="4" stroke-linejoin="miter" fill="none" stroke="#231f20" d="M312.459 375.435V402.517"/>
<path transform="matrix(1,0,0,-1,-42.7104,726.12)" d="M312.459 404.628 314.283 400.168 312.459 401.225 310.637 400.168 312.459 404.628" fill="#231f20"/>
<path transform="matrix(1,0,0,-1,-42.7104,726.12)" stroke-width="1.47" stroke-linecap="butt" stroke-miterlimit="4" stroke-linejoin="miter" fill="none" stroke="#231f20" d="M270.564 398.133V402.344"/>
<path transform="matrix(1,0,0,-1,-42.7104,726.12)" d="M270.564 404.454 272.388 399.993 270.564 401.051 268.742 399.993 270.564 404.454" fill="#231f20"/>
<path transform="matrix(1,0,0,-1,-42.7104,726.12)" stroke-width="1.47" stroke-linecap="butt" stroke-miterlimit="4" stroke-linejoin="miter" fill="none" stroke="#231f20" d="M285.208 388.556H291.523V375.435"/>
<path transform="matrix(1,0,0,-1,-42.7104,726.12)" d="M283.097 388.556 287.558 390.38 286.5 388.556 287.558 386.734 283.097 388.556" fill="#231f20"/>
<path transform="matrix(1,0,0,-1,-42.7104,726.12)" stroke-width="1.47" stroke-linecap="butt" stroke-miterlimit="4" stroke-linejoin="miter" fill="none" stroke="#231f20" d="M291.66 515.82V553.82"/>
<path transform="matrix(1,0,0,-1,-42.7104,726.12)" d="M291.66 556.175 293.483 551.715 291.66 552.773 289.837 551.715 291.66 556.175" fill="#231f20"/>
<path transform="matrix(1,0,0,-1,-42.7104,726.12)" stroke-width="1.47" stroke-linecap="butt" stroke-miterlimit="4" stroke-linejoin="miter" fill="none" stroke="#231f20" d="M291.66 579.202V592.407"/>
<path transform="matrix(1,0,0,-1,-42.7104,726.12)" d="M291.66 594.516 293.483 590.055 291.66 591.114 289.837 590.055 291.66 594.516" fill="#231f20"/>
<path transform="matrix(1,0,0,-1,-42.7104,726.12)" stroke-width="1.47" stroke-linecap="butt" stroke-miterlimit="4" stroke-linejoin="miter" fill="none" stroke="#231f20" d="M269.774 547.506V553.927"/>
<path transform="matrix(1,0,0,-1,-42.7104,726.12)" d="M269.774 556.038 271.597 551.577 269.774 552.635 267.951 551.577 269.774 556.038" fill="#231f20"/>
<path transform="matrix(1,0,0,-1,-42.7104,726.12)" stroke-width="1.47" stroke-linecap="butt" stroke-miterlimit="4" stroke-linejoin="miter" fill="none" stroke="#231f20" d="M329.344 314.383H238.624"/>
<path transform="matrix(1,0,0,-1,-42.7104,726.12)" d="M331.454 314.383 326.993 312.559 328.051 314.383 326.993 316.205 331.454 314.383" fill="#231f20"/>
<path transform="matrix(1,0,0,-1,-42.7104,726.12)" stroke-width="1.47" stroke-linecap="butt" stroke-miterlimit="4" stroke-linejoin="miter" fill="none" stroke="#231f20" d="M329.344 307.865H302.652"/>
<path transform="matrix(1,0,0,-1,-42.7104,726.12)" d="M331.454 307.865 326.993 306.042 328.051 307.865 326.993 309.688 331.454 307.865" fill="#231f20"/>
<path transform="matrix(1,0,0,-1,-42.7104,726.12)" stroke-width="1.47" stroke-linecap="butt" stroke-miterlimit="4" stroke-linejoin="miter" fill="none" stroke="#231f20" d="M323.552 352.552H439.183V621.822H251.773V609.004"/>
<path transform="matrix(1,0,0,-1,-42.7104,726.12)" d="M321.442 352.552 325.903 354.375 324.845 352.552 325.903 350.73 321.442 352.552" fill="#231f20"/>
<path transform="matrix(1,0,0,-1,-42.7104,726.12)" stroke-width="1.47" stroke-linecap="butt" stroke-miterlimit="4" stroke-linejoin="miter" fill="none" stroke="#231f20" d="M219.326 250.699H434.614V614.947H291.599V608.827"/>
<path transform="matrix(1,0,0,-1,-42.7104,726.12)" d="M217.215 250.699 221.676 252.523 220.618 250.699 221.676 248.877 217.215 250.699" fill="#231f20"/>
<path transform="matrix(1,0,0,-1,-42.7104,726.12)" stroke-width="1.47" stroke-linecap="butt" stroke-miterlimit="4" stroke-linejoin="miter" fill="none" stroke="#231f20" d="M323.552 367.505H434.577"/>
<path transform="matrix(1,0,0,-1,-42.7104,726.12)" d="M321.442 367.505 325.903 369.328 324.845 367.505 325.903 365.682 321.442 367.505" fill="#231f20"/>
<path transform="matrix(1,0,0,-1,-42.7104,726.12)" stroke-width=".49" stroke-linecap="butt" stroke-miterlimit="4" stroke-linejoin="miter" fill="none" stroke="#231f20" d="M213.592 479.621H233.863"/>
<path transform="matrix(1,0,0,-1,-42.7104,726.12)" d="M211.482 479.621 214.456 480.835 213.751 479.621 214.456 478.406 211.482 479.621" fill="#231f20"/>
<path transform="matrix(1,0,0,-1,-42.7104,726.12)" stroke-width=".735" stroke-linecap="butt" stroke-dasharray=".735,.735" stroke-miterlimit="4" stroke-linejoin="miter" fill="none" stroke="#231f20" d="M199.422 498.115V485.44"/>
<path transform="matrix(1,0,0,-1,-42.7104,726.12)" d="M199.422 500.225 200.637 497.251 199.422 497.957 198.207 497.251 199.422 500.225" fill="#231f20"/>
<path transform="matrix(1,0,0,-1,-42.7104,726.12)" stroke-width=".735" stroke-linecap="butt" stroke-dasharray=".735,.735" stroke-miterlimit="4" stroke-linejoin="miter" fill="none" stroke="#231f20" d="M338.564 486.243V491.731H199.403"/>
<path transform="matrix(1,0,0,-1,-42.7104,726.12)" d="M338.564 484.132 339.779 487.106 338.564 486.401 337.349 487.106 338.564 484.132" fill="#231f20"/>
<path transform="matrix(1,0,0,-1,-42.7104,726.12)" stroke-width="1.47" stroke-linecap="butt" stroke-miterlimit="4" stroke-linejoin="miter" fill="none" stroke="#231f20" d="M252.418 498.115V485.556"/>
<path transform="matrix(1,0,0,-1,-42.7104,726.12)" d="M252.418 500.225 254.24 495.764 252.418 496.822 250.595 495.764 252.418 500.225" fill="#231f20"/>
<path transform="matrix(1,0,0,-1,-42.7104,726.12)" stroke-width="1.47" stroke-linecap="butt" stroke-miterlimit="4" stroke-linejoin="miter" fill="none" stroke="#231f20" d="M252.418 520.981V515.818M252.418 592.194V521.372H263.43V530.043"/>
<path transform="matrix(1,0,0,-1,-42.7104,726.12)" d="M263.43 532.153 265.253 527.692 263.43 528.75 261.608 527.692 263.43 532.153" fill="#231f20"/>
<path transform="matrix(1,0,0,-1,-42.7104,726.12)" d="M252.418 594.305 254.24 589.844 252.418 590.903 250.595 589.844 252.418 594.305" fill="#231f20"/>
<path transform="matrix(1,0,0,-1,-42.7104,726.12)" stroke-width="1.47" stroke-linecap="butt" stroke-miterlimit="4" stroke-linejoin="miter" fill="none" stroke="#231f20" d="M273.557 530.118V521.372H430.025V258.083H219.442"/>
<path transform="matrix(1,0,0,-1,-42.7104,726.12)" d="M217.331 258.082 221.793 259.905 220.734 258.082 221.793 256.259 217.331 258.082" fill="#231f20"/>
<path transform="matrix(1,0,0,-1,-42.7104,726.12)" d="M273.557 532.228 275.38 527.767 273.557 528.826 271.735 527.767 273.557 532.228" fill="#231f20"/>
<path transform="matrix(1,0,0,-1,-42.7104,726.12)" stroke-width=".49" stroke-linecap="butt" stroke-miterlimit="4" stroke-linejoin="miter" fill="none" stroke="#231f20" d="M272.53 479.621H303.588"/>
<path transform="matrix(1,0,0,-1,-42.7104,726.12)" d="M270.42 479.621 273.393 480.835 272.688 479.621 273.393 478.406 270.42 479.621" fill="#231f20"/>
<path transform="matrix(1,0,0,-1,-42.7104,726.12)" stroke-width="1.47" stroke-linecap="butt" stroke-miterlimit="4" stroke-linejoin="miter" fill="none" stroke="#231f20" d="M302.484 319.911V303.862"/>
<path transform="matrix(1,0,0,-1,-42.7104,726.12)" d="M302.484 322.022 304.308 317.561 302.484 318.619 300.662 317.561 302.484 322.022" fill="#231f20"/>
<path transform="matrix(1,0,0,-1,-42.7104,726.12)" stroke-width="1.47" stroke-linecap="butt" stroke-miterlimit="4" stroke-linejoin="miter" fill="none" stroke="#231f20" d="M238.625 319.715V305.905"/>
<path transform="matrix(1,0,0,-1,-42.7104,726.12)" d="M238.625 321.826 240.448 317.366 238.625 318.423 236.802 317.366 238.625 321.826" fill="#231f20"/>
<path transform="matrix(1,0,0,-1,-42.7104,726.12)" stroke-width="1.47" stroke-linecap="butt" stroke-miterlimit="4" stroke-linejoin="miter" fill="none" stroke="#231f20" d="M199.425 243.669V238.48"/>
<path transform="matrix(1,0,0,-1,-42.7104,726.12)" d="M199.425 245.779 201.248 241.318 199.425 242.376 197.602 241.318 199.425 245.779" fill="#231f20"/>
<path transform="matrix(1,0,0,-1,-42.7104,726.12)" stroke-width="1.47" stroke-linecap="butt" stroke-miterlimit="4" stroke-linejoin="miter" fill="none" stroke="#231f20" d="M302.325 275.752V270.33H199.567"/>
<path transform="matrix(1,0,0,-1,-42.7104,726.12)" d="M302.325 277.862 304.149 273.401 302.325 274.46 300.503 273.401 302.325 277.862" fill="#231f20"/>
<path transform="matrix(1,0,0,-1,-42.7104,726.12)" stroke-width="1.47" stroke-linecap="butt" stroke-miterlimit="4" stroke-linejoin="miter" fill="none" stroke="#231f20" d="M199.425 278.121V265.195"/>
<path transform="matrix(1,0,0,-1,-42.7104,726.12)" d="M199.425 280.231 201.248 275.77 199.425 276.829 197.602 275.77 199.425 280.231" fill="#231f20"/>
<path transform="matrix(1,0,0,-1,-42.7104,726.12)" stroke-width="1.47" stroke-linecap="butt" stroke-miterlimit="4" stroke-linejoin="miter" fill="none" stroke="#231f20" d="M200.021 221.747V215.254H351.466V296.79"/>
<path transform="matrix(1,0,0,-1,-42.7104,726.12)" d="M200.021 223.858 201.844 219.398 200.021 220.455 198.198 219.398 200.021 223.858" fill="#231f20"/>
<path transform="matrix(1,0,0,-1,-42.7104,726.12)" stroke-width="1.47" stroke-linecap="butt" stroke-miterlimit="4" stroke-linejoin="miter" fill="none" stroke="#231f20" d="M270.496 376.604V344.118H302.569V336.834"/>
<path transform="matrix(1,0,0,-1,-42.7104,726.12)" d="M270.496 378.714 272.319 374.254 270.496 375.312 268.674 374.254 270.496 378.714" fill="#231f20"/>
<path transform="matrix(1,0,0,-1,-42.7104,726.12)" stroke-width=".49" stroke-linecap="butt" stroke-miterlimit="4" stroke-linejoin="miter" fill="none" stroke="#231f20" d="M176.131 305.904V319.496"/>
<path transform="matrix(1,0,0,-1,-42.7104,726.12)" d="M176.131 321.606 177.346 318.633 176.131 319.337 174.916 318.633 176.131 321.606" fill="#231f20"/>
<path transform="matrix(1,0,0,-1,-42.7104,726.12)" stroke-width=".49" stroke-linecap="butt" stroke-miterlimit="4" stroke-linejoin="miter" fill="none" stroke="#231f20" d="M197.479 305.904V319.929"/>
<path transform="matrix(1,0,0,-1,-42.7104,726.12)" d="M197.479 322.039 198.694 319.066 197.479 319.771 196.264 319.066 197.479 322.039" fill="#231f20"/>
<path transform="matrix(1,0,0,-1,-42.7104,726.12)" stroke-width=".49" stroke-linecap="butt" stroke-miterlimit="4" stroke-linejoin="miter" fill="none" stroke="#231f20" d="M217.897 305.904V319.929"/>
<path transform="matrix(1,0,0,-1,-42.7104,726.12)" d="M217.897 322.039 219.111 319.066 217.897 319.771 216.682 319.066 217.897 322.039" fill="#231f20"/>
<path transform="matrix(1,0,0,-1,-42.7104,726.12)" stroke-width="1.47" stroke-linecap="butt" stroke-miterlimit="4" stroke-linejoin="miter" fill="none" stroke="#231f20" d="M270.775 419.419V427.653M268.984 462.572V466.166M233.05 462.572V466.166"/>
<g clip-path="url(#clip_3192)">
<g clip-path="url(#clip_3193)">
<path transform="matrix(1,0,0,-1,-42.7104,726.12)" stroke-width=".735" stroke-linecap="butt" stroke-dasharray=".735,.735" stroke-miterlimit="4" stroke-linejoin="miter" fill="none" stroke="#231f20" d="M198.887 515.276V521.554H94.867V255.512H181.308"/>
</g>
</g>
<path transform="matrix(1,0,0,-1,-42.7104,726.12)" stroke-width=".49" stroke-linecap="butt" stroke-miterlimit="4" stroke-linejoin="miter" fill="none" stroke="#231f20" d="M134.816 620.867V606.659"/>
<path transform="matrix(1,0,0,-1,-42.7104,726.12)" d="M134.816 622.978 136.03 620.004 134.816 620.71 133.601 620.004 134.816 622.978" fill="#231f20"/>
<path transform="matrix(1,0,0,-1,-42.7104,726.12)" d="M145.646 306.708C145.646 305.085 144.329 303.768 142.706 303.768H129.313C127.69 303.768 126.373 305.085 126.373 306.708V311.866C126.373 313.492 127.69 314.806 129.313 314.806H142.706C144.329 314.806 145.646 313.492 145.646 311.866V306.708" fill="#b1b4b6"/>
<path transform="matrix(1,0,0,-1,-42.7104,726.12)" d="M144.373 308.114C144.373 306.491 143.056 305.174 141.433 305.174H128.041C126.418 305.174 125.101 306.491 125.101 308.114V313.273C125.101 314.898 126.418 316.213 128.041 316.213H141.433C143.056 316.213 144.373 314.898 144.373 313.273V308.114" fill="#c6c8ca"/>
<path transform="matrix(1,0,0,-1,-42.7104,726.12)" stroke-width=".735" stroke-linecap="butt" stroke-miterlimit="4" stroke-linejoin="miter" fill="none" stroke="#231f20" d="M144.373 308.114C144.373 306.491 143.056 305.174 141.433 305.174H128.041C126.418 305.174 125.101 306.491 125.101 308.114V313.273C125.101 314.898 126.418 316.213 128.041 316.213H141.433C143.056 316.213 144.373 314.898 144.373 313.273V308.114Z"/>
<text fill="#231f20" xml:space="preserve" transform="matrix(1 0 -0 1 -42.7104 726.12)" font-size="7.84" font-family="Helvetica"><tspan y="-308.215" x="128.481 132.401 134.58052 138.93956">stat</tspan></text>
<path transform="matrix(1,0,0,-1,-42.7104,726.12)" d="M145.646 575.228C145.646 573.605 144.329 572.288 142.706 572.288H129.313C127.69 572.288 126.373 573.605 126.373 575.228V580.386C126.373 582.011 127.69 583.326 129.313 583.326H142.706C144.329 583.326 145.646 582.011 145.646 580.386V575.228" fill="#b1b4b6"/>
<path transform="matrix(1,0,0,-1,-42.7104,726.12)" d="M144.373 576.635C144.373 575.012 143.056 573.695 141.433 573.695H128.041C126.418 573.695 125.101 575.012 125.101 576.635V581.793C125.101 583.418 126.418 584.733 128.041 584.733H141.433C143.056 584.733 144.373 583.418 144.373 581.793V576.635" fill="#c6c8ca"/>
<path transform="matrix(1,0,0,-1,-42.7104,726.12)" stroke-width=".735" stroke-linecap="butt" stroke-miterlimit="4" stroke-linejoin="miter" fill="none" stroke="#231f20" d="M144.373 576.635C144.373 575.012 143.056 573.695 141.433 573.695H128.041C126.418 573.695 125.101 575.012 125.101 576.635V581.793C125.101 583.418 126.418 584.733 128.041 584.733H141.433C143.056 584.733 144.373 583.418 144.373 581.793V576.635Z"/>
<text fill="#231f20" xml:space="preserve" transform="matrix(1 0 -0 1 -42.7104 726.12)" font-size="7.84" font-family="Helvetica"><tspan y="-576.735" x="128.481 132.401 134.58052 138.93956">stat</tspan></text>
<path transform="matrix(1,0,0,-1,-42.7104,726.12)" stroke-width=".49" stroke-linecap="butt" stroke-miterlimit="4" stroke-linejoin="miter" fill="none" stroke="#231f20" d="M156.246 310.931H146.689"/>
<path transform="matrix(1,0,0,-1,-42.7104,726.12)" d="M144.58 310.931 147.553 309.717 146.848 310.931 147.553 312.146 144.58 310.931" fill="#231f20"/>
<path transform="matrix(1,0,0,-1,-42.7104,726.12)" stroke-width=".49" stroke-linecap="butt" stroke-dasharray=".735,.735" stroke-miterlimit="4" stroke-linejoin="miter" fill="none" stroke="#231f20" d="M135.615 302.668V291.666H155.658"/>
<path transform="matrix(1,0,0,-1,-42.7104,726.12)" d="M135.615 304.776 136.83 301.803 135.615 302.508 134.4 301.803 135.615 304.776" fill="#231f20"/>
<path transform="matrix(1,0,0,-1,-42.7104,726.12)" d="M355.339 473.981C355.339 472.81 354.392 471.862 353.223 471.862H335.983C334.815 471.862 333.867 472.81 333.867 473.981V481.22C333.867 482.387 334.815 483.335 335.983 483.335H353.223C354.392 483.335 355.339 482.387 355.339 481.22V473.981" fill="#b1b4b6"/>
<path transform="matrix(1,0,0,-1,-42.7104,726.12)" d="M353.752 474.965C353.752 473.798 352.805 472.852 351.636 472.852H334.396C333.229 472.852 332.281 473.798 332.281 474.965V482.206C332.281 483.375 333.229 484.323 334.396 484.323H351.636C352.805 484.323 353.752 483.375 353.752 482.206V474.965" fill="#c6c8ca"/>
<path transform="matrix(1,0,0,-1,-42.7104,726.12)" stroke-width=".735" stroke-linecap="butt" stroke-miterlimit="4" stroke-linejoin="miter" fill="none" stroke="#231f20" d="M353.752 474.965C353.752 473.798 352.805 472.852 351.636 472.852H334.396C333.229 472.852 332.281 473.798 332.281 474.965V482.206C332.281 483.375 333.229 484.323 334.396 484.323H351.636C352.805 484.323 353.752 483.375 353.752 482.206V474.965Z"/>
<path transform="matrix(1,0,0,-1,-42.7104,726.12)" d="M302.619 556.141H261.70399V582.601H302.619ZM261.704 556.141" fill="#231f20"/>
<path transform="matrix(1,0,0,-1,-42.7104,726.12)" d="M301.346 557.415H260.43V583.875H301.346ZM260.43 557.415" fill="#d4effc"/>
<path transform="matrix(1,0,0,-1,-42.7104,726.12)" stroke-width=".49" stroke-linecap="butt" stroke-miterlimit="4" stroke-linejoin="miter" fill="none" stroke="#00adef" d="M301.346 557.415H260.43V583.875H301.346Z"/>
<path transform="matrix(1,0,0,-1,-42.7104,726.12)" stroke-width=".735" stroke-linecap="butt" stroke-dasharray=".735,.735" stroke-miterlimit="4" stroke-linejoin="miter" fill="none" stroke="#231f20" d="M259.837 579.192H147.148"/>
<path transform="matrix(1,0,0,-1,-42.7104,726.12)" d="M144.85 579.192 147.824 577.977 147.118 579.192 147.824 580.407 144.85 579.192" fill="#231f20"/>
<path transform="matrix(1,0,0,-1,-42.7104,726.12)" stroke-width=".49" stroke-linecap="butt" stroke-miterlimit="4" stroke-linejoin="miter" fill="none" stroke="#231f20" d="M135.615 515.492V571.236"/>
<path transform="matrix(1,0,0,-1,-42.7104,726.12)" d="M135.615 573.346 136.83 570.372 135.615 571.078 134.4 570.372 135.615 573.346" fill="#231f20"/>
<path transform="matrix(1,0,0,-1,-42.7104,726.12)" d="M145.2 594.725H124.619998V609.07998H145.2ZM124.62 594.725" fill="#ffffff"/>
<path transform="matrix(1,0,0,-1,-42.7104,726.12)" stroke-width=".98" stroke-linecap="butt" stroke-miterlimit="4" stroke-linejoin="miter" fill="none" stroke="#231f20" d="M145.2 594.725H124.619998V609.07998H145.2Z"/>
<text fill="#231f20" xml:space="preserve" transform="matrix(1 0 -0 1 -42.7104 726.12)" font-size="7.84" font-family="Helvetica" font-weight="bold"><tspan y="-645.8981" x="99.8914 107.292369 110.342128 112.521648 115.13236">Write</tspan><tspan y="-637.07809" x="99.8914 104.68164 109.04068 113.244487">back</tspan></text>
<text fill="#ffffff" xml:space="preserve" transform="matrix(1 0 -0 1 -42.7104 726.12)" font-size="7.84" font-family="Helvetica"><tspan y="-598.8267" x="107.06814">W</tspan></text>
<text fill="#231f20" xml:space="preserve" transform="matrix(1 0 -0 1 -42.7104 726.12)" font-size="7.84" font-family="Helvetica"><tspan y="-598.8267" x="146.17798 147.91846 151.83846 156.1975 160.55654 243.18857 247.10857 251.4676 253.20809 284.3572 288.27723 292.63627 294.37675 335.8629 340.22196 344.14198 346.3215 356.4649 360.82395 364.74397 366.9235">icodevalEvalMdstEdstM</tspan></text>
<text fill="#231f20" xml:space="preserve" transform="matrix(1 0 -0 1 -42.7104 726.12)" font-size="7.35" font-family="Helvetica"><tspan y="-453.952" x="226.421 231.32346 235.41005">ALU</tspan><tspan y="-446.11177" x="231.31905">A</tspan><tspan y="-453.952" x="262.51393 267.41639 271.503">ALU</tspan><tspan y="-446.11177" x="267.20985">B</tspan><tspan y="-479.74464" x="308.93727 313.83973 317.92634">ALU</tspan><tspan y="-471.90367" x="309.9545 311.9978 316.0844 320.17103">fun.</tspan></text>
<text fill="#ffffff" xml:space="preserve" transform="matrix(1 0 -0 1 -42.7104 726.12)" font-size="7.84" font-family="Helvetica"><tspan y="-504.996" x="107.503">M</tspan></text>
<text fill="#231f20" xml:space="preserve" transform="matrix(1 0 -0 1 -42.7104 726.12)" font-size="7.84" font-family="Helvetica"><tspan y="-504.996" x="146.17772 147.9182 151.8382 156.19724 160.55628 190.17815 195.83863 200.19766 242.7963 246.7163 251.07534 252.81581 284.83125 288.75126 293.1103 294.85078 335.47218 339.8312 343.75123 345.93077 356.07417 360.4332 364.3532 366.53276">icodeCndvalEvalAdstEdstM</tspan></text>
<text fill="#ffffff" xml:space="preserve" transform="matrix(1 0 -0 1 -42.7104 726.12)" font-size="7.84" font-family="Helvetica"><tspan y="-409.1661" x="108.15372">E</tspan></text>
<text fill="#231f20" xml:space="preserve" transform="matrix(1 0 -0 1 -42.7104 726.12)" font-size="7.84" font-family="Helvetica"><tspan y="-409.1661" x="146.17772 147.9182 151.8382 156.19724 160.55628 171.16693 172.90741 175.08693 179.44597 221.67064 225.59064 229.94968 231.69016 263.92118 267.8412 272.20024 273.9407 305.52494 309.44496 313.804 315.54447 355.6837 360.04273 363.96275 366.14228 377.80665 381.72666 384.33738 388.2574 398.50114 402.42115 405.03187 408.95188 336.10957 340.4686 344.3886 346.56816">icodeifunvalCvalAvalBdstMsrcAsrcBdstE</tspan></text>
<text fill="#ffffff" xml:space="preserve" transform="matrix(1 0 -0 1 -42.7104 726.12)" font-size="7.84" font-family="Helvetica"><tspan y="-326.55525" x="107.93733">D</tspan></text>
<text fill="#231f20" xml:space="preserve" transform="matrix(1 0 -0 1 -42.7104 726.12)" font-size="7.84" font-family="Helvetica"><tspan y="-326.55525" x="146.17694 147.91742 151.83742 156.19646 160.5555 128.18727 132.10727 134.28679 138.64583">icodestat</tspan><tspan y="-409.28135" x="128.18727 132.10727 134.28679 138.64583">stat</tspan><tspan y="-504.99757" x="128.18727 132.10727 134.28679 138.64583">stat</tspan><tspan y="-326.55525" x="171.16693 172.90741 175.08693 179.44597 242.66617 246.58617 250.9452 252.68569 295.5854 299.5054 303.86445 305.60493 213.97255 216.58327 193.9633 196.57402">ifunvalCvalPrBrA</tspan></text>
<text fill="#ffffff" xml:space="preserve" transform="matrix(1 0 -0 1 -42.7104 726.12)" font-size="7.84" font-family="Helvetica"><tspan y="-228.3169" x="108.371669">F</tspan></text>
<text fill="#231f20" xml:space="preserve" transform="matrix(1 0 -0 1 -42.7104 726.12)" font-size="7.84" font-family="Helvetica"><tspan y="-228.3169" x="186.28403 190.64307 193.25379 197.61283 201.97187 207.20114">predPC</tspan></text>
<text fill="#231f20" xml:space="preserve" transform="matrix(1 0 -0 1 -42.7104 726.12)" font-size="5.88" font-family="Helvetica"><tspan y="-588.496" x="295.392 298.6613 301.93058 303.56523 306.8345 308.46916 311.73844 315.00773">data out</tspan><tspan y="-549.37399" x="295.676 298.94529 302.21458 303.8492 307.1185 308.75315 310.0585">data in</tspan><tspan y="-524.13467" x="169.04019 173.93824 177.20752 181.45288 184.72217">M_Cnd</tspan><tspan y="-490.1935" x="178.69927 181.96855 185.23784 189.4832 192.75249">e_Cnd</tspan></text>
<text fill="#231f20" xml:space="preserve" transform="matrix(1 0 -0 1 -42.7104 726.12)" font-size="7.84" font-family="Helvetica" font-weight="bold"><tspan y="-550.939" x="99.8082 106.33892 110.69796 117.66772 122.457958 125.58455">Memory</tspan></text>
<text fill="#231f20" xml:space="preserve" transform="matrix(1 0 -0 1 -42.7104 726.12)" font-size="7.84" font-family="Helvetica"><tspan y="-473.22895" x="244.81136 250.04064 254.39968">ALU</tspan></text>
<text fill="#231f20" xml:space="preserve" transform="matrix(1 0 -0 1 -42.7104 726.12)" font-size="7.84" font-family="Helvetica" font-weight="bold"><tspan y="-449.57176" x="99.80115 105.030429 109.31263 113.67167 118.03071 122.820949 125.43166">Execute</tspan></text>
<text fill="#231f20" xml:space="preserve" transform="matrix(1 0 -0 1 -42.7104 726.12)" font-size="7.84" font-family="Helvetica"><tspan y="-387.3684" x="335.49507 339.8541 343.7741 345.95365 356.39338 360.7524 364.67243 366.85197 378.73429 382.6543 385.265 389.18504 399.9909 403.91093 406.52165 410.44166">dstEdstMsrcAsrcB</tspan><tspan y="-389.52757" x="258.42707 263.65635 268.01539 269.75587 274.1149 278.0349">Select</tspan><tspan y="-380.70756" x="266.92094">A</tspan></text>
<text fill="#231f20" xml:space="preserve" transform="matrix(1 0 -0 1 -42.7104 726.12)" font-size="8.624" font-family="Helvetica"><tspan y="-308.836" x="338.534 344.2862 347.158 351.95295 356.7479 358.6624 362.97444">Predict</tspan><tspan y="-299.134" x="345.96357 351.71577">PC</tspan></text>
<text fill="#231f20" xml:space="preserve" transform="matrix(1 0 -0 1 -42.7104 726.12)" font-size="7.84" font-family="Helvetica"><tspan y="-256.716" x="189.038 194.26728 198.62631 200.36679 204.72583 208.64583">Select</tspan><tspan y="-247.896" x="194.48836 199.71764">PC</tspan></text>
<text fill="#231f20" xml:space="preserve" transform="matrix(1 0 -0 1 -42.7104 726.12)" font-size="5.88" font-family="Helvetica"><tspan y="-398.404" x="388.233 391.5023 394.77159 397.71159 399.66963 402.60963">d_srcA</tspan><tspan y="-391.612" x="286.67424 289.9435 293.2128 295.17085 298.11085 301.38014 302.6855">d_rvalA</tspan><tspan y="-398.22407" x="409.46803 412.7373 416.0066 418.9466 420.90464 423.84465">d_srcB</tspan><tspan y="-370.25819" x="379.39418 384.9449 388.21418 391.15419 394.42347 395.72883">W_valM</tspan><tspan y="-523.95437" x="380.37025 385.26829 388.53758 391.47758 394.74687 396.05223">M_valA</tspan><tspan y="-355.49354" x="379.8822 385.43293 388.7022 391.6422 394.9115 396.21687">W_valE</tspan><tspan y="-260.9884" x="380.5331 385.43116 388.70045 391.64045 394.90974 396.2151">M_valA</tspan><tspan y="-268.88819" x="174.1251 175.75975 179.02904 182.29833">f_pc</tspan><tspan y="-314.37117" x="108.62837 110.263019 113.532299 116.4723 118.10694 121.37622">f_stat</tspan><tspan y="-343.15495" x="114.72829 118.97365 122.24293 125.18293 126.81757 130.08686">D_stat</tspan><tspan y="-426.45515" x="115.05228 118.974239 122.243518 125.18352 126.81816 130.08745">E_stat</tspan><tspan y="-528.04806" x="114.076198 118.974239 122.243518 125.18352 126.81816 130.08745">M_stat</tspan><tspan y="-588.4809" x="110.319469 115.21751 118.486789 121.42679 123.06143 126.33071">m_stat</tspan><tspan y="-613.21279" x="109.6662 115.21692 118.4862 121.4262 123.060848 126.330127">W_stat</tspan><tspan y="-298.10594" x="102.820117 104.12547 109.02351 112.29279 117.190837 120.46011 123.72939 125.68743 127.64547 130.91475">imem_error</tspan><tspan y="-292.22593" x="106.40691 107.71227 110.98155 113.921558 115.5562 117.51424 120.783519 123.72352 126.9928 128.29816 129.60352">instr_valid</tspan><tspan y="-244.26393" x="379.55705 385.10777 388.37705 391.31706 394.58634 395.8917">W_valM</tspan></text>
<text fill="#231f20" xml:space="preserve" transform="matrix(1 0 -0 1 -42.7104 726.12)" font-size="7.84" font-family="Helvetica"><tspan y="-473.416" x="193.042 198.70249">CC</tspan></text>
<text fill="#231f20" xml:space="preserve" transform="matrix(1 0 -0 1 -42.7104 726.12)" font-size="7.84" font-family="Helvetica" font-weight="bold"><tspan y="-367.1189" x="100.14663 105.80711 110.16615 114.52519 119.31543 124.10567">Decode</tspan><tspan y="-277.84797" x="100.21327 105.00351 109.36255 111.97327 116.25547">Fetch</tspan></text>
<text fill="#231f20" xml:space="preserve" transform="matrix(1 0 -0 1 -42.7104 726.12)" font-size="5.88" font-family="Helvetica"><tspan y="-572.24" x="236.448 238.40604 241.67533 244.94461">read</tspan><tspan y="-582.04019" x="181.2442 184.51349 189.41153 192.68082 197.57886 200.84815 204.11743 206.07547 208.03351 211.3028">dmem_error</tspan><tspan y="-554.51828" x="235.71006 239.95542 241.91345 243.21881 244.85346">write</tspan></text>
<text fill="#231f20" xml:space="preserve" transform="matrix(1 0 -0 1 -42.7104 726.12)" font-size="7.84" font-family="Helvetica"><tspan y="-537.163" x="260.616 265.84529 270.2043 274.56336">Addr</tspan></text>
<text fill="#231f20" xml:space="preserve" transform="matrix(1 0 -0 1 -42.7104 726.12)" font-size="7.35" font-family="Helvetica"><tspan y="-567.677" x="207.218 213.34055 217.42714 223.54969">Mem.</tspan><tspan y="-559.83676" x="205.3761 209.0511 213.1377 217.22429 219.2676 221.71515 225.80175">control</tspan></text>
<text fill="#231f20" xml:space="preserve" transform="matrix(1 0 -0 1 -42.7104 726.12)" font-size="7.84" font-family="Helvetica"><tspan y="-362.221" x="283.286 288.9465 293.30555 297.66459 299.40507 303.32508 305.5046 309.86366">Register</tspan><tspan y="-353.401" x="292.8712 295.05073 296.7912 298.53169">file</tspan></text>
<text fill="#231f20" xml:space="preserve" transform="matrix(1 0 -0 1 -42.7104 726.12)" font-size="5.88" font-family="Helvetica"><tspan y="-369.827" x="289.363 310.30583">AB</tspan><tspan y="-350.6041" x="314.49415">E</tspan><tspan y="-365.30116" x="314.0061">M</tspan></text>
<path transform="matrix(1,0,0,-1,-42.7104,726.12)" d="M244.701 279.974H153.654V304.474H244.701ZM153.654 279.974" fill="#231f20"/>
<path transform="matrix(1,0,0,-1,-42.7104,726.12)" d="M243.428 281.249H152.381V305.749H243.428ZM152.381 281.249" fill="#d4effc"/>
<path transform="matrix(1,0,0,-1,-42.7104,726.12)" stroke-width=".49" stroke-linecap="butt" stroke-miterlimit="4" stroke-linejoin="miter" fill="none" stroke="#00adef" d="M243.428 281.249H152.381V305.749H243.428Z"/>
<path transform="matrix(1,0,0,-1,-42.7104,726.12)" d="M322.543 278.014H284.568V302.514H322.543ZM284.568 278.014" fill="#231f20"/>
<path transform="matrix(1,0,0,-1,-42.7104,726.12)" d="M321.27 279.289H283.29499V303.789H321.27ZM283.295 279.289" fill="#d4effc"/>
<path transform="matrix(1,0,0,-1,-42.7104,726.12)" stroke-width=".49" stroke-linecap="butt" stroke-miterlimit="4" stroke-linejoin="miter" fill="none" stroke="#00adef" d="M321.27 279.289H283.29499V303.789H321.27Z"/>
<text fill="#231f20" xml:space="preserve" transform="matrix(1 0 -0 1 -42.7104 726.12)" font-size="7.84" font-family="Helvetica"><tspan y="-293.849" x="296.778 302.0073">PC</tspan><tspan y="-285.029" x="285.0141 286.75459 291.11363 295.03364 297.64436 302.0034 308.53413 312.89317 317.2522">increment</tspan><tspan y="-295.809" x="180.41988 182.5994 186.95844 190.87844 193.05796 195.66867 200.02771 203.94771 206.12723 207.8677 212.22675">Instruction</tspan><tspan y="-286.98899" x="184.34772 190.87844 195.23748 201.76819 206.12723 208.73795">memory</tspan><tspan y="-475.84989" x="335.49507 339.8541 343.7741 345.95365">dstE</tspan><tspan y="-572.9279" x="272.70137 278.36186 282.7209 284.90043">Data</tspan><tspan y="-564.1079" x="266.8253 273.35603 277.71507 284.2458 288.60484 291.21556">memory</tspan><tspan y="-598.8258" x="128.18822 132.10822 134.28774 138.64678">stat</tspan></text>
<text fill="#00adef" xml:space="preserve" transform="matrix(1 0 -0 1 -42.7104 726.12)" font-size="8.9664" font-family="StoneSans"><tspan y="-198.579" x="94.5 98.812839 100.94684 106.281848 111.40166 114.521968 122.11202 127.258739 129.83209 134.9788">Figure4.41</tspan></text>
<text fill="#231f20" xml:space="preserve" transform="matrix(1 0 -0 1 -42.7104 726.12)" font-size="8.9664" font-family="StoneSans" font-weight="bold"><tspan y="-198.579" x="148.09487 154.73897 159.5629 163.15842 168.75345 176.079 180.90293 184.49845 192.44716 196.26685 199.75478 203.3503 208.64945 212.93538 216.42331 221.72246 225.31798 233.2667 238.69136 244.89163 250.20871 252.9614 258.27848 263.13829 267.62147 273.35639 278.1803 286.76564 289.17759 294.7188 297.13078 300.61869 303.03065 307.85456 313.3106 318.90565 321.3176 326.91264 331.81727 334.22923 336.64118 342.1824 347.08705 355.72618 358.13813 366.34239 371.9374 374.34938 379.254 387.45826 392.36289 397.9041 401.39204 406.21595 409.70387 412.1158 417.5405 423.08174">HardwarestructureofPIPE&#x2013;,aninitialpipelinedimplementation.</tspan></text>
<text fill="#231f20" xml:space="preserve" transform="matrix(1 0 -0 1 -42.7104 726.12)" font-size="8.9664" font-family="StoneSans"><tspan y="-198.579" x="428.69477 433.8415">By</tspan><tspan y="-187.62026" x="94.5 96.634 101.87935 105.36728 109.913249 113.033557 116.12696 118.26096 123.50631 130.94216 136.29509 138.4291 143.78203 148.32799 150.46199 152.596 157.84134 164.48813 167.60843 172.15439 177.4894 179.6234 183.11133 186.20475 190.7507 193.871 199.45977 201.59377 206.83911 209.93253 217.1711 221.83362 226.28992 233.42717 240.67472 243.83089 248.14373 250.27773 255.61273 260.73255 263.85285 270.49964 275.64637 278.21974 283.36647 288.51319 291.66935 296.43858 303.4234 310.0702 314.38304 317.50334 322.0493 326.53248 329.6259 336.27268 342.8567 347.6627 352.0562 356.60218 359.58799 363.0759 366.1693 370.65254 375.98756 382.63435 387.98728 390.12129 395.4742 400.02018 402.15419 404.28819 409.5335 414.07948 418.75456 423.73988 428.9852 433.53117 436.65147">insertingpipelineregistersintoSEQ+(Figure4.40),wecreatea&#xfb01;ve-stagepipeline.There</tspan><tspan y="-176.66242" x="94.5 98.9832 102.10351 109.22283 112.71076 117.25673 121.65027 126.196239 129.31655 133.79975 138.50711 141.99504 147.24039 152.37813 155.49843 158.59185 162.90468 168.04242 176.05838 178.19239 183.43773 188.77274 194.83403 199.97177 205.19919 208.2926 213.53795 215.67195 221.73325 226.12679 230.67275 233.79305 237.28098 239.41498 244.55272 252.37143 255.46485 260.71018 265.19337 270.86015 277.84498 284.9643 291.94914 294.08314 296.21714 300.9245 306.25953 310.80549 315.2887 319.99607 326.9809 329.1149 332.2083 340.027 343.51493 348.76026 353.898 357.0183 360.11174 362.24574 366.02058">areseveralshortcomingsofthisversionthatwewilldealwithshortly.</tspan></text>
</g>
</svg>
