<?xml version="1.0" standalone="no"?>
<svg xmlns="http://www.w3.org/2000/svg" xmlns:xlink="http://www.w3.org/1999/xlink" width="435pt" height="710pt" viewBox="0.00 0.00 434.65 710">
<g id="graph0" class="graph" transform="translate(4,706) scale(1)" data-name="NodeShapes">

<polygon fill="white" stroke="none" points="-4,4 -4,-706 430.65,-706 430.65,4 -4,4"/>
<!-- A -->
<!-- B&#45;&#45;D -->
<g id="node4" class="node" pointer-events="visible" data-name="S4" data-comment="B--D">

<polygon fill="burlywood" stroke="antiquewhite" stroke-width="0.5" points="265.32,-18 279.72,-18 279.72,-54 265.32,-54 265.32,-18"/>
<polygon fill="yellow" stroke="antiquewhite" stroke-width="0.5" points="279.72,-18 294.12,-18 294.12,-54 279.72,-54 279.72,-18"/>
<polygon fill="gold" stroke="antiquewhite" stroke-width="0.5" points="294.12,-18 308.52,-18 308.52,-54 294.12,-54 294.12,-18"/>
<polygon fill="oldlace" stroke="antiquewhite" stroke-width="0.5" points="308.52,-18 322.92,-18 322.92,-54 308.52,-54 308.52,-18"/>
<polygon fill="linen" stroke="antiquewhite" stroke-width="0.5" points="322.92,-18 337.32,-18 337.32,-54 322.92,-54 322.92,-18"/>
<text text-anchor="middle" x="301.32" y="-32.4" font-family="Times,serif" font-size="12">box</text><polygon fill="none" stroke="antiquewhite" points="337.32,-54 265.32,-54 265.32,-18 337.32,-18 337.32,-54"/>

</g>
<!-- A -->
<g id="node1" class="node" pointer-events="visible" data-name="S1" data-comment="A">

<path fill="burlywood" stroke="antiquewhite" stroke-width="0.5" d="M40,-36C40,-36 76,-36 76,-36 76,-36.53 75.95,-37.06 75.86,-37.58 75.77,-38.11 75.63,-38.63 75.44,-39.16 75.26,-39.68 75.03,-40.19 74.75,-40.7 74.47,-41.21 74.15,-41.72 73.79,-42.21 73.42,-42.71 73.01,-43.2 72.56,-43.68 72.11,-44.15 71.62,-44.62 71.09,-45.08 70.55,-45.54 69.98,-45.98 69.37,-46.41 68.76,-46.84 68.11,-47.26 67.42,-47.66 66.74,-48.07 66.02,-48.45 65.26,-48.82 64.51,-49.2 63.72,-49.55 62.91,-49.89 62.09,-50.22 61.25,-50.54 60.37,-50.84 59.5,-51.14 58.6,-51.42 57.68,-51.68 56.76,-51.94 55.82,-52.18 54.86,-52.4 53.89,-52.61 52.91,-52.81 51.91,-52.99 50.91,-53.16 49.9,-53.31 48.88,-53.44 47.85,-53.57 46.82,-53.68 45.77,-53.77 45.77,-53.77 40,-36 40,-36"/>
<path fill="yellow" stroke="antiquewhite" stroke-width="0.5" d="M40,-36C40,-36 45.77,-53.77 45.77,-53.77 44.64,-53.86 43.5,-53.92 42.36,-53.96 41.22,-54 40.07,-54.01 38.92,-53.99 37.78,-53.97 36.64,-53.93 35.5,-53.86 34.36,-53.79 33.23,-53.69 32.11,-53.56 31,-53.44 29.89,-53.29 28.8,-53.11 27.71,-52.93 26.64,-52.72 25.59,-52.5 24.54,-52.27 23.51,-52.01 22.51,-51.73 21.51,-51.45 20.54,-51.15 19.59,-50.83 19.59,-50.83 40,-36 40,-36"/>
<path fill="gold" stroke="antiquewhite" stroke-width="0.5" d="M40,-36C40,-36 19.59,-50.83 19.59,-50.83 18.39,-50.42 17.25,-49.97 16.16,-49.49 15.07,-49.01 14.04,-48.49 13.08,-47.95 12.11,-47.41 11.22,-46.84 10.39,-46.24 9.56,-45.64 8.81,-45.02 8.14,-44.38 7.46,-43.73 6.86,-43.07 6.35,-42.39 5.83,-41.71 5.4,-41.02 5.05,-40.31 4.7,-39.61 4.44,-38.89 4.26,-38.17 4.09,-37.45 4,-36.73 4,-36 4,-35.27 4.09,-34.55 4.26,-33.83 4.44,-33.11 4.7,-32.39 5.05,-31.69 5.4,-30.98 5.83,-30.29 6.35,-29.61 6.86,-28.93 7.46,-28.27 8.14,-27.62 8.81,-26.98 9.56,-26.36 10.39,-25.76 11.22,-25.16 12.11,-24.59 13.08,-24.05 14.04,-23.51 15.07,-22.99 16.16,-22.51 17.25,-22.03 18.39,-21.58 19.59,-21.17 19.59,-21.17 40,-36 40,-36"/>
<path fill="oldlace" stroke="antiquewhite" stroke-width="0.5" d="M40,-36C40,-36 19.59,-21.17 19.59,-21.17 20.54,-20.85 21.51,-20.55 22.51,-20.27 23.51,-19.99 24.54,-19.73 25.59,-19.5 26.64,-19.28 27.71,-19.07 28.8,-18.89 29.89,-18.71 31,-18.56 32.11,-18.44 33.23,-18.31 34.36,-18.21 35.5,-18.14 36.64,-18.07 37.78,-18.03 38.92,-18.01 40.07,-17.99 41.22,-18 42.36,-18.04 43.5,-18.08 44.64,-18.14 45.77,-18.23 45.77,-18.23 40,-36 40,-36"/>
<path fill="linen" stroke="antiquewhite" stroke-width="0.5" d="M40,-36C40,-36 45.77,-18.23 45.77,-18.23 46.82,-18.32 47.85,-18.43 48.88,-18.56 49.9,-18.69 50.91,-18.84 51.91,-19.01 52.91,-19.19 53.89,-19.39 54.86,-19.6 55.82,-19.82 56.76,-20.06 57.68,-20.32 58.6,-20.58 59.5,-20.86 60.37,-21.16 61.25,-21.46 62.09,-21.78 62.91,-22.11 63.72,-22.45 64.51,-22.8 65.26,-23.18 66.02,-23.55 66.74,-23.93 67.42,-24.34 68.11,-24.74 68.76,-25.16 69.37,-25.59 69.98,-26.02 70.55,-26.46 71.09,-26.92 71.62,-27.38 72.11,-27.85 72.56,-28.32 73.01,-28.8 73.42,-29.29 73.79,-29.79 74.15,-30.28 74.47,-30.79 74.75,-31.3 75.03,-31.81 75.26,-32.32 75.44,-32.84 75.63,-33.37 75.77,-33.89 75.86,-34.42 75.95,-34.94 76,-35.47 76,-36 76,-36 40,-36 40,-36"/>
<ellipse fill="none" stroke="antiquewhite" cx="40" cy="-36" rx="36" ry="18"/>
<text text-anchor="middle" x="40" y="-32.4" font-family="Times,serif" font-size="12">ellipse</text>
</g>
<!-- B -->
<g id="node2" class="node" pointer-events="visible" data-name="S2" data-comment="B">

<path fill="burlywood" stroke="antiquewhite" stroke-width="0.5" d="M132,-36C132,-36 168,-36 168,-36 168,-36.53 167.95,-37.06 167.86,-37.58 167.77,-38.11 167.63,-38.63 167.44,-39.16 167.26,-39.68 167.03,-40.19 166.75,-40.7 166.47,-41.21 166.15,-41.72 165.79,-42.21 165.42,-42.71 165.01,-43.2 164.56,-43.68 164.11,-44.15 163.62,-44.62 163.09,-45.08 162.55,-45.54 161.98,-45.98 161.37,-46.41 160.76,-46.84 160.11,-47.26 159.42,-47.66 158.74,-48.07 158.02,-48.45 157.26,-48.82 156.51,-49.2 155.72,-49.55 154.91,-49.89 154.09,-50.22 153.25,-50.54 152.37,-50.84 151.5,-51.14 150.6,-51.42 149.68,-51.68 148.76,-51.94 147.82,-52.18 146.86,-52.4 145.89,-52.61 144.91,-52.81 143.91,-52.99 142.91,-53.16 141.9,-53.31 140.88,-53.44 139.85,-53.57 138.82,-53.68 137.77,-53.77 137.77,-53.77 132,-36 132,-36"/>
<path fill="yellow" stroke="antiquewhite" stroke-width="0.5" d="M132,-36C132,-36 137.77,-53.77 137.77,-53.77 136.64,-53.86 135.5,-53.92 134.36,-53.96 133.22,-54 132.07,-54.01 130.92,-53.99 129.78,-53.97 128.64,-53.93 127.5,-53.86 126.36,-53.79 125.23,-53.69 124.11,-53.56 123,-53.44 121.89,-53.29 120.8,-53.11 119.71,-52.93 118.64,-52.72 117.59,-52.5 116.54,-52.27 115.51,-52.01 114.51,-51.73 113.51,-51.45 112.54,-51.15 111.59,-50.83 111.59,-50.83 132,-36 132,-36"/>
<path fill="gold" stroke="antiquewhite" stroke-width="0.5" d="M132,-36C132,-36 111.59,-50.83 111.59,-50.83 110.39,-50.42 109.25,-49.97 108.16,-49.49 107.07,-49.01 106.04,-48.49 105.08,-47.95 104.11,-47.41 103.22,-46.84 102.39,-46.24 101.56,-45.64 100.81,-45.02 100.14,-44.38 99.46,-43.73 98.86,-43.07 98.35,-42.39 97.83,-41.71 97.4,-41.02 97.05,-40.31 96.7,-39.61 96.44,-38.89 96.26,-38.17 96.09,-37.45 96,-36.73 96,-36 96,-35.27 96.09,-34.55 96.26,-33.83 96.44,-33.11 96.7,-32.39 97.05,-31.69 97.4,-30.98 97.83,-30.29 98.35,-29.61 98.86,-28.93 99.46,-28.27 100.14,-27.62 100.81,-26.98 101.56,-26.36 102.39,-25.76 103.22,-25.16 104.11,-24.59 105.08,-24.05 106.04,-23.51 107.07,-22.99 108.16,-22.51 109.25,-22.03 110.39,-21.58 111.59,-21.17 111.59,-21.17 132,-36 132,-36"/>
<path fill="oldlace" stroke="antiquewhite" stroke-width="0.5" d="M132,-36C132,-36 111.59,-21.17 111.59,-21.17 112.54,-20.85 113.51,-20.55 114.51,-20.27 115.51,-19.99 116.54,-19.73 117.59,-19.5 118.64,-19.28 119.71,-19.07 120.8,-18.89 121.89,-18.71 123,-18.56 124.11,-18.44 125.23,-18.31 126.36,-18.21 127.5,-18.14 128.64,-18.07 129.78,-18.03 130.92,-18.01 132.07,-17.99 133.22,-18 134.36,-18.04 135.5,-18.08 136.64,-18.14 137.77,-18.23 137.77,-18.23 132,-36 132,-36"/>
<path fill="linen" stroke="antiquewhite" stroke-width="0.5" d="M132,-36C132,-36 137.77,-18.23 137.77,-18.23 138.82,-18.32 139.85,-18.43 140.88,-18.56 141.9,-18.69 142.91,-18.84 143.91,-19.01 144.91,-19.19 145.89,-19.39 146.86,-19.6 147.82,-19.82 148.76,-20.06 149.68,-20.32 150.6,-20.58 151.5,-20.86 152.37,-21.16 153.25,-21.46 154.09,-21.78 154.91,-22.11 155.72,-22.45 156.51,-22.8 157.26,-23.18 158.02,-23.55 158.74,-23.93 159.42,-24.34 160.11,-24.74 160.76,-25.16 161.37,-25.59 161.98,-26.02 162.55,-26.46 163.09,-26.92 163.62,-27.38 164.11,-27.85 164.56,-28.32 165.01,-28.8 165.42,-29.29 165.79,-29.79 166.15,-30.28 166.47,-30.79 166.75,-31.3 167.03,-31.81 167.26,-32.32 167.44,-32.84 167.63,-33.37 167.77,-33.89 167.86,-34.42 167.95,-34.94 168,-35.47 168,-36 168,-36 132,-36 132,-36"/>
<ellipse fill="none" stroke="antiquewhite" cx="132" cy="-36" rx="36" ry="18"/>
<text text-anchor="middle" x="132" y="-32.4" font-family="Times,serif" font-size="12">oval</text>
</g>
<!-- C -->

<!-- D --><g id="node3" class="node" pointer-events="visible" data-name="S3" data-comment="D">

<path fill="burlywood" stroke="antiquewhite" stroke-width="0.5" d="M220,-36C220,-36 256,-36 256,-36 256,-36.94 255.96,-37.88 255.89,-38.82 255.82,-39.76 255.7,-40.7 255.56,-41.63 255.41,-42.56 255.23,-43.49 255.01,-44.4 254.79,-45.32 254.53,-46.23 254.24,-47.12 253.95,-48.02 253.62,-48.91 253.26,-49.78 252.9,-50.65 252.5,-51.5 252.08,-52.34 251.65,-53.18 251.19,-54.01 250.7,-54.81 250.2,-55.61 249.68,-56.4 249.12,-57.16 248.57,-57.92 247.99,-58.66 247.37,-59.38 246.76,-60.1 246.12,-60.79 245.46,-61.46 244.79,-62.12 244.1,-62.76 243.38,-63.37 242.66,-63.99 241.92,-64.57 241.16,-65.12 240.4,-65.68 239.61,-66.2 238.81,-66.7 238.01,-67.19 237.18,-67.65 236.34,-68.08 235.5,-68.5 234.65,-68.9 233.78,-69.26 232.91,-69.62 232.02,-69.95 231.12,-70.24 231.12,-70.24 220,-36 220,-36"/>
<path fill="yellow" stroke="antiquewhite" stroke-width="0.5" d="M220,-36C220,-36 231.12,-70.24 231.12,-70.24 230.23,-70.53 229.32,-70.79 228.4,-71.01 227.49,-71.23 226.56,-71.41 225.63,-71.56 224.7,-71.7 223.76,-71.82 222.82,-71.89 221.88,-71.96 220.94,-72 220,-72 219.06,-72 218.12,-71.96 217.18,-71.89 216.24,-71.82 215.3,-71.7 214.37,-71.56 213.44,-71.41 212.51,-71.23 211.6,-71.01 210.68,-70.79 209.77,-70.53 208.88,-70.24 207.98,-69.95 207.09,-69.62 206.22,-69.26 205.35,-68.9 204.5,-68.5 203.66,-68.08 202.82,-67.65 201.99,-67.19 201.19,-66.7 200.39,-66.2 199.6,-65.68 198.84,-65.12 198.08,-64.57 197.34,-63.99 196.62,-63.37 195.9,-62.76 195.21,-62.12 194.54,-61.46 193.88,-60.79 193.24,-60.1 192.63,-59.38 192.01,-58.66 191.43,-57.92 190.88,-57.16 190.88,-57.16 220,-36 220,-36"/>
<path fill="gold" stroke="antiquewhite" stroke-width="0.5" d="M220,-36C220,-36 190.88,-57.16 190.88,-57.16 190.32,-56.4 189.8,-55.61 189.3,-54.81 188.81,-54.01 188.35,-53.18 187.92,-52.34 187.5,-51.5 187.1,-50.65 186.74,-49.78 186.38,-48.91 186.05,-48.02 185.76,-47.12 185.47,-46.23 185.21,-45.32 184.99,-44.4 184.77,-43.49 184.59,-42.56 184.44,-41.63 184.3,-40.7 184.18,-39.76 184.11,-38.82 184.04,-37.88 184,-36.94 184,-36 184,-35.06 184.04,-34.12 184.11,-33.18 184.18,-32.24 184.3,-31.3 184.44,-30.37 184.59,-29.44 184.77,-28.51 184.99,-27.6 185.21,-26.68 185.47,-25.77 185.76,-24.88 186.05,-23.98 186.38,-23.09 186.74,-22.22 187.1,-21.35 187.5,-20.5 187.92,-19.66 188.35,-18.82 188.81,-17.99 189.3,-17.19 189.8,-16.39 190.32,-15.6 190.88,-14.84 190.88,-14.84 220,-36 220,-36"/>
<path fill="oldlace" stroke="antiquewhite" stroke-width="0.5" d="M220,-36C220,-36 190.88,-14.84 190.88,-14.84 191.43,-14.08 192.01,-13.34 192.63,-12.62 193.24,-11.9 193.88,-11.21 194.54,-10.54 195.21,-9.88 195.9,-9.24 196.62,-8.63 197.34,-8.01 198.08,-7.43 198.84,-6.88 199.6,-6.32 200.39,-5.8 201.19,-5.3 201.99,-4.81 202.82,-4.35 203.66,-3.92 204.5,-3.5 205.35,-3.1 206.22,-2.74 207.09,-2.38 207.98,-2.05 208.88,-1.76 209.77,-1.47 210.68,-1.21 211.6,-0.99 212.51,-0.77 213.44,-0.59 214.37,-0.44 215.3,-0.3 216.24,-0.18 217.18,-0.11 218.12,-0.04 219.06,0 220,0 220.94,0 221.88,-0.04 222.82,-0.11 223.76,-0.18 224.7,-0.3 225.63,-0.44 226.56,-0.59 227.49,-0.77 228.4,-0.99 229.32,-1.21 230.23,-1.47 231.12,-1.76 231.12,-1.76 220,-36 220,-36"/>
<path fill="linen" stroke="antiquewhite" stroke-width="0.5" d="M220,-36C220,-36 231.12,-1.76 231.12,-1.76 232.02,-2.05 232.91,-2.38 233.78,-2.74 234.65,-3.1 235.5,-3.5 236.34,-3.92 237.18,-4.35 238.01,-4.81 238.81,-5.3 239.61,-5.8 240.4,-6.32 241.16,-6.88 241.92,-7.43 242.66,-8.01 243.38,-8.63 244.1,-9.24 244.79,-9.88 245.46,-10.54 246.12,-11.21 246.76,-11.9 247.37,-12.62 247.99,-13.34 248.57,-14.08 249.12,-14.84 249.68,-15.6 250.2,-16.39 250.7,-17.19 251.19,-17.99 251.65,-18.82 252.08,-19.66 252.5,-20.5 252.9,-21.35 253.26,-22.22 253.62,-23.09 253.95,-23.98 254.24,-24.88 254.53,-25.77 254.79,-26.68 255.01,-27.6 255.23,-28.51 255.41,-29.44 255.56,-30.37 255.7,-31.3 255.82,-32.24 255.89,-33.18 255.96,-34.12 256,-35.06 256,-36 256,-36 220,-36 220,-36"/>
<ellipse fill="none" stroke="antiquewhite" cx="220" cy="-36" rx="36" ry="36"/>
<text text-anchor="middle" x="220" y="-32.4" font-family="Times,serif" font-size="12">circle</text>
</g>


<!-- A&#45;&#45;C -->
<!-- A&#45;&#45;C --><g id="node5" class="node" pointer-events="visible" data-name="S5" data-comment="A--C">

<polygon fill="none" stroke="antiquewhite" points="422.65,-54 354.65,-54 350.65,-50 350.65,-18 418.65,-18 422.65,-22 422.65,-54"/>
<polyline fill="none" stroke="antiquewhite" points="418.65,-50 350.65,-50"/>
<polyline fill="none" stroke="antiquewhite" points="418.65,-50 418.65,-18"/>
<polyline fill="none" stroke="antiquewhite" points="418.65,-50 422.65,-54"/>

<text text-anchor="middle" x="386.65" y="-32.4" font-family="Times,serif" font-size="12">box3d</text></g>

<g id="node6" class="node" pointer-events="visible" data-name="S6" data-comment="A--C">

<polygon fill="burlywood" stroke="antiquewhite" stroke-width="0.5" points="4,-86 18.4,-86 18.4,-158 4,-158 4,-86"/>
<polygon fill="yellow" stroke="antiquewhite" stroke-width="0.5" points="18.4,-86 32.8,-86 32.8,-158 18.4,-158 18.4,-86"/>
<polygon fill="gold" stroke="antiquewhite" stroke-width="0.5" points="32.8,-86 47.2,-86 47.2,-158 32.8,-158 32.8,-86"/>
<polygon fill="oldlace" stroke="antiquewhite" stroke-width="0.5" points="47.2,-86 61.6,-86 61.6,-158 47.2,-158 47.2,-86"/>
<polygon fill="linen" stroke="antiquewhite" stroke-width="0.5" points="61.6,-86 76,-86 76,-158 61.6,-158 61.6,-86"/>
<polygon fill="none" stroke="antiquewhite" points="76,-158 4,-158 4,-86 76,-86 76,-158"/>
<text text-anchor="middle" x="40" y="-118.4" font-family="Times,serif" font-size="12">square</text>
</g>
<!-- C&#45;&#45;D --><!-- S7 -->
<g id="node7" class="node" pointer-events="visible" data-name="S7">

<polygon fill="burlywood" stroke="antiquewhite" stroke-width="0.5" points="96,-86 110.4,-86 110.4,-158 96,-158 96,-86"/>
<polygon fill="yellow" stroke="antiquewhite" stroke-width="0.5" points="110.4,-86 124.8,-86 124.8,-158 110.4,-158 110.4,-86"/>
<polygon fill="gold" stroke="antiquewhite" stroke-width="0.5" points="124.8,-86 139.2,-86 139.2,-158 124.8,-158 124.8,-86"/>
<polygon fill="oldlace" stroke="antiquewhite" stroke-width="0.5" points="139.2,-86 153.6,-86 153.6,-158 139.2,-158 139.2,-86"/>
<polygon fill="linen" stroke="antiquewhite" stroke-width="0.5" points="153.6,-86 168,-86 168,-158 153.6,-158 153.6,-86"/>
<polygon fill="none" stroke="antiquewhite" points="168,-158 96,-158 96,-86 168,-86 168,-158"/>
<text text-anchor="middle" x="132" y="-118.4" font-family="Times,serif" font-size="12">Msquare</text>
</g>
<!-- D&#45;&#45;A --><!-- S6&#45;&#45;S7 -->
<!-- S8 -->
<g id="node8" class="node" pointer-events="visible" data-name="S8">

<ellipse fill="red" stroke="antiquewhite" cx="220" cy="-122" rx="36" ry="36"/>
</g>
<!-- S7&#45;&#45;S8 -->
<!-- S9 -->
<g id="node9" class="node" pointer-events="visible" data-name="S9">

<path fill="rgb(222, 184, 135)" stroke="antiquewhite" d="M301.32,-122C301.32,-122 337.32,-122 337.32,-122 337.32,-122.94 337.29,-123.88 337.21,-124.82 337.14,-125.76 337.03,-126.7 336.88,-127.63 336.73,-128.56 336.55,-129.49 336.33,-130.4 336.11,-131.32 335.85,-132.23 335.56,-133.12 335.27,-134.02 334.94,-134.91 334.58,-135.78 334.22,-136.65 333.83,-137.5 333.4,-138.34 332.97,-139.18 332.51,-140.01 332.02,-140.81 331.53,-141.61 331,-142.4 330.45,-143.16 329.89,-143.92 329.31,-144.66 328.7,-145.38 328.09,-146.1 327.45,-146.79 326.78,-147.46 326.11,-148.12 325.42,-148.76 324.7,-149.37 323.99,-149.99 323.25,-150.57 322.48,-151.12 321.72,-151.68 320.94,-152.2 320.13,-152.7 319.33,-153.19 318.51,-153.65 317.67,-154.08 316.83,-154.5 315.97,-154.9 315.1,-155.26 314.23,-155.62 313.34,-155.95 312.45,-156.24 312.45,-156.24 301.32,-122 301.32,-122" stroke-width="0.5"/>
<path fill="yellow" stroke="antiquewhite" stroke-width="0.5" d="M301.32,-122C301.32,-122 312.45,-156.24 312.45,-156.24 311.55,-156.53 310.64,-156.79 309.73,-157.01 308.81,-157.23 307.89,-157.41 306.95,-157.56 306.02,-157.7 305.09,-157.82 304.15,-157.89 303.21,-157.96 302.27,-158 301.32,-158 300.38,-158 299.44,-157.96 298.5,-157.89 297.56,-157.82 296.62,-157.7 295.69,-157.56 294.76,-157.41 293.84,-157.23 292.92,-157.01 292,-156.79 291.09,-156.53 290.2,-156.24 289.3,-155.95 288.42,-155.62 287.55,-155.26 286.68,-154.9 285.82,-154.5 284.98,-154.08 284.14,-153.65 283.32,-153.19 282.51,-152.7 281.71,-152.2 280.93,-151.68 280.16,-151.12 279.4,-150.57 278.66,-149.99 277.94,-149.37 277.23,-148.76 276.53,-148.12 275.87,-147.46 275.2,-146.79 274.56,-146.1 273.95,-145.38 273.34,-144.66 272.75,-143.92 272.2,-143.16 272.2,-143.16 301.32,-122 301.32,-122"/>
<path fill="gold" stroke="antiquewhite" stroke-width="0.5" d="M301.32,-122C301.32,-122 272.2,-143.16 272.2,-143.16 271.64,-142.4 271.12,-141.61 270.63,-140.81 270.14,-140.01 269.67,-139.18 269.25,-138.34 268.82,-137.5 268.42,-136.65 268.06,-135.78 267.7,-134.91 267.38,-134.02 267.09,-133.12 266.79,-132.23 266.54,-131.32 266.32,-130.4 266.1,-129.49 265.91,-128.56 265.77,-127.63 265.62,-126.7 265.51,-125.76 265.43,-124.82 265.36,-123.88 265.32,-122.94 265.32,-122 265.32,-121.06 265.36,-120.12 265.43,-119.18 265.51,-118.24 265.62,-117.3 265.77,-116.37 265.91,-115.44 266.1,-114.51 266.32,-113.6 266.54,-112.68 266.79,-111.77 267.09,-110.88 267.38,-109.98 267.7,-109.09 268.06,-108.22 268.42,-107.35 268.82,-106.5 269.25,-105.66 269.67,-104.82 270.14,-103.99 270.63,-103.19 271.12,-102.39 271.64,-101.6 272.2,-100.84 272.2,-100.84 301.32,-122 301.32,-122"/>
<path fill="oldlace" stroke="antiquewhite" stroke-width="0.5" d="M301.32,-122C301.32,-122 272.2,-100.84 272.2,-100.84 272.75,-100.08 273.34,-99.34 273.95,-98.62 274.56,-97.9 275.2,-97.21 275.87,-96.54 276.53,-95.88 277.23,-95.24 277.94,-94.63 278.66,-94.01 279.4,-93.43 280.16,-92.88 280.93,-92.32 281.71,-91.8 282.51,-91.3 283.32,-90.81 284.14,-90.35 284.98,-89.92 285.82,-89.5 286.68,-89.1 287.55,-88.74 288.42,-88.38 289.3,-88.05 290.2,-87.76 291.09,-87.47 292,-87.21 292.92,-86.99 293.84,-86.77 294.76,-86.59 295.69,-86.44 296.62,-86.3 297.56,-86.18 298.5,-86.11 299.44,-86.04 300.38,-86 301.32,-86 302.27,-86 303.21,-86.04 304.15,-86.11 305.09,-86.18 306.02,-86.3 306.95,-86.44 307.89,-86.59 308.81,-86.77 309.73,-86.99 310.64,-87.21 311.55,-87.47 312.45,-87.76 312.45,-87.76 301.32,-122 301.32,-122"/>
<path fill="linen" stroke="antiquewhite" stroke-width="0.5" d="M301.32,-122C301.32,-122 312.45,-87.76 312.45,-87.76 313.34,-88.05 314.23,-88.38 315.1,-88.74 315.97,-89.1 316.83,-89.5 317.67,-89.92 318.51,-90.35 319.33,-90.81 320.13,-91.3 320.94,-91.8 321.72,-92.32 322.48,-92.88 323.25,-93.43 323.99,-94.01 324.7,-94.63 325.42,-95.24 326.11,-95.88 326.78,-96.54 327.45,-97.21 328.09,-97.9 328.7,-98.62 329.31,-99.34 329.89,-100.08 330.45,-100.84 331,-101.6 331.53,-102.39 332.02,-103.19 332.51,-103.99 332.97,-104.82 333.4,-105.66 333.83,-106.5 334.22,-107.35 334.58,-108.22 334.94,-109.09 335.27,-109.98 335.56,-110.88 335.85,-111.77 336.11,-112.68 336.33,-113.6 336.55,-114.51 336.73,-115.44 336.88,-116.37 337.03,-117.3 337.14,-118.24 337.21,-119.18 337.29,-120.12 337.32,-121.06 337.32,-122 337.32,-122 301.32,-122 301.32,-122"/>
<ellipse fill="none" stroke="antiquewhite" cx="301.32" cy="-122" rx="36" ry="36"/>
<polyline fill="none" stroke="antiquewhite" points="325.13,-149 277.51,-149"/>
<polyline fill="none" stroke="antiquewhite" points="325.13,-95 277.51,-95"/>
<text text-anchor="middle" x="301.32" y="-118.4" font-family="Times,serif" font-size="12">Mcircle</text>
</g>
<!-- S8&#45;&#45;S9 -->
<!-- S10 -->
<g id="node10" class="node" pointer-events="visible" data-name="S10">

<path fill="rgb(222, 184, 135)" stroke="antiquewhite" d="M386.65,-122C386.65,-122 422.65,-122 422.65,-122 422.65,-122.94 422.61,-123.88 422.54,-124.82 422.46,-125.76 422.35,-126.7 422.2,-127.63 422.06,-128.56 421.87,-129.49 421.65,-130.4 421.43,-131.32 421.18,-132.23 420.88,-133.12 420.59,-134.02 420.27,-134.91 419.91,-135.78 419.55,-136.65 419.15,-137.5 418.72,-138.34 418.29,-139.18 417.83,-140.01 417.34,-140.81 416.85,-141.61 416.32,-142.4 415.77,-143.16 415.22,-143.92 414.63,-144.66 414.02,-145.38 413.41,-146.1 412.77,-146.79 412.1,-147.46 411.44,-148.12 410.74,-148.76 410.03,-149.37 409.31,-149.99 408.57,-150.57 407.81,-151.12 407.04,-151.68 406.26,-152.2 405.46,-152.7 404.65,-153.19 403.83,-153.65 402.99,-154.08 402.15,-154.5 401.29,-154.9 400.42,-155.26 399.55,-155.62 398.67,-155.95 397.77,-156.24 397.77,-156.24 386.65,-122 386.65,-122" stroke-width="0.5"/>
<path fill="yellow" stroke="antiquewhite" stroke-width="0.5" d="M386.65,-122C386.65,-122 397.77,-156.24 397.77,-156.24 396.87,-156.53 395.97,-156.79 395.05,-157.01 394.13,-157.23 393.21,-157.41 392.28,-157.56 391.35,-157.7 390.41,-157.82 389.47,-157.89 388.53,-157.96 387.59,-158 386.65,-158 385.7,-158 384.76,-157.96 383.82,-157.89 382.88,-157.82 381.95,-157.7 381.01,-157.56 380.08,-157.41 379.16,-157.23 378.24,-157.01 377.33,-156.79 376.42,-156.53 375.52,-156.24 374.63,-155.95 373.74,-155.62 372.87,-155.26 372,-154.9 371.14,-154.5 370.3,-154.08 369.46,-153.65 368.64,-153.19 367.84,-152.7 367.03,-152.2 366.25,-151.68 365.49,-151.12 364.72,-150.57 363.98,-149.99 363.27,-149.37 362.55,-148.76 361.86,-148.12 361.19,-147.46 360.52,-146.79 359.88,-146.1 359.27,-145.38 358.66,-144.66 358.08,-143.92 357.52,-143.16 357.52,-143.16 386.65,-122 386.65,-122"/>
<path fill="gold" stroke="antiquewhite" stroke-width="0.5" d="M386.65,-122C386.65,-122 357.52,-143.16 357.52,-143.16 356.97,-142.4 356.44,-141.61 355.95,-140.81 355.46,-140.01 355,-139.18 354.57,-138.34 354.14,-137.5 353.75,-136.65 353.39,-135.78 353.03,-134.91 352.7,-134.02 352.41,-133.12 352.12,-132.23 351.86,-131.32 351.64,-130.4 351.42,-129.49 351.24,-128.56 351.09,-127.63 350.94,-126.7 350.83,-125.76 350.76,-124.82 350.68,-123.88 350.65,-122.94 350.65,-122 350.65,-121.06 350.68,-120.12 350.76,-119.18 350.83,-118.24 350.94,-117.3 351.09,-116.37 351.24,-115.44 351.42,-114.51 351.64,-113.6 351.86,-112.68 352.12,-111.77 352.41,-110.88 352.7,-109.98 353.03,-109.09 353.39,-108.22 353.75,-107.35 354.14,-106.5 354.57,-105.66 355,-104.82 355.46,-103.99 355.95,-103.19 356.44,-102.39 356.97,-101.6 357.52,-100.84 357.52,-100.84 386.65,-122 386.65,-122"/>
<path fill="oldlace" stroke="antiquewhite" stroke-width="0.5" d="M386.65,-122C386.65,-122 357.52,-100.84 357.52,-100.84 358.08,-100.08 358.66,-99.34 359.27,-98.62 359.88,-97.9 360.52,-97.21 361.19,-96.54 361.86,-95.88 362.55,-95.24 363.27,-94.63 363.98,-94.01 364.72,-93.43 365.49,-92.88 366.25,-92.32 367.03,-91.8 367.84,-91.3 368.64,-90.81 369.46,-90.35 370.3,-89.92 371.14,-89.5 372,-89.1 372.87,-88.74 373.74,-88.38 374.63,-88.05 375.52,-87.76 376.42,-87.47 377.33,-87.21 378.24,-86.99 379.16,-86.77 380.08,-86.59 381.01,-86.44 381.95,-86.3 382.88,-86.18 383.82,-86.11 384.76,-86.04 385.7,-86 386.65,-86 387.59,-86 388.53,-86.04 389.47,-86.11 390.41,-86.18 391.35,-86.3 392.28,-86.44 393.21,-86.59 394.13,-86.77 395.05,-86.99 395.97,-87.21 396.87,-87.47 397.77,-87.76 397.77,-87.76 386.65,-122 386.65,-122"/>
<path fill="linen" stroke="antiquewhite" stroke-width="0.5" d="M386.65,-122C386.65,-122 397.77,-87.76 397.77,-87.76 398.67,-88.05 399.55,-88.38 400.42,-88.74 401.29,-89.1 402.15,-89.5 402.99,-89.92 403.83,-90.35 404.65,-90.81 405.46,-91.3 406.26,-91.8 407.04,-92.32 407.81,-92.88 408.57,-93.43 409.31,-94.01 410.03,-94.63 410.74,-95.24 411.44,-95.88 412.1,-96.54 412.77,-97.21 413.41,-97.9 414.02,-98.62 414.63,-99.34 415.22,-100.08 415.77,-100.84 416.32,-101.6 416.85,-102.39 417.34,-103.19 417.83,-103.99 418.29,-104.82 418.72,-105.66 419.15,-106.5 419.55,-107.35 419.91,-108.22 420.27,-109.09 420.59,-109.98 420.88,-110.88 421.18,-111.77 421.43,-112.68 421.65,-113.6 421.87,-114.51 422.06,-115.44 422.2,-116.37 422.35,-117.3 422.46,-118.24 422.54,-119.18 422.61,-120.12 422.65,-121.06 422.65,-122 422.65,-122 386.65,-122 386.65,-122"/>
<ellipse fill="none" stroke="antiquewhite" cx="386.65" cy="-122" rx="36" ry="36"/>
<ellipse fill="none" stroke="antiquewhite" cx="386.65" cy="-122" rx="40" ry="40"/>
<text text-anchor="middle" x="386.65" y="-118.4" font-family="Times,serif" font-size="12">doublecircle</text>
</g>
<!-- S9&#45;&#45;S10 -->
<!-- S11 -->
<g id="node11" class="node" pointer-events="visible" data-name="S11">

<polygon fill="none" stroke="antiquewhite" points="40,-212 4,-194 40,-176 76,-194 40,-212"/>
<polyline fill="none" stroke="antiquewhite" points="14.73,-199.37 14.73,-188.63"/>
<polyline fill="none" stroke="antiquewhite" points="29.27,-181.37 50.73,-181.37"/>
<polyline fill="none" stroke="antiquewhite" points="65.27,-188.63 65.27,-199.37"/>
<polyline fill="none" stroke="antiquewhite" points="50.73,-206.63 29.27,-206.63"/>
<text text-anchor="middle" x="40" y="-190.4" font-family="Times,serif" font-size="12">Mdiamond</text>
</g>
<!-- S12 -->
<g id="node12" class="node" pointer-events="visible" data-name="S12">

<polygon fill="white" stroke="antiquewhite" points="135.53,-176.05 137.87,-176.15 140.18,-176.3 142.46,-176.49 144.7,-176.74 146.88,-177.03 149.01,-177.36 151.06,-177.75 153.04,-178.18 154.94,-178.65 156.74,-179.16 158.45,-179.71 160.05,-180.31 161.55,-180.94 162.94,-181.61 164.21,-182.31 165.36,-183.04 166.38,-183.8 167.29,-184.59 168.07,-185.41 168.72,-186.25 169.25,-187.11 169.66,-187.99 169.94,-188.89 170.11,-189.8 170.15,-190.72 170.08,-191.65 169.89,-192.59 169.6,-193.53 169.2,-194.47 168.7,-195.41 168.11,-196.35 167.42,-197.28 166.65,-198.2 165.8,-199.11 164.88,-200.01 163.88,-200.89 162.81,-201.75 161.69,-202.59 160.51,-203.41 159.28,-204.2 158.01,-204.96 156.69,-205.69 155.34,-206.39 153.96,-207.06 152.54,-207.69 151.1,-208.29 149.64,-208.84 148.16,-209.35 146.66,-209.82 145.15,-210.25 143.63,-210.64 142.1,-210.97 140.56,-211.26 139.01,-211.51 137.46,-211.7 135.9,-211.85 134.34,-211.95 132.78,-212 131.22,-212 129.66,-211.95 128.1,-211.85 126.54,-211.7 124.99,-211.51 123.44,-211.26 121.9,-210.97 120.37,-210.64 118.85,-210.25 117.34,-209.82 115.84,-209.35 114.36,-208.84 112.9,-208.29 111.46,-207.69 110.04,-207.06 108.66,-206.39 107.31,-205.69 105.99,-204.96 104.72,-204.2 103.49,-203.41 102.31,-202.59 101.19,-201.75 100.12,-200.89 99.12,-200.01 98.2,-199.11 97.35,-198.2 96.58,-197.28 95.89,-196.35 95.3,-195.41 94.8,-194.47 94.4,-193.53 94.11,-192.59 93.92,-191.65 93.85,-190.72 93.89,-189.8 94.06,-188.89 94.34,-187.99 94.75,-187.11 95.28,-186.25 95.93,-185.41 96.71,-184.59 97.62,-183.8 98.64,-183.04 99.79,-182.31 101.06,-181.61 102.45,-180.94 103.95,-180.31 105.55,-179.71 107.26,-179.16 109.06,-178.65 110.96,-178.18 112.94,-177.75 114.99,-177.36 117.12,-177.03 119.3,-176.74 121.54,-176.49 123.82,-176.3 126.13,-176.15 128.47,-176.05 130.82,-176 133.18,-176 135.53,-176.05"/>
<text text-anchor="middle" x="132" y="-190.4" font-family="Times,serif" font-size="12">egg</text>
</g>
<!-- S11&#45;&#45;S12 -->
<!-- S13 -->
<g id="node13" class="node" pointer-events="visible" data-name="S13">

<polygon fill="white" stroke="antiquewhite" points="256,-194 238,-212 202,-212 184,-194 202,-176 238,-176 256,-194"/>
<text text-anchor="middle" x="220" y="-190.4" font-family="Times,serif" font-size="12">polygon</text>
</g>
<!-- S12&#45;&#45;S13 -->
<!-- S14 -->
<g id="node14" class="node" pointer-events="visible" data-name="S14">

<text text-anchor="middle" x="301.32" y="-190.4" font-family="Times,serif" font-size="12">plain</text>
</g>
<!-- S13&#45;&#45;S14 -->
<!-- S15 -->
<g id="node15" class="node" pointer-events="visible" data-name="S15">

<polygon fill="yellow" stroke="none" stroke-width="0.5" points="365.05,-176 379.45,-176 379.45,-212 365.05,-212 365.05,-176" style=""/>
<polygon fill="gold" stroke="none" stroke-width="0.5" points="379.45,-176 393.85,-176 393.85,-212 379.45,-212 379.45,-176" style=""/>
<polygon fill="oldlace" stroke="none" stroke-width="0.5" points="393.85,-176 408.25,-176 408.25,-212 393.85,-212 393.85,-176" style=""/>
<polygon fill="linen" stroke="none" stroke-width="0.5" points="408.25,-176 422.65,-176 422.65,-212 408.25,-212 408.25,-176" style=""/>
<polygon fill="none" stroke="none" points="422.65,-212 350.65,-212 350.65,-176 422.65,-176 422.65,-212" style=""/>
<text text-anchor="middle" x="386.65" y="-190.4" font-family="Times,serif" font-size="12">plaintext</text><polygon fill="burlywood" stroke="none" stroke-width="0.5" points="350.65,-176 365.05,-176 365.05,-212 350.65,-212 350.65,-176" style=""/>

</g>
<!-- S14&#45;&#45;S15 -->
<!-- S16 -->
<g id="node16" class="node" pointer-events="visible" data-name="S16">

<polygon fill="none" stroke="antiquewhite" points="40,-262 4,-235 76,-235 40,-262"/>
<text text-anchor="middle" x="40" y="-240.4" font-family="Times,serif" font-size="12">triangle</text>
</g>
<!-- S17 -->
<g id="node17" class="node" pointer-events="visible" data-name="S17">

<polygon fill="none" stroke="antiquewhite" points="132,-226 168,-253 96,-253 132,-226"/>
<text text-anchor="middle" x="132" y="-240.4" font-family="Times,serif" font-size="12">invtriangle</text>
</g>
<!-- S16&#45;&#45;S17 -->
<!-- S18 -->
<g id="node18" class="node" pointer-events="visible" data-name="S18">

<polygon fill="none" stroke="antiquewhite" points="241.02,-262 198.98,-262 184,-226 256,-226 241.02,-262"/>
<text text-anchor="middle" x="220" y="-240.4" font-family="Times,serif" font-size="12">trapezium</text>
</g>
<!-- S17&#45;&#45;S18 -->
<!-- S19 -->
<g id="node19" class="node" pointer-events="visible" data-name="S19">

<polygon fill="none" stroke="antiquewhite" points="338.47,-262 279.38,-262 264.18,-226 323.27,-226 338.47,-262"/>
<text text-anchor="middle" x="301.32" y="-240.4" font-family="Times,serif" font-size="12">parallelogram</text>
</g>
<!-- S18&#45;&#45;S19 -->
<!-- S20 -->
<g id="node20" class="node" pointer-events="visible" data-name="S20">

<polygon fill="none" stroke="antiquewhite" points="422.65,-249.56 386.65,-262 350.65,-249.56 350.68,-229.44 422.61,-229.44 422.65,-249.56"/>
<text text-anchor="middle" x="386.65" y="-240.4" font-family="Times,serif" font-size="12">house</text>
</g>
<!-- S19&#45;&#45;S20 -->
<!-- S21 -->
<g id="node21" class="node" pointer-events="visible" data-name="S21">

<polygon fill="none" stroke="antiquewhite" points="76,-315.56 40,-328 4,-315.56 17.75,-295.44 62.25,-295.44 76,-315.56"/>
<text text-anchor="middle" x="40" y="-306.4" font-family="Times,serif" font-size="12">pentagon</text>
</g>
<!-- S22 -->
<g id="node22" class="node" pointer-events="visible" data-name="S22">

<polygon fill="none" stroke="antiquewhite" points="168,-310 150,-328 114,-328 96,-310 114,-292 150,-292 168,-310"/>
<text text-anchor="middle" x="132" y="-306.4" font-family="Times,serif" font-size="12">hexagon</text>
</g>
<!-- S21&#45;&#45;S22 -->
<!-- S23 -->
<g id="node23" class="node" pointer-events="visible" data-name="S23">

<polygon fill="none" stroke="antiquewhite" points="256,-305.99 248.87,-321.22 220,-328 191.13,-321.22 184,-305.99 203.98,-293.78 236.02,-293.78 256,-305.99"/>
<text text-anchor="middle" x="220" y="-306.4" font-family="Times,serif" font-size="12">septagon</text>
</g>
<!-- S22&#45;&#45;S23 -->
<!-- S24 -->
<g id="node24" class="node" pointer-events="visible" data-name="S24">

<polygon fill="none" stroke="antiquewhite" points="337.32,-302.54 337.32,-317.46 316.23,-328 286.41,-328 265.32,-317.46 265.32,-302.54 286.41,-292 316.23,-292 337.32,-302.54"/>
<text text-anchor="middle" x="301.32" y="-306.4" font-family="Times,serif" font-size="12">octagon</text>
</g>
<!-- S23&#45;&#45;S24 -->
<!-- S25 -->
<g id="node25" class="node" pointer-events="visible" data-name="S25">

<polygon fill="none" stroke="antiquewhite" points="422.65,-318.14 395.14,-318.14 386.65,-344.48 378.15,-318.14 350.65,-318.14 372.9,-301.86 364.4,-275.52 386.65,-291.8 408.9,-275.52 400.4,-301.86 422.65,-318.14"/>
<text text-anchor="middle" x="386.65" y="-306.4" font-family="Times,serif" font-size="12">star</text>
</g>
<!-- S24&#45;&#45;S25 -->
<!-- S26 -->
<g id="node26" class="node" pointer-events="visible" data-name="S26">

<polygon fill="none" stroke="antiquewhite" points="76,-368.54 76,-383.46 54.91,-394 25.09,-394 4,-383.46 4,-368.54 25.09,-358 54.91,-358 76,-368.54"/>
<polygon fill="none" stroke="antiquewhite" points="80,-366.07 80,-385.93 55.86,-398 24.14,-398 0,-385.93 0,-366.07 24.14,-354 55.86,-354 80,-366.07"/>
<text text-anchor="middle" x="40" y="-372.4" font-family="Times,serif" font-size="12">doubleoctagon</text>
</g>
<!-- S27 -->
<g id="node27" class="node" pointer-events="visible" data-name="S27">

<polygon fill="none" stroke="antiquewhite" points="168,-368.54 168,-383.46 146.91,-394 117.09,-394 96,-383.46 96,-368.54 117.09,-358 146.91,-358 168,-368.54"/>
<polygon fill="none" stroke="antiquewhite" points="172,-366.07 172,-385.93 147.86,-398 116.14,-398 92,-385.93 92,-366.07 116.14,-354 147.86,-354 172,-366.07"/>
<polygon fill="none" stroke="antiquewhite" points="176,-363.6 176,-388.4 148.8,-402 115.2,-402 88,-388.4 88,-363.6 115.2,-350 148.8,-350 176,-363.6"/>
<text text-anchor="middle" x="132" y="-372.4" font-family="Times,serif" font-size="12">tripleoctagon</text>
</g>
<!-- S26&#45;&#45;S27 -->
<!-- S28 -->
<g id="node28" class="node" pointer-events="visible" data-name="S28">

<polygon fill="none" stroke="antiquewhite" points="220,-394 184,-376 220,-358 256,-376 220,-394"/>
<text text-anchor="middle" x="220" y="-372.4" font-family="Times,serif" font-size="12">diamond</text>
</g>
<!-- S27&#45;&#45;S28 -->
<!-- S29 -->
<g id="node29" class="node" pointer-events="visible" data-name="S29">

<polygon fill="none" stroke="antiquewhite" points="280.3,-358 322.35,-358 337.32,-394 265.32,-394 280.3,-358"/>
<text text-anchor="middle" x="301.32" y="-372.4" font-family="Times,serif" font-size="12">invtrapezium</text>
</g>
<!-- S28&#45;&#45;S29 -->
<!-- S30 -->
<g id="node30" class="node" pointer-events="visible" data-name="S30">

<polygon fill="none" stroke="antiquewhite" points="350.65,-370.44 386.65,-358 422.65,-370.44 422.61,-390.56 350.68,-390.56 350.65,-370.44"/>
<text text-anchor="middle" x="386.65" y="-372.4" font-family="Times,serif" font-size="12">invhouse</text>
</g>
<!-- S29&#45;&#45;S30 -->
<!-- S31 -->
<g id="node31" class="node" pointer-events="visible" data-name="S31">

<polygon fill="none" stroke="antiquewhite" points="76,-452 4,-452 4,-416 76,-416 76,-452"/>
<text text-anchor="middle" x="40" y="-430.4" font-family="Times,serif" font-size="12">rect</text>
</g>
<!-- S32 -->
<g id="node32" class="node" pointer-events="visible" data-name="S32">

<polygon fill="none" stroke="antiquewhite" points="168,-452 96,-452 96,-416 168,-416 168,-452"/>
<text text-anchor="middle" x="132" y="-430.4" font-family="Times,serif" font-size="12">rectangle</text>
</g>
<!-- S31&#45;&#45;S32 -->
<!-- S33 -->
<g id="node33" class="node" pointer-events="visible" data-name="S33">

<text text-anchor="middle" x="220" y="-430.4" font-family="Times,serif" font-size="12">none</text>
</g>
<!-- S32&#45;&#45;S33 -->
<!-- S34 -->
<g id="node34" class="node" pointer-events="visible" data-name="S34">

<polygon fill="none" stroke="none" points="337.32,-452 265.32,-452 265.32,-416 337.32,-416 337.32,-452"/>
<polyline fill="none" stroke="antiquewhite" points="265.32,-416 337.32,-416"/>
<text text-anchor="middle" x="301.32" y="-430.4" font-family="Times,serif" font-size="12">underline</text>
</g>
<!-- S33&#45;&#45;S34 -->
<!-- S35 -->
<g id="node35" class="node" pointer-events="visible" data-name="S35">

<path fill="none" stroke="antiquewhite" d="M422.65,-448.73C422.65,-450.53 406.51,-452 386.65,-452 366.78,-452 350.65,-450.53 350.65,-448.73 350.65,-448.73 350.65,-419.27 350.65,-419.27 350.65,-417.47 366.78,-416 386.65,-416 406.51,-416 422.65,-417.47 422.65,-419.27 422.65,-419.27 422.65,-448.73 422.65,-448.73"/>
<path fill="none" stroke="antiquewhite" d="M422.65,-448.73C422.65,-446.92 406.51,-445.45 386.65,-445.45 366.78,-445.45 350.65,-446.92 350.65,-448.73"/>
<text text-anchor="middle" x="386.65" y="-430.4" font-family="Times,serif" font-size="12">cylinder</text>
</g>
<!-- S34&#45;&#45;S35 -->
<!-- S36 -->
<g id="node36" class="node" pointer-events="visible" data-name="S36">

<polygon fill="none" stroke="antiquewhite" points="70,-502 4,-502 4,-466 76,-466 76,-496 70,-502"/>
<polyline fill="none" stroke="antiquewhite" points="70,-502 70,-496"/>
<polyline fill="none" stroke="antiquewhite" points="76,-496 70,-496"/>
<text text-anchor="middle" x="40" y="-480.4" font-family="Times,serif" font-size="12">note</text>
</g>
<!-- S37 -->
<g id="node37" class="node" pointer-events="visible" data-name="S37">

<polygon fill="none" stroke="antiquewhite" points="168,-502 108,-502 108,-506 96,-506 96,-466 168,-466 168,-502"/>
<polyline fill="none" stroke="antiquewhite" points="96,-502 108,-502"/>
<text text-anchor="middle" x="132" y="-480.4" font-family="Times,serif" font-size="12">tab</text>
</g>
<!-- S36&#45;&#45;S37 -->
<!-- S38 -->
<g id="node38" class="node" pointer-events="visible" data-name="S38">

<polygon fill="none" stroke="antiquewhite" points="256,-502 253,-506 232,-506 229,-502 184,-502 184,-466 256,-466 256,-502"/>
<text text-anchor="middle" x="220" y="-480.4" font-family="Times,serif" font-size="12">folder</text>
</g>
<!-- S37&#45;&#45;S38 -->
<!-- S39 -->
<g id="node39" class="node" pointer-events="visible" data-name="S39">

<polygon fill="none" stroke="antiquewhite" points="337.32,-502 265.32,-502 265.32,-498 261.32,-498 261.32,-494 265.32,-494 265.32,-474 261.32,-474 261.32,-470 265.32,-470 265.32,-466 337.32,-466 337.32,-502"/>
<polyline fill="none" stroke="antiquewhite" points="265.32,-498 269.32,-498 269.32,-494 265.32,-494"/>
<polyline fill="none" stroke="antiquewhite" points="265.32,-474 269.32,-474 269.32,-470 265.32,-470"/>
<text text-anchor="middle" x="301.32" y="-480.4" font-family="Times,serif" font-size="12">component</text>
</g>
<!-- S38&#45;&#45;S39 -->
<!-- S40 -->
<g id="node40" class="node" pointer-events="visible" data-name="S40">

<polygon fill="none" stroke="antiquewhite" points="395.65,-502 368.65,-502 368.65,-484 374.65,-484 374.65,-496 395.65,-496 395.65,-493 407.65,-499 395.65,-505 395.65,-502"/>
<polyline fill="none" stroke="antiquewhite" points="350.65,-484 422.65,-484"/>
<text text-anchor="middle" x="386.65" y="-463.2" font-family="Times,serif" font-size="12">promoter</text>
</g>
<!-- S39&#45;&#45;S40 -->
<!-- S41 -->
<g id="node41" class="node" pointer-events="visible" data-name="S41">

<polygon fill="none" stroke="antiquewhite" points="64,-546 4,-546 4,-522 64,-522 76,-534 64,-546"/>
<text text-anchor="middle" x="40" y="-530.4" font-family="Times,serif" font-size="12">cds</text>
</g>
<!-- S42 -->
<g id="node42" class="node" pointer-events="visible" data-name="S42">

<polygon fill="none" stroke="antiquewhite" points="168,-546 96,-546 96,-522 168,-522 168,-546"/>
<polyline fill="none" stroke="antiquewhite" points="99,-535.5 102,-532.5"/>
<polyline fill="none" stroke="antiquewhite" points="99,-532.5 102,-535.5"/>
<polyline fill="none" stroke="antiquewhite" points="99,-525 165,-525"/>
<text text-anchor="middle" x="132" y="-530.4" font-family="Times,serif" font-size="12">signature</text>
</g>
<!-- S41&#45;&#45;S42 -->
<!-- S43 -->
<g id="node43" class="node" pointer-events="visible" data-name="S43">

<polygon fill="none" stroke="antiquewhite" points="229,-534 229,-537 223,-543 217,-543 211,-537 211,-534 229,-534"/>
<polyline fill="none" stroke="antiquewhite" points="184,-534 256,-534"/>
<text text-anchor="middle" x="220" y="-513.2" font-family="Times,serif" font-size="12">utr</text>
</g>
<!-- S42&#45;&#45;S43 -->
<!-- S44 -->
<g id="node44" class="node" pointer-events="visible" data-name="S44">

<polygon fill="none" stroke="antiquewhite" points="313.32,-537 301.32,-549 301.32,-543 283.32,-543 283.32,-537 313.32,-537"/>
<polyline fill="none" stroke="antiquewhite" points="265.32,-534 337.32,-534"/>
<text text-anchor="middle" x="301.32" y="-513.2" font-family="Times,serif" font-size="12">primersite</text>
</g>
<!-- S43&#45;&#45;S44 -->
<!-- S45 -->
<g id="node45" class="node" pointer-events="visible" data-name="S45">

<polygon fill="none" stroke="antiquewhite" points="401.65,-537 377.65,-537 377.65,-543 371.65,-543 371.65,-531 395.65,-531 395.65,-525 401.65,-525 401.65,-537"/>
<polyline fill="none" stroke="antiquewhite" points="350.65,-534 371.65,-534"/>
<polyline fill="none" stroke="antiquewhite" points="401.65,-534 422.65,-534"/>
<text text-anchor="middle" x="386.65" y="-513.2" font-family="Times,serif" font-size="12">restrictionsite</text>
</g>
<!-- S44&#45;&#45;S45 -->
<!-- S46 -->
<g id="node46" class="node" pointer-events="visible" data-name="S46">

<polygon fill="none" stroke="antiquewhite" points="4,-585.5 28,-585.5 28,-591.5 4,-591.5 4,-585.5"/>
<polygon fill="none" stroke="antiquewhite" points="16,-576.5 28,-576.5 28,-582.5 16,-582.5 16,-576.5"/>
<polyline fill="none" stroke="antiquewhite" points="28,-584 76,-584"/>
<text text-anchor="middle" x="40" y="-563.2" font-family="Times,serif" font-size="12">fivepoverhang</text>
</g>
<!-- S47 -->
<g id="node47" class="node" pointer-events="visible" data-name="S47">

<polygon fill="none" stroke="antiquewhite" points="168,-585.5 168,-591.5 144,-591.5 144,-585.5 168,-585.5"/>
<polygon fill="none" stroke="antiquewhite" points="156,-576.5 156,-582.5 144,-582.5 144,-576.5 156,-576.5"/>
<polyline fill="none" stroke="antiquewhite" points="96,-584 144,-584"/>
<text text-anchor="middle" x="132" y="-563.2" font-family="Times,serif" font-size="12">threepoverhang</text>
</g>
<!-- S46&#45;&#45;S47 -->
<!-- S48 -->
<g id="node48" class="node" pointer-events="visible" data-name="S48">

<polygon fill="none" stroke="antiquewhite" points="206.5,-585.5 218.5,-585.5 218.5,-591.5 206.5,-591.5 206.5,-585.5"/>
<polygon fill="none" stroke="antiquewhite" points="206.5,-576.5 218.5,-576.5 218.5,-582.5 206.5,-582.5 206.5,-576.5"/>
<polygon fill="none" stroke="antiquewhite" points="221.5,-576.5 233.5,-576.5 233.5,-582.5 221.5,-582.5 221.5,-576.5"/>
<polygon fill="none" stroke="antiquewhite" points="221.5,-585.5 233.5,-585.5 233.5,-591.5 221.5,-591.5 221.5,-585.5"/>
<polyline fill="none" stroke="antiquewhite" points="233.5,-584 256,-584"/>
<polyline fill="none" stroke="antiquewhite" points="206.5,-584 184,-584"/>
<text text-anchor="middle" x="220" y="-563.2" font-family="Times,serif" font-size="12">noverhang</text>
</g>
<!-- S47&#45;&#45;S48 -->
<!-- S49 -->
<g id="node49" class="node" pointer-events="visible" data-name="S49">

<polygon fill="none" stroke="antiquewhite" points="289.32,-585.5 313.32,-585.5 313.32,-591.5 289.32,-591.5 289.32,-585.5"/>
<polygon fill="none" stroke="antiquewhite" points="289.32,-576.5 313.32,-576.5 313.32,-582.5 289.32,-582.5 289.32,-576.5"/>
<polyline fill="none" stroke="antiquewhite" points="313.32,-584 337.32,-584"/>
<polyline fill="none" stroke="antiquewhite" points="265.32,-584 289.32,-584"/>
<text text-anchor="middle" x="301.32" y="-563.2" font-family="Times,serif" font-size="12">assembly</text>
</g>
<!-- S48&#45;&#45;S49 -->
<!-- S50 -->
<g id="node50" class="node" pointer-events="visible" data-name="S50">

<polygon fill="none" stroke="antiquewhite" points="389.65,-584 389.65,-590 395.65,-590 395.65,-596 377.65,-596 377.65,-590 383.65,-590 383.65,-584 389.65,-584"/>
<polyline fill="none" stroke="antiquewhite" points="350.65,-584 422.65,-584"/>
<text text-anchor="middle" x="386.65" y="-563.2" font-family="Times,serif" font-size="12">terminator</text>
</g>
<!-- S49&#45;&#45;S50 -->
<!-- S51 -->
<g id="node51" class="node" pointer-events="visible" data-name="S51">

<polygon fill="none" stroke="antiquewhite" points="46,-640 46,-628 34,-628 34,-640 46,-640"/>
<polyline fill="none" stroke="antiquewhite" points="49,-643 49,-625 31,-625 31,-643 49,-643"/>
<polyline fill="none" stroke="antiquewhite" points="49,-634 76,-634"/>
<polyline fill="none" stroke="antiquewhite" points="4,-634 31,-634"/>
<text text-anchor="middle" x="40" y="-613.2" font-family="Times,serif" font-size="12">insulator</text>
</g>
<!-- S52 -->
<g id="node52" class="node" pointer-events="visible" data-name="S52">

<polygon fill="none" stroke="antiquewhite" points="135,-640 135,-641.5 133.5,-643 135,-644.5 135,-646 133.5,-646 132,-644.5 130.5,-646 129,-646 129,-644.5 130.5,-643 129,-641.5 129,-640 130.5,-640 132,-641.5 133.5,-640 135,-640"/>
<polyline fill="none" stroke="antiquewhite" points="132,-634 132,-635.5"/>
<polyline fill="none" stroke="antiquewhite" points="132,-637 132,-638.5"/>
<polyline fill="none" stroke="antiquewhite" points="96,-634 168,-634"/>
<text text-anchor="middle" x="132" y="-613.2" font-family="Times,serif" font-size="12">ribosite</text>
</g>
<!-- S51&#45;&#45;S52 -->
<!-- S53 -->
<g id="node53" class="node" pointer-events="visible" data-name="S53">

<polygon fill="none" stroke="antiquewhite" points="221.5,-640 223,-641.5 223,-644.5 221.5,-646 218.5,-646 217,-644.5 217,-641.5 218.5,-640 221.5,-640"/>
<polyline fill="none" stroke="antiquewhite" points="220,-634 220,-635.5"/>
<polyline fill="none" stroke="antiquewhite" points="220,-637 220,-638.5"/>
<polyline fill="none" stroke="antiquewhite" points="184,-634 256,-634"/>
<text text-anchor="middle" x="220" y="-613.2" font-family="Times,serif" font-size="12">rnastab</text>
</g>
<!-- S52&#45;&#45;S53 -->
<!-- S54 -->
<g id="node54" class="node" pointer-events="visible" data-name="S54">

<polygon fill="none" stroke="antiquewhite" points="304.32,-640 304.32,-641.5 302.82,-643 304.32,-644.5 304.32,-646 302.82,-646 301.32,-644.5 299.82,-646 298.32,-646 298.32,-644.5 299.82,-643 298.32,-641.5 298.32,-640 299.82,-640 301.32,-641.5 302.82,-640 304.32,-640"/>
<polyline fill="none" stroke="antiquewhite" points="301.32,-641.5 301.32,-634"/>
<polyline fill="none" stroke="antiquewhite" points="265.32,-634 337.32,-634"/>
<text text-anchor="middle" x="301.32" y="-613.2" font-family="Times,serif" font-size="12">proteasesite</text>
</g>
<!-- S53&#45;&#45;S54 -->
<!-- S55 -->
<g id="node55" class="node" pointer-events="visible" data-name="S55">

<polygon fill="none" stroke="antiquewhite" points="388.15,-640 389.65,-641.5 389.65,-644.5 388.15,-646 385.15,-646 383.65,-644.5 383.65,-641.5 385.15,-640 388.15,-640"/>
<polyline fill="none" stroke="antiquewhite" points="386.65,-640 386.65,-634"/>
<polyline fill="none" stroke="antiquewhite" points="350.65,-634 422.65,-634"/>
<text text-anchor="middle" x="386.65" y="-613.2" font-family="Times,serif" font-size="12">proteinstab</text>
</g>
<!-- S54&#45;&#45;S55 -->
<!-- S56 -->
<g id="node56" class="node" pointer-events="visible" data-name="S56">

<polygon fill="none" stroke="antiquewhite" points="58,-696 4,-696 4,-666 22,-666 22,-672 58,-672 58,-666 76,-684 58,-702 58,-696"/>
<text text-anchor="middle" x="40" y="-680.4" font-family="Times,serif" font-size="12">rpromoter</text>
</g>
<!-- S57 -->
<g id="node57" class="node" pointer-events="visible" data-name="S57">

<polygon fill="none" stroke="antiquewhite" points="150,-696 96,-696 96,-672 150,-672 150,-666 168,-684 150,-702 150,-696"/>
<text text-anchor="middle" x="132" y="-680.4" font-family="Times,serif" font-size="12">rarrow</text>
</g>
<!-- S56&#45;&#45;S57 -->
<!-- S58 -->
<g id="node58" class="node" pointer-events="visible" data-name="S58">

<polygon fill="none" stroke="antiquewhite" points="256,-696 202,-696 202,-702 184,-684 202,-666 202,-672 256,-672 256,-696"/>
<text text-anchor="middle" x="220" y="-680.4" font-family="Times,serif" font-size="12">larrow</text>
</g>
<!-- S57&#45;&#45;S58 -->
<!-- S59 -->
<g id="node59" class="node" pointer-events="visible" data-name="S59">

<polygon fill="none" stroke="antiquewhite" points="337.32,-696 283.32,-696 283.32,-702 265.32,-684 283.32,-666 283.32,-672 319.32,-672 319.32,-666 337.32,-666 337.32,-696"/>
<text text-anchor="middle" x="301.32" y="-680.4" font-family="Times,serif" font-size="12">lpromoter</text>
</g>
<!-- S58&#45;&#45;S59 -->
</g>
<![CDATA[source

#!/usr/bin/env -S dot -Tsvg -o graphviz_shapes.svg
#!/usr/bin/env -S plantumlc -tsvg -O

graph NodeShapes {
  // layout  = osage
  // pack    = true
  // packmode= array_6
  node [fontsize=12 width=1.0 fixedsize=true]
  node [style="wedged" color=antiquewhite]
  node [fillcolor="burlywood:yellow:gold:oldlace:linen"]
  nodesep = 0.2
  ranksep = 0.1
  rankdir = LR

  subgraph rannking {
    S1 --S2 --S3 --S4 --S5  [style=invis]
    S6 --S7 --S8 --S9 --S10 [style=invis]
    S11--S12--S13--S14--S15 [style=invis]
    S16--S17--S18--S19--S20 [style=invis]
    S21--S22--S23--S24--S25 [style=invis]
    S26--S27--S28--S29--S30 [style=invis]
    S31--S32--S33--S34--S35 [style=invis]
    S36--S37--S38--S39--S40 [style=invis]
    S41--S42--S43--S44--S45 [style=invis]
    S46--S47--S48--S49--S50 [style=invis]
    S51--S52--S53--S54--S55 [style=invis]
    S56--S57--S58--S59      [style=invis]
  }

  S1  [label="ellipse"         shape=ellipse ]
  S2  [label="oval"            shape=oval ]
  S3  [label="circle"          shape=circle ]
  S4  [label="box"             shape=box          style="striped"]
  S5  [label="box3d"           shape=box3d ]
  S6  [label="square"          shape=square       style="striped"]
  S7  [label="Msquare"         shape=Msquare      style="striped"]
  S8  [label="point"           shape=point        fillcolor=red]
  S9  [label="Mcircle"         shape=Mcircle ]
  S10 [label="doublecircle"    shape=doublecircle ]
  S11 [label="Mdiamond"        shape=Mdiamond ]
  S12 [label="egg"             shape=egg ]
  S13 [label="polygon"         shape=polygon      sides="6"]
  S14 [label="plain"           shape=plain ]
  S15 [label="plaintext"       shape=plaintext    style="striped"]
  S16 [label="triangle"        shape=triangle ]
  S17 [label="invtriangle"     shape=invtriangle ]
  S18 [label="trapezium"       shape=trapezium ]
  S19 [label="parallelogram"   shape=parallelogram ]
  S20 [label="house"           shape=house ]
  S21 [label="pentagon"        shape=pentagon ]
  S22 [label="hexagon"         shape=hexagon ]
  S23 [label="septagon"        shape=septagon ]
  S24 [label="octagon"         shape=octagon ]
  S25 [label="star"            shape=star ]
  S26 [label="doubleoctagon"   shape=doubleoctagon ]
  S27 [label="tripleoctagon"   shape=tripleoctagon ]
  S28 [label="diamond"         shape=diamond ]
  S29 [label="invtrapezium"    shape=invtrapezium ]
  S30 [label="invhouse"        shape=invhouse ]
  S31 [label="rect"            shape=rect ]
  S32 [label="rectangle"       shape=rectangle ]
  S33 [label="none"            shape=none ]
  S34 [label="underline"       shape=underline ]
  S35 [label="cylinder"        shape=cylinder ]
  S36 [label="note"            shape=note ]
  S37 [label="tab"             shape=tab ]
  S38 [label="folder"          shape=folder ]
  S39 [label="component"       shape=component ]
  S41 [label="cds"             shape=cds ]
  S42 [label="signature"       shape=signature ]

  S40 [label="\n\npromoter"        labelloc=t shape="promoter" ]
  S43 [label="\n\nutr"             labelloc=t shape="utr" ]
  S44 [label="\n\nprimersite"      labelloc=t shape="primersite" ]
  S45 [label="\n\nrestrictionsite" labelloc=t shape="restrictionsite" ]
  S46 [label="\n\nfivepoverhang"   labelloc=t shape="fivepoverhang" ]
  S47 [label="\n\nthreepoverhang"  labelloc=t shape="threepoverhang" ]
  S48 [label="\n\nnoverhang"       labelloc=t shape="noverhang" ]
  S49 [label="\n\nassembly"        labelloc=t shape="assembly" ]
  S50 [label="\n\nterminator"      labelloc=t shape="terminator" ]
  S51 [label="\n\ninsulator"       labelloc=t shape="insulator" ]
  S52 [label="\n\nribosite"        labelloc=t shape="ribosite" ]
  S53 [label="\n\nrnastab"         labelloc=t shape="rnastab" ]
  S54 [label="\n\nproteasesite"    labelloc=t shape="proteasesite" ]
  S55 [label="\n\nproteinstab"     labelloc=t shape="proteinstab" ]

  S56 [label="rpromoter"         height=0.5 shape=rpromoter ]
  S57 [label="rarrow"            height=0.5 shape=rarrow ]
  S58 [label="larrow"            height=0.5 shape=larrow ]
  S59 [label="lpromoter"         height=0.5 shape=lpromoter ]
}
]]>
</svg>