<?xml version="1.0" encoding="UTF-8" standalone="no"?>
<!DOCTYPE svg PUBLIC "-//W3C//DTD SVG 1.1//EN"
 "http://www.w3.org/Graphics/SVG/1.1/DTD/svg11.dtd">
<!-- Generated by graphviz version 12.2.1 (20241206.2353)
 -->
<!-- Title: gv_basic_structure Pages: 1 -->
<svg width="1300pt" height="977pt"
 viewBox="0.00 0.00 1300.45 976.71" xmlns="http://www.w3.org/2000/svg" xmlns:xlink="http://www.w3.org/1999/xlink">
<g id="graph0" class="graph" transform="scale(1 1) rotate(0) translate(4 972.71)">
<title>gv_basic_structure</title>
<polygon fill="white" stroke="none" points="-4,4 -4,-972.71 1296.45,-972.71 1296.45,4 -4,4"/>
<text text-anchor="start" x="642.85" y="-34.4" font-family="Times New Roman,serif" font-size="28.00"> </text>
<text text-anchor="start" x="488.72" y="-6.4" font-family="Times New Roman,serif" font-weight="bold" font-size="28.00">Graphviz Basic Structure</text>
<text text-anchor="start" x="796.97" y="-6.4" font-family="Times New Roman,serif" font-size="28.00"> </text>
<!-- graphviz -->
<g id="node1" class="node">
<title>graphviz</title>
<g id="a_node1"><a xlink:href="https://graphviz.org/" xlink:title="Graphviz">
<ellipse fill="yellowgreen" stroke="yellowgreen" cx="617.47" cy="-876" rx="69.65" ry="69.65"/>
<ellipse fill="none" stroke="yellowgreen" cx="617.47" cy="-876" rx="73.65" ry="73.65"/>
<text text-anchor="middle" x="617.47" y="-867.85" font-family="Times New Roman,serif" font-size="22.00">Graphviz</text>
</a>
</g>
</g>
<!-- script -->
<g id="node2" class="node">
<title>script</title>
<g id="a_node2"><a xlink:href="https://graphviz.org/doc/info/lang.html" xlink:title="Dot Script">
<ellipse fill="darkorange" stroke="darkorange" cx="838.47" cy="-876" rx="75.48" ry="75.48"/>
<text text-anchor="middle" x="838.47" y="-867.85" font-family="Times New Roman,serif" font-size="22.00">Dot Script</text>
</a>
</g>
</g>
<!-- graphviz&#45;&gt;script -->
<g id="edge2" class="edge">
<title>graphviz&#45;&gt;script</title>
<path fill="none" stroke="black" d="M691.28,-876C711.24,-876 731.19,-876 751.15,-876"/>
<polygon fill="black" stroke="black" points="751.06,-879.5 761.06,-876 751.06,-872.5 751.06,-879.5"/>
</g>
<!-- layout -->
<g id="node3" class="node">
<title>layout</title>
<g id="a_node3"><a xlink:href="https://graphviz.org/docs/layouts/" xlink:title="Layout Engines">
<ellipse fill="burlywood" stroke="burlywood" cx="462.47" cy="-416" rx="109.96" ry="109.96"/>
<text text-anchor="middle" x="462.47" y="-407.85" font-family="Times New Roman,serif" font-size="22.00">Layout Engines</text>
</a>
</g>
</g>
<!-- graphviz&#45;&gt;layout -->
<g id="edge1" class="edge">
<title>graphviz&#45;&gt;layout</title>
<path fill="none" stroke="black" d="M555.08,-835.96C523.57,-812.5 488.31,-779.58 470.47,-740.36 441.67,-677.07 438.86,-599.36 443.63,-535.99"/>
<polygon fill="black" stroke="black" points="447.1,-536.5 444.44,-526.24 440.12,-535.91 447.1,-536.5"/>
</g>
<!-- api -->
<g id="node4" class="node">
<title>api</title>
<g id="a_node4"><a xlink:href="https://www.graphviz.org/docs/library/" xlink:title="APIs">
<ellipse fill="ivory" stroke="ivory" cx="515.47" cy="-667" rx="42.07" ry="42.07"/>
<text text-anchor="middle" x="515.47" y="-658.85" font-family="Times New Roman,serif" font-size="22.00">APIs</text>
</a>
</g>
</g>
<!-- graphviz&#45;&gt;api -->
<g id="edge4" class="edge">
<title>graphviz&#45;&gt;api</title>
<path fill="none" stroke="black" d="M585.19,-809.5C570.18,-779.05 552.66,-743.49 538.94,-715.64"/>
<polygon fill="black" stroke="black" points="542.11,-714.15 534.55,-706.72 535.83,-717.24 542.11,-714.15"/>
</g>
<!-- paper -->
<g id="node5" class="node">
<title>paper</title>
<g id="a_node5"><a xlink:href="https://www.graphviz.org/theory/" xlink:title="Papers">
<ellipse fill="dodgerblue" stroke="dodgerblue" cx="617.47" cy="-667" rx="52.68" ry="52.68"/>
<text text-anchor="middle" x="617.47" y="-658.85" font-family="Times New Roman,serif" font-size="22.00">Papers</text>
</a>
</g>
</g>
<!-- graphviz&#45;&gt;paper -->
<g id="edge5" class="edge">
<title>graphviz&#45;&gt;paper</title>
<path fill="none" stroke="black" d="M617.47,-802.02C617.47,-779.02 617.47,-753.82 617.47,-731.54"/>
<polygon fill="black" stroke="black" points="620.97,-731.69 617.47,-721.69 613.97,-731.69 620.97,-731.69"/>
</g>
<!-- CLIs -->
<g id="node6" class="node">
<title>CLIs</title>
<g id="a_node6"><a xlink:href="https://graphviz.org/doc/info/command.html" xlink:title="CLIs">
<ellipse fill="lavender" stroke="lavender" cx="719.47" cy="-667" rx="42.6" ry="42.6"/>
<text text-anchor="middle" x="719.47" y="-658.85" font-family="Times New Roman,serif" font-size="22.00">CLIs</text>
</a>
</g>
</g>
<!-- graphviz&#45;&gt;CLIs -->
<g id="edge3" class="edge">
<title>graphviz&#45;&gt;CLIs</title>
<path fill="none" stroke="black" d="M649.74,-809.5C664.7,-779.15 682.15,-743.73 695.85,-715.93"/>
<polygon fill="black" stroke="black" points="698.96,-717.54 700.24,-707.02 692.68,-714.45 698.96,-717.54"/>
</g>
<!-- element -->
<g id="node7" class="node">
<title>element</title>
<ellipse fill="lightgrey" stroke="black" cx="838.47" cy="-667" rx="69.12" ry="69.12"/>
<text text-anchor="middle" x="838.47" y="-658.85" font-family="Times New Roman,serif" font-size="22.00">Elements</text>
</g>
<!-- script&#45;&gt;element -->
<g id="edge6" class="edge">
<title>script&#45;&gt;element</title>
<path fill="none" stroke="black" d="M838.47,-800.27C838.47,-783.17 838.47,-764.93 838.47,-747.63"/>
<polygon fill="black" stroke="black" points="841.97,-747.94 838.47,-737.94 834.97,-747.94 841.97,-747.94"/>
</g>
<!-- attribute -->
<g id="node8" class="node">
<title>attribute</title>
<g id="a_node8"><a xlink:href="https://www.graphviz.org/docs/attr-types/" xlink:title="Attributes">
<ellipse fill="aqua" stroke="aqua" cx="987.47" cy="-667" rx="73.36" ry="73.36"/>
<text text-anchor="middle" x="987.47" y="-658.85" font-family="Times New Roman,serif" font-size="22.00">Attributes</text>
</a>
</g>
</g>
<!-- script&#45;&gt;attribute -->
<g id="edge7" class="edge">
<title>script&#45;&gt;attribute</title>
<path fill="none" stroke="black" d="M882.37,-814.01C899.95,-789.58 920.29,-761.33 938.36,-736.22"/>
<polygon fill="black" stroke="black" points="941.02,-738.52 944.02,-728.36 935.34,-734.43 941.02,-738.52"/>
</g>
<!-- dot -->
<g id="node9" class="node">
<title>dot</title>
<g id="a_node9"><a xlink:href="https://graphviz.org/docs/layouts/dot/" xlink:title="dot">
<ellipse fill="wheat" stroke="wheat" cx="31.47" cy="-159" rx="31.47" ry="31.47"/>
<text text-anchor="middle" x="31.47" y="-150.85" font-family="Times New Roman,serif" font-size="22.00">dot</text>
</a>
</g>
</g>
<!-- layout&#45;&gt;dot -->
<g id="edge8" class="edge">
<title>layout&#45;&gt;dot</title>
<path fill="none" stroke="black" d="M355.38,-389.34C268.02,-363.59 146.39,-316.1 66.47,-236.6 56.42,-226.62 48.97,-213.22 43.58,-200.42"/>
<polygon fill="black" stroke="black" points="46.94,-199.39 40.08,-191.31 40.4,-201.9 46.94,-199.39"/>
</g>
<!-- neato -->
<g id="node10" class="node">
<title>neato</title>
<g id="a_node10"><a xlink:href="https://graphviz.org/docs/layouts/neato/" xlink:title="neato">
<ellipse fill="wheat" stroke="wheat" cx="115.47" cy="-159" rx="45.25" ry="45.25"/>
<text text-anchor="middle" x="115.47" y="-150.85" font-family="Times New Roman,serif" font-size="22.00">neato</text>
</a>
</g>
</g>
<!-- layout&#45;&gt;neato -->
<g id="edge9" class="edge">
<title>layout&#45;&gt;neato</title>
<path fill="none" stroke="black" d="M362.39,-369.89C300.49,-338.61 222.12,-292.57 164.47,-236.6 156.23,-228.6 148.71,-218.97 142.18,-209.26"/>
<polygon fill="black" stroke="black" points="145.14,-207.4 136.79,-200.87 139.25,-211.18 145.14,-207.4"/>
</g>
<!-- fdp -->
<g id="node11" class="node">
<title>fdp</title>
<g id="a_node11"><a xlink:href="https://graphviz.org/docs/layouts/fdp/" xlink:title="fdp">
<ellipse fill="wheat" stroke="wheat" cx="200.47" cy="-159" rx="32.53" ry="32.53"/>
<text text-anchor="middle" x="200.47" y="-150.85" font-family="Times New Roman,serif" font-size="22.00">fdp</text>
</a>
</g>
</g>
<!-- layout&#45;&gt;fdp -->
<g id="edge10" class="edge">
<title>layout&#45;&gt;fdp</title>
<path fill="none" stroke="black" d="M369.98,-356.2C325.77,-324.71 274.55,-282.91 237.47,-236.6 228.9,-225.9 221.68,-212.89 215.96,-200.65"/>
<polygon fill="black" stroke="black" points="219.18,-199.29 211.93,-191.56 212.78,-202.12 219.18,-199.29"/>
</g>
<!-- sfdp -->
<g id="node12" class="node">
<title>sfdp</title>
<g id="a_node12"><a xlink:href="https://graphviz.org/docs/layouts/sfdp/" xlink:title="sfdp">
<ellipse fill="wheat" stroke="wheat" cx="278.47" cy="-159" rx="38.36" ry="38.36"/>
<text text-anchor="middle" x="278.47" y="-150.85" font-family="Times New Roman,serif" font-size="22.00">sfdp</text>
</a>
</g>
</g>
<!-- layout&#45;&gt;sfdp -->
<g id="edge11" class="edge">
<title>layout&#45;&gt;sfdp</title>
<path fill="none" stroke="black" d="M391.51,-331.93C367.79,-302.62 341.95,-268.91 320.47,-236.6 313.59,-226.26 306.81,-214.69 300.77,-203.74"/>
<polygon fill="black" stroke="black" points="304.01,-202.37 296.17,-195.24 297.85,-205.7 304.01,-202.37"/>
</g>
<!-- circo -->
<g id="node13" class="node">
<title>circo</title>
<g id="a_node13"><a xlink:href="https://graphviz.org/docs/layouts/circo/" xlink:title="circo">
<ellipse fill="wheat" stroke="wheat" cx="366.47" cy="-159" rx="42.6" ry="42.6"/>
<text text-anchor="middle" x="366.47" y="-150.85" font-family="Times New Roman,serif" font-size="22.00">circo</text>
</a>
</g>
</g>
<!-- layout&#45;&gt;circo -->
<g id="edge12" class="edge">
<title>layout&#45;&gt;circo</title>
<path fill="none" stroke="black" d="M423.97,-312.75C410.65,-277.37 396.31,-239.28 385.28,-209.99"/>
<polygon fill="black" stroke="black" points="388.56,-208.76 381.76,-200.63 382.01,-211.22 388.56,-208.76"/>
</g>
<!-- twopi -->
<g id="node14" class="node">
<title>twopi</title>
<g id="a_node14"><a xlink:href="https://graphviz.org/docs/layouts/twopi/" xlink:title="twopi">
<ellipse fill="wheat" stroke="wheat" cx="462.47" cy="-159" rx="46.85" ry="46.85"/>
<text text-anchor="middle" x="462.47" y="-150.85" font-family="Times New Roman,serif" font-size="22.00">twopi</text>
</a>
</g>
</g>
<!-- layout&#45;&gt;twopi -->
<g id="edge13" class="edge">
<title>layout&#45;&gt;twopi</title>
<path fill="none" stroke="black" d="M462.47,-305.75C462.47,-275.37 462.47,-243.58 462.47,-217.47"/>
<polygon fill="black" stroke="black" points="465.97,-217.78 462.47,-207.78 458.97,-217.78 465.97,-217.78"/>
</g>
<!-- nop -->
<g id="node15" class="node">
<title>nop</title>
<g id="a_node15"><a xlink:href="https://graphviz.org/docs/layouts/nop/" xlink:title="nop">
<ellipse fill="wheat" stroke="wheat" cx="551.47" cy="-159" rx="35.18" ry="35.18"/>
<text text-anchor="middle" x="551.47" y="-150.85" font-family="Times New Roman,serif" font-size="22.00">nop</text>
</a>
</g>
</g>
<!-- layout&#45;&gt;nop -->
<g id="edge14" class="edge">
<title>layout&#45;&gt;nop</title>
<path fill="none" stroke="black" d="M498.54,-311.65C511.7,-273.94 525.88,-233.32 536.25,-203.61"/>
<polygon fill="black" stroke="black" points="539.53,-204.81 539.52,-194.22 532.92,-202.51 539.53,-204.81"/>
</g>
<!-- nop2 -->
<g id="node16" class="node">
<title>nop2</title>
<g id="a_node16"><a xlink:href="https://graphviz.org/docs/layouts/nop2/" xlink:title="nop2">
<ellipse fill="wheat" stroke="wheat" cx="636.47" cy="-159" rx="43.13" ry="43.13"/>
<text text-anchor="middle" x="636.47" y="-150.85" font-family="Times New Roman,serif" font-size="22.00">nop2</text>
</a>
</g>
</g>
<!-- layout&#45;&gt;nop2 -->
<g id="edge15" class="edge">
<title>layout&#45;&gt;nop2</title>
<path fill="none" stroke="black" d="M526.98,-326.9C547.39,-298.38 569.75,-266.41 589.47,-236.6 595.93,-226.84 602.64,-216.22 608.89,-206.09"/>
<polygon fill="black" stroke="black" points="611.7,-208.21 613.94,-197.85 605.73,-204.55 611.7,-208.21"/>
</g>
<!-- osage -->
<g id="node17" class="node">
<title>osage</title>
<g id="a_node17"><a xlink:href="https://graphviz.org/docs/layouts/osage/" xlink:title="osage">
<ellipse fill="wheat" stroke="wheat" cx="733.47" cy="-159" rx="46.85" ry="46.85"/>
<text text-anchor="middle" x="733.47" y="-150.85" font-family="Times New Roman,serif" font-size="22.00">osage</text>
</a>
</g>
</g>
<!-- layout&#45;&gt;osage -->
<g id="edge16" class="edge">
<title>layout&#45;&gt;osage</title>
<path fill="none" stroke="black" d="M541.35,-339.21C554.15,-327.78 567.48,-316.37 580.47,-306.04 623.4,-271.92 643.89,-275.58 682.47,-236.6 690.39,-228.6 697.82,-219.19 704.42,-209.76"/>
<polygon fill="black" stroke="black" points="707.21,-211.89 709.89,-201.64 701.4,-207.98 707.21,-211.89"/>
</g>
<!-- patchwork -->
<g id="node18" class="node">
<title>patchwork</title>
<g id="a_node18"><a xlink:href="https://graphviz.org/docs/layouts/patchwork/" xlink:title="patchwork">
<ellipse fill="wheat" stroke="wheat" cx="864.47" cy="-159" rx="77.6" ry="77.6"/>
<text text-anchor="middle" x="864.47" y="-150.85" font-family="Times New Roman,serif" font-size="22.00">patchwork</text>
</a>
</g>
</g>
<!-- layout&#45;&gt;patchwork -->
<g id="edge17" class="edge">
<title>layout&#45;&gt;patchwork</title>
<path fill="none" stroke="black" d="M538.8,-336.28C551.99,-325.16 566.1,-314.62 580.47,-306.04 661.97,-257.37 701.1,-285.52 782.47,-236.6 789.24,-232.53 795.92,-227.83 802.38,-222.79"/>
<polygon fill="black" stroke="black" points="804.31,-225.74 809.85,-216.71 799.89,-220.31 804.31,-225.74"/>
</g>
<!-- plugins -->
<g id="node19" class="node">
<title>plugins</title>
<g id="a_node19"><a xlink:href="https://graphviz.org/docs/layouts/writing-layout-plugins/" xlink:title="plugins">
<ellipse fill="green" stroke="green" cx="1006.47" cy="-159" rx="57.45" ry="57.45"/>
<text text-anchor="middle" x="1006.47" y="-150.85" font-family="Times New Roman,serif" font-size="22.00">plugins</text>
</a>
</g>
</g>
<!-- layout&#45;&gt;plugins -->
<g id="edge18" class="edge">
<title>layout&#45;&gt;plugins</title>
<path fill="none" stroke="black" d="M537.12,-334.98C550.63,-323.89 565.28,-313.7 580.47,-306.04 727.93,-231.73 804.1,-321.95 945.47,-236.6 954.12,-231.38 962.05,-224.44 969.12,-216.88"/>
<polygon fill="black" stroke="black" points="971.52,-219.45 975.45,-209.61 966.25,-214.85 971.52,-219.45"/>
</g>
<!-- ele_graph -->
<g id="node20" class="node">
<title>ele_graph</title>
<g id="a_node20"><a xlink:href="https://graphviz.org/docs/graph/" xlink:title="Graph">
<ellipse fill="darksalmon" stroke="darksalmon" cx="634.47" cy="-416" rx="50.56" ry="50.56"/>
<text text-anchor="middle" x="634.47" y="-407.85" font-family="Times New Roman,serif" font-size="22.00">Graph</text>
</a>
</g>
</g>
<!-- element&#45;&gt;ele_graph -->
<g id="edge19" class="edge">
<title>element&#45;&gt;ele_graph</title>
<path fill="none" stroke="black" d="M790.13,-617.37C781.97,-609.36 773.53,-601.21 765.47,-593.64 732.5,-562.66 717.03,-561.82 689.47,-525.96 677.27,-510.09 666.58,-491.09 657.96,-473.44"/>
<polygon fill="black" stroke="black" points="661.21,-472.14 653.77,-464.61 654.89,-475.14 661.21,-472.14"/>
</g>
<!-- ele_node -->
<g id="node21" class="node">
<title>ele_node</title>
<g id="a_node21"><a xlink:href="https://graphviz.org/docs/nodes/" xlink:title="Node">
<ellipse fill="darksalmon" stroke="darksalmon" cx="737.47" cy="-416" rx="45.25" ry="45.25"/>
<text text-anchor="middle" x="737.47" y="-407.85" font-family="Times New Roman,serif" font-size="22.00">Node</text>
</a>
</g>
</g>
<!-- element&#45;&gt;ele_node -->
<g id="edge20" class="edge">
<title>element&#45;&gt;ele_node</title>
<path fill="none" stroke="black" d="M812.72,-602.52C795.94,-561.17 774.33,-507.88 758.57,-469.03"/>
<polygon fill="black" stroke="black" points="761.86,-467.83 754.86,-459.88 755.37,-470.46 761.86,-467.83"/>
</g>
<!-- ele_edge -->
<g id="node22" class="node">
<title>ele_edge</title>
<g id="a_node22"><a xlink:href="https://graphviz.org/docs/edges/" xlink:title="Edge">
<ellipse fill="darksalmon" stroke="darksalmon" cx="833.47" cy="-416" rx="43.66" ry="43.66"/>
<text text-anchor="middle" x="833.47" y="-407.85" font-family="Times New Roman,serif" font-size="22.00">Edge</text>
</a>
</g>
</g>
<!-- element&#45;&gt;ele_edge -->
<g id="edge21" class="edge">
<title>element&#45;&gt;ele_edge</title>
<path fill="none" stroke="black" d="M837.09,-597.63C836.29,-557.7 835.29,-508.04 834.55,-470.9"/>
<polygon fill="black" stroke="black" points="838.06,-471.24 834.36,-461.31 831.06,-471.38 838.06,-471.24"/>
</g>
<!-- ele_html -->
<g id="node23" class="node">
<title>ele_html</title>
<g id="a_node23"><a xlink:href="https://graphviz.org/doc/info/shapes.html#html" xlink:title="HTML&#45;like">
<ellipse fill="darksalmon" stroke="darksalmon" cx="968.47" cy="-416" rx="83.97" ry="83.97"/>
<text text-anchor="middle" x="968.47" y="-407.85" font-family="Times New Roman,serif" font-size="22.00">HTML&#45;like</text>
</a>
</g>
</g>
<!-- element&#45;&gt;ele_html -->
<g id="edge22" class="edge">
<title>element&#45;&gt;ele_html</title>
<path fill="none" stroke="black" d="M870.27,-605.09C886.62,-573.77 906.8,-535.11 924.61,-501"/>
<polygon fill="black" stroke="black" points="927.58,-502.87 929.11,-492.39 921.38,-499.63 927.58,-502.87"/>
</g>
<!-- ele_shape -->
<g id="node24" class="node">
<title>ele_shape</title>
<g id="a_node24"><a xlink:href="https://graphviz.org/doc/info/shapes.html" xlink:title="Shapes">
<ellipse fill="darksalmon" stroke="darksalmon" cx="1114.47" cy="-416" rx="55.33" ry="55.33"/>
<text text-anchor="middle" x="1114.47" y="-407.85" font-family="Times New Roman,serif" font-size="22.00">Shapes</text>
</a>
</g>
</g>
<!-- element&#45;&gt;ele_shape -->
<g id="edge23" class="edge">
<title>element&#45;&gt;ele_shape</title>
<path fill="none" stroke="black" d="M884.67,-615.61C893.15,-607.73 902.25,-600.08 911.47,-593.64 969.42,-553.12 1004.06,-574.52 1055.47,-525.96 1069.58,-512.62 1081.08,-495.14 1090.05,-478.1"/>
<polygon fill="black" stroke="black" points="1093.01,-480.01 1094.36,-469.5 1086.75,-476.87 1093.01,-480.01"/>
</g>
<!-- ele_arrow -->
<g id="node25" class="node">
<title>ele_arrow</title>
<g id="a_node25"><a xlink:href="https://graphviz.org/doc/info/arrows.html" xlink:title="Arrows">
<ellipse fill="darksalmon" stroke="darksalmon" cx="1234.47" cy="-416" rx="57.98" ry="57.98"/>
<text text-anchor="middle" x="1234.47" y="-407.85" font-family="Times New Roman,serif" font-size="22.00">Arrows</text>
</a>
</g>
</g>
<!-- element&#45;&gt;ele_arrow -->
<g id="edge24" class="edge">
<title>element&#45;&gt;ele_arrow</title>
<path fill="none" stroke="black" d="M883.72,-614.11C892.31,-606.4 901.7,-599.2 911.47,-593.64 1015.62,-534.37 1077.33,-598.82 1172.47,-525.96 1187.78,-514.23 1199.92,-497.57 1209.25,-480.79"/>
<polygon fill="black" stroke="black" points="1212.17,-482.76 1213.71,-472.28 1205.97,-479.51 1212.17,-482.76"/>
</g>
</g>
<g><![CDATA[source
#!/usr/bin/env -S dot -Tsvg -o graphviz_basic_structure.svg
#!/usr/bin/env -S plantumlc -tsvg -O

digraph gv_basic_structure{

    layout = dot
    fontsize=28.0
    label=< <B><br/>Graphviz Basic Structure</B> >;
    node[ fontsize=22 shape=circle style=filled ];
    nodesep = 0.1;
    ranksep = 0.3;
    rankdir = TD;
    ratio = 0.7
    size="60"

    {rank="min" graphviz script}

    graphviz[shape=doublecircle color=yellowgreen label="Graphviz" URL="https://graphviz.org/"];

    subgraph{
        layout[color=burlywood label="Layout Engines" URL="https://graphviz.org/docs/layouts/"];
        script[color=darkorange label="Dot Script" URL="https://graphviz.org/doc/info/lang.html"];
        api[color=ivory label="APIs" URL="https://www.graphviz.org/docs/library/"]
        paper[color=dodgerblue label="Papers" URL="https://www.graphviz.org/theory/"]
    }

    graphviz -> layout;
    graphviz -> script;
    graphviz -> CLIs;
    graphviz -> api;
    graphviz -> paper;

    CLIs [color=lavender URL="https://graphviz.org/doc/info/command.html"]

    script ->
    subgraph{
        element[label="Elements"];
        attribute[color=aqua label="Attributes" URL="https://www.graphviz.org/docs/attr-types/"];
    }

    layout ->
    subgraph { 
        rank = "sink"
        dot       [color="wheat" URL="https://graphviz.org/docs/layouts/dot/"]
        neato     [color="wheat" URL="https://graphviz.org/docs/layouts/neato/"]
        fdp       [color="wheat" URL="https://graphviz.org/docs/layouts/fdp/"]
        sfdp      [color="wheat" URL="https://graphviz.org/docs/layouts/sfdp/"]
        circo     [color="wheat" URL="https://graphviz.org/docs/layouts/circo/"]
        twopi     [color="wheat" URL="https://graphviz.org/docs/layouts/twopi/"]
        nop       [color="wheat" URL="https://graphviz.org/docs/layouts/nop/"]
        nop2      [color="wheat" URL="https://graphviz.org/docs/layouts/nop2/"]
        osage     [color="wheat" URL="https://graphviz.org/docs/layouts/osage/"]
        patchwork [color="wheat" URL="https://graphviz.org/docs/layouts/patchwork/"]
        plugins   [color="green" URL="https://graphviz.org/docs/layouts/writing-layout-plugins/"];
    }

    element ->
    subgraph{
        ele_graph[label="Graph"  color=darksalmon URL="https://graphviz.org/docs/graph/"]
        ele_node[label="Node"  color=darksalmon URL="https://graphviz.org/docs/nodes/"]
        ele_edge[label="Edge"  color=darksalmon URL="https://graphviz.org/docs/edges/"]
        ele_html[label="HTML-like" color=darksalmon URL="https://graphviz.org/doc/info/shapes.html#html"]
        ele_shape[label="Shapes" color=darksalmon URL="https://graphviz.org/doc/info/shapes.html"]
        ele_arrow[label="Arrows" color=darksalmon URL="https://graphviz.org/doc/info/arrows.html"]
    }
}

digraph gv_basic_structure{

    label=< <B><br/>Graphviz Structure</B> >;
    
    node[shape=circle];
    nodesep = 0.1;
    ranksep = 0.3;
    rankdir = BT;

    graphviz[label="Graphviz"];
    
    subgraph{
        layout[label="Layouts"];
        script[label="Script Files"];
        api[label="APIs"]
        rank=same;
    }
    
    graphviz -> layout;
    graphviz -> script;
    graphviz -> api;
    
    
    script ->
    subgraph{
        element[label="Elements"];
        attribute[label="Attributes"];
        rank=same;
    }
    
    layout ->
    subgraph{
        layout_dot[label="dot", color="red"];
        layout_neato[label="neato"];
        layout_etc[label="......"];
    }
    
    element ->
    subgraph{
        ele_graph[label="Graph"];
        ele_node[label="Node"];
        ele_edge[label="Edge"];
    }
}
]]></g>
</svg>
