<?xml version="1.0" encoding="UTF-8" standalone="no"?>
<!DOCTYPE svg PUBLIC "-//W3C//DTD SVG 1.1//EN"
 "http://www.w3.org/Graphics/SVG/1.1/DTD/svg11.dtd">
<!-- Generated by graphviz version 10.0.1 (20240210.2158)
 -->
<!-- Pages: 1 -->
<svg width="754pt" height="260pt"
 viewBox="0.00 0.00 753.75 260.00" xmlns="http://www.w3.org/2000/svg" xmlns:xlink="http://www.w3.org/1999/xlink">
<g id="graph0" class="graph" transform="scale(1 1) rotate(0) translate(4 256)">
<polygon fill="white" stroke="none" points="-4,4 -4,-256 749.75,-256 749.75,4 -4,4"/>
<!-- Functor -->
<g id="node1" class="node">
<title>Functor</title>
<polygon fill="none" stroke="black" points="129.88,-252 69.63,-252 69.63,-216 129.88,-216 129.88,-252"/>
<text text-anchor="middle" x="99.75" y="-228.57" font-family="Times New Roman,serif" font-size="14.00">Functor</text>
</g>
<!-- Applicative -->
<g id="node2" class="node">
<title>Applicative</title>
<polygon fill="none" stroke="black" points="229.25,-180 150.25,-180 150.25,-144 229.25,-144 229.25,-180"/>
<text text-anchor="middle" x="189.75" y="-156.57" font-family="Times New Roman,serif" font-size="14.00">Applicative</text>
</g>
<!-- Functor&#45;&gt;Applicative -->
<g id="edge1" class="edge">
<title>Functor&#45;&gt;Applicative</title>
<path fill="none" stroke="black" d="M122,-215.7C133.03,-207.11 146.54,-196.61 158.59,-187.24"/>
<polygon fill="black" stroke="black" points="160.51,-190.18 166.25,-181.28 156.21,-184.65 160.51,-190.18"/>
</g>
<!-- Traversable -->
<g id="node18" class="node">
<title>Traversable</title>
<polygon fill="none" stroke="black" points="178.38,-36 97.13,-36 97.13,0 178.38,0 178.38,-36"/>
<text text-anchor="middle" x="137.75" y="-12.57" font-family="Times New Roman,serif" font-size="14.00">Traversable</text>
</g>
<!-- Functor&#45;&gt;Traversable -->
<g id="edge25" class="edge">
<title>Functor&#45;&gt;Traversable</title>
<path fill="none" stroke="black" d="M102.8,-215.85C109.31,-179.14 124.67,-92.66 132.68,-47.53"/>
<polygon fill="black" stroke="black" points="136.12,-48.18 134.43,-37.72 129.23,-46.96 136.12,-48.18"/>
</g>
<!-- Comonad -->
<g id="node19" class="node">
<title>Comonad</title>
<polygon fill="none" stroke="grey" points="71.5,-180 0,-180 0,-144 71.5,-144 71.5,-180"/>
<text text-anchor="middle" x="35.75" y="-156.57" font-family="Times New Roman,serif" font-size="14.00">Comonad</text>
</g>
<!-- Functor&#45;&gt;Comonad -->
<g id="edge26" class="edge">
<title>Functor&#45;&gt;Comonad</title>
<path fill="none" stroke="black" d="M83.93,-215.7C76.41,-207.47 67.28,-197.48 58.99,-188.42"/>
<polygon fill="black" stroke="black" points="61.74,-186.24 52.41,-181.22 56.57,-190.96 61.74,-186.24"/>
</g>
<!-- Monad -->
<g id="node3" class="node">
<title>Monad</title>
<polygon fill="none" stroke="black" points="397.63,-108 341.88,-108 341.88,-72 397.63,-72 397.63,-108"/>
<text text-anchor="middle" x="369.75" y="-84.58" font-family="Times New Roman,serif" font-size="14.00">Monad</text>
</g>
<!-- Applicative&#45;&gt;Monad -->
<g id="edge2" class="edge">
<title>Applicative&#45;&gt;Monad</title>
<path fill="none" stroke="black" d="M229.52,-147.17C256.02,-137.76 291.79,-124.66 330.98,-108.59"/>
<polygon fill="black" stroke="black" points="332.26,-111.85 340.17,-104.79 329.59,-105.38 332.26,-111.85"/>
</g>
<!-- Alternative -->
<g id="node6" class="node">
<title>Alternative</title>
<polygon fill="none" stroke="black" points="241.38,-108 166.13,-108 166.13,-72 241.38,-72 241.38,-108"/>
<text text-anchor="middle" x="203.75" y="-84.58" font-family="Times New Roman,serif" font-size="14.00">Alternative</text>
</g>
<!-- Applicative&#45;&gt;Alternative -->
<g id="edge5" class="edge">
<title>Applicative&#45;&gt;Alternative</title>
<path fill="none" stroke="black" d="M193.21,-143.7C194.69,-136.32 196.45,-127.52 198.1,-119.25"/>
<polygon fill="black" stroke="black" points="201.5,-120.08 200.03,-109.59 194.64,-118.71 201.5,-120.08"/>
</g>
<!-- Applicative&#45;&gt;Traversable -->
<g id="edge23" class="edge">
<title>Applicative&#45;&gt;Traversable</title>
<path fill="none" stroke="black" stroke-dasharray="1,5" d="M176.82,-143.68C169.94,-133.7 161.86,-120.66 156.75,-108 147.11,-84.12 142.04,-54.57 139.63,-36.25"/>
</g>
<!-- MonadPlus -->
<g id="node7" class="node">
<title>MonadPlus</title>
<polygon fill="none" stroke="black" points="409.63,-36 329.88,-36 329.88,0 409.63,0 409.63,-36"/>
<text text-anchor="middle" x="369.75" y="-12.57" font-family="Times New Roman,serif" font-size="14.00">MonadPlus</text>
</g>
<!-- Monad&#45;&gt;MonadPlus -->
<g id="edge6" class="edge">
<title>Monad&#45;&gt;MonadPlus</title>
<path fill="none" stroke="black" d="M369.75,-71.7C369.75,-64.41 369.75,-55.73 369.75,-47.54"/>
<polygon fill="black" stroke="black" points="373.25,-47.62 369.75,-37.62 366.25,-47.62 373.25,-47.62"/>
</g>
<!-- MonadFix -->
<g id="node8" class="node">
<title>MonadFix</title>
<polygon fill="none" stroke="black" points="311.63,-36 237.88,-36 237.88,0 311.63,0 311.63,-36"/>
<text text-anchor="middle" x="274.75" y="-12.57" font-family="Times New Roman,serif" font-size="14.00">MonadFix</text>
</g>
<!-- Monad&#45;&gt;MonadFix -->
<g id="edge7" class="edge">
<title>Monad&#45;&gt;MonadFix</title>
<path fill="none" stroke="black" d="M346.27,-71.7C334.51,-63.03 320.08,-52.4 307.27,-42.96"/>
<polygon fill="black" stroke="black" points="309.64,-40.36 299.51,-37.24 305.49,-45.99 309.64,-40.36"/>
</g>
<!-- ArrowApply -->
<g id="node13" class="node">
<title>ArrowApply</title>
<polygon fill="none" stroke="black" points="514,-36 427.5,-36 427.5,0 514,0 514,-36"/>
<text text-anchor="middle" x="470.75" y="-12.57" font-family="Times New Roman,serif" font-size="14.00">ArrowApply</text>
</g>
<!-- Monad&#45;&gt;ArrowApply -->
<g id="edge20" class="edge">
<title>Monad&#45;&gt;ArrowApply</title>
<path fill="none" stroke="black" stroke-width="2" d="M394.98,-71.52C410.52,-60.74 430.36,-46.99 445.85,-36.26"/>
</g>
<!-- Apply -->
<g id="node4" class="node">
<title>Apply</title>
<polygon fill="none" stroke="grey" points="216.75,-252 162.75,-252 162.75,-216 216.75,-216 216.75,-252"/>
<text text-anchor="middle" x="189.75" y="-228.57" font-family="Times New Roman,serif" font-size="14.00">Apply</text>
</g>
<!-- Apply&#45;&gt;Applicative -->
<g id="edge3" class="edge">
<title>Apply&#45;&gt;Applicative</title>
<path fill="none" stroke="black" d="M189.75,-215.7C189.75,-208.41 189.75,-199.73 189.75,-191.54"/>
<polygon fill="black" stroke="black" points="193.25,-191.62 189.75,-181.62 186.25,-191.62 193.25,-191.62"/>
</g>
<!-- Semigroup -->
<g id="node5" class="node">
<title>Semigroup</title>
<polygon fill="none" stroke="black" points="408.13,-252 331.38,-252 331.38,-216 408.13,-216 408.13,-252"/>
<text text-anchor="middle" x="369.75" y="-228.57" font-family="Times New Roman,serif" font-size="14.00">Semigroup</text>
</g>
<!-- Semigroup&#45;&gt;Apply -->
<g id="edge4" class="edge">
<title>Semigroup&#45;&gt;Apply</title>
<path fill="none" stroke="black" stroke-dasharray="1,5" d="M331.01,-234C293.06,-234 255.12,-234 217.17,-234"/>
</g>
<!-- Monoid -->
<g id="node9" class="node">
<title>Monoid</title>
<polygon fill="none" stroke="black" points="399.88,-180 339.63,-180 339.63,-144 399.88,-144 399.88,-180"/>
<text text-anchor="middle" x="369.75" y="-156.57" font-family="Times New Roman,serif" font-size="14.00">Monoid</text>
</g>
<!-- Semigroup&#45;&gt;Monoid -->
<g id="edge8" class="edge">
<title>Semigroup&#45;&gt;Monoid</title>
<path fill="none" stroke="black" d="M369.75,-215.7C369.75,-208.41 369.75,-199.73 369.75,-191.54"/>
<polygon fill="black" stroke="black" points="373.25,-191.62 369.75,-181.62 366.25,-191.62 373.25,-191.62"/>
</g>
<!-- Monoid&#45;&gt;Applicative -->
<g id="edge9" class="edge">
<title>Monoid&#45;&gt;Applicative</title>
<path fill="none" stroke="black" stroke-dasharray="1,5" d="M339.34,-162C302.72,-162 266.1,-162 229.48,-162"/>
</g>
<!-- Monoid&#45;&gt;Monad -->
<g id="edge22" class="edge">
<title>Monoid&#45;&gt;Monad</title>
<path fill="none" stroke="black" stroke-dasharray="1,5" d="M369.75,-143.7C369.75,-132.85 369.75,-118.92 369.75,-108.1"/>
</g>
<!-- Monoid&#45;&gt;Alternative -->
<g id="edge11" class="edge">
<title>Monoid&#45;&gt;Alternative</title>
<path fill="none" stroke="black" stroke-dasharray="1,5" d="M339.3,-148.16C311.78,-136.56 271.17,-119.43 241.58,-106.95"/>
</g>
<!-- Monoid&#45;&gt;MonadPlus -->
<g id="edge12" class="edge">
<title>Monoid&#45;&gt;MonadPlus</title>
<path fill="none" stroke="black" stroke-dasharray="1,5" d="M385.79,-143.85C393.76,-134.12 402.58,-121.27 406.75,-108 411.55,-92.74 411.55,-87.26 406.75,-72 402.58,-58.73 393.76,-45.88 385.79,-36.15"/>
</g>
<!-- Category -->
<g id="node10" class="node">
<title>Category</title>
<polygon fill="none" stroke="black" points="562.25,-180 495.25,-180 495.25,-144 562.25,-144 562.25,-180"/>
<text text-anchor="middle" x="528.75" y="-156.57" font-family="Times New Roman,serif" font-size="14.00">Category</text>
</g>
<!-- Monoid&#45;&gt;Category -->
<g id="edge10" class="edge">
<title>Monoid&#45;&gt;Category</title>
<path fill="none" stroke="black" stroke-dasharray="1,5" d="M400.18,-162C431.74,-162 463.29,-162 494.85,-162"/>
</g>
<!-- ArrowPlus -->
<g id="node16" class="node">
<title>ArrowPlus</title>
<polygon fill="none" stroke="black" points="745.75,-108 669.75,-108 669.75,-72 745.75,-72 745.75,-108"/>
<text text-anchor="middle" x="707.75" y="-84.58" font-family="Times New Roman,serif" font-size="14.00">ArrowPlus</text>
</g>
<!-- Monoid&#45;&gt;ArrowPlus -->
<g id="edge19" class="edge">
<title>Monoid&#45;&gt;ArrowPlus</title>
<path fill="none" stroke="black" stroke-dasharray="1,5" d="M400.23,-156.11C464.43,-145.71 611.67,-121.25 660.75,-108 663.6,-107.23 666.52,-106.37 669.44,-105.45"/>
</g>
<!-- Foldable -->
<g id="node17" class="node">
<title>Foldable</title>
<polygon fill="none" stroke="black" points="324.13,-108 259.38,-108 259.38,-72 324.13,-72 324.13,-108"/>
<text text-anchor="middle" x="291.75" y="-84.58" font-family="Times New Roman,serif" font-size="14.00">Foldable</text>
</g>
<!-- Monoid&#45;&gt;Foldable -->
<g id="edge21" class="edge">
<title>Monoid&#45;&gt;Foldable</title>
<path fill="none" stroke="black" stroke-dasharray="1,5" d="M350.47,-143.7C338.47,-132.93 323.09,-119.12 311.08,-108.35"/>
</g>
<!-- Arrow -->
<g id="node11" class="node">
<title>Arrow</title>
<polygon fill="none" stroke="black" points="555.75,-108 501.75,-108 501.75,-72 555.75,-72 555.75,-108"/>
<text text-anchor="middle" x="528.75" y="-84.58" font-family="Times New Roman,serif" font-size="14.00">Arrow</text>
</g>
<!-- Category&#45;&gt;Arrow -->
<g id="edge13" class="edge">
<title>Category&#45;&gt;Arrow</title>
<path fill="none" stroke="black" d="M528.75,-143.7C528.75,-136.41 528.75,-127.73 528.75,-119.54"/>
<polygon fill="black" stroke="black" points="532.25,-119.62 528.75,-109.62 525.25,-119.62 532.25,-119.62"/>
</g>
<!-- ArrowChoice -->
<g id="node12" class="node">
<title>ArrowChoice</title>
<polygon fill="none" stroke="black" points="623.63,-36 531.88,-36 531.88,0 623.63,0 623.63,-36"/>
<text text-anchor="middle" x="577.75" y="-12.57" font-family="Times New Roman,serif" font-size="14.00">ArrowChoice</text>
</g>
<!-- Arrow&#45;&gt;ArrowChoice -->
<g id="edge14" class="edge">
<title>Arrow&#45;&gt;ArrowChoice</title>
<path fill="none" stroke="black" d="M540.86,-71.7C546.44,-63.73 553.18,-54.1 559.37,-45.26"/>
<polygon fill="black" stroke="black" points="562.04,-47.54 564.91,-37.34 556.31,-43.53 562.04,-47.54"/>
</g>
<!-- Arrow&#45;&gt;ArrowApply -->
<g id="edge15" class="edge">
<title>Arrow&#45;&gt;ArrowApply</title>
<path fill="none" stroke="black" d="M514.41,-71.7C507.67,-63.56 499.49,-53.69 492.05,-44.7"/>
<polygon fill="black" stroke="black" points="494.96,-42.74 485.89,-37.27 489.57,-47.2 494.96,-42.74"/>
</g>
<!-- ArrowLoop -->
<g id="node14" class="node">
<title>ArrowLoop</title>
<polygon fill="none" stroke="black" points="724.13,-36 641.38,-36 641.38,0 724.13,0 724.13,-36"/>
<text text-anchor="middle" x="682.75" y="-12.57" font-family="Times New Roman,serif" font-size="14.00">ArrowLoop</text>
</g>
<!-- Arrow&#45;&gt;ArrowLoop -->
<g id="edge16" class="edge">
<title>Arrow&#45;&gt;ArrowLoop</title>
<path fill="none" stroke="black" d="M556.24,-75.95C559.11,-74.61 561.99,-73.27 564.75,-72 587.09,-61.71 611.9,-50.53 632.99,-41.1"/>
<polygon fill="black" stroke="black" points="634.25,-44.37 641.95,-37.1 631.39,-37.98 634.25,-44.37"/>
</g>
<!-- ArrowZero -->
<g id="node15" class="node">
<title>ArrowZero</title>
<polygon fill="none" stroke="black" points="651.88,-108 573.63,-108 573.63,-72 651.88,-72 651.88,-108"/>
<text text-anchor="middle" x="612.75" y="-84.58" font-family="Times New Roman,serif" font-size="14.00">ArrowZero</text>
</g>
<!-- Arrow&#45;&gt;ArrowZero -->
<g id="edge17" class="edge">
<title>Arrow&#45;&gt;ArrowZero</title>
<path fill="none" stroke="black" d="M555.98,-90C557.97,-90 559.95,-90 561.93,-90"/>
<polygon fill="black" stroke="black" points="561.77,-93.5 571.77,-90 561.77,-86.5 561.77,-93.5"/>
</g>
<!-- ArrowZero&#45;&gt;ArrowPlus -->
<g id="edge18" class="edge">
<title>ArrowZero&#45;&gt;ArrowPlus</title>
<path fill="none" stroke="black" d="M652.09,-90C654.08,-90 656.07,-90 658.07,-90"/>
<polygon fill="black" stroke="black" points="657.97,-93.5 667.97,-90 657.97,-86.5 657.97,-93.5"/>
</g>
<!-- Foldable&#45;&gt;Traversable -->
<g id="edge24" class="edge">
<title>Foldable&#45;&gt;Traversable</title>
<path fill="none" stroke="black" d="M259.09,-74.15C237.94,-64.54 210.02,-51.85 186.29,-41.07"/>
<polygon fill="black" stroke="black" points="188,-38 177.45,-37.04 185.1,-44.37 188,-38"/>
</g>
</g>
</svg>
