<?xml version="1.0" encoding="UTF-8" standalone="no"?>
<!-- Generator: Blender, SVG Export for Grease Pencil - v1.0 -->

<svg
   version="1.0"
   x="0px"
   y="0px"
   width="320px"
   height="120px"
   viewBox="0 0 320 120"
   id="svg10"
   sodipodi:docname="Pythagorean_theorem.svg"
   inkscape:version="1.3.2 (091e20e, 2023-11-25, custom)"
   xmlns:inkscape="http://www.inkscape.org/namespaces/inkscape"
   xmlns:sodipodi="http://sodipodi.sourceforge.net/DTD/sodipodi-0.dtd"
   xmlns="http://www.w3.org/2000/svg"
   xmlns:svg="http://www.w3.org/2000/svg">
  <defs
     id="defs10" />
  <sodipodi:namedview
     id="namedview10"
     pagecolor="#505050"
     bordercolor="#ffffff"
     borderopacity="1"
     inkscape:showpageshadow="0"
     inkscape:pageopacity="0"
     inkscape:pagecheckerboard="1"
     inkscape:deskcolor="#505050"
     inkscape:zoom="1.9625"
     inkscape:cx="160"
     inkscape:cy="60.127389"
     inkscape:window-width="1500"
     inkscape:window-height="948"
     inkscape:window-x="-6"
     inkscape:window-y="-6"
     inkscape:window-maximized="1"
     inkscape:current-layer="svg10" />
  <clipPath
     id="clip-path1">
    <rect
       x="0"
       y="0"
       width="320"
       height="120"
       fill="none"
       id="rect1" />
  </clipPath>
  <g
     id="blender_frame_1"
     clip-path="url(#clip-path1)"
     transform="translate(-1.2394945,-8.1528662)">
    <g
       id="blender_object_Stroke">
      <!--Layer: bg-->
      <g
         id="bg">
        <polygon
           fill="#fe001b"
           stroke="none"
           fill-opacity="1"
           points="257.00711,100.56241 235.65543,100.56241 214.30376,100.56241 192.95212,100.56241 192.95212,79.42366 192.95212,58.284904 192.95212,37.146156 192.95212,16.007393 214.30376,16.007393 235.65543,16.007393 257.00711,16.007393 278.35877,16.007393 278.35877,37.146156 278.35877,58.284904 278.35877,79.42366 278.35877,100.56241 "
           id="polygon1" />
        <polygon
           fill="#fe001b"
           stroke="none"
           fill-opacity="1"
           points="65.727417,15.445419 87.269096,15.445419 108.81077,15.445419 130.35245,15.445419 130.35245,36.766533 130.35245,58.087643 130.35245,79.408752 130.35245,100.72986 108.81077,100.72986 87.269096,100.72986 65.727417,100.72986 44.185745,100.72986 44.185745,79.408752 44.185745,58.087643 44.185745,36.766533 44.185745,15.445419 "
           id="polygon2" />
      </g>
      <!--Layer: Fills-->
      <g
         id="Fills">
        <polygon
           fill="#cecece"
           stroke="none"
           fill-opacity="1"
           points="96.12114,15.493271 87.476845,15.493271 78.83255,15.493271 70.188248,15.493271 61.543953,15.493271 52.899658,15.493271 44.255363,15.493271 44.255363,18.998711 44.255363,22.504166 44.255363,26.009621 44.255363,29.515076 44.255363,33.020538 44.255363,36.525978 44.255363,40.031441 52.887085,36.513428 61.518829,32.995415 70.150558,29.477394 78.782288,25.959366 87.414032,22.441345 96.045761,18.923325 104.67749,15.405304 104.76543,15.493271 "
           id="polygon3" />
        <polygon
           fill="#cecece"
           stroke="none"
           fill-opacity="1"
           points="44.208183,49.007652 44.208183,57.651943 44.208183,66.296242 44.208183,74.940536 44.208183,83.584839 44.208183,92.229126 44.208183,100.87343 47.713631,100.87343 51.219093,100.87343 54.724548,100.87343 58.230011,100.87343 61.735466,100.87343 65.240906,100.87343 68.746368,100.87343 65.228348,92.241692 61.710327,83.609955 58.19231,74.978226 54.674294,66.346497 51.156273,57.714764 47.638245,49.083031 44.120224,40.451302 44.208183,40.363358 "
           id="polygon4" />
        <polygon
           fill="#cecece"
           stroke="none"
           fill-opacity="1"
           points="130.43404,67.247299 130.43404,58.603004 130.43404,49.95871 130.43404,41.314407 130.43404,32.670113 130.43405,24.02581 130.43405,15.381516 126.92859,15.381516 123.42314,15.381516 119.91768,15.381516 116.41222,15.381516 112.90676,15.381516 109.40132,15.381516 105.89586,15.381516 109.41388,24.013252 112.93188,32.644989 116.44991,41.276718 119.96793,49.908447 123.48595,58.540184 127.00397,67.171921 130.52199,75.80365 130.43404,75.891594 "
           id="polygon5" />
        <polygon
           fill="#cecece"
           stroke="none"
           fill-opacity="1"
           points="78.462921,100.63601 87.107224,100.63601 95.751511,100.63601 104.39581,100.63601 113.0401,100.63601 121.68441,100.63601 130.32871,100.63601 130.32871,97.130554 130.32871,93.625107 130.32871,90.119644 130.32871,86.614197 130.32871,83.108734 130.32871,79.603294 130.32871,76.097832 121.69697,79.615845 113.06523,83.133858 104.4335,86.651886 95.801773,90.169907 87.170044,93.68792 78.538315,97.205948 69.906578,100.72396 69.818642,100.63601 "
           id="polygon6" />
      </g>
      <!--Layer: Lines-->
      <g
         id="Lines">
        <polygon
           fill="#cecece"
           stroke="none"
           fill-opacity="1"
           points="226.46658,40.400261 235.11087,40.400261 243.75517,40.400269 252.39947,40.400269 261.04376,40.400269 269.68808,40.400269 278.33237,40.400269 278.33237,36.894806 278.33237,33.389359 278.33237,29.883896 278.33237,26.378448 278.33237,22.872986 278.33237,19.367538 278.33237,15.862083 269.70062,19.380096 261.06888,22.898117 252.43716,26.416138 243.80542,29.934158 235.17371,33.452171 226.54196,36.9702 217.91023,40.488213 217.82228,40.400261 "
           id="polygon7" />
        <polygon
           fill="#cecece"
           stroke="none"
           fill-opacity="1"
           points="193.02075,48.754761 193.02075,57.399059 193.02075,66.043365 193.02075,74.68766 193.02075,83.331955 193.02075,91.97625 193.02075,100.62054 196.52618,100.62054 200.03165,100.62054 203.53711,100.62054 207.04256,100.62054 210.54802,100.62054 214.05347,100.62054 217.55891,100.62054 214.04089,91.988815 210.52289,83.357079 207.00487,74.725349 203.48685,66.09362 199.96884,57.461887 196.45081,48.830154 192.93277,40.198425 193.02075,40.110466 "
           id="polygon8" />
        <polygon
           fill="#cecece"
           stroke="none"
           fill-opacity="1"
           points="217.61981,92.201607 217.61981,83.557304 217.61981,74.91301 217.61981,66.268715 217.61981,57.62442 217.61981,48.980125 217.61981,40.335823 214.11436,40.335823 210.60892,40.335823 207.10345,40.335823 203.59801,40.335823 200.09255,40.335823 196.5871,40.335823 193.08165,40.335823 196.59966,48.96756 200.11768,57.599293 203.6357,66.231026 207.15372,74.862755 210.67172,83.494492 214.18976,92.126221 217.70776,100.75795 217.61981,100.8459 "
           id="polygon9" />
        <polygon
           fill="#cecece"
           stroke="none"
           fill-opacity="1"
           points="269.53412,15.966255 260.88983,15.966255 252.2455,15.966255 243.60121,15.966255 234.95691,15.966255 226.31262,15.966255 217.66832,15.96624 217.66832,19.47171 217.66832,22.977158 217.66832,26.482613 217.66832,29.988083 217.66832,33.493538 217.66832,36.998978 217.66832,40.50444 226.30005,36.98642 234.93179,33.468399 243.56352,29.950394 252.19525,26.432358 260.827,22.914337 269.45874,19.396317 278.09045,15.878304 278.17841,15.966255 "
           id="polygon10" />
      </g>
    </g>
  </g>
  <text
     xml:space="preserve"
     style="font-size:16.5652px;line-height:1.25;font-family:sans-serif;stroke-width:0.690218"
     x="128.46248"
     y="105.71707"
     id="text10"
     transform="scale(0.92273081,1.0837397)"><tspan
       sodipodi:role="line"
       id="tspan10"
       x="128.46248"
       y="105.71707"
       style="stroke-width:0.690218">c² = a² + b²</tspan></text>
</svg>
